<?xml version="1.0" encoding="UTF-8" standalone="no"?>
<svg
   xmlns:dc="http://purl.org/dc/elements/1.1/"
   xmlns:cc="http://creativecommons.org/ns#"
   xmlns:rdf="http://www.w3.org/1999/02/22-rdf-syntax-ns#"
   xmlns:svg="http://www.w3.org/2000/svg"
   xmlns="http://www.w3.org/2000/svg"
   xmlns:sodipodi="http://sodipodi.sourceforge.net/DTD/sodipodi-0.dtd"
   xmlns:inkscape="http://www.inkscape.org/namespaces/inkscape"
   width="210mm"
   height="297mm"
   viewBox="0 0 210 297"
   version="1.1"
   id="svg91"
   sodipodi:docname="100mage.svg"
   inkscape:version="1.0.2 (e86c870879, 2021-01-15, custom)">
  <defs
     id="defs85" />
  <sodipodi:namedview
     id="base"
     pagecolor="#ffffff"
     bordercolor="#666666"
     borderopacity="1.0"
     inkscape:pageopacity="0.0"
     inkscape:pageshadow="2"
     inkscape:zoom="2.1838286"
     inkscape:cx="384.36831"
     inkscape:cy="353.77788"
     inkscape:document-units="mm"
     inkscape:current-layer="layer1"
     inkscape:document-rotation="0"
     showgrid="false"
     inkscape:window-width="1346"
     inkscape:window-height="1040"
     inkscape:window-x="104"
     inkscape:window-y="0"
     inkscape:window-maximized="0" />
  <metadata
     id="metadata88">
    <rdf:RDF>
      <cc:Work
         rdf:about="">
        <dc:format>image/svg+xml</dc:format>
        <dc:type
           rdf:resource="http://purl.org/dc/dcmitype/StillImage" />
        <dc:title></dc:title>
      </cc:Work>
    </rdf:RDF>
  </metadata>
  <g
     inkscape:label="Layer 1"
     inkscape:groupmode="layer"
     id="layer1">
    <path
       style="fill:#333333;fill-opacity:1;stroke-width:0.742893"
       d="m 86.499961,249.71018 c -1.93543,-3.7255 -2.09,-3.85134 -2.59869,-2.11564 -0.51952,1.7727 -0.54379,1.75669 -0.61537,-0.406 -0.079,-2.38711 -1.23421,-4.02315 -2.84074,-4.02315 -0.6821,0 -1.0046,1.37575 -1.08155,4.6137 l -0.10964,4.6137 -0.56924,-5.16734 c -0.31309,-2.84204 -0.79663,-6.33 -1.07456,-7.75102 -0.4067,-2.07945 -0.1283,-3.13031 1.42651,-5.38467 2.47252,-3.58497 1.926152,-6.42757 -0.473502,-16.98959 -1.611028,-3.99797 -9.739648,-7.87094 -12.085857,-17.6138 -2.132172,-8.85406 8.66625,-2.26671 8.66625,-2.26671 -1.166311,2.32664 -7.420564,-0.22219 -7.688244,-1.01508 -0.96157,0.38039 -5.899126,-1.26563 -6.448182,-1.30867 -7.079185,-0.55498 -9.472674,-14.38132 -7.87556,-32.35969 0,0 -8.911335,-0.31061 -5.736765,-19.61735 6.547877,-39.82206 27.112976,-8.37804 29.758723,-5.16859 l -10.11997,0.24404 c -6.136256,0.14797 -12.411925,-11.34768 -12.411925,-11.34768 -0.118352,-0.27512 -1.896691,-6.97052 16.260149,-10.42145 l -4.846229,1.45388 c 0,0 -2.78186,-3.22767 2.270784,-5.32136 0,0 2.422211,0.56882 0,0 -5.835035,-1.37028 -4.667506,-11.09135 -2.211457,-11.95385 -2.028064,2.36378 -7.204874,-3.625416 -1.576133,-23.986399 4.802909,-17.373682 13.399149,-24.418849 15.639951,-28.641946 1.817663,-3.425634 7.676983,-5.956845 10.777603,-6.531185 3.64325,-0.67486 10.052623,2.36583 13.164593,6.24545 2.71949,3.39031 2.72152,2.71623 -0.035,11.6262 -0.39886,1.28925 0.15365,3.19932 0.41935,4.24461 0.29012,1.14137 -0.88076,1.567395 -0.96626,2.032812 -0.57692,3.140452 -4.436729,10.616594 -7.791362,9.171343 -6.662776,-2.870472 -6.008382,-4.069678 -3.285448,-5.840594 3.574561,-2.32479 3.033962,5.822971 7.414704,6.474994 4.854206,0.722492 13.747716,7.802738 10.927406,5.379625 12.31287,6.650685 14.50636,18.367082 13.97457,18.238685 -1.0923,7.905675 -7.24598,-9.451324 -12.60636,-6.513952 -3.70009,2.027567 -4.33706,2.779857 1.15529,-2.453564 5.40422,-5.149447 10.14057,-7.82697 13.4917,-8.04403 1.15228,-0.0746 2.18551,-0.25674 2.29607,-0.40468 0.32199,-0.43088 9.57167,-11.27947 10.19397,-11.95612 0.63352,-0.68885 3.7317,0.97179 3.7317,2.0002 0,0.36395 -2.1868,3.07426 -4.85956,6.02292 -4.04406,4.46152 -4.85955,5.7999 -4.85955,7.97545 0,1.43784 -0.29737,2.79571 -0.66081,3.0175 -0.36345,0.22179 -1.34071,1.83142 -2.17169,3.57696 -1.34108,2.81704 -0.57051,7.466088 -7.28578,13.927501 -12.83859,12.35325 -1.95304,0.71208 -5.17914,2.03096 -5.44477,2.22591 -2.09639,0.83973 -5.97455,3.42956 l -18.320986,12.23473 29.172146,-20.14247 c 6.14536,-4.243185 27.13667,35.46664 21.1702,54.7292 -12.03492,38.85432 -41.00005,0.71705 -40.9997,0.71688 4.3422,-2.11011 35.16173,-1.74667 30.01917,18.75225 -1.0432,5.26792 -1.85772,19.46178 -5.2425,17.27563 -7.20988,1.70105 -16.60692,2.14664 -19.12725,3.06625 -1.60458,0.58548 -9.820921,2.46274 -5.56186,1.26995 0.59398,-0.16635 -0.7338,0.41836 -2.93506,0.16095 -1.920043,-0.22454 -2.277691,-2.2982 -2.090911,-2.84445 1.60117,-4.68265 17.606741,-41.47773 17.315441,-2.26218 -0.103,13.86684 -19.573816,35.1467 -19.241083,38.44776 0.235257,2.334 1.65527,5.72099 2.08138,7.75102 0.9943,4.73704 1.45627,5.22781 5.915003,6.28395 4.4732,1.05956 5.22139,1.95087 2.49636,2.97386 -1.12201,0.4212 -2.44822,1.31702 -2.94713,1.99071 -0.70317,0.94951 -2.51096,1.29414 -8.041353,1.53297 l -7.13426,0.30809 z"
       id="path26"
       sodipodi:nodetypes="ssssscssscsscssscsccccscssssssssssccssssssssssssscsssccssssssssssscs" />
  </g>
</svg>
