<?xml version="1.0" encoding="UTF-8" standalone="no"?>
<svg
   xmlns:dc="http://purl.org/dc/elements/1.1/"
   xmlns:cc="http://creativecommons.org/ns#"
   xmlns:rdf="http://www.w3.org/1999/02/22-rdf-syntax-ns#"
   xmlns:svg="http://www.w3.org/2000/svg"
   xmlns="http://www.w3.org/2000/svg"
   xmlns:sodipodi="http://sodipodi.sourceforge.net/DTD/sodipodi-0.dtd"
   xmlns:inkscape="http://www.inkscape.org/namespaces/inkscape"
   width="210mm"
   height="297mm"
   viewBox="0 0 210 297"
   version="1.1"
   id="svg91"
   sodipodi:docname="120mage.svg"
   inkscape:version="1.0.2 (e86c870879, 2021-01-15, custom)">
  <defs
     id="defs85" />
  <sodipodi:namedview
     id="base"
     pagecolor="#ffffff"
     bordercolor="#666666"
     borderopacity="1.0"
     inkscape:pageopacity="0.0"
     inkscape:pageshadow="2"
     inkscape:zoom="0.77210002"
     inkscape:cx="431.54261"
     inkscape:cy="430.47664"
     inkscape:document-units="mm"
     inkscape:current-layer="layer1"
     inkscape:document-rotation="0"
     showgrid="false"
     inkscape:window-width="1346"
     inkscape:window-height="1040"
     inkscape:window-x="104"
     inkscape:window-y="0"
     inkscape:window-maximized="0" />
  <metadata
     id="metadata88">
    <rdf:RDF>
      <cc:Work
         rdf:about="">
        <dc:format>image/svg+xml</dc:format>
        <dc:type
           rdf:resource="http://purl.org/dc/dcmitype/StillImage" />
        <dc:title></dc:title>
      </cc:Work>
    </rdf:RDF>
  </metadata>
  <g
     inkscape:label="Layer 1"
     inkscape:groupmode="layer"
     id="layer1">
    <path
       style="fill:#333333;fill-opacity:1;stroke-width:0.742893"
       d="m 86.499961,249.71018 c -1.93543,-3.7255 -2.09,-3.85134 -2.59869,-2.11564 -0.51952,1.7727 -0.54379,1.75669 -0.61537,-0.406 -0.079,-2.38711 -1.23421,-4.02315 -2.84074,-4.02315 -0.6821,0 -1.0046,1.37575 -1.08155,4.6137 l -0.10964,4.6137 -0.56924,-5.16734 c -0.31309,-2.84204 -0.79663,-6.33 -1.07456,-7.75102 -0.4067,-2.07945 -0.17982,-3.16673 1.42651,-5.38467 2.484413,-3.43036 -0.407847,1.75796 -3.381239,-16.26266 -0.598816,-1.48604 -3.025095,-1.60137 -4.435615,-3.48693 -2.384284,-3.18726 -4.116467,-8.73234 -5.590595,-14.8538 -2.132174,-8.85406 9.51434,-2.26671 9.51434,-2.26671 -1.166311,2.32664 -9.24666,3.0596 -9.51434,2.26671 -0.96157,0.38039 -8.675419,-5.78894 -9.226004,-5.80202 -2.651453,-0.063 -4.463035,-7.86113 -3.756265,-25.93843 0,0 -9.638269,-5.52031 -6.463699,-24.82705 6.547877,-39.82206 28.324533,-8.37804 30.97028,-5.16859 l -10.11997,0.24404 c -6.136256,0.14797 -13.865794,-11.34768 -13.865794,-11.34768 0,0 -0.442822,-6.97052 17.714018,-10.42145 l -10.169948,3.18807 c 0,0 2.541859,-4.96186 7.594503,-7.05555 0,0 1.266638,-2.02041 0,0.12116 -3.984649,6.73704 -9.590424,-13.326292 -5.177989,-15.280291 -2.028064,2.363781 -7.84866,-0.420135 0.178842,-20.781118 6.611368,-16.769096 13.520305,-24.782316 15.882262,-28.641946 2.024238,-3.307768 8.646229,-5.956845 11.746849,-6.531185 3.64325,-0.67486 10.052613,2.365836 13.164593,6.24545 2.71949,3.39031 0.39201,10.86952 -0.035,11.6262 -0.66325,1.17531 0.5777,3.502209 0.8434,4.547499 0.29012,1.14137 -0.90569,3.486681 -0.90569,3.486681 -0.20552,4.765899 -2.93517,10.4721 -8.760605,6.929962 -4.934447,-3.000375 -7.946873,-6.492792 -5.223939,-8.263708 3.574561,-2.32479 7.637879,10.6692 12.018624,11.321223 4.8542,0.722492 8.44715,2.593042 11.04856,4.046912 12.31287,6.650685 12.2044,17.761303 11.67261,17.632906 -1.0923,7.905675 -7.24598,-9.451324 -12.60636,-6.513952 -3.70009,2.027567 -4.33706,2.779857 1.15529,-2.453564 5.40422,-5.149447 10.14057,-7.82697 13.4917,-8.04403 1.15228,-0.0746 2.18551,-0.25674 2.29607,-0.40468 0.32199,-0.43088 9.57167,-11.27947 10.19397,-11.95612 0.63352,-0.68885 3.7317,0.97179 3.7317,2.0002 0,0.36395 -2.1868,3.07426 -4.85956,6.02292 -4.04406,4.46152 -4.85955,5.7999 -4.85955,7.97545 0,1.43784 -0.29737,2.79571 -0.66081,3.0175 -0.36345,0.22179 -1.34071,1.83142 -2.17169,3.57696 -1.34108,2.81704 -0.57051,6.739154 -7.28578,13.200571 -12.83859,12.35325 -1.95304,1.43901 -5.17914,2.75789 -5.44477,2.22591 -2.09639,0.83973 -5.97455,3.42956 L 93.709174,123.66089 122.3967,103.51842 c 6.41253,-4.502452 31.34001,41.51771 23.83563,61.15045 -18.92831,49.51972 -48.996335,-12.24661 -48.995985,-12.24678 4.342205,-2.11011 48.488855,3.70533 43.346295,24.20425 -1.0432,5.26792 -4.40199,14.97903 -15.05611,17.27563 -14.27512,17.93953 -13.99321,4.02558 -16.82529,4.15666 -1.70623,0.079 -9.820921,2.46274 -5.56186,1.26995 0.59398,-0.16635 -0.7338,0.41836 -2.93506,0.16095 -1.920043,-0.22454 -2.277691,-2.2982 -2.090911,-2.84445 1.60117,-4.68265 8.883541,-67.64737 21.677051,-7.59304 2.88933,13.56288 -19.36885,40.46281 -19.4834,43.77862 -0.11715,3.39123 -2.887178,6.6913 -2.037913,7.75102 6.235993,7.78131 1.800303,5.57184 5.915003,6.28395 4.52964,0.78392 5.22139,1.95087 2.49636,2.97386 -1.12201,0.4212 -2.44822,1.31702 -2.94713,1.99071 -0.70317,0.94951 -2.51096,1.29414 -8.041353,1.53297 l -7.13426,0.30809 z"
       id="path26"
       sodipodi:nodetypes="ssssscssscssscssscsccccscssssssssssccssssssssssssscsssccssssssssssscs" />
  </g>
</svg>
