<?xml version="1.0" encoding="UTF-8" standalone="no"?>
<svg
   xmlns:dc="http://purl.org/dc/elements/1.1/"
   xmlns:cc="http://creativecommons.org/ns#"
   xmlns:rdf="http://www.w3.org/1999/02/22-rdf-syntax-ns#"
   xmlns:svg="http://www.w3.org/2000/svg"
   xmlns="http://www.w3.org/2000/svg"
   xmlns:sodipodi="http://sodipodi.sourceforge.net/DTD/sodipodi-0.dtd"
   xmlns:inkscape="http://www.inkscape.org/namespaces/inkscape"
   width="210mm"
   height="297mm"
   viewBox="0 0 210 297"
   version="1.1"
   id="svg91"
   inkscape:version="1.0.2 (e86c870879, 2021-01-15, custom)"
   sodipodi:docname="40mage.svg">
  <defs
     id="defs85" />
  <sodipodi:namedview
     id="base"
     pagecolor="#ffffff"
     bordercolor="#666666"
     borderopacity="1.0"
     inkscape:pageopacity="0.0"
     inkscape:pageshadow="2"
     inkscape:zoom="0.49497475"
     inkscape:cx="371.63132"
     inkscape:cy="549.08429"
     inkscape:document-units="mm"
     inkscape:current-layer="layer1"
     inkscape:document-rotation="0"
     showgrid="false"
     inkscape:window-width="1346"
     inkscape:window-height="1040"
     inkscape:window-x="104"
     inkscape:window-y="0"
     inkscape:window-maximized="0" />
  <metadata
     id="metadata88">
    <rdf:RDF>
      <cc:Work
         rdf:about="">
        <dc:format>image/svg+xml</dc:format>
        <dc:type
           rdf:resource="http://purl.org/dc/dcmitype/StillImage" />
        <dc:title></dc:title>
      </cc:Work>
    </rdf:RDF>
  </metadata>
  <g
     inkscape:label="Layer 1"
     inkscape:groupmode="layer"
     id="layer1">
    <path
       style="fill:#333333;fill-opacity:1;stroke-width:0.742893"
       d="m 86.499961,249.71018 c -1.93543,-3.7255 -2.09,-3.85134 -2.59869,-2.11564 -0.51952,1.7727 -0.54379,1.75669 -0.61537,-0.406 -0.079,-2.38711 -1.23421,-4.02315 -2.84074,-4.02315 -0.6821,0 -1.0046,1.37575 -1.08155,4.6137 l -0.10964,4.6137 -0.56924,-5.16734 c -0.31309,-2.84204 -0.79663,-6.33 -1.07456,-7.75102 -0.4067,-2.07945 -0.1283,-3.13031 1.42651,-5.38467 2.47252,-3.58497 2.47157,-6.42757 -0.006,-16.98959 -1.06561,-4.54339 -3.462113,-6.19558 -4.327901,-12.27635 -1.283741,-9.01623 0.440792,-7.60416 0.440792,-7.60416 -1.166311,2.32664 -7.420564,-0.22219 -7.688244,-1.01508 -0.96157,0.38039 0.55074,0 0,0 -1.31285,0 -1.22392,-22.96945 -1.535054,-32.36819 -0.09359,-2.82713 -2.116809,-15.29005 -1.004268,-23.44936 3.34349,-24.52099 11.025435,3.64415 11.025435,3.64415 l -5.817657,-4.23594 c -7.544841,-5.49353 0.995719,-16.63769 0.995719,-16.63769 0,0 1.462668,-3.19883 6.536974,-6.07168 l 3.221481,-2.53315 -0.502847,-4.24134 c 0,0 -1.830186,-5.45589 -1.830186,-6.12823 0,-1.51578 -3.916284,-4.53229 -5.354634,-3.9873 -1.84171,0.69781 -2.42873,-12.33204 -0.85224,-18.91687 2.0902,-8.73057 8.69861,-30.21364 10.17819,-33.08798 1.77487,-3.448 5.31946,-6.37233 8.42008,-6.94667 3.64325,-0.67486 10.052619,2.36583 13.164589,6.24545 2.71949,3.39031 2.72152,2.71623 -0.035,11.6262 -0.39886,1.28925 -0.50781,3.19932 -0.24211,4.24461 0.29012,1.14137 0.16837,1.90052 -0.3048,1.90052 -0.77477,0 -2.59919,2.76329 -3.568959,5.40557 -0.39013,1.063 -1.13631,1.2955 -3.55373,1.10729 -4.18954,-0.32617 -1.760156,0.646966 1.126272,5.04665 2.023739,3.084716 5.672817,5.359748 5.672817,5.359748 l 5.93042,4.756695 c 0,0 3.4421,3.183839 1.86209,5.800117 -2.18115,3.611687 -2.79621,2.714558 2.31989,-2.88724 4.70297,-5.149447 10.14057,-7.82697 13.4917,-8.04403 1.15228,-0.0746 2.18551,-0.25674 2.29607,-0.40468 0.32199,-0.43088 9.57167,-11.27947 10.19397,-11.95612 0.63352,-0.68885 3.7317,0.97179 3.7317,2.0002 0,0.36395 -2.1868,3.07426 -4.85956,6.02292 -4.04406,4.46152 -4.85955,5.7999 -4.85955,7.97545 0,1.43784 -0.29737,2.79571 -0.66081,3.0175 -0.36345,0.22179 -1.34071,1.83142 -2.17169,3.57696 -1.34108,2.81704 -1.92841,3.27937 -5.22614,4.11389 -3.24862,0.82209 -4.21325,1.56045 -7.68005,5.87855 -2.18063,2.71611 -5.76101,6.78056 -7.95639,9.03211 l -15.897872,12.5982 16.423662,-15.5339 c 4.64375,-4.39217 7.40524,13.5042 8.09586,18.49552 1.51142,10.92353 -0.10005,19.74308 -1.63845,36.3173 -0.90992,9.8032 -1.35523,10.24498 -1.10417,23.40389 l 0.5057,11.33727 -6.62942,-0.28349 c 0,0 -4.61226,0.36834 -4.90072,0.82919 -0.32727,0.52286 -1.80875,0.67837 -4.01001,0.42096 -1.920039,-0.22454 -0.0505,-0.24845 0.52672,-0.23949 0,0 -2.826999,4.94686 -4.441554,15.45461 -1.860199,12.10644 -1.436305,15.58944 -0.349055,18.96791 0.71866,2.23303 1.65527,5.72099 2.08138,7.75102 0.9943,4.73704 1.45627,5.22781 5.914999,6.28395 4.4732,1.05956 5.22139,1.95087 2.49636,2.97386 -1.12201,0.4212 -2.44822,1.31702 -2.94713,1.99071 -0.70317,0.94951 -2.51096,1.29414 -8.041349,1.53297 l -7.13426,0.30809 z"
       id="path26"
       sodipodi:nodetypes="ssssscssscsscssscsccccssssssssssssccssssssssssssscsssccssssssssssscs" />
  </g>
</svg>
