<?xml version="1.0" encoding="UTF-8" standalone="no"?>
<svg
   xmlns:dc="http://purl.org/dc/elements/1.1/"
   xmlns:cc="http://creativecommons.org/ns#"
   xmlns:rdf="http://www.w3.org/1999/02/22-rdf-syntax-ns#"
   xmlns:svg="http://www.w3.org/2000/svg"
   xmlns="http://www.w3.org/2000/svg"
   xmlns:sodipodi="http://sodipodi.sourceforge.net/DTD/sodipodi-0.dtd"
   xmlns:inkscape="http://www.inkscape.org/namespaces/inkscape"
   width="210mm"
   height="297mm"
   viewBox="0 0 210 297"
   version="1.1"
   id="svg91"
   sodipodi:docname="50mage.svg"
   inkscape:version="1.0.2 (e86c870879, 2021-01-15, custom)">
  <defs
     id="defs85" />
  <sodipodi:namedview
     id="base"
     pagecolor="#ffffff"
     bordercolor="#666666"
     borderopacity="1.0"
     inkscape:pageopacity="0.0"
     inkscape:pageshadow="2"
     inkscape:zoom="1.4142136"
     inkscape:cx="558.30754"
     inkscape:cy="469.68257"
     inkscape:document-units="mm"
     inkscape:current-layer="layer1"
     inkscape:document-rotation="0"
     showgrid="false"
     inkscape:window-width="1346"
     inkscape:window-height="1040"
     inkscape:window-x="104"
     inkscape:window-y="0"
     inkscape:window-maximized="0" />
  <metadata
     id="metadata88">
    <rdf:RDF>
      <cc:Work
         rdf:about="">
        <dc:format>image/svg+xml</dc:format>
        <dc:type
           rdf:resource="http://purl.org/dc/dcmitype/StillImage" />
        <dc:title></dc:title>
      </cc:Work>
    </rdf:RDF>
  </metadata>
  <g
     inkscape:label="Layer 1"
     inkscape:groupmode="layer"
     id="layer1">
    <path
       style="fill:#333333;fill-opacity:1;stroke-width:0.742893"
       d="m 86.499961,249.71018 c -1.93543,-3.7255 -2.09,-3.85134 -2.59869,-2.11564 -0.51952,1.7727 -0.54379,1.75669 -0.61537,-0.406 -0.079,-2.38711 -1.23421,-4.02315 -2.84074,-4.02315 -0.6821,0 -1.0046,1.37575 -1.08155,4.6137 l -0.10964,4.6137 -0.56924,-5.16734 c -0.31309,-2.84204 -0.79663,-6.33 -1.07456,-7.75102 -0.4067,-2.07945 -0.1283,-3.13031 1.42651,-5.38467 2.47252,-3.58497 2.47157,-6.42757 -0.006,-16.98959 -1.06561,-4.54339 -3.462113,-7.3862 -4.327901,-13.46697 -1.283741,-9.01623 0.440792,-6.41354 0.440792,-6.41354 -1.166311,2.32664 -7.420564,-0.22219 -7.688244,-1.01508 -0.96157,0.38039 0.55074,0 0,0 -1.31285,0 -1.859122,-21.9081 -2.196512,-32.36819 -0.13441,-4.16712 -2.925771,-14.88932 -1.659078,-24.4803 4.322026,-32.72495 12.340544,4.66118 12.341703,4.67509 l -5.685366,-4.50052 c -8.218046,-6.50539 -2.556211,-14.95803 -2.556211,-14.95803 -0.118352,-0.23671 3.525793,-6.41362 9.27108,-8.8772 l 3.894289,-1.14604 c -1.049536,0.15464 -1.06614,-1.55924 0.07114,-5.267 0.372464,2.04855 -2.248394,-0.23797 -4.767432,-4.6008 -2.951479,-5.111787 -0.439145,-5.057304 -2.978654,-4.48574 -1.921412,0.43245 -2.42873,-12.33204 -0.85224,-18.91687 2.0902,-8.73057 8.69861,-30.21364 10.17819,-33.08798 1.77487,-3.448 5.31946,-6.37233 8.42008,-6.94667 3.64325,-0.67486 10.052623,2.36583 13.164593,6.24545 2.71949,3.39031 2.72152,2.71623 -0.035,11.6262 -0.39886,1.28925 -0.50781,3.19932 -0.24211,4.24461 0.29012,1.14137 0.16837,1.90052 -0.3048,1.90052 -0.77477,0 -0.77421,3.499246 -2.64292,5.604007 -1.012899,1.140846 -5.956308,3.721242 -6.199565,2.099478 -0.6994,-4.662821 -0.636784,0.110041 2.846064,4.054462 2.648381,2.999364 6.989591,5.036109 6.848781,5.106515 l 7.2179,2.687371 c 1.09545,0 5.59348,4.266245 0.56325,7.490561 -3.55212,2.276866 -3.96081,3.148234 1.15529,-2.453564 4.70297,-5.149447 10.14057,-7.82697 13.4917,-8.04403 1.15228,-0.0746 2.18551,-0.25674 2.29607,-0.40468 0.32199,-0.43088 9.57167,-11.27947 10.19397,-11.95612 0.63352,-0.68885 3.7317,0.97179 3.7317,2.0002 0,0.36395 -2.1868,3.07426 -4.85956,6.02292 -4.04406,4.46152 -4.85955,5.7999 -4.85955,7.97545 0,1.43784 -0.29737,2.79571 -0.66081,3.0175 -0.36345,0.22179 -1.34071,1.83142 -2.17169,3.57696 -1.34108,2.81704 -1.92841,3.27937 -5.22614,4.11389 -3.24862,0.82209 -4.21325,1.56045 -7.68005,5.87855 -2.18063,2.71611 -5.76101,6.78056 -7.95639,9.03211 l -15.897876,12.5982 17.214096,-16.78208 c 4.29209,-4.18437 12.4176,10.67192 13.4398,17.41782 2.52346,16.65339 -0.49321,21.24059 -4.46553,38.70933 -1.44095,6.33675 -2.74429,10.97258 -4.08073,23.86691 l 0.17497,10.8081 -6.62942,-0.28349 c 0,0 -4.61226,0.36834 -4.90072,0.82919 -0.32727,0.52286 -1.80875,0.67837 -4.01001,0.42096 -1.920043,-0.22454 1.03916,0.0263 0.52672,-0.23949 -0.25402,-0.13177 -2.115335,4.15922 -3.912391,15.19003 -1.969474,12.08914 -1.965472,15.85402 -0.878222,19.23249 0.71866,2.23303 1.65527,5.72099 2.08138,7.75102 0.9943,4.73704 1.45627,5.22781 5.915003,6.28395 4.4732,1.05956 5.22139,1.95087 2.49636,2.97386 -1.12201,0.4212 -2.44822,1.31702 -2.94713,1.99071 -0.70317,0.94951 -2.51096,1.29414 -8.041353,1.53297 l -7.13426,0.30809 z"
       id="path26"
       sodipodi:nodetypes="ssssscssscsscssscsccccssssssssssssccssssssssssssscsssccssssssssssscs" />
  </g>
</svg>
