<?xml version="1.0" encoding="UTF-8" standalone="no"?>
<svg
   xmlns:dc="http://purl.org/dc/elements/1.1/"
   xmlns:cc="http://creativecommons.org/ns#"
   xmlns:rdf="http://www.w3.org/1999/02/22-rdf-syntax-ns#"
   xmlns:svg="http://www.w3.org/2000/svg"
   xmlns="http://www.w3.org/2000/svg"
   xmlns:sodipodi="http://sodipodi.sourceforge.net/DTD/sodipodi-0.dtd"
   xmlns:inkscape="http://www.inkscape.org/namespaces/inkscape"
   width="210mm"
   height="297mm"
   viewBox="0 0 210 297"
   version="1.1"
   id="svg91"
   sodipodi:docname="50mage.svg"
   inkscape:version="1.0.2 (e86c870879, 2021-01-15, custom)">
  <defs
     id="defs85" />
  <sodipodi:namedview
     id="base"
     pagecolor="#ffffff"
     bordercolor="#666666"
     borderopacity="1.0"
     inkscape:pageopacity="0.0"
     inkscape:pageshadow="2"
     inkscape:zoom="0.60028249"
     inkscape:cx="351.50823"
     inkscape:cy="429.85072"
     inkscape:document-units="mm"
     inkscape:current-layer="layer1"
     inkscape:document-rotation="0"
     showgrid="false"
     inkscape:window-width="1346"
     inkscape:window-height="1040"
     inkscape:window-x="104"
     inkscape:window-y="0"
     inkscape:window-maximized="0" />
  <metadata
     id="metadata88">
    <rdf:RDF>
      <cc:Work
         rdf:about="">
        <dc:format>image/svg+xml</dc:format>
        <dc:type
           rdf:resource="http://purl.org/dc/dcmitype/StillImage" />
        <dc:title></dc:title>
      </cc:Work>
    </rdf:RDF>
  </metadata>
  <g
     inkscape:label="Layer 1"
     inkscape:groupmode="layer"
     id="layer1">
    <path
       style="fill:#333333;fill-opacity:1;stroke-width:0.742893"
       d="m 86.499961,249.71018 c -1.93543,-3.7255 -2.09,-3.85134 -2.59869,-2.11564 -0.51952,1.7727 -0.54379,1.75669 -0.61537,-0.406 -0.079,-2.38711 -1.23421,-4.02315 -2.84074,-4.02315 -0.6821,0 -1.0046,1.37575 -1.08155,4.6137 l -0.10964,4.6137 -0.56924,-5.16734 c -0.31309,-2.84204 -0.79663,-6.33 -1.07456,-7.75102 -0.4067,-2.07945 -0.1283,-3.13031 1.42651,-5.38467 2.47252,-3.58497 2.47157,-6.42757 -0.006,-16.98959 -1.06561,-4.54339 -4.116923,-7.19911 -4.982711,-13.27988 -1.283741,-9.01623 1.095602,-6.60063 1.095602,-6.60063 -1.166311,2.32664 -7.420564,-0.22219 -7.688244,-1.01508 -0.96157,0.38039 -0.478248,-0.28063 -1.028988,-0.28063 -1.31285,0 1.85924,-24.68186 -1.167524,-32.08756 -1.633386,-3.99647 -4.703113,-13.5797 -3.623509,-24.10612 3.367794,-32.83688 14.304975,4.287 14.306134,4.30091 l -6.153088,-5.15533 c -7.915635,-6.63207 -5.239977,-10.90012 -4.801275,-11.77752 -0.118352,-0.23671 2.59035,-7.53615 11.516144,-10.93517 l 3.333023,-1.33314 c 0.546608,0.68326 -2.781434,-0.59406 1.100128,-5.54763 0.372464,2.04855 -3.439019,-0.76713 -5.958057,-5.12996 -2.951479,-5.111793 -0.118055,-3.89783 -2.714071,-4.08887 C 69.152208,99.834552 69.703224,87.202352 70.618255,81.014397 71.931474,72.133674 81.036657,51.06534 82.516237,48.191 c 1.77487,-3.448 5.31946,-6.37233 8.42008,-6.94667 3.64325,-0.67486 10.052623,2.36583 13.164593,6.24545 2.71949,3.39031 2.72152,2.71623 -0.035,11.6262 -0.39886,1.28925 0.15365,3.19932 0.41935,4.24461 0.29012,1.14137 -0.49307,2.036601 -0.96626,2.032812 -0.66185,-0.0053 -0.58995,3.892914 -2.77521,5.868591 -5.672468,5.128427 -9.188287,-1.41285 -6.46415,-3.19219 3.569977,-2.331822 0.480007,6.177638 4.036689,8.816961 3.213191,2.384429 7.121881,4.374651 6.981071,4.445057 2.53583,1.065021 4.5347,1.915849 6.15956,2.951954 3.04966,0.558345 5.98497,4.869467 0.69555,8.019728 -3.62499,2.158962 -3.96081,3.148234 1.15529,-2.453564 4.70297,-5.149447 10.14057,-7.82697 13.4917,-8.04403 1.15228,-0.0746 2.18551,-0.25674 2.29607,-0.40468 0.32199,-0.43088 9.57167,-11.27947 10.19397,-11.95612 0.63352,-0.68885 3.7317,0.97179 3.7317,2.0002 0,0.36395 -2.1868,3.07426 -4.85956,6.02292 -4.04406,4.46152 -4.85955,5.7999 -4.85955,7.97545 0,1.43784 -0.29737,2.79571 -0.66081,3.0175 -0.36345,0.22179 -1.34071,1.83142 -2.17169,3.57696 -1.34108,2.81704 -1.92841,3.27937 -5.22614,4.11389 -3.24862,0.82209 -4.21325,1.56045 -7.68005,5.878551 -2.18063,2.71611 -5.76101,6.78056 -7.95639,9.03211 l -15.897876,12.5982 19.066176,-17.84041 c 4.37694,-4.09554 12.60235,13.34861 13.70439,21.25427 3.24099,23.24978 -2.85966,21.47463 -4.9532,35.9539 -0.66843,4.62297 -1.03639,3.87262 -4.09013,23.12796 l -1.44463,11.52436 -6.62942,-0.28349 c 0,0 -4.61226,0.36834 -4.90072,0.82919 -0.32727,0.52286 -2.27647,1.52027 -4.477732,1.26286 -1.920043,-0.22454 0.807662,-0.53514 0.994442,-1.08139 1.60117,-4.68265 7.38076,-16.2497 -1.760872,16.49965 -3.591216,12.86532 -3.362474,14.62181 -3.029741,17.92287 0.235257,2.334 1.65527,5.72099 2.08138,7.75102 0.9943,4.73704 1.45627,5.22781 5.915003,6.28395 4.4732,1.05956 5.22139,1.95087 2.49636,2.97386 -1.12201,0.4212 -2.44822,1.31702 -2.94713,1.99071 -0.70317,0.94951 -2.51096,1.29414 -8.041353,1.53297 l -7.13426,0.30809 z"
       id="path26"
       sodipodi:nodetypes="ssssscssscsscssscsccccssssssssssssccssssssssssssscsssccssssssssssscs" />
  </g>
</svg>
