<?xml version="1.0" encoding="UTF-8" standalone="no"?>
<svg
   xmlns:dc="http://purl.org/dc/elements/1.1/"
   xmlns:cc="http://creativecommons.org/ns#"
   xmlns:rdf="http://www.w3.org/1999/02/22-rdf-syntax-ns#"
   xmlns:svg="http://www.w3.org/2000/svg"
   xmlns="http://www.w3.org/2000/svg"
   xmlns:sodipodi="http://sodipodi.sourceforge.net/DTD/sodipodi-0.dtd"
   xmlns:inkscape="http://www.inkscape.org/namespaces/inkscape"
   width="210mm"
   height="297mm"
   viewBox="0 0 210 297"
   version="1.1"
   id="svg91"
   sodipodi:docname="60mage.svg"
   inkscape:version="1.0.2 (e86c870879, 2021-01-15, custom)">
  <defs
     id="defs85" />
  <sodipodi:namedview
     id="base"
     pagecolor="#ffffff"
     bordercolor="#666666"
     borderopacity="1.0"
     inkscape:pageopacity="0.0"
     inkscape:pageshadow="2"
     inkscape:zoom="0.70710678"
     inkscape:cx="101.22208"
     inkscape:cy="253.48271"
     inkscape:document-units="mm"
     inkscape:current-layer="layer1"
     inkscape:document-rotation="0"
     showgrid="false"
     inkscape:window-width="1346"
     inkscape:window-height="1040"
     inkscape:window-x="104"
     inkscape:window-y="0"
     inkscape:window-maximized="0" />
  <metadata
     id="metadata88">
    <rdf:RDF>
      <cc:Work
         rdf:about="">
        <dc:format>image/svg+xml</dc:format>
        <dc:type
           rdf:resource="http://purl.org/dc/dcmitype/StillImage" />
        <dc:title></dc:title>
      </cc:Work>
    </rdf:RDF>
  </metadata>
  <g
     inkscape:label="Layer 1"
     inkscape:groupmode="layer"
     id="layer1">
    <path
       style="fill:#333333;fill-opacity:1;stroke-width:0.742893"
       d="m 86.499961,249.71018 c -1.93543,-3.7255 -2.09,-3.85134 -2.59869,-2.11564 -0.51952,1.7727 -0.54379,1.75669 -0.61537,-0.406 -0.079,-2.38711 -1.23421,-4.02315 -2.84074,-4.02315 -0.6821,0 -1.0046,1.37575 -1.08155,4.6137 l -0.10964,4.6137 -0.56924,-5.16734 c -0.31309,-2.84204 -0.79663,-6.33 -1.07456,-7.75102 -0.4067,-2.07945 -0.1283,-3.13031 1.42651,-5.38467 2.47252,-3.58497 1.926152,-6.42757 -0.473502,-16.98959 -1.611028,-3.99797 -3.104003,-3.69285 -5.450212,-13.43571 -2.132172,-8.85406 2.030605,-6.4448 2.030605,-6.4448 -1.166311,2.32664 -7.420564,-0.22219 -7.688244,-1.01508 -0.96157,0.38039 -1.184961,-0.35799 -1.73024,-0.28063 -3.700944,0.52507 -4.179686,-21.62367 -5.147775,-34.45734 -0.413234,-5.47812 -6.553049,-0.57154 -5.8407,-20.52424 1.346688,-37.72042 19.771184,-6.40154 22.416931,-3.19209 l -10.11997,0.24404 c -6.136256,0.14797 -8.598237,-9.44185 -8.003701,-11.17634 -0.118352,-0.27512 -3.573868,-7.28202 13.577502,-11.27815 l 2.751236,-1.00891 c 4.439377,1.6574 -14.773292,7.03822 -3.730721,-3.52181 0.372464,2.12646 1.829761,2.35516 -0.701252,0.70125 -3.219733,-2.10396 -0.9999,-12.969717 -0.9999,-12.969717 -2.028064,2.363777 -6.217147,-7.825764 -0.646677,-20.929891 7.384118,-17.370607 10.372039,-25.630406 12.612841,-29.853503 1.817663,-3.425634 5.942795,-6.138579 9.043415,-6.712919 3.64325,-0.67486 10.052623,2.36583 13.164593,6.24545 2.71949,3.39031 2.72152,2.71623 -0.035,11.6262 -0.39886,1.28925 0.15365,3.19932 0.41935,4.24461 0.29012,1.14137 -0.53775,1.832056 -0.96626,2.032812 -0.86778,0.406553 -0.79957,5.402998 -4.021881,7.115262 -6.752887,3.588339 -6.694945,-2.347853 -3.970808,-4.127193 3.569977,-2.331822 -0.973813,6.733632 3.179603,8.271542 3.914446,1.449426 7.292736,4.289223 7.292736,4.289223 4.79542,0.285852 7.40623,1.705285 7.40623,1.705285 4.96549,3.42291 4.10801,6.71861 -1.25237,9.655982 -3.70009,2.027567 -4.33706,2.779857 1.15529,-2.453564 5.40422,-5.149447 10.14057,-7.82697 13.4917,-8.04403 1.15228,-0.0746 2.18551,-0.25674 2.29607,-0.40468 0.32199,-0.43088 9.57167,-11.27947 10.19397,-11.95612 0.63352,-0.68885 3.7317,0.97179 3.7317,2.0002 0,0.36395 -2.1868,3.07426 -4.85956,6.02292 -4.04406,4.46152 -4.85955,5.7999 -4.85955,7.97545 0,1.43784 -0.29737,2.79571 -0.66081,3.0175 -0.36345,0.22179 -1.34071,1.83142 -2.17169,3.57696 -1.34108,2.81704 -1.92841,3.27937 -5.22614,4.11389 -3.24862,0.82209 -4.21325,1.56045 -7.68005,5.878551 -2.18063,2.71611 -5.76101,6.78056 -7.95639,9.03211 l -15.897876,12.5982 19.377846,-18.30791 c 4.83343,-4.56655 13.47814,17.53103 14.93215,21.96106 8.2817,25.23239 -1.98237,32.36412 -5.26325,36.27664 -1.77623,2.11819 2.62931,-4.41 -3.91538,19.59887 -0.39551,4.84777 1.35631,14.87173 -1.66661,14.46468 -4.87413,0.3167 -5.84923,-0.54959 -8.47269,0.4044 -1.60522,0.58372 -9.820921,2.46274 -5.56186,1.26995 0.59398,-0.16635 -0.7338,0.41836 -2.93506,0.16095 -1.920043,-0.22454 -2.277691,-2.2982 -2.090911,-2.84445 1.60117,-4.68265 14.516191,-16.99627 4.064941,17.24979 -3.898828,12.77546 -6.323316,15.63473 -5.990583,18.93579 0.235257,2.334 1.65527,5.72099 2.08138,7.75102 0.9943,4.73704 1.45627,5.22781 5.915003,6.28395 4.4732,1.05956 5.22139,1.95087 2.49636,2.97386 -1.12201,0.4212 -2.44822,1.31702 -2.94713,1.99071 -0.70317,0.94951 -2.51096,1.29414 -8.041353,1.53297 l -7.13426,0.30809 z"
       id="path26"
       sodipodi:nodetypes="ssssscssscsscssscsccccscssssssssssccssssssssssssscsssccssssssssssscs" />
  </g>
</svg>
