<?xml version="1.0" encoding="UTF-8" standalone="no"?>
<svg
   xmlns:dc="http://purl.org/dc/elements/1.1/"
   xmlns:cc="http://creativecommons.org/ns#"
   xmlns:rdf="http://www.w3.org/1999/02/22-rdf-syntax-ns#"
   xmlns:svg="http://www.w3.org/2000/svg"
   xmlns="http://www.w3.org/2000/svg"
   xmlns:sodipodi="http://sodipodi.sourceforge.net/DTD/sodipodi-0.dtd"
   xmlns:inkscape="http://www.inkscape.org/namespaces/inkscape"
   width="210mm"
   height="297mm"
   viewBox="0 0 210 297"
   version="1.1"
   id="svg91"
   sodipodi:docname="70mage.svg"
   inkscape:version="1.0.2 (e86c870879, 2021-01-15, custom)">
  <defs
     id="defs85" />
  <sodipodi:namedview
     id="base"
     pagecolor="#ffffff"
     bordercolor="#666666"
     borderopacity="1.0"
     inkscape:pageopacity="0.0"
     inkscape:pageshadow="2"
     inkscape:zoom="0.77210002"
     inkscape:cx="462.75787"
     inkscape:cy="493.67958"
     inkscape:document-units="mm"
     inkscape:current-layer="layer1"
     inkscape:document-rotation="0"
     showgrid="false"
     inkscape:window-width="1346"
     inkscape:window-height="1040"
     inkscape:window-x="104"
     inkscape:window-y="0"
     inkscape:window-maximized="0" />
  <metadata
     id="metadata88">
    <rdf:RDF>
      <cc:Work
         rdf:about="">
        <dc:format>image/svg+xml</dc:format>
        <dc:type
           rdf:resource="http://purl.org/dc/dcmitype/StillImage" />
        <dc:title></dc:title>
      </cc:Work>
    </rdf:RDF>
  </metadata>
  <g
     inkscape:label="Layer 1"
     inkscape:groupmode="layer"
     id="layer1">
    <path
       style="fill:#333333;fill-opacity:1;stroke-width:0.742893"
       d="m 86.499961,249.71018 c -1.93543,-3.7255 -2.09,-3.85134 -2.59869,-2.11564 -0.51952,1.7727 -0.54379,1.75669 -0.61537,-0.406 -0.079,-2.38711 -1.23421,-4.02315 -2.84074,-4.02315 -0.6821,0 -1.0046,1.37575 -1.08155,4.6137 l -0.10964,4.6137 -0.56924,-5.16734 c -0.31309,-2.84204 -0.79663,-6.33 -1.07456,-7.75102 -0.4067,-2.07945 -0.1283,-3.13031 1.42651,-5.38467 2.47252,-3.58497 1.926152,-6.42757 -0.473502,-16.98959 -1.611028,-3.99797 -4.474724,-5.06357 -6.820933,-14.80643 -2.132172,-8.85406 3.401326,-5.07408 3.401326,-5.07408 -1.166311,2.32664 -7.420564,-0.22219 -7.688244,-1.01508 -0.96157,0.38039 -5.29657,-1.03934 -5.842403,-0.96599 -3.90751,0.52507 -3.331225,-15.18695 -4.119733,-33.4293 0,0 -9.01527,-1.56021 -5.8407,-20.86692 6.547877,-39.82206 22.855305,-6.40154 25.501052,-3.19209 l -10.11997,0.24404 c -6.136256,0.14797 -9.888442,-10.31964 -9.888442,-10.31964 -0.118352,-0.27512 -2.203147,-7.45336 14.948223,-11.44949 v 0 c 4.439377,1.6574 -11.550213,4.72705 -1.166717,-4.51483 0,0 2.531013,1.65391 0,0 C 67.706905,109.6064 67.185297,100.2827 67.185297,100.2827 65.157233,102.64648 62.221805,93.931285 66.8813,77.810752 71.886476,60.494258 78.281379,52.180346 80.522181,47.957249 c 1.817663,-3.425634 7.313516,-6.138579 10.414136,-6.712919 3.64325,-0.67486 10.052623,2.36583 13.164593,6.24545 2.71949,3.39031 2.72152,2.71623 -0.035,11.6262 -0.39886,1.28925 0.15365,3.19932 0.41935,4.24461 0.29012,1.14137 -0.88076,1.567395 -0.96626,2.032812 -0.57692,3.140452 -4.436729,10.616594 -7.791362,9.171343 -6.662776,-2.870472 -6.008382,-4.069678 -3.285448,-5.840594 3.574561,-2.32479 2.054292,6.551651 6.263724,7.928862 4.430156,1.449426 10.052466,3.683444 9.776436,3.683444 6.24928,-0.50166 8.61778,2.492798 8.61778,2.492798 3.32989,2.756553 0.41276,6.536876 -4.94762,9.474248 -3.70009,2.027567 -4.33706,2.779857 1.15529,-2.453564 5.40422,-5.149447 10.14057,-7.82697 13.4917,-8.04403 1.15228,-0.0746 2.18551,-0.25674 2.29607,-0.40468 0.32199,-0.43088 9.57167,-11.27947 10.19397,-11.95612 0.63352,-0.68885 3.7317,0.97179 3.7317,2.0002 0,0.36395 -2.1868,3.07426 -4.85956,6.02292 -4.04406,4.46152 -4.85955,5.7999 -4.85955,7.97545 0,1.43784 -0.29737,2.79571 -0.66081,3.0175 -0.36345,0.22179 -1.34071,1.83142 -2.17169,3.57696 -1.34108,2.81704 -1.92841,3.27937 -5.22614,4.11389 -3.24862,0.82209 -4.44502,0.853339 -6.77138,5.878551 -1.4537,3.14016 -5.21013,6.13578 -8.86506,9.03211 l -15.897876,12.5982 19.377846,-18.30791 c 4.79774,-4.53283 22.62663,24.69317 19.01879,43.03084 -6.97834,35.46895 -29.05434,10.58085 -29.05399,10.58068 4.3422,-2.11011 26.02901,-10.34872 16.1314,24.56773 -0.39551,4.84777 0.32827,12.81565 -2.69465,12.4086 -7.20988,1.09528 -5.267,1.19819 -7.78733,2.1178 -1.60458,0.58548 -9.820921,2.46274 -5.56186,1.26995 0.59398,-0.16635 -0.7338,0.41836 -2.93506,0.16095 -1.920043,-0.22454 -2.277691,-2.2982 -2.090911,-2.84445 1.60117,-4.68265 13.830831,-43.38264 10.575861,-0.91225 -1.02071,13.31808 -12.834236,33.79677 -12.501503,37.09783 0.235257,2.334 1.65527,5.72099 2.08138,7.75102 0.9943,4.73704 1.45627,5.22781 5.915003,6.28395 4.4732,1.05956 5.22139,1.95087 2.49636,2.97386 -1.12201,0.4212 -2.44822,1.31702 -2.94713,1.99071 -0.70317,0.94951 -2.51096,1.29414 -8.041353,1.53297 l -7.13426,0.30809 z"
       id="path26"
       sodipodi:nodetypes="ssssscssscsscssscsccccscssssssssssccssssssssssssscsssccssssssssssscs" />
  </g>
</svg>
