<?xml version="1.0" encoding="UTF-8" standalone="no"?>
<svg
   xmlns:dc="http://purl.org/dc/elements/1.1/"
   xmlns:cc="http://creativecommons.org/ns#"
   xmlns:rdf="http://www.w3.org/1999/02/22-rdf-syntax-ns#"
   xmlns:svg="http://www.w3.org/2000/svg"
   xmlns="http://www.w3.org/2000/svg"
   xmlns:sodipodi="http://sodipodi.sourceforge.net/DTD/sodipodi-0.dtd"
   xmlns:inkscape="http://www.inkscape.org/namespaces/inkscape"
   width="210mm"
   height="297mm"
   viewBox="0 0 210 297"
   version="1.1"
   id="svg91"
   sodipodi:docname="80mage.svg"
   inkscape:version="1.0.2 (e86c870879, 2021-01-15, custom)">
  <defs
     id="defs85" />
  <sodipodi:namedview
     id="base"
     pagecolor="#ffffff"
     bordercolor="#666666"
     borderopacity="1.0"
     inkscape:pageopacity="0.0"
     inkscape:pageshadow="2"
     inkscape:zoom="1.5442"
     inkscape:cx="379.95353"
     inkscape:cy="423.25413"
     inkscape:document-units="mm"
     inkscape:current-layer="layer1"
     inkscape:document-rotation="0"
     showgrid="false"
     inkscape:window-width="1346"
     inkscape:window-height="1040"
     inkscape:window-x="104"
     inkscape:window-y="0"
     inkscape:window-maximized="0" />
  <metadata
     id="metadata88">
    <rdf:RDF>
      <cc:Work
         rdf:about="">
        <dc:format>image/svg+xml</dc:format>
        <dc:type
           rdf:resource="http://purl.org/dc/dcmitype/StillImage" />
        <dc:title></dc:title>
      </cc:Work>
    </rdf:RDF>
  </metadata>
  <g
     inkscape:label="Layer 1"
     inkscape:groupmode="layer"
     id="layer1">
    <path
       style="fill:#333333;fill-opacity:1;stroke-width:0.742893"
       d="m 86.499961,249.71018 c -1.93543,-3.7255 -2.09,-3.85134 -2.59869,-2.11564 -0.51952,1.7727 -0.54379,1.75669 -0.61537,-0.406 -0.079,-2.38711 -1.23421,-4.02315 -2.84074,-4.02315 -0.6821,0 -1.0046,1.37575 -1.08155,4.6137 l -0.10964,4.6137 -0.56924,-5.16734 c -0.31309,-2.84204 -0.79663,-6.33 -1.07456,-7.75102 -0.4067,-2.07945 -0.1283,-3.13031 1.42651,-5.38467 2.47252,-3.58497 1.926152,-6.42757 -0.473502,-16.98959 -1.611028,-3.99797 -7.558845,-4.72089 -9.905054,-14.46375 -2.132172,-8.85406 6.485447,-5.41676 6.485447,-5.41676 -1.166311,2.32664 -7.420564,-0.22219 -7.688244,-1.01508 -0.96157,0.38039 -5.297624,-1.38948 -5.842403,-1.30867 -6.882206,1.02085 -6.729583,-14.74452 -4.119733,-33.08662 0,0 -10.728671,-0.18949 -7.554101,-19.4962 6.547877,-39.82206 24.568706,-7.77226 27.214453,-4.56281 l -10.11997,0.24404 C 60.897318,138.14229 56.802452,126.64664 56.802452,126.64664 56.6841,126.37152 53.936515,119.91843 72.093355,116.4675 l -6.542409,1.69619 c 0,0 -0.888509,-3.57213 4.164135,-5.66582 0,0 0.334773,1.63491 -1.408728,-0.14016 -2.695175,-2.74397 -1.121056,-12.07501 -1.121056,-12.07501 -2.028064,2.36378 -6.356783,-7.381239 -1.697288,-23.501772 5.005176,-17.316494 12.429903,-24.782316 14.670705,-29.005413 1.817663,-3.425634 7.676983,-5.956845 10.777603,-6.531185 3.64325,-0.67486 10.052623,2.36583 13.164593,6.24545 2.71949,3.39031 2.72152,2.71623 -0.035,11.6262 -0.39886,1.28925 0.15365,3.19932 0.41935,4.24461 0.29012,1.14137 -0.88076,1.567395 -0.96626,2.032812 -0.57692,3.140452 -4.436729,10.616594 -7.791362,9.171343 -6.662776,-2.870472 -6.008382,-4.069678 -3.285448,-5.840594 3.574561,-2.32479 3.033962,5.822971 7.414704,6.474994 4.854206,0.722492 13.747716,7.802738 10.927406,5.379625 12.31287,6.650685 14.50636,18.367082 13.97457,18.238685 -1.0923,7.905675 -7.24598,-9.451324 -12.60636,-6.513952 -3.70009,2.027567 -4.33706,2.779857 1.15529,-2.453564 5.40422,-5.149447 10.14057,-7.82697 13.4917,-8.04403 1.15228,-0.0746 2.18551,-0.25674 2.29607,-0.40468 0.32199,-0.43088 9.57167,-11.27947 10.19397,-11.95612 0.63352,-0.68885 3.7317,0.97179 3.7317,2.0002 0,0.36395 -2.1868,3.07426 -4.85956,6.02292 -4.04406,4.46152 -4.85955,5.7999 -4.85955,7.97545 0,1.43784 -0.29737,2.79571 -0.66081,3.0175 -0.36345,0.22179 -1.34071,1.83142 -2.17169,3.57696 -1.34108,2.81704 -0.57051,7.466088 -7.28578,13.927501 -12.83859,12.35325 -1.95304,0.71208 -5.17914,2.03096 -5.44477,2.22591 -2.09639,0.83973 -5.97455,3.42956 l -18.320986,12.23473 29.172146,-20.14247 c 5.43144,-3.750243 17.62985,26.69907 14.02201,45.03674 -6.97834,35.46895 -33.85186,10.40951 -33.85151,10.40934 4.3422,-2.11011 28.77045,-10.34872 18.87284,24.56773 0,0 2.38435,12.47297 -0.63857,12.06592 -7.20988,1.09528 -10.06452,1.54087 -12.58485,2.46048 -1.60458,0.58548 -9.820921,2.46274 -5.56186,1.26995 0.59398,-0.16635 -0.7338,0.41836 -2.93506,0.16095 -1.920043,-0.22454 -2.277691,-2.2982 -2.090911,-2.84445 1.60117,-4.68265 13.608601,-41.8412 13.317301,-2.62565 -0.103,13.86684 -15.575676,35.51017 -15.242943,38.81123 0.235257,2.334 1.65527,5.72099 2.08138,7.75102 0.9943,4.73704 1.45627,5.22781 5.915003,6.28395 4.4732,1.05956 5.22139,1.95087 2.49636,2.97386 -1.12201,0.4212 -2.44822,1.31702 -2.94713,1.99071 -0.70317,0.94951 -2.51096,1.29414 -8.041353,1.53297 l -7.13426,0.30809 z"
       id="path26"
       sodipodi:nodetypes="ssssscssscsscssscsccccscssssssssssccssssssssssssscsssccssssssssssscs" />
  </g>
</svg>
