<?xml version="1.0" encoding="UTF-8" standalone="no"?>
<svg
   xmlns:dc="http://purl.org/dc/elements/1.1/"
   xmlns:cc="http://creativecommons.org/ns#"
   xmlns:rdf="http://www.w3.org/1999/02/22-rdf-syntax-ns#"
   xmlns:svg="http://www.w3.org/2000/svg"
   xmlns="http://www.w3.org/2000/svg"
   xmlns:sodipodi="http://sodipodi.sourceforge.net/DTD/sodipodi-0.dtd"
   xmlns:inkscape="http://www.inkscape.org/namespaces/inkscape"
   version="1.0"
   width="916.000000pt"
   height="1280.000000pt"
   viewBox="0 0 916.000000 1280.000000"
   preserveAspectRatio="xMidYMid meet"
   id="svg14"
   sodipodi:docname="100rogue.svg"
   inkscape:version="1.0.2 (e86c870879, 2021-01-15, custom)">
  <defs
     id="defs18" />
  <sodipodi:namedview
     pagecolor="#ffffff"
     bordercolor="#666666"
     borderopacity="1"
     objecttolerance="10"
     gridtolerance="10"
     guidetolerance="10"
     inkscape:pageopacity="0"
     inkscape:pageshadow="2"
     inkscape:window-width="1920"
     inkscape:window-height="1017"
     id="namedview16"
     showgrid="false"
     inkscape:zoom="0.35217232"
     inkscape:cx="410.7967"
     inkscape:cy="909.37212"
     inkscape:window-x="-8"
     inkscape:window-y="-8"
     inkscape:window-maximized="1"
     inkscape:current-layer="svg14"
     inkscape:document-rotation="0" />
  <metadata
     id="metadata2">
Created by potrace 1.15, written by Peter Selinger 2001-2017
<rdf:RDF>
  <cc:Work
     rdf:about="">
    <dc:format>image/svg+xml</dc:format>
    <dc:type
       rdf:resource="http://purl.org/dc/dcmitype/StillImage" />
    <dc:title></dc:title>
  </cc:Work>
</rdf:RDF>
</metadata>
  <g
     transform="translate(0.000000,1280.000000) scale(0.100000,-0.100000)"
     fill="#000000"
     stroke="none"
     id="g12">
    <path
       d="m 5346.97,12424.676 c -33,-4 -87,-18 -120,-30 -49,-19 -56,-25 -40,-31 18,-7 18,-8 2,-8 -10,-1 -16,-5 -12,-10 5,-8 -52,-34 -125,-56 -14,-4 -44,-22 -68,-38 -35,-25 -55,-32 -107,-35 -74,-5 -78,-22 -5,-22 27,0 51,-3 53,-7 3,-5 -13,-31 -34,-60 -28,-38 -54,-59 -98,-80 -33,-15 -60,-33 -60,-40 -1,-6 -13,-14 -28,-16 -16,-2 -2,-5 29,-6 31,0 69,4 84,9 15,6 28,9 30,7 2,-1 -26,-38 -61,-82 -65,-80 -89.1765,-212.176 -100.1765,-286.176 l -6,-39 15,39 c 21,56 27,57 20,6 l -7,-45 20,24 c 18,22 19,22 24,4 8,-28 -10,-148 -27,-180 -9,-17 -11,-29 -4,-33 5,-4 7,-14 4,-22 -13,-34 14,-25 50,17 21,25 42,45 46,45 5,0 9,-29 9,-64 0,-70 12,-90 31,-54 l 13,23 7,-25 c 14,-49 9,-87 -16,-124 -30,-44 -30,-47 -7,-39 15,6 16,5 2,-13 -10,-14 -7,-13 12,4 l 25,23 7,-23 c 3,-13 6,-32 6,-43 0,-11 5,-37 11,-59 17,-61 29,-30 31,80 l 2,99 -5.8235,0.176 c 7,-25 -6.6205,-91.648 0.3795,-134.648 l -8.9112,-82.662 -39.7336,-66.175 c -61.735,-91.193 -73.5949,-114.692 -91.0113,-148.96 -7,-7 -20.0471,-34.061 -25.8535,-37.97 -74.8617,-50.401 -100.3334,-148.087 -47.6322,-122.062 l 29.7335,1.272 -105.2941,0.941 c -73,9 -425.8418,18.589 -437.8418,27.589 -32,22 -36,20 -49,-26 -11,-37 -15,-40 -39,-36 -34.0357,8.724 -363.8743,-73.943 -351.0827,-91.741 -98,6 -174.1409,-47.706 -225.1409,-67.706 -103.2964,-52.296 -308.0194,-77.646 -365.7864,-190.794 30.3675,6.506 -164.0531,-46.457 -305.0977,-291.2907 -38.1664,-105.7066 -94.6727,-74.1048 -248.1571,-509.5065 C 2449.9926,9000.37 2452.5703,8736.561 2518.316,8783.3818 2389.73,8661.6329 2382.2385,8583.59 2382.9597,8508.6539 c -90.205,-258.2656 -114.1988,-327.9022 -114.0753,-382.0288 -20.7108,-97.9307 -32.8252,-128.8535 -39.7362,-201.4186 -17.325,-46.3814 -15.0198,-153.493 -46.0652,-337.7313 -9.5588,-104 37.3896,-165.789 34.3896,-208.789 -10,-165 -88.2154,-305.5006 -77.2154,-309.5006 8,-3 -23.2687,-72.6827 -20.2687,-147.6827 3,-65 43.6527,-279.1002 53.6527,-326.1002 18,-89 144.0111,-68.0589 131.0111,-224.0589 -4,-45 -4.3945,-104.7924 1.6055,-152.7924 30,-231 83.6171,-259.1177 92.6171,-268.1177 14,-14 72.5507,71.3322 72.5507,99.3322 0,12 62.7372,108.2341 76.7372,146.2341 14,38 62.647,151.7648 62.647,168.7648 0,28 117.7817,-59.4836 113.3255,-71.406 -23.1157,-61.8456 658.3163,-81.6751 726.6157,-76.4176 l 73,-17 c -50.9076,34.9018 -545.4384,184.3062 -548.0757,136.4589 -6,-38.3181 70.3225,44.3286 67.2764,-38.5497 -83.4401,95.971 -436.2711,-32.2517 -358.8463,-294.6936 -43.0575,-128.0957 8.6636,-662.6361 21.932,-1078.3342 -32.2391,-640.4324 88.1571,-702.4451 98.9624,-822.4109 2,-46.894 8,-83.5758 18,-80.0456 -4.9652,-0.8171 43.24,-24.9013 41.9078,-52.6586 -6,-29.3182 -20.6342,-131.399 -6.6342,-180.6566 12,-48.3637 35.6504,-71.27 35.6504,-86.27 -1,-16 8.6551,-18.0139 13.6551,-15.0139 5,3 14,-11 20,-30 9,-31 8,-35 -5,-30 -12,5 -14,1 -8,-21 3,-15 10,-30 15,-33 5,-3 7,-23 5,-45 -5,-54 3,-85 21,-78 16,6 19,-13 4,-22 -16,-10 -12,-29 12,-55 15,-16 18,-25 10,-28 -17,-5 -15,-29 3,-36 18,-7 45.6516,-43.8824 28.6516,-50.8824 -7,-3 -4,-6 7,-6 16,-1 17,-3 6,-10 -12,-8 10.3207,-12 24.3207,-26 12,-11 -45.8178,1.691 -51.8178,-9.309 -12,-23 17.1622,-9.0022 28.1622,-23.0022 5,-7 23.8835,-83.6471 33.8835,-124.6471 10,-41 83.1443,-170.6182 112.1443,-266.6182 -6.6954,-323.4428 289.2648,-535.7728 440.8324,-868.1316 C 3626.5344,1788.8063 4082.3477,1355.5579 4156,1235 c -21,-112 -45,-164 -135,-297 -39,-58 -92,-151 -117,-207 -56,-125 -61,-182 -21,-263 48,-97 164,-273 188,-285 29,-16 98,-16 208,-3 88,12 173,46 190,78 5,10 13,74 16,142 4,69 14,159 22,200 8,41 23,140 33,220 17,135 59,302 79,315 19,11 39,-182 47,-450 7,-229 9,-235 66,-235 15,0 28,1 29,3 0,1 2,43 5,92 29,584 47,731 109,885 l -22.9412,61.2353 27.8824,-160 c -3,-88 5.0588,-176.2353 0.059,-201.2353 -20,-98 -23,-262 -6,-334 9,-38 21,-139 27,-224 11,-164 18,-195 46,-210 32,-17 147,-32 241,-32 80,0 94,3 116,23 29,26 94,198 132,350 31,123 72.5928,164.3241 22.5928,402.3241 44.9404,12.6867 570.2616,509.3051 560.2555,661.6088 70.3638,88.6701 110.8605,207.8614 122.9378,270.8781 9,36 40.2964,113.6482 44.2964,160.6482 9,94 16.6759,107.759 45.6759,209.759 11,37 39.9723,165.8892 44.9723,208.8892 5,42 39.6482,185.9446 64.6482,278.9446 59,216 55.1039,387.5351 63.1039,509.5351 11.3307,103.8268 -60.6489,135.9891 -87.4822,141.406 -12,15 44.8892,-53.1856 47.8892,-48.1856 -10.0535,-250.7418 191.9428,-172.8654 171.2643,159.5918 21.1313,86.2514 -63.6002,-321.1643 83.1602,160.1073 -62.6021,-91.4239 257.6362,133.7381 491.5446,1301.2297 79.9334,215.4906 179.06,829.5391 161.7101,686.3319 -32.5694,15.0253 63.1113,142.9368 -81.842,180.8159 60.7284,171.9472 -559.9931,229.0427 -529.288,242.5174 45,26 592.4594,-439.6497 611.13,-423.3333 64.7428,-2.6885 -189.2626,223.4556 -194.105,261.7819 30.6725,45.3145 39.3191,-140.0812 71.3032,-108.6589 21.2055,11.3891 80.1986,-111.2284 79.1691,-102.8551 16.1608,5.4851 -15.6797,-107.1314 11.8125,-80.3062 l -28.4151,41.3324 c 23.2372,16.1732 -46.6418,-445.7766 11.7495,-217.2139 347.0404,-5.2357 518.7883,1036.8392 503.6837,1299.4965 -24.952,232.6898 -139.3672,483.8227 -316.523,626.272 28.6529,256.6895 -386.2204,504.7559 -595.4822,535.4822 -82.125,81.8044 -335.2784,81.0331 -744.0143,255.3669 -42.1794,-46.2942 92.8469,5.8866 5.7891,73.4811 -7.5416,217.7012 -149.9245,345.2631 -155.1686,347.3734 -7,4 -7,-4 0,0 5,3 20.338,-34.6205 37.338,-66.6205 17.3074,-220.048 129.9838,-512.9293 487.8247,-496.181 23.9734,-55.4106 300.3356,-146.7781 368.2311,-113.4199 73.7948,-116.9885 593.078,115.017 569.5462,457.797 49.5583,-213.339 -32.3517,548.9052 -177.1063,736.0877 -1.527,267.4572 -176.4077,415.4954 -277.6944,542.2886 -47,63.9999 -214.2263,200.0006 -331.2263,250.0006 l -675.5162,230.014 v 36 c 0,50 -11,62 -52,59 -19,-1 -73,10 -119,25 -46,14 -96,28 -110,31 -14,3 -17.2941,5.706 -31.2941,18.706 4.554,-36.522 129.813,-112.622 50.2455,76.803 3,29 -53.2778,276.194 -44.2778,305.194 15,50 -40.2951,-158.189 -16.2951,-164.189 -120.8901,-173.858 52.2909,-252.918 242.5878,-108.04 75.3551,24.274 130.0716,117.658 195.8133,239.988 79.9726,99.878 42.4563,189.95 65.4557,262.951 22,69 79.5882,150 89.5882,156 4,3 -1,-16 -12,-42 -40,-92 -13,-52 42,64 81,167 83,177 83,337 0,136 -1,142 -31,206 -42,88 -184.5605,233.607 -253.5605,262.607 -45,20 -45.022,-5.607 -67.022,44.393 -15,31 -35.9204,74.212 -51.9204,97.212 -15,23 -58.6136,52.569 -58.6136,57.569 0,23 -109.5605,92.542 -130.5605,84.542 -8,-3 -14.4706,9.647 -25.4706,20.647 -22,25 -103.4706,42.706 -176.4706,67.706 -57,20 -70,21 -166,9 z m -92,-57 c -7,-2 -19,-2 -25,0 -7,3 -2,5 12,5 14,0 19,-2 13,-5 z M 3516.1611,8107.2279 c -210.139,-126.6083 -392.0753,-395.4245 -336.5032,-434.7494 -8.2844,-18 -208.6708,-207.7207 -199.7864,-337.5362 -146.6529,-231.057 9.5159,-259.8679 -32.8664,-377.4717 l 511.04,-141.4706 15.7059,37.9412 c -81,117 -542.2941,135.1764 -517.2941,163.1764 8,9 -18.5178,107.8259 -4.5178,165.8259 15,58 -9.4476,125.8074 33.1465,241.5715 42.5284,116.0269 211.056,260.2658 241.7561,321.9929 24.1759,87.8241 272.5091,290.3752 289.3194,360.72 16.8102,70.3449 12.1356,-52.2697 46.1356,66.7303 26.9064,78 155.2643,294.7085 143.8338,295.753 -15.9964,1.4617 -283.6533,-324.5829 -189.9694,-362.4833 z M 4951.1525,6179.2548 c -21.2964,-64 -32.1477,-225.1499 -43.1477,-316.1499 -11,-90 -33.2641,-187.9884 -30.2641,-193.9884 1.7903,-16.386 -32.4815,-185.9322 -16.91,-200.7036 -5,-7 -4,-22 1,-37 7,-17 7,-28 0,-32 -5,-4 -7,-27 -3,-56 -22.486,-32 -10.5742,-54 -5,-63 -9,-10 -24.0588,-14.1176 -16.0588,-19.1176 6,-4 8,-15.8824 5,-25.8824 -9.0814,-15 -7.6795,-78.7647 -8.7059,-259.7647 -43.9794,-225 -113.9375,-638.9319 -98.7358,-722.9319 -19.268,-113.5021 -18.0284,-140.5873 -8.3796,-153.511 2.7067,-27.5599 35.6148,-331.4561 44.9076,-245.5145 -2,-13 4.9412,-15.0588 -5.0588,-26.0588 -12,-11 -3.2941,-50.9412 -7.2941,-68.9412 -18,-84 59.8973,-138.2641 35.8973,-160.2641 v 0 L 4740.6542,3367 c 4,-111 24.5778,-266 30.5778,-345 7,-98 -2.5455,-182.3102 -9.5455,-237.3102 -7,-58 2.0516,-76.015 10.0516,-105.015 14,-52 28.7442,-492.8213 9.7442,-626.8213 -8,-52 37.5823,-149.0219 23.5823,-185.0219 -18,-42 29.9354,-77.8316 29.9354,-114.8316 -1,-32 30,-53 29,-53 -1,0 -14,24 -29,53 -15,28 -33.6828,80.662 -52.6828,111.662 -15.4522,35.1928 -1.1847,72.039 -11.052,103.0035 -3,27 15.6101,94.617 -1.3899,121.617 -1.0415,43.9931 4.7013,22.0405 10.7013,67.0405 4,36 15.3103,65.3241 4.3103,85.3241 -4.3547,24.695 16.5839,86.6398 -13.1488,438.0277 0,391 -5.1327,537.7451 -25.1327,589.7451 -27,68 62.6077,111.7439 49.6077,116.7439 -8,4 -35.2595,21.2405 -26.7901,18.1961 7.9529,-2.8588 16.3251,57.9501 -2.7162,95.0739 -8,15 4.2923,2.5643 4.8696,10.1581 4.9361,64.9309 -111.1472,213.4981 -122.797,142.5235 -2.9087,-17.7211 90.0612,-101.2331 79.9656,292.5117 -1.7759,69.2637 -11.5708,206.521 6.5852,308.0892 8.0728,45.1611 8.5275,61.4225 17.8277,114.1964 22.9674,66.6497 35.7977,349.3657 53.1536,447.8392 43.8135,248.5879 32.8411,260.4102 30.6918,277.1357 -3,22.3452 -4.6948,38.9913 -1.3154,37.9556 0.5043,6.1834 -0.4338,1.1792 -0.4338,9.1792 0,12 -4.8523,17.5274 -0.8835,2.8192 -8,-5.4127 1.9258,-1.9296 0,0 -5.2579,5.2682 1.1038,2.4392 -0.8835,25.3555 3.6137,-1.3681 9.4712,4.1126 12.2084,44.8134 2.0107,29.9021 -0.5602,49.8309 9.5409,118.4291 21.2356,94.3182 8.3634,203.8941 8.3634,217.8941 2,20.5643 14.3032,11.0122 4.6065,33.2036 l 4.9378,31.0489 5.8373,82.1621 c 24,67.7723 32.7668,192.4903 41.4891,223.5906 10.1995,36.3676 19.7791,113.3607 13.6966,146.2475 30.6029,127.183 1.0286,236.6021 -20.1671,171.4132 17,7 52,13 77,14 h 47 c -24.1777,15.5465 -95.6624,96.4996 -86.8475,-70.7448 z m -1886.58,-820.2056 c 6,-7.6818 11.3171,-15.9008 1.3171,-21.4311 -14,-7.7423 15.9308,-13.9208 9.9308,2.7611 -12,27.3637 -9.9515,56.9198 -11.2479,18.67 z m 1761.4308,-278.2286 c -2,-12.1031 -6,-21.3095 -10,-19.5158 -4,1.7937 16.9412,0 9.9412,8.1389 l 4.7059,25.3529 c 2.7374,14.7481 -17.6471,26.8535 -11.6471,20.163 6,-6.6906 9,-22.0358 7,-34.139 z M 2732.8127,4806.5712 c -6,-10.3181 1.9792,16.1041 1.9792,35.1041 0,19 -7.9792,8.5778 -1.9792,-0.1041 4,-9.7879 4,-25.7879 0,-35 z m 2065.9743,-36.1141 c 0,17 -12.4434,-26.8968 -12.4434,-49.8968 0,-23 12.4434,33.8968 12.4434,49.8968 z m -59.4481,-622.1727 c -3,-5.6548 -5,0.2421 -5,14.2421 0,14 -3,7.3452 0,0 2,-7.8969 7,-9.139 5,-14.2421 z m -34.5352,-268.6292 c -3,-7.3466 -6,-3.6931 -6,7.3069 -1,11.2178 2,16.5644 5,11.9109 3,-3.6535 4,-12.8713 1,-19.2178 z M 2959.5789,3477.767 c 0,-8 -4,-12 -10,-9 -5,3 -10,13 -10,21 0,8 5,12 10,9 6,-3 10,-13 10,-21 z"
       id="path4"
       sodipodi:nodetypes="ccccccccsccccccccccccccccccccsscccccccccsccccccccsccccccccccccccccccccccssssscccccccccccscccscccccsccccccsccccccccccscccscccccccccsccccccccccccccccccccccccccccccccccccccccsccsccccccccccsccccsccccccscccccccccccccsccccccccccccccccccccccccccscccccccccscsssscsccscscscccccsccccccsccsccssscsccscscccccsccscscsc" />
    <path
       d="M4608 5113 c5 -21 7 -23 10 -9 2 10 0 22 -6 28 -6 6 -7 0 -4 -19z"
       id="path6" />
    <path
       d="M4550 4649 c0 -11 5 -17 10 -14 6 3 10 13 10 21 0 8 -4 14 -10 14 -5 0 -10 -9 -10 -21z"
       id="path8" />
    <path
       d="M3690 4683 c0 -22 2 -25 10 -13 13 20 13 40 0 40 -5 0 -10 -12 -10 -27z"
       id="path10" />
  </g>
</svg>
