<?xml version="1.0" standalone="no"?>
<!DOCTYPE svg PUBLIC "-//W3C//DTD SVG 20010904//EN"
 "http://www.w3.org/TR/2001/REC-SVG-20010904/DTD/svg10.dtd">
<svg version="1.0" xmlns="http://www.w3.org/2000/svg"
 width="916.000000pt" height="1280.000000pt" viewBox="0 0 916.000000 1280.000000"
 preserveAspectRatio="xMidYMid meet">
<metadata>
Created by potrace 1.15, written by Peter Selinger 2001-2017
</metadata>
<g transform="translate(0.000000,1280.000000) scale(0.100000,-0.100000)"
fill="#000000" stroke="none">
<path d="M5405 12430 c-33 -4 -87 -18 -120 -30 -49 -19 -56 -25 -40 -31 18 -7
18 -8 2 -8 -10 -1 -16 -5 -12 -10 5 -8 -52 -34 -125 -56 -14 -4 -44 -22 -68
-38 -35 -25 -55 -32 -107 -35 -74 -5 -78 -22 -5 -22 27 0 51 -3 53 -7 3 -5
-13 -31 -34 -60 -28 -38 -54 -59 -98 -80 -33 -15 -60 -33 -60 -40 -1 -6 -13
-14 -28 -16 -16 -2 -2 -5 29 -6 31 0 69 4 84 9 15 6 28 9 30 7 2 -1 -26 -38
-61 -82 -65 -80 -108 -167 -119 -241 l-6 -39 15 39 c21 56 27 57 20 6 l-7 -45
20 24 c18 22 19 22 24 4 8 -28 -10 -148 -27 -180 -9 -17 -11 -29 -4 -33 5 -4
7 -14 4 -22 -13 -34 14 -25 50 17 21 25 42 45 46 45 5 0 9 -29 9 -64 0 -70 12
-90 31 -54 l13 23 7 -25 c14 -49 9 -87 -16 -124 -30 -44 -30 -47 -7 -39 15 6
16 5 2 -13 -10 -14 -7 -13 12 4 l25 23 7 -23 c3 -13 6 -32 6 -43 0 -11 5 -37
11 -59 17 -61 29 -30 31 80 l2 99 13 -45 c7 -25 20 -81 27 -124 l14 -80 -35
-95 c-33 -88 -57 -133 -90 -169 -7 -7 -13 -20 -13 -27 0 -30 -49 -101 -88
-129 l-41 -29 -126 16 c-73 9 -135 23 -147 32 -32 22 -36 20 -49 -26 -11 -37
-15 -40 -39 -36 -14 3 -75 9 -135 12 -98 6 -116 5 -167 -15 -82 -31 -159 -104
-203 -193 -32 -65 -38 -90 -60 -268 -14 -108 -32 -277 -40 -375 -19 -215 -24
-251 -75 -509 -21 -110 -55 -301 -75 -425 -21 -131 -47 -254 -62 -295 -72
-199 -113 -330 -133 -425 -13 -58 -28 -116 -35 -130 -24 -47 -44 -185 -55
-375 -6 -104 -13 -225 -16 -268 -10 -165 -9 -287 2 -291 8 -3 14 -48 17 -123
3 -65 13 -156 23 -203 18 -89 22 -249 9 -405 -4 -45 -2 -117 4 -165 30 -231
40 -293 49 -302 14 -14 62 35 62 63 0 12 11 53 25 91 14 38 25 84 25 101 0 28
34 164 43 173 2 2 36 -4 76 -14 l73 -17 -6 -70 c-3 -38 -9 -141 -12 -227 -6
-137 -9 -158 -24 -163 -22 -7 -30 -52 -30 -182 0 -84 3 -104 16 -111 15 -8 15
-11 0 -34 -14 -22 -14 -30 -2 -74 14 -52 20 -191 6 -144 -6 17 -8 5 -8 -40 0
-50 2 -58 8 -35 7 28 8 28 9 5 0 -14 -3 -40 -8 -58 -6 -18 -6 -30 -2 -28 4 3
8 -32 8 -77 0 -58 -3 -72 -7 -47 -9 43 -11 29 -13 -77 -1 -46 2 -81 7 -80 6 1
11 -7 13 -18 3 -16 2 -17 -6 -5 -16 24 -20 8 -8 -30 13 -39 11 -84 -4 -75 -5
4 -9 -6 -9 -22 0 -16 4 -23 8 -16 4 6 7 -9 8 -35 1 -42 0 -44 -14 -26 -14 19
-14 18 -7 -1 9 -23 18 -169 19 -297 1 -47 4 -84 9 -81 4 2 5 -20 1 -49 -3 -29
-1 -93 6 -143 6 -49 11 -103 11 -118 -1 -16 2 -26 7 -23 5 3 14 -11 20 -30 9
-31 8 -35 -5 -30 -12 5 -14 1 -8 -21 3 -15 10 -30 15 -33 5 -3 7 -23 5 -45 -5
-54 3 -85 21 -78 16 6 19 -13 4 -22 -16 -10 -12 -29 12 -55 15 -16 18 -25 10
-28 -17 -5 -15 -29 3 -36 18 -7 20 -42 3 -49 -7 -3 -4 -6 7 -6 16 -1 17 -3 6
-10 -12 -8 -12 -12 2 -26 12 -11 14 -22 8 -33 -12 -23 -14 -191 -3 -205 5 -7
17 -46 27 -87 10 -41 42 -154 71 -250 131 -437 174 -614 220 -910 21 -135 15
-508 -10 -645 -21 -112 -45 -164 -135 -297 -39 -58 -92 -151 -117 -207 -56
-125 -61 -182 -21 -263 48 -97 164 -273 188 -285 29 -16 98 -16 208 -3 88 12
173 46 190 78 5 10 13 74 16 142 4 69 14 159 22 200 8 41 23 140 33 220 17
135 59 302 79 315 19 11 39 -182 47 -450 7 -229 9 -235 66 -235 15 0 28 1 29
3 0 1 2 43 5 92 29 584 47 731 109 885 l26 65 -6 -160 c-3 -88 -10 -180 -15
-205 -20 -98 -23 -262 -6 -334 9 -38 21 -139 27 -224 11 -164 18 -195 46 -210
32 -17 147 -32 241 -32 80 0 94 3 116 23 29 26 94 198 132 350 31 123 30 159
-20 397 -41 193 -56 359 -46 485 33 419 44 528 57 585 9 36 19 103 23 150 9
94 22 161 51 263 11 37 24 102 29 145 5 42 29 154 54 247 59 216 85 355 93
477 5 88 4 98 -15 123 -12 15 -19 32 -16 37 10 16 7 280 -4 348 -30 184 -34
232 -28 335 5 98 13 153 48 330 12 62 18 105 19 128 0 9 5 17 11 17 6 0 9 3 5
6 -3 3 0 22 7 42 7 21 13 64 14 96 1 33 5 62 10 65 5 3 12 35 16 71 4 35 14
79 21 97 8 18 21 74 30 124 8 50 19 98 24 107 5 10 11 41 15 70 3 30 11 62 16
73 6 10 14 38 19 61 5 24 24 99 42 168 18 69 32 138 31 153 -1 15 14 85 34
155 19 70 44 177 55 238 20 105 23 112 53 129 45 26 115 84 126 105 7 12 5 31
-6 63 -14 42 -14 46 7 81 11 20 19 42 16 49 -2 7 8 28 24 46 l28 34 -95 186
c-52 102 -111 224 -131 271 -38 94 -156 314 -213 400 -20 30 -48 76 -62 101
-30 50 -110 129 -132 129 -16 0 -93 95 -120 149 -26 50 -33 171 -12 204 10 14
19 46 22 72 2 26 9 55 14 65 6 10 10 34 10 52 1 38 30 89 88 153 23 26 42 52
42 59 0 15 29 55 30 41 0 -6 -3 -15 -7 -21 -5 -5 2 2 14 15 14 16 18 28 12 32
-7 4 -8 9 -1 13 5 3 24 -21 41 -53 97 -182 269 -353 432 -431 75 -35 106 -37
158 -10 136 69 183 257 113 455 -56 159 -113 491 -133 764 -28 408 -44 485
-115 583 -47 64 -98 99 -215 149 l-99 42 0 36 c0 50 -11 62 -52 59 -19 -1 -73
10 -119 25 -46 14 -96 28 -110 31 -14 3 -38 17 -52 30 -25 23 -27 30 -21 78 3
29 12 77 21 106 15 50 18 53 42 47 71 -17 118 -17 150 0 52 26 117 91 190 190
82 109 113 162 136 235 22 69 57 150 67 156 4 3 -1 -16 -12 -42 -40 -92 -13
-52 42 64 81 167 83 177 83 337 0 136 -1 142 -31 206 -42 88 -146 199 -215
228 -45 20 -54 29 -76 79 -15 31 -39 76 -55 99 -15 23 -28 45 -28 50 0 23
-103 98 -124 90 -8 -3 -22 4 -33 15 -22 25 -79 54 -152 79 -57 20 -70 21 -166
9z m-92 -57 c-7 -2 -19 -2 -25 0 -7 3 -2 5 12 5 14 0 19 -2 13 -5z m-1318
-4278 c15 -138 -22 -485 -54 -514 -21 -18 -39 -122 -41 -236 -2 -154 -37 -306
-101 -444 l-40 -85 -37 53 c-81 117 -83 122 -58 150 8 9 27 63 41 121 15 58
31 109 36 115 5 5 9 20 9 35 0 14 7 38 15 54 8 15 15 38 15 50 0 11 7 34 15
50 8 15 15 35 15 42 0 8 7 31 16 52 9 20 18 47 20 59 1 12 9 37 17 55 13 30
24 66 46 153 5 19 3 37 -5 50 -10 17 -5 44 29 163 22 78 44 142 48 142 4 0 11
-29 14 -65z m1044 -1961 c0 -64 -8 -191 -19 -282 -11 -90 -16 -170 -13 -176
11 -17 12 -209 1 -222 -5 -7 -4 -22 1 -37 7 -17 7 -28 0 -32 -5 -4 -7 -27 -3
-56 4 -32 2 -54 -5 -63 -9 -10 -9 -16 -1 -21 6 -4 8 -14 5 -24 -6 -15 -11 -75
-20 -256 -11 -225 -6 -583 9 -667 19 -109 27 -140 36 -153 7 -8 7 -122 1 -283
-1 -13 -6 -32 -11 -43 -6 -11 -12 -34 -14 -52 -9 -84 -30 -153 -54 -175 l-25
-24 6 -201 c4 -111 11 -266 17 -345 7 -98 7 -169 0 -224 -7 -58 -7 -93 1 -122
14 -52 3 -502 -16 -636 -8 -52 -26 -124 -40 -160 -18 -42 -28 -85 -28 -122 -1
-32 -2 -58 -3 -58 -1 0 -14 24 -29 53 -15 28 -43 78 -62 109 -22 36 -37 75
-41 105 -3 27 -17 66 -34 93 -25 40 -28 51 -22 96 4 36 2 60 -9 80 -12 24 -15
100 -16 454 0 391 -10 583 -30 635 -27 68 -43 96 -56 101 -8 4 -15 13 -15 22
0 21 -19 81 -37 115 -8 15 -13 34 -10 41 3 7 -6 34 -19 60 -13 26 -29 77 -34
114 -6 36 -16 69 -21 73 -5 3 -12 22 -16 42 -4 27 -2 38 9 42 11 4 14 17 11
41 -2 23 0 33 7 29 6 -3 7 0 4 9 -3 9 -11 13 -16 10 -7 -4 -7 2 -2 17 4 13 7
32 6 42 0 9 3 17 9 17 5 0 10 -12 10 -27 1 -21 3 -18 8 12 4 22 11 51 15 65 6
24 6 24 -9 -2 -9 -16 -17 -28 -18 -28 -1 0 -1 18 1 39 2 22 13 49 25 62 16 17
22 36 22 69 0 29 8 57 23 80 22 35 27 50 16 50 -3 0 -10 -13 -15 -30 -6 -16
-15 -30 -20 -30 -11 0 6 45 31 80 22 31 26 55 9 66 -7 4 -9 0 -5 -13 3 -11 -1
-27 -10 -39 -15 -18 -15 -17 -10 16 4 19 12 40 19 45 8 6 16 21 20 35 l6 25
-19 -25 c-11 -14 -20 -20 -20 -14 0 5 5 15 12 22 7 7 13 42 13 79 1 41 6 68
13 71 7 2 12 13 11 25 0 21 -1 21 -9 2 -17 -39 -10 7 10 62 15 43 17 60 8 70
-8 10 -8 17 0 25 7 7 12 21 11 33 -1 17 -2 16 -9 -5 -8 -24 -8 -24 -9 7 -1 17
4 33 9 35 13 4 21 118 9 118 -15 0 2 53 24 77 14 15 18 31 15 53 -3 21 0 34 9
37 7 3 13 12 13 20 0 12 -2 12 -16 -1 -8 -9 -19 -16 -24 -16 -17 0 1 27 24 38
16 7 42 53 90 158 37 82 69 160 69 174 2 21 -3 25 -30 28 l-31 3 44 132 c24
73 49 159 54 192 5 33 19 102 31 153 20 87 24 95 53 108 17 7 52 13 77 14 l47
0 1 -116z m-1302 -750 c3 -8 1 -20 -4 -25 -7 -7 -12 -2 -15 15 -6 28 9 36 19
10z m880 -190 c-2 -13 -6 -24 -10 -24 -4 0 -7 2 -7 5 0 3 0 17 0 31 0 15 4 23
10 19 6 -4 9 -18 7 -31z m-890 -361 c-3 -10 -5 -2 -5 17 0 19 2 27 5 18 2 -10
2 -26 0 -35z m840 -10 c-3 -10 -5 -4 -5 12 0 17 2 24 5 18 2 -7 2 -21 0 -30z
m-90 -575 c-3 -7 -5 -2 -5 12 0 14 2 19 5 13 2 -7 2 -19 0 -25z m-60 -290 c-3
-8 -6 -5 -6 6 -1 11 2 17 5 13 3 -3 4 -12 1 -19z m-617 -334 c0 -8 -4 -12 -10
-9 -5 3 -10 13 -10 21 0 8 5 12 10 9 6 -3 10 -13 10 -21z"/>
<path d="M4608 5113 c5 -21 7 -23 10 -9 2 10 0 22 -6 28 -6 6 -7 0 -4 -19z"/>
<path d="M4550 4649 c0 -11 5 -17 10 -14 6 3 10 13 10 21 0 8 -4 14 -10 14 -5
0 -10 -9 -10 -21z"/>
<path d="M3690 4683 c0 -22 2 -25 10 -13 13 20 13 40 0 40 -5 0 -10 -12 -10
-27z"/>
</g>
</svg>
