<?xml version="1.0" encoding="UTF-8" standalone="no"?>
<svg
   xmlns:dc="http://purl.org/dc/elements/1.1/"
   xmlns:cc="http://creativecommons.org/ns#"
   xmlns:rdf="http://www.w3.org/1999/02/22-rdf-syntax-ns#"
   xmlns:svg="http://www.w3.org/2000/svg"
   xmlns="http://www.w3.org/2000/svg"
   xmlns:sodipodi="http://sodipodi.sourceforge.net/DTD/sodipodi-0.dtd"
   xmlns:inkscape="http://www.inkscape.org/namespaces/inkscape"
   version="1.0"
   width="916.000000pt"
   height="1280.000000pt"
   viewBox="0 0 916.000000 1280.000000"
   preserveAspectRatio="xMidYMid meet"
   id="svg14"
   sodipodi:docname="30rogue.svg"
   inkscape:version="1.0.2 (e86c870879, 2021-01-15, custom)">
  <defs
     id="defs18" />
  <sodipodi:namedview
     pagecolor="#ffffff"
     bordercolor="#666666"
     borderopacity="1"
     objecttolerance="10"
     gridtolerance="10"
     guidetolerance="10"
     inkscape:pageopacity="0"
     inkscape:pageshadow="2"
     inkscape:window-width="1920"
     inkscape:window-height="1017"
     id="namedview16"
     showgrid="false"
     inkscape:zoom="0.35217233"
     inkscape:cx="1615.0192"
     inkscape:cy="838.10442"
     inkscape:window-x="-8"
     inkscape:window-y="-8"
     inkscape:window-maximized="1"
     inkscape:current-layer="svg14"
     inkscape:document-rotation="0" />
  <metadata
     id="metadata2">
Created by potrace 1.15, written by Peter Selinger 2001-2017
<rdf:RDF>
  <cc:Work
     rdf:about="">
    <dc:format>image/svg+xml</dc:format>
    <dc:type
       rdf:resource="http://purl.org/dc/dcmitype/StillImage" />
    <dc:title />
  </cc:Work>
</rdf:RDF>
</metadata>
  <g
     transform="translate(0.000000,1280.000000) scale(0.100000,-0.100000)"
     fill="#000000"
     stroke="none"
     id="g12">
    <path
       d="m 5405,12430 c -33,-4 -87,-18 -120,-30 -49,-19 -56,-25 -40,-31 18,-7 18,-8 2,-8 -10,-1 -16,-5 -12,-10 5,-8 -52,-34 -125,-56 -14,-4 -44,-22 -68,-38 -35,-25 -55,-32 -107,-35 -74,-5 -78,-22 -5,-22 27,0 51,-3 53,-7 3,-5 -13,-31 -34,-60 -28,-38 -54,-59 -98,-80 -33,-15 -60,-33 -60,-40 -1,-6 -13,-14 -28,-16 -16,-2 -2,-5 29,-6 31,0 69,4 84,9 15,6 28,9 30,7 2,-1 -26,-38 -61,-82 -65,-80 -108,-167 -119,-241 l -6,-39 15,39 c 21,56 27,57 20,6 l -7,-45 20,24 c 18,22 19,22 24,4 8,-28 -10,-148 -27,-180 -9,-17 -11,-29 -4,-33 5,-4 7,-14 4,-22 -13,-34 14,-25 50,17 21,25 42,45 46,45 5,0 9,-29 9,-64 0,-70 12,-90 31,-54 l 13,23 7,-25 c 14,-49 9,-87 -16,-124 -30,-44 -30,-47 -7,-39 15,6 16,5 2,-13 -10,-14 -7,-13 12,4 l 25,23 7,-23 c 3,-13 6,-32 6,-43 0,-11 5,-37 11,-59 17,-61 29,-30 31,80 l 2,99 13,-45 c 7,-25 20,-81 27,-124 l 14,-80 -35,-95 c -33,-88 -57,-133 -90,-169 -7,-7 -13,-20 -13,-27 0,-30 -49,-101 -88,-129 l -41,-29 -126,16 c -73,9 -135,23 -147,32 -32,22 -36,20 -49,-26 -11,-37 -15,-40 -39,-36 -14,3 -75,9 -135,12 -109.3284,-0.294 -206.0514,-85.478 -186.737,-66.414 -82,-31 -132.0821,-64.337 -199.7705,-153.337 -29.606,-65 -96.9143,-81.368 -141.7992,-259.368 -14,-107.9998 -56.1476,-279.2051 -64.1476,-377.2051 -19,-215 -2.7036,-272.2964 -53.7036,-530.2964 -21,-110 -49.6759,-274.3795 -69.6759,-398.3795 -21,-131 -73.6205,-254 -88.6205,-295 -34.3553,-199 -51.4869,-326.8812 -72.3404,-421.8812 -13,-58 3.6771,-119.1188 -3.3229,-133.1188 -24,-47 -36.4706,-185 -47.4706,-375 -6,-104 -28.0589,-225 -31.0589,-268 -10,-165 -9,-287 2,-291 8,-3 14,-48 17,-123 3,-65 13,-156 23,-203 18,-89 22,-249 9,-405 -4,-45 -2,-117 4,-165 30,-231 40,-293 49,-302 14,-14 62,35 62,63 0,12 11,53 25,91 14,38 25,84 25,101 0,28 34,164 43,173 2,2 73.6471,-4 113.6471,-14 l 73,-17 c -50.9076,34.9018 -51.2796,-16.8286 -53.9169,-64.6759 -6,-38.3181 -18,-141.9544 -24,-228.2726 -12,-137.6363 -18,-158.9544 -48,-165.5451 -44,-9.3331 -12.0831,-60.5056 -12.0831,-190.5056 0,-84 -41.9169,-98.3577 -15.9169,-103.9791 30,-6.4093 30,-9.4093 0,-34 -28,-23.4847 -28,-31.4847 -4,-74.2121 28,-50.5153 40,-188.879 12,-143.3637 -12,16.3637 -16,4.1516 -16,-40.8484 0,-50 4,-57.7879 16,-34.1516 14,28.7423 16,28.8484 18,5.9544 0,-14 -6,-40.3181 -16,-58.8484 -12,-18.6363 -12,-30.6363 -4,-28.2121 8,3.4242 16,-31.1516 16,-76.1516 0,-58 -6,-72.3181 -14,-47.7423 -18,42.0456 -22,27.8335 -26,-78.3786 -2,-46.1061 4,-80.7879 14,-79.2577 12,1.6363 22,-5.8335 26,-16.6214 6,-15.6818 4,-16.7879 -12,-5.6363 -32,22.3033 -40,5.8791 -16,-30.8483 26,-37.6214 22,-82.8335 -8,-75.4242 -10,3.4697 29.9169,-12.2786 29.9169,-28.2786 0,-16 -39.9169,-17.2517 -31.9169,-9.8275 8,6.4242 14,-8.2577 16,-34.1516 2,-41.894 0,-44 -28,-27.4847 -28,17.5154 19.9169,11.1913 33.9169,-7.0664 18,-22.0456 -11.9169,-161.767 -9.9169,-289.661 2,-46.894 8,-83.5758 18,-80.0456 8,2.4242 10,-19.4697 2,-48.8939 -6,-29.3182 -5.7647,-93.1061 8.2353,-142.3637 12,-48.3637 50.7647,-99.1823 50.7647,-114.1823 -1,-16 2,-26 7,-23 5,3 14,-11 20,-30 9,-31 8,-35 -5,-30 -12,5 -14,1 -8,-21 3,-15 10,-30 15,-33 5,-3 7,-23 5,-45 -5,-54 3,-85 21,-78 16,6 19,-13 4,-22 -16,-10 -12,-29 12,-55 15,-16 18,-25 10,-28 -17,-5 -15,-29 3,-36 18,-7 20,-42 3,-49 -7,-3 -4,-6 7,-6 16,-1 17,-3 6,-10 -12,-8 -34.5882,-30.8235 -20.5882,-44.8235 12,-11 -0.6413,-24.662 -6.6413,-35.662 -12,-23 33.9169,-196.3241 44.9169,-210.3241 5,-7 17,-46 27,-87 10,-41 42,-154 71,-250 C 4039.7705,2331.5145 4120,2176 4166,1880 c 21,-135 15,-508 -10,-645 -21,-112 -45,-164 -135,-297 -39,-58 -92,-151 -117,-207 -56,-125 -61,-182 -21,-263 48,-97 164,-273 188,-285 29,-16 98,-16 208,-3 88,12 173,46 190,78 5,10 13,74 16,142 4,69 14,159 22,200 8,41 23,140 33,220 17,135 59,302 79,315 19,11 39,-182 47,-450 7,-229 9,-235 66,-235 15,0 28,1 29,3 0,1 2,43 5,92 29,584 47,731 109,885 l 26,65 -6,-160 c -3,-88 -10,-180 -15,-205 -20,-98 -23,-262 -6,-334 9,-38 21,-139 27,-224 11,-164 18,-195 46,-210 32,-17 147,-32 241,-32 80,0 94,3 116,23 29,26 94,198 132,350 31,123 30,159 -20,397 -41,193 -24.0554,359 -14.0554,485 33,419 44,528 57,585 9,36 19,103 23,150 9,94 22,161 51,263 11,37 24,102 29,145 5,42 29,154 54,247 59,216 71.8789,355 79.8789,477 5,88 -14.8235,98 -33.8235,123 -12,15 -19,32 -16,37 10,-47.1181 44.9146,256.5057 33.9146,340.4706 -13.6162,151.2324 1.3209,198.7378 5.8824,304.6148 5,98 22.3563,178.2821 57.3563,353.5017 12,61.3896 18,104.0844 19,127.0335 0,9 5,16.7457 11,16.4405 6,-0.3052 9,2.5422 5,5.7456 -3,3.1527 0,22 7,41.644 7,20.6439 13,63.3387 14,95.2878 1,32.9492 5,61.7457 10,64.4914 5,2.7456 12,34.3896 16,70.1861 4,34.7965 14,78.2879 21,95.9318 8,17.593 21,72.9318 30,122.474 8,49.593 19,97.0335 24,105.7792 5,9.7456 11,40.4404 15,69.2369 3,29.8474 11,61.4405 16,72.1862 6,9.6948 14,37.2878 19,60.0335 5,23.7457 24,97.7792 42,165.8636 18,68.0844 32,136.3722 31,151.4231 -1,15.0509 14,84.2878 34,153.2705 19,69.0335 15.5526,222.444 26.5526,283.444 2.8203,190.8987 -30.411,100.4665 0.2941,113.9412 45,26 115,84 126,105 7,12 38.8824,34.7647 27.8824,66.7647 0.6646,49.3323 -9.8835,40.5288 7,73.4706 11,20 22.7647,45.7647 19.7647,52.7647 -2,7 8,28 24,46 l 12.9411,52.8235 -68.647,174.7059 c -52,102 -114.7647,224 -134.7647,271 -38,94 -156,306.4706 -213,392.4706 -20,30 -70.5883,79.7647 -84.5883,104.7647 -30,50 -155.7851,147.2027 -154.5882,125.2353 3.6894,-67.7157 72.8194,22.7466 24.429,145.2353 -26,50 -40.0726,157.0439 -6.0726,287.0439 30.3055,131.2315 -34.6577,98.5098 86.0615,238.7174 63.671,116.5725 -3.5118,174.5136 -8.7559,176.6239 -7,4 -7,-4 0,0 5,3 20.338,-34.6205 37.338,-66.6205 17.8126,-219.6355 228.6292,-381.85 432,-431 75,-35 106,-37 158,-10 136,69 183,257 113,455 -56,159 -113,491 -133,764 -28,408 -44,485 -115,583 -47,64 -98,99 -215,149 l -99,42 v 36 c 0,50 -11,62 -52,59 -19,-1 -73,10 -119,25 -46,14 -96,28 -110,31 -14,3 -38,17 -52,30 -3.3382,8.559 2.3109,25.518 1.5882,78 3,29 23.4257,109.359 32.4257,138.359 15,50 -24,6 0,0 71,-17 125.9861,-2.359 157.9861,14.641 52,26 117,91 190,190 82,109 113,162 136,235 22,69 57,150 67,156 4,3 -1,-16 -12,-42 -40,-92 -13,-52 42,64 81,167 83,177 83,337 0,136 -1,142 -31,206 -42,88 -146,199 -215,228 -45,20 -54,29 -76,79 -15,31 -39,76 -55,99 -15,23 -28,45 -28,50 0,23 -103,98 -124,90 -8,-3 -22,4 -33,15 -22,25 -79,54 -152,79 -57,20 -70,21 -166,9 z m -92,-57 c -7,-2 -19,-2 -25,0 -7,3 -2,5 12,5 14,0 19,-2 13,-5 z M 3992.338,8095 c -4.6639,-153.2169 -94.9367,-436.4966 -123.7809,-463.4211 -8.2844,-18 -81.2938,-195.1671 -109.6781,-309.1671 -140.7411,-312.2029 -68.1658,-281.4363 -105.0322,-398.8236 l 52.4473,-92.5294 L 3722,6869 c -81,117 -120.6471,122 -95.6471,150 8,9 -26.6471,80.8824 -12.6471,138.8824 15,58 31,109 36,115 5,5 27.8236,29.4118 27.8236,44.4118 0,14 25.8235,28.5882 33.8235,44.5882 8,15 15,38 15,50 0,11 7,34 15,50 8,15 17.8236,32.1764 17.8236,39.1764 0,8 4.1764,33.8236 13.1764,54.8236 9,20 18,47 20,59 1,12 9,37 17,55 13,30 24,66 46,153 5,19 3,37 -5,50 -10,17 48.6471,26.1176 82.6471,145.1176 22,78 44.1907,143.2202 48,142 2.2212,-0.7115 -5.763,-34.6404 11.338,-65 z m 982.7729,-1923.7313 c -21.2964,-64 -37.2826,-209.6344 -48.2826,-300.6344 -11,-90 -33.2641,-195.5178 -30.2641,-201.5178 11,-17 27.9723,-187.7036 16.9723,-200.7036 -5,-7 -4,-22 1,-37 7,-17 7,-28 0,-32 -5,-4 -7,-27 -3,-56 4,-32 2,-54 -5,-63 -9,-10 -9,-16 -1,-21 6,-4 8,-14 5,-24 -6,-15 -11,-75 -20,-256 -11,-225 35.2225,-592.0888 50.2225,-676.0888 19,-109 27,-140 36,-153 5.6751,-8.265 3.257,-139.9209 54.241,-288.3241 -2,-13 -12,-32 -22,-43 -12,-11 -24,-34 -28,-52 -18,-84 -31.3529,-153 -55.3529,-175 l -25,-24 6,-201 c 4,-111 11,-266 17,-345 7,-98 7,-169 0,-224 -7,-58 -7,-93 1,-122 14,-52 3,-502 -16,-636 -8,-52 -26,-124 -40,-160 -18,-42 -1.6471,-85 -1.6471,-122 -1,-32 -2,-58 -3,-58 -1,0 -14,24 -29,53 -15,28 -43,78 -62,109 -22,36 -37,75 -41,105 -3,27 -17,66 -34,93 -25,40 -28,51 -22,96 4,36 2,60 -9,80 -12,24 -15,100 -16,454 0,391 0.6482,585.662 -19.3518,637.662 -27,68 -39.0069,107.9792 -52.0069,112.9792 -8,4 -27.4625,13.0652 -18.9931,10.0208 7.9529,-2.8588 -1.0175,77.8762 -20.0588,115 -8,15 -16.7647,37.7647 -13.7647,44.7647 3,7 -0.353,34 -13.353,60 -13,26 -20.0057,65.5335 -25.0057,103.6227 -6,37.3069 2.7681,62.6166 -2.2319,67.7057 -5,4.0891 9.2964,13.9657 5.2964,34.837 -4,27.8712 -2,38.4356 9,40.0396 11,1.6039 14,13.9505 11,38.6039 -2,23.4357 0,33 7,27.4753 6,-4.307 7,-2.9084 4,7.4369 -3,10.3452 -11,16.0878 -16,14.1769 -7,-2.4752 -7,3.5248 -2,17.4357 4,12.1287 7,30.4752 6,40.693 0,9 3,17.7302 9,15.0396 5,-2.2421 10,-16.4842 10,-31.4842 1,-21.4484 3,-19.3452 8,8.4128 4,20.2063 11,46.0673 15,58.2736 6,21.3095 6,21.3095 -9,2.0354 -9,-11.9642 -17,-20.3769 -18,-19.9285 -1,0.4484 -1,18.4484 1,38.5516 2,21.1032 13,43.1706 25,50.7895 16,9.8254 7.3587,26.1349 7.3587,59.1349 0,29 8,53.4126 23,69.6864 22,25.1347 27,37.8927 16,42.8252 -3,1.3453 -10,-8.5158 -15,-23.2737 -6,-13.3095 -15,-23.2737 -20,-21.0316 -11,4.9326 6,42.3095 31,66.099 22,21.1348 26,43.3411 9,61.9642 -7,7.139 -9,4.0358 -5,-10.7579 3,-12.3452 -1,-26.5516 -10,-34.5158 -15,-11.2737 -15,-10.2737 -10,20.4843 4,17.2063 12,34.6189 19,36.4799 8,2.4127 16,13.8254 20,26.0317 l 6,22.3095 -19,-16.4801 c -11,-9.0674 -20,-11.0316 -20,-5.0316 0,5 5,12.7579 12,16.619 7,3.861 13,36.1706 13,73.1706 1,40.5516 6,65.3095 13,65.1705 7,-1.139 12,7.6189 11,20.0674 0,21 -1,21.4484 -9,6.0358 -17,-31.3769 -10,11.4842 10,57.5157 15,36.2738 17,52.377 8,66.4128 -8,13.5872 -8,20.5872 0,25 7,3.861 12,15.6189 11,28.0673 -1,17.4484 -2,16.8969 -9,-0.9642 -8,-20.4126 -8,-20.4126 -9,11.0357 -1,17.4484 4,31.2064 9,30.9643 13,-1.8295 21,108.5833 9,113.9642 -15,6.7263 2,52.1032 24,66.238 14,8.7221 18,22.9285 15,46.2737 -3,22.3452 0,34 9,32.9643 7,-0.139 13,6.1705 13,14.1705 0,12 -2,12.8968 -16,6.1747 -8,-5.4127 -19,-7.48 -24,-5.2379 -17,7.623 1,26.5515 24,27.2379 16,-0.1747 12.7175,124.2943 60.7175,218.8389 37,73.9406 38.3864,146.3013 38.3864,160.3013 2,20.5643 7.6481,17.6673 -2.0486,39.8587 l 6.2688,20.4007 12.0554,85.1471 c 24,67.7723 49,174.9473 54,206.8582 5,31.9109 19,103.1855 31,151.5716 24.6349,119.7231 -10.9806,179.3797 15.7313,174.0752 17,7 52,13 77,14 h 47 c -24.1777,15.5465 -45.7975,-2.1592 -62.8891,-78.7309 z m -1315.0278,-785.02 c 6,-7.6818 2,-19.8939 -8,-25.4242 -14,-7.7423 -24,-3.2726 -30,13.4093 -12,27.3637 18,36.9544 38,12.0149 z m 1020.8061,-293.6773 c -2,-12.1031 -6,-21.3095 -10,-19.5158 -4,1.7937 -7,5.1389 -7,8.1389 v 31 c 0,15 4,21.2064 10,14.5159 6,-6.6906 9,-22.0358 7,-34.139 z M 3640.0831,4834.1882 c -6,-10.3181 -10,-2.5302 -10,16.4698 0,19 4,27.2121 10,18.5302 4,-9.7879 4,-25.7879 0,-35 z m 990.8061,-90.1959 c -3,-8.6547 -5,-1.7579 -5,14.2421 0,17 2,23.1032 5,15.7579 2,-7.8968 2,-21.8968 0,-30 z m -90,-534.6423 c -3,-5.6548 -5,0.2421 -5,14.2421 0,14 2,18.1031 5,10.7579 2,-7.8969 2,-19.8969 0,-25 z m -45.3587,-268.6292 c -3,-7.3466 -6,-3.6931 -6,7.3069 -1,11.2178 2,16.5644 5,11.9109 3,-3.6535 4,-12.8713 1,-19.2178 z m -743.4474,-311.3967 c 0,-8 -4,-12 -10,-9 -5,3 -10,13 -10,21 0,8 5,12 10,9 6,-3 10,-13 10,-21 z"
       id="path4"
       sodipodi:nodetypes="ccccccccsccccccccccccccccccccsscccccccccsccccccccscccccccccccccccccccccccssssscccccsccccsccccsccccsccscccccccccscccscccccsccccccsccccccccccscccscccccccccsccccccccccccccccscccscccccccsscccccccccccccscccccccccccccsccsccccccccccsccccsccccccsccccccccccscscsccccccsccccccccccccccccccccccccccscccccccccscsscccsccscccsccccsccscscscccccccccssccccccscsccscccscsccccccsccccccsccsssssscscccscccsccccccscscs" />
    <path
       d="M4608 5113 c5 -21 7 -23 10 -9 2 10 0 22 -6 28 -6 6 -7 0 -4 -19z"
       id="path6" />
    <path
       d="M4550 4649 c0 -11 5 -17 10 -14 6 3 10 13 10 21 0 8 -4 14 -10 14 -5 0 -10 -9 -10 -21z"
       id="path8" />
    <path
       d="M3690 4683 c0 -22 2 -25 10 -13 13 20 13 40 0 40 -5 0 -10 -12 -10 -27z"
       id="path10" />
  </g>
</svg>
