<?xml version="1.0" encoding="UTF-8" standalone="no"?>
<svg
   xmlns:dc="http://purl.org/dc/elements/1.1/"
   xmlns:cc="http://creativecommons.org/ns#"
   xmlns:rdf="http://www.w3.org/1999/02/22-rdf-syntax-ns#"
   xmlns:svg="http://www.w3.org/2000/svg"
   xmlns="http://www.w3.org/2000/svg"
   xmlns:sodipodi="http://sodipodi.sourceforge.net/DTD/sodipodi-0.dtd"
   xmlns:inkscape="http://www.inkscape.org/namespaces/inkscape"
   version="1.0"
   width="916.000000pt"
   height="1280.000000pt"
   viewBox="0 0 916.000000 1280.000000"
   preserveAspectRatio="xMidYMid meet"
   id="svg14"
   sodipodi:docname="35rogue.svg"
   inkscape:version="1.0.2 (e86c870879, 2021-01-15, custom)">
  <defs
     id="defs18" />
  <sodipodi:namedview
     pagecolor="#ffffff"
     bordercolor="#666666"
     borderopacity="1"
     objecttolerance="10"
     gridtolerance="10"
     guidetolerance="10"
     inkscape:pageopacity="0"
     inkscape:pageshadow="2"
     inkscape:window-width="1920"
     inkscape:window-height="1017"
     id="namedview16"
     showgrid="false"
     inkscape:zoom="0.49804688"
     inkscape:cx="342.41105"
     inkscape:cy="866.61689"
     inkscape:window-x="-8"
     inkscape:window-y="-8"
     inkscape:window-maximized="1"
     inkscape:current-layer="svg14" />
  <metadata
     id="metadata2">
Created by potrace 1.15, written by Peter Selinger 2001-2017
<rdf:RDF>
  <cc:Work
     rdf:about="">
    <dc:format>image/svg+xml</dc:format>
    <dc:type
       rdf:resource="http://purl.org/dc/dcmitype/StillImage" />
    <dc:title></dc:title>
  </cc:Work>
</rdf:RDF>
</metadata>
  <g
     transform="translate(0.000000,1280.000000) scale(0.100000,-0.100000)"
     fill="#000000"
     stroke="none"
     id="g12">
    <path
       d="m 5405,12430 c -33,-4 -87,-18 -120,-30 -49,-19 -56,-25 -40,-31 18,-7 18,-8 2,-8 -10,-1 -16,-5 -12,-10 5,-8 -52,-34 -125,-56 -14,-4 -44,-22 -68,-38 -35,-25 -55,-32 -107,-35 -74,-5 -78,-22 -5,-22 27,0 51,-3 53,-7 3,-5 -13,-31 -34,-60 -28,-38 -54,-59 -98,-80 -33,-15 -60,-33 -60,-40 -1,-6 -13,-14 -28,-16 -16,-2 -2,-5 29,-6 31,0 69,4 84,9 15,6 28,9 30,7 2,-1 -26,-38 -61,-82 -65,-80 -108,-167 -119,-241 l -6,-39 15,39 c 21,56 27,57 20,6 l -7,-45 20,24 c 18,22 19,22 24,4 8,-28 -10,-148 -27,-180 -9,-17 -11,-29 -4,-33 5,-4 7,-14 4,-22 -13,-34 14,-25 50,17 21,25 42,45 46,45 5,0 9,-29 9,-64 0,-70 12,-90 31,-54 l 13,23 7,-25 c 14,-49 9,-87 -16,-124 -30,-44 -30,-47 -7,-39 15,6 16,5 2,-13 -10,-14 -7,-13 12,4 l 25,23 7,-23 c 3,-13 6,-32 6,-43 0,-11 5,-37 11,-59 17,-61 29,-30 31,80 l 2,99 13,-45 c 7,-25 20,-81 27,-124 l 14,-80 -35,-95 c -33,-88 -55.1176,-117.941 -88.1176,-153.941 -7,-7 -13,-20 -13,-27 0,-30 -49,-101 -88,-129 l -41,-29 -126,16 c -73,9 -135,23 -147,32 -32,22 -36,20 -49,-26 -11,-37 -15,-40 -39,-36 -14,3 -75,9 -135,12 -98,6 -164.9412,-21.353 -215.9412,-41.353 -82,-31 -190.8892,-164.503 -234.8892,-253.503 -32,-65 -72.4174,-77.792 -94.4174,-255.792 -47.8824,-104.2357 -74.9713,-234.0292 -82.9713,-332.0292 -19,-215 -6.4683,-268.5317 -57.4683,-526.5317 -21,-110 -53.4406,-263.0854 -73.4406,-387.0854 -21,-131 -62.3263,-257.7647 -77.3263,-298.7647 -34.3553,-199 -81.6046,-326.8812 -102.4581,-421.8812 -13,-58 11.2065,-119.1188 4.2065,-133.1188 -24,-47 -25.1765,-185 -36.1765,-375 -6,-104 -28.0589,-225 -31.0589,-268 -10,-165 -20.2941,-320.8824 -9.2941,-324.8824 8,-3 21.5294,-14.1176 24.5294,-89.1176 3,-65 13,-156 23,-203 18,-89 22,-249 9,-405 -4,-45 -2,-117 4,-165 30,-231 40,-293 49,-302 14,-14 62,35 62,63 0,12 11,53 25,91 14,38 25,84 25,101 0,28 81.2869,207.5426 69.3529,203.1176 -89.0258,-33.0099 58.852,-47.0479 132.4707,-44.1176 l 73,-17 c -50.9076,34.9018 -99.1965,4.4678 -101.8338,-43.3795 -6,-38.3181 -49.9446,-163.2508 -55.9446,-249.569 -12,-137.6363 13.9446,-158.9544 -16.0554,-165.5451 -44,-9.3331 -12.0831,-60.5056 -12.0831,-190.5056 0,-84 -41.9169,-98.3577 -15.9169,-103.9791 30,-6.4093 30,-9.4093 0,-34 -28,-23.4847 -28,-31.4847 -4,-74.2121 28,-50.5153 40,-188.879 12,-143.3637 -12,16.3637 -16,4.1516 -16,-40.8484 0,-50 4,-57.7879 16,-34.1516 14,28.7423 16,28.8484 18,5.9544 0,-14 -6,-40.3181 -16,-58.8484 -12,-18.6363 -12,-30.6363 -4,-28.2121 8,3.4242 16,-31.1516 16,-76.1516 0,-58 -6,-72.3181 -14,-47.7423 -18,42.0456 -22,27.8335 -26,-78.3786 -2,-46.1061 4,-80.7879 14,-79.2577 12,1.6363 22,-5.8335 26,-16.6214 6,-15.6818 4,-16.7879 -12,-5.6363 -32,22.3033 -40,5.8791 -16,-30.8483 26,-37.6214 22,-82.8335 -8,-75.4242 -10,3.4697 29.9169,-12.2786 29.9169,-28.2786 0,-16 -39.9169,-17.2517 -31.9169,-9.8275 8,6.4242 14,-8.2577 16,-34.1516 2,-41.894 0,-44 -28,-27.4847 -28,17.5154 19.9169,11.1913 33.9169,-7.0664 18,-22.0456 -11.9169,-161.767 -9.9169,-289.661 2,-46.894 8,-83.5758 18,-80.0456 8,2.4242 10,-19.4697 2,-48.8939 -6,-29.3182 -5.7647,-93.1061 8.2353,-142.3637 12,-48.3637 50.7647,-99.1823 50.7647,-114.1823 -1,-16 2,-26 7,-23 5,3 14,-11 20,-30 9,-31 8,-35 -5,-30 -12,5 -14,1 -8,-21 3,-15 10,-30 15,-33 5,-3 7,-23 5,-45 -5,-54 3,-85 21,-78 16,6 19,-13 4,-22 -16,-10 -12,-29 12,-55 15,-16 18,-25 10,-28 -17,-5 -15,-29 3,-36 18,-7 20,-42 3,-49 -7,-3 -4,-6 7,-6 16,-1 17,-3 6,-10 -12,-8 -61.2087,-30.8235 -47.2087,-44.8235 12,-11 -0.6413,-24.662 -6.6413,-35.662 -12,-23 81.8338,-196.3241 92.8338,-210.3241 5,-7 17,-46 27,-87 10,-41 42,-154 71,-250 131,-437 211.2295,-592.5145 257.2295,-888.5145 21,-135 41.6205,-508 16.6205,-645 -21,-112 -45,-164 -135,-297 -39,-58 -92,-151 -117,-207 -56,-125 -61,-182 -21,-263 48,-97 164,-273 188,-285 29,-16 98,-16 208,-3 88,12 173,46 190,78 5,10 13,74 16,142 4,69 14,159 22,200 8,41 23,140 33,220 17,135 59,302 79,315 19,11 39,-182 47,-450 7,-229 9,-235 66,-235 15,0 28,1 29,3 0,1 2,43 5,92 29,584 47,731 109,885 l 26,65 -6,-160 c -3,-88 -10,-180 -15,-205 -20,-98 -23,-262 -6,-334 9,-38 21,-139 27,-224 11,-164 18,-195 46,-210 32,-17 147,-32 241,-32 80,0 94,3 116,23 29,26 94,198 132,350 31,123 30,159 -20,397 -41,193 13.2133,321.7313 23.2133,447.7313 33,419 44,528 57,585 9,36 19,103 23,150 9,94 22,161 51,263 11,37 24,102 29,145 5,42 29,154 54,247 59,216 71.8789,355 79.8789,477 11.3307,103.8268 -44.2589,154.8518 -71.0922,160.2687 -12,15 -19,32 -16,37 -22.7917,-134.5626 102.886,240.7248 97.8038,340.4706 -13.6162,151.2324 33.2655,177.4414 37.827,283.3184 5,98 27.6804,188.9303 62.6804,364.1499 12,61.3896 28.6482,114.7326 29.6482,137.6817 0,9 5,64.6626 11,64.3574 6,-0.3052 9,2.5422 5,5.7456 -3,3.1527 0,22 7,41.644 7,20.6439 13,63.3387 14,95.2878 1,32.9492 5,61.7457 10,64.4914 5,2.7456 12,34.3896 16,70.1861 4,34.7965 14,78.2879 21,95.9318 8,17.593 21,72.9318 30,122.474 8,49.593 19,97.0335 24,105.7792 5,9.7456 11,40.4404 15,69.2369 3,29.8474 11,61.4405 16,72.1862 6,9.6948 14,37.2878 19,60.0335 5,23.7457 24,97.7792 42,165.8636 18,68.0844 32,136.3722 31,151.4231 -1,15.0509 14,84.2878 34,153.2705 19,69.0335 15.5526,222.444 26.5526,283.444 2.8203,190.8987 -142.2171,52.5496 -111.512,66.0243 45,26 176.1488,84 187.1488,105 7,12 22.9101,34.7647 11.9101,66.7647 0.6646,49.3323 -9.8835,40.5288 7,73.4706 11,20 22.7647,45.7647 19.7647,52.7647 -2,7 8,28 24,46 l 12.9411,52.8235 -27.2353,197.2941 c -52,102 -108.1812,262.6389 -128.1812,309.6389 -38,94 -171.9723,277.1881 -228.9723,363.1881 -20,30 -83.8985,79.7647 -97.8985,104.7647 -30,50 -228.0981,113.0756 -218.4774,93.2907 60.6021,-124.6284 194.7947,-22.0293 112.2766,134.5871 -8.1475,83.2601 -28.6749,151.8873 -56.6515,289.706 30.3055,44.5505 39.414,-0.3773 99.3717,143.6079 52.6937,217.7012 -54.0907,277.6092 -59.3348,279.7195 -7,4 -7,-4 0,0 5,3 20.338,-34.6205 37.338,-66.6205 17.8126,-219.6355 228.6292,-381.85 432,-431 75,-35 106,-37 158,-10 136,69 183,257 113,455 -56,159 -113,491 -133,764 -28,408 -38.3529,505.7059 -109.3529,603.705 -47,64 -98,99 -215,149 l -99,42 v 36 c 0,50 -11,62 -52,59 -19,-1 -73,10 -119,25 -46,14 -96,28 -110,31 -14,3 -38,17 -52,30 -3.3382,8.559 0.4285,17.989 -0.2942,70.471 3,29 19.661,96.183 28.661,125.183 15,50 -24,6 0,0 0.9388,-17 125.9861,-2.359 157.9861,14.641 52,26 117,91 190,190 82,109 113,162 136,235 22,69 57,150 67,156 4,3 -1,-16 -12,-42 -40,-92 -13,-52 42,64 81,167 83,177 83,337 0,136 -1,142 -31,206 -42,88 -146,199 -215,228 -45,20 -54,29 -76,79 -15,31 -39,76 -55,99 -15,23 -28,45 -28,50 0,23 -103,98 -124,90 -8,-3 -22,4 -33,15 -22,25 -79,54 -152,79 -57,20 -70,21 -166,9 z m -92,-57 c -7,-2 -19,-2 -25,0 -7,3 -2,5 12,5 14,0 19,-2 13,-5 z M 3984.3519,8092.338 c -17.8592,-140.0216 -93.304,-427.4812 -115.7948,-460.7591 -8.2844,-18 -103.882,-187.6377 -132.2663,-301.6377 -119.6799,-258.03 -66.4146,-288.7492 -108.7969,-406.353 l 78.8002,-92.5294 L 3722,6869 c -81,117 -120.6471,122 -95.6471,150 8,9 -26.6471,80.8824 -12.6471,138.8824 15,58 31,109 36,115 5,5 27.8236,29.4118 27.8236,44.4118 0,14 25.8235,28.5882 33.8235,44.5882 8,15 15,38 15,50 0,11 7,34 15,50 8,15 17.8236,32.1764 17.8236,39.1764 0,8 4.1764,33.8236 13.1764,54.8236 9,20 18,47 20,59 1,12 9,37 17,55 13,30 24,66 46,153 5,19 3,37 -5,50 -10,17 48.6471,26.1176 82.6471,145.1176 22,78 76.1353,366.8323 79.9446,365.6121 2.2212,-0.7115 -61.95,-260.9145 -28.5927,-291.2741 z m 990.759,-1921.0693 c -21.2964,-64 -56.1061,-217.1638 -67.1061,-308.1638 -11,-90 -33.2641,-187.9884 -30.2641,-193.9884 11,-17 -5.91,-187.7036 -16.91,-200.7036 -5,-7 -4,-22 1,-37 7,-17 7,-28 0,-32 -5,-4 -7,-27 -3,-56 4,-32 2,-54 -5,-63 -9,-10 -9,-16 -1,-21 6,-4 8,-14 5,-24 -6,-15 4.0588,-78.7647 -4.9412,-259.7647 -11,-225 69.1048,-588.3241 84.1048,-672.3241 19,-109 30.7647,-140 39.7647,-153 5.6751,-8.265 -34.3901,-139.9209 16.5939,-288.3241 -2,-13 25.6471,-32 15.6471,-43 -12,-11 -24,-34 -28,-52 -18,-84 -57.7058,-153 -81.7058,-175 l -25,-24 6,-201 c 4,-111 11,-266 17,-345 7,-98 7,-169 0,-224 -7,-58 -7,-93 1,-122 14,-52 3,-502 -16,-636 -8,-52 -26,-124 -40,-160 -18,-42 24.7058,-85 24.7058,-122 -1,-32 -2,-58 -3,-58 -1,0 -14,24 -29,53 -15,28 -43,78 -62,109 -22,36 -37,75 -41,105 -3,27 -17,66 -34,93 -25,40 -22.6759,45.6759 -16.6759,90.6759 4,36 2,60 -9,80 -12,24 -15,100 -16,454 0,391 0.6482,585.662 -19.3518,637.662 -27,68 -39.0069,107.9792 -52.0069,112.9792 -8,4 -27.4625,13.0652 -18.9931,10.0208 7.9529,-2.8588 -6.3416,83.2003 -25.3829,120.3241 -8,15 -16.7647,37.7647 -13.7647,44.7647 3,7 -0.353,34 -13.353,60 -13,26 4.4649,65.5335 -0.5351,103.6227 -6,37.3069 21.4024,54.6305 16.4024,59.7196 -5,4.0891 9.2964,13.9657 5.2964,34.837 -4,27.8712 -2,38.4356 9,40.0396 11,1.6039 14,13.9505 11,38.6039 -2,23.4357 0,33 7,27.4753 6,-4.307 7,-2.9084 4,7.4369 -3,10.3452 -11,16.0878 -16,14.1769 -7,-2.4752 -7,3.5248 -2,17.4357 4,12.1287 7,30.4752 6,40.693 0,9 3,17.7302 9,15.0396 5,-2.2421 10,-16.4842 10,-31.4842 1,-21.4484 3,-19.3452 8,8.4128 4,20.2063 29.6344,38.0811 33.6344,50.2874 6,21.3095 6,21.3095 -9,2.0354 -9,-11.9642 -35.6344,-12.3907 -36.6344,-11.9423 -1,0.4484 -1,18.4484 1,38.5516 2,21.1032 31.6344,35.1844 43.6344,42.8033 16,9.8254 7.3587,26.1349 7.3587,59.1349 0,29 24.9412,53.4126 39.9412,69.6864 22,25.1347 8.3656,45.8789 -2.6344,50.8114 -3,1.3453 -10,-8.5158 -15,-23.2737 -6,-13.3095 3.6344,-31.2599 -1.3656,-29.0178 -11,4.9326 -12.6344,50.2957 12.3656,74.0852 22,21.1348 26,43.3411 9,61.9642 -7,7.139 -9,4.0358 -5,-10.7579 3,-12.3452 -1,-26.5516 -10,-34.5158 -15,-11.2737 -15,-10.2737 -10,20.4843 4,17.2063 12,34.6189 19,36.4799 8,2.4127 16,13.8254 20,26.0317 l 6,22.3095 -19,-16.4801 c -11,-9.0674 -20,-11.0316 -20,-5.0316 0,5 5,12.7579 12,16.619 7,3.861 13,36.1706 13,73.1706 1,40.5516 6,65.3095 13,65.1705 7,-1.139 12,7.6189 11,20.0674 0,21 -1,21.4484 -9,6.0358 -17,-31.3769 -10,11.4842 10,57.5157 15,36.2738 17,52.377 8,66.4128 -8,13.5872 -8,20.5872 0,25 7,3.861 12,15.6189 11,28.0673 -1,17.4484 -2,16.8969 -9,-0.9642 -8,-20.4126 -8,-20.4126 -9,11.0357 -1,17.4484 4,31.2064 9,30.9643 13,-1.8295 21,108.5833 9,113.9642 -15,6.7263 2,52.1032 24,66.238 14,8.7221 18,22.9285 15,46.2737 -3,22.3452 0,34 9,32.9643 7,-0.139 -11.4706,6.1705 -11.4706,14.1705 0,12 22.4706,12.8968 8.4706,6.1747 -8,-5.4127 -19,-7.48 -24,-5.2379 -17,7.623 1,26.5515 24,27.2379 16.6945,-2.3733 1.914,32.8551 28.9067,194.825 37,73.9406 49.263,177.7499 49.263,191.7499 2,20.5643 7.6481,17.6673 -2.0486,39.8587 l 6.2688,20.4007 15.8201,79.5001 c 24,67.7723 24.5294,182.4767 29.5294,214.3876 5,31.9109 4.3587,101.8545 16.3587,150.2406 24.6349,119.7231 -14.7453,179.3797 11.9666,174.0752 17,7 52,13 77,14 h 47 c -24.1777,15.5465 -45.7975,-2.1592 -62.8891,-78.7309 z m -1362.9447,-785.02 c 6,-7.6818 2,-19.8939 -8,-25.4242 -14,-7.7423 -24,-3.2726 -30,13.4093 -12,27.3637 18,36.9544 38,12.0149 z m 1128.7691,-301.6634 c -2,-12.1031 -6,-21.3095 -10,-19.5158 -4,1.7937 -7,5.1389 -7,8.1389 v 31 c 0,15 4,21.2064 10,14.5159 6,-6.6906 9,-22.0358 7,-34.139 z M 3592.1662,4834.1882 c -6,-10.3181 -10,-2.5302 -10,16.4698 0,19 4,27.2121 10,18.5302 4,-9.7879 4,-25.7879 0,-35 z m 1098.7691,-98.182 c -3,-8.6547 -5,-1.7579 -5,14.2421 0,17 2,23.1032 5,15.7579 2,-7.8968 2,-21.8968 0,-30 z m -106.9412,-534.6423 c -3,-5.6548 -5,0.2421 -5,14.2421 0,14 2,18.1031 5,10.7579 2,-7.8969 2,-19.8969 0,-25 z m -45.3587,-268.6292 c -3,-7.3466 -6,-3.6931 -6,7.3069 -1,11.2178 2,16.5644 5,11.9109 3,-3.6535 4,-12.8713 1,-19.2178 z m -834.4692,-303.4106 c 0,-8 -4,-12 -10,-9 -5,3 -10,13 -10,21 0,8 5,12 10,9 6,-3 10,-13 10,-21 z"
       id="path4"
       sodipodi:nodetypes="ccccccccsccccccccccccccccccccsscccccccccsccccccccscccccccccccccccccccccccssssscccccsccccsccccsccccsccscccccccccscccscccccsccccccsccccccccccscccscccccccccsccccccccccccccccscccscccccccsscccccccccccccscccccccccccccsccsccccccccccsccccsccccccsccccccccccscscsccccccsccccccccccccccccccccccccccscccccccccscsscccsccscccsccccsccscscscccccccccssccccccscsccscccscsccccccsccccccsccsssssscscccscccsccccccscscs" />
    <path
       d="M4608 5113 c5 -21 7 -23 10 -9 2 10 0 22 -6 28 -6 6 -7 0 -4 -19z"
       id="path6" />
    <path
       d="M4550 4649 c0 -11 5 -17 10 -14 6 3 10 13 10 21 0 8 -4 14 -10 14 -5 0 -10 -9 -10 -21z"
       id="path8" />
    <path
       d="M3690 4683 c0 -22 2 -25 10 -13 13 20 13 40 0 40 -5 0 -10 -12 -10 -27z"
       id="path10" />
  </g>
</svg>
