<?xml version="1.0" encoding="UTF-8" standalone="no"?>
<svg
   xmlns:dc="http://purl.org/dc/elements/1.1/"
   xmlns:cc="http://creativecommons.org/ns#"
   xmlns:rdf="http://www.w3.org/1999/02/22-rdf-syntax-ns#"
   xmlns:svg="http://www.w3.org/2000/svg"
   xmlns="http://www.w3.org/2000/svg"
   xmlns:sodipodi="http://sodipodi.sourceforge.net/DTD/sodipodi-0.dtd"
   xmlns:inkscape="http://www.inkscape.org/namespaces/inkscape"
   version="1.0"
   width="916.000000pt"
   height="1280.000000pt"
   viewBox="0 0 916.000000 1280.000000"
   preserveAspectRatio="xMidYMid meet"
   id="svg14"
   sodipodi:docname="40rogue.svg"
   inkscape:version="1.0.2 (e86c870879, 2021-01-15, custom)">
  <defs
     id="defs18" />
  <sodipodi:namedview
     pagecolor="#ffffff"
     bordercolor="#666666"
     borderopacity="1"
     objecttolerance="10"
     gridtolerance="10"
     guidetolerance="10"
     inkscape:pageopacity="0"
     inkscape:pageshadow="2"
     inkscape:window-width="1920"
     inkscape:window-height="1017"
     id="namedview16"
     showgrid="false"
     inkscape:zoom="0.35217232"
     inkscape:cx="392.00074"
     inkscape:cy="464.57599"
     inkscape:window-x="-8"
     inkscape:window-y="-8"
     inkscape:window-maximized="1"
     inkscape:current-layer="svg14" />
  <metadata
     id="metadata2">
Created by potrace 1.15, written by Peter Selinger 2001-2017
<rdf:RDF>
  <cc:Work
     rdf:about="">
    <dc:format>image/svg+xml</dc:format>
    <dc:type
       rdf:resource="http://purl.org/dc/dcmitype/StillImage" />
    <dc:title></dc:title>
  </cc:Work>
</rdf:RDF>
</metadata>
  <g
     transform="translate(0.000000,1280.000000) scale(0.100000,-0.100000)"
     fill="#000000"
     stroke="none"
     id="g12">
    <path
       d="m 5405,12430 c -33,-4 -87,-18 -120,-30 -49,-19 -56,-25 -40,-31 18,-7 18,-8 2,-8 -10,-1 -16,-5 -12,-10 5,-8 -52,-34 -125,-56 -14,-4 -44,-22 -68,-38 -35,-25 -55,-32 -107,-35 -74,-5 -78,-22 -5,-22 27,0 51,-3 53,-7 3,-5 -13,-31 -34,-60 -28,-38 -54,-59 -98,-80 -33,-15 -60,-33 -60,-40 -1,-6 -13,-14 -28,-16 -16,-2 -2,-5 29,-6 31,0 69,4 84,9 15,6 28,9 30,7 2,-1 -26,-38 -61,-82 -65,-80 -108,-167 -119,-241 l -6,-39 15,39 c 21,56 27,57 20,6 l -7,-45 20,24 c 18,22 19,22 24,4 8,-28 -10,-148 -27,-180 -9,-17 -11,-29 -4,-33 5,-4 7,-14 4,-22 -13,-34 14,-25 50,17 21,25 42,45 46,45 5,0 9,-29 9,-64 0,-70 12,-90 31,-54 l 13,23 7,-25 c 14,-49 9,-87 -16,-124 -30,-44 -30,-47 -7,-39 15,6 16,5 2,-13 -10,-14 -7,-13 12,4 l 25,23 7,-23 c 3,-13 6,-32 6,-43 0,-11 5,-37 11,-59 17,-61 29,-30 31,80 l 2,99 13,-45 c 7,-25 20,-81 27,-124 l 14,-80 -35,-95 c -33,-88 -55.1176,-117.941 -88.1176,-153.941 -7,-7 -13,-20 -13,-27 0,-30 -49,-101 -88,-129 l -41,-29 -126,16 c -73,9 -135,23 -147,32 -32,22 -36,20 -49,-26 -11,-37 -15,-40 -39,-36 -14,3 -75,9 -135,12 -98,6 -212.8581,-74.594 -263.8581,-94.594 -82,-31 -180.241,-143.206 -224.241,-232.206 -32,-65 -99.0379,-72.468 -121.0379,-250.468 -47.8824,-104.2362 -80.2954,-202.0851 -88.2954,-300.0851 -19,-215 -32.8212,-268.5317 -83.8212,-526.5317 -21,-110 -46.5571,-268.4095 -66.5571,-392.4095 -21,-131 -26.8846,-103.3658 -73.8292,-261.496 -34.3553,-199 -70.9564,-321.5571 -91.8099,-416.5571 -13,-58 -6.0576,-151.0634 -13.0576,-165.0634 -20.9246,-50.0754 11.2328,-199.1995 -6.4372,-382.5294 -6,-104 -24.2942,-217.4706 -27.2942,-260.4706 -10,-165 6.0588,-320.8824 17.0588,-324.8824 8,-3 21.5294,-14.1176 24.5294,-89.1176 3,-65 13,-156 23,-203 18,-89 22,-249 9,-405 -4,-45 -2,-117 4,-165 30,-231 40,-293 49,-302 14,-14 62,35 62,63 0,12 42.9446,42.3518 56.9446,80.3518 14,38 25,84 25,101 0,28 81.2869,207.5426 69.3529,203.1176 -89.0258,-33.0099 58.852,-47.0479 132.4707,-44.1176 l 73,-17 c -50.9076,34.9018 -184.3821,31.0883 -187.0194,-16.759 -6,-38.3181 -44.2468,-168.0217 -47.2929,-250.9 -6.0923,-132.1514 0.322,-84.8869 -2.7452,-128.2764 -10.5127,-38.3548 -12.7486,-123.0638 -8.7486,-713.3517 4,-590.2879 -25.9169,-730.0093 -23.9169,-857.9033 2,-46.894 8,-83.5758 18,-80.0456 8,2.4242 10,-19.4697 2,-48.8939 -6,-29.3182 -5.7647,-93.1061 8.2353,-142.3637 12,-48.3637 50.7647,-99.1823 50.7647,-114.1823 -1,-16 2,-26 7,-23 5,3 14,-11 20,-30 9,-31 8,-35 -5,-30 -12,5 -14,1 -8,-21 3,-15 10,-30 15,-33 5,-3 7,-23 5,-45 -5,-54 3,-85 21,-78 16,6 19,-13 4,-22 -16,-10 -12,-29 12,-55 15,-16 18,-25 10,-28 -17,-5 -15,-29 3,-36 18,-7 20,-42 3,-49 -7,-3 -4,-6 7,-6 16,-1 17,-3 6,-10 -12,-8 -61.2087,-30.8235 -47.2087,-44.8235 12,-11 -0.6413,-24.662 -6.6413,-35.662 -12,-23 108.4543,-196.3241 119.4543,-210.3241 5,-7 27.6482,-46 37.6482,-87 10,-41 31.3518,-154 60.3518,-250 131,-437 232.5259,-587.1904 278.5259,-883.1904 21,-135 57.5928,-513.3241 32.5928,-650.3241 -21,-112 -45,-164 -135,-297 -39,-58 -92,-151 -117,-207 -56,-125 -61,-182 -21,-263 48,-97 164,-273 188,-285 29,-16 98,-16 208,-3 88,12 173,46 190,78 5,10 13,74 16,142 4,69 14,159 22,200 8,41 23,140 33,220 17,135 59,302 79,315 19,11 39,-182 47,-450 7,-229 9,-235 66,-235 15,0 28,1 29,3 0,1 2,43 5,92 29,584 47,731 109,885 l 26,65 -6,-160 c -3,-88 -10,-180 -15,-205 -20,-98 -23,-262 -6,-334 9,-38 21,-139 27,-224 11,-164 18,-195 46,-210 32,-17 147,-32 241,-32 80,0 94,3 116,23 29,26 94,198 132,350 31,123 30,159 -20,397 -41,193 13.2133,321.7313 23.2133,447.7313 33,419 65.2964,522.6759 78.2964,579.6759 9,36 19,103 23,150 9,94 22,161 51,263 11,37 24,102 29,145 5,42 29,154 54,247 59,216 71.8789,355 79.8789,477 11.3307,103.8268 -44.2589,154.8518 -71.0922,160.2687 -12,15 -19,32 -16,37 -10.0535,-191.8847 97.1859,175.8657 76.5074,345.7947 31.5814,106.0348 76.1174,161.21 75.0957,272.6702 5,94.5719 111.1195,86.0156 299.8769,928.4589 188.7573,705.1049 177.9833,773.2242 195.2464,891.5066 17.263,118.2824 19.1397,303.6375 30.1397,364.6375 2.8203,190.8987 -174.1617,20.605 -143.4566,34.0797 45,26 181.8972,54.5283 192.8972,75.5283 7,12 22.9101,34.7647 11.9101,66.7647 0.6646,49.3323 -9.8835,40.5288 7,73.4706 11,20 22.7647,45.7647 19.7647,52.7647 -2,7 8,28 24,46 l 12.9411,52.8235 -5.1822,265.9723 c -52,102 -114.4188,219.6677 -134.4188,266.6677 -33.5552,95.7779 -170.7799,339.8786 -312.4417,392.0139 -20,30 -101.8086,35.8801 -115.8086,60.8801 -30,50 -38.5716,-24.3823 -25.7207,-42.2387 44.5867,-61.9533 307.3686,-42.2171 -43.8248,268.8801 -16.7644,-72.2148 29.6683,163.989 -23.6043,300.9447 10.147,50.9162 -60.8624,-123.6581 96.1421,129.9517 52.6937,217.7012 -157.4539,281.2631 -162.698,283.3734 -7,4 -7,-4 0,0 5,3 20.338,-34.6205 37.338,-66.6205 17.4252,-219.6355 138.1637,-404.4382 477.1765,-453.5882 75,-35 136.1176,0.647 188.1176,27.647 136,69 183,249.4706 113,447.4706 -56,159 -75.7313,481.2653 -95.7313,754.2653 -28,408 -68.0922,455.2053 -139.0922,553.2044 -47,63.9999 -180.8235,151.7059 -297.8235,201.7059 l -99,42 v 36 c 0,50 -11,62 -52,59 -19,-1 -73,10 -119,25 -46,14 -96,28 -110,31 -14,3 -38,17 -52,30 -3.3382,8.559 0.4285,17.989 -0.2942,70.471 3,29 19.661,96.183 28.661,125.183 15,50 -24,6 0,0 -51.9394,-46.377 122.236,-4.442 157.9861,14.641 52,26 117,91 190,190 82,109 113,162 136,235 22,69 57,150 67,156 4,3 -1,-16 -12,-42 -40,-92 -13,-52 42,64 81,167 83,177 83,337 0,136 -1,142 -31,206 -42,88 -146,199 -215,228 -45,20 -54,29 -76,79 -15,31 -39,76 -55,99 -15,23 -28,45 -28,50 0,23 -103,98 -124,90 -8,-3 -22,4 -33,15 -22,25 -79,54 -152,79 -57,20 -70,21 -166,9 z m -92,-57 c -7,-2 -19,-2 -25,0 -7,3 -2,5 12,5 14,0 19,-2 13,-5 z M 3960.3935,8092.338 c -17.8592,-140.0216 -93.304,-427.4812 -115.7948,-460.7591 -8.2844,-18 -109.2061,-192.9618 -137.5904,-306.9618 -119.6799,-258.03 -79.7249,-283.4251 -122.1072,-401.0289 l 121.393,-92.5294 L 3722,6869 c -81,117 -120.6471,122 -95.6471,150 8,9 -26.6471,80.8824 -12.6471,138.8824 15,58 31,109 36,115 5,5 27.8236,29.4118 27.8236,44.4118 0,14 14.5294,28.5882 22.5294,44.5882 8,15 16.8823,41.7647 16.8823,53.7647 0,0 16.4118,30.2353 24.4118,46.2353 8,15 17.8236,32.1764 17.8236,39.1764 0,8 4.1764,33.8236 13.1764,54.8236 9,20 18,47 20,59 1,12 9,37 17,55 13,30 24,66 46,153 5,19 3,37 -5,50 -10,17 11.3784,31.4417 45.3784,150.4417 26.9064,78 117.9782,452.0179 106.5651,450.7977 -2.3192,-0.2479 -75.2602,-351.4242 -41.9029,-381.7838 z M 4975.1109,6171.2687 c -21.2964,-64 -56.1061,-217.1638 -67.1061,-308.1638 -11,-90 -33.2641,-187.9884 -30.2641,-193.9884 11,-17 -5.91,-187.7036 -16.91,-200.7036 -5,-7 -4,-22 1,-37 7,-17 7,-28 0,-32 -5,-4 -7,-27 -3,-56 4,-32 2,-54 -5,-63 -9,-10 -9,-16 -1,-21 6,-4 8,-14 5,-24 -6,-15 4.0588,-78.7647 -4.9412,-259.7647 -11,-225 69.1048,-588.3241 84.1048,-672.3241 19,-109 30.7647,-140 39.7647,-153 5.6751,-8.265 -34.3901,-139.9209 16.5939,-288.3241 -2,-13 25.6471,-32 15.6471,-43 -12,-11 -24,-34 -28,-52 -18,-84 -57.7058,-153 -81.7058,-175 l -25,-24 6,-201 c 4,-111 -15.3529,-266 -9.3529,-345 7,-98 10.7647,-169 3.7647,-224 -7,-58 -10.7647,-96.7647 -2.7647,-125.7647 14,-52 3,-494.4706 -16,-628.4706 -8,-52 0.3529,-127.7647 -13.6471,-163.7647 -18,-42 24.7058,-85 24.7058,-122 -1,-32 -2,-58 -3,-58 -1,0 -14,24 -29,53 -15,28 -43,78 -62,109 -22,36 -37,75 -41,105 -3,27 -17,66 -34,93 -25,40 -22.6759,45.6759 -16.6759,90.6759 4,36 2,60 -9,80 -12,24 3.8235,100 2.8235,454 0,391 8.1776,585.662 -11.8224,637.662 -27,68 -46.5363,111.7439 -59.5363,116.7439 -8,4 -23.6978,31.8887 -15.2284,28.8443 7.9529,-2.8588 -28.9298,60.6121 -47.9711,97.7359 -8,15 -16.7647,37.7647 -13.7647,44.7647 3,7 -0.353,34 -13.353,60 -9.6282,19.2563 1.2193,45.9362 52.8697,327.0446 12.521,68.1457 27.661,151.2431 45.817,252.8113 8.0728,45.1611 15.1826,60.0915 24.4828,112.8654 22.9674,66.6497 85.1956,351.3622 102.5515,449.8357 43.8135,248.5879 26.186,258.4137 24.0367,275.1392 -3,22.3452 0,34 9,32.9643 7,-0.139 -11.4706,6.1705 -11.4706,14.1705 0,12 22.4706,12.8968 8.4706,6.1747 -8,-5.4127 -5.6948,-5.2851 -10.8235,-3.3555 -14.0031,5.2682 16.1162,2.4392 10.8235,25.3555 9.624,-1.3681 17.2586,4.1126 19.9955,44.8134 2.0107,29.9021 10.6556,68.2369 22.0877,136.8351 37,73.9406 37.6459,195.9079 37.6459,209.9079 2,20.5643 7.6481,17.6673 -2.0486,39.8587 l 6.2688,20.4007 12.4925,78.1691 c 24,67.7723 33.827,186.3556 38.827,218.2665 5,31.9109 4.3587,101.8545 16.3587,150.2406 24.6349,119.7231 -33.5688,179.3797 -6.8569,174.0752 17,7 52,13 77,14 h 47 c -24.1777,15.5465 -45.7975,-2.1592 -62.8891,-78.7309 z m -1426.8339,-785.02 c 6,-7.6818 2,-19.8939 -8,-25.4242 -14,-7.7423 -24,-3.2726 -30,13.4093 -12,27.3637 18,36.9544 38,12.0149 z m 1203.9524,-309.1928 c -2,-12.1031 -6,-21.3095 -10,-19.5158 -4,1.7937 -7,5.1389 -7,8.1389 v 31 c 0,15 4,21.2064 10,14.5159 6,-6.6906 9,-22.0358 7,-34.139 z M 3528.277,4834.1882 c -6,-10.3181 -10,-2.5302 -10,16.4698 0,19 4,27.2121 10,18.5302 4,-9.7879 4,-25.7879 0,-35 z m 1193.0435,-103.5061 c -3,-8.6547 -5,-1.7579 -5,14.2421 0,17 2,23.1032 5,15.7579 2,-7.8968 2,-21.8968 0,-30 z m -133.5617,-529.3182 c -3,-5.6548 -5,0.2421 -5,14.2421 0,14 2,18.1031 5,10.7579 2,-7.8969 2,-19.8969 0,-25 z m -45.3587,-268.6292 c -3,-7.3466 -6,-3.6931 -6,7.3069 -1,11.2178 2,16.5644 5,11.9109 3,-3.6535 4,-12.8713 1,-19.2178 z M 3640.277,3629.3241 c 0,-8 -4,-12 -10,-9 -5,3 -10,13 -10,21 0,8 5,12 10,9 6,-3 10,-13 10,-21 z"
       id="path4"
       sodipodi:nodetypes="ccccccccsccccccccccccccccccccsscccccccccsccccccccscccccccccccccccccccccccssssscccccccccccscccscccccsccccccsccccccccccscccscccccccccsccccccccccccccccccccccccccccscccccccccccccsccsccccccccccsccccsccccccsccccccccccscscsccccccsccccccccccccccccccccccccccscccccccccscsssscsccscscscccccsccccccsccsssssscscccscccsccccccscscs" />
    <path
       d="M4608 5113 c5 -21 7 -23 10 -9 2 10 0 22 -6 28 -6 6 -7 0 -4 -19z"
       id="path6" />
    <path
       d="M4550 4649 c0 -11 5 -17 10 -14 6 3 10 13 10 21 0 8 -4 14 -10 14 -5 0 -10 -9 -10 -21z"
       id="path8" />
    <path
       d="M3690 4683 c0 -22 2 -25 10 -13 13 20 13 40 0 40 -5 0 -10 -12 -10 -27z"
       id="path10" />
  </g>
</svg>
