<?xml version="1.0" encoding="UTF-8" standalone="no"?>
<svg
   xmlns:dc="http://purl.org/dc/elements/1.1/"
   xmlns:cc="http://creativecommons.org/ns#"
   xmlns:rdf="http://www.w3.org/1999/02/22-rdf-syntax-ns#"
   xmlns:svg="http://www.w3.org/2000/svg"
   xmlns="http://www.w3.org/2000/svg"
   xmlns:sodipodi="http://sodipodi.sourceforge.net/DTD/sodipodi-0.dtd"
   xmlns:inkscape="http://www.inkscape.org/namespaces/inkscape"
   version="1.0"
   width="916.000000pt"
   height="1280.000000pt"
   viewBox="0 0 916.000000 1280.000000"
   preserveAspectRatio="xMidYMid meet"
   id="svg14"
   sodipodi:docname="45rogue.svg"
   inkscape:version="1.0.2 (e86c870879, 2021-01-15, custom)">
  <defs
     id="defs18" />
  <sodipodi:namedview
     pagecolor="#ffffff"
     bordercolor="#666666"
     borderopacity="1"
     objecttolerance="10"
     gridtolerance="10"
     guidetolerance="10"
     inkscape:pageopacity="0"
     inkscape:pageshadow="2"
     inkscape:window-width="1920"
     inkscape:window-height="1017"
     id="namedview16"
     showgrid="false"
     inkscape:zoom="0.35217232"
     inkscape:cx="1261.6192"
     inkscape:cy="572.52409"
     inkscape:window-x="-8"
     inkscape:window-y="-8"
     inkscape:window-maximized="1"
     inkscape:current-layer="svg14"
     inkscape:document-rotation="0" />
  <metadata
     id="metadata2">
Created by potrace 1.15, written by Peter Selinger 2001-2017
<rdf:RDF>
  <cc:Work
     rdf:about="">
    <dc:format>image/svg+xml</dc:format>
    <dc:type
       rdf:resource="http://purl.org/dc/dcmitype/StillImage" />
    <dc:title></dc:title>
  </cc:Work>
</rdf:RDF>
</metadata>
  <g
     transform="translate(0.000000,1280.000000) scale(0.100000,-0.100000)"
     fill="#000000"
     stroke="none"
     id="g12">
    <path
       d="m 5405,12430 c -33,-4 -87,-18 -120,-30 -49,-19 -56,-25 -40,-31 18,-7 18,-8 2,-8 -10,-1 -16,-5 -12,-10 5,-8 -52,-34 -125,-56 -14,-4 -44,-22 -68,-38 -35,-25 -55,-32 -107,-35 -74,-5 -78,-22 -5,-22 27,0 51,-3 53,-7 3,-5 -13,-31 -34,-60 -28,-38 -54,-59 -98,-80 -33,-15 -60,-33 -60,-40 -1,-6 -13,-14 -28,-16 -16,-2 -2,-5 29,-6 31,0 69,4 84,9 15,6 28,9 30,7 2,-1 -26,-38 -61,-82 -65,-80 -108,-167 -119,-241 l -6,-39 15,39 c 21,56 27,57 20,6 l -7,-45 20,24 c 18,22 19,22 24,4 8,-28 -10,-148 -27,-180 -9,-17 -11,-29 -4,-33 5,-4 7,-14 4,-22 -13,-34 14,-25 50,17 21,25 42,45 46,45 5,0 9,-29 9,-64 0,-70 12,-90 31,-54 l 13,23 7,-25 c 14,-49 9,-87 -16,-124 -30,-44 -30,-47 -7,-39 15,6 16,5 2,-13 -10,-14 -7,-13 12,4 l 25,23 7,-23 c 3,-13 6,-32 6,-43 0,-11 5,-37 11,-59 17,-61 29,-30 31,80 l 2,99 13,-45 c 7,-25 20,-81 27,-124 l 14,-80 -35,-95 c -33,-88 -55.1176,-117.941 -88.1176,-153.941 -7,-7 -15.3778,-29.79 -20.5294,-34.529 -32.6099,-30 -50.1869,-59.589 -86.1177,-87.589 l -31.5882,-36.529 -126,16 c -73,9 -135,23 -147,32 -32,22 -36,20 -49,-26 -11,-37 -15,-40 -39,-36 -14,3 -75,9 -135,12 -98,6 -280.6228,-100.947 -331.6228,-120.947 -82,-31 -157.6528,-139.441 -201.6528,-228.441 -32,-65 -95.2732,-76.233 -117.2732,-254.233 -47.8824,-104.2362 -80.2954,-202.0851 -88.2954,-300.0851 -19,-215 -25.2917,-268.5317 -76.2917,-526.5317 -21,-110 -42.7924,-268.4095 -62.7924,-392.4095 -21,-131 -19.3552,-103.3658 -66.2998,-261.496 -34.3553,-199 -94.7257,-321.5571 -115.5792,-416.5571 -13,-58 -22.0299,-156.3875 -29.0299,-170.3875 -20.9246,-50.0754 -31.36,-151.2826 -49.03,-334.6125 -6,-104 -24.2942,-217.4706 -27.2942,-260.4706 -10,-165 6.0588,-320.8824 17.0588,-324.8824 8,-3 21.5294,-14.1176 24.5294,-89.1176 3,-65 13,-156 23,-203 18,-89 22,-249 9,-405 -4,-45 -2,-117 4,-165 30,-231 40,-293 49,-302 14,-14 46.452,13.1131 46.452,41.1131 0,12 27.8858,59.293 41.8858,97.293 14,38 25,84 25,101 0,28 81.2869,256.4837 69.3529,252.0587 C 3345.7388,6329.6959 3625.3813,6229.0697 3699,6232 l 73,-17 c -50.9076,34.9018 -280.2159,110.9498 -282.8532,63.1025 -6,-38.3181 -6.9781,-237.235 -10.0242,-320.1133 -6.0923,-132.1514 5.6461,-95.5351 7.903,-138.9246 -21.1609,-115.5542 8.5478,-123.0638 12.5478,-713.3517 -35.8901,-590.2879 -40.1113,-730.0093 -23.9169,-857.9033 2,-46.894 8,-83.5758 18,-80.0456 8,2.4242 10,-19.4697 2,-48.8939 -6,-29.3182 -5.7647,-93.1061 8.2353,-142.3637 12,-48.3637 77.3852,-99.1823 77.3852,-114.1823 -1,-16 2,-26 7,-23 5,3 14,-11 20,-30 9,-31 8,-35 -5,-30 -12,5 -14,1 -8,-21 3,-15 10,-30 15,-33 5,-3 7,-23 5,-45 -5,-54 3,-85 21,-78 16,6 19,-13 4,-22 -16,-10 -12,-29 12,-55 15,-16 18,-25 10,-28 -17,-5 -15,-29 3,-36 18,-7 20,-42 3,-49 -7,-3 -4,-6 7,-6 16,-1 17,-3 6,-10 -12,-8 -61.2087,-30.8235 -47.2087,-44.8235 12,-11 -0.6413,-24.662 -6.6413,-35.662 -12,-23 84.4959,-196.3241 95.4959,-210.3241 5,-7 27.6482,-46 37.6482,-87 10,-41 31.3518,-154 60.3518,-250 131,-437 232.5259,-587.1904 278.5259,-883.1904 21,-135 81.5512,-513.3241 56.5512,-650.3241 -21,-112 -45,-164 -135,-297 -39,-58 -92,-151 -117,-207 -56,-125 -61,-182 -21,-263 48,-97 164,-273 188,-285 29,-16 98,-16 208,-3 88,12 173,46 190,78 5,10 13,74 16,142 4,69 14,159 22,200 8,41 23,140 33,220 17,135 59,302 79,315 19,11 39,-182 47,-450 7,-229 9,-235 66,-235 15,0 28,1 29,3 0,1 2,43 5,92 29,584 47,731 109,885 l 26,65 -6,-160 c -3,-88 -10,-180 -15,-205 -20,-98 -23,-262 -6,-334 9,-38 21,-139 27,-224 11,-164 18,-195 46,-210 32,-17 147,-32 241,-32 80,0 94,3 116,23 29,26 94,198 132,350 31,123 72.5928,164.3241 22.5928,402.3241 -41,193 13.2133,321.7313 23.2133,447.7313 33,419 65.2964,522.6759 78.2964,579.6759 9,36 19,103 23,150 9,94 22,161 51,263 11,37 24,102 29,145 5,42 29,154 54,247 59,216 71.8789,355 79.8789,477 11.3307,103.8268 -14.1413,158.6165 -40.9746,164.0334 -12,15 -19,32 -16,37 -10.0535,-191.8847 54.5931,170.5416 33.9146,340.4706 31.5814,106.0348 76.1174,153.6806 75.0957,265.1408 5,94.5719 81.0019,89.7803 269.7593,932.2236 179.2875,644.9005 181.3846,702.6911 195.6248,825.3013 25.6115,-17.8306 180.0527,374.3797 161.7935,439.3965 2.8203,190.8987 -306.1939,12.0513 -275.4888,25.526 45,26 277.8418,-8.4474 288.8418,12.5526 7,12 22.9101,34.7647 11.9101,66.7647 0.6646,49.3323 -9.8835,40.5288 7,73.4706 11,20 22.7647,45.7647 19.7647,52.7647 -2,7 8,28 24,46 l 12.9411,52.8235 -40.6239,341.8015 c -52,102 -99.36,219.6677 -119.36,266.6677 -33.5552,95.7779 -201.1651,349.6133 -342.8269,401.7486 -20,30 -146.9851,13.2919 -160.9851,38.2919 -30,50 -38.5716,-24.3823 -25.7207,-42.2387 44.5867,-61.9533 360.0745,-42.2171 8.8811,268.8801 12.6952,-86.9446 26.6843,139.1281 -76.3102,300.9447 10.147,50.9162 -60.8624,-123.6581 96.1421,129.9517 52.6937,217.7012 -157.4539,281.2631 -162.698,283.3734 -7,4 -7,-4 0,0 5,3 20.338,-34.6205 37.338,-66.6205 17.4252,-219.6355 138.1637,-404.4382 477.1765,-453.5882 75,-35 136.1176,0.647 188.1176,27.647 136,69 225.5928,228.1742 155.5928,426.1742 -56,159 -70.4072,454.6448 -90.4072,727.6448 -28,408 -52.1199,449.8812 -123.1199,547.8803 -47,63.9999 -246.5951,238.8289 -363.5951,288.8289 l -99,42 v 36 c 0,50 -11,62 -52,59 -19,-1 -73,10 -119,25 -46,14 -96,28 -110,31 -14,3 -38,17 -52,30 -3.3382,8.559 0.4285,17.989 -0.2942,70.471 3,29 21.5434,62.301 30.5434,91.301 15,50 -24,6 0,0 -81.0379,-65.776 110.3455,-12.369 157.9861,14.641 52,26 117,91 190,190 82,109 113,162 136,235 22,69 57,150 67,156 4,3 -1,-16 -12,-42 -40,-92 -13,-52 42,64 81,167 83,177 83,337 0,136 -1,142 -31,206 -42,88 -146,199 -215,228 -45,20 -54,29 -76,79 -15,31 -39,76 -55,99 -15,23 -28,45 -28,50 0,23 -103,98 -124,90 -8,-3 -22,4 -33,15 -22,25 -79,54 -152,79 -57,20 -70,21 -166,9 z m -92,-57 c -7,-2 -19,-2 -25,0 -7,3 -2,5 12,5 14,0 19,-2 13,-5 z M 3937.8053,8088.5733 c -17.8592,-140.0216 -112.1276,-397.3636 -134.6184,-430.6415 -8.2844,-18 -67.7943,-219.3147 -96.1786,-333.3147 -119.6799,-258.03 -79.7249,-283.4251 -122.1072,-401.0289 l 121.393,-92.5294 L 3722,6869 c -81,117 -120.6471,122 -95.6471,150 8,9 -26.6471,80.8824 -12.6471,138.8824 15,58 25.6759,119.6482 30.6759,125.6482 5,5 30.4857,24.0877 30.4857,39.0877 0,14 11.8673,20.6021 19.8673,36.6021 8,15 8.8962,44.4267 8.8962,56.4267 0,0 5.7636,30.2353 13.7636,46.2353 8,15 7.1754,32.1764 7.1754,39.1764 0,8 -3.8098,33.8236 5.1902,54.8236 9,20 10.0139,47 12.0139,59 1,12 6.3379,47.6482 14.3379,65.6482 13,30 -10.339,86.3829 11.661,173.3829 5,19 29.6205,23.6897 21.6205,36.6897 -10,17 45.985,28.7797 79.985,147.7797 26.9064,78 144.3311,436.9591 132.918,435.7389 -2.3192,-0.2479 -97.8484,-355.1889 -64.4911,-385.5485 z M 4951.1525,6179.2548 c -21.2964,-64 -32.1477,-225.1499 -43.1477,-316.1499 -11,-90 -33.2641,-187.9884 -30.2641,-193.9884 11,-17 -5.91,-187.7036 -16.91,-200.7036 -5,-7 -4,-22 1,-37 7,-17 7,-28 0,-32 -5,-4 -7,-27 -3,-56 4,-32 2,-54 -5,-63 -9,-10 -9,-16 -1,-21 6,-4 8,-14 5,-24 -6,-15 -14.7647,-78.7647 -23.7647,-259.7647 -11,-225 12.6342,-588.3241 27.6342,-672.3241 19,-109 57.1176,-136.2353 66.1176,-149.2353 5.6751,-8.265 -34.3901,-139.9209 16.5939,-288.3241 -2,-13 25.6471,-32 15.6471,-43 -12,-11 -24,-34 -28,-52 -18,-84 -95.3529,-153 -119.3529,-175 v 0 L 4842.6471,3367 c 4,-111 -15.3529,-266 -9.3529,-345 7,-98 10.7647,-169 3.7647,-224 -7,-58 -10.7647,-96.7647 -2.7647,-125.7647 14,-52 25.5882,-490.7059 6.5882,-624.7059 -8,-52 7.8823,-154.1176 -6.1177,-190.1176 -18,-42 32.2353,-62.4118 32.2353,-99.4118 -1,-32 -2,-58 -3,-58 -1,0 -14,24 -29,53 -15,28 -43,78 -62,109 -22,36 -37,75 -41,105 -3,27 -17,66 -34,93 -25,40 -22.6759,45.6759 -16.6759,90.6759 4,36 2,60 -9,80 -12,24 3.8235,100 2.8235,454 0,391 8.1776,585.662 -11.8224,637.662 -27,68 -46.5363,111.7439 -59.5363,116.7439 -8,4 -23.6978,31.8887 -15.2284,28.8443 7.9529,-2.8588 -28.9298,60.6121 -47.9711,97.7359 -8,15 -16.7647,37.7647 -13.7647,44.7647 3,7 -0.353,34 -13.353,60 -9.6282,19.2563 57.6899,49.7009 109.3403,330.8093 12.521,68.1457 27.661,151.2431 45.817,252.8113 8.0728,45.1611 15.1826,60.0915 24.4828,112.8654 22.9674,66.6497 85.1956,351.3622 102.5515,449.8357 43.8135,248.5879 43.4893,258.4137 41.34,275.1392 -3,22.3452 0,34 9,32.9643 7,-0.139 -11.4706,6.1705 -11.4706,14.1705 0,12 22.4706,12.8968 8.4706,6.1747 -8,-5.4127 -5.6948,-5.2851 -10.8235,-3.3555 -14.0031,5.2682 16.1162,2.4392 10.8235,25.3555 9.624,-1.3681 -0.045,4.1126 2.6922,44.8134 2.0107,29.9021 -0.5602,49.8309 9.5409,118.4291 21.2356,94.3182 8.3634,203.8941 8.3634,217.8941 2,20.5643 14.3032,11.0122 4.6065,33.2036 l 4.9378,31.0489 5.8373,82.1621 c 24,67.7723 32.7668,192.4903 41.4891,223.5906 10.1995,36.3676 19.7791,113.3607 13.6966,146.2475 24.6349,119.7231 -46.879,176.7177 -20.1671,171.4132 17,7 52,13 77,14 h 47 c -24.1777,15.5465 -69.7559,5.8269 -86.8475,-70.7448 z M 3497.6981,5371.6074 c 6,-7.6818 11.3171,-15.9008 1.3171,-21.4311 -14,-7.7423 15.9308,-13.9208 9.9308,2.7611 -12,27.3637 -9.9515,56.9198 -11.2479,18.67 z m 1328.3052,-290.7868 c -2,-12.1031 -6,-21.3095 -10,-19.5158 -4,1.7937 -7,5.1389 -7,8.1389 v 31 c 0,15 4,21.2064 10,14.5159 6,-6.6906 9,-22.0358 7,-34.139 z M 3501.6565,4834.1882 c -6,-10.3181 1.9792,16.1041 1.9792,35.1041 0,19 -7.9792,8.5778 -1.9792,-0.1041 4,-9.7879 4,-25.7879 0,-35 z m 1276.1346,-99.7414 c -3,-8.6547 -5,-1.7579 -5,14.2421 0,17 2,23.1032 5,15.7579 2,-7.8968 2,-21.8968 0,-30 z m -133.5617,-529.3182 c -3,-5.6548 -5,0.2421 -5,14.2421 0,14 2,18.1031 5,10.7579 2,-7.8969 2,-19.8969 0,-25 z m -45.3587,-268.6292 c -3,-7.3466 -6,-3.6931 -6,7.3069 -1,11.2178 2,16.5644 5,11.9109 3,-3.6535 4,-12.8713 1,-19.2178 z M 3640.277,3629.3241 c 0,-8 -4,-12 -10,-9 -5,3 -10,13 -10,21 0,8 5,12 10,9 6,-3 10,-13 10,-21 z"
       id="path4"
       sodipodi:nodetypes="ccccccccsccccccccccccccccccccsscccccccccsccccccccscccccccccccccccccccccccssssscccccccccccscccscccccsccccccsccccccccccscccscccccccccsccccccccccccccccccccccccccccscccccccccccccsccsccccccccccsccccsccccccsccccccccccscscsccccccsccccccccccccccccccccccccccscccccccccscsssscsccscscscccccsccccccsccsssssscscccscccsccccccscscs" />
    <path
       d="M4608 5113 c5 -21 7 -23 10 -9 2 10 0 22 -6 28 -6 6 -7 0 -4 -19z"
       id="path6" />
    <path
       d="M4550 4649 c0 -11 5 -17 10 -14 6 3 10 13 10 21 0 8 -4 14 -10 14 -5 0 -10 -9 -10 -21z"
       id="path8" />
    <path
       d="M3690 4683 c0 -22 2 -25 10 -13 13 20 13 40 0 40 -5 0 -10 -12 -10 -27z"
       id="path10" />
  </g>
</svg>
