<?xml version="1.0" encoding="UTF-8" standalone="no"?>
<svg
   xmlns:dc="http://purl.org/dc/elements/1.1/"
   xmlns:cc="http://creativecommons.org/ns#"
   xmlns:rdf="http://www.w3.org/1999/02/22-rdf-syntax-ns#"
   xmlns:svg="http://www.w3.org/2000/svg"
   xmlns="http://www.w3.org/2000/svg"
   xmlns:sodipodi="http://sodipodi.sourceforge.net/DTD/sodipodi-0.dtd"
   xmlns:inkscape="http://www.inkscape.org/namespaces/inkscape"
   version="1.0"
   width="916.000000pt"
   height="1280.000000pt"
   viewBox="0 0 916.000000 1280.000000"
   preserveAspectRatio="xMidYMid meet"
   id="svg14"
   sodipodi:docname="50rogue.svg"
   inkscape:version="1.0.2 (e86c870879, 2021-01-15, custom)">
  <defs
     id="defs18" />
  <sodipodi:namedview
     pagecolor="#ffffff"
     bordercolor="#666666"
     borderopacity="1"
     objecttolerance="10"
     gridtolerance="10"
     guidetolerance="10"
     inkscape:pageopacity="0"
     inkscape:pageshadow="2"
     inkscape:window-width="1920"
     inkscape:window-height="1017"
     id="namedview16"
     showgrid="false"
     inkscape:zoom="0.35217232"
     inkscape:cx="1261.6192"
     inkscape:cy="572.52409"
     inkscape:window-x="-8"
     inkscape:window-y="-8"
     inkscape:window-maximized="1"
     inkscape:current-layer="svg14"
     inkscape:document-rotation="0" />
  <metadata
     id="metadata2">
Created by potrace 1.15, written by Peter Selinger 2001-2017
<rdf:RDF>
  <cc:Work
     rdf:about="">
    <dc:format>image/svg+xml</dc:format>
    <dc:type
       rdf:resource="http://purl.org/dc/dcmitype/StillImage" />
    <dc:title></dc:title>
  </cc:Work>
</rdf:RDF>
</metadata>
  <g
     transform="translate(0.000000,1280.000000) scale(0.100000,-0.100000)"
     fill="#000000"
     stroke="none"
     id="g12">
    <path
       d="m 5405,12430 c -33,-4 -87,-18 -120,-30 -49,-19 -56,-25 -40,-31 18,-7 18,-8 2,-8 -10,-1 -16,-5 -12,-10 5,-8 -52,-34 -125,-56 -14,-4 -44,-22 -68,-38 -35,-25 -55,-32 -107,-35 -74,-5 -78,-22 -5,-22 27,0 51,-3 53,-7 3,-5 -13,-31 -34,-60 -28,-38 -54,-59 -98,-80 -33,-15 -60,-33 -60,-40 -1,-6 -13,-14 -28,-16 -16,-2 -2,-5 29,-6 31,0 69,4 84,9 15,6 28,9 30,7 2,-1 -26,-38 -61,-82 -65,-80 -108,-167 -119,-241 l -6,-39 15,39 c 21,56 27,57 20,6 l -7,-45 20,24 c 18,22 19,22 24,4 8,-28 -10,-148 -27,-180 -9,-17 -11,-29 -4,-33 5,-4 7,-14 4,-22 -13,-34 14,-25 50,17 21,25 42,45 46,45 5,0 9,-29 9,-64 0,-70 12,-90 31,-54 l 13,23 7,-25 c 14,-49 9,-87 -16,-124 -30,-44 -30,-47 -7,-39 15,6 16,5 2,-13 -10,-14 -7,-13 12,4 l 25,23 7,-23 c 3,-13 6,-32 6,-43 0,-11 5,-37 11,-59 17,-61 29,-30 31,80 l 2,99 13,-45 c 7,-25 20,-81 27,-124 l 14,-80 -35,-95 c -33,-88 -55.1176,-117.941 -88.1176,-153.941 -7,-7 -15.3778,-29.79 -20.5294,-34.529 -32.6099,-30 -50.1869,-59.589 -86.1177,-87.589 l -31.5882,-36.529 -126,16 c -73,9 -135,23 -147,32 -32,22 -36,20 -49,-26 -11,-37 -15,-40 -39,-36 -14,3 -75,9 -135,12 -98,6 -355.1602,-111.595 -406.1602,-131.595 -82,-31 -157.6528,-139.441 -201.6528,-228.441 -32,-65 -95.2732,-76.233 -117.2732,-254.233 -47.8824,-104.2364 -80.2954,-202.0853 -88.2954,-300.0853 -19,-215 -25.2917,-268.5317 -76.2917,-526.5317 -21,-110 -53.4406,-252.4372 -73.4406,-376.4372 -21,-131 -19.3552,-103.3658 -66.2998,-261.496 -34.3553,-199 -94.7257,-321.5571 -115.5792,-416.5571 -13,-58 -22.0299,-156.3875 -29.0299,-170.3875 -20.9246,-50.0754 -31.36,-151.2826 -49.03,-334.6125 -6,-104 -24.2942,-217.4706 -27.2942,-260.4706 -10,-165 -42.8824,-315.2353 -31.8824,-319.2353 8,-3 -1.0588,-17.8823 1.9412,-92.8823 3,-65 13,-156 23,-203 18,-89 107.1856,-254.3241 94.1856,-410.3241 -4,-45 -2,-117 4,-165 30,-231 40,-293 49,-302 14,-14 61.5108,39.466 61.5108,67.466 0,12 29.7682,59.293 43.7682,97.293 14,38 41.9411,108.4706 41.9411,125.4706 0,28 75.6399,203.7778 63.7059,199.3528 C 3302.4447,6329.6959 3625.3813,6229.0697 3699,6232 l 73,-17 c -50.9076,34.9018 -330.7948,142.8944 -333.4321,95.0471 -6,-38.3181 -9.1051,-272.9443 -12.1512,-355.8226 -6.0923,-132.1514 5.6461,-95.5351 7.903,-138.9246 -21.1609,-115.5542 8.5478,-123.0638 12.5478,-713.3517 -35.8901,-590.2879 -61.4077,-761.9539 -45.2133,-889.8479 2,-46.894 8,-83.5758 18,-80.0456 -4.9652,-0.8171 5.2146,-24.9013 3.8824,-52.6586 -6,-29.3182 19.2965,-110.1026 33.2965,-159.3602 12,-48.3637 30.3263,-76.5941 30.3263,-91.5941 -1,-16 2,-26 7,-23 5,3 14,-11 20,-30 9,-31 8,-35 -5,-30 -12,5 -14,1 -8,-21 3,-15 10,-30 15,-33 5,-3 7,-23 5,-45 -5,-54 3,-85 21,-78 16,6 19,-13 4,-22 -16,-10 -12,-29 12,-55 15,-16 18,-25 10,-28 -17,-5 -15,-29 3,-36 18,-7 20,-42 3,-49 -7,-3 -4,-6 7,-6 16,-1 17,-3 6,-10 -12,-8 10.3207,-12 24.3207,-26 12,-11 -0.6413,-24.662 -6.6413,-35.662 -12,-23 54.3782,-181.2653 65.3782,-195.2653 5,-7 27.6482,-46 37.6482,-87 10,-41 31.3518,-154 60.3518,-250 106.5798,-446.1576 231.7419,-607.2491 331.2318,-883.1904 21,-135 81.5512,-513.3241 56.5512,-650.3241 -21,-112 -45,-164 -135,-297 -39,-58 -92,-151 -117,-207 -56,-125 -61,-182 -21,-263 48,-97 164,-273 188,-285 29,-16 98,-16 208,-3 88,12 173,46 190,78 5,10 13,74 16,142 4,69 14,159 22,200 8,41 23,140 33,220 17,135 59,302 79,315 19,11 39,-182 47,-450 7,-229 9,-235 66,-235 15,0 28,1 29,3 0,1 2,43 5,92 29,584 47,731 109,885 l 26,65 -6,-160 c -3,-88 -10,-180 -15,-205 -20,-98 -23,-262 -6,-334 9,-38 21,-139 27,-224 11,-164 18,-195 46,-210 32,-17 147,-32 241,-32 80,0 94,3 116,23 29,26 94,198 132,350 31,123 72.5928,164.3241 22.5928,402.3241 -41,193 13.2133,321.7313 23.2133,447.7313 33,419 110.4729,522.6759 123.4729,579.6759 9,36 19,103 23,150 9,94 22,161 51,263 11,37 24,102 29,145 5,42 29,154 54,247 59,216 71.8789,355 79.8789,477 11.3307,103.8268 -59.3178,158.6165 -86.1511,164.0334 -12,15 -19,32 -16,37 -10.0535,-250.7418 167.5343,-44.6925 146.8558,287.7647 26.2127,99.5924 -7.5013,53.3381 75.0957,265.1408 3.4581,84.7366 -5.799,-175.6675 217.0534,962.3413 74.6348,226.2898 213.9677,653.2313 228.2153,775.871 17.3239,-47.5953 140.0316,254.5293 153.1488,459.2515 2.8203,190.8987 -390.375,64.2148 -359.6699,77.6895 45,26 348.6699,-98.6895 359.6699,-77.6895 7,12 26.0329,-11.5111 14.3829,26.9123 12.9392,53.5878 8.9741,36.362 26.8554,75.9162 14.4736,16.4853 20.8021,52.6791 17.6248,61.0842 11.9159,9.2691 4.5116,20.0265 19.9326,53.8357 l -12.3242,52.1328 c 14.8366,21.8731 41.592,200.3607 -4.9929,408.7311 -18.7697,62.6341 -112.5254,224.155 -160.1258,271.1567 4.4261,22.5641 -90.8727,262.4188 -342.9052,450.0438 -20,30 -203.4557,5.7625 -217.4557,30.7625 -30,50 -39.0194,-24.7133 -25.7207,-42.2387 48.4941,-63.907 452.2973,-58.2109 69.1164,268.8801 12.6952,-86.9446 7.8608,124.0693 -95.1337,285.8859 10.1601,50.9162 -40.4203,-108.5993 54.7303,145.0105 52.6937,217.7012 -157.4539,281.2631 -162.698,283.3734 -7,4 -7,-4 0,0 5,3 20.338,-34.6205 37.338,-66.6205 17.4252,-219.6355 138.1637,-404.4382 477.1765,-453.5882 75,-35 136.1176,0.647 188.1176,27.647 136,69 246.8892,196.2296 176.8892,394.2296 8.4864,40.1927 -60.1798,463.5379 -117.0277,743.6171 -9.6708,371.3416 1.1211,423.2607 -69.8789,521.2598 -47,63.9999 -294.512,281.4217 -411.512,331.4217 l -99,42 v 36 c 0,50 -11,62 -52,59 -19,-1 -73,10 -119,25 -46,14 -96,28 -110,31 -14,3 -38,17 -52,30 -3.3382,8.559 0.4285,17.989 -0.2942,70.471 3,29 21.5434,62.301 30.5434,91.301 15,50 -24,6 0,0 -81.0379,-65.776 110.3455,-12.369 157.9861,14.641 52,26 117,91 190,190 82,109 113,162 136,235 22,69 57,150 67,156 4,3 -1,-16 -12,-42 -40,-92 -13,-52 42,64 81,167 83,177 83,337 0,136 -1,142 -31,206 -42,88 -146,199 -215,228 -45,20 -54,29 -76,79 -15,31 -39,76 -55,99 -15,23 -28,45 -28,50 0,23 -103,98 -124,90 -8,-3 -22,4 -33,15 -22,25 -79,54 -152,79 -57,20 -70,21 -166,9 z m -92,-57 c -7,-2 -19,-2 -25,0 -7,3 -2,5 12,5 14,0 19,-2 13,-5 z M 3913.8469,8072.601 c -17.8592,-140.0216 -117.4517,-362.757 -139.9425,-396.0349 -8.2844,-18 -62.4702,-139.61 -90.8545,-343.9629 -146.6529,-231.057 -55.7665,-291.4112 -98.1488,-409.015 l 121.393,-92.5294 L 3722,6869 c -81,117 -120.6471,122 -95.6471,150 8,9 -26.6471,80.8824 -12.6471,138.8824 15,58 -18.9884,133.8996 -13.9884,139.8996 5,5 30.4857,24.0877 30.4857,39.0877 0,14 11.8673,20.6021 19.8673,36.6021 8,15 8.8962,44.4267 8.8962,56.4267 0,0 5.7636,30.2353 13.7636,46.2353 8,15 7.1754,32.1764 7.1754,39.1764 0,8 -3.8098,33.8236 5.1902,54.8236 9,20 10.0139,47 12.0139,59 1,12 6.3379,47.6482 14.3379,65.6482 13,30 34.3253,72.1315 56.3253,159.1315 5,19 29.6205,23.6897 21.6205,36.6897 -10,17 35.3368,23.4556 69.3368,142.4556 26.9064,78 107.0624,452.9314 95.6493,451.7112 -2.3192,-0.2479 -73.8899,-381.8094 -40.5326,-412.169 z M 4951.1525,6179.2548 c -21.2964,-64 -32.1477,-225.1499 -43.1477,-316.1499 -11,-90 -33.2641,-187.9884 -30.2641,-193.9884 1.7903,-16.386 -32.4815,-185.9322 -16.91,-200.7036 -5,-7 -4,-22 1,-37 7,-17 7,-28 0,-32 -5,-4 -7,-27 -3,-56 -22.486,-32 -10.5742,-54 -5,-63 -9,-10 -24.0588,-14.1176 -16.0588,-19.1176 6,-4 8,-15.8824 5,-25.8824 -9.0814,-15 -7.6795,-78.7647 -8.7059,-259.7647 -43.9794,-225 -51.1891,-593.6482 -35.9874,-677.6482 19,-109 11.5952,-136.2353 20.5952,-149.2353 2.7067,-27.5599 65.8662,-366.2796 75.159,-280.338 -2,-13 25.6471,-32 15.6471,-43 -12,-11 -24,-34 -28,-52 -18,-84 -44.774,-155.662 -68.774,-177.662 v 0 L 4812.5295,3367 c 4,-111 -15.3529,-266 -9.3529,-345 7,-98 10.7647,-169 3.7647,-224 -7,-58 -10.7647,-96.7647 -2.7647,-125.7647 14,-52 25.5882,-490.7059 6.5882,-624.7059 -8,-52 37.9999,-154.1176 23.9999,-190.1176 -18,-42 32.2353,-62.4118 32.2353,-99.4118 -1,-32 -2,-58 -3,-58 -1,0 -14,24 -29,53 -15,28 -43,78 -62,109 -22,36 -37,75 -41,105 -3,27 -17,66 -34,93 -25,40 -22.6759,45.6759 -16.6759,90.6759 4,36 2,60 -9,80 -12,24 25.1199,89.3518 24.1199,443.3518 0,391 5.5155,559.0415 -14.4845,611.0415 -27,68 -35.8881,154.3367 -48.8881,159.3367 -8,4 -35.2595,21.2405 -26.7901,18.1961 7.9529,-2.8588 16.3251,57.9501 -2.7162,95.0739 -8,15 -8.7786,24.4545 -5.7786,31.4545 3,7 -2.79,50.9287 -21.3391,73.3102 -11.4441,13.8085 38.0544,-13.7269 113.0658,337.4644 14.4725,67.7581 27.661,151.2431 45.817,252.8113 8.0728,45.1611 8.5275,61.4225 17.8277,114.1964 22.9674,66.6497 35.7977,349.3657 53.1536,447.8392 43.8135,248.5879 32.8411,260.4102 30.6918,277.1357 -3,22.3452 -4.6948,38.9913 -1.3154,37.9556 0.5043,6.1834 -0.4338,1.1792 -0.4338,9.1792 0,12 -4.8523,17.5274 -0.8835,2.8192 -8,-5.4127 1.9258,-1.9296 0,0 -5.2579,5.2682 1.1038,2.4392 -0.8835,25.3555 3.6137,-1.3681 9.4712,4.1126 12.2084,44.8134 2.0107,29.9021 -0.5602,49.8309 9.5409,118.4291 21.2356,94.3182 8.3634,203.8941 8.3634,217.8941 2,20.5643 14.3032,11.0122 4.6065,33.2036 l 4.9378,31.0489 5.8373,82.1621 c 24,67.7723 32.7668,192.4903 41.4891,223.5906 10.1995,36.3676 19.7791,113.3607 13.6966,146.2475 30.6029,127.183 1.0286,236.6021 -20.1671,171.4132 17,7 52,13 77,14 h 47 c -24.1777,15.5465 -95.6624,96.4996 -86.8475,-70.7448 z M 3444.9922,5367.8427 c 6,-7.6818 11.3171,-15.9008 1.3171,-21.4311 -14,-7.7423 15.9308,-13.9208 9.9308,2.7611 -12,27.3637 -9.9515,56.9198 -11.2479,18.67 z m 1381.0111,-287.0221 c -2,-12.1031 -6,-21.3095 -10,-19.5158 -4,1.7937 16.9412,0 9.9412,8.1389 l 4.7059,25.3529 c 2.7374,14.7481 -17.6471,26.8535 -11.6471,20.163 6,-6.6906 9,-22.0358 7,-34.139 z M 3448.9506,4830.4235 c -6,-10.3181 1.9792,16.1041 1.9792,35.1041 0,19 -7.9792,8.5778 -1.9792,-0.1041 4,-9.7879 4,-25.7879 0,-35 z m 1349.8364,-59.9664 c 0,17 -12.4434,-26.8968 -12.4434,-49.8968 0,-23 12.4434,33.8968 12.4434,49.8968 z m -87.8564,-566.6595 c -3,-5.6548 -5,0.2421 -5,14.2421 0,14 2,18.1031 5,10.7579 2,-7.8969 2,-19.8969 0,-25 z m -45.3587,-268.6292 c -3,-7.3466 -6,-3.6931 -6,7.3069 -1,11.2178 2,16.5644 5,11.9109 3,-3.6535 4,-12.8713 1,-19.2178 z M 3546.1594,3595.4418 c 0,-8 -4,-12 -10,-9 -5,3 -10,13 -10,21 0,8 5,12 10,9 6,-3 10,-13 10,-21 z"
       id="path4"
       sodipodi:nodetypes="ccccccccsccccccccccccccccccccsscccccccccsccccccccscccccccccccccccccccccccssssscccccccccccscccscccccsccccccsccccccccccscccscccccccccsccccccccccccccccccccccccccccscccccccccccccsccsccccccccccsccccsccccccsccccccccccscscsccccccsccccccccccccccccccccccccccscccccccccscsssscsccscscscccccsccccccsccsscssscsccscscsccccccscscs" />
    <path
       d="M4608 5113 c5 -21 7 -23 10 -9 2 10 0 22 -6 28 -6 6 -7 0 -4 -19z"
       id="path6" />
    <path
       d="M4550 4649 c0 -11 5 -17 10 -14 6 3 10 13 10 21 0 8 -4 14 -10 14 -5 0 -10 -9 -10 -21z"
       id="path8" />
    <path
       d="M3690 4683 c0 -22 2 -25 10 -13 13 20 13 40 0 40 -5 0 -10 -12 -10 -27z"
       id="path10" />
  </g>
</svg>
