<?xml version="1.0" encoding="UTF-8" standalone="no"?>
<svg
   xmlns:dc="http://purl.org/dc/elements/1.1/"
   xmlns:cc="http://creativecommons.org/ns#"
   xmlns:rdf="http://www.w3.org/1999/02/22-rdf-syntax-ns#"
   xmlns:svg="http://www.w3.org/2000/svg"
   xmlns="http://www.w3.org/2000/svg"
   xmlns:sodipodi="http://sodipodi.sourceforge.net/DTD/sodipodi-0.dtd"
   xmlns:inkscape="http://www.inkscape.org/namespaces/inkscape"
   version="1.0"
   width="916.000000pt"
   height="1280.000000pt"
   viewBox="0 0 916.000000 1280.000000"
   preserveAspectRatio="xMidYMid meet"
   id="svg14"
   sodipodi:docname="70rogue.svg"
   inkscape:version="1.0.2 (e86c870879, 2021-01-15, custom)">
  <defs
     id="defs18" />
  <sodipodi:namedview
     pagecolor="#ffffff"
     bordercolor="#666666"
     borderopacity="1"
     objecttolerance="10"
     gridtolerance="10"
     guidetolerance="10"
     inkscape:pageopacity="0"
     inkscape:pageshadow="2"
     inkscape:window-width="1920"
     inkscape:window-height="1017"
     id="namedview16"
     showgrid="false"
     inkscape:zoom="0.49804687"
     inkscape:cx="692.64782"
     inkscape:cy="933.74427"
     inkscape:window-x="-8"
     inkscape:window-y="-8"
     inkscape:window-maximized="1"
     inkscape:current-layer="svg14"
     inkscape:document-rotation="0" />
  <metadata
     id="metadata2">
Created by potrace 1.15, written by Peter Selinger 2001-2017
<rdf:RDF>
  <cc:Work
     rdf:about="">
    <dc:format>image/svg+xml</dc:format>
    <dc:type
       rdf:resource="http://purl.org/dc/dcmitype/StillImage" />
    <dc:title></dc:title>
  </cc:Work>
</rdf:RDF>
</metadata>
  <g
     transform="translate(0.000000,1280.000000) scale(0.100000,-0.100000)"
     fill="#000000"
     stroke="none"
     id="g12">
    <path
       d="m 5346.97,12424.676 c -33,-4 -87,-18 -120,-30 -49,-19 -56,-25 -40,-31 18,-7 18,-8 2,-8 -10,-1 -16,-5 -12,-10 5,-8 -52,-34 -125,-56 -14,-4 -44,-22 -68,-38 -35,-25 -55,-32 -107,-35 -74,-5 -78,-22 -5,-22 27,0 51,-3 53,-7 3,-5 -13,-31 -34,-60 -28,-38 -54,-59 -98,-80 -33,-15 -60,-33 -60,-40 -1,-6 -13,-14 -28,-16 -16,-2 -2,-5 29,-6 31,0 69,4 84,9 15,6 28,9 30,7 2,-1 -26,-38 -61,-82 -65,-80 -89.1765,-212.176 -100.1765,-286.176 l -6,-39 15,39 c 21,56 27,57 20,6 l -7,-45 20,24 c 18,22 19,22 24,4 8,-28 -10,-148 -27,-180 -9,-17 -11,-29 -4,-33 5,-4 7,-14 4,-22 -13,-34 14,-25 50,17 21,25 42,45 46,45 5,0 9,-29 9,-64 0,-70 12,-90 31,-54 l 13,23 7,-25 c 14,-49 9,-87 -16,-124 -30,-44 -30,-47 -7,-39 15,6 16,5 2,-13 -10,-14 -7,-13 12,4 l 25,23 7,-23 c 3,-13 6,-32 6,-43 0,-11 5,-37 11,-59 17,-61 29,-30 31,80 l 2,99 -5.8235,0.176 c 7,-25 -6.6205,-91.648 0.3795,-134.648 l 12.3852,-69.352 -50.3818,-82.147 c -61.735,-91.193 -67.6053,-118.685 -85.0217,-152.953 -7,-7 -20.0471,-34.061 -25.8535,-37.97 -74.8617,-50.401 -116.9712,-141.432 -64.27,-115.407 l 29.7335,1.272 -105.2941,0.941 c -73,9 -255.4706,7.941 -267.4706,16.941 -32,22 -36,20 -49,-26 -11,-37 -15,-40 -39,-36 -34.0357,8.724 -371.4037,-28.767 -358.6121,-46.565 -98,6 -174.1409,-47.706 -225.1409,-67.706 -103.2964,-52.296 -180.241,-109.591 -238.008,-222.739 12.2053,2.045 -72.2555,11.578 -190.1729,-253.264 -50.4899,-105.7072 -88.1817,-167.042 -197.6565,-602.4437 -108.4728,-377.5177 -104.937,-701.6741 -39.5361,-655.1981 -128.586,-121.7489 -136.0775,-199.7918 -135.3563,-274.7279 -90.205,-317.7966 -114.1528,-331.3284 -114.0753,-382.0288 -13,-97.9307 -20.6041,-128.8535 -24.9421,-201.4186 -10.8747,-46.3814 -9.4278,-153.493 -28.9147,-337.7313 -6,-104 5.445,-165.789 2.445,-208.789 -10,-165 -88.2154,-305.5006 -77.2154,-309.5006 8,-3 -23.2687,-72.6827 -20.2687,-147.6827 3,-65 33.0045,-145.9977 43.0045,-192.9977 18,-89 94.9781,-195.759 81.9781,-351.759 -4,-45 16.8235,-128.2941 22.8235,-176.2941 30,-231 43.7647,-262.8824 52.7647,-271.8824 14,-14 57.146,83.729 57.146,111.729 0,12 10.0313,70.5871 24.0313,108.5871 14,38 28.7646,185.6471 28.7646,202.6471 0,28 141.5185,39.7689 137.0623,27.8465 -23.1157,-61.8456 404.9325,-135.7511 473.2319,-130.4936 l 73,-17 c -50.9076,34.9018 -470.1443,184.3062 -472.7816,136.4589 -6,-38.3181 70.3225,44.3286 67.2764,-38.5497 -28.1741,95.971 -160.7551,-160.4085 -141.6284,-422.8504 -43.0575,-128.0957 -77.8139,-519.4205 -64.5455,-935.1186 -32.2391,-640.4324 40.2402,-702.4451 51.0455,-822.4109 2,-46.894 8,-83.5758 18,-80.0456 -4.9652,-0.8171 5.2146,-24.9013 3.8824,-52.6586 -6,-29.3182 -20.6342,-131.399 -6.6342,-180.6566 12,-48.3637 35.6504,-71.27 35.6504,-86.27 -1,-16 8.6551,-18.0139 13.6551,-15.0139 5,3 14,-11 20,-30 9,-31 8,-35 -5,-30 -12,5 -14,1 -8,-21 3,-15 10,-30 15,-33 5,-3 7,-23 5,-45 -5,-54 3,-85 21,-78 16,6 19,-13 4,-22 -16,-10 -12,-29 12,-55 15,-16 18,-25 10,-28 -17,-5 -15,-29 3,-36 18,-7 45.6516,-43.8824 28.6516,-50.8824 -7,-3 -4,-6 7,-6 16,-1 17,-3 6,-10 -12,-8 10.3207,-12 24.3207,-26 12,-11 -45.8178,1.691 -51.8178,-9.309 -12,-23 17.1622,-9.0022 28.1622,-23.0022 5,-7 23.8835,-83.6471 33.8835,-124.6471 10,-41 45.8756,-170.6182 74.8756,-266.6182 106.5798,-446.1576 285.1395,-601.925 384.6294,-877.8663 C 3789.1547,1795.5006 4181,1372 4156,1235 c -21,-112 -45,-164 -135,-297 -39,-58 -92,-151 -117,-207 -56,-125 -61,-182 -21,-263 48,-97 164,-273 188,-285 29,-16 98,-16 208,-3 88,12 173,46 190,78 5,10 13,74 16,142 4,69 14,159 22,200 8,41 23,140 33,220 17,135 59,302 79,315 19,11 39,-182 47,-450 7,-229 9,-235 66,-235 15,0 28,1 29,3 0,1 2,43 5,92 29,584 47,731 109,885 l -22.9412,61.2353 27.8824,-160 c -3,-88 5.0588,-176.2353 0.059,-201.2353 -20,-98 -23,-262 -6,-334 9,-38 21,-139 27,-224 11,-164 18,-195 46,-210 32,-17 147,-32 241,-32 80,0 94,3 116,23 29,26 94,198 132,350 31,123 72.5928,164.3241 22.5928,402.3241 -41,193 135.6676,305.759 145.6676,431.759 109.3591,317.1878 122.431,483.6606 134.1211,542.4072 9,36 40.2964,129.6205 44.2964,176.6205 9,94 22,113.0831 51,215.0831 11,37 34.6482,149.9169 39.6482,192.9169 5,42 34.3241,143.3518 59.3241,236.3518 59,216 61.2307,370.9723 69.2307,492.9723 11.3307,103.8268 -60.6489,135.9891 -87.4822,141.406 -12,15 -19,32 -16,37 -10.0535,-250.7418 235.7166,-105.4237 215.0381,227.0335 21.1313,86.2514 -66.719,-329.4504 80.0414,151.8212 3.4581,84.7366 27.4375,-265.9555 250.2899,872.0533 82.3141,189.8133 260.37,965.2833 230.7668,1296.2142 -0.5904,-106.4561 110.7017,35.9226 52.7059,116.7059 52.2853,183.6205 -510.1812,189.0327 -479.4761,202.5074 45,26 410.6954,-336.6374 426.7702,-319.2133 9.8755,9.7711 22.1517,-17.8751 20.8768,22.2554 26.4081,48.3909 18.1067,32.7852 45.6441,66.3407 18.2573,12.1623 33.7655,45.4721 32.8792,54.4139 13.9139,5.8575 9.5563,18.1684 33.2262,46.8147 l -2.399,49.1342 c 20.0066,17.2712 33.4022,62.8417 83.6754,306.9214 44.4726,231.361 27.578,370.9442 -15.5075,533.8186 4.4261,22.5641 -47.8312,395.799 -159.9649,484.8833 -2.0586,12.2327 -71.6192,165.2831 -238.7674,329.9368 -23.5599,81.8044 -174.4204,128.9501 -583.1563,303.2839 -42.1794,-46.2942 92.8469,5.8866 5.7891,73.4811 -7.5416,217.7012 -149.9245,345.2631 -155.1686,347.3734 -7,4 -7,-4 0,0 5,3 20.338,-34.6205 37.338,-66.6205 17.3074,-220.048 129.9838,-512.9293 487.8247,-496.181 75,-35 246.4751,5.9711 298.4751,32.9711 136,69 344.7716,166.112 274.7716,364.112 90.1579,-97.5817 55.1966,517.4569 -39.9067,721.0288 46.6394,371.3416 -60.7946,442.0842 -158.2941,540.0833 -47,63.9999 -448.8649,315.3038 -565.8649,365.3038 l -152.241,79.269 v 36 c 0,50 -11,62 -52,59 -19,-1 -73,10 -119,25 -46,14 -96,28 -110,31 -14,3 -17.2941,5.706 -31.2941,18.706 4.5503,-36.519 70.5263,-60.746 50.2455,76.803 3,29 -53.2778,276.194 -44.2778,305.194 15,50 -40.2951,-158.189 -16.2951,-164.189 -120.8901,-173.858 17.6842,-210.326 207.9811,-65.448 75.3551,24.274 143.3819,88.376 209.1236,210.706 79.9726,99.878 63.7527,176.64 86.7521,249.641 22,69 79.5882,150 89.5882,156 4,3 -1,-16 -12,-42 -40,-92 -13,-52 42,64 81,167 83,177 83,337 0,136 -1,142 -31,206 -42,88 -184.5605,233.607 -253.5605,262.607 -45,20 -45.022,-5.607 -67.022,44.393 -15,31 -35.9204,74.212 -51.9204,97.212 -15,23 -58.6136,52.569 -58.6136,57.569 0,23 -109.5605,92.542 -130.5605,84.542 -8,-3 -14.4706,9.647 -25.4706,20.647 -22,25 -103.4706,42.706 -176.4706,67.706 -57,20 -70,21 -166,9 z m -92,-57 c -7,-2 -19,-2 -25,0 -7,3 -2,5 12,5 14,0 19,-2 13,-5 z M 3735.0234,8065.0716 c -71.5125,-126.6083 -241.0489,-330.68 -239.3518,-370.0049 -8.2844,-18 -152.2002,-222.7795 -143.3158,-352.595 -146.6529,-231.057 -13.0724,-327.6326 -55.4547,-445.2364 L 3585.8235,6816 l 15.7059,37.9412 c -81,117 -278.7647,120.1176 -253.7647,148.1176 8,9 -33.5766,104.0612 -19.5766,162.0612 15,58 1.8465,129.5721 44.4406,245.3362 42.5284,116.0269 64.5,207.0248 95.2001,268.7519 24.1759,87.8241 122.0318,193.628 138.8421,263.9728 16.8102,70.3449 65.3765,38.2399 99.3765,157.2399 26.9064,78 139.292,369.2459 127.8615,370.2904 -15.9964,1.4617 -192.5694,-366.7392 -98.8855,-404.6396 z M 4951.1525,6179.2548 c -21.2964,-64 -32.1477,-225.1499 -43.1477,-316.1499 -11,-90 -33.2641,-187.9884 -30.2641,-193.9884 1.7903,-16.386 -32.4815,-185.9322 -16.91,-200.7036 -5,-7 -4,-22 1,-37 7,-17 7,-28 0,-32 -5,-4 -7,-27 -3,-56 -22.486,-32 -10.5742,-54 -5,-63 -9,-10 -24.0588,-14.1176 -16.0588,-19.1176 6,-4 8,-15.8824 5,-25.8824 -9.0814,-15 -7.6795,-78.7647 -8.7059,-259.7647 -43.9794,-225 -113.9375,-638.9319 -98.7358,-722.9319 -19.268,-113.5021 -18.0284,-140.5873 -8.3796,-153.511 2.7067,-27.5599 35.6148,-331.4561 44.9076,-245.5145 -2,-13 4.9412,-15.0588 -5.0588,-26.0588 -12,-11 -3.2941,-50.9412 -7.2941,-68.9412 -18,-84 59.8973,-138.2641 35.8973,-160.2641 v 0 L 4740.6542,3367 c 4,-111 24.5778,-266 30.5778,-345 7,-98 -2.5455,-182.3102 -9.5455,-237.3102 -7,-58 2.0516,-76.015 10.0516,-105.015 14,-52 28.7442,-492.8213 9.7442,-626.8213 -8,-52 37.5823,-149.0219 23.5823,-185.0219 -18,-42 29.9354,-77.8316 29.9354,-114.8316 -1,-32 30,-53 29,-53 -1,0 -14,24 -29,53 -15,28 -33.6828,80.662 -52.6828,111.662 -15.4522,35.1928 -1.1847,72.039 -11.052,103.0035 -3,27 15.6101,94.617 -1.3899,121.617 -1.0415,43.9931 4.7013,22.0405 10.7013,67.0405 4,36 15.3103,65.3241 4.3103,85.3241 -4.3547,24.695 16.5839,86.6398 -13.1488,438.0277 0,391 -5.1327,537.7451 -25.1327,589.7451 -27,68 -25.2399,175.6331 -38.2399,180.6331 -8,4 -35.2595,21.2405 -26.7901,18.1961 7.9529,-2.8588 16.3251,57.9501 -2.7162,95.0739 -8,15 -8.7786,24.4545 -5.7786,31.4545 3,7 -85.6135,50.9287 -104.1626,73.3102 -11.4441,13.8085 84.8156,-74.6519 159.827,276.5394 14.4725,67.7581 -11.5708,206.521 6.5852,308.0892 8.0728,45.1611 8.5275,61.4225 17.8277,114.1964 22.9674,66.6497 35.7977,349.3657 53.1536,447.8392 43.8135,248.5879 32.8411,260.4102 30.6918,277.1357 -3,22.3452 -4.6948,38.9913 -1.3154,37.9556 0.5043,6.1834 -0.4338,1.1792 -0.4338,9.1792 0,12 -4.8523,17.5274 -0.8835,2.8192 -8,-5.4127 1.9258,-1.9296 0,0 -5.2579,5.2682 1.1038,2.4392 -0.8835,25.3555 3.6137,-1.3681 9.4712,4.1126 12.2084,44.8134 2.0107,29.9021 -0.5602,49.8309 9.5409,118.4291 21.2356,94.3182 8.3634,203.8941 8.3634,217.8941 2,20.5643 14.3032,11.0122 4.6065,33.2036 l 4.9378,31.0489 5.8373,82.1621 c 24,67.7723 32.7668,192.4903 41.4891,223.5906 10.1995,36.3676 19.7791,113.3607 13.6966,146.2475 30.6029,127.183 1.0286,236.6021 -20.1671,171.4132 17,7 52,13 77,14 h 47 c -24.1777,15.5465 -95.6624,96.4996 -86.8475,-70.7448 z M 3267.645,5359.0492 c 6,-7.6818 11.3171,-15.9008 1.3171,-21.4311 -14,-7.7423 15.9308,-13.9208 9.9308,2.7611 -12,27.3637 -9.9515,56.9198 -11.2479,18.67 z m 1558.3583,-278.2286 c -2,-12.1031 -6,-21.3095 -10,-19.5158 -4,1.7937 16.9412,0 9.9412,8.1389 l 4.7059,25.3529 c 2.7374,14.7481 -17.6471,26.8535 -11.6471,20.163 6,-6.6906 9,-22.0358 7,-34.139 z M 3018.7087,4821.63 c -6,-10.3181 1.9792,16.1041 1.9792,35.1041 0,19 -7.9792,8.5778 -1.9792,-0.1041 4,-9.7879 4,-25.7879 0,-35 z m 1780.0783,-51.1729 c 0,17 -12.4434,-26.8968 -12.4434,-49.8968 0,-23 12.4434,33.8968 12.4434,49.8968 z m -59.4481,-622.1727 c -3,-5.6548 -5,0.2421 -5,14.2421 0,14 -3,7.3452 0,0 2,-7.8969 7,-9.139 5,-14.2421 z m -34.5352,-268.6292 c -3,-7.3466 -6,-3.6931 -6,7.3069 -1,11.2178 2,16.5644 5,11.9109 3,-3.6535 4,-12.8713 1,-19.2178 z M 3207.4495,3492.8258 c 0,-8 -4,-12 -10,-9 -5,3 -10,13 -10,21 0,8 5,12 10,9 6,-3 10,-13 10,-21 z"
       id="path4"
       sodipodi:nodetypes="ccccccccsccccccccccccccccccccsscccccccccsccccccccsccccccccccccccccccccccssssscccccccccccscccscccccsccccccsccccccccccscccscccccccccsccccccccccccccccccccccccccccccccccccccccsccsccccccccccsccccsccccccscccccccccccccsccccccccccccccccccccccccccscccccccccscsssscsccscscscccccsccccccsccsccssscsccscscccccsccscscsc" />
    <path
       d="M4608 5113 c5 -21 7 -23 10 -9 2 10 0 22 -6 28 -6 6 -7 0 -4 -19z"
       id="path6" />
    <path
       d="M4550 4649 c0 -11 5 -17 10 -14 6 3 10 13 10 21 0 8 -4 14 -10 14 -5 0 -10 -9 -10 -21z"
       id="path8" />
    <path
       d="M3690 4683 c0 -22 2 -25 10 -13 13 20 13 40 0 40 -5 0 -10 -12 -10 -27z"
       id="path10" />
  </g>
</svg>
