<?xml version="1.0" encoding="UTF-8" standalone="no"?>
<svg
   xmlns:dc="http://purl.org/dc/elements/1.1/"
   xmlns:cc="http://creativecommons.org/ns#"
   xmlns:rdf="http://www.w3.org/1999/02/22-rdf-syntax-ns#"
   xmlns:svg="http://www.w3.org/2000/svg"
   xmlns="http://www.w3.org/2000/svg"
   xmlns:sodipodi="http://sodipodi.sourceforge.net/DTD/sodipodi-0.dtd"
   xmlns:inkscape="http://www.inkscape.org/namespaces/inkscape"
   version="1.0"
   width="989.000000pt"
   height="1280.000000pt"
   viewBox="0 0 989.000000 1280.000000"
   preserveAspectRatio="xMidYMid meet"
   id="svg62"
   sodipodi:docname="35assassin.svg"
   inkscape:version="1.0.2 (e86c870879, 2021-01-15, custom)">
  <defs
     id="defs66" />
  <sodipodi:namedview
     pagecolor="#ffffff"
     bordercolor="#666666"
     borderopacity="1"
     objecttolerance="10"
     gridtolerance="10"
     guidetolerance="10"
     inkscape:pageopacity="0"
     inkscape:pageshadow="2"
     inkscape:window-width="1920"
     inkscape:window-height="1017"
     id="namedview64"
     showgrid="false"
     inkscape:zoom="0.35217232"
     inkscape:cx="-126.04402"
     inkscape:cy="621.85655"
     inkscape:window-x="-8"
     inkscape:window-y="-8"
     inkscape:window-maximized="1"
     inkscape:current-layer="svg62" />
  <metadata
     id="metadata46">
Created by potrace 1.15, written by Peter Selinger 2001-2017
<rdf:RDF>
  <cc:Work
     rdf:about="">
    <dc:format>image/svg+xml</dc:format>
    <dc:type
       rdf:resource="http://purl.org/dc/dcmitype/StillImage" />
    <dc:title></dc:title>
  </cc:Work>
</rdf:RDF>
</metadata>
  <g
     transform="translate(0.000000,1280.000000) scale(0.100000,-0.100000)"
     fill="#000000"
     stroke="none"
     id="g60">
    <path
       id="path48"
       style="stroke-width:0.133333"
       transform="matrix(7.5000002,0,0,-7.5000002,0,12800)"
       d="m 600.81055,110.43945 c -9.1633,1.0961 -17.97224,4.19128 -26.38815,7.8805 -5.15686,2.36995 -10.33809,4.78442 -15.09232,7.90075 -11.29483,7.80823 -19.58106,18.99745 -27.5627,29.97379 -2.14477,3.11308 -4.52582,6.89047 -8.59941,7.47543 -4.85639,0.6759 -9.40595,-1.64132 -13.92365,-3.04101 -2.40036,-1.00189 0.31394,1.4959 0.67776,2.24193 1.71252,2.33972 3.67746,4.55608 6.13261,6.13697 2.48067,0.7031 5.07863,0.38138 7.61523,0.33789 -0.12659,2.98121 -2.83581,4.85184 -3.98242,7.41016 -4.36424,6.18657 -9.65131,11.85116 -16.11914,15.86719 -6.42529,2.6652 -14.18578,0.33299 -18.73438,-4.75 -3.84751,-3.62956 -7.64644,-7.31572 -11.6875,-10.73243 -1.84942,-0.34848 -4.18781,-3.13454 -5.76171,-0.82421 1.14451,3.00488 4.29424,4.49371 6.0334,7.08481 2.74798,3.02642 5.49596,6.05283 8.24394,9.07925 -0.90228,2.25217 -3.74163,2.33175 -5.75222,1.86073 -6.8276,-1.63535 -13.81673,-2.42282 -20.76927,-3.32167 1.98408,2.42646 5.43624,1.74818 8.13477,2.54297 10.43891,2.34926 21.03031,3.97994 31.66992,5.08984 2.21087,-0.97625 1.09369,3.7876 -0.48047,1.98438 l -24.34179,1.42578 c -0.461,2.0463 3.15706,4.20873 0.89062,5.85938 -4.02454,1.35966 -8.42164,1.3176 -12.375,2.96289 -1.41732,0.42708 -2.83463,0.85416 -4.25195,1.28125 3.86488,1.17514 7.66399,-1.11583 11.56069,-0.82748 11.58198,-0.80751 23.16397,-1.61502 34.74595,-2.42252 2.4308,-2.03554 3.7561,3.88397 0.67187,3.29882 -5.99316,4.29885 -13.06674,6.71743 -20.11523,8.65625 10.45694,-0.0948 21.01895,-3.62895 28.92773,-10.57617 -0.22369,-2.86861 4.97711,-0.12765 2.36719,1.28516 -2.10217,6.61295 -5.15645,13.60537 -11.33814,17.34728 -2.98039,1.7013 -5.96077,3.40259 -8.94116,5.10389 -2.90254,-0.70179 -0.87597,4.98348 0.9375,2.49219 2.32274,-0.53545 5.15127,-3.33164 7.3311,-1.08555 1.20857,1.90744 -0.25172,4.12248 -1.42515,5.65348 -4.40234,6.00255 -8.46475,12.25987 -13.13251,18.06683 2.9632,1.0247 3.75512,-2.92564 5.40109,-4.48865 6.32485,-7.68604 12.11135,-15.79636 17.6829,-24.03869 0.14359,1.71482 -0.57156,4.64849 -0.70781,6.77549 -2.07763,15.57312 -4.33892,31.16797 -8.28438,46.39638 0.23896,2.98028 -4.25796,4.72187 -6.08008,2.34571 -0.40603,2.57318 3.42412,3.82667 2.48828,6.47265 -1.31371,2.3698 -1.85097,5.2009 -1.27929,7.86719 -0.74982,3.38179 -4.38799,4.8762 -7.44141,5.48633 -4.38993,0.95483 -8.79026,1.86843 -13.14258,2.98633 -2.25998,-0.92752 -5.14567,3.63125 -1.93912,3.87157 2.41056,-0.12024 3.77873,-2.80418 6.20475,-2.89501 3.8163,-0.98005 7.82976,-1.37868 11.40429,-3.14062 2.41962,-0.66486 4.38227,2.00045 3.8926,4.22898 -0.80113,2.15836 -1.50353,4.38096 -2.05001,6.64324 -0.62429,2.93015 -1.67235,6.1632 -0.35431,9.05331 1.60912,3.36844 3.83538,6.41236 5.48935,9.76534 1.07323,2.52618 2.93654,4.91546 3.04534,7.72614 0.009,2.68687 -2.55709,4.26131 -4.89339,4.80451 -9.54745,2.36402 -19.35194,3.36005 -29.09134,4.5941 -2.68399,0.52269 -5.57201,0.44094 -8.10555,1.48281 -3.25542,1.62747 -5.77535,4.33349 -8.29206,6.89492 -8.63421,3.72233 -18.25027,4.27401 -26.89247,7.98047 -11.28105,3.60693 -22.65829,7.85069 -34.65245,7.98242 -12.58379,-0.65729 -24.24685,-7.03268 -33.24024,-15.5957 -12.47353,-11.14351 -22.66853,-24.70591 -36.07617,-34.82422 -3.64818,-2.21219 -7.69679,-3.76094 -11.89648,-4.51953 -2.40704,-2.08388 -4.13734,3.87725 -1.01172,3.5625 6.38467,6.20898 9.3535,15.0175 15.67689,21.28284 8.99241,10.83269 17.76521,22.34805 29.88951,29.89099 14.86416,8.74268 33.07153,10.64156 49.79579,7.19834 10.89855,-2.2974 21.18159,-6.70204 31.54992,-10.65146 0.18287,2.6158 -2.90587,3.2565 -4.54883,4.54296 -5.29417,4.98532 -10.87735,9.71192 -15.58886,15.2849 -3.33008,3.83574 -7.57844,6.7623 -12.22437,8.77817 -6.70827,3.09716 -13.84256,5.15386 -20.96325,7.05942 -5.18705,1.24768 -10.4943,1.94065 -15.81337,2.29548 6.80272,3.13175 14.50792,2.32379 21.70899,1.4336 10.51615,-2.68169 20.34233,-7.43655 30.70771,-10.59095 11.8671,-4.13086 23.38222,-9.61428 33.33896,-17.35753 6.29778,-4.37243 12.57651,-8.77478 19.00802,-12.94996 0.90364,-2.98738 6.17787,-0.5427 4.15234,2.0918 -1.17089,2.2993 -2.40444,4.5981 -2.86564,7.1657 -1.75663,6.50378 -1.96956,13.34872 -1.17928,20.01594 -1.62676,1.36357 2.46443,2.33326 1.375,0.38086 1.4871,-5.10755 2.36788,-10.56273 5.40625,-15.05079 9.22777,-9.29771 21.53127,-14.37141 32.43094,-21.31 3.53929,-2.15708 7.07859,-4.31416 10.61789,-6.47125 2.60832,-0.8395 5.27485,1.5531 5.51367,4.10547 0.57976,2.73689 2.72105,5.44031 1.59765,8.32032 -1.71087,3.40822 -5.00308,5.57825 -7.44054,8.41461 -10.8737,10.97819 -22.76333,21.33035 -36.74685,28.14283 -4.48796,1.94243 -9.48267,2.51295 -14.33018,2.08904 -2.30448,-1.59805 -5.14153,2.54876 -2.39454,3.79297 2.25046,1.24173 5.11731,-1.17471 7.13477,0.8125 2.10253,1.44459 4.86676,2.12377 7.32617,1.23633 3.29231,-0.62143 6.81622,-1.54603 10.08203,-0.3125 2.76244,0.50619 4.48398,-2.24042 6.78321,-3.1875 2.20148,-1.28101 4.83566,-1.3072 7.30664,-1.21094 2.00392,-1.3323 4.24987,-3.59096 6.87304,-2.60547 2.12687,0.88847 3.97262,-0.93514 5.47852,-2.16211 1.74302,-2.01066 4.60547,-0.007 4.58845,2.28433 0.19887,1.89315 -0.81974,3.6241 -1.4654,5.33286 -2.65557,5.06692 -7.75408,8.0522 -11.77569,11.90228 -3.89319,3.48945 -7.71359,7.05882 -11.4958,10.66803 0.98505,2.28904 4.43832,1.94695 5.72852,0.13281 -1.17138,2.55567 -4.32965,2.70453 -6.48438,4.00782 -4.28202,1.9214 -8.65096,3.74569 -12.53515,6.41797 -2.52147,1.09617 -5.49484,-0.81909 -6.20899,-3.32032 -2.94189,-5.38021 -6.94784,-10.24117 -8.84375,-16.14648 0.18657,-1.87936 0.007,-5.34504 -2.58593,-5.2168 -2.1903,0.85609 -1.32094,3.86131 -0.83985,5.61719 2.14228,13.09687 7.30606,25.42999 10.32227,38.31641 1.57989,7.2011 2.96157,14.80248 0.94331,22.06434 -0.56219,2.34077 -1.73286,4.46218 -2.87581,6.54605 -2.11331,5.37343 -0.0924,11.39826 3.11051,15.89111 2.71423,4.31786 5.60802,9.07934 5.13076,14.39625 0.0964,10.95732 -1.33909,22.26227 2.15605,32.87215 2.81843,7.45384 4.86037,15.19035 6.11211,23.05841 1.23438,6.17253 2.74946,12.30982 4.99729,18.19903 1.48408,-1.71077 3.06492,-3.8613 4.22511,-0.72168 1.36293,3.65225 1.86709,7.65466 2.26919,11.48535 0.5358,10.47129 -0.89968,20.95586 -5.80052,30.16178 -2.45141,4.70837 -5.67557,8.94154 -9.01996,13.03939 -4.07165,5.93026 -4.82171,13.2713 -6.98536,19.96882 -10.6581,38.55195 -21.15626,77.15309 -32.63768,115.47064 -0.76204,2.75449 -0.51602,5.63007 0.008,8.39648 0.33675,5.27671 -1.61767,10.31639 -2.84032,15.36643 -4.02926,14.16826 -10.81485,27.30718 -17.19428,40.51442 -2.07573,4.31318 -3.967,8.74203 -6.40529,12.86256 -3.20182,4.44708 -8.74192,6.8757 -14.15581,6.83667 -4.57142,0.70912 -8.14581,4.88233 -8.625,9.4082 -1.12209,4.26244 -2.29313,8.67876 -5.04493,12.2207 -1.23826,2.5136 1.94708,5.63723 4.43555,4.35157 5.22986,-1.44614 8.8847,-6.37322 9.89649,-11.55274 0.67326,-2.74763 5.50302,-2.31863 5.61914,0.53907 0.2096,8.07213 1.42819,16.06716 2.51757,24.05468 1.7411,2.30907 5.11885,1.74437 7.37696,0.60938 4.31043,-1.71893 9.24619,-3.27006 11.80469,-7.46485 1.31527,-2.21223 3.738,-4.23364 3.93554,-6.81445 0.43629,-2.37758 4.41641,-3.17355 5.26473,-0.65305 2.21934,4.33564 4.91874,8.40335 7.1884,12.71164 1.55986,2.4877 6.06527,1.44516 6.39843,-1.46289 1.53264,-4.9956 -0.84098,-10.06847 -3.27834,-14.33736 -2.39179,-4.30383 -5.20443,-8.93501 -4.59275,-14.06889 0.80013,-3.63515 2.61411,-6.92276 4.36133,-10.17187 2.71911,0.48162 3.1944,3.63526 4.58008,5.53906 4.0362,5.27745 10.34718,7.89739 15.45703,11.91602 2.4483,1.35636 5.79962,-1.81816 4.34961,-4.30078 -2.76018,-6.24403 -10.13427,-8.91123 -12.59766,-15.34961 -1.25604,-2.90467 -2.63257,-5.94456 -2.40039,-9.1875 1.26975,-3.6165 4.88411,-5.52678 7.20202,-8.37985 6.0194,-5.99471 11.13465,-13.60229 11.79921,-22.29041 0.94838,-8.12319 0.19866,-16.58205 3.12963,-24.36881 1.88607,-2.95282 6.50868,-2.30086 8.07227,-5.57617 15.81179,-30.75802 31.87546,-61.39685 46.81143,-92.59431 6.06985,-12.77347 11.99315,-25.6262 17.25888,-38.7553 0.41028,-4.76604 -1.04482,-9.68103 0.53906,-14.33008 2.99676,-15.81383 2.62134,-32.13215 6.6582,-47.76953 0.74122,-3.70357 1.00472,-7.52287 0.53711,-11.27929 2.18103,-0.67528 3.3011,1.94008 3.09766,3.73046 -0.97362,5.35549 2.42908,16.57823 4.56645,21.629 4.29504,7.61105 6.23838,9.31331 10.29097,17.06436 3.00028,5.40947 6.42478,10.59914 10.52598,15.24135 2.11587,2.7281 4.2668,5.38578 5.87541,8.43799 1.08359,3.614 -2.8803,6.00699 -6.88551,10.12186 -5.05178,6.36268 -3.48969,6.8084 -6.54001,10.61146 -5.15406,6.42595 -11.57675,12.18652 -18.51514,19.183 -9.83047,8.42183 -26.92645,23.29993 -35.12232,39.07563 -8.1051,10.27555 -13.53521,21.7018 -17.91876,38.95067 -5.12814,14.04276 -3.40666,29.82829 -2.62182,44.75145 0.49114,15.95792 6.83303,31.57175 11.42867,46.78578 0.75062,2.77548 1.47945,5.5567 2.19733,8.34081 2.05035,1.80008 -0.78011,5.66014 -3.11719,4.21875 -2.41646,-1.56663 -4.91802,-2.9945 -7.40234,-4.44921 -2.71319,-0.94782 -5.09083,3.06641 -3.17383,5.0957 13.37155,35.42909 26.75865,70.85553 39.57536,106.4898 10.11919,29.09358 17.69772,58.98448 25.12687,88.85268 1.27064,5.4183 2.0246,11.463 -0.66653,16.5931 -1.36658,2.2772 -0.99209,5.3702 0.77094,7.33 1.86471,3.0797 0.92342,6.951 2.64083,10.089 2.31378,5.3666 6.50279,9.7983 8.23543,15.427 0.86498,3.4731 -0.0249,7.0432 0.095,10.5647 -0.13864,10.9712 0.59086,21.9293 0.98405,32.8892 1.04507,22.8773 2.3824,45.749 4.42167,68.56 2.32249,20.5584 8.09078,40.4937 13.0547,60.5177 5.95893,23.4397 12.36753,46.7764 17.50719,70.4151 4.19561,19.5884 6.95677,39.528 7.35068,59.5757 0.18565,5.6608 0.2074,11.3255 0.20458,16.989 1.06089,5.0233 5.62811,8.0134 9.30274,11.1035 3.30273,2.7441 6.60546,5.4883 9.9082,8.2324 2.3519,3.876 0.75936,8.4799 0.54029,12.6694 -2.22307,24.8922 -4.66819,50.0085 -1.84888,74.9595 0.62434,6.3347 1.24869,12.6693 1.87304,19.0039 1.64836,4.9577 6.35154,8.0658 10.9961,9.8946 2.36165,1.3739 5.304,2.0223 6.99414,4.332 1.4869,4.0597 -0.80381,8.0883 -2.05469,11.875 -2.41525,8.4426 -2.26069,17.3961 -4.85938,25.7969 -3.2345,5.0824 -10.12839,6.5714 -12.71484,12.1894 -3.65198,7.3165 -2.84644,16.311 1.07227,23.3516 1.66494,3.6403 3.29615,7.2973 5.09765,10.873 3.80922,3.9298 9.57055,4.4351 14.65673,5.3865 15.35062,2.2868 31.29687,2.5159 46.32569,-1.7986 11.91166,-4.3856 21.11403,-14.9673 24.37469,-27.1692 4.60985,-14.2644 5.75921,-29.3029 7.50181,-44.1055 1.50147,-15.3569 2.52886,-30.7542 3.68796,-46.1393 -1.17661,-8.0447 -5.68412,-15.0002 -8.54297,-22.4786 -0.85281,-2.9627 1.35739,-5.5677 3.12394,-7.6778 2.56276,-3.1158 5.32062,-6.692 5.04249,-10.9658 1.43776,-43.2029 0.0859,-86.5955 5.29226,-129.595 3.53673,-28.9413 8.87978,-57.873 7.93083,-87.1472 -1.06723,-35.926 -7.16038,-71.4802 -14.58874,-106.5751 -2.14626,-9.579 -4.6152,-19.2814 -9.54974,-27.8542 -1.74142,-2.8735 -5.04974,-4.8833 -5.47565,-8.4485 -0.47551,-4.904 -0.18365,-9.8554 0.0157,-14.7702 0.30827,-4.9702 0.58078,-9.9598 1.11127,-14.8997 -0.077,-1.8787 -0.23782,-4.9172 2.25045,-5.236 2.03626,-0.03 5.05343,-0.4579 4.7476,-3.2055 -0.0133,-2.9161 -2.5036,-5.7358 -1.03906,-8.6269 1.91424,-3.337 6.75592,-3.9365 7.94921,-7.8242 2.83184,-7.3832 2.53529,-15.442 4.21684,-23.0855 5.00419,-32.4393 10.43838,-65.0303 21.17721,-96.15091 7.61466,-22.59609 15.44178,-45.12975 22.18659,-68.0064 1.89956,-6.17558 3.79911,-12.35116 5.69866,-18.52674 2.18079,-1.86232 -1.09776,-6.37082 -3.19943,-4.31834 -1.53006,2.01928 -5.74314,0.0218 -4.46854,-2.47073 1.12639,-2.32203 3.66093,-4.1796 3.42774,-6.99804 -0.92412,-2.89232 -4.42955,-1.86447 -6.68683,-2.17126 -2.17049,-0.96984 -1.71412,-3.89534 -1.14325,-5.74671 2.22566,-10.25388 4.6577,-20.66851 6.12989,-31.04928 1.53921,-12.27872 1.85544,-27.61827 -0.17844,-39.83845 -0.30063,-16.37646 -1.50635,-28.56751 -5.84068,-42.23542 -1.91683,-12.34095 -1.95273,-20.75552 -5.03821,-35.49096 -3.58129,-17.10325 -1.36867,-23.88482 -4.69882,-40.68145 0.18297,-7.61983 -7.00551,-24.35875 -5.4745,-31.85807 2.86134,-9.92044 9.25175,-22.98088 11.04493,-33.26595 1.29753,-6.51353 2.89319,-7.78698 2.91502,-14.92492 0.52281,-6.39964 0.70496,-13.92357 -1.35607,-18.58817 0.23715,-2.67289 -0.76237,-4.00013 0.22559,-6.88077 1.30204,-2.57005 2.57926,-3.74691 3.49199,-6.48539 1.33682,-2.19759 2.54289,0.57598 2.96322,3.17652 3.83491,11.29799 10.44519,20.49351 14.72819,31.63207 0.80847,3.21502 -1.82697,6.30485 -0.70313,9.5 21.83671,34.17814 43.32637,68.59298 66.20558,102.08968 6.21414,8.89897 12.70947,17.60397 19.56786,26.01775 3.40678,3.27407 7.85359,6.13663 9.05664,11.00586 5.13985,14.62459 7.10048,30.4284 14.69225,44.13363 7.14598,12.30304 18.38114,21.76042 24.8124,34.51942 1.1735,3.06535 0.68937,6.54212 -0.63551,9.47781 -0.81983,2.71998 3.0256,5.13705 5.13477,3.25195 2.57228,-1.30879 5.5196,0.17449 7.3789,2.03906 3.2264,2.67243 8.67212,1.98322 10.95508,-1.58398 0.92219,-2.83158 -1.55656,-5.65698 -0.38281,-8.46094 0.0951,-2.51441 2.89081,-5.97416 5.4375,-3.84766 2.04687,2.20583 1.11386,5.56058 0.0569,8.01339 -2.50471,5.61911 -8.04813,9.79106 -8.75597,16.19687 -0.3961,2.76049 0.0718,5.66382 1.45102,8.10029 1.89318,1.98612 5.47143,0.3734 5.95118,-2.11914 2.28383,-7.00179 8.27753,-11.73945 12.19726,-17.75 -0.16092,-1.95326 2.51707,-5.45478 4.12891,-2.98633 0.64692,2.27318 -0.92212,4.41633 -1.38867,6.59375 -1.4058,5.85344 -3.23153,12.07232 -1.41602,18.04883 0.63169,2.2988 2.15809,4.97196 4.90234,4.82226 2.5178,-0.18061 3.08391,-3.13879 3.08094,-5.17502 -0.11504,-2.73698 0.10566,-5.50626 1.19931,-8.05134 1.08382,-2.72685 2.75961,-5.18928 4.75491,-7.33028 2.46937,-1.27868 5.16584,0.26802 7.37304,1.38282 2.3262,0.90538 5.2865,1.61576 7.4492,-0.0527 0.9351,-2.64743 -0.9334,-5.22267 -2.7402,-6.98047 -2.8774,-3.82093 -5.008,-8.42808 -5.0117,-13.28711 -0.9957,-6.39069 -5.67145,-11.29355 -10.21292,-15.52929 -9.8631,-10.37349 -17.92189,-22.33831 -28.19115,-32.34289 -9.11369,-9.81473 -18.65678,-19.7031 -24.34289,-32.00459 -2.64152,-6.58506 -3.95976,-13.64378 -4.33119,-20.71307 -3.57352,-13.7143 -11.12127,-25.89342 -16.08558,-39.08559 -11.54884,-27.34224 -22.61039,-54.90127 -35.10429,-81.83334 -3.16952,-7.20123 -6.3078,-14.41606 -9.42146,-21.64162 -4.65478,-6.73322 -11.20224,-12.01466 -15.19322,-19.2312 -8.58437,-12.34616 -16.88279,-25.18473 -21.58803,-39.57934 -0.87819,-2.60501 0.29599,-5.12712 1.58837,-7.31465 1.35735,-4.15998 -0.87157,-8.29506 -1.79309,-12.29692 -0.85974,-2.6316 -1.25001,-5.50874 -2.40466,-7.98609 -1.414,-1.89096 -1.15201,-5.35885 1.36719,-6.16797 3.67227,-0.88197 7.73655,-2.10711 9.85792,-5.50166 3.17472,-4.07834 3.81687,-9.85232 1.937,-14.62529 -2.51725,-9.98156 -4.69729,-20.29276 -10.04882,-29.22852 -6.17476,-12.45829 -10.7979,-25.692 -18.09542,-37.58231 -9.29677,-16.37018 -19.41808,-32.25156 -29.07205,-48.40938 -1.18066,-2.06291 -2.942,-4.05139 -5.42043,-4.39503 -3.66911,-0.81088 -8.09685,-0.249 -10.86751,-3.30419 -1.90716,-1.77546 -3.19094,-4.84032 -1.67506,-7.25599 1.09706,-2.29399 2.86936,-4.18801 3.97421,-6.47888 1.25223,-1.55929 4.24705,-2.78993 3.23047,-5.24023 -3.7754,1.07914 -4.93834,6.0179 -8.96679,6.61133 -2.83929,0.0828 -3.66878,-3.42832 -3.2135,-5.67625 0.3355,-2.74001 0.50448,-5.50657 0.94982,-8.23001 0.15809,-2.82588 3.39116,-4.71659 2.58008,-7.62109 -0.9249,-2.61021 -3.00817,-4.57662 -4.20144,-7.0539 -1.12783,-2.16242 -4.4004,-1.9955 -5.62473,-0.0262 -1.35812,3.10214 -2.91096,6.53062 -2.17578,10 0.63281,3.03231 -0.6463,6.06861 -1.25631,9.01302 -0.71116,2.20649 -0.15923,5.31064 -2.50932,6.62565 -1.93147,1.08965 -4.11312,0.32805 -5.82301,-0.76765 -5.62588,-2.31007 -11.84027,-1.42196 -17.74579,-1.2478 -10.09404,0.61627 -20.09124,2.20688 -30.12455,3.40608 -1.57839,0.8223 -4.42987,0.78615 -4.90039,-1.3125 0.3132,-2.46611 1.80223,-4.62989 2.74541,-6.90277 1.99189,-4.65521 3.18519,-9.60821 4.68818,-14.43512 1.46083,-1.89076 3.99128,-0.65167 5.95117,-0.78125 2.99978,-0.27611 2.92387,-4.07502 4.46289,-5.95703 2.2784,-1.91148 3.14812,-4.86195 3.61524,-7.68946 0.52823,-2.63183 1.06659,-5.64645 3.29882,-7.40039 0.92662,-0.74453 1.23064,-3.24153 -0.55664,-2.80468 -0.59054,-2.54133 3.04689,-3.9483 4.90625,-2.67969 2.46371,1.58235 3.50324,4.51698 5.51738,6.55475 5.25525,6.45332 10.61334,12.96451 17.20258,18.09969 0.51698,1.39402 4.07016,1.59411 2.22926,-0.0939 -1.99858,-1.96146 -4.76232,-3.183 -6.11073,-5.75547 -3.60326,-4.67129 -6.44085,-10.13119 -7.14903,-16.05313 0.50676,-2.65789 4.29529,-3.49032 6.15039,-1.71093 11.49093,8.75476 27.45952,11.29856 41.0869,6.51131 8.9144,-3.79215 15.22118,-11.55216 23.46749,-16.42284 2.21129,-1.47773 4.50336,-2.85851 7.01263,-3.76274 0.72295,-0.15997 2.65244,-1.72028 0.68884,-1.23589 -6.76984,0.70353 -12.01878,5.45029 -17.48809,9.02469 -4.52576,3.17163 -9.26735,6.27389 -14.66426,7.71554 -1.45006,2.90433 -6.01462,-1.55403 -2.63067,-2.74674 2.5708,-1.46635 4.68288,-3.50839 6.95489,-5.34505 1.83471,-0.64342 5.15049,-4.31054 1.85547,-5.0918 -2.52342,0.0534 -3.77094,2.51705 -5.77079,3.62902 -6.13689,3.55193 -12.15589,7.59177 -19.06905,9.48817 -3.81463,1.04326 -8.02127,1.35614 -11.68736,-0.38315 -5.56907,-2.35157 -9.85287,-7.75978 -10.45132,-13.82974 -0.35985,-2.13607 -1.50228,-4.73105 0.0879,-6.63672 1.51714,-1.52617 3.88294,-0.52801 5.46485,0.35547 5.83425,3.17008 12.2797,5.01013 18.71094,6.5332 -7.47553,-3.50537 -15.4864,-6.29386 -21.86914,-11.70508 -1.66317,-2.42835 -1.19708,-5.52331 -1.26758,-8.29687 0.65073,-2.92306 4.50798,-2.87067 5.76367,-5.3418 0.30909,-2.59303 -2.45841,-3.90641 -4.43751,-4.78973 -2.35522,-1.2042 -2.36515,-4.38064 -1.79241,-6.63009 1.37873,-2.90882 -4.66997,-4.63637 -4.16071,-1.0587 -0.15418,1.81134 -1.79782,4.24549 -3.84961,3.26172 -2.53608,-1.88331 -2.93239,-5.33326 -4.49609,-7.9082 -3.1579,-6.49506 -7.88447,-12.52327 -8.66797,-19.91797 -0.58835,-2.96492 -2.64549,-5.69695 -2.12304,-8.83008 -0.11194,-2.63792 -2.24394,-4.48874 -3.50782,-6.625 0.83599,-2.93853 4.5104,-1.66689 6.56369,-0.98358 11.79032,3.2898 24.88943,1.5955 35.43045,-4.63946 2.02332,-1.80112 3.88779,-3.90915 4.85547,-6.47657 -0.58117,-2.79843 -4.5296,-1.56872 -4.7282,0.77356 -3.56262,4.08114 -8.8265,6.05312 -13.81281,7.77918 -7.22834,2.13752 -15.15815,2.10186 -22.25782,-0.51953 -2.9886,-1.76603 -3.81045,-5.48577 -6.29101,-7.75196 -1.4915,-2.07324 -0.48813,-5.31887 1.80273,-6.35156 1.81751,-2.1518 -0.599,-4.83312 -2.67778,-5.62012 -2.9226,-2.11547 -3.48864,-5.99503 -4.07222,-9.30566 -0.64815,-3.80612 0.44475,-8.10662 -1.99609,-11.44531 -1.77577,-2.22141 -4.93033,-3.26089 -5.87567,-6.14927 -3.01088,-7.85979 -5.61913,-15.90149 -8.88019,-23.64761 -0.87076,1.37275 -0.1163,3.52403 0.38602,5.07174 1.21054,3.60079 1.88946,7.35824 2.91645,11.0161 2.44054,9.62068 4.92109,19.23112 7.39284,28.8438 1.19288,1.88414 1.75579,5.56497 -0.97851,6.34375 -2.72493,0.17139 -3.90457,-2.79836 -5.25117,-4.63401 -2.16039,-3.16178 -4.46657,-6.23666 -6.325,-9.59255 -0.50196,-2.76001 3.4887,-3.34409 3.52929,-5.91992 -0.30354,-2.15652 -3.19954,-2.41816 -4.8457,-1.67969 -2.38505,1.59985 -5.12632,-0.57905 -6.41688,-2.58406 -5.27809,-7.27107 -10.75253,-14.43749 -17.13286,-20.78898 -9.19787,-9.26223 -19.91501,-17.32863 -32.17878,-22.0254 -11.60142,-4.07078 -24.0801,-3.577 -36.18805,-3.60096 -0.41778,0.0232 -0.83557,0.0465 -1.25335,0.0697 z m 109.24804,54.22461 c 0.87406,0.49903 -1.16558,-0.32799 0,0 z m 4.37696,36.06836 c 1.17353,3.37096 2.09393,6.82248 3.19531,10.2168 -2.70486,-1.72714 -2.82752,-5.2407 -3.66016,-8.02344 -0.53984,-0.98818 -0.58038,-5.35736 0.42174,-2.30909 z m 11.21484,43.00781 c 1.04513,2.6534 2.05526,5.40177 2.09766,8.28907 -1.59031,-2.61101 -2.25995,-5.69658 -2.24805,-8.73242 l 0.15036,0.44326 z m 12.28125,9.77344 c 2.64104,0.53073 3.74097,4.36682 1.7832,6.2168 -2.4117,-0.82006 -3.61674,-3.99516 -2.37304,-6.21485 l 0.29492,-0.043 z m -1.03711,7.84375 c 1.57328,0.89293 -0.78113,0.95642 -0.20898,-0.008 z M 520.37695,273.1543 c -0.15482,8.68572 -1.07515,17.34234 -2.44531,25.91601 -1.93544,2.57415 -5.87201,-0.83195 -4.23531,-3.39178 2.24698,-8.66184 3.3435,-17.64621 6.60161,-26.03082 0.16638,0.24445 0.0388,2.50914 0.079,3.50659 z m 215.49805,11.75 c 2.36475,1.31255 -2.64729,1.9663 -0.72266,0.31445 0.27758,-0.018 0.42971,-0.37317 0.72266,-0.31445 z m -228.10938,19.07031 c 2.28242,14.11193 2.57035,28.43724 2.8711,42.69922 -0.26267,2.60354 -4.38268,3.78859 -5.73242,1.38672 -1.81371,-3.70789 -1.68104,-7.94244 -2.425,-11.92201 -0.65613,-5.39588 -0.80209,-10.83849 -0.77227,-16.2694 -2.15809,-1.39774 3.01036,-2.66903 1.56055,-0.47266 -0.30718,2.53878 4.20222,0.54994 2.34961,-1.04687 0.59102,-4.7825 0.5342,-9.68327 1.94531,-14.33203 l 0.0957,-0.0508 z m 6.71094,0.84375 c 2.31197,1.26492 1.63726,4.74954 3.97656,5.99414 0.32056,4.32094 -2.10712,8.16433 -2.84112,12.31874 -0.77366,2.67175 -1.54732,5.3435 -2.32098,8.01524 -1.95725,-2.3021 -0.71208,-5.45108 -0.90235,-8.14453 -0.15225,-5.59903 0.14974,-11.19641 0.42188,-16.78711 0.30382,-0.6471 0.75569,-1.70273 1.66601,-1.39648 z m 2.18946,6.48437 c 0.0986,1.4675 -0.0386,-1.68456 0,0 z M 316.2793,337.38086 c -0.0523,0.80779 -0.87614,-0.52086 0,0 z M 536.65234,383.375 c 1.9528,1.4917 4.56158,2.37338 5.72461,4.69727 -0.35843,3.20249 -3.40645,4.96808 -5.11133,7.41601 -1.77114,1.88773 -3.86808,3.8402 -4.2539,6.53711 -1.1729,2.50795 -5.46499,1.818 -6.00781,-0.81836 -1.67119,-4.30101 0.35219,-9.14388 3.48632,-12.21875 1.61048,-1.94253 3.04683,-4.12123 5.20118,-5.51758 0.30688,-0.0929 0.64029,-0.16985 0.96093,-0.0957 z m 0.59961,17.98633 c -1.98691,2.58825 -4.47456,4.72032 -6.86133,6.92383 2.15353,-2.40697 4.37143,-4.76015 6.75,-6.94727 z m -5.41601,0.29492 c -1.07572,0.27441 0.48571,0.246 0,0 z m 32.20898,203.03906 0.0156,-0.0254 z m 387.16797,208.00391 c 4.2386,1.12555 7.44198,5.26545 7.48242,9.64844 1.41167,1.26873 0.67713,6.05088 -1.71484,3.93164 -2.68108,-3.43186 -4.4381,-7.45777 -6.65625,-11.18164 -0.56548,-0.94806 -0.97259,-2.94702 0.88867,-2.39844 z m -293.625,56.33203 c 2.59557,1.05841 2.16184,4.40059 1.79972,6.63793 -0.51849,4.33541 -1.03854,8.67186 -1.74699,12.98121 -2.36821,-2.81966 -1.76874,-6.76348 -2.7822,-10.09347 -0.37454,-2.39575 -1.14121,-4.74683 -1.10451,-7.19364 0.56518,-1.47079 2.20185,-2.77292 3.83398,-2.33203 z m -232.10937,18.34961 c 0.46601,1.81366 0.72774,5.10845 -1.69336,5.52539 -2.60669,-0.68737 0.21332,-6.2965 1.69336,-5.52539 z"
       sodipodi:nodetypes="ccccscccccccccccccscccsccccccccccccccccsccccccccccscccccscccccccccccsscscccccccccssccscscccccscccccscccsscssccccccscsccsccccccscccccccccccccccscscccscsccccsssccccsccccccscccccscccccccccscsscccccccscccccscccccscccccscccccsccccsccsccccccccsccsscccccccccccscccccccscsccccccccccscscccccccscscccccccccccccscscccccccccsccccccccccscccccscccccccsssccsccccsccccccccccsccccccccccccccsccccsccccccccscsccssscscsccscccccccsccccssccccccscssccccccccccccccscscsscsccc" />
    <path
       d="M3345 11180 c-3 -6 1 -7 9 -4 18 7 21 14 7 14 -6 0 -13 -4 -16 -10z"
       id="path50" />
    <path
       d="M3550 10755 c8 -10 14 -28 12 -39 -2 -17 -1 -18 7 -6 8 12 13 11 31 -5 12 -11 30 -36 40 -56 32 -62 47 -61 17 2 -23 49 -77 121 -77 103 0 -2 -10 1 -22 7 -22 11 -22 11 -8 -6z"
       id="path52" />
    <path
       d="M3436 10445 c-3 -9 0 -15 9 -15 8 0 15 4 15 9 0 5 8 12 18 14 11 3 8 5 -9 6 -16 1 -29 -5 -33 -14z"
       id="path54" />
    <path
       d="M2443 9790 c-13 -5 -23 -12 -23 -15 0 -4 5 -3 12 1 15 9 80 7 110 -5 12 -5 25 -8 28 -8 3 0 24 -10 48 -22 24 -12 51 -21 60 -19 23 4 -123 64 -173 71 -22 4 -50 2 -62 -3z"
       id="path56" />
    <path
       d="M3403 9733 c15 -2 37 -2 50 0 12 2 0 4 -28 4 -27 0 -38 -2 -22 -4z"
       id="path58" />
  </g>
</svg>
