<?xml version="1.0" encoding="UTF-8" standalone="no"?>
<svg
   xmlns:dc="http://purl.org/dc/elements/1.1/"
   xmlns:cc="http://creativecommons.org/ns#"
   xmlns:rdf="http://www.w3.org/1999/02/22-rdf-syntax-ns#"
   xmlns:svg="http://www.w3.org/2000/svg"
   xmlns="http://www.w3.org/2000/svg"
   xmlns:sodipodi="http://sodipodi.sourceforge.net/DTD/sodipodi-0.dtd"
   xmlns:inkscape="http://www.inkscape.org/namespaces/inkscape"
   version="1.0"
   width="1040.000000pt"
   height="1280.000000pt"
   viewBox="0 0 1040.000000 1280.000000"
   preserveAspectRatio="xMidYMid meet"
   id="svg166"
   sodipodi:docname="120elementalist.svg"
   inkscape:version="1.0.2 (e86c870879, 2021-01-15, custom)">
  <defs
     id="defs170" />
  <sodipodi:namedview
     pagecolor="#ffffff"
     bordercolor="#666666"
     borderopacity="1"
     objecttolerance="10"
     gridtolerance="10"
     guidetolerance="10"
     inkscape:pageopacity="0"
     inkscape:pageshadow="2"
     inkscape:window-width="1920"
     inkscape:window-height="1017"
     id="namedview168"
     showgrid="false"
     inkscape:zoom="0.4038086"
     inkscape:cx="190.36195"
     inkscape:cy="791.98363"
     inkscape:window-x="-8"
     inkscape:window-y="-8"
     inkscape:window-maximized="1"
     inkscape:current-layer="svg166"
     inkscape:document-rotation="0" />
  <metadata
     id="metadata144">
Created by potrace 1.15, written by Peter Selinger 2001-2017
<rdf:RDF>
  <cc:Work
     rdf:about="">
    <dc:format>image/svg+xml</dc:format>
    <dc:type
       rdf:resource="http://purl.org/dc/dcmitype/StillImage" />
    <dc:title></dc:title>
  </cc:Work>
</rdf:RDF>
</metadata>
  <g
     transform="translate(0.000000,1280.000000) scale(0.100000,-0.100000)"
     fill="#000000"
     stroke="none"
     id="g164">
    <path
       d="m 4583,12580 c -56,-11 -128,-32 -160,-46 -48,-21 -76,-26 -163,-29 -177,-6 -303,-56 -367,-148 -18,-26 -31,-47 -28,-47 3,0 -14,-37 -37,-82 -35,-70 -42,-93 -43,-148 -1,-36 -8,-83 -15,-105 l -13,-40 -17,59 c -12,44 -18,55 -23,42 -9,-23 3,-92 13,-76 4,7 10,-3 13,-24 5,-34 -11,-105 -47,-204 -14,-39 -14,-45 -1,-59 13,-13 15,-12 15,7 0,25 21,112 26,108 2,-2 -5,-53 -15,-113 -18,-112 -49,-188 -98,-241 -26,-28 -60,-160 -67,-259 -3,-46 -2,-56 3,-30 l 7,40 8,-46 c 4,-25 7,-54 6,-65 -4,-38 0,-65 9,-59 6,3 27,-32 49,-77 42,-89 58,-109 115,-148 38,-26 50,28 50,28 -11.6595,1.299 -53.2829,-61.852 -80.4533,-56.437 -16,10.668 0,0 0,0 -48.9298,9.252 -27.045,24.638 -48.4929,24.205 -56.1708,7.588 -96.7005,20.697 -132.5511,24.548 -60.3685,3.822 -219.3507,32.783 -305.2143,-8.868 -268.9,13.201 -400.9677,-65.989 -510.3291,-130.718 -203.0647,-92.962 -101.4928,-118.356 -105.4887,-117.844 C 2295.031,10838.854 1916.2001,10336.026 2046,10334 c -34,-6 -5,-17 0,0 15.2791,-26.71 56.1759,46.032 91.6616,100.09 25.6365,39.054 349.3583,117.723 39.9418,225.489 88.4717,250.516 195.5232,483.168 13.5142,700.421 -12,127 -90.1176,297 -131.1176,358 -16,25 -39,70 -50,100 -40,106 -91,182 -123,182 -36,0 -190,-100 -244,-159 l -53,-56 7,65 c 3,40 14,76 25,93 28,40 35,99 13,120 -9,9 -20,17 -24,17 -23,0 -103,-114 -127,-181 -24,-65 -27,-91 -29,-214 -1,-108 -6,-148 -18,-172 -23,-44 -21,-74 8,-114 14,-19 33,-53 44,-75 11,-23 36,-55 56,-70 20,-16 48,-39 61,-52 14,-12 49,-34 77,-48 29,-15 64,-35 79,-45 l -79,45 c 2.5272,-45.196 28.8152,-90.392 0.2666,-135.588 -157.6405,-77.147 -275.6807,-213.879 -271.2025,-269.025 C 1268.9376,10432.805 1297.0714,10261.647 1270,10067 c -57.5708,-413.94 669.5812,-585.9028 589.9378,-573.3597 24.7849,-850.0203 878.3557,-325.2645 612.2494,-56.723 -356.5952,-1466.5922 624.147,-413.8582 653.755,-175.2198 116.3847,-59.9347 261.2229,165.8398 255.8814,214.1261 -8.3563,75.5392 27.4117,367.294 27.4117,367.294 v 0 0 c -19,-105 -69.2315,-183.5072 -59.2315,-388.5072 -1042.0199,18.5049 -2452.83682,-1117.2549 -369.3149,-1063.5284 117.7273,-251.3244 423.4598,229.4819 423.4598,229.4819 -203.8739,-59.0764 -1383.1581,83.2999 -1611.5215,-47.169 -313.0065,-180.4422 -339.7383,-32.4678 -672.6761,-416.1237 C 750.15755,7761.8696 673.84865,6464.0686 837.46613,6505.8645 807.85349,4258.971 3038.3899,6265.9413 3079.9971,6918.0801 c -17.2754,-68.2544 -854.2949,-77.1591 -678.1828,-547.1665 63.6151,-1548.6786 509.5388,-92.8685 596.5526,283.2443 83.6915,267.4333 -208.605,-79.5558 0,0 -45.1473,103.3206 -1076.1829,-2.2738 -966.9911,-423.2265 -1952.551518,-571.8587 220.8574,-3536.892 340.8164,-1029.5679 269.5959,-89.8255 -14.6025,-4.6563 0,0 -4.0461,-47.2236 -97.0897,77.1007 0,0 0,0 470.5474,58.7529 157.5985,52.5328 -315.0519,638.4098 -654.3727,-854.4686 -547.3765,-1322.6208 82.4982,-352.034 459.0669,-860.4703 618.4513,-883.3302 123.3377,-17.6899 -153.0606,135.5598 -93.9303,93.4761 150.7417,-227.6932 354.9706,49.6355 288.711,107.7522 -33.6525,-117.776 -283.8998,-59.7253 -175.6251,-408.8575 -81.7421,-251.9261 207.1809,-985.2487 337.8952,-979.3375 79.2319,-183.5242 334.1888,-239.9025 366.4694,-253.6219 22.1071,-9.3956 -103.1874,70.4329 -95.1874,46.4329 15,-42 75.7545,-164.503 33.7545,-271.503 C 3219.9528,1271.2866 3243,1073 3215,1050 c -8,-7 -15,-17 -15,-23 0,-11 -38,-94 -131,-282 -57,-115 -72,-178 -58,-250 25,-134 204,-285 340,-285 111,0 233,56 272,124 6,11 15,64 18,116 8,100 41,318 58,373 5,17 17,73 26,122 9,50 30,120 46,158 17,37 37,98 45,135 9,37 57.2164,100.3918 79.2164,155.3918 69.894,109.5788 114.079,100.191 90.6493,219.1051 88.7519,-124.2859 276.4422,194.6207 239.6351,442.4204 50.3057,144.2528 59.8308,170.8794 23.091,415.9259 118.0615,188.0434 16.945,252.0561 32.2008,334.0481 26.9907,129 15.8394,330.2741 -141.8432,460.4643 35.2219,2.7772 -6.6872,-40.8235 0,0 v 0 c 49.5358,-77.2479 365.2751,-155.2059 325.5126,1233.3689 99.1148,214.2531 194.1776,557.7885 1.7145,279.5696 v 0 L 4523,4778 c 56,5 -9.7626,5.801 -6.9412,6 70.5547,4.9761 -291.1115,-756.7307 -141.0773,-806.5148 12.1318,-113.1318 13.4437,26.7667 13.9299,-55.7195 1,-76 4.5301,-93.4796 -2.4699,-119.4796 -7,-25 23.2925,-99.8078 -14.7075,-179.8078 -38,-80 -163.0825,-210.8879 -184.0825,-270.8879 -165.8473,-99.7335 -73.4481,-110.2013 27.8547,-256.7495 -3,-112 49.2864,-181.9496 65.2864,-289.9496 -17.1765,-186 -47.2918,-564.974 -55.2918,-749.974 -174.3726,-337.2123 -1.8935,-544.4019 58.9611,-462.9173 -8,-15 -23.2164,-23.2164 -23.2164,-23.2164 -11.6082,-23.9299 -46.4329,53.3978 -36.3217,15.9358 -50,-66 -42.4619,-170.7545 -47.4619,-277.7545 -5,-91 22.5381,-109.9649 68.5381,-271.9649 40,-141 48,-183 47,-245 -2,-105 -22,-285 -39,-351 -33,-129 -13,-163 136,-238 127,-64 227,-87 311,-72 128,22 186,81 173,176 -3,28 -5,72 -5,98 2,34 -4,58 -20,83 -25,42 -60,194 -62,274 -1,32 -9,66 -18,81 5.503,38.67836 37.2576,152.39178 39.2576,302.3918 1,121 -32.1463,152 -27.7195,230 15,50 96.2893,85.2969 98.2893,110.2969 0,0 406.5471,170.2492 473.1207,485.4625 194.275,210.8741 385.6757,893.9396 251.9855,1026.1202 579.9337,456.4737 15.7756,212.2285 -147.5017,329.6803 0,0 47.3943,-131.1628 8.6266,-69.376 -111.8916,32.5396 226.4909,-518.0371 626.6646,223.4795 89.1693,208.2617 393.3588,568.0665 423.0857,1070.6239 338.4695,373.3857 -1.3827,824.376 -267.942,485.4522 -201.3823,87.7287 -180.9979,27.3275 0,0 47.125,30.75 -64,-22 0,0 40,14 -19,367.4631 -148.5853,74.2926 203.8901,52.169 147.9066,39.2896 176.445,83.5792 -192.2468,123.0703 -461.4196,-672.3298 190.9089,-673.777 139.8729,-0.3103 457.0555,1009.4674 185.708,756.0359 72.4547,96.5298 156.0452,-75.2424 273.7539,143.1608 913.5413,723.9946 53.6276,1224.5028 -271.6757,1105.91 291.5089,448.0439 -274.4181,416.9355 -330.3959,367.1452 -9,58 0,0 0,0 0,0 233.0256,-392.7657 231.8969,-314.6124 16.2339,-208.406 252.684,-1224.145 430.0713,-397.126 197.3945,-1293.351 1048.8647,917.7262 455.7735,1425.7193 -22.354,117.4435 -176.5508,-95.9444 -209.7447,-77.1093 706.7965,-21.927 -493.8079,585.7236 -1102.585,521.2126 C 6060.3951,8146.477 5629.5896,8172.4735 5601,8210 c -2,16 -16.7868,-62.3363 21.2132,-58.3363 37,5 -47.2132,28.3363 -21.2132,58.3363 67.3446,-116.3559 329.0427,-163.6935 267.4135,-76.8586 1419.8059,-811.5731 1038.5921,546.2956 68.4688,661.9704 -61.5639,7.3407 -95.6159,344.2859 -119.6159,412.2859 v 0 l -322.1478,-243.3883 c -175.0503,-159.195 1239.5724,-613.7321 934.4603,-93.3065 -449.5068,-307.0126 -1736.0263,551.7999 -216.106,-206.835 -204.3748,6.0813 387.0409,-674.1093 905.6799,-95.7589 78.4435,-33.7223 361.453,-108.5471 653.9262,15.8031 110.5035,68.4565 344.0463,259.1585 227.921,190.0879 22,-4 39,-2 43,4 4,6 13,9 21,6 8,-4 18,1 21,10 4,11 1.9299,-57.3628 0,0 25,-8 68.5835,23.3299 61.5835,41.3299 -9,18.4222 12.1922,-19.6314 112.7106,31.7289 29.9733,15.315 77.6717,-29.5941 86.1393,31.5356 14.0958,-11.6559 79.8263,-24.0732 122.9934,68.119 C 8350.3079,8836.1582 8624.3746,8905.3662 8701,8920 c 163,-56 195,-54 285,22 113,95 140,125 153,169 16,54 48,102 83,125 16,11 51,45 79,76 43,49 48,60 39,78 -6,11 -20,20 -30,20 -13,0 -20,7 -20,19 0,49 -60,37 -92,-18 -12,-21 -31,-42 -42,-47 -12,-5 -32,-26 -45,-46 -15,-23 -32,-38 -44,-38 -11,0 -45,-12 -75,-26 -54,-26 -55,-26 -96,-8 -55,24 -80,47 -102,96 -18,40 -18,41 4,59 13,10 48,23 80,29 112,23 143,33 183,62 34,25 40,34 37,61 l -3,32 -85,-3 c -47,-2 -117,-10 -157,-18 -40,-8 -92,-14 -116,-14 -74,0 -263,-79 -382,-158 -116,-79 -216.4395,-107.647 -242.4395,-85.647 -18.1656,16.2674 -202.1407,15.1721 -171.4429,-28.8236 3.664,-5.2512 13.0351,16.769 -6.9649,12.769 -19.59,-4 -57.4765,-28.5644 -64.2434,-39.5644 -7.4146,-20.618 -137.0824,164.0555 -352.5695,71.6793 -372.852,156.7225 -364.1725,125.4475 -369.1735,32.0189 66.4009,275.2816 -500.2372,57.2576 -351.4476,122.0357 87.2876,41.7913 -97.7431,-28.0553 -52.5329,-13.1332 655.2444,-209.2494 -412.9529,907.4863 -416.8227,410.0164 -0.827,-106.3151 168.1872,230.8339 3.7099,238.8669 -10.1298,267.509 -496.9555,443.01 -435.073,266.782 4,66 63,-57 90,18 l 37,103 -27,50 c -87,165 -81,148 -82,255 0,139 10,116 -91,206 l -52,46 24,58 c 19,48 21,63 12,83 -9,19 -8,27 3,36 42,33 52,115 25,192 -14,41 -58,127 -78,152 -5,6 -7,12 -3,12 3,0 -2,8 -11,18 -10,9 -27,29 -38,43 -11,14 -30,31 -43,38 -12,6 -22,18 -22,26 0,15 22,6 108,-47 17,-11 32,-17 32,-15 0,3 -31,25 -70,48 -38,24 -67,45 -65,48 3,2 0,10 -6,18 -7,8 -9,31 -6,57 7,49 -10,93 -73,186 -20,30 -42,70 -48,88 l -11,33 45,-37 c 25,-21 59,-53 77,-73 18,-20 29,-32 25,-27 -17,21 -7,28 15,10 l 22,-19 -20,25 c -11,14 -65,72 -120,130 -56,58 -118,130 -138,162 -21,31 -45,62 -54,70 -10,7 -4,-4 11,-25 45,-59 24,-54 -43,11 -34,33 -92,76 -129,96 -46,26 -58,35 -37,31 22,-4 26,-3 15,4 -8,6 -45,15 -83,22 -50,9 -75,20 -97,41 -16,15 -33,29 -37,29 -112,19 -267,19 -370,-1 z m 407,-36 c 0,-2 -13,2 -30,11 -16,9 -30,18 -30,21 0,2 14,-2 30,-11 17,-9 30,-18 30,-21 z m -860,-149 c -7,-8 -18,-15 -24,-15 -6,0 -2,7 8,15 25,19 32,19 16,0 z m 1331,-227 c 8,-15 8,-18 0,-14 -6,4 -16,16 -22,28 -8,15 -8,18 0,14 6,-4 16,-16 22,-28 z m 177,-144 c -4,-3 -12,5 -18,18 -12,22 -12,22 6,6 10,-10 15,-20 12,-24 z m -1868,-150 c -16,-43 -29,-71 -30,-62 0,10 8,39 18,65 11,26 22,57 26,67 3,10 9,17 11,14 3,-2 -8,-40 -25,-84 z m -1928,-51 c 13,-28 13,-28 -49,-59 -35,-17 -63,-27 -63,-23 0,7 89,109 95,109 2,0 10,-12 17,-27 z m 48,-138 c 0,-15 -38,-40 -48,-31 -6,6 28,44 41,45 4,1 7,-6 7,-14 z m 3880,-257 c 0,-6 -11,-1 -25,12 -14,13 -25,31 -25,39 1,11 8,8 25,-12 14,-15 25,-33 25,-39 z m -147,-8 c -4,-14 0,-20 11,-20 9,0 28,-7 42,-16 13,-9 27,-14 30,-11 3,3 -4,10 -15,17 -24,13 -28,30 -6,30 8,0 15,-4 15,-10 0,-5 6,-10 13,-10 8,0 24,-11 37,-26 19,-19 22,-27 11,-33 -9,-6 -10,-11 -2,-15 6,-4 11,-14 11,-22 0,-10 -5,-12 -12,-8 -10,6 -10,5 -2,-7 9,-11 9,-17 -1,-26 -11,-10 -20,-3 -47,32 -18,24 -44,50 -57,57 -31,17 -57,88 -32,88 5,0 7,-9 4,-20 z m 37,0 c 0,-5 -2,-10 -4,-10 -3,0 -8,5 -11,10 -3,6 -1,10 4,10 6,0 11,-4 11,-10 z m 110,-43 c 0,-6 -11,0 -25,13 -14,13 -25,28 -25,33 0,6 11,0 25,-13 14,-13 25,-28 25,-33 z m -1990,26 c 0,-5 -5,-26 -11,-48 -10,-33 -13,-37 -19,-20 -8,22 7,75 21,75 5,0 9,-3 9,-7 z m -47,-123 c -7,-28 -13,-25 -13,6 0,14 4,23 9,20 5,-3 7,-15 4,-26 z m 35,-182 c 12,-27 19,-48 17,-48 -7,0 -45,78 -45,91 0,17 5,10 28,-43 z m -79,-45 c 1,-13 -3,-23 -9,-23 -5,0 -10,19 -9,43 0,32 2,37 9,22 5,-11 9,-30 9,-42 z m 55,-134 c -30,-67 -44,-46 -44,64 v 72 l 31,-49 31,-49 z m -67,59 c -3,-8 -6,-5 -6,6 -1,11 2,17 5,13 3,-3 4,-12 1,-19 z m 121,-93 c 9,-29 11,-55 5,-67 -8,-18 -10,-17 -40,14 l -31,33 16,38 c 9,20 21,36 27,34 5,-2 16,-25 23,-52 z m 1372,-351 c 0,-8 -4,-12 -10,-9 -5,3 -10,13 -10,21 0,8 5,12 10,9 6,-3 10,-13 10,-21 z m 773,-36 c 0,-13 -21,-67 -47,-119 -43,-87 -72.9374,-17.652 -78.9374,-112.652 -6,-105 12,-70 0,0 -16,93 109.9374,15.652 168.9374,130.652 49,95 -64,88 -69,120 -6,33 -5,35 10,21 8,-9 16,-27 16,-40 z M 8030,8800 c 0,-5 14,-22 -11,-10 -4.5076,2.1637 -0.6433,-36.0762 2.3567,-31.0762 3,6 -3,0 0,0 2,0 8.6433,47.0762 8.6433,41.0762 z M 4857,428 c -3,-8 -6,-5 -6,6 -1,11 2,17 5,13 3,-3 4,-12 1,-19 z"
       id="path146"
       sodipodi:nodetypes="csccsccccccccccsccccccccccsccccccccccsccccscccccsccccccccccccscccscccccccccccccccccccsccccscccsccsccccccccccccccccccscccscccccsccccccccccccccccccccccccccsccccccccccccccsccccccccsccccsccccccccsscccscccccccccssccsccccccscccccccccccccscscscscccccsccsccccccccccccccccscscscscccccccccccccccccccsscsccsssccscscscssscccscccccscsscssssssssccsscssccssccsccccscccccccccccccccscscssccccccssscsscccc" />
    <path
       d="M3821 12370 c-28 -28 -56 -61 -61 -73 -11 -22 -11 -22 5 -2 8 11 39 44 67 73 28 28 49 52 46 52 -3 0 -28 -23 -57 -50z"
       id="path148" />
    <path
       d="M3824 12288 l-19 -23 23 19 c21 18 27 26 19 26 -2 0 -12 -10 -23 -22z"
       id="path150" />
    <path
       d="M3735 12259 c-4 -6 -5 -12 -2 -15 2 -3 7 2 10 11 7 17 1 20 -8 4z"
       id="path152" />
    <path
       d="M3712 12100 c0 -19 2 -27 5 -17 2 9 2 25 0 35 -3 9 -5 1 -5 -18z"
       id="path154" />
    <path
       d="M5650 11840 c0 -13 5 -18 15 -14 10 4 15 0 15 -11 0 -9 4 -14 9 -11 5 4 12 0 14 -6 4 -10 6 -10 6 -1 1 12 -41 63 -53 63 -3 0 -6 -9 -6 -20z"
       id="path156" />
    <path
       d="M5732 11735 c0 -16 2 -22 5 -12 2 9 2 23 0 30 -3 6 -5 -1 -5 -18z"
       id="path158" />
    <path
       d="M5925 11469 c17 -20 31 -35 33 -34 7 6 -12 32 -36 50 -27 19 -27 19 3 -16z"
       id="path160" />
    <path
       d="M3544 11025 c-7 -29 2 -130 14 -151 4 -8 7 27 5 77 -3 98 -8 118 -19 74z"
       id="path162" />
  </g>
</svg>
