<?xml version="1.0" encoding="UTF-8" standalone="no"?>
<svg
   xmlns:dc="http://purl.org/dc/elements/1.1/"
   xmlns:cc="http://creativecommons.org/ns#"
   xmlns:rdf="http://www.w3.org/1999/02/22-rdf-syntax-ns#"
   xmlns:svg="http://www.w3.org/2000/svg"
   xmlns="http://www.w3.org/2000/svg"
   xmlns:sodipodi="http://sodipodi.sourceforge.net/DTD/sodipodi-0.dtd"
   xmlns:inkscape="http://www.inkscape.org/namespaces/inkscape"
   version="1.0"
   width="1040.000000pt"
   height="1280.000000pt"
   viewBox="0 0 1040.000000 1280.000000"
   preserveAspectRatio="xMidYMid meet"
   id="svg166"
   sodipodi:docname="120elementalist_corrupt.svg"
   inkscape:version="1.0.2 (e86c870879, 2021-01-15, custom)">
  <defs
     id="defs170" />
  <sodipodi:namedview
     pagecolor="#ffffff"
     bordercolor="#666666"
     borderopacity="1"
     objecttolerance="10"
     gridtolerance="10"
     guidetolerance="10"
     inkscape:pageopacity="0"
     inkscape:pageshadow="2"
     inkscape:window-width="1920"
     inkscape:window-height="1017"
     id="namedview168"
     showgrid="false"
     inkscape:zoom="0.4038086"
     inkscape:cx="-184.43161"
     inkscape:cy="719.74484"
     inkscape:window-x="-8"
     inkscape:window-y="-8"
     inkscape:window-maximized="1"
     inkscape:current-layer="svg166"
     inkscape:document-rotation="0" />
  <metadata
     id="metadata144">
Created by potrace 1.15, written by Peter Selinger 2001-2017
<rdf:RDF>
  <cc:Work
     rdf:about="">
    <dc:format>image/svg+xml</dc:format>
    <dc:type
       rdf:resource="http://purl.org/dc/dcmitype/StillImage" />
    <dc:title></dc:title>
  </cc:Work>
</rdf:RDF>
</metadata>
  <g
     transform="translate(0.000000,1280.000000) scale(0.100000,-0.100000)"
     fill="#000000"
     stroke="none"
     id="g164">
    <path
       d="m 4583,12580 c -56,-11 -128,-32 -160,-46 -48,-21 -76,-26 -163,-29 -177,-6 -303,-56 -367,-148 -18,-26 -31,-47 -28,-47 3,0 -14,-37 -37,-82 -35,-70 -42,-93 -43,-148 -1,-36 -8,-83 -15,-105 l -13,-40 -17,59 c -12,44 -18,55 -23,42 -9,-23 3,-92 13,-76 4,7 10,-3 13,-24 5,-34 -11,-105 -47,-204 -14,-39 -14,-45 -1,-59 13,-13 15,-12 15,7 0,25 21,112 26,108 2,-2 -5,-53 -15,-113 -18,-112 -49,-188 -98,-241 -26,-28 -60,-160 -67,-259 -3,-46 -2,-56 3,-30 l 7,40 8,-46 c 4,-25 7,-54 6,-65 -4,-38 0,-65 9,-59 6,3 27,-32 49,-77 42,-89 58,-109 115,-148 38,-26 50,28 50,28 -11.6595,1.299 -53.2829,-61.852 -80.4533,-56.437 -16,10.668 0,0 0,0 -48.9298,9.252 -27.045,24.638 -48.4929,24.205 -56.1708,7.588 -96.7005,20.697 -132.5511,24.548 -60.3685,3.822 -219.3507,32.783 -305.2143,-8.868 -268.9,13.201 -400.9677,-65.989 -510.3291,-130.718 -203.0647,-92.962 -101.4928,-118.356 -105.4887,-117.844 C 2295.031,10838.854 1916.2001,10336.026 2046,10334 c -34,-6 -5,-17 0,0 15.2791,-26.71 56.1759,46.032 91.6616,100.09 25.6365,39.054 349.3583,117.723 39.9418,225.489 88.4717,250.516 195.5232,483.168 13.5142,700.421 -12,127 -90.1176,297 -131.1176,358 -16,25 -39,70 -50,100 -40,106 -91,182 -123,182 -36,0 -190,-100 -244,-159 l -53,-56 7,65 c 3,40 14,76 25,93 28,40 35,99 13,120 -9,9 -20,17 -24,17 -23,0 -103,-114 -127,-181 -24,-65 -27,-91 -29,-214 -1,-108 -6,-148 -18,-172 -23,-44 -21,-74 8,-114 14,-19 33,-53 44,-75 11,-23 36,-55 56,-70 20,-16 48,-39 61,-52 14,-12 49,-34 77,-48 29,-15 64,-35 79,-45 l -79,45 c 2.5272,-45.196 28.8152,-90.392 0.2666,-135.588 -157.6405,-77.147 -275.6807,-213.879 -271.2025,-269.025 C 1268.9376,10432.805 1297.0714,10261.647 1270,10067 c -57.5708,-413.94 669.5812,-585.9028 589.9378,-573.3597 24.7849,-850.0203 878.3557,-325.2645 612.2494,-56.723 -356.5952,-1466.5922 624.147,-413.8582 653.755,-175.2198 116.3847,-59.9347 261.2229,165.8398 255.8814,214.1261 -8.3563,75.5392 27.4117,367.294 27.4117,367.294 v 0 0 c -19,-105 -69.2315,-183.5072 -59.2315,-388.5072 -1042.0199,18.5049 -2452.83682,-1117.2549 -369.3149,-1063.5284 117.7273,-251.3244 423.4598,229.4819 423.4598,229.4819 -203.8739,-59.0764 -1383.1581,83.2999 -1611.5215,-47.169 -313.0065,-180.4422 -339.7383,-32.4678 -672.6761,-416.1237 C 750.15755,7761.8696 673.84865,6464.0686 837.46613,6505.8645 807.85349,4258.971 3038.3899,6265.9413 3079.9971,6918.0801 c -17.2754,-68.2544 -854.2949,-77.1591 -678.1828,-547.1665 63.6151,-1548.6786 509.5388,-92.8685 596.5526,283.2443 83.6915,267.4333 -208.605,-79.5558 0,0 -45.1473,103.3206 -1076.1829,-2.2738 -966.9911,-423.2265 -1952.551518,-571.8587 220.8574,-3536.892 340.8164,-1029.5679 269.5959,-89.8255 -14.6025,-4.6563 0,0 -4.0461,-47.2236 -97.0897,77.1007 0,0 0,0 470.5474,58.7529 157.5985,52.5328 -315.0519,638.4098 -654.3727,-854.4686 -547.3765,-1322.6208 82.4982,-352.034 459.0669,-860.4703 618.4513,-883.3302 123.3377,-17.6899 -153.0606,135.5598 -93.9303,93.4761 150.7417,-227.6932 354.9706,49.6355 288.711,107.7522 -33.6525,-117.776 -283.8998,-59.7253 -175.6251,-408.8575 -81.7421,-251.9261 207.1809,-985.2487 337.8952,-979.3375 79.2319,-183.5242 334.1888,-239.9025 366.4694,-253.6219 22.1071,-9.3956 -103.1874,70.4329 -95.1874,46.4329 15,-42 75.7545,-164.503 33.7545,-271.503 C 3219.9528,1271.2866 3243,1073 3215,1050 c -8,-7 -15,-17 -15,-23 0,-11 -38,-94 -131,-282 -57,-115 -72,-178 -58,-250 25,-134 204,-285 340,-285 111,0 233,56 272,124 6,11 15,64 18,116 8,100 41,318 58,373 5,17 17,73 26,122 9,50 30,120 46,158 17,37 37,98 45,135 9,37 57.2164,100.3918 79.2164,155.3918 69.894,109.5788 114.079,100.191 90.6493,219.1051 88.7519,-124.2859 276.4422,194.6207 239.6351,442.4204 50.3057,144.2528 59.8308,170.8794 23.091,415.9259 118.0615,188.0434 16.945,252.0561 32.2008,334.0481 26.9907,129 15.8394,330.2741 -141.8432,460.4643 35.2219,2.7772 -6.6872,-40.8235 0,0 v 0 c 49.5358,-77.2479 365.2751,-155.2059 325.5126,1233.3689 99.1148,214.2531 194.1776,557.7885 1.7145,279.5696 v 0 L 4523,4778 c 56,5 -9.7626,5.801 -6.9412,6 70.5547,4.9761 -291.1115,-756.7307 -141.0773,-806.5148 12.1318,-113.1318 13.4437,26.7667 13.9299,-55.7195 1,-76 4.5301,-93.4796 -2.4699,-119.4796 -7,-25 23.2925,-99.8078 -14.7075,-179.8078 -38,-80 -163.0825,-210.8879 -184.0825,-270.8879 -165.8473,-99.7335 -73.4481,-110.2013 27.8547,-256.7495 -3,-112 49.2864,-181.9496 65.2864,-289.9496 -17.1765,-186 -47.2918,-564.974 -55.2918,-749.974 -174.3726,-337.2123 -1.8935,-544.4019 58.9611,-462.9173 -8,-15 -23.2164,-23.2164 -23.2164,-23.2164 -11.6082,-23.9299 -46.4329,53.3978 -36.3217,15.9358 -50,-66 -42.4619,-170.7545 -47.4619,-277.7545 -5,-91 22.5381,-109.9649 68.5381,-271.9649 40,-141 48,-183 47,-245 -2,-105 -22,-285 -39,-351 -33,-129 -13,-163 136,-238 127,-64 227,-87 311,-72 128,22 186,81 173,176 -3,28 -5,72 -5,98 2,34 -4,58 -20,83 -25,42 -60,194 -62,274 -1,32 -9,66 -18,81 5.503,38.67836 37.2576,152.39178 39.2576,302.3918 1,121 -32.1463,152 -27.7195,230 15,50 96.2893,85.2969 98.2893,110.2969 0,0 406.5471,170.2492 473.1207,485.4625 194.275,210.8741 385.6757,893.9396 251.9855,1026.1202 579.9337,456.4737 15.7756,212.2285 -147.5017,329.6803 0,0 47.3943,-131.1628 8.6266,-69.376 -111.8916,32.5396 226.4909,-518.0371 626.6646,223.4795 89.1693,208.2617 393.3588,568.0665 423.0857,1070.6239 338.4695,373.3857 -1.3827,824.376 -267.942,485.4522 -201.3823,87.7287 -180.9979,27.3275 0,0 47.125,30.75 -64,-22 0,0 40,14 -19,367.4631 -148.5853,74.2926 203.8901,52.169 147.9066,39.2896 176.445,83.5792 -192.2468,123.0703 -461.4196,-672.3298 190.9089,-673.777 139.8729,-0.3103 457.0555,1009.4674 185.708,756.0359 72.4547,96.5298 156.0452,-75.2424 273.7539,143.1608 913.5413,723.9946 53.6276,1224.5028 -271.6757,1105.91 291.5089,448.0439 -274.4181,416.9355 -330.3959,367.1452 -9,58 0,0 0,0 0,0 233.0256,-392.7657 231.8969,-314.6124 16.2339,-208.406 252.684,-1224.145 430.0713,-397.126 197.3945,-1293.351 1048.8647,917.7262 455.7735,1425.7193 -22.354,117.4435 -176.5508,-95.9444 -209.7447,-77.1093 706.7965,-21.927 -493.8079,585.7236 -1102.585,521.2126 C 6060.3951,8146.477 5629.5896,8172.4735 5601,8210 c -2,16 -16.7868,-62.3363 21.2132,-58.3363 37,5 -47.2132,28.3363 -21.2132,58.3363 67.3446,-116.3559 329.0427,-163.6935 267.4135,-76.8586 1419.8059,-811.5731 1038.5921,546.2956 68.4688,661.9704 -61.5639,7.3407 -95.6159,344.2859 -119.6159,412.2859 v 0 l -322.1478,-243.3883 c -175.0503,-159.195 1239.5724,-613.7321 934.4603,-93.3065 -449.5068,-307.0126 -1736.0263,551.7999 -216.106,-206.835 -204.3748,6.0813 387.0409,-674.1093 905.6799,-95.7589 78.4435,-33.7223 361.453,-108.5471 653.9262,15.8031 110.5035,68.4565 344.0463,259.1585 227.921,190.0879 22,-4 39,-2 43,4 4,6 13,9 21,6 8,-4 18,1 21,10 4,11 1.9299,-57.3628 0,0 25,-8 68.5835,23.3299 61.5835,41.3299 -9,18.4222 12.1922,-19.6314 112.7106,31.7289 29.9733,15.315 77.6717,-29.5941 86.1393,31.5356 14.0958,-11.6559 79.8263,-24.0732 122.9934,68.119 C 8350.3079,8836.1582 8624.3746,8905.3662 8701,8920 c 163,-56 195,-54 285,22 113,95 140,125 153,169 16,54 48,102 83,125 16,11 51,45 79,76 43,49 48,60 39,78 -6,11 -20,20 -30,20 -13,0 -20,7 -20,19 0,49 -60,37 -92,-18 -12,-21 -31,-42 -42,-47 -12,-5 -32,-26 -45,-46 -15,-23 -32,-38 -44,-38 -11,0 -45,-12 -75,-26 -54,-26 -55,-26 -96,-8 -55,24 -80,47 -102,96 -18,40 -18,41 4,59 13,10 48,23 80,29 112,23 143,33 183,62 34,25 40,34 37,61 l -3,32 -85,-3 c -47,-2 -117,-10 -157,-18 -40,-8 -92,-14 -116,-14 -74,0 -263,-79 -382,-158 -116,-79 -216.4395,-107.647 -242.4395,-85.647 -18.1656,16.2674 -202.1407,15.1721 -171.4429,-28.8236 3.664,-5.2512 13.0351,16.769 -6.9649,12.769 -19.59,-4 -57.4765,-28.5644 -64.2434,-39.5644 -7.4146,-20.618 -137.0824,164.0555 -352.5695,71.6793 -372.852,156.7225 -364.1725,125.4475 -369.1735,32.0189 66.4009,275.2816 -500.2372,57.2576 -351.4476,122.0357 87.2876,41.7913 -97.7431,-28.0553 -52.5329,-13.1332 655.2444,-209.2494 -412.9529,907.4863 -416.8227,410.0164 -0.827,-106.3151 168.1872,230.8339 3.7099,238.8669 -10.1298,267.509 -496.9555,443.01 -435.073,266.782 4,66 63,-57 90,18 l 37,103 -27,50 c -87,165 -81,148 -82,255 0,139 10,116 -91,206 l -52,46 24,58 c 19,48 21,63 12,83 -9,19 -8,27 3,36 42,33 52,115 25,192 -14,41 -58,127 -78,152 -5,6 -7,12 -3,12 3,0 -2,8 -11,18 -10,9 -27,29 -38,43 -11,14 -30,31 -43,38 -12,6 -22,18 -22,26 0,15 22,6 108,-47 17,-11 32,-17 32,-15 0,3 -31,25 -70,48 -38,24 -67,45 -65,48 3,2 0,10 -6,18 -7,8 -9,31 -6,57 7,49 -10,93 -73,186 -20,30 -42,70 -48,88 l -11,33 45,-37 c 25,-21 59,-53 77,-73 18,-20 29,-32 25,-27 -17,21 -7,28 15,10 l 22,-19 -20,25 c -11,14 -65,72 -120,130 -56,58 -118,130 -138,162 -21,31 -45,62 -54,70 -10,7 -4,-4 11,-25 45,-59 24,-54 -43,11 -34,33 -92,76 -129,96 -46,26 -58,35 -37,31 22,-4 26,-3 15,4 -8,6 -45,15 -83,22 -50,9 -75,20 -97,41 -16,15 -33,29 -37,29 -112,19 -267,19 -370,-1 z m 407,-36 c 0,-2 -13,2 -30,11 -16,9 -30,18 -30,21 0,2 14,-2 30,-11 17,-9 30,-18 30,-21 z m -860,-149 c -7,-8 -18,-15 -24,-15 -6,0 -2,7 8,15 25,19 32,19 16,0 z m 1331,-227 c 8,-15 8,-18 0,-14 -6,4 -16,16 -22,28 -8,15 -8,18 0,14 6,-4 16,-16 22,-28 z m 177,-144 c -4,-3 -12,5 -18,18 -12,22 -12,22 6,6 10,-10 15,-20 12,-24 z m -1868,-150 c -16,-43 -29,-71 -30,-62 0,10 8,39 18,65 11,26 22,57 26,67 3,10 9,17 11,14 3,-2 -8,-40 -25,-84 z m -1928,-51 c 13,-28 13,-28 -49,-59 -35,-17 -63,-27 -63,-23 0,7 89,109 95,109 2,0 10,-12 17,-27 z m 48,-138 c 0,-15 -38,-40 -48,-31 -6,6 28,44 41,45 4,1 7,-6 7,-14 z m 3880,-257 c 0,-6 -11,-1 -25,12 -14,13 -25,31 -25,39 1,11 8,8 25,-12 14,-15 25,-33 25,-39 z m -147,-8 c -4,-14 0,-20 11,-20 9,0 28,-7 42,-16 13,-9 27,-14 30,-11 3,3 -4,10 -15,17 -24,13 -28,30 -6,30 8,0 15,-4 15,-10 0,-5 6,-10 13,-10 8,0 24,-11 37,-26 19,-19 22,-27 11,-33 -9,-6 -10,-11 -2,-15 6,-4 11,-14 11,-22 0,-10 -5,-12 -12,-8 -10,6 -10,5 -2,-7 9,-11 9,-17 -1,-26 -11,-10 -20,-3 -47,32 -18,24 -44,50 -57,57 -31,17 -57,88 -32,88 5,0 7,-9 4,-20 z m 37,0 c 0,-5 -2,-10 -4,-10 -3,0 -8,5 -11,10 -3,6 -1,10 4,10 6,0 11,-4 11,-10 z m 110,-43 c 0,-6 -11,0 -25,13 -14,13 -25,28 -25,33 0,6 11,0 25,-13 14,-13 25,-28 25,-33 z m -1990,26 c 0,-5 -5,-26 -11,-48 -10,-33 -13,-37 -19,-20 -8,22 7,75 21,75 5,0 9,-3 9,-7 z m -47,-123 c -7,-28 -13,-25 -13,6 0,14 4,23 9,20 5,-3 7,-15 4,-26 z m 35,-182 c 12,-27 19,-48 17,-48 -7,0 -45,78 -45,91 0,17 5,10 28,-43 z m -79,-45 c 1,-13 -3,-23 -9,-23 -5,0 -10,19 -9,43 0,32 2,37 9,22 5,-11 9,-30 9,-42 z m 55,-134 c -30,-67 -44,-46 -44,64 v 72 l 31,-49 31,-49 z m -67,59 c -3,-8 -6,-5 -6,6 -1,11 2,17 5,13 3,-3 4,-12 1,-19 z m 121,-93 c 9,-29 11,-55 5,-67 -8,-18 -10,-17 -40,14 l -31,33 16,38 c 9,20 21,36 27,34 5,-2 16,-25 23,-52 z m 1372,-351 c 0,-8 -4,-12 -10,-9 -5,3 -10,13 -10,21 0,8 5,12 10,9 6,-3 10,-13 10,-21 z m 773,-36 c 0,-13 -21,-67 -47,-119 -43,-87 -72.9374,-17.652 -78.9374,-112.652 -6,-105 12,-70 0,0 -16,93 109.9374,15.652 168.9374,130.652 49,95 -64,88 -69,120 -6,33 -5,35 10,21 8,-9 16,-27 16,-40 z M 8030,8800 c 0,-5 14,-22 -11,-10 -4.5076,2.1637 -0.6433,-36.0762 2.3567,-31.0762 3,6 -3,0 0,0 2,0 8.6433,47.0762 8.6433,41.0762 z M 4857,428 c -3,-8 -6,-5 -6,6 -1,11 2,17 5,13 3,-3 4,-12 1,-19 z"
       id="path146"
       sodipodi:nodetypes="csccsccccccccccsccccccccccsccccccccccsccccscccccsccccccccccccscccscccccccccccccccccccsccccscccsccsccccccccccccccccccscccscccccsccccccccccccccccccccccccccsccccccccccccccsccccccccsccccsccccccccsscccscccccccccssccsccccccscccccccccccccscscscscccccsccsccccccccccccccccscscscscccccccccccccccccccsscsccsssccscscscssscccscccccscsscssssssssccsscssccssccsccccscccccccccccccccscscssccccccssscsscccc" />
    <path
       d="M3821 12370 c-28 -28 -56 -61 -61 -73 -11 -22 -11 -22 5 -2 8 11 39 44 67 73 28 28 49 52 46 52 -3 0 -28 -23 -57 -50z"
       id="path148" />
    <path
       d="M3824 12288 l-19 -23 23 19 c21 18 27 26 19 26 -2 0 -12 -10 -23 -22z"
       id="path150" />
    <path
       d="M3735 12259 c-4 -6 -5 -12 -2 -15 2 -3 7 2 10 11 7 17 1 20 -8 4z"
       id="path152" />
    <path
       d="M3712 12100 c0 -19 2 -27 5 -17 2 9 2 25 0 35 -3 9 -5 1 -5 -18z"
       id="path154" />
    <path
       d="M5650 11840 c0 -13 5 -18 15 -14 10 4 15 0 15 -11 0 -9 4 -14 9 -11 5 4 12 0 14 -6 4 -10 6 -10 6 -1 1 12 -41 63 -53 63 -3 0 -6 -9 -6 -20z"
       id="path156" />
    <path
       d="M5732 11735 c0 -16 2 -22 5 -12 2 9 2 23 0 30 -3 6 -5 -1 -5 -18z"
       id="path158" />
    <path
       d="M5925 11469 c17 -20 31 -35 33 -34 7 6 -12 32 -36 50 -27 19 -27 19 3 -16z"
       id="path160" />
    <path
       d="M3544 11025 c-7 -29 2 -130 14 -151 4 -8 7 27 5 77 -3 98 -8 118 -19 74z"
       id="path162" />
  </g>
  <path
     style="fill:#800000;stroke-width:0.75"
     id="path201"
     d="m 379.00101,99.343623 c -3.36875,-2.101275 -6.62242,-4.397835 -9.70959,-6.894128 -1.7381,-1.64361 -3.67951,-3.151245 -4.90508,-5.250518 -0.75519,-1.293562 -1.09512,-2.37975 -1.62665,-3.78324 -1.74513,-5.202585 -2.63193,-10.681486 -2.88609,-16.15477 0.30875,-4.607354 2.79441,-4.050427 -7.6386,3.014347 -0.0987,0.06681 0.25287,0.02696 0.34106,0.107089 0.39275,0.356898 1.52599,1.928737 1.72889,2.200305 2.85578,4.041089 5.95412,7.900297 9.31505,11.530312 2.75049,3.027562 6.15278,5.085022 9.97728,6.431032 0.50207,0.13071 1.00281,0.266625 1.50621,0.392115 3.133,0.78099 -0.43595,-0.110475 1.82953,0.384608 0.0809,0.0177 0.16713,0.132487 0.23397,0.0836 8.10321,-5.926335 10.52107,-4.507365 6.77822,-6.231158 -3.44693,-1.58694 -6.90162,-3.168052 -10.2216,-5.009985 -0.49315,-0.272887 -0.95801,-0.604725 -1.47944,-0.818655 -3.60153,-1.477612 -8.82439,4.81785 -9.64794,5.593208 -0.45366,0.42711 0.2871,1.215802 0.5027,1.800405 0.64773,1.756402 1.26456,2.664862 2.20492,4.310955 2.30227,3.44961 5.08787,6.539078 8.28078,9.177365 1.15646,0.90792 2.43486,1.64645 3.75802,2.28221 0.15273,0.0734 0.32504,0.29023 0.46779,0.19894 2.78039,-1.77794 5.40507,-3.788352 8.10761,-5.68253 -2.34261,-2.518132 -4.98136,-4.759215 -7.48562,-7.12029 -1.06164,-1.05477 -1.99288,-2.216738 -2.88091,-3.416663 0,0 -8.31253,4.935345 -8.31253,4.935345 v 0 c 0.94315,1.231575 1.92729,2.426176 3.03158,3.520126 2.39591,2.22612 4.85519,4.401442 7.0791,6.801212 2.80617,-1.584 5.61389,-3.165242 8.4185,-4.751995 0.0972,-0.05505 -0.18634,0.17667 -0.29627,0.156728 -0.2705,-0.04905 -0.49962,-0.229583 -0.74855,-0.346268 -1.0373,-0.486202 -2.04462,-1.020877 -2.96808,-1.706655 -3.17978,-2.481818 -5.98998,-5.408813 -8.21643,-8.78664 -0.78262,-1.433355 -1.50837,-2.55279 -1.96028,-4.122968 -0.13083,-0.454567 0.25802,-1.550722 -0.19231,-1.40598 -2.8628,0.920175 -5.37142,2.70504 -8.05713,4.05756 0.28867,-0.07727 0.57496,-0.29958 0.86601,-0.23181 0.55019,0.128108 1.00187,0.52224 1.5028,0.783368 3.30397,1.866697 6.78381,3.374962 10.13576,5.150812 3.77896,1.795733 0.49142,0.497933 9.19862,-5.020282 0.0598,-0.03787 -0.0906,0.127845 -0.16051,0.138915 -1.11168,0.176085 -2.23391,-0.423293 -3.31382,-0.521543 -3.76976,-1.150957 -7.09385,-3.06102 -9.79852,-5.979577 -3.39439,-3.541073 -6.47308,-7.365454 -9.17197,-11.466505 -0.13002,-0.189291 -2.39958,-3.512161 -2.60139,-3.421052 -8.18218,3.693881 -8.72989,2.45759 -8.59894,7.386762 0.4943,5.539155 1.36063,11.078182 3.02884,16.394302 0.57594,1.544505 0.88766,2.57613 1.69788,4.00629 1.25631,2.217548 3.24196,3.770236 5.09855,5.455456 3.07132,2.523632 6.3331,4.804652 9.59201,7.078022 0,0 8.19657,-5.248172 8.19657,-5.248172 z" />
  <path
     style="fill:#800000;stroke-width:0.75"
     id="path205"
     d="m 549.83575,92.165597 c 4.76262,-0.190267 9.49357,-0.852742 14.18155,-1.686435 5.408,-1.046115 10.80444,-2.314807 15.84835,-4.564207 3.19456,-1.82751 6.41689,-3.607305 9.58367,-5.482523 0.66073,-0.391252 1.63213,-1.329952 0.68574,-2.088495 -0.24957,-0.20004 -0.58116,-0.34683 -0.90062,-0.331057 -0.37758,0.01868 -0.70033,0.284932 -1.0505,0.427395 -3.12221,1.873545 -6.32104,3.624937 -9.36661,5.620635 -0.15587,0.102135 -2.74502,2.94777 -2.75382,2.957437 -1.55772,1.711778 -3.09631,3.413955 -4.55394,5.211893 -2.03044,2.854485 -4.76611,4.982138 -7.40304,7.22511 -0.35206,0.272985 -0.69448,0.55888 -1.05617,0.81896 -0.30995,0.22286 -1.28839,0.81868 -0.95724,0.62875 2.49057,-1.42836 9.9415,-5.74878 7.43701,-4.344982 -3.03261,1.699822 -6.00025,3.513372 -9.02158,5.233162 -2.56222,1.45846 5.10473,-2.951467 7.64423,-4.44915 0.16905,-0.0997 -0.35407,0.16944 -0.53111,0.25416 -2.87007,1.68507 -5.85923,3.18203 -8.61022,5.05521 -0.11402,0.0776 0.28199,1.06861 1.25393,1.04559 0.28796,-0.007 2.20325,-1.10997 2.30034,-1.16693 3.23143,-1.89596 6.45128,-3.811607 9.67692,-5.71741 3.81204,-2.143485 6.74499,-5.402108 9.91519,-8.340713 0.41623,-0.409687 0.8449,-0.807112 1.24868,-1.22907 0.31038,-0.324352 0.69206,-0.606885 0.89256,-1.008555 0.51517,-1.032 -1.11447,-1.256422 -1.65295,-1.203495 -0.67285,0.06615 -1.24175,0.53568 -1.85459,0.82119 -0.85524,0.398438 -1.69939,0.82026 -2.54908,1.23039 -4.6846,2.350785 -9.45475,4.45887 -14.53658,5.768033 -4.21504,0.926205 -3.60385,0.988598 -8.70249,6.132263 -0.42083,0.424545 1.1289,-0.39357 1.69337,-0.590288 2.8243,-0.984262 1.37164,-0.45981 4.30781,-1.559902 1.91633,-0.774045 3.8104,-1.598408 5.73636,-2.348513 0.44076,-0.17166 0.88616,-0.331357 1.32575,-0.50598 0.256,-0.1017 0.54819,-0.147615 0.76071,-0.322875 2.35515,-1.942185 4.60914,-4.003913 6.9137,-6.005865 -3.284,-0.103875 -6.57574,0.426682 -9.82359,0.891802 -6.2243,5.587711 -9.80021,6.120421 -4.67205,5.960986 2.54917,-0.07926 5.1125,-0.368865 7.64164,-0.683678 -2.29327,-1.017465 2.03808,0.114683 1.61823,-0.232748 -0.32659,-0.270262 -0.71857,-0.606615 -1.14024,-0.563152 -0.71144,0.07335 -3.77258,2.846415 -4.36614,3.360225 -2.43387,2.030588 -4.51858,4.352725 -6.20784,7.027685 -0.13806,0.27825 -0.24994,0.57111 -0.41419,0.83475 -0.43421,0.69696 -1.56372,1.48185 -0.51003,2.28855 0.22734,0.17406 0.54419,0.17829 0.81629,0.26743 8.72454,-4.78129 9.59436,-4.78289 13.87436,-11.651887 -0.0245,-0.365745 0.034,-0.746783 -0.0735,-1.097235 -0.62437,-2.035561 -3.4829,-1.829431 -5.13217,-1.957351 -0.29797,-0.07745 -0.60719,-0.120217 -0.89391,-0.232357 -0.37851,-0.148028 -0.74176,-0.420473 -1.07082,-0.661695 -0.12598,-0.09235 -0.24626,-0.367665 -0.37563,-0.280148 -8.47334,5.732536 -9.79788,3.267856 -7.22515,6.799831 2.33533,2.987632 4.55798,6.116592 7.22259,8.826042 0.65423,0.41678 1.86048,1.2762 2.74123,0.79053 6.33643,-3.49414 8.0769,-3.00753 10.22758,-7.475457 1.45815,-3.22638 3.51884,-6.132586 5.52714,-9.032641 1.97776,-2.934592 4.3366,-5.55951 6.6798,-8.198197 1.18718,-1.062278 2.14798,-2.340135 3.22643,-3.501638 0.87866,-0.946327 1.76491,-1.735522 2.52945,-2.783557 0.77022,-1.558228 1.00971,-3.376112 0.72884,-5.089564 -0.19321,-0.197226 -0.34252,-0.450258 -0.57966,-0.591675 -0.20626,-0.123004 -0.48754,-0.283683 -0.69979,-0.171336 -7.79475,4.125855 -7.78206,3.600677 -11.42214,8.324237 -1.87916,2.655015 -3.35576,5.563305 -4.82595,8.45649 -1.95843,3.808095 -4.13973,7.506728 -6.63853,10.986383 -1.58882,1.829375 -3.12569,3.683305 -4.90967,5.326385 0,0 8.92492,-3.680292 8.92492,-3.680292 v 0 c 1.68766,-1.72068 3.23711,-3.563783 4.73938,-5.4483 2.46652,-3.548026 4.6385,-7.289371 6.62404,-11.126701 1.48656,-2.858715 3.00598,-5.729092 4.9548,-8.305462 0.54955,-0.668024 1.18506,-1.473058 1.79572,-2.09911 0.25922,-0.265763 1.14593,-0.928125 0.81587,-0.758163 -3.52136,1.813287 -9.55007,7.095515 -7.42064,3.650975 0.1894,1.520738 -0.12328,3.078953 -1.00096,4.344533 -1.81349,2.143972 -3.83189,4.114312 -5.70996,6.20193 -2.34891,2.647747 -4.62837,5.354625 -6.6084,8.29542 -2.02143,2.944455 -3.99155,5.93534 -5.56227,9.15098 -0.22029,0.34576 -0.41121,0.71208 -0.66086,1.03728 -0.21537,0.28055 -1.04494,0.92889 -0.728,0.77191 2.62664,-1.30093 5.1396,-2.81979 7.7094,-4.22968 -0.45173,0.2555 -0.77631,0.54727 -1.3413,0.45393 -0.31817,-0.0526 -0.60101,-0.23397 -0.90152,-0.35097 -2.72416,-2.510652 -4.94274,-5.675855 -7.07486,-8.68919 -2.32748,-3.635093 -0.0877,-0.775455 -8.98488,4.025618 -0.10094,0.05445 -0.12075,-0.320303 -0.009,-0.343988 0.38815,-0.08191 1.77012,1.505468 2.31154,1.241033 0.86856,0.07095 3.37921,-0.01732 4.06605,0.358935 0.43856,0.240262 0.23235,0.599467 0.17107,0.960975 -0.81508,1.267317 -1.6507,2.552067 -2.61113,3.715797 -2.44727,2.96529 -8.18891,5.90376 5.3047,-1.97073 -0.68099,2.49147 1.03858,-0.970602 1.28119,-1.28138 1.72396,-2.548725 3.80491,-4.7673 6.19302,-6.716955 1.76004,-1.44846 1.32981,-1.146 3.18871,-2.469165 0.44541,-0.31704 1.07849,-0.458175 1.34858,-0.933518 1.25054,-2.200822 -1.01217,-1.53714 -1.82123,-1.333672 -1.84465,0.285592 -3.69091,0.4752 -5.55103,0.63546 -0.68034,0.05865 -1.36108,0.11403 -2.04267,0.155685 -0.59501,0.03638 -1.25842,-0.197985 -1.78662,0.07834 -3.13164,1.638255 -6.01273,3.71631 -9.0191,5.574466 1.08331,-0.478965 0.49585,-0.284265 2.22626,-0.52713 2.43349,-0.341543 4.88194,-0.663856 7.33704,-0.779131 2.89094,-1.87431 5.78187,-3.748627 8.67282,-5.622937 -0.25524,0.14925 -0.49729,0.32376 -0.76571,0.447742 -2.33682,1.079355 -4.85992,1.763813 -7.15909,2.9394 -2.71524,1.042223 -1.59485,0.644948 -4.21911,1.530803 -0.53436,0.180382 -1.13544,0.223807 -1.60446,0.537007 -2.96069,1.977053 -5.7747,4.165921 -8.62756,6.295606 -0.57588,0.429907 3.99179,-2.38173 2.05314,-0.657878 1.73497,-0.42396 2.49831,-0.577965 4.24494,-1.15008 3.62842,-1.188517 7.02875,-2.946592 10.49049,-4.534635 0.0843,-0.03937 3.70468,-1.671165 4.12073,-2.043623 0.29891,-0.267585 0.37949,-0.70776 0.54267,-1.074255 0.0224,-0.05025 -0.0789,0.07662 -0.11639,0.116858 -1.37228,1.47381 -0.39023,0.471352 -2.07761,2.125612 -3.1352,2.983591 -6.20419,6.067148 -10.02035,8.19845 2.26292,-1.281139 4.52585,-2.562289 6.78877,-3.843439 -0.0245,0.01403 -2.02853,1.151632 -2.09437,1.240335 -0.15715,0.211702 -0.12471,0.522712 -0.0974,0.784957 0.0196,0.188925 0.39189,0.415493 0.23322,0.519923 -2.61228,1.719354 -5.42135,3.119264 -8.13203,4.678904 4.34642,-2.09143 -10.92236,5.27095 9.60725,-5.399789 2.59859,-1.350683 -10.10923,5.917369 -7.61355,4.384869 3.0022,-1.84352 6.1083,-3.512829 9.13356,-5.318244 0.43556,-0.259935 1.58211,-1.225763 1.93173,-1.51203 2.64279,-2.229526 5.20932,-4.521413 7.24655,-7.346026 1.47904,-1.767232 3.00537,-3.480465 4.58637,-5.157862 2.78142,-2.951025 8.32981,-6.78324 -4.24869,1.190527 0.27761,-0.198345 0.60521,-0.340875 0.83284,-0.59502 0.35527,-0.396675 0.20322,-0.883785 0.13657,-0.887865 -0.13795,-0.0085 -0.19852,0.193613 -0.30979,0.275595 -1.99466,1.469618 -9.20877,5.338733 6.06213,-3.362017 -4.96235,2.46414 -10.37004,3.777435 -15.78924,4.829835 -4.57062,0.864997 -9.19882,1.50624 -13.85229,1.659195 0,0 -7.87238,5.719612 -7.87238,5.719612 z" />
  <path
     style="fill:#800000;stroke-width:0.75"
     id="path207"
     d="m 708.30491,726.03405 c 6.93502,9.40323 9.36,20.97645 11.31667,32.2501 1.78449,12.21442 1.21382,24.89085 -2.00914,36.84232 -0.7098,2.63213 -1.65191,5.19608 -2.47786,7.79408 -4.01449,10.23135 -8.4071,20.39617 -13.70709,30.04042 -1.3558,2.46713 -5.46402,9.25808 -6.98997,11.7987 -4.36108,7.22888 -9.4633,13.9521 -14.78266,20.48888 -0.0514,1.65472 -5.10762,3.21547 -5.17278,4.58767 -0.0518,1.09095 0.93237,1.71893 1.58494,2.33468 3.24711,1.01077 6.52593,-1.1658 9.34434,-2.598 6.23858,-3.59888 12.51299,-7.13633 18.71576,-10.79648 0.68826,-0.4062 1.28046,-0.9582 1.94826,-1.39717 0.6433,-0.42293 2.64757,-1.57245 1.98165,-1.1862 -4.90817,2.84707 -19.65361,11.3511 -14.70858,8.5686 17.66609,-9.94058 13.27569,-5.3559 18.63897,-11.13398 0.0461,-3.32212 -3.87748,-3.04987 -6.19095,-3.10687 -3.29498,-0.036 -6.59006,0.007 -9.88505,0.0195 -3.77819,0.35962 -6.2353,-0.6864 -9.50847,-2.37945 -6.54721,-4.28738 -25.67953,-12.52695 -23.69617,8.1588 0.12371,3.40815 1.71469,6.43905 2.97051,9.53977 1.17422,3.40463 2.16543,6.8781 2.76946,10.43175 0.48983,3.26513 0.53509,6.5715 0.56345,9.86603 0.0195,1.75425 0.0526,3.5094 0.002,5.2635 -0.008,0.29595 -0.31065,1.01955 -0.0459,0.8871 18.16315,-9.09143 16.08723,-3.3552 18.38797,-11.76893 2.18371,-6.84667 5.18854,-13.38232 7.71281,-20.10495 1.65622,-4.9338 5.03325,-8.23455 9.38253,-10.84837 -4.91755,2.89275 -9.83511,5.7855 -14.75265,8.67825 -0.98339,1.79287 1.77036,-0.60188 1.31029,-0.84278 -0.81991,-0.42922 -2.10725,2.1723 -2.40218,2.58713 -2.89562,4.02052 -6.76535,7.1247 -9.95422,10.893 -0.55769,0.73747 -1.13764,1.4586 -1.67307,2.21227 -0.52288,0.73613 -0.9604,1.53158 -1.50043,2.25518 -1.61819,2.16817 -3.50791,3.86017 -4.45381,6.44565 0.0155,0.2715 -0.11904,0.5988 0.0466,0.81442 5.29564,6.89423 17.25213,-7.29772 19.93858,-8.85165 0.76075,-0.43995 1.41291,-1.04662 2.14327,-1.5354 1.90499,-1.275 3.86603,-2.4642 5.78968,-3.71085 5.0575,-3.53827 9.92562,-7.30297 14.75637,-11.1408 3.4248,-2.0181 6.52007,-4.52032 9.55123,-7.0791 0.0119,-0.36772 0.22758,-0.78922 0.0358,-1.10325 -2.05278,-3.36262 -7.40389,-2.24505 -10.63481,-2.034 -4.24447,0.46335 -8.43661,1.26413 -12.68505,1.701 0,0 -15.6231,11.57813 -15.6231,11.57813 v 0 c 4.27423,-0.37193 8.49718,-1.04498 12.72046,-1.79378 2.18702,-0.15052 4.41302,-0.42255 6.60799,-0.40357 0.53764,0.007 1.11013,0.31335 1.60901,0.11287 0.24321,-0.0977 0.54006,-1.30687 -0.14519,-0.7728 -3.08174,2.3988 -6.08673,4.8756 -9.38176,6.9873 -4.79023,3.79253 -9.64098,7.50638 -14.71131,10.9212 -1.96272,1.26143 -3.91962,2.532 -5.88679,3.78653 -0.77348,0.4932 -3.13325,1.90747 -2.32832,1.46737 23.22018,-12.69607 13.56752,-14.05785 15.8191,-6.87352 0.0236,0.075 0.0952,-0.12533 0.14274,-0.18795 2.12674,-3.70935 5.227,-6.83925 7.69053,-10.3164 3.3558,-3.68708 7.21642,-6.95153 9.90255,-11.2059 0.47562,-0.84863 1.49485,-2.35193 1.51143,-3.45653 0.0273,-1.8177 -1.01957,-3.6618 -3.02683,-2.5725 -6.22084,3.3759 -12.30316,7.00103 -18.45474,10.50158 -4.19909,3.10507 -7.22686,6.79252 -8.77119,11.88885 -2.57396,6.78862 -5.52815,13.4304 -7.82277,20.32252 -2.43735,7.92773 -1.6194,3.40928 16.59846,-5.43307 0.0871,-0.042 -0.41331,-5.87183 -0.0605,-6.13673 -0.0674,-3.38715 -0.14735,-6.78862 -0.73756,-10.1337 -0.69112,-3.66622 -1.70494,-7.27267 -2.97294,-10.78035 -1.13116,-2.78955 -2.65412,-5.60745 -2.37353,-8.70592 4.88038,-4.68878 1.20073,-1.0917 -16.17812,8.67802 -0.24804,0.13943 0.54668,-0.21562 0.8306,-0.19687 1.02726,0.0683 2.34858,0.72945 3.17008,1.2099 0.72074,0.4215 1.38904,0.92685 2.08356,1.39027 1.5416,0.8922 3.35342,2.1927 5.064,2.77193 1.53082,0.5184 3.34194,0.42255 4.92316,0.47055 3.28086,-0.0172 6.56175,-0.0375 9.84264,-0.0405 0.3494,0 4.32128,0.0817 4.37125,-0.036 0.12092,-0.28485 -0.0605,-0.6342 -0.21257,-0.90368 -0.0543,-0.0962 -0.2181,-0.0353 -0.32715,-0.0525 -4.79695,2.92065 19.49391,-11.16412 14.62428,-8.3664 -6.15747,3.53768 -12.33611,7.03868 -18.47724,10.6047 -0.66729,0.38745 -1.29621,0.83753 -1.94562,1.25438 -0.66084,0.42405 -2.66865,1.6548 -1.98511,1.26832 4.83913,-2.73615 9.63631,-5.5458 14.45446,-8.31877 -1.6898,0.99967 -3.37908,1.73985 -5.14231,2.58232 -0.76394,0.36503 -1.4313,0.93713 -2.23202,1.21223 -0.24572,0.0845 -0.51828,0.0375 -0.77742,0.0555 -0.59019,3.40597 4.73764,-3.36863 5.0479,-3.58275 5.17523,-6.5289 10.01255,-13.33463 14.21594,-20.53598 1.95432,-3.3375 5.01134,-8.48497 6.79236,-11.84182 5.17957,-9.76253 9.57244,-19.97175 13.50565,-30.28845 0.82924,-2.6655 1.78532,-5.29485 2.48771,-7.9965 3.16904,-12.18945 3.54412,-25.08728 1.73589,-37.50277 -2.02875,-11.5767 -4.63028,-23.25954 -11.04371,-33.31047 0,0 -16.79464,9.84114 -16.79464,9.84114 z" />
  <path
     style="fill:#800000;stroke-width:0.75"
     id="path209"
     d="m 726.23339,714.93037 c -1.48007,-2.58375 -0.74785,-1.2492 -2.18982,-4.00738 0,0 -16.82036,9.60198 -16.82036,9.60198 v 0 c 1.41411,2.79831 0.72735,1.44616 2.05923,4.057 0,0 16.95095,-9.6516 16.95095,-9.6516 z" />
  <path
     style="fill:#800000;stroke-width:0.75"
     id="path211"
     d="m 721.31415,721.32774 c -0.17882,-1.45387 -0.0946,-0.69213 -0.24738,-2.28585 0,0 -8.58234,4.4679 -8.58234,4.4679 v 0 c 0.12969,1.62849 0.066,0.84814 0.19028,2.34108 0,0 8.63944,-4.52313 8.63944,-4.52313 z" />
  <path
     style="fill:#800000;stroke-width:0.75"
     id="path213"
     d="m 725.80676,719.96832 c -0.38024,-2.28816 -1.01457,-4.52079 -1.93513,-6.65133 -2.35853,-3.89901 -7.44815,2.94045 -9.68938,4.60089 -0.27505,0.20377 -0.12417,0.67408 -0.21439,1.00428 -0.20877,0.76412 -0.48923,1.50684 -0.72807,2.2621 -0.6503,2.27057 -1.25639,4.51887 -1.58325,6.86225 -0.12808,0.68339 -0.20151,1.17425 -0.38865,1.83151 -0.0512,0.1799 -0.0808,0.37445 -0.18498,0.52977 -0.0403,0.0602 -0.27311,0.0924 -0.20938,0.058 8.88449,-4.79542 8.96426,-1.36185 8.65856,-5.26095 -0.21486,-1.37829 -0.32096,-2.74915 -0.71635,-4.08827 0,0 -8.53139,4.6501 -8.53139,4.6501 v 0 c 0.35363,1.29083 0.46107,2.61901 0.60142,3.94852 0.43926,4.00275 -0.12466,1.19639 8.98279,-3.18655 0.0956,-0.0461 0.0199,-0.21166 0.0392,-0.31605 0.087,-0.46968 0.23241,-0.92772 0.28316,-1.40478 0.062,-0.34701 0.11807,-0.69506 0.1771,-1.04259 0.34702,-2.28467 0.98391,-4.49118 1.63027,-6.70725 0.0473,-0.14587 0.6943,-2.14794 0.74786,-2.30163 0.10006,-0.28713 0.60021,-0.97759 0.3228,-0.85314 -2.77447,1.24472 -5.29086,3.01039 -8.03796,4.31441 -0.15984,0.0759 -0.10671,-0.46823 0.0601,-0.52738 0.15761,-0.0559 0.20407,0.26499 0.3061,0.39749 0.92983,2.06683 1.54989,4.24346 1.82108,6.49591 0,0 8.58851,-4.61533 8.58851,-4.61533 z" />
  <path
     style="fill:#800000;stroke-width:0.75"
     id="path215"
     d="m 715.35915,715.0501 c 0.36628,3.5723 0.71901,7.14779 1.08099,10.72175 0.0448,0.24933 0.009,0.52762 0.13424,0.748 0.18425,0.32505 0.89483,0.93065 1.37387,0.63302 2.96949,-1.84493 5.93576,-3.72489 8.66085,-5.91474 0.20228,-0.16254 0.38091,-2.62716 0.38841,-2.70736 0.24745,-2.61368 -0.0287,-5.25395 -0.24894,-7.8635 -0.51249,-5.31248 -2.91038,-0.56318 -9.04218,3.24968 0.19682,0.82933 0.35144,1.66726 0.50168,2.50593 0.0433,0.24148 0.13467,0.47927 0.12928,0.72454 -10e-4,0.076 -0.21372,0.21254 -0.14901,0.17264 2.84643,-1.75489 5.66868,-3.54871 8.50302,-5.32307 -0.29448,-2.05092 0.11733,-4.09503 0.30401,-6.1338 -0.0244,-0.12841 -0.006,-0.27294 -0.0732,-0.38523 -2.17164,-3.64583 -6.70428,2.99072 -9.23896,4.69596 -0.33028,0.22219 -0.8296,2.10337 -0.95033,2.49365 -0.31608,1.26589 -0.18046,0.62146 -0.40386,1.93388 0,0 8.73879,-4.24359 8.73879,-4.24359 v 0 c 0.27051,-1.23163 0.11479,-0.62697 0.4648,-1.81459 0.26936,-0.71411 0.34103,-0.99611 0.72064,-1.65123 0.12062,-0.20815 0.61977,-0.70702 0.40594,-0.59676 -11.08893,5.71816 -6.52515,7.25358 -8.40568,3.78077 -0.0236,-0.0436 0.0102,0.0986 0.0153,0.14788 -0.13672,2.12067 -0.49723,4.24935 -0.14982,6.37181 10.56108,-4.27739 9.13169,-0.9416 8.26012,-7.19781 -11.03087,5.47916 -8.86247,1.12771 -8.25155,5.76999 0.29011,2.53074 0.52011,5.09832 0.21439,7.63831 -0.0721,0.45366 -0.11253,0.91348 -0.2162,1.36098 -0.0875,0.37761 -0.71458,1.25316 -0.35556,1.10711 2.74527,-1.11681 5.19332,-2.86269 7.85837,-4.15934 0.17689,-0.0861 -0.22568,0.32289 -0.32369,0.49344 -0.0554,0.0964 -0.062,0.38855 -0.135,0.3048 -0.14462,-0.16583 -0.10539,-0.42725 -0.15807,-0.64088 -0.5055,-3.51532 -0.89371,-7.06968 -0.99758,-10.61854 0,0 -8.65505,4.3963 -8.65505,4.3963 z" />
</svg>
