<?xml version="1.0" standalone="no"?>
<!DOCTYPE svg PUBLIC "-//W3C//DTD SVG 20010904//EN"
 "http://www.w3.org/TR/2001/REC-SVG-20010904/DTD/svg10.dtd">
<svg version="1.0" xmlns="http://www.w3.org/2000/svg"
 width="1040.000000pt" height="1280.000000pt" viewBox="0 0 1040.000000 1280.000000"
 preserveAspectRatio="xMidYMid meet">
<metadata>
Created by potrace 1.15, written by Peter Selinger 2001-2017
</metadata>
<g transform="translate(0.000000,1280.000000) scale(0.100000,-0.100000)"
fill="#000000" stroke="none">
<path d="M4583 12580 c-56 -11 -128 -32 -160 -46 -48 -21 -76 -26 -163 -29
-177 -6 -303 -56 -367 -148 -18 -26 -31 -47 -28 -47 3 0 -14 -37 -37 -82 -35
-70 -42 -93 -43 -148 -1 -36 -8 -83 -15 -105 l-13 -40 -17 59 c-12 44 -18 55
-23 42 -9 -23 3 -92 13 -76 4 7 10 -3 13 -24 5 -34 -11 -105 -47 -204 -14 -39
-14 -45 -1 -59 13 -13 15 -12 15 7 0 25 21 112 26 108 2 -2 -5 -53 -15 -113
-18 -112 -49 -188 -98 -241 -26 -28 -60 -160 -67 -259 -3 -46 -2 -56 3 -30 l7
40 8 -46 c4 -25 7 -54 6 -65 -4 -38 0 -65 9 -59 6 3 27 -32 49 -77 42 -89 58
-109 115 -148 38 -26 52 -58 20 -45 -10 4 -31 12 -48 17 -16 6 -36 15 -42 21
-9 6 -18 5 -27 -3 -10 -8 -32 -9 -68 -5 -66 8 -219 -8 -318 -34 -83 -22 -231
-79 -355 -136 -44 -20 -144 -59 -223 -86 -144 -49 -574 -172 -646 -185 -34 -6
-38 -5 -33 12 3 11 13 57 22 104 9 47 41 157 70 245 79 239 88 338 56 665 -12
127 -60 297 -101 358 -16 25 -39 70 -50 100 -40 106 -91 182 -123 182 -36 0
-190 -100 -244 -159 l-53 -56 7 65 c3 40 14 76 25 93 28 40 35 99 13 120 -9 9
-20 17 -24 17 -23 0 -103 -114 -127 -181 -24 -65 -27 -91 -29 -214 -1 -108 -6
-148 -18 -172 -23 -44 -21 -74 8 -114 14 -19 33 -53 44 -75 11 -23 36 -55 56
-70 20 -16 48 -39 61 -52 14 -12 49 -34 77 -48 29 -15 64 -35 79 -45 l27 -19
-71 -113 c-39 -61 -102 -153 -139 -204 -204 -276 -309 -516 -309 -706 0 -300
123 -375 650 -393 495 -18 700 -5 862 52 40 14 145 60 233 102 145 70 166 77
220 77 76 0 114 -25 151 -101 l27 -55 -21 -112 c-19 -105 -19 -127 -9 -332 12
-250 12 -285 7 -410 -3 -70 1 -106 18 -165 29 -99 32 -384 6 -450 -12 -29 -14
-53 -9 -83 18 -100 -2 -279 -55 -499 -41 -167 -55 -299 -37 -335 21 -43 39
-118 40 -165 0 -64 -21 -195 -43 -263 -41 -131 -62 -224 -71 -317 -9 -98 -23
-169 -104 -548 -129 -597 -143 -681 -149 -890 -3 -85 -8 -201 -12 -257 -4 -55
-4 -109 0 -120 4 -10 7 -109 6 -219 -1 -204 12 -354 50 -599 10 -66 21 -149
25 -185 4 -36 15 -111 26 -167 31 -171 34 -266 13 -363 -24 -113 -24 -325 0
-474 20 -124 137 -568 191 -726 54 -159 118 -410 116 -458 -1 -24 5 -63 13
-87 15 -42 14 -45 -28 -152 -43 -111 -143 -300 -171 -323 -8 -7 -15 -17 -15
-23 0 -11 -38 -94 -131 -282 -57 -115 -72 -178 -58 -250 25 -134 204 -285 340
-285 111 0 233 56 272 124 6 11 15 64 18 116 8 100 41 318 58 373 5 17 17 73
26 122 9 50 30 120 46 158 17 37 37 98 45 135 9 37 34 112 56 167 42 104 44
121 21 240 -12 58 -5 271 13 410 23 182 50 305 105 470 59 178 75 239 84 321
14 129 -43 340 -130 483 l-45 73 16 87 c43 231 113 425 319 891 67 151 131
300 144 331 l22 56 102 11 c56 5 104 8 106 6 6 -6 -37 -433 -60 -599 -13 -88
-19 -187 -18 -270 1 -76 -4 -149 -11 -175 -7 -25 -43 -111 -81 -191 -38 -80
-85 -195 -106 -255 -34 -102 -37 -118 -41 -254 -3 -112 1 -177 17 -285 28
-186 44 -475 36 -660 -9 -240 -27 -428 -41 -457 -8 -15 -14 -35 -14 -46 0 -10
-15 -39 -34 -63 -50 -66 -68 -122 -73 -229 -5 -91 -3 -103 43 -265 40 -141 48
-183 47 -245 -2 -105 -22 -285 -39 -351 -33 -129 -13 -163 136 -238 127 -64
227 -87 311 -72 128 22 186 81 173 176 -3 28 -5 72 -5 98 2 34 -4 58 -20 83
-25 42 -60 194 -62 274 -1 32 -9 66 -18 81 -27 41 -44 164 -42 314 1 121 5
152 28 230 15 50 28 111 30 136 3 52 111 385 220 679 85 228 235 680 264 795
43 170 54 295 47 515 -7 216 3 321 38 404 22 53 81 146 187 293 105 146 176
275 245 443 l51 125 122 -3 c109 -3 130 -1 194 21 40 14 88 28 107 32 22 5 55
28 92 63 57 54 58 56 58 111 0 31 5 151 12 268 9 165 9 256 0 417 -21 357 -60
573 -167 943 -30 101 -61 231 -69 289 -9 58 -18 110 -21 114 -2 3 -11 41 -20
83 -26 125 -61 206 -140 322 -71 104 -77 117 -105 230 -16 66 -32 136 -35 155
-6 43 -79 130 -186 224 -81 71 -115 112 -121 142 -2 16 5 20 43 24 37 5 52 13
78 43 18 20 47 45 63 55 51 29 118 218 118 332 0 62 -26 206 -50 274 l-19 57
49 -41 c65 -55 188 -128 325 -195 184 -90 606 -263 673 -276 83 -16 162 -8
367 36 226 48 342 88 570 195 164 78 195 89 226 84 22 -4 39 -2 43 4 4 6 13 9
21 6 8 -4 18 1 21 10 4 11 13 14 25 11 25 -8 60 12 53 30 -9 23 13 43 85 81
36 19 83 44 104 55 37 21 39 21 135 5 53 -9 149 -34 213 -56 163 -56 195 -54
285 22 113 95 140 125 153 169 16 54 48 102 83 125 16 11 51 45 79 76 43 49
48 60 39 78 -6 11 -20 20 -30 20 -13 0 -20 7 -20 19 0 49 -60 37 -92 -18 -12
-21 -31 -42 -42 -47 -12 -5 -32 -26 -45 -46 -15 -23 -32 -38 -44 -38 -11 0
-45 -12 -75 -26 -54 -26 -55 -26 -96 -8 -55 24 -80 47 -102 96 -18 40 -18 41
4 59 13 10 48 23 80 29 112 23 143 33 183 62 34 25 40 34 37 61 l-3 32 -85 -3
c-47 -2 -117 -10 -157 -18 -40 -8 -92 -14 -116 -14 -74 0 -263 -79 -382 -158
-116 -79 -254 -134 -280 -112 -15 13 -80 6 -100 -10 -5 -4 -27 -10 -47 -14
-23 -4 -39 -14 -43 -25 -7 -22 -38 -27 -277 -41 -257 -15 -354 -32 -550 -95
-125 -41 -140 -42 -209 -16 -60 23 -130 74 -264 195 -289 260 -585 591 -585
656 0 16 -14 64 -31 107 -30 74 -31 83 -25 168 4 66 15 117 42 192 l37 103
-27 50 c-87 165 -81 148 -82 255 0 139 10 116 -91 206 l-52 46 24 58 c19 48
21 63 12 83 -9 19 -8 27 3 36 42 33 52 115 25 192 -14 41 -58 127 -78 152 -5
6 -7 12 -3 12 3 0 -2 8 -11 18 -10 9 -27 29 -38 43 -11 14 -30 31 -43 38 -12
6 -22 18 -22 26 0 15 22 6 108 -47 17 -11 32 -17 32 -15 0 3 -31 25 -70 48
-38 24 -67 45 -65 48 3 2 0 10 -6 18 -7 8 -9 31 -6 57 7 49 -10 93 -73 186
-20 30 -42 70 -48 88 l-11 33 45 -37 c25 -21 59 -53 77 -73 18 -20 29 -32 25
-27 -17 21 -7 28 15 10 l22 -19 -20 25 c-11 14 -65 72 -120 130 -56 58 -118
130 -138 162 -21 31 -45 62 -54 70 -10 7 -4 -4 11 -25 45 -59 24 -54 -43 11
-34 33 -92 76 -129 96 -46 26 -58 35 -37 31 22 -4 26 -3 15 4 -8 6 -45 15 -83
22 -50 9 -75 20 -97 41 -16 15 -33 29 -37 29 -112 19 -267 19 -370 -1z m407
-36 c0 -2 -13 2 -30 11 -16 9 -30 18 -30 21 0 2 14 -2 30 -11 17 -9 30 -18 30
-21z m-860 -149 c-7 -8 -18 -15 -24 -15 -6 0 -2 7 8 15 25 19 32 19 16 0z
m1331 -227 c8 -15 8 -18 0 -14 -6 4 -16 16 -22 28 -8 15 -8 18 0 14 6 -4 16
-16 22 -28z m177 -144 c-4 -3 -12 5 -18 18 -12 22 -12 22 6 6 10 -10 15 -20
12 -24z m-1868 -150 c-16 -43 -29 -71 -30 -62 0 10 8 39 18 65 11 26 22 57 26
67 3 10 9 17 11 14 3 -2 -8 -40 -25 -84z m-1928 -51 c13 -28 13 -28 -49 -59
-35 -17 -63 -27 -63 -23 0 7 89 109 95 109 2 0 10 -12 17 -27z m48 -138 c0
-15 -38 -40 -48 -31 -6 6 28 44 41 45 4 1 7 -6 7 -14z m3880 -257 c0 -6 -11
-1 -25 12 -14 13 -25 31 -25 39 1 11 8 8 25 -12 14 -15 25 -33 25 -39z m-147
-8 c-4 -14 0 -20 11 -20 9 0 28 -7 42 -16 13 -9 27 -14 30 -11 3 3 -4 10 -15
17 -24 13 -28 30 -6 30 8 0 15 -4 15 -10 0 -5 6 -10 13 -10 8 0 24 -11 37 -26
19 -19 22 -27 11 -33 -9 -6 -10 -11 -2 -15 6 -4 11 -14 11 -22 0 -10 -5 -12
-12 -8 -10 6 -10 5 -2 -7 9 -11 9 -17 -1 -26 -11 -10 -20 -3 -47 32 -18 24
-44 50 -57 57 -31 17 -57 88 -32 88 5 0 7 -9 4 -20z m37 0 c0 -5 -2 -10 -4
-10 -3 0 -8 5 -11 10 -3 6 -1 10 4 10 6 0 11 -4 11 -10z m110 -43 c0 -6 -11 0
-25 13 -14 13 -25 28 -25 33 0 6 11 0 25 -13 14 -13 25 -28 25 -33z m-1990 26
c0 -5 -5 -26 -11 -48 -10 -33 -13 -37 -19 -20 -8 22 7 75 21 75 5 0 9 -3 9 -7z
m-47 -123 c-7 -28 -13 -25 -13 6 0 14 4 23 9 20 5 -3 7 -15 4 -26z m35 -182
c12 -27 19 -48 17 -48 -7 0 -45 78 -45 91 0 17 5 10 28 -43z m-79 -45 c1 -13
-3 -23 -9 -23 -5 0 -10 19 -9 43 0 32 2 37 9 22 5 -11 9 -30 9 -42z m55 -134
c-30 -67 -44 -46 -44 64 l0 72 31 -49 31 -49 -18 -38z m-67 59 c-3 -8 -6 -5
-6 6 -1 11 2 17 5 13 3 -3 4 -12 1 -19z m121 -93 c9 -29 11 -55 5 -67 -8 -18
-10 -17 -40 14 l-31 33 16 38 c9 20 21 36 27 34 5 -2 16 -25 23 -52z m1372
-351 c0 -8 -4 -12 -10 -9 -5 3 -10 13 -10 21 0 8 5 12 10 9 6 -3 10 -13 10
-21z m773 -36 c0 -13 -21 -67 -47 -119 -43 -87 -47 -101 -53 -196 -6 -105 -16
-123 -28 -53 -16 93 -9 124 50 239 49 95 57 116 52 148 -6 33 -5 35 10 21 8
-9 16 -27 16 -40z m2087 -1698 c0 -5 -5 -10 -11 -10 -5 0 -7 5 -4 10 3 6 8 10
11 10 2 0 4 -4 4 -10z m-3173 -8372 c-3 -8 -6 -5 -6 6 -1 11 2 17 5 13 3 -3 4
-12 1 -19z"/>
<path d="M3821 12370 c-28 -28 -56 -61 -61 -73 -11 -22 -11 -22 5 -2 8 11 39
44 67 73 28 28 49 52 46 52 -3 0 -28 -23 -57 -50z"/>
<path d="M3824 12288 l-19 -23 23 19 c21 18 27 26 19 26 -2 0 -12 -10 -23 -22z"/>
<path d="M3735 12259 c-4 -6 -5 -12 -2 -15 2 -3 7 2 10 11 7 17 1 20 -8 4z"/>
<path d="M3712 12100 c0 -19 2 -27 5 -17 2 9 2 25 0 35 -3 9 -5 1 -5 -18z"/>
<path d="M5650 11840 c0 -13 5 -18 15 -14 10 4 15 0 15 -11 0 -9 4 -14 9 -11
5 4 12 0 14 -6 4 -10 6 -10 6 -1 1 12 -41 63 -53 63 -3 0 -6 -9 -6 -20z"/>
<path d="M5732 11735 c0 -16 2 -22 5 -12 2 9 2 23 0 30 -3 6 -5 -1 -5 -18z"/>
<path d="M5925 11469 c17 -20 31 -35 33 -34 7 6 -12 32 -36 50 -27 19 -27 19
3 -16z"/>
<path d="M3544 11025 c-7 -29 2 -130 14 -151 4 -8 7 27 5 77 -3 98 -8 118 -19
74z"/>
</g>
</svg>
