<?xml version="1.0" encoding="UTF-8" standalone="no"?>
<svg
   xmlns:dc="http://purl.org/dc/elements/1.1/"
   xmlns:cc="http://creativecommons.org/ns#"
   xmlns:rdf="http://www.w3.org/1999/02/22-rdf-syntax-ns#"
   xmlns:svg="http://www.w3.org/2000/svg"
   xmlns="http://www.w3.org/2000/svg"
   xmlns:sodipodi="http://sodipodi.sourceforge.net/DTD/sodipodi-0.dtd"
   xmlns:inkscape="http://www.inkscape.org/namespaces/inkscape"
   version="1.0"
   width="1040.000000pt"
   height="1280.000000pt"
   viewBox="0 0 1040.000000 1280.000000"
   preserveAspectRatio="xMidYMid meet"
   id="svg166"
   sodipodi:docname="60elementalist.svg"
   inkscape:version="1.0.2 (e86c870879, 2021-01-15, custom)">
  <defs
     id="defs170" />
  <sodipodi:namedview
     pagecolor="#ffffff"
     bordercolor="#666666"
     borderopacity="1"
     objecttolerance="10"
     gridtolerance="10"
     guidetolerance="10"
     inkscape:pageopacity="0"
     inkscape:pageshadow="2"
     inkscape:window-width="1920"
     inkscape:window-height="1017"
     id="namedview168"
     showgrid="false"
     inkscape:zoom="0.5"
     inkscape:cx="635.68385"
     inkscape:cy="677.41015"
     inkscape:window-x="-8"
     inkscape:window-y="-8"
     inkscape:window-maximized="1"
     inkscape:current-layer="svg166"
     inkscape:document-rotation="0" />
  <metadata
     id="metadata144">
Created by potrace 1.15, written by Peter Selinger 2001-2017
<rdf:RDF>
  <cc:Work
     rdf:about="">
    <dc:format>image/svg+xml</dc:format>
    <dc:type
       rdf:resource="http://purl.org/dc/dcmitype/StillImage" />
    <dc:title></dc:title>
  </cc:Work>
</rdf:RDF>
</metadata>
  <g
     transform="translate(0.000000,1280.000000) scale(0.100000,-0.100000)"
     fill="#000000"
     stroke="none"
     id="g164">
    <path
       d="m 4583,12580 c -56,-11 -128,-32 -160,-46 -48,-21 -76,-26 -163,-29 -177,-6 -303,-56 -367,-148 -18,-26 -31,-47 -28,-47 3,0 -14,-37 -37,-82 -35,-70 -42,-93 -43,-148 -1,-36 -8,-83 -15,-105 l -13,-40 -17,59 c -12,44 -18,55 -23,42 -9,-23 3,-92 13,-76 4,7 10,-3 13,-24 5,-34 -11,-105 -47,-204 -14,-39 -14,-45 -1,-59 13,-13 15,-12 15,7 0,25 21,112 26,108 2,-2 -5,-53 -15,-113 -18,-112 -49,-188 -98,-241 -26,-28 -60,-160 -67,-259 -3,-46 -2,-56 3,-30 l 7,40 8,-46 c 4,-25 7,-54 6,-65 -4,-38 0,-65 9,-59 6,3 27,-32 49,-77 42,-89 58,-109 115,-148 38,-26 19.4486,-53.618 19.4486,-53.618 -11.6595,1.299 -22.7315,19.766 -49.9019,25.181 -16,10.668 -37.0738,12.785 -37.0738,12.785 -48.9298,9.252 -59.3872,6.413 -80.8351,5.98 -56.1708,7.588 -20.7179,-2.52 -56.5685,1.331 -73.8007,3.822 -190.9555,-2.769 -274.3046,-44.42 -103.8239,6.584 -303.0503,-35.674 -419,-102.118 -160.5348,-21.364 -226.1571,-76.634 -234.2941,-82.235 C 2416.2353,10581.709 2118,10347.057 2046,10334 c -34,-6 -5,-17 0,0 3,11 46.1782,68.244 49.2352,116 3.0087,47 40.8067,126.882 73.7648,214.882 79.0498,239 114.3333,368.118 22.1176,695.118 -12,127 -90.1176,297 -131.1176,358 -16,25 -39,70 -50,100 -40,106 -91,182 -123,182 -36,0 -190,-100 -244,-159 l -53,-56 7,65 c 3,40 14,76 25,93 28,40 35,99 13,120 -9,9 -20,17 -24,17 -23,0 -103,-114 -127,-181 -24,-65 -27,-91 -29,-214 -1,-108 -6,-148 -18,-172 -23,-44 -21,-74 8,-114 14,-19 33,-53 44,-75 11,-23 36,-55 56,-70 20,-16 48,-39 61,-52 14,-12 49,-34 77,-48 29,-15 64,-35 79,-45 l 27,-19 -89.8235,-71.588 c -61.4322,-52.027 -148.473,-175.823 -157.8236,-237.883 -204,-276 -271.3562,-523.529 -271.3529,-713.529 0.01,-300.0313 125.6133,-511.1501 642.4706,-468.2941 412.1899,-130.4339 535.5108,-311.5857 769.4211,-231.7279 -23.5445,-58.1897 192.0495,-240.2539 452.0403,-151.0534 116.3847,-59.9347 253.2331,211.6127 247.8916,259.899 -8.3563,75.5392 27.4117,367.294 27.4117,367.294 v 0 0 c -19,-105 -37.4117,-162.294 -27.4117,-367.294 -166.9836,-114.3367 -398.1517,-609.1957 -223.3363,-858.2003 97.6993,-218.8197 219.395,-75.8586 219.395,-75.8586 -134.2775,-98.8512 -355.8865,-134.3398 -443.872,-300.3301 -27.9723,-42.3103 -114.7336,-85.6853 -162.9746,-168.9263 -81.7742,-127.3711 -235.1002,-209.6794 -283.2435,-400.5757 -85.1965,-169.1777 -126.6311,-463.773 -12.8973,-505.8239 -65.2004,-89.3975 -123.0792,-147.5814 -113.4008,-324.9821 55.6305,-772.7116 386.6556,-280.3869 387.512,-213.6161 38.2284,-124.6431 97.5952,380.9692 -21.5824,96.5569 -77.7799,-136.6012 -356.5499,-311.5969 -307.3544,-673.8693 -3.7932,-469.2906 12.3497,-469.1047 145.3445,-836.1909 23.3227,-183.4957 180.7217,-207.6001 239.1251,-209.4603 -4,-47.2236 -21.491,-14.1721 0,0 -10.8205,-13.3452 -150.3812,51.2201 -135,45 -72.7028,62.431 61.5696,-970.2775 214.5997,-998.9458 -1.4435,-135.035 100.0577,-309.0995 110.1932,-336.7823 26.2569,-71.7142 57.6704,-35.4254 65.455,-91.4254 31,-171 55.2132,-255.3934 34.2132,-352.3934 -24.1004,-113 -33.193,-325 0,-474 38.5857,-166.4822 91.8245,-614.6058 137.967,-757.8198 C 3285.967,1879.1802 3403,1660 3401,1612 c -1,-24 5,-63 13,-87 15,-42 14,-45 -28,-152 -43,-111 -143,-300 -171,-323 -8,-7 -15,-17 -15,-23 0,-11 -38,-94 -131,-282 -57,-115 -72,-178 -58,-250 25,-134 204,-285 340,-285 111,0 233,56 272,124 6,11 15,64 18,116 8,100 41,318 58,373 5,17 17,73 26,122 9,50 30,120 46,158 17,37 37,98 45,135 9,37 34,112 56,167 42,104 44,121 21,240 -12,58 36.6793,263.0139 54.6793,402.0139 78.8459,182 64.1909,243.7728 111.2376,408.7728 76.6535,188.0434 39.4616,313.5454 54.7174,395.5374 26.9907,129 16.7961,345.3241 -76.8373,488.3241 35.2219,2.7772 34.7394,53.1604 41.4266,93.9839 l -41.4266,-93.9839 c -12.0445,-2.2178 160.362,-234.9488 436.9516,1066.2105 99.1148,214.2531 184.891,650.6543 -7.5721,372.4354 v 0 L 4523,4778 c 56,5 -9.7623,5.7966 -6.9412,6 69.007,4.9761 -220.4951,-756.7307 -16.4149,-806.5148 -13,-88 37.6869,6.1435 38.6869,-76.8565 1,-76 8.6692,-134.6287 1.6692,-160.6287 -7,-25 -74.5466,-102.5277 -112.5466,-182.5277 -38,-80 -56.2868,-164.4551 -77.2868,-224.4551 -17.9223,-118.0777 -42.0403,-176.8666 -69.6544,-289.2525 -3,-112 -11.3968,-183.4267 4.6032,-291.4267 -17.1765,-186 49.9112,-492.7209 41.9112,-677.7209 -9,-240 10.9734,-407.6171 -3.0266,-436.6171 -8,-15 -14,-35 -14,-46 0,-10 -15,-39 -34,-63 -50,-66 -68,-122 -73,-229 -5,-91 -3,-103 43,-265 40,-141 48,-183 47,-245 -2,-105 -22,-285 -39,-351 -33,-129 -13,-163 136,-238 127,-64 227,-87 311,-72 128,22 186,81 173,176 -3,28 -5,72 -5,98 2,34 -4,58 -20,83 -25,42 -60,194 -62,274 -1,32 -9,66 -18,81 -27,41 -44,164 -42,314 1,121 5,152 28,230 15,50 28,111 30,136 3,52 268.2333,352.4927 334.8069,667.7059 148.6396,217.3934 178.6126,605.733 207.6126,720.733 43,170 43.1466,348.7413 36.1466,568.7413 121.4376,184.1802 99.889,268.9742 61.1213,330.761 22.0077,52.8922 -71.274,-482.2459 272.0261,176.4825 193.7556,101.5938 304.5214,434.8138 402.3959,554.9687 198.5084,250.2429 132.3795,353.1989 -66.9844,300.9826 L 6023,4772 c 47.125,30.75 -64,-22 0,0 40,14 218,49 237,53 21.4193,7.9036 73.5798,10.1012 114.5,25.5 68.2686,31.4628 170.3322,34.1997 168.9611,91.9419 -0.7359,30.9913 30.3129,157.4653 37.3129,274.4653 9,165 27.1898,321.0928 18.1898,482.0928 -35.8756,300.3948 79.0694,454.7047 -44.0412,877.8656 62.4556,415.322 -175.9191,364.4027 -231.8969,314.6124 -9,58 0,0 0,0 0,0 59.465,-83.4566 58.3363,-5.3033 12.5329,10.266 265.7019,-44.715 145.9393,430.1673 -12.0907,92.7206 -63.0997,154.7554 -101.0807,185.1378 14.7773,88.5 -37.3901,146.7602 -95.4201,226.8484 -53.2915,49.298 -139.9413,255.7326 -499.5101,362.3868 -68.0426,96.9148 -201.7008,81.7585 -230.2904,119.285 -2,16 -38,-4 0,0 37,5 59.5294,-98.5386 85.5294,-68.5386 67.3446,-52.3825 162.9344,74.194 138.4283,96.4431 54.4347,42.739 45.0397,328.0852 35.0423,402.0955 -8.2997,61.442 -26,206 -50,274 l -19,57 18.8824,-255.5882 c -71.2254,-155.837 18.2332,-461.2625 332.5294,-93.353 C 6173.974,8243.8213 6741.6656,8422.5494 6838,8459 c 80.7091,-19.5141 152.1355,-60.0959 363.2353,17.1765 247.977,-7.241 378.896,20.5645 588.8235,172.4117 164,78 179.9412,130.4118 210.9412,125.4118 22,-4 39,-2 43,4 4,6 13,9 21,6 8,-4 18,1 21,10 4,11 13,14 25,11 25,-8 60,12 53,30 -9,18.4222 24.2941,-54.877 96.2941,32.0588 25.9644,31.3505 71.7059,40.2354 92.7059,51.2354 37,21 39,73.7058 135,57.7058 53,-9 149,-34 213,-56 163,-56 195,-54 285,22 113,95 140,125 153,169 16,54 48,102 83,125 16,11 51,45 79,76 43,49 48,60 39,78 -6,11 -20,20 -30,20 -13,0 -20,7 -20,19 0,49 -60,37 -92,-18 -12,-21 -31,-42 -42,-47 -12,-5 -32,-26 -45,-46 -15,-23 -32,-38 -44,-38 -11,0 -45,-12 -75,-26 -54,-26 -55,-26 -96,-8 -55,24 -80,47 -102,96 -18,40 -18,41 4,59 13,10 48,23 80,29 112,23 143,33 183,62 34,25 40,34 37,61 l -3,32 -85,-3 c -47,-2 -117,-10 -157,-18 -40,-8 -92,-14 -116,-14 -74,0 -263,-79 -382,-158 -116,-79 -242.7059,-107.647 -268.7059,-85.647 -15,13 -125.1765,-12.8236 -145.1765,-28.8236 -5,-4 20,4 0,0 -23,-4 -52.1176,-35.5294 -56.1176,-46.5294 -7,-22 -71.8824,45.3805 -310.8824,31.3805 -280.4704,-7.43 -504.8146,-53.7026 -560.6066,-84.3934 -219.742,-19.1757 -115.6351,-111.0121 -156.9816,-91.4577 6.1192,74.0417 2.1735,141.5963 -256.4706,213.8235 -113.5003,564.2688 -564.8865,786.8911 -618.8823,659.7647 -6.255,-14.7267 77.7931,15.3208 60.7931,58.3204 -30.0333,74 -139.201,101.562 -97.9696,186.562 4,66 15,117 42,192 l 37,103 -27,50 c -87,165 -81,148 -82,255 0,139 10,116 -91,206 l -52,46 24,58 c 19,48 21,63 12,83 -9,19 -8,27 3,36 42,33 52,115 25,192 -14,41 -58,127 -78,152 -5,6 -7,12 -3,12 3,0 -2,8 -11,18 -10,9 -27,29 -38,43 -11,14 -30,31 -43,38 -12,6 -22,18 -22,26 0,15 22,6 108,-47 17,-11 32,-17 32,-15 0,3 -31,25 -70,48 -38,24 -67,45 -65,48 3,2 0,10 -6,18 -7,8 -9,31 -6,57 7,49 -10,93 -73,186 -20,30 -42,70 -48,88 l -11,33 45,-37 c 25,-21 59,-53 77,-73 18,-20 29,-32 25,-27 -17,21 -7,28 15,10 l 22,-19 -20,25 c -11,14 -65,72 -120,130 -56,58 -118,130 -138,162 -21,31 -45,62 -54,70 -10,7 -4,-4 11,-25 45,-59 24,-54 -43,11 -34,33 -92,76 -129,96 -46,26 -58,35 -37,31 22,-4 26,-3 15,4 -8,6 -45,15 -83,22 -50,9 -75,20 -97,41 -16,15 -33,29 -37,29 -112,19 -267,19 -370,-1 z m 407,-36 c 0,-2 -13,2 -30,11 -16,9 -30,18 -30,21 0,2 14,-2 30,-11 17,-9 30,-18 30,-21 z m -860,-149 c -7,-8 -18,-15 -24,-15 -6,0 -2,7 8,15 25,19 32,19 16,0 z m 1331,-227 c 8,-15 8,-18 0,-14 -6,4 -16,16 -22,28 -8,15 -8,18 0,14 6,-4 16,-16 22,-28 z m 177,-144 c -4,-3 -12,5 -18,18 -12,22 -12,22 6,6 10,-10 15,-20 12,-24 z m -1868,-150 c -16,-43 -29,-71 -30,-62 0,10 8,39 18,65 11,26 22,57 26,67 3,10 9,17 11,14 3,-2 -8,-40 -25,-84 z m -1928,-51 c 13,-28 13,-28 -49,-59 -35,-17 -63,-27 -63,-23 0,7 89,109 95,109 2,0 10,-12 17,-27 z m 48,-138 c 0,-15 -38,-40 -48,-31 -6,6 28,44 41,45 4,1 7,-6 7,-14 z m 3880,-257 c 0,-6 -11,-1 -25,12 -14,13 -25,31 -25,39 1,11 8,8 25,-12 14,-15 25,-33 25,-39 z m -147,-8 c -4,-14 0,-20 11,-20 9,0 28,-7 42,-16 13,-9 27,-14 30,-11 3,3 -4,10 -15,17 -24,13 -28,30 -6,30 8,0 15,-4 15,-10 0,-5 6,-10 13,-10 8,0 24,-11 37,-26 19,-19 22,-27 11,-33 -9,-6 -10,-11 -2,-15 6,-4 11,-14 11,-22 0,-10 -5,-12 -12,-8 -10,6 -10,5 -2,-7 9,-11 9,-17 -1,-26 -11,-10 -20,-3 -47,32 -18,24 -44,50 -57,57 -31,17 -57,88 -32,88 5,0 7,-9 4,-20 z m 37,0 c 0,-5 -2,-10 -4,-10 -3,0 -8,5 -11,10 -3,6 -1,10 4,10 6,0 11,-4 11,-10 z m 110,-43 c 0,-6 -11,0 -25,13 -14,13 -25,28 -25,33 0,6 11,0 25,-13 14,-13 25,-28 25,-33 z m -1990,26 c 0,-5 -5,-26 -11,-48 -10,-33 -13,-37 -19,-20 -8,22 7,75 21,75 5,0 9,-3 9,-7 z m -47,-123 c -7,-28 -13,-25 -13,6 0,14 4,23 9,20 5,-3 7,-15 4,-26 z m 35,-182 c 12,-27 19,-48 17,-48 -7,0 -45,78 -45,91 0,17 5,10 28,-43 z m -79,-45 c 1,-13 -3,-23 -9,-23 -5,0 -10,19 -9,43 0,32 2,37 9,22 5,-11 9,-30 9,-42 z m 55,-134 c -30,-67 -44,-46 -44,64 v 72 l 31,-49 31,-49 z m -67,59 c -3,-8 -6,-5 -6,6 -1,11 2,17 5,13 3,-3 4,-12 1,-19 z m 121,-93 c 9,-29 11,-55 5,-67 -8,-18 -10,-17 -40,14 l -31,33 16,38 c 9,20 21,36 27,34 5,-2 16,-25 23,-52 z m 1372,-351 c 0,-8 -4,-12 -10,-9 -5,3 -10,13 -10,21 0,8 5,12 10,9 6,-3 10,-13 10,-21 z m 773,-36 c 0,-13 -21,-67 -47,-119 -43,-87 -57.6066,-77.135 -63.6066,-172.135 -6,-105 28.489,-143.1 16.489,-73.1 -16,93 -42.8824,120.235 16.1176,235.235 49,95 57,116 52,148 -6,33 -5,35 10,21 8,-9 16,-27 16,-40 z M 8030,8800 c 0,-5 -5,-10 -11,-10 -5,0 -7,5 -4,10 3,6 8,10 11,10 2,0 4,-4 4,-10 z M 4857,428 c -3,-8 -6,-5 -6,6 -1,11 2,17 5,13 3,-3 4,-12 1,-19 z"
       id="path146"
       sodipodi:nodetypes="csccsccccccccccsccccccccccsccccccccccsccccscccccsccccccccccccscccscccccccccccccccccccsccccscccsccsccccccccccccccccccscccscccccsccccccccccccccccccccccccccsccccccccccccccsccccccccsccccsccccccccsscccscccccccccssccsccccccscccccccccccccscscscscccccsccsccccccccccccccccscscscscccccccccccccccccccsscsccsssccscscscssscccscccccscsscssssssssccsscssccssccsccccscccccccccccccccscscssccccccssscsscccc" />
    <path
       d="M3821 12370 c-28 -28 -56 -61 -61 -73 -11 -22 -11 -22 5 -2 8 11 39 44 67 73 28 28 49 52 46 52 -3 0 -28 -23 -57 -50z"
       id="path148" />
    <path
       d="M3824 12288 l-19 -23 23 19 c21 18 27 26 19 26 -2 0 -12 -10 -23 -22z"
       id="path150" />
    <path
       d="M3735 12259 c-4 -6 -5 -12 -2 -15 2 -3 7 2 10 11 7 17 1 20 -8 4z"
       id="path152" />
    <path
       d="M3712 12100 c0 -19 2 -27 5 -17 2 9 2 25 0 35 -3 9 -5 1 -5 -18z"
       id="path154" />
    <path
       d="M5650 11840 c0 -13 5 -18 15 -14 10 4 15 0 15 -11 0 -9 4 -14 9 -11 5 4 12 0 14 -6 4 -10 6 -10 6 -1 1 12 -41 63 -53 63 -3 0 -6 -9 -6 -20z"
       id="path156" />
    <path
       d="M5732 11735 c0 -16 2 -22 5 -12 2 9 2 23 0 30 -3 6 -5 -1 -5 -18z"
       id="path158" />
    <path
       d="M5925 11469 c17 -20 31 -35 33 -34 7 6 -12 32 -36 50 -27 19 -27 19 3 -16z"
       id="path160" />
    <path
       d="M3544 11025 c-7 -29 2 -130 14 -151 4 -8 7 27 5 77 -3 98 -8 118 -19 74z"
       id="path162" />
  </g>
</svg>
