<?xml version="1.0" encoding="UTF-8" standalone="no"?>
<svg
   xmlns:dc="http://purl.org/dc/elements/1.1/"
   xmlns:cc="http://creativecommons.org/ns#"
   xmlns:rdf="http://www.w3.org/1999/02/22-rdf-syntax-ns#"
   xmlns:svg="http://www.w3.org/2000/svg"
   xmlns="http://www.w3.org/2000/svg"
   xmlns:sodipodi="http://sodipodi.sourceforge.net/DTD/sodipodi-0.dtd"
   xmlns:inkscape="http://www.inkscape.org/namespaces/inkscape"
   version="1.0"
   width="1040.000000pt"
   height="1280.000000pt"
   viewBox="0 0 1040.000000 1280.000000"
   preserveAspectRatio="xMidYMid meet"
   id="svg166"
   sodipodi:docname="70elementalist.svg"
   inkscape:version="1.0.2 (e86c870879, 2021-01-15, custom)">
  <defs
     id="defs170" />
  <sodipodi:namedview
     pagecolor="#ffffff"
     bordercolor="#666666"
     borderopacity="1"
     objecttolerance="10"
     gridtolerance="10"
     guidetolerance="10"
     inkscape:pageopacity="0"
     inkscape:pageshadow="2"
     inkscape:window-width="1920"
     inkscape:window-height="1017"
     id="namedview168"
     showgrid="false"
     inkscape:zoom="0.2855358"
     inkscape:cx="1373.7065"
     inkscape:cy="625.34643"
     inkscape:window-x="-8"
     inkscape:window-y="-8"
     inkscape:window-maximized="1"
     inkscape:current-layer="svg166"
     inkscape:document-rotation="0" />
  <metadata
     id="metadata144">
Created by potrace 1.15, written by Peter Selinger 2001-2017
<rdf:RDF>
  <cc:Work
     rdf:about="">
    <dc:format>image/svg+xml</dc:format>
    <dc:type
       rdf:resource="http://purl.org/dc/dcmitype/StillImage" />
    <dc:title></dc:title>
  </cc:Work>
</rdf:RDF>
</metadata>
  <g
     transform="translate(0.000000,1280.000000) scale(0.100000,-0.100000)"
     fill="#000000"
     stroke="none"
     id="g164">
    <path
       d="m 4583,12580 c -56,-11 -128,-32 -160,-46 -48,-21 -76,-26 -163,-29 -177,-6 -303,-56 -367,-148 -18,-26 -31,-47 -28,-47 3,0 -14,-37 -37,-82 -35,-70 -42,-93 -43,-148 -1,-36 -8,-83 -15,-105 l -13,-40 -17,59 c -12,44 -18,55 -23,42 -9,-23 3,-92 13,-76 4,7 10,-3 13,-24 5,-34 -11,-105 -47,-204 -14,-39 -14,-45 -1,-59 13,-13 15,-12 15,7 0,25 21,112 26,108 2,-2 -5,-53 -15,-113 -18,-112 -49,-188 -98,-241 -26,-28 -60,-160 -67,-259 -3,-46 -2,-56 3,-30 l 7,40 8,-46 c 4,-25 7,-54 6,-65 -4,-38 0,-65 9,-59 6,3 27,-32 49,-77 42,-89 58,-109 115,-148 38,-26 19.4486,-53.618 19.4486,-53.618 -11.6595,1.299 -22.7315,19.766 -49.9019,25.181 -16,10.668 -37.0738,12.785 -37.0738,12.785 -48.9298,9.252 -59.3872,6.413 -80.8351,5.98 -56.1708,7.588 -20.7179,-2.52 -56.5685,1.331 -73.8007,3.822 -190.9555,-2.769 -274.3046,-44.42 -103.8239,6.584 -313.6569,-19.764 -429.6066,-86.208 -160.5348,-21.364 -215.5505,-92.544 -223.6875,-98.145 -309.3944,88.288 -704.0977,-218.07 -574.4706,-218.886 -34,-6 -5,-17 0,0 15.2791,-26.71 56.1759,46.032 91.6616,100.09 25.6365,39.054 133.3945,43.248 63.1582,225.489 79.0498,239 82.5135,373.421 -9.7022,700.421 -12,127 -90.1176,297 -131.1176,358 -16,25 -39,70 -50,100 -40,106 -91,182 -123,182 -36,0 -190,-100 -244,-159 l -53,-56 7,65 c 3,40 14,76 25,93 28,40 35,99 13,120 -9,9 -20,17 -24,17 -23,0 -103,-114 -127,-181 -24,-65 -27,-91 -29,-214 -1,-108 -6,-148 -18,-172 -23,-44 -21,-74 8,-114 14,-19 33,-53 44,-75 11,-23 36,-55 56,-70 20,-16 48,-39 61,-52 14,-12 49,-34 77,-48 29,-15 64,-35 79,-45 l 27,-19 -105.7334,-71.588 c -106.5852,-74.603 -175.0581,-178.509 -179.0368,-237.883 C 1240.0865,10544.625 1249.6385,10270.572 1270,10067 c 29.8604,-298.5417 125.6133,-511.1501 642.4706,-468.2941 315.8198,-287.0354 531.2373,-318.5301 769.4211,-231.7279 28.6187,-103.3978 389.3319,-375.1695 499.77,-156.3567 116.3847,-59.9347 205.5034,216.916 200.1619,265.2023 -8.3563,75.5392 27.4117,367.294 27.4117,367.294 v 0 0 c -19,-105 -69.2315,-183.5072 -59.2315,-388.5072 -178.5124,-114.3367 -509.1294,-656.9254 -244.5495,-905.93 97.6993,-218.8197 272.428,-6.9157 272.428,-6.9157 -203.8739,-59.0764 -498.2934,-227.5271 -615.0246,-357.996 -209.7116,-146.4791 -248.099,-257.9232 -319.013,-338.1779 -155.5575,-186.6873 -229.3922,-246.0903 -317.3778,-534.8676 -226.1914,-1485.8735 885.3881,-907.4404 927.2638,-261.3111 -17.2754,-68.2544 -895.0309,-470.9279 -837.3344,-857.1569 -234.3225,-837.3179 687.6881,91.7308 781.9706,461.9027 83.6915,267.4333 -208.605,-79.5558 0,0 -45.1473,103.3206 -833.9586,-489.7392 -812.9893,-808.5395 58.738,-498.8128 268.5927,-868.1619 359.413,-803.7201 269.5959,-89.8255 245.1458,-42.0077 259.7483,-37.3514 -4,-47.2236 -21.491,-14.1721 0,0 -10.8205,-13.3452 -15.3812,6.2201 0,0 -408.082,615.006 -320.6853,-715.9677 -91.8886,-1049.9182 6.6738,-143.7219 68.5274,-172.2117 100.5998,-253.1864 18.6204,-47.0119 19.8862,-96.5787 71.7715,-144.4584 C 2931.7803,3389.1356 3053.1931,3354.6386 3094,3270 c -24.1004,-113 -80.9227,-335.6066 -47.7297,-484.6066 38.5857,-166.4822 97.1278,-609.3025 185.6967,-747.2132 C 3248.8439,1857.967 3403,1660 3401,1612 c -1,-24 5,-63 13,-87 15,-42 14,-45 -28,-152 -43,-111 -143,-300 -171,-323 -8,-7 -15,-17 -15,-23 0,-11 -38,-94 -131,-282 -57,-115 -72,-178 -58,-250 25,-134 204,-285 340,-285 111,0 233,56 272,124 6,11 15,64 18,116 8,100 41,318 58,373 5,17 17,73 26,122 9,50 30,120 46,158 17,37 37,98 45,135 9,37 34,112 56,167 42,104 44,121 21,240 -12,58 73.8024,241.8007 91.8024,380.8007 78.846,181.9998 62.0971,221.1938 90.531,423.4194 76.6535,188.0434 23.0451,320.112 38.3009,402.104 26.9907,129 80.8453,358.1339 -76.8373,488.3241 35.2219,2.7772 -6.6872,-40.8235 0,0 v 0 c 7.8184,-32.0122 158.1514,-152.697 427.665,1159.0763 99.1148,214.2531 194.1776,557.7885 1.7145,279.5696 v 0 L 4523,4778 c 56,5 -9.7626,5.801 -6.9412,6 70.5547,4.9761 -235.392,-756.7307 -85.3578,-806.5148 12.1318,-113.1318 -0.4862,82.4862 0,0 1,-76 83.466,-204.9186 76.466,-230.9186 -7,-25 -41.7136,-109.0943 -79.7136,-189.0943 -38,-80 -56.2868,-164.4551 -77.2868,-224.4551 -17.9223,-118.0777 -42.0403,-176.8666 -69.6544,-289.2525 -3,-112 -11.3968,-183.4267 4.6032,-291.4267 -17.1765,-186 7.4848,-492.7209 -0.5152,-677.7209 -9,-240 53.3998,-407.6171 39.3998,-436.6171 -8,-15 -14,-35 -14,-46 0,-10 -15,-39 -34,-63 -50,-66 -68,-122 -73,-229 -5,-91 -3,-103 43,-265 40,-141 48,-183 47,-245 -2,-105 -22,-285 -39,-351 -33,-129 -13,-163 136,-238 127,-64 227,-87 311,-72 128,22 186,81 173,176 -3,28 -5,72 -5,98 2,34 -4,58 -20,83 -25,42 -60,194 -62,274 -1,32 -9,66 -18,81 -27,41 -44,164 -42,314 1,121 5,152 28,230 15,50 28,111 30,136 3,52 305.3564,341.8861 371.93,657.0993 148.6396,217.3934 221.039,616.3396 207.6126,731.3396 43,170 6.0235,348.7413 -0.9765,568.7413 0,0 38.7677,-61.7868 0,0 -129.1796,90.0425 40.3953,-166.4104 370.6237,460.4806 225.7088,209.2712 373.9052,519.535 425.2824,643.5212 198.5084,250.2429 286.7585,505.1656 87.3946,452.9493 L 6023,4772 c 47.125,30.75 -64,-22 0,0 40,14 204.8668,259.1313 223.8668,263.1313 -214.7418,-193.7563 86.713,-200.0301 127.6332,-184.6313 68.2686,31.4628 170.3322,34.1997 168.9611,91.9419 -0.7359,30.9913 4.0465,131.1989 11.0465,248.1989 39.3541,104.2918 120.3638,371.6427 110.3723,534.6256 149.1313,312.6423 8.7048,1047.2058 -109.9573,851.5992 291.5089,448.0439 -175.9191,364.4027 -231.8969,314.6124 -9,58 0,0 0,0 0,0 233.0256,-392.7657 231.8969,-314.6124 23.4618,-18.8777 227.7981,116.7423 78.4447,670.5335 0.9288,131.7792 -140.9936,308.2146 -207.1467,254.0807 54.4735,28.9557 61.6608,136.0696 -10.5673,237.455 -26.9021,49.298 -71.426,287.5524 -547.2398,394.2066 -68.0426,96.9148 -238.8239,39.3321 -267.4135,76.8586 -2,16 -16.7868,-62.3363 21.2132,-58.3363 37,5 -47.2132,28.3363 -21.2132,58.3363 67.3446,-52.3825 329.0427,-56.6813 267.4135,-76.8586 264.8781,-191.6776 -23.1295,476.6168 -72.0531,501.5553 C 5741.1228,8662.8537 5834,8846 5810,8914 l -19,57 -44.7572,-255.5882 c -184.615,-136.4788 236.9421,-548.948 369.6525,-156.9926 -31.8705,-425.2266 624.99,-136.5549 722.1047,-99.4192 80.7091,-19.5141 152.1355,-60.0959 363.2353,17.1765 247.977,-7.241 378.896,20.5645 588.8235,172.4117 164,78 179.9412,130.4118 210.9412,125.4118 22,-4 39,-2 43,4 4,6 13,9 21,6 8,-4 18,1 21,10 4,11 13,14 25,11 25,-8 60,12 53,30 -9,18.4222 24.2941,-54.877 96.2941,32.0588 25.9644,31.3505 71.7059,40.2354 92.7059,51.2354 37,21 39,73.7058 135,57.7058 53,-9 149,-34 213,-56 163,-56 195,-54 285,22 113,95 140,125 153,169 16,54 48,102 83,125 16,11 51,45 79,76 43,49 48,60 39,78 -6,11 -20,20 -30,20 -13,0 -20,7 -20,19 0,49 -60,37 -92,-18 -12,-21 -31,-42 -42,-47 -12,-5 -32,-26 -45,-46 -15,-23 -32,-38 -44,-38 -11,0 -45,-12 -75,-26 -54,-26 -55,-26 -96,-8 -55,24 -80,47 -102,96 -18,40 -18,41 4,59 13,10 48,23 80,29 112,23 143,33 183,62 34,25 40,34 37,61 l -3,32 -85,-3 c -47,-2 -117,-10 -157,-18 -40,-8 -92,-14 -116,-14 -74,0 -263,-79 -382,-158 -116,-79 -242.7059,-107.647 -268.7059,-85.647 -15,13 -125.1765,-12.8236 -145.1765,-28.8236 -5,-4 20,4 0,0 -23,-4 -52.1176,-35.5294 -56.1176,-46.5294 -7,-22 -71.8824,45.3805 -310.8824,31.3805 -280.4704,-7.43 -504.8146,-53.7026 -560.6066,-84.3934 -219.742,-19.1757 -115.6351,-111.0121 -156.9816,-91.4577 6.1192,74.0417 2.1735,141.5963 -256.4706,213.8235 -112.6187,564.2688 -500.8239,786.8911 -618.8823,659.7647 -10.8879,-11.7241 104.3096,15.3208 87.3096,58.3204 -6.8895,83.919 -95.1678,131.798 -124.4861,186.562 4,66 15,117 42,192 l 37,103 -27,50 c -87,165 -81,148 -82,255 0,139 10,116 -91,206 l -52,46 24,58 c 19,48 21,63 12,83 -9,19 -8,27 3,36 42,33 52,115 25,192 -14,41 -58,127 -78,152 -5,6 -7,12 -3,12 3,0 -2,8 -11,18 -10,9 -27,29 -38,43 -11,14 -30,31 -43,38 -12,6 -22,18 -22,26 0,15 22,6 108,-47 17,-11 32,-17 32,-15 0,3 -31,25 -70,48 -38,24 -67,45 -65,48 3,2 0,10 -6,18 -7,8 -9,31 -6,57 7,49 -10,93 -73,186 -20,30 -42,70 -48,88 l -11,33 45,-37 c 25,-21 59,-53 77,-73 18,-20 29,-32 25,-27 -17,21 -7,28 15,10 l 22,-19 -20,25 c -11,14 -65,72 -120,130 -56,58 -118,130 -138,162 -21,31 -45,62 -54,70 -10,7 -4,-4 11,-25 45,-59 24,-54 -43,11 -34,33 -92,76 -129,96 -46,26 -58,35 -37,31 22,-4 26,-3 15,4 -8,6 -45,15 -83,22 -50,9 -75,20 -97,41 -16,15 -33,29 -37,29 -112,19 -267,19 -370,-1 z m 407,-36 c 0,-2 -13,2 -30,11 -16,9 -30,18 -30,21 0,2 14,-2 30,-11 17,-9 30,-18 30,-21 z m -860,-149 c -7,-8 -18,-15 -24,-15 -6,0 -2,7 8,15 25,19 32,19 16,0 z m 1331,-227 c 8,-15 8,-18 0,-14 -6,4 -16,16 -22,28 -8,15 -8,18 0,14 6,-4 16,-16 22,-28 z m 177,-144 c -4,-3 -12,5 -18,18 -12,22 -12,22 6,6 10,-10 15,-20 12,-24 z m -1868,-150 c -16,-43 -29,-71 -30,-62 0,10 8,39 18,65 11,26 22,57 26,67 3,10 9,17 11,14 3,-2 -8,-40 -25,-84 z m -1928,-51 c 13,-28 13,-28 -49,-59 -35,-17 -63,-27 -63,-23 0,7 89,109 95,109 2,0 10,-12 17,-27 z m 48,-138 c 0,-15 -38,-40 -48,-31 -6,6 28,44 41,45 4,1 7,-6 7,-14 z m 3880,-257 c 0,-6 -11,-1 -25,12 -14,13 -25,31 -25,39 1,11 8,8 25,-12 14,-15 25,-33 25,-39 z m -147,-8 c -4,-14 0,-20 11,-20 9,0 28,-7 42,-16 13,-9 27,-14 30,-11 3,3 -4,10 -15,17 -24,13 -28,30 -6,30 8,0 15,-4 15,-10 0,-5 6,-10 13,-10 8,0 24,-11 37,-26 19,-19 22,-27 11,-33 -9,-6 -10,-11 -2,-15 6,-4 11,-14 11,-22 0,-10 -5,-12 -12,-8 -10,6 -10,5 -2,-7 9,-11 9,-17 -1,-26 -11,-10 -20,-3 -47,32 -18,24 -44,50 -57,57 -31,17 -57,88 -32,88 5,0 7,-9 4,-20 z m 37,0 c 0,-5 -2,-10 -4,-10 -3,0 -8,5 -11,10 -3,6 -1,10 4,10 6,0 11,-4 11,-10 z m 110,-43 c 0,-6 -11,0 -25,13 -14,13 -25,28 -25,33 0,6 11,0 25,-13 14,-13 25,-28 25,-33 z m -1990,26 c 0,-5 -5,-26 -11,-48 -10,-33 -13,-37 -19,-20 -8,22 7,75 21,75 5,0 9,-3 9,-7 z m -47,-123 c -7,-28 -13,-25 -13,6 0,14 4,23 9,20 5,-3 7,-15 4,-26 z m 35,-182 c 12,-27 19,-48 17,-48 -7,0 -45,78 -45,91 0,17 5,10 28,-43 z m -79,-45 c 1,-13 -3,-23 -9,-23 -5,0 -10,19 -9,43 0,32 2,37 9,22 5,-11 9,-30 9,-42 z m 55,-134 c -30,-67 -44,-46 -44,64 v 72 l 31,-49 31,-49 z m -67,59 c -3,-8 -6,-5 -6,6 -1,11 2,17 5,13 3,-3 4,-12 1,-19 z m 121,-93 c 9,-29 11,-55 5,-67 -8,-18 -10,-17 -40,14 l -31,33 16,38 c 9,20 21,36 27,34 5,-2 16,-25 23,-52 z m 1372,-351 c 0,-8 -4,-12 -10,-9 -5,3 -10,13 -10,21 0,8 5,12 10,9 6,-3 10,-13 10,-21 z m 773,-36 c 0,-13 -21,-67 -47,-119 -43,-87 -72.9374,-17.652 -78.9374,-112.652 -6,-105 12,-70 0,0 -16,93 -11.0626,-12.348 47.9374,102.652 49,95 57,116 52,148 -6,33 -5,35 10,21 8,-9 16,-27 16,-40 z M 8030,8800 c 0,-5 -5,-10 -11,-10 -5,0 -7,5 -4,10 3,6 8,10 11,10 2,0 4,-4 4,-10 z M 4857,428 c -3,-8 -6,-5 -6,6 -1,11 2,17 5,13 3,-3 4,-12 1,-19 z"
       id="path146"
       sodipodi:nodetypes="csccsccccccccccsccccccccccsccccccccccsccccscccccsccccccccccccscccscccccccccccccccccccsccccscccsccsccccccccccccccccccscccscccccsccccccccccccccccccccccccccsccccccccccccccsccccccccsccccsccccccccsscccscccccccccssccsccccccscccccccccccccscscscscccccsccsccccccccccccccccscscscscccccccccccccccccccsscsccsssccscscscssscccscccccscsscssssssssccsscssccssccsccccscccccccccccccccscscssccccccssscsscccc" />
    <path
       d="M3821 12370 c-28 -28 -56 -61 -61 -73 -11 -22 -11 -22 5 -2 8 11 39 44 67 73 28 28 49 52 46 52 -3 0 -28 -23 -57 -50z"
       id="path148" />
    <path
       d="M3824 12288 l-19 -23 23 19 c21 18 27 26 19 26 -2 0 -12 -10 -23 -22z"
       id="path150" />
    <path
       d="M3735 12259 c-4 -6 -5 -12 -2 -15 2 -3 7 2 10 11 7 17 1 20 -8 4z"
       id="path152" />
    <path
       d="M3712 12100 c0 -19 2 -27 5 -17 2 9 2 25 0 35 -3 9 -5 1 -5 -18z"
       id="path154" />
    <path
       d="M5650 11840 c0 -13 5 -18 15 -14 10 4 15 0 15 -11 0 -9 4 -14 9 -11 5 4 12 0 14 -6 4 -10 6 -10 6 -1 1 12 -41 63 -53 63 -3 0 -6 -9 -6 -20z"
       id="path156" />
    <path
       d="M5732 11735 c0 -16 2 -22 5 -12 2 9 2 23 0 30 -3 6 -5 -1 -5 -18z"
       id="path158" />
    <path
       d="M5925 11469 c17 -20 31 -35 33 -34 7 6 -12 32 -36 50 -27 19 -27 19 3 -16z"
       id="path160" />
    <path
       d="M3544 11025 c-7 -29 2 -130 14 -151 4 -8 7 27 5 77 -3 98 -8 118 -19 74z"
       id="path162" />
  </g>
</svg>
