<?xml version="1.0" encoding="UTF-8" standalone="no"?>
<svg
   xmlns:dc="http://purl.org/dc/elements/1.1/"
   xmlns:cc="http://creativecommons.org/ns#"
   xmlns:rdf="http://www.w3.org/1999/02/22-rdf-syntax-ns#"
   xmlns:svg="http://www.w3.org/2000/svg"
   xmlns="http://www.w3.org/2000/svg"
   xmlns:sodipodi="http://sodipodi.sourceforge.net/DTD/sodipodi-0.dtd"
   xmlns:inkscape="http://www.inkscape.org/namespaces/inkscape"
   version="1.0"
   width="1040.000000pt"
   height="1280.000000pt"
   viewBox="0 0 1040.000000 1280.000000"
   preserveAspectRatio="xMidYMid meet"
   id="svg166"
   sodipodi:docname="80elementalist.svg"
   inkscape:version="1.0.2 (e86c870879, 2021-01-15, custom)">
  <defs
     id="defs170" />
  <sodipodi:namedview
     pagecolor="#ffffff"
     bordercolor="#666666"
     borderopacity="1"
     objecttolerance="10"
     gridtolerance="10"
     guidetolerance="10"
     inkscape:pageopacity="0"
     inkscape:pageshadow="2"
     inkscape:window-width="1920"
     inkscape:window-height="1017"
     id="namedview168"
     showgrid="false"
     inkscape:zoom="0.2855358"
     inkscape:cx="1373.7065"
     inkscape:cy="625.34643"
     inkscape:window-x="-8"
     inkscape:window-y="-8"
     inkscape:window-maximized="1"
     inkscape:current-layer="svg166"
     inkscape:document-rotation="0" />
  <metadata
     id="metadata144">
Created by potrace 1.15, written by Peter Selinger 2001-2017
<rdf:RDF>
  <cc:Work
     rdf:about="">
    <dc:format>image/svg+xml</dc:format>
    <dc:type
       rdf:resource="http://purl.org/dc/dcmitype/StillImage" />
    <dc:title></dc:title>
  </cc:Work>
</rdf:RDF>
</metadata>
  <g
     transform="translate(0.000000,1280.000000) scale(0.100000,-0.100000)"
     fill="#000000"
     stroke="none"
     id="g164">
    <path
       d="m 4583,12580 c -56,-11 -128,-32 -160,-46 -48,-21 -76,-26 -163,-29 -177,-6 -303,-56 -367,-148 -18,-26 -31,-47 -28,-47 3,0 -14,-37 -37,-82 -35,-70 -42,-93 -43,-148 -1,-36 -8,-83 -15,-105 l -13,-40 -17,59 c -12,44 -18,55 -23,42 -9,-23 3,-92 13,-76 4,7 10,-3 13,-24 5,-34 -11,-105 -47,-204 -14,-39 -14,-45 -1,-59 13,-13 15,-12 15,7 0,25 21,112 26,108 2,-2 -5,-53 -15,-113 -18,-112 -49,-188 -98,-241 -26,-28 -60,-160 -67,-259 -3,-46 -2,-56 3,-30 l 7,40 8,-46 c 4,-25 7,-54 6,-65 -4,-38 0,-65 9,-59 6,3 27,-32 49,-77 42,-89 58,-109 115,-148 38,-26 49.63,-62.905 49.63,-62.905 -11.6595,1.299 -52.9129,29.053 -80.0833,34.468 -16,10.668 0,0 0,0 -48.9298,9.252 -73.4779,6.065 -94.9258,5.632 -56.1708,7.588 -50.2676,-2.52 -86.1182,1.331 -60.3685,3.822 -214.7074,23.497 -300.571,-18.154 -268.9,13.201 -405.611,-14.913 -514.9724,-79.642 -203.0647,-92.962 -101.4928,-118.356 -105.4887,-117.844 C 2295.031,10753.49 1916.2001,10336.026 2046,10334 c -34,-6 -5,-17 0,0 15.2791,-26.71 56.1759,46.032 91.6616,100.09 25.6365,39.054 248.4496,43.248 63.1582,225.489 79.0498,239 82.5135,373.421 -9.7022,700.421 -12,127 -90.1176,297 -131.1176,358 -16,25 -39,70 -50,100 -40,106 -91,182 -123,182 -36,0 -190,-100 -244,-159 l -53,-56 7,65 c 3,40 14,76 25,93 28,40 35,99 13,120 -9,9 -20,17 -24,17 -23,0 -103,-114 -127,-181 -24,-65 -27,-91 -29,-214 -1,-108 -6,-148 -18,-172 -23,-44 -21,-74 8,-114 14,-19 33,-53 44,-75 11,-23 36,-55 56,-70 20,-16 48,-39 61,-52 14,-12 49,-34 77,-48 29,-15 64,-35 79,-45 l 27,-19 -105.7334,-71.588 c -131.3741,-86.997 -183.515,-182.737 -179.0368,-237.883 C 1240.0865,10544.625 1249.6385,10270.572 1270,10067 c 29.8604,-298.5417 125.6133,-511.1501 642.4706,-468.2941 319.2538,-298.4821 624.0744,-577.721 762.8545,-290.8273 -32.6118,-446.318 391.0053,-347.0605 506.3366,-97.2573 116.3847,-59.9347 205.5034,216.916 200.1619,265.2023 -8.3563,75.5392 27.4117,367.294 27.4117,367.294 v 0 0 c -19,-105 -69.2315,-183.5072 -59.2315,-388.5072 -178.5124,-114.3367 -756.1329,-742.2912 -434.9809,-991.2958 117.7273,-251.3244 489.1258,157.2493 489.1258,157.2493 -203.8739,-59.0764 -675.3983,-202.7173 -857.7955,-366.0192 -291.2301,-260.9352 -326.6116,-335.3914 -308.5998,-393.8974 -269.7431,-140.4566 -606.0707,-934.2492 -459.7831,-1232.6575 46.5998,-965.5031 1258.9513,-355.7506 1302.0268,290.0903 -17.2754,-68.2544 -854.2949,-77.1591 -678.1828,-547.1665 63.6151,-1548.6786 509.5388,-92.8685 596.5526,283.2443 83.6915,267.4333 -208.605,-79.5558 0,0 -45.1473,103.3206 -1054.0364,-8.6471 -944.8446,-429.5998 -246.4561,-169.9941 -250.9978,-1177.1357 318.6699,-1023.1946 269.5959,-89.8255 -14.6025,-4.6563 0,0 -4.0461,-47.2236 -70.8233,306.9318 0,0 0,0 312.9489,6.2201 0,0 -459.6141,601.0023 -163.7613,-1014.041 196.1862,-1271.8746 6.6738,-143.7219 100.3381,-156.2426 160.1659,-242.7731 60.8742,-88.0439 67.9124,-97.7054 119.7977,-145.5851 46.7587,-167.8483 158.4182,-181.8488 199.2251,-266.4874 -24.1004,-113 -99.8244,-181.6772 -80.2327,-493.8932 38.5857,-166.4822 59.9815,-539.6532 148.5504,-677.5639 3.716,-193.3741 176.2203,-482.1101 208.5009,-495.8295 22.1071,-9.3956 21.2515,-49.0701 29.2515,-73.0701 15,-42 18.6433,-56.6082 -23.3567,-163.6082 C 3287.2805,1259.6784 3243,1073 3215,1050 c -8,-7 -15,-17 -15,-23 0,-11 -38,-94 -131,-282 -57,-115 -72,-178 -58,-250 25,-134 204,-285 340,-285 111,0 233,56 272,124 6,11 15,64 18,116 8,100 41,318 58,373 5,17 17,73 26,122 9,50 30,120 46,158 17,37 37,98 45,135 9,37 34,112 56,167 42,104 136.8657,88.4969 113.8657,207.4969 7.6349,-10.7221 236.9065,249.9706 239.6351,442.4204 50.3057,144.2528 59.8308,170.8794 23.091,415.9259 118.0615,188.0434 16.945,252.0561 32.2008,334.0481 26.9907,129 15.8394,330.2741 -141.8432,460.4643 35.2219,2.7772 -6.6872,-40.8235 0,0 v 0 c 49.5358,-77.2479 365.2751,-155.2059 325.5126,1233.3689 99.1148,214.2531 194.1776,557.7885 1.7145,279.5696 v 0 L 4523,4778 c 56,5 -9.7626,5.801 -6.9412,6 70.5547,4.9761 -291.1115,-756.7307 -141.0773,-806.5148 12.1318,-113.1318 13.4437,26.7667 13.9299,-55.7195 1,-76 4.5301,-93.4796 -2.4699,-119.4796 -7,-25 23.2925,-99.8078 -14.7075,-179.8078 -38,-80 -163.0825,-210.8879 -184.0825,-270.8879 -165.8473,-99.7335 -73.4481,-110.2013 27.8547,-256.7495 -3,-112 49.2864,-181.9496 65.2864,-289.9496 -17.1765,-186 -47.2918,-564.974 -55.2918,-749.974 -16.263,-258.1575 33.4325,-526.7389 58.9611,-462.9173 -8,-15 0,0 0,0 -11.6082,-23.9299 5.8948,-36.6784 -13.1052,-60.6784 C 4221.3567,1465.3216 4208,1407 4203,1300 c -5,-91 -3,-103 43,-265 40,-141 48,-183 47,-245 -2,-105 -22,-285 -39,-351 -33,-129 -13,-163 136,-238 127,-64 227,-87 311,-72 128,22 186,81 173,176 -3,28 -5,72 -5,98 2,34 -4,58 -20,83 -25,42 -60,194 -62,274 -1,32 -9,66 -18,81 -27,41 -23.1052,164 -21.1052,314 1,121 9.6433,140.3918 32.6433,218.3918 15,50 31.2833,96.9051 33.2833,121.9051 0,0 304.3947,260.7934 370.9683,576.0067 148.6396,217.3934 248.8988,769.5682 235.4724,884.5682 43,170 117.4624,237.3024 110.4624,457.3024 0,0 38.7677,-61.7868 0,0 -108.8479,55.7683 -38.8555,-235.3329 326.5809,504.99 148.3301,76.8983 317.4632,498.1106 378.906,701.1642 190.2434,432.6761 277.2147,754.7267 10.6554,415.8029 -201.3823,87.7287 -180.9979,27.3275 0,0 47.125,30.75 -64,-22 0,0 40,14 -19,367.4631 -148.5853,74.2926 203.8901,52.169 147.9066,39.2896 176.445,83.5792 -192.2468,123.0703 -339.7019,-123.6718 309.9609,-182.6018 107.201,-9.724 22.5412,83.6479 79.7892,251.7275 38.4057,180.8097 39.1769,88.7701 124.9754,351.5054 99.0671,641.2567 106.7904,1046.0271 -208.263,936.965 291.5089,448.0439 -202.1855,390.6691 -258.1633,340.8788 -9,58 0,0 0,0 0,0 233.0256,-392.7657 231.8969,-314.6124 20.3198,-211.6748 410.0995,-615.6338 378.7217,393.0063 0.9288,131.7792 -50.3245,402.4686 -131.3975,515.288 -107.5513,179.8604 -159.2678,174.7739 -192.4914,193.5615 -5.7423,123.5907 -248.1108,347.7658 -741.3419,454.42 -68.0426,96.9148 -238.8239,39.3321 -267.4135,76.8586 -2,16 -16.7868,-62.3363 21.2132,-58.3363 37,5 -47.2132,28.3363 -21.2132,58.3363 67.3446,-52.3825 329.0427,-56.6813 267.4135,-76.8586 436.6385,-253.9765 271.9188,439.6657 65.8455,468.7223 C 5872.8662,8610.5202 5834,8846 5810,8914 l -19,57 -44.7572,-255.5882 C 5561.6278,8578.933 6136.0434,7758.8411 6115.8953,8558.4192 5968.6709,8052.796 6737.4914,8418.5012 6838,8459 c 80.7091,-19.5141 152.1355,-60.0959 363.2353,17.1765 171.8684,-159.4582 378.896,20.5645 588.8235,172.4117 158.483,33.8637 179.8347,129.5598 210.9412,125.4118 22,-4 39,-2 43,4 4,6 13,9 21,6 8,-4 18,1 21,10 4,11 13,14 25,11 25,-8 63.2833,5.4334 56.2833,23.4334 -9,18.4222 21.0108,-48.3104 93.0108,38.6254 25.9644,31.3505 71.7059,40.2354 92.7059,51.2354 37,21 39,73.7058 135,57.7058 53,-9 149,-34 213,-56 163,-56 195,-54 285,22 113,95 140,125 153,169 16,54 48,102 83,125 16,11 51,45 79,76 43,49 48,60 39,78 -6,11 -20,20 -30,20 -13,0 -20,7 -20,19 0,49 -60,37 -92,-18 -12,-21 -31,-42 -42,-47 -12,-5 -32,-26 -45,-46 -15,-23 -32,-38 -44,-38 -11,0 -45,-12 -75,-26 -54,-26 -55,-26 -96,-8 -55,24 -80,47 -102,96 -18,40 -18,41 4,59 13,10 48,23 80,29 112,23 143,33 183,62 34,25 40,34 37,61 l -3,32 -85,-3 c -47,-2 -117,-10 -157,-18 -40,-8 -92,-14 -116,-14 -74,0 -263,-79 -382,-158 -116,-79 -216.4395,-107.647 -242.4395,-85.647 -18.1656,16.2674 -202.1407,15.1721 -171.4429,-28.8236 3.664,-5.2512 13.0351,16.769 -6.9649,12.769 -19.59,-4 -57.4765,-28.5644 -64.2434,-39.5644 -7,-22 -54.4701,39.5764 -293.4701,25.5764 -280.4704,-7.43 -507.1362,-67.6325 -562.9282,-98.3233 -253.6853,48.7108 -115.7202,-110.8418 -156.9816,-91.4577 6.1192,74.0417 73.9706,165.5287 -256.4706,213.8235 65.2985,318.4866 -495.9791,767.5121 -618.8823,659.7647 -12.0312,-10.5476 130.576,-10.9456 113.576,32.0542 C 6022.7399,10206.337 5898.4941,10299.884 5944,10205 c 4,66 15,117 42,192 l 37,103 -27,50 c -87,165 -81,148 -82,255 0,139 10,116 -91,206 l -52,46 24,58 c 19,48 21,63 12,83 -9,19 -8,27 3,36 42,33 52,115 25,192 -14,41 -58,127 -78,152 -5,6 -7,12 -3,12 3,0 -2,8 -11,18 -10,9 -27,29 -38,43 -11,14 -30,31 -43,38 -12,6 -22,18 -22,26 0,15 22,6 108,-47 17,-11 32,-17 32,-15 0,3 -31,25 -70,48 -38,24 -67,45 -65,48 3,2 0,10 -6,18 -7,8 -9,31 -6,57 7,49 -10,93 -73,186 -20,30 -42,70 -48,88 l -11,33 45,-37 c 25,-21 59,-53 77,-73 18,-20 29,-32 25,-27 -17,21 -7,28 15,10 l 22,-19 -20,25 c -11,14 -65,72 -120,130 -56,58 -118,130 -138,162 -21,31 -45,62 -54,70 -10,7 -4,-4 11,-25 45,-59 24,-54 -43,11 -34,33 -92,76 -129,96 -46,26 -58,35 -37,31 22,-4 26,-3 15,4 -8,6 -45,15 -83,22 -50,9 -75,20 -97,41 -16,15 -33,29 -37,29 -112,19 -267,19 -370,-1 z m 407,-36 c 0,-2 -13,2 -30,11 -16,9 -30,18 -30,21 0,2 14,-2 30,-11 17,-9 30,-18 30,-21 z m -860,-149 c -7,-8 -18,-15 -24,-15 -6,0 -2,7 8,15 25,19 32,19 16,0 z m 1331,-227 c 8,-15 8,-18 0,-14 -6,4 -16,16 -22,28 -8,15 -8,18 0,14 6,-4 16,-16 22,-28 z m 177,-144 c -4,-3 -12,5 -18,18 -12,22 -12,22 6,6 10,-10 15,-20 12,-24 z m -1868,-150 c -16,-43 -29,-71 -30,-62 0,10 8,39 18,65 11,26 22,57 26,67 3,10 9,17 11,14 3,-2 -8,-40 -25,-84 z m -1928,-51 c 13,-28 13,-28 -49,-59 -35,-17 -63,-27 -63,-23 0,7 89,109 95,109 2,0 10,-12 17,-27 z m 48,-138 c 0,-15 -38,-40 -48,-31 -6,6 28,44 41,45 4,1 7,-6 7,-14 z m 3880,-257 c 0,-6 -11,-1 -25,12 -14,13 -25,31 -25,39 1,11 8,8 25,-12 14,-15 25,-33 25,-39 z m -147,-8 c -4,-14 0,-20 11,-20 9,0 28,-7 42,-16 13,-9 27,-14 30,-11 3,3 -4,10 -15,17 -24,13 -28,30 -6,30 8,0 15,-4 15,-10 0,-5 6,-10 13,-10 8,0 24,-11 37,-26 19,-19 22,-27 11,-33 -9,-6 -10,-11 -2,-15 6,-4 11,-14 11,-22 0,-10 -5,-12 -12,-8 -10,6 -10,5 -2,-7 9,-11 9,-17 -1,-26 -11,-10 -20,-3 -47,32 -18,24 -44,50 -57,57 -31,17 -57,88 -32,88 5,0 7,-9 4,-20 z m 37,0 c 0,-5 -2,-10 -4,-10 -3,0 -8,5 -11,10 -3,6 -1,10 4,10 6,0 11,-4 11,-10 z m 110,-43 c 0,-6 -11,0 -25,13 -14,13 -25,28 -25,33 0,6 11,0 25,-13 14,-13 25,-28 25,-33 z m -1990,26 c 0,-5 -5,-26 -11,-48 -10,-33 -13,-37 -19,-20 -8,22 7,75 21,75 5,0 9,-3 9,-7 z m -47,-123 c -7,-28 -13,-25 -13,6 0,14 4,23 9,20 5,-3 7,-15 4,-26 z m 35,-182 c 12,-27 19,-48 17,-48 -7,0 -45,78 -45,91 0,17 5,10 28,-43 z m -79,-45 c 1,-13 -3,-23 -9,-23 -5,0 -10,19 -9,43 0,32 2,37 9,22 5,-11 9,-30 9,-42 z m 55,-134 c -30,-67 -44,-46 -44,64 v 72 l 31,-49 31,-49 z m -67,59 c -3,-8 -6,-5 -6,6 -1,11 2,17 5,13 3,-3 4,-12 1,-19 z m 121,-93 c 9,-29 11,-55 5,-67 -8,-18 -10,-17 -40,14 l -31,33 16,38 c 9,20 21,36 27,34 5,-2 16,-25 23,-52 z m 1372,-351 c 0,-8 -4,-12 -10,-9 -5,3 -10,13 -10,21 0,8 5,12 10,9 6,-3 10,-13 10,-21 z m 773,-36 c 0,-13 -21,-67 -47,-119 -43,-87 -72.9374,-17.652 -78.9374,-112.652 -6,-105 12,-70 0,0 -16,93 -11.0626,-12.348 47.9374,102.652 49,95 57,116 52,148 -6,33 -5,35 10,21 8,-9 16,-27 16,-40 z M 8030,8800 c 0,-5 -5,-10 -11,-10 -5,0 -7,5 -4,10 3,6 8,10 11,10 2,0 4,-4 4,-10 z M 4857,428 c -3,-8 -6,-5 -6,6 -1,11 2,17 5,13 3,-3 4,-12 1,-19 z"
       id="path146"
       sodipodi:nodetypes="csccsccccccccccsccccccccccsccccccccccsccccscccccsccccccccccccscccscccccccccccccccccccsccccscccsccsccccccccccccccccccscccscccccsccccccccccccccccccccccccccsccccccccccccccsccccccccsccccsccccccccsscccscccccccccssccsccccccscccccccccccccscscscscccccsccsccccccccccccccccscscscscccccccccccccccccccsscsccsssccscscscssscccscccccscsscssssssssccsscssccssccsccccscccccccccccccccscscssccccccssscsscccc" />
    <path
       d="M3821 12370 c-28 -28 -56 -61 -61 -73 -11 -22 -11 -22 5 -2 8 11 39 44 67 73 28 28 49 52 46 52 -3 0 -28 -23 -57 -50z"
       id="path148" />
    <path
       d="M3824 12288 l-19 -23 23 19 c21 18 27 26 19 26 -2 0 -12 -10 -23 -22z"
       id="path150" />
    <path
       d="M3735 12259 c-4 -6 -5 -12 -2 -15 2 -3 7 2 10 11 7 17 1 20 -8 4z"
       id="path152" />
    <path
       d="M3712 12100 c0 -19 2 -27 5 -17 2 9 2 25 0 35 -3 9 -5 1 -5 -18z"
       id="path154" />
    <path
       d="M5650 11840 c0 -13 5 -18 15 -14 10 4 15 0 15 -11 0 -9 4 -14 9 -11 5 4 12 0 14 -6 4 -10 6 -10 6 -1 1 12 -41 63 -53 63 -3 0 -6 -9 -6 -20z"
       id="path156" />
    <path
       d="M5732 11735 c0 -16 2 -22 5 -12 2 9 2 23 0 30 -3 6 -5 -1 -5 -18z"
       id="path158" />
    <path
       d="M5925 11469 c17 -20 31 -35 33 -34 7 6 -12 32 -36 50 -27 19 -27 19 3 -16z"
       id="path160" />
    <path
       d="M3544 11025 c-7 -29 2 -130 14 -151 4 -8 7 27 5 77 -3 98 -8 118 -19 74z"
       id="path162" />
  </g>
</svg>
