<?xml version="1.0" encoding="UTF-8" standalone="no"?>
<svg
   xmlns:dc="http://purl.org/dc/elements/1.1/"
   xmlns:cc="http://creativecommons.org/ns#"
   xmlns:rdf="http://www.w3.org/1999/02/22-rdf-syntax-ns#"
   xmlns:svg="http://www.w3.org/2000/svg"
   xmlns="http://www.w3.org/2000/svg"
   xmlns:sodipodi="http://sodipodi.sourceforge.net/DTD/sodipodi-0.dtd"
   xmlns:inkscape="http://www.inkscape.org/namespaces/inkscape"
   version="1.0"
   width="1040.000000pt"
   height="1280.000000pt"
   viewBox="0 0 1040.000000 1280.000000"
   preserveAspectRatio="xMidYMid meet"
   id="svg166"
   sodipodi:docname="90elementalist.svg"
   inkscape:version="1.0.2 (e86c870879, 2021-01-15, custom)">
  <defs
     id="defs170" />
  <sodipodi:namedview
     pagecolor="#ffffff"
     bordercolor="#666666"
     borderopacity="1"
     objecttolerance="10"
     gridtolerance="10"
     guidetolerance="10"
     inkscape:pageopacity="0"
     inkscape:pageshadow="2"
     inkscape:window-width="1920"
     inkscape:window-height="1017"
     id="namedview168"
     showgrid="false"
     inkscape:zoom="0.4038086"
     inkscape:cx="234.44366"
     inkscape:cy="822.20085"
     inkscape:window-x="-8"
     inkscape:window-y="-8"
     inkscape:window-maximized="1"
     inkscape:current-layer="svg166"
     inkscape:document-rotation="0" />
  <metadata
     id="metadata144">
Created by potrace 1.15, written by Peter Selinger 2001-2017
<rdf:RDF>
  <cc:Work
     rdf:about="">
    <dc:format>image/svg+xml</dc:format>
    <dc:type
       rdf:resource="http://purl.org/dc/dcmitype/StillImage" />
    <dc:title></dc:title>
  </cc:Work>
</rdf:RDF>
</metadata>
  <g
     transform="translate(0.000000,1280.000000) scale(0.100000,-0.100000)"
     fill="#000000"
     stroke="none"
     id="g164">
    <path
       d="m 4583,12580 c -56,-11 -128,-32 -160,-46 -48,-21 -76,-26 -163,-29 -177,-6 -303,-56 -367,-148 -18,-26 -31,-47 -28,-47 3,0 -14,-37 -37,-82 -35,-70 -42,-93 -43,-148 -1,-36 -8,-83 -15,-105 l -13,-40 -17,59 c -12,44 -18,55 -23,42 -9,-23 3,-92 13,-76 4,7 10,-3 13,-24 5,-34 -11,-105 -47,-204 -14,-39 -14,-45 -1,-59 13,-13 15,-12 15,7 0,25 21,112 26,108 2,-2 -5,-53 -15,-113 -18,-112 -49,-188 -98,-241 -26,-28 -60,-160 -67,-259 -3,-46 -2,-56 3,-30 l 7,40 8,-46 c 4,-25 7,-54 6,-65 -4,-38 0,-65 9,-59 6,3 27,-32 49,-77 42,-89 58,-109 115,-148 38,-26 49.63,-62.905 49.63,-62.905 -11.6595,1.299 -52.9129,29.053 -80.0833,34.468 -16,10.668 0,0 0,0 -48.9298,9.252 -73.4779,6.065 -94.9258,5.632 -56.1708,7.588 -50.2676,-2.52 -86.1182,1.331 -60.3685,3.822 -214.7074,23.497 -300.571,-18.154 -268.9,13.201 -405.611,-14.913 -514.9724,-79.642 -203.0647,-92.962 -101.4928,-118.356 -105.4887,-117.844 C 2295.031,10753.49 1916.2001,10336.026 2046,10334 c -34,-6 -5,-17 0,0 15.2791,-26.71 56.1759,46.032 91.6616,100.09 25.6365,39.054 248.4496,43.248 63.1582,225.489 88.4717,250.516 172.3068,483.168 -9.7022,700.421 -12,127 -90.1176,297 -131.1176,358 -16,25 -39,70 -50,100 -40,106 -91,182 -123,182 -36,0 -190,-100 -244,-159 l -53,-56 7,65 c 3,40 14,76 25,93 28,40 35,99 13,120 -9,9 -20,17 -24,17 -23,0 -103,-114 -127,-181 -24,-65 -27,-91 -29,-214 -1,-108 -6,-148 -18,-172 -23,-44 -21,-74 8,-114 14,-19 33,-53 44,-75 11,-23 36,-55 56,-70 20,-16 48,-39 61,-52 14,-12 49,-34 77,-48 29,-15 64,-35 79,-45 l -79,45 c 2.5272,-45.196 28.8152,-90.392 0.2666,-135.588 -157.6405,-77.147 -252.4643,-186.02 -247.9861,-241.166 C 1171.1372,10541.342 1249.6386,10270.572 1270,10067 c 29.8604,-298.5417 260.47,-544.8643 642.4706,-468.2941 305.0674,-460.7735 659.8807,-161.2088 559.7166,-161.7886 265.0159,-892.3595 624.147,-413.8582 653.755,-175.2198 116.3847,-59.9347 261.2229,165.8398 255.8814,214.1261 -8.3563,75.5392 27.4117,367.294 27.4117,367.294 v 0 0 c -19,-105 -69.2315,-183.5072 -59.2315,-388.5072 -314.833,-146.5249 -1219.7789,-1021.8333 -369.3149,-1063.5284 117.7273,-251.3244 423.4598,229.4819 423.4598,229.4819 -203.8739,-59.0764 -800.1637,-91.085 -1028.5271,-221.5539 -275.8602,-152.5825 -396.8578,-157.2334 -604.0968,-395.024 -246.4998,-241.8187 -435.0513,-599.1351 -316.718,-1402.2624 231.1055,-1035.1707 1583.6364,-335.4067 1625.1903,316.3565 -17.2754,-68.2544 -854.2949,-77.1591 -678.1828,-547.1665 63.6151,-1548.6786 509.5388,-92.8685 596.5526,283.2443 83.6915,267.4333 -208.605,-79.5558 0,0 -45.1473,103.3206 -1076.1829,-2.2738 -966.9911,-423.2265 -984.5533,611.3349 -64.6128,-2170.4722 340.8164,-1029.5679 269.5959,-89.8255 -14.6025,-4.6563 0,0 -4.0461,-47.2236 -97.0897,77.1007 0,0 0,0 470.5474,58.7529 157.5985,52.5328 -294.3873,652.875 -542.8486,-802.8685 -384.8614,-1299.4043 127.8679,-220.1417 271.0832,-498.7398 307.351,-544.3701 87.7704,-110.4283 123.4952,-118.6684 175.3805,-166.5481 150.7417,-227.6932 234.245,-52.5169 167.9854,5.5998 -33.6525,-117.776 -172.4609,-41.1521 -64.1862,-390.2843 -49.7291,-232.7183 207.1024,-733.607 345.0252,-834.5023 3.716,-193.3741 215.6199,-403.3109 247.9005,-417.0303 22.1071,-9.3956 21.2515,-49.0701 29.2515,-73.0701 15,-42 18.6433,-56.6082 -23.3567,-163.6082 C 3287.2805,1259.6784 3243,1073 3215,1050 c -8,-7 -15,-17 -15,-23 0,-11 -38,-94 -131,-282 -57,-115 -72,-178 -58,-250 25,-134 204,-285 340,-285 111,0 233,56 272,124 6,11 15,64 18,116 8,100 41,318 58,373 5,17 17,73 26,122 9,50 30,120 46,158 17,37 37,98 45,135 9,37 34,112 56,167 42,104 136.8657,88.4969 113.8657,207.4969 7.6349,-10.7221 236.9065,249.9706 239.6351,442.4204 50.3057,144.2528 59.8308,170.8794 23.091,415.9259 118.0615,188.0434 16.945,252.0561 32.2008,334.0481 26.9907,129 15.8394,330.2741 -141.8432,460.4643 35.2219,2.7772 -6.6872,-40.8235 0,0 v 0 c 49.5358,-77.2479 365.2751,-155.2059 325.5126,1233.3689 99.1148,214.2531 194.1776,557.7885 1.7145,279.5696 v 0 L 4523,4778 c 56,5 -9.7626,5.801 -6.9412,6 70.5547,4.9761 -291.1115,-756.7307 -141.0773,-806.5148 12.1318,-113.1318 13.4437,26.7667 13.9299,-55.7195 1,-76 4.5301,-93.4796 -2.4699,-119.4796 -7,-25 23.2925,-99.8078 -14.7075,-179.8078 -38,-80 -163.0825,-210.8879 -184.0825,-270.8879 -165.8473,-99.7335 -73.4481,-110.2013 27.8547,-256.7495 -3,-112 49.2864,-181.9496 65.2864,-289.9496 -17.1765,-186 -47.2918,-564.974 -55.2918,-749.974 -174.3726,-337.2123 -1.8935,-544.4019 58.9611,-462.9173 -8,-15 -23.2164,-23.2164 -23.2164,-23.2164 -11.6082,-23.9299 29.1112,-13.462 10.1112,-37.462 C 4221.3567,1465.3216 4208,1407 4203,1300 c -5,-91 -3,-103 43,-265 40,-141 48,-183 47,-245 -2,-105 -22,-285 -39,-351 -33,-129 -13,-163 136,-238 127,-64 227,-87 311,-72 128,22 186,81 173,176 -3,28 -5,72 -5,98 2,34 -4,58 -20,83 -25,42 -60,194 -62,274 -1,32 -9,66 -18,81 -27,41 -23.1052,164 -21.1052,314 1,121 9.6433,140.3918 32.6433,218.3918 15,50 31.2833,96.9051 33.2833,121.9051 0,0 350.8276,260.7934 417.4012,576.0067 148.6396,217.3934 202.4659,769.5682 189.0395,884.5682 69.9901,125.0165 51.0166,136.0018 36.1698,369.0799 0,0 47.3943,-131.1628 8.6266,-69.376 -111.7623,32.4534 64.4315,-203.9494 438.6798,606.869 106.8898,76.8983 268.5556,553.8301 332.4731,756.8837 190.2434,432.6761 277.2147,754.7267 10.6554,415.8029 -201.3823,87.7287 -180.9979,27.3275 0,0 47.125,30.75 -64,-22 0,0 40,14 -19,367.4631 -148.5853,74.2926 203.8901,52.169 147.9066,39.2896 176.445,83.5792 -192.2468,123.0703 -399.3999,-257.8372 252.9215,-261.2077 97.9832,-0.5063 51.598,131.137 117.1288,290.9338 18.7059,167.6765 157.3757,75.6369 243.1742,338.3722 421.5143,385.6108 89.7855,1070.4787 -234.5294,963.2314 291.5089,448.0439 -274.4181,416.9355 -330.3959,367.1452 -9,58 0,0 0,0 0,0 233.0256,-392.7657 231.8969,-314.6124 16.2339,-208.406 252.684,-1224.145 430.0713,-397.126 159.2297,-521.8108 448.926,1267.9902 -134.7209,1432.1892 -0.7557,152.0007 33.2236,-18.7876 0,0 41.8611,244.2485 -497.8405,496.7529 -981.8595,521.2126 -68.0426,96.9148 -238.8239,39.3321 -267.4135,76.8586 -2,16 -16.7868,-62.3363 21.2132,-58.3363 37,5 -47.2132,28.3363 -21.2132,58.3363 67.3446,-116.3559 329.0427,-163.6935 267.4135,-76.8586 1051.8019,-659.1939 595.6613,678.7654 3.4628,708.4033 -61.9224,3.099 -30.6099,297.853 -54.6099,365.853 v 0 l -294.2881,-150.5225 c -175.0503,-159.195 1211.7127,-706.5979 906.6006,-186.1723 -449.5068,-307.0126 -1652.4471,412.5013 -132.5268,-346.1336 -105.0603,77.3822 205.956,-273.157 822.1007,43.5397 78.4435,-33.7223 361.453,-108.5471 653.9262,15.8031 110.5035,68.4565 344.0463,259.1585 227.921,190.0879 22,-4 39,-2 43,4 4,6 13,9 21,6 8,-4 18,1 21,10 4,11 1.9299,-57.3628 0,0 25,-8 68.5835,23.3299 61.5835,41.3299 -9,18.4222 12.1922,-19.6314 112.7106,31.7289 29.9733,15.315 77.6717,-29.5941 86.1393,31.5356 14.0958,-11.6559 79.8263,-24.0732 122.9934,68.119 C 8350.3079,8836.1582 8624.3746,8905.3662 8701,8920 c 163,-56 195,-54 285,22 113,95 140,125 153,169 16,54 48,102 83,125 16,11 51,45 79,76 43,49 48,60 39,78 -6,11 -20,20 -30,20 -13,0 -20,7 -20,19 0,49 -60,37 -92,-18 -12,-21 -31,-42 -42,-47 -12,-5 -32,-26 -45,-46 -15,-23 -32,-38 -44,-38 -11,0 -45,-12 -75,-26 -54,-26 -55,-26 -96,-8 -55,24 -80,47 -102,96 -18,40 -18,41 4,59 13,10 48,23 80,29 112,23 143,33 183,62 34,25 40,34 37,61 l -3,32 -85,-3 c -47,-2 -117,-10 -157,-18 -40,-8 -92,-14 -116,-14 -74,0 -263,-79 -382,-158 -116,-79 -216.4395,-107.647 -242.4395,-85.647 -18.1656,16.2674 -202.1407,15.1721 -171.4429,-28.8236 3.664,-5.2512 13.0351,16.769 -6.9649,12.769 -19.59,-4 -57.4765,-28.5644 -64.2434,-39.5644 -7,-22 -113.5695,138.2121 -352.5695,124.2121 -243.3241,43.6462 -304.0949,38.0366 -359.8869,7.3458 -31.2793,94.1079 -506.4198,15.0484 -360.7342,94.176 87.2876,41.7913 -97.7431,-28.0553 -52.5329,-13.1332 569.9253,-406.6581 -460.746,752.5843 -416.8227,410.0164 13.5212,-105.4551 93.8946,277.2669 -70.5827,285.2999 6.3653,185.034 -415.1357,358.941 -360.7804,220.349 4,66 63,-57 90,18 l 37,103 -27,50 c -87,165 -81,148 -82,255 0,139 10,116 -91,206 l -52,46 24,58 c 19,48 21,63 12,83 -9,19 -8,27 3,36 42,33 52,115 25,192 -14,41 -58,127 -78,152 -5,6 -7,12 -3,12 3,0 -2,8 -11,18 -10,9 -27,29 -38,43 -11,14 -30,31 -43,38 -12,6 -22,18 -22,26 0,15 22,6 108,-47 17,-11 32,-17 32,-15 0,3 -31,25 -70,48 -38,24 -67,45 -65,48 3,2 0,10 -6,18 -7,8 -9,31 -6,57 7,49 -10,93 -73,186 -20,30 -42,70 -48,88 l -11,33 45,-37 c 25,-21 59,-53 77,-73 18,-20 29,-32 25,-27 -17,21 -7,28 15,10 l 22,-19 -20,25 c -11,14 -65,72 -120,130 -56,58 -118,130 -138,162 -21,31 -45,62 -54,70 -10,7 -4,-4 11,-25 45,-59 24,-54 -43,11 -34,33 -92,76 -129,96 -46,26 -58,35 -37,31 22,-4 26,-3 15,4 -8,6 -45,15 -83,22 -50,9 -75,20 -97,41 -16,15 -33,29 -37,29 -112,19 -267,19 -370,-1 z m 407,-36 c 0,-2 -13,2 -30,11 -16,9 -30,18 -30,21 0,2 14,-2 30,-11 17,-9 30,-18 30,-21 z m -860,-149 c -7,-8 -18,-15 -24,-15 -6,0 -2,7 8,15 25,19 32,19 16,0 z m 1331,-227 c 8,-15 8,-18 0,-14 -6,4 -16,16 -22,28 -8,15 -8,18 0,14 6,-4 16,-16 22,-28 z m 177,-144 c -4,-3 -12,5 -18,18 -12,22 -12,22 6,6 10,-10 15,-20 12,-24 z m -1868,-150 c -16,-43 -29,-71 -30,-62 0,10 8,39 18,65 11,26 22,57 26,67 3,10 9,17 11,14 3,-2 -8,-40 -25,-84 z m -1928,-51 c 13,-28 13,-28 -49,-59 -35,-17 -63,-27 -63,-23 0,7 89,109 95,109 2,0 10,-12 17,-27 z m 48,-138 c 0,-15 -38,-40 -48,-31 -6,6 28,44 41,45 4,1 7,-6 7,-14 z m 3880,-257 c 0,-6 -11,-1 -25,12 -14,13 -25,31 -25,39 1,11 8,8 25,-12 14,-15 25,-33 25,-39 z m -147,-8 c -4,-14 0,-20 11,-20 9,0 28,-7 42,-16 13,-9 27,-14 30,-11 3,3 -4,10 -15,17 -24,13 -28,30 -6,30 8,0 15,-4 15,-10 0,-5 6,-10 13,-10 8,0 24,-11 37,-26 19,-19 22,-27 11,-33 -9,-6 -10,-11 -2,-15 6,-4 11,-14 11,-22 0,-10 -5,-12 -12,-8 -10,6 -10,5 -2,-7 9,-11 9,-17 -1,-26 -11,-10 -20,-3 -47,32 -18,24 -44,50 -57,57 -31,17 -57,88 -32,88 5,0 7,-9 4,-20 z m 37,0 c 0,-5 -2,-10 -4,-10 -3,0 -8,5 -11,10 -3,6 -1,10 4,10 6,0 11,-4 11,-10 z m 110,-43 c 0,-6 -11,0 -25,13 -14,13 -25,28 -25,33 0,6 11,0 25,-13 14,-13 25,-28 25,-33 z m -1990,26 c 0,-5 -5,-26 -11,-48 -10,-33 -13,-37 -19,-20 -8,22 7,75 21,75 5,0 9,-3 9,-7 z m -47,-123 c -7,-28 -13,-25 -13,6 0,14 4,23 9,20 5,-3 7,-15 4,-26 z m 35,-182 c 12,-27 19,-48 17,-48 -7,0 -45,78 -45,91 0,17 5,10 28,-43 z m -79,-45 c 1,-13 -3,-23 -9,-23 -5,0 -10,19 -9,43 0,32 2,37 9,22 5,-11 9,-30 9,-42 z m 55,-134 c -30,-67 -44,-46 -44,64 v 72 l 31,-49 31,-49 z m -67,59 c -3,-8 -6,-5 -6,6 -1,11 2,17 5,13 3,-3 4,-12 1,-19 z m 121,-93 c 9,-29 11,-55 5,-67 -8,-18 -10,-17 -40,14 l -31,33 16,38 c 9,20 21,36 27,34 5,-2 16,-25 23,-52 z m 1372,-351 c 0,-8 -4,-12 -10,-9 -5,3 -10,13 -10,21 0,8 5,12 10,9 6,-3 10,-13 10,-21 z m 773,-36 c 0,-13 -21,-67 -47,-119 -43,-87 -72.9374,-17.652 -78.9374,-112.652 -6,-105 12,-70 0,0 -16,93 -11.0626,-12.348 47.9374,102.652 49,95 57,116 52,148 -6,33 -5,35 10,21 8,-9 16,-27 16,-40 z M 8030,8800 c 0,-5 14,-22 -11,-10 -4.5076,2.1637 -0.6433,-36.0762 2.3567,-31.0762 3,6 -3,0 0,0 2,0 8.6433,47.0762 8.6433,41.0762 z M 4857,428 c -3,-8 -6,-5 -6,6 -1,11 2,17 5,13 3,-3 4,-12 1,-19 z"
       id="path146"
       sodipodi:nodetypes="csccsccccccccccsccccccccccsccccccccccsccccscccccsccccccccccccscccscccccccccccccccccccsccccscccsccsccccccccccccccccccscccscccccsccccccccccccccccccccccccccsccccccccccccccsccccccccsccccsccccccccsscccscccccccccssccsccccccscccccccccccccscscscscccccsccsccccccccccccccccscscscscccccccccccccccccccsscsccsssccscscscssscccscccccscsscssssssssccsscssccssccsccccscccccccccccccccscscssccccccssscsscccc" />
    <path
       d="M3821 12370 c-28 -28 -56 -61 -61 -73 -11 -22 -11 -22 5 -2 8 11 39 44 67 73 28 28 49 52 46 52 -3 0 -28 -23 -57 -50z"
       id="path148" />
    <path
       d="M3824 12288 l-19 -23 23 19 c21 18 27 26 19 26 -2 0 -12 -10 -23 -22z"
       id="path150" />
    <path
       d="M3735 12259 c-4 -6 -5 -12 -2 -15 2 -3 7 2 10 11 7 17 1 20 -8 4z"
       id="path152" />
    <path
       d="M3712 12100 c0 -19 2 -27 5 -17 2 9 2 25 0 35 -3 9 -5 1 -5 -18z"
       id="path154" />
    <path
       d="M5650 11840 c0 -13 5 -18 15 -14 10 4 15 0 15 -11 0 -9 4 -14 9 -11 5 4 12 0 14 -6 4 -10 6 -10 6 -1 1 12 -41 63 -53 63 -3 0 -6 -9 -6 -20z"
       id="path156" />
    <path
       d="M5732 11735 c0 -16 2 -22 5 -12 2 9 2 23 0 30 -3 6 -5 -1 -5 -18z"
       id="path158" />
    <path
       d="M5925 11469 c17 -20 31 -35 33 -34 7 6 -12 32 -36 50 -27 19 -27 19 3 -16z"
       id="path160" />
    <path
       d="M3544 11025 c-7 -29 2 -130 14 -151 4 -8 7 27 5 77 -3 98 -8 118 -19 74z"
       id="path162" />
  </g>
</svg>
