<?xml version="1.0" encoding="UTF-8" standalone="no"?>
<svg
   xmlns:dc="http://purl.org/dc/elements/1.1/"
   xmlns:cc="http://creativecommons.org/ns#"
   xmlns:rdf="http://www.w3.org/1999/02/22-rdf-syntax-ns#"
   xmlns:svg="http://www.w3.org/2000/svg"
   xmlns="http://www.w3.org/2000/svg"
   xmlns:sodipodi="http://sodipodi.sourceforge.net/DTD/sodipodi-0.dtd"
   xmlns:inkscape="http://www.inkscape.org/namespaces/inkscape"
   version="1.0"
   width="960.000000pt"
   height="1280.000000pt"
   viewBox="0 0 960.000000 1280.000000"
   preserveAspectRatio="xMidYMid meet"
   id="svg14"
   sodipodi:docname="100cleric.svg"
   inkscape:version="1.0.2 (e86c870879, 2021-01-15, custom)">
  <defs
     id="defs18" />
  <sodipodi:namedview
     pagecolor="#ffffff"
     bordercolor="#666666"
     borderopacity="1"
     objecttolerance="10"
     gridtolerance="10"
     guidetolerance="10"
     inkscape:pageopacity="0"
     inkscape:pageshadow="2"
     inkscape:window-width="1920"
     inkscape:window-height="1017"
     id="namedview16"
     showgrid="false"
     inkscape:zoom="0.35217232"
     inkscape:cx="1874.9904"
     inkscape:cy="824.87205"
     inkscape:window-x="-8"
     inkscape:window-y="-8"
     inkscape:window-maximized="1"
     inkscape:current-layer="svg14"
     inkscape:document-rotation="0" />
  <metadata
     id="metadata2">
Created by potrace 1.15, written by Peter Selinger 2001-2017
<rdf:RDF>
  <cc:Work
     rdf:about="">
    <dc:format>image/svg+xml</dc:format>
    <dc:type
       rdf:resource="http://purl.org/dc/dcmitype/StillImage" />
    <dc:title></dc:title>
  </cc:Work>
</rdf:RDF>
</metadata>
  <g
     transform="translate(0.000000,1280.000000) scale(0.100000,-0.100000)"
     fill="#000000"
     stroke="none"
     id="g12">
    <path
       d="m 5865,11580 c 5,-9 4,-11 -3,-6 -19,11 -49,-11 -103,-77 -28,-34 -77,-88 -107,-121 -55,-57 -57,-59 -146,-77 -53,-11 -120,-33 -161,-54 -57,-28 -77,-34 -107,-29 -24,4 -38,3 -38,-4 0,-11 -38,-28 -53,-24 -5,1 -88,-77 -185,-175 -97,-97 -157,-159 -132,-137 116,104 185,169 183,175 -1,3 17,24 40,45 40,37 40,37 9,3 -18,-19 -30,-38 -27,-41 3,-2 -41,-48 -98,-100 -102,-95 -123,-121 -188,-231 -53,-90 -96,-138 -230,-250 -68,-58 -137,-118 -152,-135 -43,-45 -15,-49 35,-5 110,95 111,93 11,-29 -35,-43 -63,-81 -63,-86 0,-5 -7,-15 -15,-22 -8,-7 -15,-18 -15,-24 0,-6 7,-3 14,7 7,9 18,17 23,17 6,0 33,15 59,33 52,35 95,44 87,17 -8,-23 45,40 66,80 11,19 31,46 46,60 15,14 45,50 66,80 40,57 108,137 94,110 -5,-8 -21,-31 -37,-51 -15,-20 -28,-39 -28,-42 0,-8 28,-2 37,8 4,4 2,5 -4,1 -24,-14 -13,10 18,40 17,16 47,56 66,89 19,33 50,76 67,95 18,20 65,83 106,140 41,58 75,107 77,109 2,2 6,1 10,-2 4,-4 -12,-44 -35,-90 -23,-45 -42,-98 -44,-117 -1,-19 -6,-41 -12,-49 -6,-7 -11,-20 -12,-29 -2,-8 -75.4867,-45.016 -91.4867,-78.016 -92.6403,-102.549 -91.536,-250.957 -89.2352,-335.126 1.6062,-58.757 14.4034,-157.542 65.4439,-152.59 -6,-12 -20.722,10.732 -21.722,-11.268 -1,-24 7,-35 -7,-49 l -22,-21 21,35 c 23,38 29,67 8,35 -7,-11 -30,-51 -50,-90 l -37,-70 35,40 35,40 -11,-35 c -6,-19 -17,-47 -24,-61 -8,-14 -19,-39 -25,-55 L 4509.9944,9886.4901 4788,9873 c 26,25 30,26 36,11 3,-9 1,-23 -5,-30 -13,-16 2,-19 18,-3 7,7 6.4118,11.7059 10.4118,5.7059 22.2897,-4.7944 -3.8587,21.3746 -59.4118,16.2941 -1,1 -365.0285,19.6249 -397.0285,-1.3751 -59.0951,-7.5133 -165.0935,-17.7167 -172.6827,-38.0104 -28,-16 -59.8823,-26.2354 -64.4117,-38.1765 2,-9 -26.842,-5.4176 -44.842,-31.4176 -22,-30 -104.2642,-80.2514 -110.2642,-114.2514 -45.4347,-60 -78.7231,-88.4475 -115.2214,-150.4475 -35.0946,-61.5268 -388.3751,-111.6795 -523.0099,-187.135 -312.9805,-81.0712 -545.236,-579.1079 -310.9597,-789.3544 129.4559,-303.1273 834.4969,-41.1117 919.1791,-48.0315 6.5104,-31.7448 -0.7379,6.6311 0,0 -25.52,18.5706 -274.3354,148.7565 -268.0169,-10.9509 -824.8418,211.0118 -1318.0422,-848.7258 -376.721,-631.6246 93.6598,21.6012 203.9459,182.9555 238.4288,218.1799 17,16 -88.6852,-102.4638 -79.6852,-73.4638 18,58 95.5294,71.7647 103.5294,19.7647 10,-69 311.2355,229.7923 146.2355,111.7923 -55,-40 14.7276,62.1788 -58.2724,3.1788 -25.4212,183.4847 -670.6517,24.1289 -736.8497,-31.5513 -42.9685,-18.4788 -67.315,-74.0544 -190.4961,-7.5701 -54.9633,29.7952 -112.8161,56.7087 -128.7933,59.4995 -30.9819,4.4712 -92.7075,1.5708 -132.3609,33.4582 -30.4276,24.4434 -281.9221,17.8388 -287.1441,-4.0149 -5.3888,-20.633 77.5948,-40.6882 112.4387,-43.3879 18.3946,-2.4605 67.054,-12.1844 65.7762,-14.8461 -1.278,-2.6617 -33.8684,-7.5643 -65.404,-23.0656 -89.6346,-40.85 -140.6602,-73.9977 -138.0281,-91.045 6.3637,-41.2154 185.9128,18.3962 222.4695,39.6203 13.0312,6.7549 31.8111,10.7644 35.2292,3.7702 7.3087,-11.4366 -6.333,-25.7362 -91.6588,-92.1116 -71.9892,-55.8483 -75.3508,-61.2818 -54.9262,-84.605 28.3621,-12.1553 135.5162,35.4065 202.8773,64.0309 40.0378,25.3678 -99.1824,-29.9644 -93.2083,-31.6351 47.7834,8.5926 128.9937,44.3093 110.1159,5.0991 -8.8071,-13.6389 -1.0639,27.2124 -22.8738,0.6049 -22.6157,-26.7178 -62.0956,-88.6245 -60.9279,-97.1697 4.6708,-34.1807 3.2616,-54.0972 57.0513,-3.2229 100.562,70.6573 78.909,48.4691 74.326,27.9461 11.2976,-51.9283 131.0552,-103.9579 126.1018,-105.8782 23.3801,-1.9608 11.0648,14.3804 171.937,13.1742 30.0913,-17.2493 27.2712,-16.169 66.2612,-3.4648 266.1464,30.1856 254.1854,-53.5073 270.7885,-16.6898 197.1826,63.7817 234.0005,-285.0327 377.1175,-225.3444 C 3724.782,7573.8662 3861,7635 3953,7687 c 44,25 -427.6387,109.635 -431.7647,108.647 -28.5784,-6.8433 -141.3444,13.5409 -103.3182,-7.8223 -18,-9 -234.645,19.3789 -251.1266,-62.7994 -12.9802,-64.7196 239.2599,226.3863 205.3793,143.8575 -596.3666,717.0056 -1004.8119,-748.7293 -851.2036,-1308.9376 -7.5756,-129.0496 94.3621,-113.5397 81.4634,-91.2354 -63.2695,-29.3229 84.1087,-167.846 26.9028,-93.4073 -137.1647,178.4846 367.8688,-728.3294 438.4836,-387.6515 35.1793,169.7209 92.0147,163.8663 41.6766,122.0425 13,-15.5176 -20.7059,44.9847 -10.7059,44.9847 10,0 -112.5463,-236.4982 -73.7711,-269.3246 64.5172,-53.0477 5.6395,2.6952 8.1655,-36.2229 3.1737,-48.8971 -67.9641,-218.3875 -33.1348,-209.2391 16.8342,4.1067 4.7627,232.342 32.8264,213.9905 73.1104,-8.5725 81.864,32.9499 51.5249,28.3047 -11.7606,85.5214 -100.5717,133.8795 -82.8618,-52.4374 4.6886,-49.3258 -8.4832,-137.0712 -1.6081,-188.0308 2.6567,-62.4126 42.3407,-208.773 100.495,-357.0302 60.6616,-128.4365 59.7946,-177.4426 57.9367,-189.5885 -0.9939,-5.075 3.1533,-7.8121 8.424,-7.47 5.2706,0.342 12.6362,-11.2051 14.9255,-26.0881 2.3539,-15.8809 10.4319,-38.405 17.927,-51.948 19.3317,-32.8168 36.4891,-102.1475 34.1951,-112.3174 -1.2119,-4.0871 3.3951,-6.7944 10.7494,-6.317 5.8837,0.3819 11.0087,-10.3086 10.4446,-24.3747 -2.0349,-14.1615 3.0901,-24.852 10.4445,-24.3747 7.3545,0.4774 11.9614,-2.2299 12.2205,-6.2215 -1.1471,-5.085 0.6477,-9.979 2.3128,-12.8773 1.6652,-2.8982 5.3194,-13.6842 8.9737,-24.4701 3.6542,-10.786 10.7035,-28.3663 15.8287,-39.0568 3.6543,-10.786 8.9088,-23.4723 9.1679,-27.4639 1.7947,-4.894 9.1491,-4.4167 17.7154,0.1477 11.5079,4.7554 13.2377,0.8593 6.855,-14.5866 -5.1062,-12.3567 -1.5817,-21.1468 7.2437,-20.574 8.8253,0.5728 12.2203,-6.2216 8.3259,-14.4912 -5.3654,-8.3651 -0.4994,-15.064 9.7968,-14.3957 10.296,0.6683 15.1622,-6.0306 9.7967,-14.3957 -3.8944,-8.2696 2.7663,-19.8625 13.5159,-26.1795 10.7494,-6.317 17.3456,-16.9121 14.8571,-24.0883 -2.5532,-6.1783 2.3777,-13.8751 9.9913,-17.3894 9.0194,-2.4209 17.2805,-15.9141 18.1873,-29.8847 0.842,-12.9727 67.8531,-404.4907 75.2075,-404.0133 8.8251,0.5728 -18.3439,77.8092 -17.761,68.8281 3.5435,-31.8374 143.4263,-320.909 157.3766,-331.0266 7.7429,-5.5101 -195.0737,411.1624 -200.4389,402.7973 -3.8297,-9.2675 154.965,-339.3857 161.3018,-345.9891 7.8079,-6.508 45.5167,-86.8287 47.3762,-92.7206 8.3448,-37.5384 -170.2966,325.2703 -159.8249,345.9921 7.9185,14.5434 -50.9627,147.975 -55.0325,119.6519 -2.7286,-26.2318 245.3466,-572.9611 255.9017,-576.2844 9.0844,-3.4188 -127.7759,263.5328 -133.3355,258.1614 -4.0888,-5.2759 -107.646,247.5513 -95.2962,239.3339 12.4797,-10.2131 58.7737,-109.0166 48.2183,-105.6933 -13.6264,5.1282 -87.4175,347.0386 -79.7853,320.4772 5.7729,-20.6695 85.8003,-344.8801 93.2841,-346.3986 6.0132,-1.6139 19.1733,-67.8272 20.0153,-80.7999 0.842,-12.9727 -29.9169,74.0517 -17.8906,70.8239 12.0261,-3.2278 -80.6185,172.4956 -80.1004,164.5124 -0.6101,-36.1154 240.3778,-530.9806 265.4477,-530.3556 14.7087,0.9547 -21.967,29.6381 -33.5396,25.8807 -12.9789,-4.8508 -116.8092,233.1325 -97.6043,210.3286 49.4835,-56.9145 -166.7774,522.9007 -165.482,502.9427 0.7772,-11.9748 214.0736,-580.108 220.4889,-576.6853 6.4153,3.4227 66.862,-162.7349 71.4106,-171.4586 4.4841,-7.7257 3.3996,-11.4707 -4.7263,-8.9919 -8.1258,2.4789 -187.2968,361.5978 -182.8128,353.872 4.5488,-8.7237 194.349,-327.0824 200.9586,-326.6534 6.6096,0.429 12.2212,-4.2173 12.6098,-10.2047 0.3239,-4.9895 -4.7696,-8.3264 -12.9602,-4.8496 -6.8039,2.5647 -8.282,-15.5691 -0.9216,-47.1587 5.8441,-28.6817 16.7816,-54.0265 23.4559,-54.5954 5.4173,-1.6526 11.0936,-7.2968 11.4175,-12.2863 0.3886,-5.9874 -4.7695,-8.3264 -11.5734,-5.7617 -5.4821,2.6505 -10.0573,-8.6696 -7.6991,-24.5502 3.6536,-35.8386 7.6842,-36.5791 21.669,-6.6104 9.2151,21.6423 10.6018,20.7302 8.385,-6.4705 -0.2209,-17.0501 -4.278,-36.3534 -9.2418,-41.6861 -8.4762,-12.5754 31.3825,-31.2939 44.2514,-45.4901 5.6762,-5.6443 35.2753,-12.6121 40.9251,-38.3001 4.3279,-25.7738 99.2359,-28.5779 105.9102,-29.1468 8.0612,-1.481 -26.6919,-14.0096 -25.9147,-25.9844 1.1658,-17.9622 -1.3483,-20.1296 -14.0877,-7.9291 -12.6746,11.2025 129.0705,38.2637 136.7164,22.7263 6.0001,-10.6337 -41.5256,23.4521 -37.5256,3.4521 3,-19 191.3978,-37.692 195.3978,-43.692 3,-6 -185.3978,63.692 -195.3978,43.692 -75.1241,94.7307 -186.3114,-3.7516 -110.0897,-209.3402 15.8336,-41.5564 7.6137,-174.1715 59.8643,-283.257 52.2506,-108.0467 132.131,-270.6868 152.7146,-322.6323 136.1683,-340.7625 506.2384,-658.0635 485.2384,-888.0635 C 4553.759,1237.6759 4594,1136 4575,1084 c -10,-27 -54,-81 -131,-160 -183,-188 -169,-162 -167,-332 2,-170 6,-179 106,-208 102,-29 213,-24 328,14 81,28 105,41 152,85 63,59 58,37 76,318 13,188 34,267 90,330 l 38,43 6,-69 c 3,-39 2,-117 -4,-175 -5,-58 -9,-127 -9,-155 0,-48 3,-52 60,-107 33,-32 70,-58 81,-58 36,0 133,40 158,65 38,37 31,102 -24,218 -89,187 -95,297 -24,444 29,63 39,93 34,112 -3,14 -10,47 -15,73 -13,69 -15.1765,102 -97.1765,182 -49,48 -42.0554,80 -42.0554,95 0,13 -14,53 -32,89 -30,63 -31,69 -20,122 9,44 9,64 -2,101 -8,25 -6.6759,45.3518 -4.6759,59.3518 94.4108,125.4368 212.3308,917.8669 120.9975,1096.7739 -57.7718,113.1655 -76.3091,169.1279 -80.7561,184.3664 -4.345,16.2384 -20.0166,98.2014 -16.471,123.1553 7.6011,54.9067 -60.25,137.3623 -67.6616,162.7599 -4.1411,18.2379 -40.6348,-11.0152 -4.8221,-32.5434 20.7928,-11.8849 -15.6206,-16.3715 -14.0363,-20.4513 2.8627,-11.1588 12.2628,-17.1228 23.1996,-17.5555 4.9713,-0.1966 -15.0777,17.6949 0,0 14.4248,-16.6631 51.7396,-70.4257 56.7404,-67.6062 5.0008,2.8195 6.9769,-36.3718 10.5241,-46.57 7.465,-16.3879 13.9375,-22.5055 -0.1755,-7.8662 -14.1131,14.6394 -3.715,15.11 3.75,-1.2779 3.547,-10.1982 -5.1169,-12.9222 1.8429,-13.1975 5.9655,-0.2361 2.2689,-59.0954 20.523,-90.9968 18.9069,-32.9331 7.8333,-46.7453 4.2862,-36.5471 -5.4764,16.3092 -4.7939,18.2938 3.1009,11.9467 5.5947,-4.2445 -1.5057,-32.8323 -0.3179,-46.9602 0.1935,-14.0887 18.6768,-8.0784 27.0016,-4.3847 7.3306,3.7331 -21.9714,10.2203 -27.0016,4.3847 -4.6891,-4.8434 14.7177,-44.9667 22.583,-54.33 8.8302,-12.4187 9.2141,26.7917 0,0 -23.8887,-69.4597 89.9365,-283.9328 274.9365,-466.9328 145.3241,-176.2687 301.5847,-126.376 368.5847,-224.376 138,-200 276.1971,-252.1431 314.1971,-332.1431 19,-41 92.8824,-115 122.8824,-165 37,-63 73,-149 120,-285 l 68,-194 -17,-82 c -18,-87 -21,-193 -8,-259 10,-50 128,-212 174,-238 98,-56 326,63 385,201 31,72 73,222 73,262 1,20 -18,78 -44,137 -69,155 -69,143 2,143 72,0 82,12 84,100 1,51 -3,64 -33,109 -19,28 -49,58 -67,66 -50,24 -131,92 -148,125 -9,16 -20,64 -25,105 -12,97 -11.7036,104.0554 -92.7036,182.0554 l -69.4729,94.9446 -69.3125,74.2965 c -58.6516,-5.1992 30.7033,-24.321 0,0 -18.689,15.0559 -38.7205,53.1537 -48.065,74.0004 -8.0096,22.0047 -10.7341,42.6263 -29.4231,58.8403 -29.3683,26.6373 27.6264,-24.7715 -2.2918,99.2285 -5.5404,23 60.1435,220.4715 44.6304,241.4715 -15.5131,21 -19.5065,165.7357 -54.9651,264.7357 -61.7663,164.8953 -4.0979,174.4364 -126.5935,378.4775 -20.0121,52.3766 -12.5465,82.3647 -60.1917,116.1561 -40.0069,25.3435 -20.7342,30.3477 -19.8077,39.019 0.8105,7.5874 -4.6917,17.3425 -13.0704,20.5942 -8.3787,3.2518 -17.3176,21.6782 -19.712,40.1046 -2.2784,19.5104 -6.8059,28.1816 -9.798,20.5943 -3.9672,-6.5035 -10.9749,-10.8391 -14.9906,-7.5874 -5.1064,3.2517 -5.0391,14.0908 -0.8404,22.7621 5.5212,10.8391 -0.2127,18.4264 -15.0202,22.7621 -11.6509,3.2517 -19.6822,9.7551 -15.9467,14.0908 7.7027,10.839 -9.1291,101.189 -21.2211,94.3649 -6.046,-3.412 -27.7963,27.2962 -27.7963,27.2962 -8.3001,18.1975 82.2217,-51.1058 73.1275,-51.1058 -9.0941,0 -15.3115,5.6866 -14.4665,13.6481 0.7242,6.8241 -2.4449,9.0987 -6.2173,5.6866 -5.0299,-4.5493 -15.7942,1.1375 -24.8183,12.5108 -25.1609,30.7082 -28.6589,37.9483 -54.8047,37.9483 -12.5046,0 -22.0113,6.824 -21.1665,14.7854 1.6896,15.9228 42.7211,34.6765 -5.6975,40.3633 116.8362,-30.4397 -57.1138,189.8038 -86.9292,206.6187 -11.6989,11.4389 105.2378,160.6833 68.179,164.3465 -37.0586,3.6633 94.2874,240.6791 88.0327,248.1523 -5.2516,9.6592 -123.8162,-287.8392 -89.2658,-296.9671 45.1279,-12.4584 -40.5052,10.1953 -60.7743,29.3363 -11.6986,11.4389 21.7001,-209.0255 3.1709,-207.194 -18.5291,1.8317 63.2371,25.3656 73.6968,32.3292 7.6422,6.0995 -43.1704,145.7559 -56.1534,181.7065 -14.7202,37.2953 -36.6035,-257.6783 -12.4479,-245.1345 18.574,12.979 4.4742,44.9842 -21.127,43.3895 -30.7761,-2.3902 130.7191,-26.6851 128.5952,-7.1734 1.9436,20.3245 -15.8454,482.1792 8.3814,471.8596 19.1896,-9.9238 -11.6816,-496.7522 -8.3811,-471.8596 -2.3046,26.5257 -27.3196,19.6789 -38.867,27.2118 -11.5475,7.5329 -4.8027,23.2639 16.6198,34.4534 0.9328,37.5937 59.6948,278.6839 56.9113,269.2755 -132.9405,152.1319 -156.7072,-110.3808 -88.3916,-109.3855 30.4009,5.0295 40.8829,81.9648 26.7862,93.0467 -19.3546,10.3829 -283.0403,-227.5289 -253.0407,-225.6392 29.9992,1.8897 257.0625,-98.5815 219.1171,-85.053 -47.4986,16.3873 -43.3501,-0.032 19.1205,3.5134 62.4702,3.5458 -6.2276,53.1415 -53.5924,70.5755 -42.7217,14.9578 32.7271,-48.7197 56.4698,-50.7868 17.8065,-1.5506 -1.0361,-22.9018 -2e-4,1e-4 0.9559,21.1405 61.2546,362.8237 67.2372,370.8139 5.9817,7.9902 -100.0377,162.7786 -117.805,178.9623 -26.9186,22.1824 21.1565,-40.0364 58.968,-54.6114 37.8116,-14.5752 -18.1793,-6.2194 -23.0447,33.2709 -1.1606,29.6879 98.3092,-300.5476 69.3812,-294.0643 -28.7936,7.5297 -105.8202,-274.0015 -59.7601,-277.5938 35.8239,-2.7941 -37.6036,214.3609 -51.13,224.9289 -18.5707,9.9041 47.8191,-148.4792 72.7734,-147.2532 29.9993,1.8897 -90.3663,-2.4039 -89.1609,7.0156 1.607,12.5593 8.7972,-69.0582 -16.8272,-75.5171 -25.6243,-6.459 78.7786,92.7443 76.8709,118.4039 3.6295,28.5551 -3.1657,219.9837 24.4228,203.0343 27.3205,-19.0425 37.8115,-14.575 61.6057,16.3388 17.6782,21.8772 11.6073,51.9479 -6.2939,67.085 -32.0972,20.472 -122.2741,222.0652 -83.6593,213.7697 38.615,-8.2953 95.8466,-234.8037 83.6596,-213.7697 -12.8565,15.801 -42.1279,89.3461 -17.1733,90.5721 25.0887,2.2724 43.6913,12.7228 25.9244,28.9067 -12.8569,15.801 -196.605,72.2256 31.8706,36.8417 45.668,8.0677 -15.2872,-19.0342 -53.5003,-7.599 -33.4369,10.0058 -0.377,-38.4204 6.1406,-26.2438 2.6783,20.9324 -95.0011,-181.1412 -48.5738,-205.9015 36.8737,-21.9014 1.8295,-24.4549 0,0 -3.0359,15.0354 69.9088,328.6451 95.5327,335.1041 268.0506,862.9799 165.4315,2105.5234 -258.699,935.3916 -7.4774,79.756 -109.754,-56.0524 -98.0038,-50.8053 8.5455,3.1483 21.3638,0 29.9094,-5.2471 9.6137,-9.4448 19.2274,-4.1977 36.3185,18.8896 12.8183,17.8401 71.5097,23.4564 88.6008,26.6047 23.5003,4.1977 36.3186,16.7907 54.4779,52.471 17.091,34.6309 33.1139,50.3722 61.9551,61.9159 30.9776,11.5436 42.2022,25.1861 54.4779,53.5204 8.5929,20.9885 25.779,39.878 38.0547,44.0757 29.4618,7.346 57.1183,-0.2469 20.291,46.977 -29.4617,36.7298 -21.8112,40.8543 1.1272,58.2834 12.8048,11.6951 67.9783,38.3609 70.1808,47.616 2.4471,10.2836 53.9623,65.3267 61.1773,66.0905 11.3038,21.4839 62.6727,-56.249 4.8986,49.5813 -123.5932,277.6968 -57.9202,221.2174 -75.7246,263.909 60.6669,-20.6356 -91.6738,322.0665 -135.9941,349.3352 -60.1594,91.9117 118.6015,160.0632 41.4962,241.6796 321.7825,740.8257 -593.0834,189.884 -703.949,139.3288 -78.5102,-33.4504 754.3942,-323.9201 419.9005,185.7129 36.8445,172.5983 -382.5801,320.0953 -427.4037,262.7291 -44.531,-104.9519 261.4684,-193.5133 194.893,126.9908 77.0871,32.4671 68.3139,437.741 24.5965,496.4438 -5.3238,7.1487 51.6057,-101.654 2.6973,-171.1271 -47.1207,-66.9338 -169.5039,-239.0339 -150.8978,-443.8587 23.8845,-78.9645 345.844,14.4609 400.9214,19.3319 l -39.8915,12.8535 -88.1036,24.4025 c -495.9666,29.6085 87.686,-714.6837 249.6042,-458.0356 -65.5136,-58.4864 23.3605,-220.3564 111.5203,-508.5191 165.0117,-359.7813 249.6556,-424.8219 295.7927,-453.2095 -32.9644,-181.3393 94.6608,-222.815 103.4584,-287.741 -106.1113,-147.542 -91.4241,-241.6546 -93.677,-355.7113 -3.2716,-65.1487 58.6824,-117.7506 39.2874,-178.4444 -20.3148,-63.7268 -28.6261,-77.0445 -21.4443,-83.8045 31.8051,-29.9369 121.5552,43.1816 140.3928,124.8686 5.3859,23.1963 14.4244,59.5243 18.8375,81.687 11.6917,49.4256 -10.8698,86.6808 17.3264,79.6345 28.1697,-6.0467 12.8805,-28.579 -1.8719,-38.0856 -10.8078,-7.3714 27.0828,-78.1251 61.0726,-114.9919 8.2608,-9.725 10.4721,-17.6545 4.4755,-17.8583 -4.9971,-0.1698 -27.595,22.0754 -48.3002,48.3873 -38.306,48.727 15.0819,13.9553 -3.4027,-5.6839 -20.4304,-21.7065 -44.5509,-71.9897 21.7656,-120.7653 33.6977,-25.8703 55.5915,-57.8225 61.5316,-56.9428 7.6991,1.1401 -43.2347,-5.0685 -95.0727,-58.9462 0,0 12.1396,-23.7744 25.714,-26.2364 6.877,-1.2473 24.7214,-4.1025 49.4681,5.7437 60.4338,22.0656 120.3108,64.8415 118.8507,119.8236 -0.7434,27.9909 3.9617,39.1572 17.8209,44.6311 34.6878,12.1853 132.5235,132.578 144.3213,178.005 10.9577,39.3949 9.7725,46.3587 -30.5418,133.0393 -38.4605,154.1192 -76.3163,227.29 -92.7918,330.0386 19.6423,146.4573 130.0123,636.5979 52.2479,963.1908 -18.5915,201.1028 57.8355,292.1152 -53.4476,586.061 54.1796,142.3902 5.7199,453.9398 -88.0415,394.0079 -9,36 3.2963,15.1005 0.2963,25.1005 -8,26 -13.948,7.6898 19.052,-23.3102 28,-27 -19.9412,-95.7647 -5.9412,-76.7647 19,26 67.9412,92.7647 31.9412,146.7647 -38.2696,70.4232 -33.3099,93.1863 -63.173,168.1407 -7.7726,19.5086 -81.1915,139.7993 -89.1915,162.7993 -8,23 -36.2964,66.3241 -36.2964,88.3241 0,36 -87.3024,116.8848 -162.2885,220.9264 -77.903,74.6066 -208.4242,151.9008 -192.4242,161.9008 6,3 0,-15 0,0 1,37 -213.1116,175.7198 -204.1116,166.7198 4,-4 7,-19 7,-33 0,-21 2,-23 10,-11 7,11 10,5 10,-25 0,-41 138.7783,-69.6621 153.7783,-68.6621 5,1 19.3333,-12.0577 23.3333,-29.0577 4,-16 61.4782,-17.5269 -0.956,27.0634 -93.8386,67.0193 -119.1556,-2.0809 -122.1556,58.6564 -4,68 -2,122 4,137 10,23 11,23 13,-15 l 1,-40 12,50 c 8,34 15,45 21,36 7,-12 10,-11 21,3 7,10 17,15 23,11 8,-4 8,1 2,17 -19,52 -22,124 -7,168 9,25 16,61 16,80 1,41 27,108 30,75 1,-20 1,-20 9,0 7,16 9,13 16,-20 8,-35 10,-25 16,70 4,61 12,123 18,139 11,27 12,28 25,10 12,-16 14,-13 10,31 l -5,50 21,-38 c 12,-22 24,-37 27,-34 2,3 0,14 -6,25 -20,38 -5,245 23,314 47,115 84,572 54,671 -17,58 -102,146 -151,157 -50,11 -148,5 -157,-10 -5,-7 -15,-8 -32,-1 -27,10 -57,6 -96,-15 -35,-18 -54,-8 -45,25 4,14 8,73 7,131 0,118 -22,185 -69,210 -14,7 -25,17 -25,21 0,11 -104,58 -143,66 -23,5 -28,3 -22,-7 z m -781,-582 c -13,-24 -177,-238 -182,-238 -7,0 27,49 106,153 68,88 95,118 76,85 z m -251,-318 c -3,-10 -12,-25 -21,-32 -13,-11 -12,-8 2,20 19,36 27,41 19,12 z m 1186,-462 c -19,-51 -29,-72 -97,-204 -17,-34 -48,-76 -69,-93 -21,-18 -53,-46 -70,-64 -37.8273,-37 2.1802,-20.669 16.6136,47.331 11,25 15.3587,59 13.3587,62 -34.589,-21.589 59.3868,19.5331 74.6551,107.669 l 12.7452,15.864 -12.7452,-15.864 c -2,-16.292 -7,-40 -14,-52 -7,-13 -11,-25 -9,-28 2.2496,-2 21.3104,34.26 35.7452,95.864 59.0425,63.611 47.7835,80.047 87.6274,137.136 20.2507,29.016 48,43 49,43 2,0 -6,-24 -18,-52 z m -90.6274,-67.042 c -20,-25.925 -8.4419,-16 -8.4419,0 0,7 -8.9307,19.042 -3.9307,19.042 2,0 24.3726,-3.287 12.3726,-19.042 z M 5940,10000 c -6,-11 -13,-20 -16,-20 -2,0 0,9 6,20 6,11 13,20 16,20 2,0 0,-9 -6,-20 z m -907.7162,-43.774 c 6.9297,-5.1153 -42.0413,53.799 -61.5501,-67.8431 -100.1092,-90.174 105.8714,-56.5115 117.5378,-38.0234 18.4253,26.9477 -16.9412,17.0719 -16.9412,-11.2941 2.3032,-29.7843 -7.923,26.893 -113.923,28.893 C 4807.729,9886.5857 4880.9735,9838.0189 4926,9939 l 16.4706,69.941 69.6309,-53.5315 c 35.0646,-32.4247 18.4106,9.421 20.1823,0.8165 z M 5899,9916 c -29,-49 -34,-46 -9,5 12,23 24,39 26,36 3,-2 -5,-21 -17,-41 z m -33,-30 c 0,-13 -4,-22 -8,-19 -13,7 -9,-12 5,-26 10,-10 9,-12 -1,-9 -8,2 -21,-17 -33,-47 -22,-57 -24,-70 -6,-37 12,22 13,21 13,-13 0,-23 -3,-30 -9,-22 -5,7 -6,2 -3,-14 3,-15 -1,-46 -9,-70 -23,-64 -11,-57 18,11 15,33 29,60 31,60 3,0 -6,-32 -20,-72 -24,-72 -26,-99 -3,-56 6,12 15,25 19,28 4,3 14,19 23,35 20,38 21,22 2,-41 -20,-66 -18,-77 4,-29 l 19,40 1,-50 c 0,-27 -2,-59 -5,-71 -6,-21 -24,122.5882 -95,150.5882 -40,15 15,-8.5882 6,-5.5882 -17.7399,6.1063 19.1567,1.2162 -10.5135,12.8223 4.3518,5 -1.9176,-19.0474 -0.2767,-10.1188 2.4461,13.3102 8.9113,-9.0156 3.109,31.9839 -7.2529,44 -27.3007,41.1423 -39.0086,111.3126 -11.008,65.9759 82.6898,135 92.6898,135 4,0 6,-11 5,-24 z m -15,-93 c -12,-20 -14,-14 -5,12 4,9 9,14 11,11 3,-2 0,-13 -6,-23 z m 40,-50 c -12,-20 -14,-14 -5,12 4,9 9,14 11,11 3,-2 0,-13 -6,-23 z m 36,-165 c -2,-13 -4,-3 -4,22 0,25 2,35 4,23 2,-13 2,-33 0,-45 z m 6,-119 c -6,-6 -7,3 -4,23 4,28 6,29 9,9 2,-13 0,-27 -5,-32 z m 160.981,-5075.0353 c 9.8635,-29.8125 -12.892,-30.7185 -31.0322,-1.1581 -7.7949,14.6419 72.2043,6.8775 87.5065,5.2177 12.752,-1.3828 -58.4948,6.507 -56.4743,-4.0596 z M 3637.344,3963.7635 c 0.3238,-4.9895 -2.294,-10.17 -5.2359,-10.3609 -4.4126,-0.2864 -12.0907,4.2258 -16.8273,8.9288 -4.8013,5.701 -2.1185,9.8836 5.2358,10.3609 8.8253,0.5728 16.4388,-2.9414 16.8274,-8.9288 z m 81.3811,-115.9725 c 0.3886,-5.9874 -5.4301,-7.3672 -14.4498,-4.9463 -7.5486,2.5164 -15.4212,10.0222 -15.7451,15.0117 -0.3886,5.9874 6.9011,7.4627 14.4497,4.9463 9.0197,-2.4209 15.4213,-10.0222 15.7452,-15.0117 z m 2467.6891,394.2314 c -0.9029,-5.6866 -76.8843,-7.3803 -79.1579,-7.3803 -3.4104,0 57.8462,1.6937 53.647,7.3803 -4.019,6.824 0.1064,11.3735 8.6086,11.3735 10.2044,0 17.9858,-4.5495 16.9023,-11.3735 z M 3751.3725,3642.4016 c -3.4477,-8.2406 -7.6077,-5.5043 -8.3201,5.4726 -2.0344,10.8911 1.5426,17.1359 5.7676,13.4017 4.1599,-2.7363 6.0649,-11.6316 2.5525,-18.8743 z m 67.8486,-143.1668 c -3.7715,-3.2511 -12.0269,1.2236 -16.6403,10.9452 -8.8384,13.4558 -7.5812,14.5395 6.221,6.4164 9.7068,-6.3847 14.1908,-14.1105 10.4193,-17.3616 z m 1289.5677,152.9224 c 10.1657,-11.4658 -9.8512,24.5048 -13.8282,24.6621 -4.9713,0.1967 -16.8136,9.7172 -26.9792,21.1831 -10.1655,11.4658 -15.0481,20.711 -10.0769,20.5143 4.9713,-0.1966 40.7188,-54.8937 50.8843,-66.3595 z"
       id="path4"
       sodipodi:nodetypes="ccccccsscccscccccccccssscscccscccscccsccsccccccscccccccccccccccccscccccccccccccscscccccccccscsccccccccsccccccccscscccsscscscccscccscccscscsscccsscscsccsscccccccccccccssccccsscscsscccsccccccccscccccccccccsccccccccscsccccccsccccscccccscscscscccccccsccccccccccccsccccccccccccscccssccccccscssscssccscccscccccccsccccscscssscsccsccssccccsccccscccccccccccccccscccccccccssccccccccccscccccscscscscscccccccccccssscccsscsccscccccccccccccccccccccccccccccccscccccccccccccccccccccccsccsscscsssccccccccccccccssccssccccsccscccccccccsccscsscssccscsccsccscsscsscssssscssccsscsccsscsssssss" />
    <path
       d="M5847 10063 c-2 -5 -17 -30 -32 -58 -16 -27 -24 -45 -18 -40 14 14 66 105 60 105 -3 0 -8 -3 -10 -7z"
       id="path6" />
    <path
       d="M4769 10813 c-13 -16 -12 -17 4 -4 9 7 17 15 17 17 0 8 -8 3 -21 -13z"
       id="path8" />
    <path
       d="M4666 10402 c-49 -56 -49 -56 -7 -17 35 33 70 77 59 74 -2 0 -25 -26 -52 -57z"
       id="path10" />
  </g>
</svg>
