<?xml version="1.0" standalone="no"?>
<!DOCTYPE svg PUBLIC "-//W3C//DTD SVG 20010904//EN"
 "http://www.w3.org/TR/2001/REC-SVG-20010904/DTD/svg10.dtd">
<svg version="1.0" xmlns="http://www.w3.org/2000/svg"
 width="960.000000pt" height="1280.000000pt" viewBox="0 0 960.000000 1280.000000"
 preserveAspectRatio="xMidYMid meet">
<metadata>
Created by potrace 1.15, written by Peter Selinger 2001-2017
</metadata>
<g transform="translate(0.000000,1280.000000) scale(0.100000,-0.100000)"
fill="#000000" stroke="none">
<path d="M5865 11580 c5 -9 4 -11 -3 -6 -19 11 -49 -11 -103 -77 -28 -34 -77
-88 -107 -121 -55 -57 -57 -59 -146 -77 -53 -11 -120 -33 -161 -54 -57 -28
-77 -34 -107 -29 -24 4 -38 3 -38 -4 0 -11 -38 -28 -53 -24 -5 1 -88 -77 -185
-175 -97 -97 -157 -159 -132 -137 116 104 185 169 183 175 -1 3 17 24 40 45
40 37 40 37 9 3 -18 -19 -30 -38 -27 -41 3 -2 -41 -48 -98 -100 -102 -95 -123
-121 -188 -231 -53 -90 -96 -138 -230 -250 -68 -58 -137 -118 -152 -135 -43
-45 -15 -49 35 -5 110 95 111 93 11 -29 -35 -43 -63 -81 -63 -86 0 -5 -7 -15
-15 -22 -8 -7 -15 -18 -15 -24 0 -6 7 -3 14 7 7 9 18 17 23 17 6 0 33 15 59
33 52 35 95 44 87 17 -8 -23 45 40 66 80 11 19 31 46 46 60 15 14 45 50 66 80
40 57 108 137 94 110 -5 -8 -21 -31 -37 -51 -15 -20 -28 -39 -28 -42 0 -8 28
-2 37 8 4 4 2 5 -4 1 -24 -14 -13 10 18 40 17 16 47 56 66 89 19 33 50 76 67
95 18 20 65 83 106 140 41 58 75 107 77 109 2 2 6 1 10 -2 4 -4 -12 -44 -35
-90 -23 -45 -42 -98 -44 -117 -1 -19 -6 -41 -12 -49 -6 -7 -11 -20 -12 -29 -2
-8 -17 -43 -33 -76 -41 -81 -61 -178 -61 -304 0 -61 -5 -112 -12 -125 -6 -12
-13 -39 -14 -61 -1 -24 -10 -46 -24 -60 l-22 -21 21 35 c23 38 29 67 8 35 -7
-11 -30 -51 -50 -90 l-37 -70 35 40 35 40 -11 -35 c-6 -19 -17 -47 -24 -61 -8
-14 -19 -39 -25 -55 l-11 -29 29 28 c26 25 30 26 36 11 3 -9 1 -23 -5 -30 -13
-16 2 -19 18 -3 7 7 13 7 17 1 5 -9 -32 -29 -42 -23 -1 1 -28 -15 -60 -36 -31
-20 -76 -48 -100 -61 -28 -16 -42 -30 -39 -41 2 -9 -12 -37 -30 -63 -22 -30
-37 -66 -43 -100 -9 -60 -23 -94 -61 -156 -36 -57 -93 -105 -214 -182 -203
-128 -274 -202 -316 -327 -38 -115 -14 -216 73 -311 22 -24 37 -49 35 -57 -3
-7 -11 -51 -18 -97 -6 -45 -18 -91 -27 -101 -27 -30 -3 -32 28 -2 17 16 38 52
47 81 18 58 38 63 46 11 10 -69 -49 -139 -214 -257 -55 -40 -159 -119 -232
-178 -295 -236 -573 -434 -639 -454 -54 -16 -114 0 -253 67 -62 30 -128 58
-147 62 -37 7 -98 35 -141 65 -33 23 -304 61 -314 44 -10 -16 46 -56 88 -62
22 -4 38 -8 36 -10 -2 -2 -37 -10 -78 -19 -116 -23 -119 -25 -119 -39 0 -34
123 -39 256 -11 17 4 34 3 37 -3 7 -10 -12 -20 -127 -64 -97 -37 -102 -41 -81
-62 22 -21 27 -21 139 14 53 16 102 28 109 26 52 -16 51 -15 26 -34 -13 -10
-50 -33 -81 -52 -32 -19 -58 -40 -58 -47 0 -28 32 -24 106 11 83 39 88 41 79
25 -27 -43 50 -98 136 -99 47 0 172 -29 247 -57 37 -14 51 -14 100 -3 84 18
188 64 287 126 115 72 145 87 295 146 172 68 271 113 363 165 44 25 81 42 84
39 8 -8 -88 -106 -119 -122 -18 -9 -60 -64 -113 -145 -106 -162 -119 -187
-160 -313 -18 -56 -66 -184 -106 -286 -116 -298 -178 -523 -201 -728 -11 -90
-10 -93 12 -117 13 -14 32 -25 42 -25 10 0 43 -25 73 -56 50 -50 55 -60 55
-99 0 -49 6 -56 35 -45 14 5 30 0 52 -17 17 -13 48 -26 70 -29 81 -11 80 -10
103 -79 12 -36 24 -79 27 -96 2 -17 24 -85 48 -152 44 -126 59 -177 57 -189
-1 -5 2 -8 6 -8 4 0 9 -12 10 -27 1 -16 6 -39 11 -53 13 -34 25 -83 23 -93 -1
-4 2 -7 7 -7 4 0 7 -11 6 -25 -2 -14 1 -25 6 -25 5 0 8 -3 8 -7 -1 -5 0 -10 1
-13 1 -3 3 -14 5 -25 2 -11 6 -29 9 -40 2 -11 5 -24 5 -28 1 -5 6 -5 12 -1 8
4 9 0 4 -15 -4 -12 -2 -21 4 -21 6 0 8 -7 5 -15 -4 -8 -1 -15 6 -15 7 0 10 -7
6 -15 -3 -8 1 -20 8 -27 7 -7 11 -18 9 -25 -2 -6 1 -14 6 -18 6 -3 11 -17 11
-31 0 -13 4 -24 9 -24 6 0 10 -8 10 -17 1 -32 13 -88 22 -99 5 -6 7 -19 3 -27
-3 -9 -2 -22 2 -29 5 -7 9 -17 10 -23 4 -38 6 -40 14 -20 6 14 7 7 3 -21 -3
-26 -1 -44 6 -48 6 -4 9 -12 5 -17 -3 -5 0 -17 8 -26 8 -11 8 -14 1 -10 -9 6
-10 -3 -6 -30 3 -21 10 -39 15 -41 4 -2 8 -14 8 -27 0 -13 6 -28 14 -32 8 -4
14 -15 14 -23 -2 -36 3 -50 20 -51 10 0 12 -3 4 -6 -9 -4 -8 -12 4 -36 31 -60
34 -67 34 -87 0 -12 4 -19 9 -16 5 3 12 -1 15 -10 3 -8 2 -12 -4 -9 -6 3 -7
-1 -4 -9 3 -9 10 -16 15 -16 5 0 9 -5 9 -11 0 -5 -4 -8 -10 -4 -5 3 -7 -15 -3
-47 3 -29 10 -55 15 -56 4 -2 8 -8 8 -13 0 -6 -4 -8 -9 -5 -4 3 -8 -8 -7 -24
1 -36 4 -37 16 -8 8 21 9 20 6 -7 -1 -17 -5 -36 -9 -41 -7 -12 -1 -69 8 -84 4
-6 8 -32 11 -58 2 -26 9 -49 14 -50 6 -2 10 -13 10 -25 0 -18 -2 -20 -11 -7
-9 12 -9 11 -4 -5 4 -11 11 -36 15 -56 3 -19 10 -41 14 -47 3 -6 -1 -27 -11
-47 -16 -34 -16 -39 1 -108 10 -40 46 -157 79 -262 33 -104 70 -230 83 -280
86 -328 135 -755 114 -985 -43 -467 -56 -574 -75 -626 -10 -27 -54 -81 -131
-160 -183 -188 -169 -162 -167 -332 2 -170 6 -179 106 -208 102 -29 213 -24
328 14 81 28 105 41 152 85 63 59 58 37 76 318 13 188 34 267 90 330 l38 43 6
-69 c3 -39 2 -117 -4 -175 -5 -58 -9 -127 -9 -155 0 -48 3 -52 60 -107 33 -32
70 -58 81 -58 36 0 133 40 158 65 38 37 31 102 -24 218 -89 187 -95 297 -24
444 29 63 39 93 34 112 -3 14 -10 47 -15 73 -13 69 -34 102 -116 182 -49 48
-74 80 -74 95 0 13 -14 53 -32 89 -30 63 -31 69 -20 122 9 44 9 64 -2 101 -8
25 -12 56 -10 70 33 195 32 659 -1 989 -13 130 -29 249 -35 264 -6 16 -10 50
-9 75 2 55 -7 139 -17 164 -6 18 -4 18 34 -2 22 -11 42 -24 44 -28 4 -11 65
-53 76 -53 5 0 26 -13 47 -30 20 -16 41 -28 45 -25 4 3 14 -3 21 -13 13 -16
13 -16 -6 -2 -19 14 -19 14 -6 -2 7 -10 18 -18 25 -18 6 0 35 -26 64 -57 30
-32 48 -49 41 -39 -11 16 -11 18 -1 12 7 -4 17 -19 23 -33 5 -14 14 -21 21
-17 6 4 8 3 5 -3 -3 -5 3 -17 14 -26 13 -12 19 -30 19 -57 0 -70 34 -117 219
-300 140 -139 194 -200 261 -298 138 -200 209 -312 247 -392 19 -41 59 -115
89 -165 37 -63 73 -149 120 -285 l68 -194 -17 -82 c-18 -87 -21 -193 -8 -259
10 -50 128 -212 174 -238 98 -56 326 63 385 201 31 72 73 222 73 262 1 20 -18
78 -44 137 -69 155 -69 143 2 143 72 0 82 12 84 100 1 51 -3 64 -33 109 -19
28 -49 58 -67 66 -50 24 -131 92 -148 125 -9 16 -20 64 -25 105 -12 97 -33
136 -114 214 l-67 63 -62 -6 c-55 -5 -65 -4 -88 17 -14 13 -31 39 -38 57 -6
19 -22 46 -36 60 -22 23 -38 73 -65 197 -5 23 -20 59 -34 80 -14 21 -52 119
-84 218 -55 165 -78 223 -141 356 -15 31 -36 54 -66 74 -25 15 -45 34 -45 42
0 7 -6 16 -14 19 -8 3 -18 20 -22 37 -4 18 -9 26 -11 19 -3 -6 -9 -10 -13 -7
-5 3 -6 13 -3 21 4 10 -2 17 -16 21 -11 3 -19 9 -16 13 6 10 -52 73 -62 67 -5
-3 -17 7 -27 24 -9 16 -24 29 -32 29 -8 0 -14 5 -14 12 0 6 -3 8 -6 5 -4 -4
-14 1 -23 11 -25 27 -68 52 -91 52 -11 0 -20 6 -20 13 0 14 -31 34 -60 39 -8
2 -21 11 -28 21 -7 9 -26 17 -42 17 -16 0 -32 5 -36 11 -4 8 1 9 17 4 21 -7
22 -6 10 9 -7 9 -20 16 -28 16 -8 0 -13 6 -10 13 2 6 -7 36 -20 66 -14 31 -21
61 -17 73 3 12 2 18 -3 15 -6 -4 -10 8 -11 25 0 18 2 27 7 20 4 -7 7 6 7 27
-1 22 -4 43 -8 47 -4 4 -2 14 5 22 10 12 9 16 -1 20 -10 3 -10 7 -1 18 6 7 9
20 6 29 -4 8 -2 17 4 21 6 4 6 11 -2 21 -10 12 -10 16 1 23 11 7 11 11 1 24
-9 11 -10 16 -2 16 6 0 11 10 11 23 0 12 0 29 1 37 1 8 -1 26 -5 40 -6 19 -5
21 3 10 8 -11 10 -2 8 35 -1 28 -6 53 -12 57 -6 5 -5 8 4 8 7 0 11 6 8 15 -4
8 -2 17 3 20 6 4 10 14 10 23 0 12 -3 13 -8 5 -5 -8 -8 2 -9 25 0 26 1 31 7
17 6 -16 8 -11 12 20 3 22 1 50 -3 63 -7 17 -6 21 2 16 8 -5 10 1 7 20 -3 14
-1 29 4 32 5 4 7 17 3 31 -3 14 -1 31 6 39 9 11 9 18 1 26 -7 7 -12 21 -11 33
0 20 0 20 10 0 8 -18 8 -18 7 5 -1 14 2 32 7 40 13 20 18 333 8 447 -7 76 -6
93 5 98 8 3 20 0 28 -5 9 -9 18 -4 34 18 12 17 35 33 51 36 22 4 34 16 51 50
16 33 31 48 58 59 29 11 41 24 51 51 7 20 21 38 31 42 24 7 23 12 -7 57 -24
35 -25 39 -10 59 8 13 15 30 15 39 0 10 5 19 11 21 26 9 -10 59 -135 188 -202
207 -221 236 -271 411 -20 68 -47 143 -61 166 -40 69 -145 185 -181 200 -38
15 -114 112 -168 214 -55 104 -46 168 50 359 77 155 103 189 159 214 50 22 67
41 122 133 23 38 284 353 293 353 9 0 117 -262 156 -379 48 -143 56 -154 111
-149 l43 3 37 -80 c77 -168 112 -270 129 -375 23 -147 35 -188 140 -510 129
-394 146 -468 160 -690 10 -147 -4 -213 -64 -312 -71 -116 -110 -229 -121
-347 -5 -65 -19 -125 -40 -185 -22 -63 -28 -92 -21 -99 31 -31 120 55 141 136
6 23 16 59 21 81 13 49 50 87 78 79 28 -7 46 -29 31 -38 -11 -7 25 -79 58
-117 8 -10 10 -18 4 -18 -5 0 -27 23 -47 50 -37 50 -77 72 -96 53 -21 -21 46
-129 111 -180 33 -27 60 -53 60 -59 0 -12 -22 -35 -62 -65 -29 -21 -38 -59
-15 -59 7 0 34 7 59 16 61 20 118 90 118 145 0 28 5 39 19 44 35 11 136 128
149 173 12 39 11 46 -27 134 -67 160 -86 232 -84 333 3 166 -43 752 -78 1010
-25 185 -91 446 -157 625 -49 131 -94 276 -127 410 -9 36 -18 73 -21 83 -8 26
16 21 49 -10 28 -27 29 -28 43 -9 19 26 19 25 -17 79 -49 74 -129 301 -129
366 0 21 -7 58 -15 81 -8 23 -15 61 -15 83 0 36 -43 141 -110 269 -22 40 -26
73 -10 83 6 3 10 18 10 33 1 37 54 195 63 186 4 -4 7 -19 7 -33 0 -21 2 -23
10 -11 7 11 10 5 10 -25 0 -41 11 -67 26 -66 5 1 13 -12 17 -29 4 -16 10 -30
12 -30 2 0 2 51 -1 113 -4 68 -2 122 4 137 10 23 11 23 13 -15 l1 -40 12 50
c8 34 15 45 21 36 7 -12 10 -11 21 3 7 10 17 15 23 11 8 -4 8 1 2 17 -19 52
-22 124 -7 168 9 25 16 61 16 80 1 41 27 108 30 75 1 -20 1 -20 9 0 7 16 9 13
16 -20 8 -35 10 -25 16 70 4 61 12 123 18 139 11 27 12 28 25 10 12 -16 14
-13 10 31 l-5 50 21 -38 c12 -22 24 -37 27 -34 2 3 0 14 -6 25 -20 38 -5 245
23 314 47 115 84 572 54 671 -17 58 -102 146 -151 157 -50 11 -148 5 -157 -10
-5 -7 -15 -8 -32 -1 -27 10 -57 6 -96 -15 -35 -18 -54 -8 -45 25 4 14 8 73 7
131 0 118 -22 185 -69 210 -14 7 -25 17 -25 21 0 11 -104 58 -143 66 -23 5
-28 3 -22 -7z m-781 -582 c-13 -24 -177 -238 -182 -238 -7 0 27 49 106 153 68
88 95 118 76 85z m-251 -318 c-3 -10 -12 -25 -21 -32 -13 -11 -12 -8 2 20 19
36 27 41 19 12z m1186 -462 c-19 -51 -29 -72 -97 -204 -17 -34 -48 -76 -69
-93 -21 -18 -53 -46 -70 -64 -39 -37 -43 -22 -14 46 11 25 17 47 15 50 -7 6
38 95 63 126 l20 24 -2 -29 c-1 -16 -7 -40 -14 -52 -7 -13 -11 -25 -9 -28 2
-2 26 40 52 94 34 70 60 109 94 139 26 24 48 43 49 43 2 0 -6 -24 -18 -52z
m-111 -73 c-10 -23 -28 -34 -28 -18 0 7 31 43 36 43 2 0 -2 -11 -8 -25z m32
-145 c-6 -11 -13 -20 -16 -20 -2 0 0 9 6 20 6 11 13 20 16 20 2 0 0 -9 -6 -20z
m-849 -31 c6 -7 8 -39 5 -69 -2 -35 -1 -48 4 -35 8 19 9 19 9 -1 1 -21 -3 -22
-109 -20 -125 1 -119 -6 -74 95 l24 53 66 -4 c42 -3 69 -9 75 -19z m808 -53
c-29 -49 -34 -46 -9 5 12 23 24 39 26 36 3 -2 -5 -21 -17 -41z m-33 -30 c0
-13 -4 -22 -8 -19 -13 7 -9 -12 5 -26 10 -10 9 -12 -1 -9 -8 2 -21 -17 -33
-47 -22 -57 -24 -70 -6 -37 12 22 13 21 13 -13 0 -23 -3 -30 -9 -22 -5 7 -6 2
-3 -14 3 -15 -1 -46 -9 -70 -23 -64 -11 -57 18 11 15 33 29 60 31 60 3 0 -6
-32 -20 -72 -24 -72 -26 -99 -3 -56 6 12 15 25 19 28 4 3 14 19 23 35 20 38
21 22 2 -41 -20 -66 -18 -77 4 -29 l19 40 1 -50 c0 -27 -2 -59 -5 -71 -6 -21
-6 -21 -77 7 -40 15 -80 30 -89 33 -19 6 -51 73 -42 87 3 5 12 9 21 9 13 0 15
9 11 50 -5 44 -1 58 27 105 35 57 96 135 106 135 4 0 6 -11 5 -24z m-15 -93
c-12 -20 -14 -14 -5 12 4 9 9 14 11 11 3 -2 0 -13 -6 -23z m40 -50 c-12 -20
-14 -14 -5 12 4 9 9 14 11 11 3 -2 0 -13 -6 -23z m36 -165 c-2 -13 -4 -3 -4
22 0 25 2 35 4 23 2 -13 2 -33 0 -45z m6 -119 c-6 -6 -7 3 -4 23 4 28 6 29 9
9 2 -13 0 -27 -5 -32z m-479 -5265 c10 -25 -1 -29 -14 -5 -6 12 -7 21 -1 21 5
0 12 -7 15 -16z m-1214 -34 c0 -5 -2 -10 -4 -10 -3 0 -8 5 -11 10 -3 6 -1 10
4 10 6 0 11 -4 11 -10z m50 -121 c0 -6 -4 -7 -10 -4 -5 3 -10 11 -10 16 0 6 5
7 10 4 6 -3 10 -11 10 -16z m1330 1 c0 -5 -2 -10 -4 -10 -3 0 -8 5 -11 10 -3
6 -1 10 4 10 6 0 11 -4 11 -10z m-1293 -202 c-3 -8 -6 -5 -6 6 -1 11 2 17 5
13 3 -3 4 -12 1 -19z m21 -183 c-3 -3 -9 2 -12 12 -6 14 -5 15 5 6 7 -7 10
-15 7 -18z m802 -35 c14 -11 21 -20 17 -20 -5 0 -20 9 -34 20 -14 11 -22 20
-17 20 5 0 20 -9 34 -20z"/>
<path d="M5847 10063 c-2 -5 -17 -30 -32 -58 -16 -27 -24 -45 -18 -40 14 14
66 105 60 105 -3 0 -8 -3 -10 -7z"/>
<path d="M4769 10813 c-13 -16 -12 -17 4 -4 9 7 17 15 17 17 0 8 -8 3 -21 -13z"/>
<path d="M4666 10402 c-49 -56 -49 -56 -7 -17 35 33 70 77 59 74 -2 0 -25 -26
-52 -57z"/>
</g>
</svg>
