<?xml version="1.0" encoding="UTF-8" standalone="no"?>
<svg
   xmlns:dc="http://purl.org/dc/elements/1.1/"
   xmlns:cc="http://creativecommons.org/ns#"
   xmlns:rdf="http://www.w3.org/1999/02/22-rdf-syntax-ns#"
   xmlns:svg="http://www.w3.org/2000/svg"
   xmlns="http://www.w3.org/2000/svg"
   xmlns:sodipodi="http://sodipodi.sourceforge.net/DTD/sodipodi-0.dtd"
   xmlns:inkscape="http://www.inkscape.org/namespaces/inkscape"
   version="1.0"
   width="960.000000pt"
   height="1280.000000pt"
   viewBox="0 0 960.000000 1280.000000"
   preserveAspectRatio="xMidYMid meet"
   id="svg14"
   sodipodi:docname="30cleric.svg"
   inkscape:version="1.0.2 (e86c870879, 2021-01-15, custom)">
  <defs
     id="defs18" />
  <sodipodi:namedview
     pagecolor="#ffffff"
     bordercolor="#666666"
     borderopacity="1"
     objecttolerance="10"
     gridtolerance="10"
     guidetolerance="10"
     inkscape:pageopacity="0"
     inkscape:pageshadow="2"
     inkscape:window-width="1920"
     inkscape:window-height="1017"
     id="namedview16"
     showgrid="false"
     inkscape:zoom="0.35217232"
     inkscape:cx="1877.4087"
     inkscape:cy="718.7795"
     inkscape:window-x="-8"
     inkscape:window-y="-8"
     inkscape:window-maximized="1"
     inkscape:current-layer="svg14" />
  <metadata
     id="metadata2">
Created by potrace 1.15, written by Peter Selinger 2001-2017
<rdf:RDF>
  <cc:Work
     rdf:about="">
    <dc:format>image/svg+xml</dc:format>
    <dc:type
       rdf:resource="http://purl.org/dc/dcmitype/StillImage" />
    <dc:title></dc:title>
  </cc:Work>
</rdf:RDF>
</metadata>
  <g
     transform="translate(0.000000,1280.000000) scale(0.100000,-0.100000)"
     fill="#000000"
     stroke="none"
     id="g12">
    <path
       d="m 5865,11580 c 5,-9 4,-11 -3,-6 -19,11 -49,-11 -103,-77 -28,-34 -77,-88 -107,-121 -55,-57 -57,-59 -146,-77 -53,-11 -120,-33 -161,-54 -57,-28 -77,-34 -107,-29 -24,4 -38,3 -38,-4 0,-11 -38,-28 -53,-24 -5,1 -88,-77 -185,-175 -97,-97 -157,-159 -132,-137 116,104 185,169 183,175 -1,3 17,24 40,45 40,37 40,37 9,3 -18,-19 -30,-38 -27,-41 3,-2 -41,-48 -98,-100 -102,-95 -123,-121 -188,-231 -53,-90 -96,-138 -230,-250 -68,-58 -137,-118 -152,-135 -43,-45 -15,-49 35,-5 110,95 111,93 11,-29 -35,-43 -63,-81 -63,-86 0,-5 -7,-15 -15,-22 -8,-7 -15,-18 -15,-24 0,-6 7,-3 14,7 7,9 18,17 23,17 6,0 33,15 59,33 52,35 95,44 87,17 -8,-23 45,40 66,80 11,19 31,46 46,60 15,14 45,50 66,80 40,57 108,137 94,110 -5,-8 -21,-31 -37,-51 -15,-20 -28,-39 -28,-42 0,-8 28,-2 37,8 4,4 2,5 -4,1 -24,-14 -13,10 18,40 17,16 47,56 66,89 19,33 50,76 67,95 18,20 65,83 106,140 41,58 75,107 77,109 2,2 6,1 10,-2 4,-4 -12,-44 -35,-90 -23,-45 -42,-98 -44,-117 -1,-19 -6,-41 -12,-49 -6,-7 -11,-20 -12,-29 -2,-8 -17,-43 -33,-76 -42.9744,-81 -85.2397,-180.662 -74.3102,-306.662 C 4881.9612,10238.566 4885,10190 4878,10177 c -6,-12 -13,-39 -14,-61 -1,-24 -10,-46 -24,-60 l -22,-21 21,35 c 23,38 29,67 8,35 -7,-11 -30,-51 -50,-90 l -37,-70 35,40 35,40 -11,-35 c -6,-19 -17,-47 -24,-61 -8,-14 -19,-39 -25,-55 l -11,-29 29,28 c 26,25 30,26 36,11 3,-9 1,-23 -5,-30 -13,-16 2,-19 18,-3 7,7 13,7 17,1 5,-9 -37.6471,-23.3529 -47.6471,-17.3529 -1,1 -40.369,5.6781 -72.369,-15.3219 -31,-20 -108.9412,-47.0588 -132.9412,-60.0588 -28,-16 -42,-30 -39,-41 2,-9 -27.9723,-35.669 -45.9723,-61.669 -22,-30 -80.9239,-89.9584 -86.9239,-123.9584 -9,-60 -65.5928,-71.3727 -103.5928,-133.3727 -36,-57 -164.3401,-71.5352 -272.1636,-169.2411 -218.5762,-175.093 -246.519,-316.0597 -264.3347,-361.1889 -41.241,-152.2056 94.9971,-385.154 179.7036,-394.0357 6.5104,-31.7448 -0.7379,6.6311 0,0 -4.2388,-6.5871 -7.5333,-13.1908 22.3242,-71.4766 -6,-45 -67.3954,-113.2636 -69.7037,-126.5177 -16.3518,-93.8892 31.7175,-75.6954 62.7175,-45.6954 17,16 93.903,115.8891 102.903,144.8891 18,58 -45.6471,60.4706 -37.6471,8.4706 10,-69 -4.3701,-78.6298 -169.3701,-196.6298 -55,-40 -189.1961,-171.5167 -262.1961,-230.5167 C 3322.7867,7721.3241 3114,7518 3048,7498 c -54,-16 -114,0 -253,67 -62,30 -128,58 -147,62 -37,7 -98,35 -141,65 -33,23 -304,61 -314,44 -10,-16 46,-56 88,-62 22,-4 38,-8 36,-10 -2,-2 -37,-10 -78,-19 -116,-23 -119,-25 -119,-39 0,-34 123,-39 256,-11 17,4 34,3 37,-3 7,-10 -12,-20 -127,-64 -97,-37 -102,-41 -81,-62 22,-21 27,-21 139,14 53,16 102,28 109,26 52,-16 51,-15 26,-34 -13,-10 -50,-33 -81,-52 -32,-19 -58,-40 -58,-47 0,-28 32,-24 106,11 83,39 88,41 79,25 -27,-43 50,-98 136,-99 47,0 172,-29 247,-57 37,-14 51,-14 100,-3 84,18 198.6482,42.7036 297.6482,104.7036 115,72 158.3102,94.9862 308.3102,153.9862 172,68 247.0416,126.3102 339.0416,178.3102 44,25 9.0672,39.988 4.9412,39 -28.5784,-6.8433 -239.739,-49.6795 -201.7128,-71.0427 -18,-9 24.8271,-115.2636 -28.4278,-179.985 -117.2196,-142.4586 -123.8514,-163.5059 -197.6471,-314.1027 -18,-56 -72.5605,-159.9861 -129.6909,-304.6343 -57.4349,-295.338 -236.4542,-473.9805 -259.4542,-678.9805 C 3130.0084,6087.2548 3328,6039 3350,6015 c 13,-14 32,-25 42,-25 10,0 43,-25 73,-56 50,-50 55,-60 55,-99 0,-49 6,-56 35,-45 14,5 30,0 52,-17 17,-13 48,-26 70,-29 81,-11 26.759,-25.9723 49.759,-94.9723 12,-36 24,-79 27,-96 2,-17 24,-85 48,-152 44,-126 59,-177 57,-189 -1,-5 2,-8 6,-8 4,0 9,-12 10,-27 1,-16 6,-39 11,-53 13,-34 25,-83 23,-93 -1,-4 2,-7 7,-7 4,0 7,-11 6,-25 -2,-14 1,-25 6,-25 5,0 8,-3 8,-7 -1,-5 0,-10 1,-13 1,-3 3,-14 5,-25 2,-11 6,-29 9,-40 2,-11 5,-24 5,-28 1,-5 6,-5 12,-1 8,4 9,0 4,-15 -4,-12 -2,-21 4,-21 6,0 8,-7 5,-15 -4,-8 -1,-15 6,-15 7,0 10,-7 6,-15 -3,-8 1,-20 8,-27 7,-7 11,-18 9,-25 -2,-6 1,-14 6,-18 6,-3 11,-17 11,-31 0,-13 4,-24 9,-24 6,0 10,-8 10,-17 1,-32 13,-88 22,-99 5,-6 7,-19 3,-27 -3,-9 -2,-22 2,-29 5,-7 9,-17 10,-23 4,-38 6,-40 14,-20 6,14 7,7 3,-21 -3,-26 -1,-44 6,-48 6,-4 9,-12 5,-17 -3,-5 0,-17 8,-26 8,-11 8,-14 1,-10 -9,6 -10,-3 -6,-30 3,-21 10,-39 15,-41 4,-2 8,-14 8,-27 0,-13 6,-28 14,-32 8,-4 14,-15 14,-23 -2,-36 3,-50 20,-51 10,0 12,-3 4,-6 -9,-4 -8,-12 4,-36 31,-60 34,-67 34,-87 0,-12 4,-19 9,-16 5,3 12,-1 15,-10 3,-8 2,-12 -4,-9 -6,3 -7,-1 -4,-9 3,-9 10,-16 15,-16 5,0 9,-5 9,-11 0,-5 -4,-8 -10,-4 -5,3 -7,-15 -3,-47 3,-29 10,-55 15,-56 4,-2 8,-8 8,-13 0,-6 -4,-8 -9,-5 -4,3 -8,-8 -7,-24 1,-36 4,-37 16,-8 8,21 9,20 6,-7 -1,-17 -5,-36 -9,-41 -7,-12 -1,-69 8,-84 4,-6 8,-32 11,-58 2,-26 9,-49 14,-50 6,-2 10,-13 10,-25 0,-18 -2,-20 -11,-7 -9,12 -9,11 -4,-5 4,-11 11,-36 15,-56 3,-19 4.6759,-43.662 8.6759,-49.662 3,-6 10,20 0,0 -12.4984,-34 -11.6733,-83.338 -4.6759,-152.338 10,-40 46,-157 79,-262 33,-104 59.3518,-235.3241 72.3518,-285.3241 C 4558.1108,2345.7036 4671,1940 4650,1710 c -43,-467 -56,-574 -75,-626 -10,-27 -54,-81 -131,-160 -183,-188 -169,-162 -167,-332 2,-170 6,-179 106,-208 102,-29 213,-24 328,14 81,28 105,41 152,85 63,59 58,37 76,318 13,188 34,267 90,330 l 38,43 6,-69 c 3,-39 2,-117 -4,-175 -5,-58 -9,-127 -9,-155 0,-48 3,-52 60,-107 33,-32 70,-58 81,-58 36,0 133,40 158,65 38,37 31,102 -24,218 -89,187 -95,297 -24,444 29,63 39,93 34,112 -3,14 -10,47 -15,73 -13,69 -34,102 -116,182 -49,48 -74,80 -74,95 0,13 -14,53 -32,89 -30,63 -31,69 -20,122 9,44 9,64 -2,101 -8,25 -12,56 -10,70 33,195 32,659 -1,989 -13,130 -15.6898,230.3657 -21.6898,245.3657 -6,16 -7.3379,49.9999 -6.3379,74.9999 2,55 -22.9723,157.6344 -32.9723,182.6344 -6,18 -22.6343,-0.6343 15.3657,-20.6343 22,-11 42,-24 44,-28 4,-11 65,-53 76,-53 5,0 26,-13 47,-30 20,-16 41,-28 45,-25 4,3 14,-3 21,-13 13,-16 13,-16 -6,-2 -19,14 -19,14 -6,-2 7,-10 18,-18 25,-18 6,0 35,-26 64,-57 30,-32 48,-49 41,-39 -11,16 -11,18 -1,12 7,-4 17,-19 23,-33 5,-14 14,-21 21,-17 6,4 8,3 5,-3 -3,-5 3,-17 14,-26 13,-12 19,-30 19,-57 0,-70 52.6343,-98.3657 237.6343,-281.3657 140,-139 194,-200 261,-298 138,-200 209,-312 247,-392 19,-41 59,-115 89,-165 37,-63 73,-149 120,-285 l 68,-194 -17,-82 c -18,-87 -21,-193 -8,-259 10,-50 128,-212 174,-238 98,-56 326,63 385,201 31,72 73,222 73,262 1,20 -18,78 -44,137 -69,155 -69,143 2,143 72,0 82,12 84,100 1,51 -3,64 -33,109 -19,28 -49,58 -67,66 -50,24 -131,92 -148,125 -9,16 -20,64 -25,105 -12,97 -33,136 -114,214 l -67,63 -62,-6 c -55,-5 -65,-4 -88,17 -14,13 -31,39 -38,57 -6,19 -22,46 -36,60 -22,23 -38,73 -65,197 -5,23 -12.4706,74.0588 -26.4706,95.0588 -14,21 -33.1765,122.7647 -65.1765,221.7647 -55,165 -55.4117,223 -118.4117,356 -15,31 -36,54 -66,74 -25,15 -45,34 -45,42 0,7 -6,16 -14,19 -8,3 -18,20 -22,37 -4,18 -9,26 -11,19 -3,-6 -9,-10 -13,-7 -5,3 -6,13 -3,21 4,10 -2,17 -16,21 -11,3 -19,9 -16,13 6,10 -52,73 -62,67 -5,-3 -17,7 -27,24 -9,16 -24,29 -32,29 -8,0 -14,5 -14,12 0,6 -3,8 -6,5 -4,-4 -14,1 -23,11 -25,27 -68,52 -91,52 -11,0 -20,6 -20,13 0,14 -31,34 -60,39 -8,2 -21,11 -28,21 -7,9 -26,17 -42,17 -16,0 -32,5 -36,11 -4,8 1,9 17,4 21,-7 22,-6 10,9 -7,9 -20,16 -28,16 -8,0 -13,6 -10,13 2,6 -7,36 -20,66 -14,31 -36.0588,42.1765 -32.0588,54.1765 3,12 2,18 -3,15 -6,-4 -10,8 -11,25 0,18 2,27 7,20 4,-7 7,6 7,27 -1,22 -4,43 -8,47 -4,4 -2,14 5,22 10,12 9,16 -1,20 -10,3 -10,7 -1,18 6,7 9,20 6,29 -4,8 -2,17 4,21 6,4 6,11 -2,21 -10,12 -10,16 1,23 11,7 11,11 1,24 -9,11 -10,16 -2,16 6,0 11,10 11,23 0,12 0,29 1,37 1,8 -1,26 -5,40 -6,19 -5,21 3,10 8,-11 10,-2 8,35 -1,28 -6,53 -12,57 -6,5 -5,8 4,8 7,0 11,6 8,15 -4,8 -2,17 3,20 6,4 10,14 10,23 0,12 -3,13 -8,5 -5,-8 -8,2 -9,25 0,26 1,31 7,17 6,-16 8,-11 12,20 3,22 1,50 -3,63 -7,17 -6,21 2,16 8,-5 10,1 7,20 -3,14 -1,29 4,32 5,4 7,17 3,31 -3,14 -1,31 6,39 9,11 9,18 1,26 -7,7 -12,21 -11,33 0,20 0,20 10,0 8,-18 8,-18 7,5 -1,14 2,32 7,40 13,20 18,333 8,447 -7,76 -39.8824,93 -28.8824,98 8,3 20,0 28,-5 9,-9 18,-4 34,18 12,17 35,33 51,36 22,4 34,16 51,50 16,33 31,48 58,59 29,11 41,24 51,51 7,20 21,38 31,42 24,7 23,12 -7,57 -24,35 -25,39 -10,59 8,13 15,30 15,39 0,10 5,19 11,21 26,9 27.4578,82.0449 -97.5422,211.0449 -186.0277,207 -170.0427,250.6805 -212.0566,388.4118 -20,68 -96.3978,161.1776 -110.3978,184.1776 -40,69 -119.293,198.0427 -155.293,213.0427 -11.2308,20.3538 -60.6924,89.2202 -138.0715,186.5444 -5.0604,99.2827 -70.1965,151.8705 14.9365,345.0439 77,155 46.5295,166.601 102.5295,191.601 50,22 63.8812,51.8373 118.8812,143.8373 10.5581,-33.3978 269.3659,367.4101 263.7175,374.2964 -12.5509,15.3015 63.4259,-304.8137 122.7082,-401.5882 48,-143 93.647,-135.1765 148.647,-130.1765 v 0 l 32.0278,-63.233 c 23.0208,-204.9623 120.0177,-287.4575 144.9723,-388.767 23,-147 38.7647,-214.3529 143.7647,-536.3529 C 6338.8236,6555.8824 6401,6512 6415,6290 c 10,-147 -4,-213 -64,-312 -71,-116 -76.1176,-229 -87.1176,-347 -5,-65 -19,-125 -40,-185 -22,-63 -28,-92 -21,-99 31,-31 120,55 141,136 6,23 16,59 21,81 13,49 50,87 78,79 28,-7 12.1176,-29 -2.8824,-38 -11,-7 25,-79 58,-117 8,-10 10,-18 4,-18 -5,0 -27,23 -47,50 -37,50 -43.1176,72 -62.1176,53 -21,-21 12.1176,-129 77.1176,-180 33,-27 60,-53 60,-59 0,-12 -22,-35 -62,-65 -29,-21 -38,-59 -15,-59 7,0 34,7 59,16 61,20 118,90 118,145 0,28 5,39 19,44 35,11 136,128 149,173 12,39 11,46 -27,134 -67,160 -86,232 -84,333 3,166 -43,752 -78,1010 -25,185 -91,446 -157,625 -40.2913,135.3544 -62.2986,333.1124 -124.338,452.5927 -9,36 16.6066,43.7175 13.6066,53.7175 -8,26 2.6898,13.0139 35.6898,-17.9861 28,-27 29,-28 43,-9 19,26 19,25 -17,79 -49,74 -129,301 -129,366 0,21 -7,58 -15,81 -8,23 -15,61 -15,83 0,36 -43,141 -110,269 -22,40 -26,73 -10,83 6,3 10,18 10,33 1,37 30.0416,189.6759 39.0416,180.6759 4,-4 7,-19 7,-33 0,-21 2,-23 10,-11 7,11 10,5 10,-25 0,-41 34.9584,-61.6759 49.9584,-60.6759 5,1 13,-12 17,-29 4,-16 10,-30 12,-30 2,0 -21.9584,45.6759 -24.9584,107.6759 -4,68 -2,122 4,137 10,23 11,23 13,-15 l 1,-40 12,50 c 8,34 15,45 21,36 7,-12 10,-11 21,3 7,10 17,15 23,11 8,-4 8,1 2,17 -19,52 -22,124 -7,168 9,25 16,61 16,80 1,41 27,108 30,75 1,-20 1,-20 9,0 7,16 9,13 16,-20 8,-35 10,-25 16,70 4,61 12,123 18,139 11,27 12,28 25,10 12,-16 14,-13 10,31 l -5,50 21,-38 c 12,-22 24,-37 27,-34 2,3 0,14 -6,25 -20,38 -5,245 23,314 47,115 84,572 54,671 -17,58 -102,146 -151,157 -50,11 -148,5 -157,-10 -5,-7 -15,-8 -32,-1 -27,10 -57,6 -96,-15 -35,-18 -54,-8 -45,25 4,14 8,73 7,131 0,118 -22,185 -69,210 -14,7 -25,17 -25,21 0,11 -104,58 -143,66 -23,5 -28,3 -22,-7 z m -781,-582 c -13,-24 -177,-238 -182,-238 -7,0 27,49 106,153 68,88 95,118 76,85 z m -251,-318 c -3,-10 -12,-25 -21,-32 -13,-11 -12,-8 2,20 19,36 27,41 19,12 z m 1186,-462 c -19,-51 -29,-72 -97,-204 -17,-34 -48,-76 -69,-93 -21,-18 -53,-46 -70,-64 -39,-37 -43,-22 -14,46 11,25 17,47 15,50 -7,6 38,95 63,126 l 20,24 -2,-29 c -1,-16 -7,-40 -14,-52 -7,-13 -11,-25 -9,-28 2,-2 26,40 52,94 34,70 60,109 94,139 26,24 48,43 49,43 2,0 -6,-24 -18,-52 z m -111,-73 c -10,-23 -28,-34 -28,-18 0,7 31,43 36,43 2,0 -2,-11 -8,-25 z m 32,-145 c -6,-11 -13,-20 -16,-20 -2,0 0,9 6,20 6,11 13,20 16,20 2,0 0,-9 -6,-20 z m -849,-31 c 6,-7 8,-39 5,-69 -2,-35 -1,-48 4,-35 8,19 9,19 9,-1 1,-21 -10.9861,-8.6898 -116.9861,-6.6898 C 4867.0139,9858.3102 4881,9838 4926,9939 l 27.7647,68.059 L 5016,9988 c 42,-3 69,-9 75,-19 z m 808,-53 c -29,-49 -34,-46 -9,5 12,23 24,39 26,36 3,-2 -5,-21 -17,-41 z m -33,-30 c 0,-13 -4,-22 -8,-19 -13,7 -9,-12 5,-26 10,-10 9,-12 -1,-9 -8,2 -21,-17 -33,-47 -22,-57 -24,-70 -6,-37 12,22 13,21 13,-13 0,-23 -3,-30 -9,-22 -5,7 -6,2 -3,-14 3,-15 -1,-46 -9,-70 -23,-64 -11,-57 18,11 15,33 29,60 31,60 3,0 -6,-32 -20,-72 -24,-72 -26,-99 -3,-56 6,12 15,25 19,28 4,3 14,19 23,35 20,38 21,22 2,-41 -20,-66 -18,-77 4,-29 l 19,40 1,-50 c 0,-27 -2,-59 -5,-71 -6,-21 -6,-21 -77,7 -40,15 -80,30 -89,33 -19,6 -51,73 -42,87 3,5 12,9 21,9 13,0 15,9 11,50 -5,44 -1,58 27,105 35,57 96,135 106,135 4,0 6,-11 5,-24 z m -15,-93 c -12,-20 -14,-14 -5,12 4,9 9,14 11,11 3,-2 0,-13 -6,-23 z m 40,-50 c -12,-20 -14,-14 -5,12 4,9 9,14 11,11 3,-2 0,-13 -6,-23 z m 36,-165 c -2,-13 -4,-3 -4,22 0,25 2,35 4,23 2,-13 2,-33 0,-45 z m 6,-119 c -6,-6 -7,3 -4,23 4,28 6,29 9,9 2,-13 0,-27 -5,-32 z M 5502.9412,4212.8235 c 10,-25 -1,-29 -14,-5 -6,12 -7,21 -1,21 5,0 12,-7 15,-16 z M 4186.759,4144.0277 c 0,-5 -2,-10 -4,-10 -3,0 -8,5 -11,10 -3,6 -1,10 4,10 6,0 11,-4 11,-10 z m 50,-121 c 0,-6 -4,-7 -10,-4 -5,3 -10,11 -10,16 0,6 5,7 10,4 6,-3 10,-11 10,-16 z m 1432.1822,35.7958 c 0,-5 -2,-10 -4,-10 -3,0 -8,5 -11,10 -3,6 -1,10 4,10 6,0 11,-4 11,-10 z M 4273.759,3822.0277 c -3,-8 -6,-5 -6,6 -1,11 2,17 5,13 3,-3 4,-12 1,-19 z m 21,-183 c -3,-3 -9,2 -12,12 -6,14 -5,15 5,6 7,-7 10,-15 7,-18 z m 836.6067,-37.662 c 14,-11 21,-20 17,-20 -5,0 -20,9 -34,20 -14,11 -22,20 -17,20 5,0 20,-9 34,-20 z"
       id="path4"
       sodipodi:nodetypes="ccccccsscccscccccccccssscscccscccscccsccsccccccscccccccccccccccccscccccccccccccscscccccccccscsccccccccsccccccccscsccccscscccscccscccscscsscccsscscsccsscccccccccccccssccccsscscsscccsccccccccscccccccccccsccccccccscsccccccsccccscccccscscscscccccccsccccccccccccsccccccccccccscccssccccccscssscssccscccscccccccsccccscscssscsccsccssccccsccccscccccccccccccccscccccccccsccccccccccscccccscscscscscccccccccccssscccsscsccscccccccccccccccccccccccccccccccscccscccccccccccccccccccsccsscssssscccccccccccccccsccssccccsccscccccccccsccscsccssccscsccsccsccscsscssscscssscssccccsccssssss" />
    <path
       d="M5847 10063 c-2 -5 -17 -30 -32 -58 -16 -27 -24 -45 -18 -40 14 14 66 105 60 105 -3 0 -8 -3 -10 -7z"
       id="path6" />
    <path
       d="M4769 10813 c-13 -16 -12 -17 4 -4 9 7 17 15 17 17 0 8 -8 3 -21 -13z"
       id="path8" />
    <path
       d="M4666 10402 c-49 -56 -49 -56 -7 -17 35 33 70 77 59 74 -2 0 -25 -26 -52 -57z"
       id="path10" />
  </g>
</svg>
