<?xml version="1.0" encoding="UTF-8" standalone="no"?>
<svg
   xmlns:dc="http://purl.org/dc/elements/1.1/"
   xmlns:cc="http://creativecommons.org/ns#"
   xmlns:rdf="http://www.w3.org/1999/02/22-rdf-syntax-ns#"
   xmlns:svg="http://www.w3.org/2000/svg"
   xmlns="http://www.w3.org/2000/svg"
   xmlns:sodipodi="http://sodipodi.sourceforge.net/DTD/sodipodi-0.dtd"
   xmlns:inkscape="http://www.inkscape.org/namespaces/inkscape"
   version="1.0"
   width="960.000000pt"
   height="1280.000000pt"
   viewBox="0 0 960.000000 1280.000000"
   preserveAspectRatio="xMidYMid meet"
   id="svg14"
   sodipodi:docname="35cleric.svg"
   inkscape:version="1.0.2 (e86c870879, 2021-01-15, custom)">
  <defs
     id="defs18" />
  <sodipodi:namedview
     pagecolor="#ffffff"
     bordercolor="#666666"
     borderopacity="1"
     objecttolerance="10"
     gridtolerance="10"
     guidetolerance="10"
     inkscape:pageopacity="0"
     inkscape:pageshadow="2"
     inkscape:window-width="1920"
     inkscape:window-height="1017"
     id="namedview16"
     showgrid="false"
     inkscape:zoom="0.49804687"
     inkscape:cx="57.984216"
     inkscape:cy="787.42109"
     inkscape:window-x="-8"
     inkscape:window-y="-8"
     inkscape:window-maximized="1"
     inkscape:current-layer="svg14" />
  <metadata
     id="metadata2">
Created by potrace 1.15, written by Peter Selinger 2001-2017
<rdf:RDF>
  <cc:Work
     rdf:about="">
    <dc:format>image/svg+xml</dc:format>
    <dc:type
       rdf:resource="http://purl.org/dc/dcmitype/StillImage" />
    <dc:title></dc:title>
  </cc:Work>
</rdf:RDF>
</metadata>
  <g
     transform="translate(0.000000,1280.000000) scale(0.100000,-0.100000)"
     fill="#000000"
     stroke="none"
     id="g12">
    <path
       d="m 5865,11580 c 5,-9 4,-11 -3,-6 -19,11 -49,-11 -103,-77 -28,-34 -77,-88 -107,-121 -55,-57 -57,-59 -146,-77 -53,-11 -120,-33 -161,-54 -57,-28 -77,-34 -107,-29 -24,4 -38,3 -38,-4 0,-11 -38,-28 -53,-24 -5,1 -88,-77 -185,-175 -97,-97 -157,-159 -132,-137 116,104 185,169 183,175 -1,3 17,24 40,45 40,37 40,37 9,3 -18,-19 -30,-38 -27,-41 3,-2 -41,-48 -98,-100 -102,-95 -123,-121 -188,-231 -53,-90 -96,-138 -230,-250 -68,-58 -137,-118 -152,-135 -43,-45 -15,-49 35,-5 110,95 111,93 11,-29 -35,-43 -63,-81 -63,-86 0,-5 -7,-15 -15,-22 -8,-7 -15,-18 -15,-24 0,-6 7,-3 14,7 7,9 18,17 23,17 6,0 33,15 59,33 52,35 95,44 87,17 -8,-23 45,40 66,80 11,19 31,46 46,60 15,14 45,50 66,80 40,57 108,137 94,110 -5,-8 -21,-31 -37,-51 -15,-20 -28,-39 -28,-42 0,-8 28,-2 37,8 4,4 2,5 -4,1 -24,-14 -13,10 18,40 17,16 47,56 66,89 19,33 50,76 67,95 18,20 65,83 106,140 41,58 75,107 77,109 2,2 6,1 10,-2 4,-4 -12,-44 -35,-90 -23,-45 -42,-98 -44,-117 -1,-19 -6,-41 -12,-49 -6,-7 -11,-20 -12,-29 -2,-8 -17,-43 -33,-76 -42.9744,-81 -85.2397,-180.662 -74.3102,-306.662 C 4881.9612,10238.566 4885,10190 4878,10177 c -6,-12 -13,-39 -14,-61 -1,-24 -10,-46 -24,-60 l -22,-21 21,35 c 23,38 29,67 8,35 -7,-11 -30,-51 -50,-90 l -37,-70 35,40 35,40 -11,-35 c -6,-19 -17,-47 -24,-61 -8,-14 -19,-39 -25,-55 l -11,-29 29,28 c 26,25 30,26 36,11 3,-9 1,-23 -5,-30 -13,-16 2,-19 18,-3 7,7 6.4118,11.7059 10.4118,5.7059 5,-9 -48.0001,-14.8823 -58.0001,-8.8823 -1,1 -53.5454,-4.6749 -85.5454,-25.6749 -31,-20 -86.353,-49.8823 -110.353,-62.8823 -28,-16 -37.2941,-35.6471 -41.8235,-47.5882 2,-9 -34.5606,-24.3749 -52.5606,-50.3749 -22,-30 -85.6298,-90.8996 -91.6298,-124.8996 -45.4347,-60 -70.7369,-69.8133 -107.2352,-131.8133 -36,-57 -224.6537,-80.9861 -332.4772,-178.692 -151.996,-102.6105 -293.2157,-204.4336 -297.0036,-460.686 43.9445,-216.0948 213.2691,-281.5301 297.9756,-290.4118 6.5104,-31.7448 -0.7379,6.6311 0,0 -25.52,18.5706 -89.4175,35.2574 -60.0541,-61.2852 -6,-45 -45.1312,-144.6844 -49.4822,-157.415 -48.6432,-142.3263 90.3914,-60.2139 124.8743,-24.9895 17,16 93.903,115.8891 102.903,144.8891 18,58 -45.6471,60.4706 -37.6471,8.4706 10,-69 -48.2939,-50.6783 -213.2939,-168.6783 -55,-40 -179.1547,-180.6447 -252.1547,-239.6447 -263.026,-164.0586 -479.2875,-422.6913 -549.2145,-451.5271 -54,-16 -91.278,-2.1499 -230.278,64.8501 -62,30 -128,58 -147,62 -37,7 -98,35 -141,65 -33,23 -313.4118,36.5294 -323.4118,19.5294 -10,-16 46,-56 88,-62 22,-4 38,-8 36,-10 -2,-2 -37,-10 -78,-19 -116,-23 -119,-25 -119,-39 0,-34 123,-39 256,-11 17,4 34,3 37,-3 7,-10 -12,-20 -127,-64 -97,-37 -102,-41 -81,-62 22,-21 27,-21 139,14 53,16 102,28 109,26 52,-16 51,-15 26,-34 -13,-10 -50,-33 -81,-52 -32,-19 -58,-40 -58,-47 0,-28 32,-24 106,11 83,39 88,41 79,25 -27,-43 50,-98 136,-99 47,0 172,-29 247,-57 37,-14 51,-14 100,-3 84,18 194.8835,23.8801 293.8835,85.8801 197.1826,63.7817 162.3697,82.0626 305.4867,141.7509 C 3768.0761,7568.2192 3861,7635 3953,7687 c 44,25 9.0672,39.988 4.9412,39 -28.5784,-6.8433 -263.6974,-52.3415 -225.6712,-73.7047 -18,-9 -89.601,-98.2562 -117.4106,-177.323 -45.0633,-128.1215 16.7519,-143.3912 -112.4614,-315.0162 -51.8824,-74.8235 -125.5341,-194.7819 -182.6645,-339.4301 -100.0277,-247.4211 -179.1715,-395.3555 -273.7009,-555.1791 -23.4751,-136.0899 257.4968,-201.8763 279.4968,-225.8763 13,-14 32,-25 42,-25 10,0 43,-25 73,-56 50,-50 55,-60 55,-99 0,-49 6,-56 35,-45 14,5 30,0 52,-17 59.3982,-4.8376 68.7709,37.3645 43.6862,31.1245 -5.0837,85.3801 -8.4618,7.5841 23.9574,-169.5651 6.804,-37.1795 21.5,-79 24.1875,-96 1.7916,-17 21.4999,-85 42.9999,-152 39.4166,-126 45.2529,-177 43.2594,-189 -0.9968,-5 1.9935,-8 5.9806,-8 3.9871,0 8.971,-12 9.9678,-27 0.9968,-16 5.9806,-39 10.9645,-53 12.958,-34 22.4928,-104.2964 20.2675,-114.2964 -1.1127,-4 2.2253,-7 7.7887,-7 4.4508,0 7.7888,-11 6.6761,-25 -2.2253,-14 1.1127,-25 6.6761,-25 5.5634,0 8.9014,-3 8.9014,-7 -1.1127,-5 0,-10 1.1127,-13 1.1127,-3 3.338,-14 5.5634,-25 2.2254,-11 6.6761,-29 10.0141,-40 2.2254,-11 5.5634,-24 5.5634,-28 1.1127,-5 6.6761,-5 13.3522,-1 8.9014,4 10.0141,0 4.4507,-15 -4.4507,-12 -2.2254,-21 4.4507,-21 6.6761,0 8.9014,-7 5.5634,-15 -4.4507,-8 -1.1127,-15 6.6761,-15 7.7887,0 11.1268,-7 6.676,-15 -3.338,-8 1.1127,-20 8.9015,-27 7.7887,-7 12.2395,-18 10.0141,-25 -2.2254,-6 1.1127,-14 6.6761,-18 6.676,-3 12.2394,-17 12.2394,-31 0,-13 4.4508,-24 10.0142,-24 6.676,0 11.1267,-8 11.1267,-17 1.1127,-32 14.4649,-88 24.479,-99 5.5634,-6 7.7887,-19 3.338,-27 -3.338,-9 -2.2253,-22 2.2254,-29 5.5634,-7 10.0141,-17 11.1268,-23 4.4507,-38 6.6761,-40 15.5775,-20 6.6761,14 7.7887,7 3.338,-21 -3.338,-26 -1.1126,-44 6.6761,-48 6.6761,-4 10.0141,-12 5.5634,-17 -3.338,-5 0,-17 8.9014,-26 8.9015,-11 8.9015,-14 1.1127,-10 -10.0141,6 -11.1268,-3 -6.6761,-30 3.3381,-21 11.1268,-39 16.6902,-41 4.4508,-2 8.9015,-14 8.9015,-27 0,-13 6.676,-28 15.5775,-32 8.9014,-4 15.5775,-15 15.5775,-23 -2.2254,-36 3.338,-50 22.2536,-51 11.1268,0 13.3521,-3 4.4507,-6 -10.0141,-4 -8.9014,-12 4.4507,-36 34.4931,-60 38.9579,-67 38.9579,-87 0,-12 4,-19 9,-16 5,3 12,-1 15,-10 3,-8 2,-12 -4,-9 -6,3 -7,-1 -4,-9 3,-9 10,-16 15,-16 5,0 9,-5 9,-11 0,-5 -4,-8 -10,-4 -5,3 -7,-15 -3,-47 3,-29 10,-55 15,-56 4,-2 8,-8 8,-13 0,-6 -4,-8 -9,-5 -4,3 -8,-8 -7,-24 1,-36 4,-37 16,-8 8,21 9,20 6,-7 -1,-17 -5,-36 -9,-41 -7,-12 -1,-69 8,-84 4,-6 8,-32 11,-58 2,-26 -32.4118,-52.7647 -27.4118,-53.7647 6,-2 10,-13 10,-25 0,-18 -2,-20 -11,-7 -9,12 -9,11 -4,-5 4,-11 11,-36 15,-56 3,-19 42.323,-32.3679 46.323,-38.3679 3,-6 10,20 0,0 -12.4984,-34 -11.6733,-83.338 -4.6759,-152.338 10,-40 46,-157 79,-262 33,-104 59.3518,-235.3241 72.3518,-285.3241 C 4490.3461,2341.9389 4671,1940 4650,1710 c -43,-467 -56,-574 -75,-626 -10,-27 -54,-81 -131,-160 -183,-188 -169,-162 -167,-332 2,-170 6,-179 106,-208 102,-29 213,-24 328,14 81,28 105,41 152,85 63,59 58,37 76,318 13,188 34,267 90,330 l 38,43 6,-69 c 3,-39 2,-117 -4,-175 -5,-58 -9,-127 -9,-155 0,-48 3,-52 60,-107 33,-32 70,-58 81,-58 36,0 133,40 158,65 38,37 31,102 -24,218 -89,187 -95,297 -24,444 29,63 39,93 34,112 -3,14 -10,47 -15,73 -13,69 -34,102 -116,182 -49,48 -74,80 -74,95 0,13 -14,53 -32,89 -30,63 -31,69 -20,122 9,44 9,64 -2,101 -8,25 -12,56 -10,70 33,195 58.3529,681.5882 25.3529,1011.5882 -13,130 -34.6457,233.7969 -40.5533,249.0354 -5.9014,16.2384 -7.0301,50.2845 -5.8763,75.2384 2.3383,54.9067 -31.4137,147.2308 -41.2597,172.6284 -5.8892,18.2379 -39.579,-11.0152 -1.7028,-32.5434 21.9319,-11.8849 41.8516,-25.6887 43.8269,-29.7685 3.9323,-11.1588 64.6727,-55.6097 75.6725,-56.0534 4.9999,-0.2017 25.9195,-14.0458 46.8145,-31.889 19.9012,-16.803 40.827,-29.6474 44.8454,-26.8094 4.0183,2.838 13.9812,-3.564 20.9196,-13.8441 12.9013,-16.5207 12.9013,-16.5207 -6.0122,-1.7575 -18.9135,14.7632 -18.9135,14.7632 -6.0122,-1.7575 6.9383,-10.2801 17.8889,-18.722 24.8888,-19.0043 5.9999,-0.2421 34.8393,-27.4059 63.6481,-59.5685 29.8025,-33.2028 47.6976,-50.925 40.7592,-40.6449 -10.9013,16.44 -10.889,18.4396 -0.9261,12.0376 6.9752,-4.2815 16.8828,-19.6814 22.7965,-33.9202 4.9138,-14.1985 13.8706,-21.5599 20.895,-17.8432 6.0245,3.7571 8.0183,2.6766 4.9815,-3.201 -3.0307,-4.8778 2.8953,-17.1171 13.8397,-26.5588 12.926,-12.5216 14.4997,-11.907 14.3336,-38.9008 C 5436.8009,3197.4795 5514,3163 5699,2980 c 140,-139 194,-200 261,-298 138,-200 209,-312 247,-392 19,-41 59,-115 89,-165 37,-63 73,-149 120,-285 l 68,-194 -17,-82 c -18,-87 -21,-193 -8,-259 10,-50 128,-212 174,-238 98,-56 326,63 385,201 31,72 73,222 73,262 1,20 -18,78 -44,137 -69,155 -69,143 2,143 72,0 82,12 84,100 1,51 -3,64 -33,109 -19,28 -49,58 -67,66 -50,24 -131,92 -148,125 -9,16 -20,64 -25,105 -12,97 -33,136 -114,214 l -67,63 -62,-6 c -55,-5 -65,-4 -88,17 -14,13 -31,39 -38,57 -6,19 -22,46 -36,60 -22,23 -38,73 -65,197 -5,23 -12.4706,74.0588 -26.4706,95.0588 -14,21 -33.1765,122.7647 -65.1765,221.7647 -55,165 -45.5738,207.0277 -94.4532,340.0277 -11.7087,31 -14.2945,64.6482 -42.1711,84.6482 -23.4074,15 -41.3902,34 -40.5408,42 0.7431,7 -4.3013,16 -11.9828,19 -7.6815,3 -15.8766,20 -18.0717,37 -2.0889,18 -6.2396,26 -8.9828,19 -3.637,-6 -10.0617,-10 -13.7432,-7 -4.6815,3 -4.6198,13 -0.7704,21 5.0617,10 -0.1951,17 -13.7704,21 -10.6815,3 -18.0445,9 -14.6198,13 7.0617,10 -25.6153,78.3241 -36.2523,72.3241 -5.3185,-3 -16.2568,7 -24.4519,24 -7.3013,16 -20.9211,29 -28.9211,29 -8,0 -13.4691,5 -12.7259,12 0.637,6 -2.1507,8 -5.4692,5 -4.4247,-4 -13.8938,1 -21.8321,11 -22.1334,27 -25.2105,33.3657 -48.2105,33.3657 -11,0 -19.3629,6 -18.6197,13 1.4863,14 -27.3902,34 -55.8594,39 -7.7877,2 -23.5174,7.6552 -28.3298,17.964 -5.0281,9.3161 -22.2175,18.2936 -38.1453,19.1657 -15.9278,0.8721 -30.7777,6.7079 -33.4661,12.8822 -2.257,8.1599 2.936,8.8801 17.7858,3.0443 19.396,-8.0937 20.6071,-7.1555 11.8954,8.3895 -5.0281,9.3161 -16.4602,16.9738 -24.4241,17.4098 -7.9639,0.4361 -11.6477,6.665 -7.1521,13.4505 3.2846,5.8474 -7.4098,-9.1755 -12.9899,21.6109 -6.3267,31.8587 -144.0225,59.6666 -139.6968,71.5531 3.326,11.9138 2.49,17.9388 -2.59,15.0762 -6.1068,-3.8349 -9.7781,8.2697 -10.3143,25.2906 0.4908,17.9933 2.7354,26.9355 7.5427,19.8018 3.8077,-7.1065 7.161,5.8069 7.7335,26.7991 -0.3998,22.019 -2.8261,43.093 -6.7156,47.2006 -3.8894,4.1076 -1.6175,14.0493 5.598,21.8555 10.3234,11.7229 9.4329,15.7487 -0.4544,20.0198 -9.9145,3.2716 -9.8054,7.2701 -0.5088,18.0206 6.1886,6.8338 9.5419,19.7472 6.7884,28.8256 -3.7804,8.1061 -1.5358,17.0483 4.5711,20.8832 6.1068,3.8349 6.2976,10.8323 -1.4268,21.0467 -9.6691,12.2682 -9.56,16.2667 1.6268,22.9642 11.1867,6.6975 11.2958,10.696 1.6539,23.9638 -8.6967,11.2413 -9.56,16.2667 -1.563,16.0486 5.9978,-0.1636 11.2685,9.6964 11.623,22.6915 0.3271,11.9956 0.7906,28.9892 2.0084,36.959 1.2177,7.9698 -0.2908,26.0176 -3.9076,40.1215 -5.4797,19.1565 -4.4256,21.1285 3.2715,9.9145 7.6972,-11.2141 9.9418,-2.2719 8.9513,34.7688 -0.2362,28.0169 -4.5528,53.1439 -10.4415,57.306 -5.8614,5.1617 -4.78,8.1334 4.2167,7.888 6.9973,-0.1909 11.1594,5.6978 8.4059,14.7763 -3.7804,8.1061 -1.5357,17.0482 3.5442,19.9108 6.1068,3.8349 10.378,13.7221 10.6234,22.7188 0.3271,11.9955 -2.6445,13.0769 -7.8607,5.2162 -5.2163,-7.8607 -7.9425,2.2174 -8.3151,25.2361 0.7089,25.9903 1.8448,30.9612 7.4609,16.8028 5.5615,-16.1576 7.6971,-11.214 12.5408,19.6654 3.5987,21.9101 2.3629,49.9542 -1.2812,63.0584 -6.5339,17.1845 -5.4252,21.1558 2.4355,15.9395 7.8607,-5.2162 10.0235,0.727 7.5426,19.8017 -2.6171,14.0766 -0.2089,29.0165 4.871,31.8791 5.1072,3.8622 7.4609,16.8028 3.8441,30.9067 -2.6172,14.0766 -0.1545,31.0157 7.0611,38.8219 9.2965,10.7505 9.4874,17.7479 1.7085,25.9631 -6.8066,7.1882 -11.423,21.3193 -10.0962,33.2876 0.5452,19.9926 0.5452,19.9926 9.9962,-0.2726 7.5063,-18.2115 7.5063,-18.2115 7.1338,4.8073 -0.618,14.022 2.8717,31.9335 8.0879,39.7942 13.5412,19.6379 51.788,433.8081 4.3203,562.7952 -7,76 -17.5617,23.7867 -6.5617,28.7867 8,3 20,0 28,-5 9,-9 18,-4 34,18 12,17 66.9446,22.3518 82.9446,25.3518 22,4 34,16 51,50 16,33 31,48 58,59 29,11 41,24 51,51 7,20 21,38 31,42 24,7 46.5294,-0.2353 16.5294,44.7647 -24,35 -17.7678,38.9303 0.9182,55.5386 10.431,11.1443 20.6794,26.4076 22.4736,35.2269 1.9935,9.7993 36.5442,27.0337 42.8225,27.7975 17.8606,15.3361 -31.2271,103.1873 -156.2271,253.8348 -123.5599,277.6551 -121.9674,244.0701 -196.9978,358.2942 -20,68 -153.0251,217.0022 -167.0251,240.0022 -40,69 -100.4695,164.1604 -136.4695,179.1604 -11.2308,20.3538 -100.2218,102.3967 -177.6009,199.7209 6.0596,58.355 20.706,-5.6943 -25.8847,263.1892 60.562,48.3975 25.8849,183.09 66.1742,230.1616 50,22 63.8812,48.0726 118.8812,140.0726 32.5966,17.6369 275.8113,332.6602 248.6587,396.8846 -3.4709,8.2098 -44.6874,-54.5871 -7.9509,-131.1963 43.712,-91.1558 89.7236,-217.203 121.3419,-270.3919 48,-143 102.9642,-135.1765 157.9642,-130.1765 l -17.3033,5.3241 -3.9099,-57.9089 c 23.0208,-204.9623 120.0177,-298.1057 144.9723,-399.4152 23,-147 76.0334,-235.6493 181.0334,-557.6493 129,-394 177.8662,-419.248 191.8662,-641.248 -14.357,-151.0595 7.2478,-213.3438 -34.7175,-309.338 -109.9937,-143.8526 -23.2724,-233.0856 -28.5525,-347 -5,-65 -19,-125 -40,-185 -22,-63 -28,-92 -21,-99 31,-31 120,55 141,136 6,23 16,59 21,81 13,49 -8.5651,87 19.4349,79 28,-7 12.1176,-29 -2.8824,-38 -11,-7 25,-79 58,-117 8,-10 10,-18 4,-18 -5,0 -27,23 -47,50 -37,50 15.4475,72 -3.5525,53 -21,-21 -46.4475,-129 18.5525,-180 33,-27 60,-53 60,-59 0,-12 -22,-35 -62,-65 -29,-21 -38,-59 -15,-59 7,0 34,7 59,16 61,20 118,90 118,145 0,28 5,39 19,44 35,11 136,128 149,173 12,39 11,46 -27,134 -34.3566,155.3367 -70.2576,229.7511 -84,333 -0.2553,162.7447 -53.158,741.842 -78,1010 -25,185 -77.6898,446 -143.6898,625 -29.0476,138.1653 -52.8347,403.5419 -116.3518,479.2132 -9,36 5.9584,17.097 2.9584,27.097 -8,26 -7.9584,13.0139 25.0416,-17.9861 28,-27 29,-28 43,-9 19,26 19,25 -17,79 -49,74 -87.5882,323.5882 -87.5882,388.5882 0,21 -7,58 -15,81 -8,23 -15,61 -15,83 0,36 -31.0208,151.6482 -98.0208,279.6482 -22,40 -67.4118,50.4118 -51.4118,60.4118 6,3 10,18 10,33 1,37 18.0624,179.0277 27.0624,170.0277 4,-4 7,-19 7,-33 0,-21 2,-23 10,-11 7,11 10,5 10,-25 0,-41 34.9584,-61.6759 49.9584,-60.6759 5,1 24.9792,-1.3518 28.9792,-18.3518 4,-16 10,-30 12,-30 2,0 -33.9376,35.0277 -36.9376,97.0277 -4,68 -2,122 4,137 10,23 11,23 13,-15 l 1,-40 12,50 c 8,34 15,45 21,36 7,-12 10,-11 21,3 7,10 17,15 23,11 8,-4 8,1 2,17 -19,52 -22,124 -7,168 9,25 16,61 16,80 1,41 27,108 30,75 1,-20 1,-20 9,0 7,16 9,13 16,-20 8,-35 10,-25 16,70 4,61 12,123 18,139 11,27 12,28 25,10 12,-16 14,-13 10,31 l -5,50 21,-38 c 12,-22 24,-37 27,-34 2,3 0,14 -6,25 -20,38 -5,245 23,314 47,115 84,572 54,671 -17,58 -102,146 -151,157 -50,11 -148,5 -157,-10 -5,-7 -15,-8 -32,-1 -27,10 -57,6 -96,-15 -35,-18 -54,-8 -45,25 4,14 8,73 7,131 0,118 -22,185 -69,210 -14,7 -25,17 -25,21 0,11 -104,58 -143,66 -23,5 -28,3 -22,-7 z m -781,-582 c -13,-24 -177,-238 -182,-238 -7,0 27,49 106,153 68,88 95,118 76,85 z m -251,-318 c -3,-10 -12,-25 -21,-32 -13,-11 -12,-8 2,20 19,36 27,41 19,12 z m 1186,-462 c -19,-51 -29,-72 -97,-204 -17,-34 -48,-76 -69,-93 -21,-18 -53,-46 -70,-64 -39,-37 -43,-22 -14,46 11,25 17,47 15,50 -7,6 38,95 63,126 l 20,24 -2,-29 c -1,-16 -7,-40 -14,-52 -7,-13 -11,-25 -9,-28 2,-2 26,40 52,94 34,70 60,109 94,139 26,24 48,43 49,43 2,0 -6,-24 -18,-52 z m -111,-73 c -10,-23 -28,-34 -28,-18 0,7 31,43 36,43 2,0 -2,-11 -8,-25 z m 32,-145 c -6,-11 -13,-20 -16,-20 -2,0 0,9 6,20 6,11 13,20 16,20 2,0 0,-9 -6,-20 z m -849,-31 c 6,-7 8,-39 5,-69 -2,-35 -1,-48 4,-35 8,19 9,19 9,-1 1,-21 -10.9861,-8.6898 -116.9861,-6.6898 C 4867.0139,9858.3102 4881,9838 4926,9939 l 27.7647,68.059 L 5016,9988 c 42,-3 69,-9 75,-19 z m 808,-53 c -29,-49 -34,-46 -9,5 12,23 24,39 26,36 3,-2 -5,-21 -17,-41 z m -33,-30 c 0,-13 -4,-22 -8,-19 -13,7 -9,-12 5,-26 10,-10 9,-12 -1,-9 -8,2 -21,-17 -33,-47 -22,-57 -24,-70 -6,-37 12,22 13,21 13,-13 0,-23 -3,-30 -9,-22 -5,7 -6,2 -3,-14 3,-15 -1,-46 -9,-70 -23,-64 -11,-57 18,11 15,33 29,60 31,60 3,0 -6,-32 -20,-72 -24,-72 -26,-99 -3,-56 6,12 15,25 19,28 4,3 14,19 23,35 20,38 21,22 2,-41 -20,-66 -18,-77 4,-29 l 19,40 1,-50 c 0,-27 -2,-59 -5,-71 -6,-21 -6,-21 -77,7 -40,15 -80,30 -89,33 -19,6 -51,73 -42,87 3,5 12,9 21,9 13,0 15,9 11,50 -5,44 -1,58 27,105 35,57 96,135 106,135 4,0 6,-11 5,-24 z m -15,-93 c -12,-20 -14,-14 -5,12 4,9 9,14 11,11 3,-2 0,-13 -6,-23 z m 40,-50 c -12,-20 -14,-14 -5,12 4,9 9,14 11,11 3,-2 0,-13 -6,-23 z m 36,-165 c -2,-13 -4,-3 -4,22 0,25 2,35 4,23 2,-13 2,-33 0,-45 z m 6,-119 c -6,-6 -7,3 -4,23 4,28 6,29 9,9 2,-13 0,-27 -5,-32 z M 5667.0011,4151.2527 c 3.8258,-25.5872 -8.0265,-28.6536 -15.0626,-3.8126 -3.0236,12.3798 -1.8288,21.3792 4.1066,20.8898 4.9462,-0.4077 10.1723,-7.9146 10.956,-17.0772 z M 4117.125,4132.7336 c 0,-5 -2.2253,-10 -4.4507,-10 -3.338,0 -8.9014,5 -12.2395,10 -3.338,6 -1.1126,10 4.4508,10 6.676,0 12.2394,-4 12.2394,-10 z m 55.634,-121 c 0,-6 -4.4507,-7 -11.1268,-4 -5.5634,3 -11.1268,11 -11.1268,16 0,6 5.5634,7 11.1268,4 6.6761,-3 11.1268,-11 11.1268,-16 z m 1641.8099,28.4556 c -0.5309,-5 -3.0617,-10 -5.0617,-10 -3,0 -7.4692,5 -9.9383,10 -2.363,6 0.062,10 5.0617,10 6,0 10.5753,-4 9.9383,-10 z M 4209.759,3810.7336 c -3,-8 -6,-5 -6,6 -1,11 2,17 5,13 3,-3 4,-12 1,-19 z m 21,-183 c -3,-3 -9,2 -12,12 -6,14 -5,15 5,6 7,-7 10,-15 7,-18 z m 882.8861,-25.8893 c 13.9321,-11.5622 20.8766,-20.8425 16.8766,-20.6812 -4.9999,0.2017 -19.9442,9.8047 -33.8763,21.3669 -13.932,11.5622 -21.8765,20.8828 -16.8766,20.6811 4.9999,-0.2016 19.9443,-9.8046 33.8763,-21.3668 z"
       id="path4"
       sodipodi:nodetypes="ccccccsscccscccccccccssscscccscccscccsccsccccccscccccccccccccccccscccccccccccccscscccccccccscsccccccccsccccccccscsccccscscccscccscccscscsscccsscscsccsscccccccccccccssccccsscscsscccsccccccccscccccccccccsccccccccscsccccccsccccscccccscscscscccccccsccccccccccccsccccccccccccscccssccccccscssscssccscccscccccccsccccscscssscsccsccssccccsccccscccccccccccccccscccccccccssccccccccccscccccscscscscscccccccccccssscccsscsccscccccccccccccccccccccccccccccccscccscccccccccccccccccccsccsscssssscccccccccccccccsccssccccsccscccccccccsccscsccssccscsccsccsccscsscssscscssscssccccsccssssss" />
    <path
       d="M5847 10063 c-2 -5 -17 -30 -32 -58 -16 -27 -24 -45 -18 -40 14 14 66 105 60 105 -3 0 -8 -3 -10 -7z"
       id="path6" />
    <path
       d="M4769 10813 c-13 -16 -12 -17 4 -4 9 7 17 15 17 17 0 8 -8 3 -21 -13z"
       id="path8" />
    <path
       d="M4666 10402 c-49 -56 -49 -56 -7 -17 35 33 70 77 59 74 -2 0 -25 -26 -52 -57z"
       id="path10" />
  </g>
</svg>
