<?xml version="1.0" encoding="UTF-8" standalone="no"?>
<svg
   xmlns:dc="http://purl.org/dc/elements/1.1/"
   xmlns:cc="http://creativecommons.org/ns#"
   xmlns:rdf="http://www.w3.org/1999/02/22-rdf-syntax-ns#"
   xmlns:svg="http://www.w3.org/2000/svg"
   xmlns="http://www.w3.org/2000/svg"
   xmlns:sodipodi="http://sodipodi.sourceforge.net/DTD/sodipodi-0.dtd"
   xmlns:inkscape="http://www.inkscape.org/namespaces/inkscape"
   version="1.0"
   width="960.000000pt"
   height="1280.000000pt"
   viewBox="0 0 960.000000 1280.000000"
   preserveAspectRatio="xMidYMid meet"
   id="svg14"
   sodipodi:docname="45cleric.svg"
   inkscape:version="1.0.2 (e86c870879, 2021-01-15, custom)">
  <defs
     id="defs18" />
  <sodipodi:namedview
     pagecolor="#ffffff"
     bordercolor="#666666"
     borderopacity="1"
     objecttolerance="10"
     gridtolerance="10"
     guidetolerance="10"
     inkscape:pageopacity="0"
     inkscape:pageshadow="2"
     inkscape:window-width="1920"
     inkscape:window-height="1017"
     id="namedview16"
     showgrid="false"
     inkscape:zoom="0.49804687"
     inkscape:cx="87.618372"
     inkscape:cy="942.8239"
     inkscape:window-x="-8"
     inkscape:window-y="-8"
     inkscape:window-maximized="1"
     inkscape:current-layer="svg14" />
  <metadata
     id="metadata2">
Created by potrace 1.15, written by Peter Selinger 2001-2017
<rdf:RDF>
  <cc:Work
     rdf:about="">
    <dc:format>image/svg+xml</dc:format>
    <dc:type
       rdf:resource="http://purl.org/dc/dcmitype/StillImage" />
    <dc:title></dc:title>
  </cc:Work>
</rdf:RDF>
</metadata>
  <g
     transform="translate(0.000000,1280.000000) scale(0.100000,-0.100000)"
     fill="#000000"
     stroke="none"
     id="g12">
    <path
       d="m 5865,11580 c 5,-9 4,-11 -3,-6 -19,11 -49,-11 -103,-77 -28,-34 -77,-88 -107,-121 -55,-57 -57,-59 -146,-77 -53,-11 -120,-33 -161,-54 -57,-28 -77,-34 -107,-29 -24,4 -38,3 -38,-4 0,-11 -38,-28 -53,-24 -5,1 -88,-77 -185,-175 -97,-97 -157,-159 -132,-137 116,104 185,169 183,175 -1,3 17,24 40,45 40,37 40,37 9,3 -18,-19 -30,-38 -27,-41 3,-2 -41,-48 -98,-100 -102,-95 -123,-121 -188,-231 -53,-90 -96,-138 -230,-250 -68,-58 -137,-118 -152,-135 -43,-45 -15,-49 35,-5 110,95 111,93 11,-29 -35,-43 -63,-81 -63,-86 0,-5 -7,-15 -15,-22 -8,-7 -15,-18 -15,-24 0,-6 7,-3 14,7 7,9 18,17 23,17 6,0 33,15 59,33 52,35 95,44 87,17 -8,-23 45,40 66,80 11,19 31,46 46,60 15,14 45,50 66,80 40,57 108,137 94,110 -5,-8 -21,-31 -37,-51 -15,-20 -28,-39 -28,-42 0,-8 28,-2 37,8 4,4 2,5 -4,1 -24,-14 -13,10 18,40 17,16 47,56 66,89 19,33 50,76 67,95 18,20 65,83 106,140 41,58 75,107 77,109 2,2 6,1 10,-2 4,-4 -12,-44 -35,-90 -23,-45 -42,-98 -44,-117 -1,-19 -6,-41 -12,-49 -6,-7 -11,-20 -12,-29 -2,-8 -28.2941,-41.118 -44.2941,-74.118 -42.9744,-81 -89.0044,-184.426 -78.0749,-310.426 C 4866.9024,10236.684 4885,10190 4878,10177 c -6,-12 -13,-39 -14,-61 -1,-24 -10,-46 -24,-60 l -22,-21 21,35 c 23,38 29,67 8,35 -7,-11 -30,-51 -50,-90 l -37,-70 35,40 35,40 -11,-35 c -6,-19 -17,-47 -24,-61 -8,-14 -19,-39 -25,-55 L 4740.3657,9863.6343 4788,9873 c 26,25 30,26 36,11 3,-9 1,-23 -5,-30 -13,-16 2,-19 18,-3 7,7 6.4118,11.7059 10.4118,5.7059 22.2897,-4.7944 -11.0987,8.8429 -66.6518,3.7624 -1,1 -90.1485,-9.3335 -122.1485,-30.3335 -31,-20 -108.752,-54.2929 -132.752,-67.2929 -28,-16 -33.5294,-20.5883 -38.0588,-32.5294 2,-9 -34.5606,-24.3749 -52.5606,-50.3749 -22,-30 -122.8985,-66.9412 -128.8985,-100.9412 -45.4347,-60 -108.0056,-72.4753 -144.5039,-134.4753 -35.0946,-61.5268 -268.0801,-104.3392 -402.7149,-179.7947 -242.5945,-81.0712 -395.4204,-376.1463 -276.8098,-591.7169 52.2565,-241.7137 401.7638,-189.3333 486.446,-198.2089 6.5104,-31.7448 -0.7379,6.6311 0,0 -25.52,18.5706 -146.557,186.0252 -140.2385,26.3178 59.8665,158.0404 -644.5831,-612.7233 -206.4742,-533.018 147.9801,26.9221 327.5678,227.7861 362.0507,263.0105 17,16 93.903,115.8891 102.903,144.8891 18,58 -45.6471,60.4706 -37.6471,8.4706 10,-69 -151.8233,-157.9724 -316.8233,-275.9724 -55,-40 14.7276,62.1788 -58.2724,3.1788 -25.4212,183.4847 -556.3742,-538.8454 -639.5674,-587.0565 -54,-16 -91.278,-2.1499 -230.278,64.8501 -62,30 -128,58 -147,62 -37,7 -98,35 -141,65 -33,23 -313.4118,36.5294 -323.4118,19.5294 -10,-16 46,-56 88,-62 22,-4 38,-8 36,-10 -2,-2 -37,-10 -78,-19 -116,-23 -119,-25 -119,-39 0,-34 123,-39 256,-11 17,4 34,3 37,-3 7,-10 -12,-20 -127,-64 -97,-37 -102,-41 -81,-62 22,-21 27,-21 139,14 53,16 102,28 109,26 52,-16 51,-15 26,-34 -13,-10 -50,-33 -81,-52 -32,-19 -58,-40 -58,-47 0,-28 32,-24 106,11 83,39 88,41 79,25 -27,-43 50,-98 136,-99 47,0 172,-29 247,-57 37,-14 51,-14 100,-3 84,18 202.4129,55.8801 301.4129,117.8801 197.1826,63.7817 111.5462,55.7096 254.6632,115.3979 C 3724.782,7573.8662 3861,7635 3953,7687 c 44,25 -427.6387,109.635 -431.7647,108.647 -28.5784,-6.8433 -141.3444,13.5409 -103.3182,-7.8223 -18,-9 -3.0467,-63.1446 -19.5283,-145.3229 -12.9802,-64.7196 23.6339,-29.1704 -10.2467,-111.6992 -208.704,-142.9343 -17.0694,-359.2259 -127.8871,-625.6262 -121.3241,-172.8837 -243.4392,-398.8526 -337.9686,-558.6762 -23.4751,-136.0899 312.0297,-267.0573 334.0297,-291.0573 13,-14 32,-25 42,-25 10,0 43,-25 73,-56 50,-50 55,-60 55,-99 0,-49 6,-56 35,-45 14,5 30,0 52,-17 59.3982,-4.8376 68.7709,37.3645 43.6862,31.1245 -5.0837,85.3801 -104.2956,7.5841 -71.8764,-169.5651 6.804,-37.1795 21.5,-79 24.1875,-96 1.7916,-17 21.4999,-85 42.9999,-152 39.4166,-126 45.2529,-177 43.2594,-189 -0.9968,-5 1.9935,-8 5.9806,-8 3.9871,0 8.971,-12 9.9678,-27 0.9968,-16 5.9806,-39 10.9645,-53 12.958,-34 22.4928,-104.2964 20.2675,-114.2964 -1.1127,-4 2.2253,-7 7.7887,-7 4.4508,0 7.7888,-11 6.6761,-25 -2.2253,-14 1.1127,-25 6.6761,-25 5.5634,0 8.9014,-3 8.9014,-7 -1.1127,-5 0,-10 1.1127,-13 1.1127,-3 3.338,-14 5.5634,-25 2.2254,-11 6.6761,-29 10.0141,-40 2.2254,-11 5.5634,-24 5.5634,-28 1.1127,-5 6.6761,-5 13.3522,-1 8.9014,4 10.0141,0 4.4507,-15 -4.4507,-12 -2.2254,-21 4.4507,-21 6.6761,0 8.9014,-7 5.5634,-15 -4.4507,-8 -1.1127,-15 6.6761,-15 7.7887,0 11.1268,-7 6.676,-15 -3.338,-8 1.1127,-20 8.9015,-27 7.7887,-7 12.2395,-18 10.0141,-25 -2.2254,-6 1.1127,-14 6.6761,-18 6.676,-3 12.2394,-17 12.2394,-31 0,-13 4.4508,-24 10.0142,-24 6.676,0 11.1267,-8 11.1267,-17 1.1127,-32 14.4649,-88 24.479,-99 5.5634,-6 7.7887,-19 3.338,-27 -3.338,-9 -2.2253,-22 2.2254,-29 5.5634,-7 10.0141,-17 11.1268,-23 4.4507,-38 6.6761,-40 15.5775,-20 6.6761,14 7.7887,7 3.338,-21 -3.338,-26 -1.1126,-44 6.6761,-48 6.6761,-4 10.0141,-12 5.5634,-17 -3.338,-5 0,-17 8.9014,-26 8.9015,-11 8.9015,-14 1.1127,-10 -10.0141,6 -11.1268,-3 -6.6761,-30 3.3381,-21 11.1268,-39 16.6902,-41 4.4508,-2 8.9015,-14 8.9015,-27 0,-13 6.676,-28 15.5775,-32 8.9014,-4 15.5775,-15 15.5775,-23 -2.2254,-36 3.338,-50 22.2536,-51 11.1268,0 13.3521,-3 4.4507,-6 -10.0141,-4 -8.9014,-12 4.4507,-36 34.4931,-60 38.9579,-67 38.9579,-87 0,-12 4,-19 9,-16 5,3 12,-1 15,-10 3,-8 2,-12 -4,-9 -6,3 -7,-1 -4,-9 3,-9 10,-16 15,-16 5,0 9,-5 9,-11 0,-5 -4,-8 -10,-4 -5,3 -7,-15 -3,-47 3,-29 10,-55 15,-56 4,-2 8,-8 8,-13 0,-6 -4,-8 -9,-5 -4,3 -8,-8 -7,-24 1,-36 4,-37 16,-8 8,21 9,20 6,-7 -1,-17 -5,-36 -9,-41 -7,-12 -1,-69 8,-84 4,-6 8,-32 11,-58 2,-26 63.422,-52.7647 68.422,-53.7647 6,-2 -43.241,-18.3241 -43.241,-30.3241 0,-18 -2,-20 -11,-7 -9,12 -9,11 -4,-5 4,-11 11,-36 15,-56 3,-19 111.5363,-48.3402 115.5363,-54.3402 3,-6 -105.5363,74.3402 -115.5363,54.3402 -12.4984,-34 55.9461,-137.6782 62.9435,-206.6782 10,-40 30.0277,-167.6482 63.0277,-272.6482 33,-104 70,-224.6759 83,-274.6759 86,-328 319.8949,-729.9389 298.8949,-959.9389 C 4553.759,1237.6759 4594,1136 4575,1084 c -10,-27 -54,-81 -131,-160 -183,-188 -169,-162 -167,-332 2,-170 6,-179 106,-208 102,-29 213,-24 328,14 81,28 105,41 152,85 63,59 58,37 76,318 13,188 34,267 90,330 l 38,43 6,-69 c 3,-39 2,-117 -4,-175 -5,-58 -9,-127 -9,-155 0,-48 3,-52 60,-107 33,-32 70,-58 81,-58 36,0 133,40 158,65 38,37 31,102 -24,218 -89,187 -95,297 -24,444 29,63 39,93 34,112 -3,14 -10,47 -15,73 -13,69 -34,102 -116,182 -49,48 -42.0554,80 -42.0554,95 0,13 -14,53 -32,89 -30,63 -31,69 -20,122 9,44 9,64 -2,101 -8,25 -12,56 -10,70 33,195 63.677,681.5882 30.677,1011.5882 -13,130 -39.9698,228.4728 -45.8774,243.7113 -5.9014,16.2384 3.6181,111.5116 4.7719,136.4655 2.3383,54.9067 -52.7101,139.2447 -62.5561,164.6423 -5.8892,18.2379 -39.579,-11.0152 -1.7028,-32.5434 21.9319,-11.8849 -14.0514,-16.3715 -12.0761,-20.4513 3.9323,-11.1588 13.904,-17.1228 24.8823,-17.5555 4.9901,-0.1966 -16.7738,17.6949 0,0 16.0219,-16.6631 58.4898,-70.4257 63.2204,-67.6062 4.7305,2.8195 30.4285,-37.7028 34.9532,-47.901 9.0357,-16.3879 16.0946,-22.5055 0.5784,-7.8662 -15.5162,14.6394 -5.1633,15.11 3.8725,-1.2779 4.5245,-10.1982 -3.8783,-12.9222 3.1079,-13.1975 5.9881,-0.2361 25.2364,-57.7644 46.5482,-89.6658 22.0635,-32.9331 12.3138,-46.7453 7.7892,-36.5471 -7.0396,16.3092 -6.5473,18.2938 1.9559,11.9467 6.0015,-4.2445 12.2894,-19.5221 14.8313,-33.65 1.5439,-14.0887 8.803,-21.3886 16.7737,-17.6949 6.9728,3.7331 8.7226,2.6621 4.2517,-3.1735 -4.2248,-4.8434 -1.1906,-16.9868 7.5721,-26.3501 10.0205,-12.4187 32.4597,-4.2782 25.8135,-31.0699 -17.231,-69.4597 97.2177,-251.9882 282.2177,-434.9882 145.3241,-176.2687 232.3714,-147.6724 299.3714,-245.6724 138,-200 276.1971,-252.1431 314.1971,-332.1431 19,-41 92.8824,-115 122.8824,-165 37,-63 73,-149 120,-285 l 68,-194 -17,-82 c -18,-87 -21,-193 -8,-259 10,-50 128,-212 174,-238 98,-56 326,63 385,201 31,72 73,222 73,262 1,20 -18,78 -44,137 -69,155 -69,143 2,143 72,0 82,12 84,100 1,51 -3,64 -33,109 -19,28 -49,58 -67,66 -50,24 -131,92 -148,125 -9,16 -20,64 -25,105 -12,97 -11.7036,104.0554 -92.7036,182.0554 l -99.5905,68.5917 L 6617,2586 c -55,-5 -22.4072,17.2964 -45.4072,38.2964 -14,13 -31,39 -38,57 -6,19 -22,46 -36,60 -22,23 -38,73 -65,197 -5,23 -12.4706,74.0588 -26.4706,95.0588 -14,21 -45.6517,140.4855 -77.6517,239.4855 -55,165 -33.0986,206.8386 -81.978,339.8386 -11.7087,31 9.6639,69.9723 -18.2127,89.9723 -23.4074,15 -41.3902,34 -40.5408,42 0.7431,7 -4.3013,16 -11.9828,19 -7.6815,3 -15.8766,20 -18.0717,37 -2.0889,18 -6.2396,26 -8.9828,19 -3.637,-6 -10.0617,-10 -13.7432,-7 -4.6815,3 -4.6198,13 -0.7704,21 5.0617,10 -0.1951,17 -13.7704,21 -10.6815,3 -18.0445,9 -14.6198,13 7.0617,10 -25.6153,78.3241 -36.2523,72.3241 -5.3185,-3 -24.4519,24 -24.4519,24 -7.3013,16 -4.9488,36.9861 -12.9488,36.9861 -8,0 -13.4691,5 -12.7259,12 0.637,6 -2.1507,8 -5.4692,5 -4.4247,-4 -13.8938,1 -21.8321,11 -22.1334,27 -25.2105,33.3657 -48.2105,33.3657 -11,0 -19.3629,6 -18.6197,13 1.4863,14 -27.3902,34 -55.8594,39 -7.7877,2 -23.5174,7.6552 -28.3298,17.964 -5.0281,9.3161 -22.2175,18.2936 -38.1453,19.1657 -15.9278,0.8721 -30.7777,6.7079 -33.4661,12.8822 -2.257,8.1599 2.936,8.8801 17.7858,3.0443 19.396,-8.0937 20.6071,-7.1555 11.8954,8.3895 -5.0281,9.3161 -16.4602,16.9738 -24.4241,17.4098 -7.9639,0.4361 4.3246,-17.2934 8.8202,-10.5079 3.2846,5.8474 -7.4098,-9.1755 -12.9899,21.6109 -6.3267,31.8587 -43.2889,66.7393 -38.9632,78.6258 3.326,11.9138 2.49,17.9388 -2.59,15.0762 -6.1068,-3.8349 22.1665,-47.6333 21.6303,-30.6124 0.4908,17.9933 2.7354,26.9355 7.5427,19.8018 3.8077,-7.1065 7.161,5.8069 7.7335,26.7991 -0.3998,22.019 -2.8261,43.093 -6.7156,47.2006 -3.8894,4.1076 -1.6175,14.0493 5.598,21.8555 10.3234,11.7229 9.4329,15.7487 -0.4544,20.0198 -9.9145,3.2716 -52.3982,-35.3227 -43.1016,-24.5722 6.1886,6.8338 9.5419,19.7472 6.7884,28.8256 -3.7804,8.1061 -1.5358,17.0483 4.5711,20.8832 6.1068,3.8349 6.2976,10.8323 -1.4268,21.0467 -9.6691,12.2682 -9.56,16.2667 1.6268,22.9642 11.1867,6.6975 11.2958,10.696 1.6539,23.9638 -8.6967,11.2413 -25.5323,40.2251 -17.5353,40.007 5.9978,-0.1636 11.2685,9.6964 11.623,22.6915 0.3271,11.9956 0.7906,28.9892 2.0084,36.959 1.2177,7.9698 -0.2908,26.0176 -3.9076,40.1215 -5.4797,19.1565 -4.4256,21.1285 3.2715,9.9145 7.6972,-11.2141 9.9418,-2.2719 8.9513,34.7688 -0.2362,28.0169 -7.2149,77.1023 -13.1036,81.2644 -5.8614,5.1617 -4.78,8.1334 4.2167,7.888 6.9973,-0.1909 11.1594,5.6978 8.4059,14.7763 -3.7804,8.1061 -1.5357,17.0482 3.5442,19.9108 6.1068,3.8349 10.378,13.7221 10.6234,22.7188 0.3271,11.9955 -2.6445,13.0769 -7.8607,5.2162 -5.2163,-7.8607 -7.9425,2.2174 -8.3151,25.2361 0.7089,25.9903 1.8448,30.9612 7.4609,16.8028 5.5615,-16.1576 7.6971,-11.214 12.5408,19.6654 3.5987,21.9101 2.3629,49.9542 -1.2812,63.0584 -6.5339,17.1845 -5.4252,21.1558 2.4355,15.9395 7.8607,-5.2162 10.0235,0.727 7.5426,19.8017 -2.6171,14.0766 -0.2089,29.0165 4.871,31.8791 5.1072,3.8622 7.4609,16.8028 3.8441,30.9067 -2.6172,14.0766 -0.1545,31.0157 7.0611,38.8219 9.2965,10.7505 9.4874,17.7479 1.7085,25.9631 -6.8066,7.1882 -11.423,21.3193 -10.0962,33.2876 0.5452,19.9926 0.5452,19.9926 9.9962,-0.2726 7.5063,-18.2115 7.5063,-18.2115 7.1338,4.8073 -0.618,14.022 2.8717,31.9335 8.0879,39.7942 35.5758,-27.2704 93.7423,840.9179 -43.1722,628.7005 -7,76 -102.7473,-53.4127 -91.7473,-48.4127 8,3 20,0 28,-5 9,-9 18,-4 34,18 12,17 66.9446,22.3518 82.9446,25.3518 22,4 34,16 51,50 16,33 31,48 58,59 29,11 39.508,24 51,51 8.0444,20 24.1333,38 35.6253,42 27.581,7 53.4719,-0.2353 18.9957,44.7647 -27.5809,35 -20.4188,38.9303 1.0552,55.5386 11.9874,11.1443 23.7649,26.4076 25.8268,35.2269 2.2909,9.7993 85.261,42.0925 92.476,42.8563 20.5255,15.3361 -8.6389,118.2461 -133.6389,268.8936 -123.5599,277.6551 -130.1427,235.8948 -205.1731,350.1189 -1.1765,90.5882 -61.2236,213.8834 -75.2236,236.8834 -40,69 -139.9435,187.6621 -175.9435,202.6621 -11.2308,20.3538 -87.9034,97.7185 -165.2825,195.0427 -53.3374,-4.7202 63.3489,-3.193 -5.7694,190.7464 3.7316,130.7554 -87.0573,222.2471 -49.9965,259.6333 50,22 91.2976,-3.5697 146.2976,88.4303 77.0871,32.4671 184.4523,421.7687 140.7349,480.4715 -5.3238,7.1487 -1.6353,-67.0473 -50.5437,-136.5204 -47.1207,-66.9338 5.9562,-236.0814 81.0329,-309.1415 44.2353,-112.8824 185.866,-91.1028 240.866,-86.1028 l -39.8915,12.8535 -64.1452,0.4441 c -10.7311,-147.2119 117.9236,-384.277 161.9134,-469.0623 23,-147 94.7232,-255.0634 199.7232,-577.0634 129,-399.2034 209.0865,-471.7028 223.0865,-623.3933 C 6332.2974,6102.091 6390.8348,6071.3311 6351,5978 c -109.9937,-143.8526 -23.2724,-233.0856 -28.5525,-347 -5,-65 -19,-125 -40,-185 -22,-63 -4.0416,-86.6759 2.9584,-93.6759 31,-31 96.0416,49.6759 117.0416,130.6759 6,23 16,59 21,81 13,49 -8.5651,87 19.4349,79 28,-7 12.1176,-29 -2.8824,-38 -11,-7 25,-79 58,-117 8,-10 10,-18 4,-18 -5,0 -27,23 -47,50 -37,50 15.4475,72 -3.5525,53 -21,-21 -46.4475,-129 18.5525,-180 33,-27 60,-53 60,-59 0,-12 -22,-35 -62,-65 -29,-21 -38,-59 -15,-59 7,0 34,7 59,16 61,20 118,90 118,145 0,28 5,39 19,44 35,11 136,128 149,173 12,39 11,46 -27,134 -34.3566,155.3367 -70.2576,229.7511 -84,333 17.6601,162.7447 -22.1487,741.842 -78,1010 -25,185 -77.6898,446 -143.6898,625 -29.2325,140.2916 -22.4113,561.1254 -73.0935,489.1958 -9,36 3.2963,15.1005 0.2963,25.1005 -8,26 -13.948,7.6898 19.052,-23.3102 28,-27 29,-28 43,-9 19,26 19,25 -17,79 -38.2696,70.4232 -36.4287,284.3513 -66.2918,359.3057 -7.7726,19.5086 -12.3241,92.6066 -20.3241,115.6066 -8,23 -15,55.6759 -15,77.6759 0,36 -36.3449,146.3241 -103.3449,274.3241 -22,40 -92.0184,86.0739 -76.0184,96.0739 6,3 0,-15 0,0 1,37 7.4142,179.0277 16.4142,170.0277 4,-4 7,-19 7,-33 0,-21 2,-23 10,-11 7,11 10,5 10,-25 0,-41 34.9584,-61.6759 49.9584,-60.6759 5,1 24.9792,-1.3518 28.9792,-18.3518 4,-16 10,-30 12,-30 2,0 -33.9376,35.0277 -36.9376,97.0277 -4,68 -2,122 4,137 10,23 11,23 13,-15 l 1,-40 12,50 c 8,34 15,45 21,36 7,-12 10,-11 21,3 7,10 17,15 23,11 8,-4 8,1 2,17 -19,52 -22,124 -7,168 9,25 16,61 16,80 1,41 27,108 30,75 1,-20 1,-20 9,0 7,16 9,13 16,-20 8,-35 10,-25 16,70 4,61 12,123 18,139 11,27 12,28 25,10 12,-16 14,-13 10,31 l -5,50 21,-38 c 12,-22 24,-37 27,-34 2,3 0,14 -6,25 -20,38 -5,245 23,314 47,115 84,572 54,671 -17,58 -102,146 -151,157 -50,11 -148,5 -157,-10 -5,-7 -15,-8 -32,-1 -27,10 -57,6 -96,-15 -35,-18 -54,-8 -45,25 4,14 8,73 7,131 0,118 -22,185 -69,210 -14,7 -25,17 -25,21 0,11 -104,58 -143,66 -23,5 -28,3 -22,-7 z m -781,-582 c -13,-24 -177,-238 -182,-238 -7,0 27,49 106,153 68,88 95,118 76,85 z m -251,-318 c -3,-10 -12,-25 -21,-32 -13,-11 -12,-8 2,20 19,36 27,41 19,12 z m 1186,-462 c -19,-51 -29,-72 -97,-204 -17,-34 -48,-76 -69,-93 -21,-18 -53,-46 -70,-64 -39,-37 -23.0346,-22 5.9654,46 11,25 26.0069,60.331 24.0069,63.331 -7,6 59.5167,42.663 56.6551,112.669 l 20,24 -2,-29 c -1,-16 -7,-40 -14,-52 -7,-13 -11,-25 -9,-28 2,-2 3.3726,40 29.3726,94 29.3719,54.573 50.0055,75.685 94,139 26,24 48,43 49,43 2,0 -6,-24 -18,-52 z m -111,-73 c -10,-23 11.9307,-10.042 11.9307,5.958 0,7 -8.9307,19.042 -3.9307,19.042 2,0 -2,-11 -8,-25 z m 32,-145 c -6,-11 -13,-20 -16,-20 -2,0 0,9 6,20 6,11 13,20 16,20 2,0 0,-9 -6,-20 z m -849,-47.9412 c 6,-7 -5.0317,-9.5098 -11.9412,-52.0588 -4.6063,-49.6405 -2.3031,-68.0784 9.2127,-49.6405 18.4253,26.9477 0,28.366 0,0 2.3032,-29.7843 -24.8642,15.5989 -130.8642,17.5989 -125,1 -76.4073,-29.9584 -31.4073,71.0416 l 27.7647,68.059 86.7059,-28.4708 c 46.133,-27.7981 44.8468,-18.4336 50.5294,-26.5294 z M 5899,9916 c -29,-49 -34,-46 -9,5 12,23 24,39 26,36 3,-2 -5,-21 -17,-41 z m -33,-30 c 0,-13 -4,-22 -8,-19 -13,7 -9,-12 5,-26 10,-10 9,-12 -1,-9 -8,2 -21,-17 -33,-47 -22,-57 -24,-70 -6,-37 12,22 13,21 13,-13 0,-23 -3,-30 -9,-22 -5,7 -6,2 -3,-14 3,-15 -1,-46 -9,-70 -23,-64 -11,-57 18,11 15,33 29,60 31,60 3,0 -6,-32 -20,-72 -24,-72 -26,-99 -3,-56 6,12 15,25 19,28 4,3 14,19 23,35 20,38 21,22 2,-41 -20,-66 -18,-77 4,-29 l 19,40 1,-50 c 0,-27 -2,-59 -5,-71 -6,-21 10,7.2353 -61,35.2353 -40,15 -55.1004,53.4821 -64.1004,56.4821 -17.7399,6.1063 -17.9769,32.0998 -47.6471,43.7059 4.3518,5 3.8909,0.6896 5.5318,9.6182 2.4461,13.3102 0.6414,-0.041 -5.1609,40.9585 -7.2529,44 -4.6234,58 23.3766,105 35,57 96,135 106,135 4,0 6,-11 5,-24 z m -15,-93 c -12,-20 -14,-14 -5,12 4,9 9,14 11,11 3,-2 0,-13 -6,-23 z m 40,-50 c -12,-20 -14,-14 -5,12 4,9 9,14 11,11 3,-2 0,-13 -6,-23 z m 36,-165 c -2,-13 -4,-3 -4,22 0,25 2,35 4,23 2,-13 2,-33 0,-45 z m 6,-119 c -6,-6 -7,3 -4,23 4,28 6,29 9,9 2,-13 0,-27 -5,-32 z M 5765.4969,4179.4326 c 3.8258,-25.5872 -8.0265,-28.6536 -15.0626,-3.8126 -3.0236,12.3798 -1.8288,21.3792 4.1066,20.8898 4.9462,-0.4077 10.1723,-7.9146 10.956,-17.0772 z m -1813.419,-30.7267 c 0,-5 -2.2253,-10 -4.4507,-10 -3.338,0 -8.9014,5 -12.2395,10 -3.338,6 -1.1126,10 4.4508,10 6.676,0 12.2394,-4 12.2394,-10 z m 55.634,-121 c 0,-6 -4.4507,-7 -11.1268,-4 -5.5634,3 -11.1268,11 -11.1268,16 0,6 5.5634,7 11.1268,4 6.6761,-3 11.1268,-11 11.1268,-16 z m 1889.3805,64.6216 c -0.5309,-5 -3.0617,-10 -5.0617,-10 -3,0 -7.4692,5 -9.9383,10 -2.363,6 0.062,10 5.0617,10 6,0 10.5753,-4 9.9383,-10 z M 4044.7119,3826.7059 c -3,-8 -6,-5 -6,6 -1,11 2,17 5,13 3,-3 4,-12 1,-19 z m 21,-183 c -3,-3 -9,2 -12,12 -6,14 -5,15 5,6 7,-7 10,-15 7,-18 z m 998.0071,8.4513 c 11.2646,-11.4658 -12.2,24.5048 -16.1921,24.6621 -4.9901,0.1967 -17.745,9.7172 -29.0096,21.1831 -11.2644,11.4658 -17.0332,20.711 -12.0431,20.5143 4.9901,-0.1966 45.9803,-54.8937 57.2448,-66.3595 z"
       id="path4"
       sodipodi:nodetypes="ccccccsscccscccccccccssscscccscccscccsccsccccccscccccccccccccccccscccccccccccccscscccccccccscsccccccccsccccccccscsccccscscccscccscccscscsscccsscscsccsscccccccccccccssccccsscscsscccsccccccccscccccccccccsccccccccscsccccccsccccscccccscscscscccccccsccccccccccccsccccccccccccscccssccccccscssscssccscccscccccccsccccscscssscsccsccssccccsccccscccccccccccccccscccccccccssccccccccccscccccscscscscscccccccccccssscccsscsccscccccccccccccccccccccccccccccccscccscccccccccccccccccccsccsscssssscccccccccccccccsccssccccsccscccccccccsccscsccssccscsccsccsccscsscssscscssscssccccsccssssss" />
    <path
       d="M5847 10063 c-2 -5 -17 -30 -32 -58 -16 -27 -24 -45 -18 -40 14 14 66 105 60 105 -3 0 -8 -3 -10 -7z"
       id="path6" />
    <path
       d="M4769 10813 c-13 -16 -12 -17 4 -4 9 7 17 15 17 17 0 8 -8 3 -21 -13z"
       id="path8" />
    <path
       d="M4666 10402 c-49 -56 -49 -56 -7 -17 35 33 70 77 59 74 -2 0 -25 -26 -52 -57z"
       id="path10" />
  </g>
</svg>
