<?xml version="1.0" encoding="UTF-8" standalone="no"?>
<svg
   xmlns:dc="http://purl.org/dc/elements/1.1/"
   xmlns:cc="http://creativecommons.org/ns#"
   xmlns:rdf="http://www.w3.org/1999/02/22-rdf-syntax-ns#"
   xmlns:svg="http://www.w3.org/2000/svg"
   xmlns="http://www.w3.org/2000/svg"
   xmlns:sodipodi="http://sodipodi.sourceforge.net/DTD/sodipodi-0.dtd"
   xmlns:inkscape="http://www.inkscape.org/namespaces/inkscape"
   version="1.0"
   width="960.000000pt"
   height="1280.000000pt"
   viewBox="0 0 960.000000 1280.000000"
   preserveAspectRatio="xMidYMid meet"
   id="svg14"
   sodipodi:docname="50cleric.svg"
   inkscape:version="1.0.2 (e86c870879, 2021-01-15, custom)">
  <defs
     id="defs18" />
  <sodipodi:namedview
     pagecolor="#ffffff"
     bordercolor="#666666"
     borderopacity="1"
     objecttolerance="10"
     gridtolerance="10"
     guidetolerance="10"
     inkscape:pageopacity="0"
     inkscape:pageshadow="2"
     inkscape:window-width="1920"
     inkscape:window-height="1017"
     id="namedview16"
     showgrid="false"
     inkscape:zoom="0.49804687"
     inkscape:cx="112.17855"
     inkscape:cy="828.84112"
     inkscape:window-x="-8"
     inkscape:window-y="-8"
     inkscape:window-maximized="1"
     inkscape:current-layer="svg14" />
  <metadata
     id="metadata2">
Created by potrace 1.15, written by Peter Selinger 2001-2017
<rdf:RDF>
  <cc:Work
     rdf:about="">
    <dc:format>image/svg+xml</dc:format>
    <dc:type
       rdf:resource="http://purl.org/dc/dcmitype/StillImage" />
    <dc:title></dc:title>
  </cc:Work>
</rdf:RDF>
</metadata>
  <g
     transform="translate(0.000000,1280.000000) scale(0.100000,-0.100000)"
     fill="#000000"
     stroke="none"
     id="g12">
    <path
       d="m 5865,11580 c 5,-9 4,-11 -3,-6 -19,11 -49,-11 -103,-77 -28,-34 -77,-88 -107,-121 -55,-57 -57,-59 -146,-77 -53,-11 -120,-33 -161,-54 -57,-28 -77,-34 -107,-29 -24,4 -38,3 -38,-4 0,-11 -38,-28 -53,-24 -5,1 -88,-77 -185,-175 -97,-97 -157,-159 -132,-137 116,104 185,169 183,175 -1,3 17,24 40,45 40,37 40,37 9,3 -18,-19 -30,-38 -27,-41 3,-2 -41,-48 -98,-100 -102,-95 -123,-121 -188,-231 -53,-90 -96,-138 -230,-250 -68,-58 -137,-118 -152,-135 -43,-45 -15,-49 35,-5 110,95 111,93 11,-29 -35,-43 -63,-81 -63,-86 0,-5 -7,-15 -15,-22 -8,-7 -15,-18 -15,-24 0,-6 7,-3 14,7 7,9 18,17 23,17 6,0 33,15 59,33 52,35 95,44 87,17 -8,-23 45,40 66,80 11,19 31,46 46,60 15,14 45,50 66,80 40,57 108,137 94,110 -5,-8 -21,-31 -37,-51 -15,-20 -28,-39 -28,-42 0,-8 28,-2 37,8 4,4 2,5 -4,1 -24,-14 -13,10 18,40 17,16 47,56 66,89 19,33 50,76 67,95 18,20 65,83 106,140 41,58 75,107 77,109 2,2 6,1 10,-2 4,-4 -12,-44 -35,-90 -23,-45 -42,-98 -44,-117 -1,-19 -6,-41 -12,-49 -6,-7 -11,-20 -12,-29 -2,-8 -28.2941,-41.118 -44.2941,-74.118 -42.9744,-81 -89.0044,-184.426 -78.0749,-310.426 C 4866.9024,10236.684 4885,10190 4878,10177 c -6,-12 -13,-39 -14,-61 -1,-24 -10,-46 -24,-60 l -22,-21 21,35 c 23,38 29,67 8,35 -7,-11 -30,-51 -50,-90 l -37,-70 35,40 35,40 -11,-35 c -6,-19 -17,-47 -24,-61 -8,-14 -19,-39 -25,-55 l -64.2409,16.2548 L 4788,9873 c 26,25 30,26 36,11 3,-9 1,-23 -5,-30 -13,-16 2,-19 18,-3 7,7 6.4118,11.7059 10.4118,5.7059 22.2897,-4.7944 -3.8587,21.3746 -59.4118,16.2941 -1,1 -131.9951,4.7553 -163.9951,-16.2447 -31,-20 -148.6827,-25.0104 -172.6827,-38.0104 -28,-16 -33.5294,-20.5883 -38.0588,-32.5294 2,-9 -53.1949,-11.0647 -71.1949,-37.0647 -22,-30 -104.2642,-80.2514 -110.2642,-114.2514 -45.4347,-60 -68.0749,-101.7578 -104.5732,-163.7578 -35.0946,-61.5268 -273.4042,-85.7049 -408.039,-161.1604 -242.5945,-81.0712 -475.2819,-440.0354 -298.1062,-650.2819 129.4559,-228.4035 462.9909,-176.0231 547.6731,-184.8987 6.5104,-31.7448 -0.7379,6.6311 0,0 -25.52,18.5706 -146.557,186.0252 -140.2385,26.3178 -107.8429,201.1322 -571.1988,-504.103 -504.4994,-668.8933 36.0623,-89.097 203.9459,182.9555 238.4288,218.1799 17,16 -88.6852,-102.4638 -79.6852,-73.4638 18,58 95.5294,71.7647 103.5294,19.7647 10,-69 311.2355,229.7923 146.2355,111.7923 -55,-40 14.7276,62.1788 -58.2724,3.1788 -25.4212,183.4847 -725.9413,-353.5686 -792.1393,-409.2488 -42.9685,-18.4788 -58.699,18.3096 -171.7444,100.8595 -50.4231,36.9625 -104.0994,71.461 -119.5516,76.3893 -30.0912,8.6247 -91.6412,14.1082 -126.6121,51.0708 -26.838,28.338 -276.911,55.8446 -285.0437,34.8992 -8.1327,-19.7134 71.3714,-50.8193 105.529,-58.2118 17.8921,-4.9283 64.7869,-21.1508 63.1604,-23.615 -1.6266,-2.4641 -34.5806,-2.9091 -67.9246,-13.998 -94.3401,-28.338 -149.3838,-54.272 -149.084,-71.5187 0.7249,-41.6975 186.6917,-6.9444 225.7853,9.1348 13.8258,4.9284 32.9756,6.3583 35.4153,-1.0343 5.693,-12.3208 -9.7592,-24.6417 -103.286,-78.8535 -78.8878,-45.5872 -82.9541,-50.5156 -65.8753,-76.3894 26.4552,-15.8834 139.0621,16.7326 209.6785,35.9733 43.1037,19.7134 -102.3261,-16.26 -96.6332,-18.7241 48.5068,2.0439 133.8051,26.4365 109.7923,-9.8567 -10.5726,-12.3209 2.6303,27.1058 -22.5813,3.6962 -26.0248,-23.4097 -73.5229,-79.4011 -73.5229,-88.0257 0,-34.4984 -4.0928,-54.0407 56.0896,-10.9176 109.2025,56.3914 84.7448,37.3391 77.4253,17.6256 4.1629,-52.9797 115.7734,-120.7445 110.6056,-121.9765 38.224,0 139.8835,-35.7306 200.8792,-70.229 30.0913,-17.2493 27.2712,-16.169 66.2612,-3.4648 66.8399,20.7887 349.5324,-79.3817 448.5324,-17.3817 197.1826,63.7817 111.5462,55.7096 254.6632,115.3979 C 3724.782,7573.8662 3861,7635 3953,7687 c 44,25 -427.6387,109.635 -431.7647,108.647 -28.5784,-6.8433 -141.3444,13.5409 -103.3182,-7.8223 -18,-9 -3.0467,-63.1446 -19.5283,-145.3229 -12.9802,-64.7196 23.6339,-29.1704 -10.2467,-111.6992 -259.82,19.7744 -192.1841,-557.2759 -142.065,-486.1428 -121.3241,-172.8837 -229.2613,-538.336 -323.7907,-698.1596 -23.4751,-136.0899 312.0297,-267.0573 334.0297,-291.0573 13,-14 32,-25 42,-25 10,0 43,-25 73,-56 50,-50 55,56.7059 55,17.7059 0,-49 -73.8615,-66.6482 -44.8615,-55.6482 14,5 30,0 52,-17 59.3982,-4.8376 68.7709,37.3645 43.6862,31.1245 -5.0837,85.3801 -61.7028,50.1769 -29.2836,-126.9723 6.804,-37.1795 1.1171,-168.0611 3.8046,-185.0611 1.7916,-17 -21.0929,-81.5029 15.4659,-227.5617 39.4166,-126 50.577,-171.6759 48.5835,-183.6759 -0.9968,-5 1.9935,-8 5.9806,-8 3.9871,0 8.971,-12 9.9678,-27 0.9968,-16 5.9806,-39 10.9645,-53 12.958,-34 22.4928,-104.2964 20.2675,-114.2964 -1.1127,-4 2.2253,-7 7.7887,-7 4.4508,0 7.7888,-11 6.6761,-25 -2.2253,-14 1.1127,-25 6.6761,-25 5.5634,0 8.9014,-3 8.9014,-7 -1.1127,-5 0,-10 1.1127,-13 1.1127,-3 3.338,-14 5.5634,-25 2.2254,-11 6.6761,-29 10.0141,-40 2.2254,-11 5.5634,-24 5.5634,-28 1.1127,-5 6.6761,-5 13.3522,-1 8.9014,4 10.0141,0 4.4507,-15 -4.4507,-12 -2.2254,-21 4.4507,-21 6.6761,0 8.9014,-7 5.5634,-15 -4.4507,-8 -1.1127,-15 6.6761,-15 7.7887,0 11.1268,-7 6.676,-15 -3.338,-8 1.1127,-20 8.9015,-27 7.7887,-7 12.2395,-18 10.0141,-25 -2.2254,-6 1.1127,-14 6.6761,-18 6.676,-3 12.2394,-17 12.2394,-31 0,-13 4.4508,-24 10.0142,-24 6.676,0 11.1267,-8 11.1267,-17 1.1127,-32 14.4649,-88 24.479,-99 5.5634,-6 7.7887,-19 3.338,-27 -3.338,-9 -2.2253,-22 2.2254,-29 5.5634,-7 10.0141,-17 11.1268,-23 4.4507,-38 6.6761,-40 15.5775,-20 6.6761,14 7.7887,7 3.338,-21 -3.338,-26 -1.1126,-44 6.6761,-48 6.6761,-4 10.0141,-12 5.5634,-17 -3.338,-5 0,-17 8.9014,-26 8.9015,-11 8.9015,-14 1.1127,-10 -10.0141,6 -11.1268,-3 -6.6761,-30 3.3381,-21 11.1268,-39 16.6902,-41 4.4508,-2 8.9015,-14 8.9015,-27 0,-13 6.676,-28 15.5775,-32 8.9014,-4 15.5775,-15 15.5775,-23 -2.2254,-36 3.338,-50 22.2536,-51 11.1268,0 13.3521,-3 4.4507,-6 -10.0141,-4 -8.9014,-12 4.4507,-36 34.4931,-60 38.9579,-67 38.9579,-87 0,-12 4,-19 9,-16 5,3 12,-1 15,-10 3,-8 2,-12 -4,-9 -6,3 -7,-1 -4,-9 3,-9 10,-16 15,-16 5,0 9,-5 9,-11 0,-5 -4,-8 -10,-4 -5,3 -7,-15 -3,-47 3,-29 10,-55 15,-56 4,-2 8,-8 8,-13 0,-6 -4,-8 -9,-5 -4,3 -8,-8 -7,-24 1,-36 4,-37 16,-8 8,21 9,20 6,-7 -1,-17 -5,-36 -9,-41 -7,-12 -1,-69 8,-84 4,-6 8,-32 11,-58 2,-26 63.422,-52.7647 68.422,-53.7647 6,-2 -43.241,-18.3241 -43.241,-30.3241 0,-18 -2,-20 -11,-7 -9,12 -9,11 -4,-5 4,-11 11,-36 15,-56 3,-19 191.3978,-37.692 195.3978,-43.692 3,-6 -185.3978,63.692 -195.3978,43.692 -12.4984,-34 135.8076,-127.03 142.805,-196.03 10,-40 30.0277,-167.6482 63.0277,-272.6482 33,-104 70,-224.6759 83,-274.6759 86,-328 319.8949,-729.9389 298.8949,-959.9389 C 4553.759,1237.6759 4594,1136 4575,1084 c -10,-27 -54,-81 -131,-160 -183,-188 -169,-162 -167,-332 2,-170 6,-179 106,-208 102,-29 213,-24 328,14 81,28 105,41 152,85 63,59 58,37 76,318 13,188 34,267 90,330 l 38,43 6,-69 c 3,-39 2,-117 -4,-175 -5,-58 -9,-127 -9,-155 0,-48 3,-52 60,-107 33,-32 70,-58 81,-58 36,0 133,40 158,65 38,37 31,102 -24,218 -89,187 -95,297 -24,444 29,63 39,93 34,112 -3,14 -10,47 -15,73 -13,69 -34,102 -116,182 -49,48 -42.0554,80 -42.0554,95 0,13 -14,53 -32,89 -30,63 -31,69 -20,122 9,44 9,64 -2,101 -8,25 -12,56 -10,70 33,195 63.677,681.5882 30.677,1011.5882 -13,130 -39.9698,228.4728 -45.8774,243.7113 -5.9014,16.2384 3.6181,111.5116 4.7719,136.4655 2.3383,54.9067 -52.7101,139.2447 -62.5561,164.6423 -5.8892,18.2379 -39.579,-11.0152 -1.7028,-32.5434 21.9319,-11.8849 -14.0514,-16.3715 -12.0761,-20.4513 3.9323,-11.1588 13.904,-17.1228 24.8823,-17.5555 4.9901,-0.1966 -16.7738,17.6949 0,0 16.0219,-16.6631 58.4898,-70.4257 63.2204,-67.6062 4.7305,2.8195 30.4285,-37.7028 34.9532,-47.901 9.0357,-16.3879 16.0946,-22.5055 0.5784,-7.8662 -15.5162,14.6394 -5.1633,15.11 3.8725,-1.2779 4.5245,-10.1982 -3.8783,-12.9222 3.1079,-13.1975 5.9881,-0.2361 25.2364,-57.7644 46.5482,-89.6658 22.0635,-32.9331 12.3138,-46.7453 7.7892,-36.5471 -7.0396,16.3092 -6.5473,18.2938 1.9559,11.9467 6.0015,-4.2445 12.2894,-19.5221 14.8313,-33.65 1.5439,-14.0887 8.803,-21.3886 16.7737,-17.6949 6.9728,3.7331 8.7226,2.6621 4.2517,-3.1735 -4.2248,-4.8434 -1.1906,-16.9868 7.5721,-26.3501 10.0205,-12.4187 32.4597,-4.2782 25.8135,-31.0699 -17.231,-69.4597 97.2177,-251.9882 282.2177,-434.9882 145.3241,-176.2687 232.3714,-147.6724 299.3714,-245.6724 138,-200 276.1971,-252.1431 314.1971,-332.1431 19,-41 92.8824,-115 122.8824,-165 37,-63 73,-149 120,-285 l 68,-194 -17,-82 c -18,-87 -21,-193 -8,-259 10,-50 128,-212 174,-238 98,-56 326,63 385,201 31,72 73,222 73,262 1,20 -18,78 -44,137 -69,155 -69,143 2,143 72,0 82,12 84,100 1,51 -3,64 -33,109 -19,28 -49,58 -67,66 -50,24 -131,92 -148,125 -9,16 -20,64 -25,105 -12,97 -11.7036,104.0554 -92.7036,182.0554 l -99.5905,68.5917 L 6617,2586 c -55,-5 -22.4072,17.2964 -45.4072,38.2964 -14,13 -31,39 -38,57 -6,19 -22,46 -36,60 -22,23 -38,73 -65,197 -5,23 -12.4706,74.0588 -26.4706,95.0588 -14,21 -45.6517,140.4855 -77.6517,239.4855 -55,165 -41.8487,195.6789 -89.9641,339.8386 -11.5258,33.6011 9.5128,75.8435 -17.9281,97.5217 -23.0416,16.2586 -40.7433,36.8528 -39.9072,45.5241 0.7315,7.5874 -4.2341,17.3425 -11.7955,20.5942 -7.5615,3.2518 -15.6285,21.6782 -17.7893,40.1046 -2.0562,19.5104 -6.1421,28.1816 -8.8424,20.5943 -3.5802,-6.5035 -9.9044,-10.8391 -13.5284,-7.5874 -4.6083,3.2517 -4.5476,14.0908 -0.7584,22.7621 4.9826,10.8391 -0.192,18.4264 -13.5552,22.7621 -10.5145,3.2517 -17.7624,9.7551 -14.3913,14.0908 6.9514,10.839 -8.2386,101.189 -19.1512,94.3649 -5.4563,-3.412 -25.0851,27.2962 -25.0851,27.2962 -7.4905,18.1975 -5.0771,42.0659 -13.2843,42.0659 -8.2071,0 -13.818,5.6866 -13.0555,13.6481 0.6536,6.8241 -2.2064,9.0987 -5.6108,5.6866 -4.5393,-4.5493 -14.2537,1.1375 -22.3976,12.5108 -22.7067,30.7082 -25.8635,37.9483 -49.4591,37.9483 -11.2849,0 -19.8644,6.824 -19.102,14.7854 1.5248,15.9228 -28.0996,38.6696 -57.3062,44.3564 -7.9894,2.2747 -24.1265,42.5889 -29.0635,54.3136 -5.1584,10.5956 -22.7929,20.8061 -39.1333,21.7979 -16.3403,0.9919 -31.5749,7.6292 -34.3328,14.6515 -2.3156,9.2806 3.012,10.0997 18.2464,3.4624 19.8983,-9.2053 21.1408,-8.1382 12.2035,9.5417 -5.1583,10.5956 -16.8866,19.3051 -25.0567,19.801 -8.1701,0.496 4.4366,-19.6686 9.0486,-11.9511 3.3697,6.6504 -7.6017,-10.4357 -13.3263,24.579 -6.4906,36.2342 -41.3782,59.933 -34.5617,73.4521 5.2414,13.5501 3.9239,20.4025 -4.0814,17.1468 -9.6234,-4.3616 34.9312,-54.1754 34.0861,-34.8168 0.7734,20.4646 4.3107,30.6349 11.8862,22.5214 6.0004,-8.0825 13.1322,3.6106 14.0635,27.3935 -0.6503,24.9462 6.8742,67.5324 3.2634,73.8736 -3.6108,6.3412 -1.5017,21.6888 5.1969,33.7397 9.5837,18.0973 8.7571,24.3123 -0.4218,30.9059 -41.5693,134.9049 -19.1299,200.8593 2.2318,206.4618 9.5061,6.8338 -1.8857,-343.965 -6.2936,-334.4391 -6.052,8.5058 -36.0596,82.2202 -26.679,86.0551 9.3805,3.8349 54.5257,286.0154 42.6605,296.2298 -14.8524,12.2682 -49.3668,-396.2669 -31.7381,-388.6495 17.6286,7.6174 30.8236,39.1449 16.013,52.4127 -13.3587,11.2413 -8.3938,17.6202 -0.9697,17.2836 5.568,-0.2526 4.847,-5.8384 5.1709,15.9061 0.2989,20.0722 -12.0685,58.498 -10.1978,66.4678 1.8704,7.9698 -0.4467,26.0176 -6.0024,40.1215 -8.4172,19.1565 -6.798,21.1285 5.0253,9.9145 11.8234,-11.2141 15.2712,-2.2719 13.7498,34.7688 -0.3629,28.0169 -11.0826,77.1023 -20.1281,81.2644 -9.0035,5.1617 -3.5911,-289.433 10.8115,-289.6905 11.2018,-0.2003 -0.1047,288.5 -4.3343,297.5785 -5.8069,8.1061 -3.4687,-300.4411 4.3343,-297.5785 9.3805,3.8349 29.9632,345.9877 30.3401,354.9844 0.5025,11.9955 -4.0621,13.0769 -12.0746,5.2162 -8.0125,-7.8607 -33.57,-424.7153 -34.1665,-400.5618 1.1349,27.2716 24.2277,456.7591 32.8544,442.6007 8.5429,-16.1576 11.8233,-11.214 19.2636,19.6654 5.5278,21.9101 3.6295,49.9542 -1.9681,63.0584 -10.0365,17.1845 14.6018,201.8159 26.6763,196.5996 12.0746,-5.2162 -22.8654,-215.6743 -26.6762,-196.5996 -4.0201,14.0766 15.0061,64.7577 22.8092,67.6203 7.845,3.8622 11.4604,16.8028 5.9048,30.9067 -4.0202,14.0766 -0.2374,31.0157 10.8463,38.8219 14.28,10.7505 11.9489,-8.2152 0,0 -10.4554,7.1882 -12.8843,-50.7902 -10.8463,-38.8219 0.8375,19.9926 -60.5269,-160.9856 -46.0095,-181.2508 11.5301,-18.2115 70.8567,260.8393 70.2846,283.8581 -0.9493,14.022 4.4111,31.9335 12.4235,39.7942 35.1427,206.7798 28.1867,950.1339 -100.9575,644.6728 -7,76 -102.7473,-53.4127 -91.7473,-48.4127 8,3 20,0 28,-5 9,-9 18,-4 34,18 12,17 66.9446,22.3518 82.9446,25.3518 22,4 34,16 51,50 16,33 31,48 58,59 29,11 39.508,24 51,51 8.0444,20 24.1333,38 35.6253,42 27.581,7 53.4719,-0.2353 18.9957,44.7647 -27.5809,35 -20.4188,38.9303 1.0552,55.5386 11.9874,11.1443 23.7649,26.4076 25.8268,35.2269 2.2909,9.7993 85.261,42.0925 92.476,42.8563 20.5255,15.3361 6.4199,133.3049 -118.5801,283.9524 -123.5599,277.6551 -78.7287,213.039 -153.7591,327.2631 -1.1765,90.5882 -78.7553,221.6804 -92.7553,244.6804 -40,69 -139.9434,198.9562 -175.9434,213.9562 -11.2308,20.3538 -91.6682,101.4832 -169.0473,198.8074 -53.3374,-4.7202 70.8784,-37.0753 1.7601,156.8641 3.7316,130.7554 -109.2997,222.4363 -72.2389,259.8225 -19.0912,-16.384 66.3242,7.6571 134.6576,107.0646 77.0871,32.4671 124.217,421.7687 80.4996,480.4715 -5.3238,7.1487 -1.6353,-67.0473 -50.5437,-136.5204 -47.1207,-66.9338 -20.3967,-256.7873 54.68,-329.8474 44.2353,-112.8824 212.2189,-70.3969 267.2189,-65.3969 l -39.8915,12.8535 -64.1452,0.4441 c -89.9467,-79.3128 58.6229,-387.7671 120.5016,-487.8858 23,-147 104.135,-241.887 209.135,-563.887 129,-399.2034 241.0865,-466.0557 255.0865,-617.7462 C 6332.2974,6102.091 6390.8348,6071.3311 6351,5978 c -109.9937,-143.8526 -23.2724,-233.0856 -28.5525,-347 -5,-65 -19,-125 -40,-185 -22,-63 -4.0416,-86.6759 2.9584,-93.6759 31,-31 96.0416,49.6759 117.0416,130.6759 6,23 16,59 21,81 13,49 -8.5651,87 19.4349,79 28,-7 12.1176,-29 -2.8824,-38 -11,-7 25,-79 58,-117 8,-10 10,-18 4,-18 -5,0 -27,23 -47,50 -37,50 15.4475,72 -3.5525,53 -21,-21 -46.4475,-129 18.5525,-180 33,-27 60,-53 60,-59 0,-12 -22,-35 -62,-65 -29,-21 -38,-59 -15,-59 7,0 34,7 59,16 61,20 118,90 118,145 0,28 5,39 19,44 35,11 136,128 149,173 12,39 11,46 -27,134 -34.3566,155.3367 -70.2576,229.7511 -84,333 17.6601,162.7447 -14.1626,728.5318 -70.0139,996.6898 -19.9931,205.0273 -83.9337,466.2788 -151.6759,638.3102 -8.5305,148.5724 22.2689,566.9504 -42.9759,489.1958 -9,36 3.2963,15.1005 0.2963,25.1005 -8,26 -13.948,7.6898 19.052,-23.3102 28,-27 29,-28 43,-9 19,26 19,25 -17,79 -38.2696,70.4232 -36.4287,284.3513 -66.2918,359.3057 -7.7726,19.5086 -12.3241,92.6066 -20.3241,115.6066 -8,23 -15,55.6759 -15,77.6759 0,36 -36.3449,146.3241 -103.3449,274.3241 -22,40 -114.6066,93.6033 -98.6066,103.6033 6,3 0,-15 0,0 1,37 -0.1152,171.4983 8.8848,162.4983 4,-4 7,-19 7,-33 0,-21 2,-23 10,-11 7,11 10,5 10,-25 0,-41 34.9584,-61.6759 49.9584,-60.6759 5,1 24.9792,-1.3518 28.9792,-18.3518 4,-16 10,-30 12,-30 2,0 -33.9376,35.0277 -36.9376,97.0277 -4,68 -2,122 4,137 10,23 11,23 13,-15 l 1,-40 12,50 c 8,34 15,45 21,36 7,-12 10,-11 21,3 7,10 17,15 23,11 8,-4 8,1 2,17 -19,52 -22,124 -7,168 9,25 16,61 16,80 1,41 27,108 30,75 1,-20 1,-20 9,0 7,16 9,13 16,-20 8,-35 10,-25 16,70 4,61 12,123 18,139 11,27 12,28 25,10 12,-16 14,-13 10,31 l -5,50 21,-38 c 12,-22 24,-37 27,-34 2,3 0,14 -6,25 -20,38 -5,245 23,314 47,115 84,572 54,671 -17,58 -102,146 -151,157 -50,11 -148,5 -157,-10 -5,-7 -15,-8 -32,-1 -27,10 -57,6 -96,-15 -35,-18 -54,-8 -45,25 4,14 8,73 7,131 0,118 -22,185 -69,210 -14,7 -25,17 -25,21 0,11 -104,58 -143,66 -23,5 -28,3 -22,-7 z m -781,-582 c -13,-24 -177,-238 -182,-238 -7,0 27,49 106,153 68,88 95,118 76,85 z m -251,-318 c -3,-10 -12,-25 -21,-32 -13,-11 -12,-8 2,20 19,36 27,41 19,12 z m 1186,-462 c -19,-51 -29,-72 -97,-204 -17,-34 -48,-76 -69,-93 -21,-18 -53,-46 -70,-64 -39,-37 -23.0346,-22 5.9654,46 11,25 26.0069,60.331 24.0069,63.331 -7,6 59.5167,42.663 56.6551,112.669 l 20,24 -2,-29 c -1,-16 -7,-40 -14,-52 -7,-13 -11,-25 -9,-28 2,-2 3.3726,40 29.3726,94 29.3719,54.573 50.0055,75.685 94,139 26,24 48,43 49,43 2,0 -6,-24 -18,-52 z m -111,-73 c -10,-23 11.9307,-10.042 11.9307,5.958 0,7 -8.9307,19.042 -3.9307,19.042 2,0 -2,-11 -8,-25 z m 32,-145 c -6,-11 -13,-20 -16,-20 -2,0 0,9 6,20 6,11 13,20 16,20 2,0 0,-9 -6,-20 z m -849,-47.9412 c 6,-7 -5.0317,-9.5098 -11.9412,-52.0588 -4.6063,-49.6405 -2.3031,-68.0784 9.2127,-49.6405 18.4253,26.9477 0,28.366 0,0 2.3032,-29.7843 -24.8642,15.5989 -130.8642,17.5989 C 4807.729,9886.5857 4880.9735,9838.0189 4926,9939 l 27.7647,68.059 86.7059,-28.4708 c 46.133,-27.7981 44.8468,-18.4336 50.5294,-26.5294 z M 5899,9916 c -29,-49 -34,-46 -9,5 12,23 24,39 26,36 3,-2 -5,-21 -17,-41 z m -33,-30 c 0,-13 -4,-22 -8,-19 -13,7 -9,-12 5,-26 10,-10 9,-12 -1,-9 -8,2 -21,-17 -33,-47 -22,-57 -24,-70 -6,-37 12,22 13,21 13,-13 0,-23 -3,-30 -9,-22 -5,7 -6,2 -3,-14 3,-15 -1,-46 -9,-70 -23,-64 -11,-57 18,11 15,33 29,60 31,60 3,0 -6,-32 -20,-72 -24,-72 -26,-99 -3,-56 6,12 15,25 19,28 4,3 14,19 23,35 20,38 21,22 2,-41 -20,-66 -18,-77 4,-29 l 19,40 1,-50 c 0,-27 -2,-59 -5,-71 -6,-21 10,7.2353 -61,35.2353 -40,15 -55.1004,53.4821 -64.1004,56.4821 -17.7399,6.1063 -17.9769,32.0998 -47.6471,43.7059 4.3518,5 3.8909,0.6896 5.5318,9.6182 2.4461,13.3102 0.6414,-0.041 -5.1609,40.9585 -7.2529,44 -4.6234,58 23.3766,105 35,57 96,135 106,135 4,0 6,-11 5,-24 z m -15,-93 c -12,-20 -14,-14 -5,12 4,9 9,14 11,11 3,-2 0,-13 -6,-23 z m 40,-50 c -12,-20 -14,-14 -5,12 4,9 9,14 11,11 3,-2 0,-13 -6,-23 z m 36,-165 c -2,-13 -4,-3 -4,22 0,25 2,35 4,23 2,-13 2,-33 0,-45 z m 6,-119 c -6,-6 -7,3 -4,23 4,28 6,29 9,9 2,-13 0,-27 -5,-32 z M 5768.9358,4289.6375 c 3.9249,-29.1014 -8.2344,-32.589 -15.4528,-4.3362 -3.1018,14.08 -1.8761,24.3155 4.213,23.7588 5.0743,-0.4636 10.4358,-9.0016 11.2398,-19.4226 z M 3872.2164,4138.0577 c 0,-5 -2.2253,-10 -4.4507,-10 -3.338,0 -8.9014,5 -12.2395,10 -3.338,6 -1.1126,10 4.4508,10 6.676,0 12.2394,-4 12.2394,-10 z m 55.634,-121 c 0,-6 -4.4507,-7 -11.1268,-4 -5.5634,3 -11.1268,11 -11.1268,16 0,6 5.5634,7 11.1268,4 6.6761,-3 11.1268,-11 11.1268,-16 z m 1976.0892,139.6291 c -0.5446,-5.6866 -3.1409,-11.3734 -5.1928,-11.3734 -3.0777,0 -7.6626,5.6868 -10.1956,11.3734 -2.4243,6.824 0.064,11.3735 5.1928,11.3735 6.1554,0 10.8492,-4.5495 10.1956,-11.3735 z M 3964.8504,3816.0577 c -3,-8 -6,-5 -6,6 -1,11 2,17 5,13 3,-3 4,-12 1,-19 z m 21,-183 c -3,-3 -9,2 -12,12 -6,14 -5,15 5,6 7,-7 10,-15 7,-18 z m 1077.8686,19.0995 c 11.2646,-11.4658 -12.2,24.5048 -16.1921,24.6621 -4.9901,0.1967 -17.745,9.7172 -29.0096,21.1831 -11.2644,11.4658 -17.0332,20.711 -12.0431,20.5143 4.9901,-0.1966 45.9803,-54.8937 57.2448,-66.3595 z"
       id="path4"
       sodipodi:nodetypes="ccccccsscccscccccccccssscscccscccscccsccsccccccscccccccccccccccccscccccccccccccscscccccccccscsccccccccsccccccccscsccccscscccscccscccscscsscccsscscsccsscccccccccccccssccccsscscsscccsccccccccscccccccccccsccccccccscsccccccsccccscccccscscscscccccccsccccccccccccsccccccccccccscccssccccccscssscssccscccscccccccsccccscscssscsccsccssccccsccccscccccccccccccccscccccccccssccccccccccscccccscscscscscccccccccccssscccsscsccscccccccccccccccccccccccccccccccscccscccccccccccccccccccsccsscssssscccccccccccccccsccssccccsccscccccccccsccscsccssccscsccsccsccscsscssscscssscssccccsccssssss" />
    <path
       d="M5847 10063 c-2 -5 -17 -30 -32 -58 -16 -27 -24 -45 -18 -40 14 14 66 105 60 105 -3 0 -8 -3 -10 -7z"
       id="path6" />
    <path
       d="M4769 10813 c-13 -16 -12 -17 4 -4 9 7 17 15 17 17 0 8 -8 3 -21 -13z"
       id="path8" />
    <path
       d="M4666 10402 c-49 -56 -49 -56 -7 -17 35 33 70 77 59 74 -2 0 -25 -26 -52 -57z"
       id="path10" />
  </g>
</svg>
