<?xml version="1.0" encoding="UTF-8" standalone="no"?>
<svg
   xmlns:dc="http://purl.org/dc/elements/1.1/"
   xmlns:cc="http://creativecommons.org/ns#"
   xmlns:rdf="http://www.w3.org/1999/02/22-rdf-syntax-ns#"
   xmlns:svg="http://www.w3.org/2000/svg"
   xmlns="http://www.w3.org/2000/svg"
   xmlns:sodipodi="http://sodipodi.sourceforge.net/DTD/sodipodi-0.dtd"
   xmlns:inkscape="http://www.inkscape.org/namespaces/inkscape"
   version="1.0"
   width="960.000000pt"
   height="1280.000000pt"
   viewBox="0 0 960.000000 1280.000000"
   preserveAspectRatio="xMidYMid meet"
   id="svg14"
   sodipodi:docname="60cleric.svg"
   inkscape:version="1.0.2 (e86c870879, 2021-01-15, custom)">
  <defs
     id="defs18" />
  <sodipodi:namedview
     pagecolor="#ffffff"
     bordercolor="#666666"
     borderopacity="1"
     objecttolerance="10"
     gridtolerance="10"
     guidetolerance="10"
     inkscape:pageopacity="0"
     inkscape:pageshadow="2"
     inkscape:window-width="1920"
     inkscape:window-height="1017"
     id="namedview16"
     showgrid="false"
     inkscape:zoom="0.49804687"
     inkscape:cx="-92.486211"
     inkscape:cy="946.85103"
     inkscape:window-x="-8"
     inkscape:window-y="-8"
     inkscape:window-maximized="1"
     inkscape:current-layer="svg14" />
  <metadata
     id="metadata2">
Created by potrace 1.15, written by Peter Selinger 2001-2017
<rdf:RDF>
  <cc:Work
     rdf:about="">
    <dc:format>image/svg+xml</dc:format>
    <dc:type
       rdf:resource="http://purl.org/dc/dcmitype/StillImage" />
    <dc:title></dc:title>
  </cc:Work>
</rdf:RDF>
</metadata>
  <g
     transform="translate(0.000000,1280.000000) scale(0.100000,-0.100000)"
     fill="#000000"
     stroke="none"
     id="g12">
    <path
       d="m 5865,11580 c 5,-9 4,-11 -3,-6 -19,11 -49,-11 -103,-77 -28,-34 -77,-88 -107,-121 -55,-57 -57,-59 -146,-77 -53,-11 -120,-33 -161,-54 -57,-28 -77,-34 -107,-29 -24,4 -38,3 -38,-4 0,-11 -38,-28 -53,-24 -5,1 -88,-77 -185,-175 -97,-97 -157,-159 -132,-137 116,104 185,169 183,175 -1,3 17,24 40,45 40,37 40,37 9,3 -18,-19 -30,-38 -27,-41 3,-2 -41,-48 -98,-100 -102,-95 -123,-121 -188,-231 -53,-90 -96,-138 -230,-250 -68,-58 -137,-118 -152,-135 -43,-45 -15,-49 35,-5 110,95 111,93 11,-29 -35,-43 -63,-81 -63,-86 0,-5 -7,-15 -15,-22 -8,-7 -15,-18 -15,-24 0,-6 7,-3 14,7 7,9 18,17 23,17 6,0 33,15 59,33 52,35 95,44 87,17 -8,-23 45,40 66,80 11,19 31,46 46,60 15,14 45,50 66,80 40,57 108,137 94,110 -5,-8 -21,-31 -37,-51 -15,-20 -28,-39 -28,-42 0,-8 28,-2 37,8 4,4 2,5 -4,1 -24,-14 -13,10 18,40 17,16 47,56 66,89 19,33 50,76 67,95 18,20 65,83 106,140 41,58 75,107 77,109 2,2 6,1 10,-2 4,-4 -12,-44 -35,-90 -23,-45 -42,-98 -44,-117 -1,-19 -6,-41 -12,-49 -6,-7 -11,-20 -12,-29 -2,-8 -28.2941,-41.118 -44.2941,-74.118 -42.9744,-81 -89.0044,-184.426 -78.0749,-310.426 C 4866.9024,10236.684 4885,10190 4878,10177 c -6,-12 -13,-39 -14,-61 -1,-24 -10,-46 -24,-60 l -22,-21 21,35 c 23,38 29,67 8,35 -7,-11 -30,-51 -50,-90 l -37,-70 35,40 35,40 -11,-35 c -6,-19 -17,-47 -24,-61 -8,-14 -19,-39 -25,-55 l -64.2409,16.2548 L 4788,9873 c 26,25 30,26 36,11 3,-9 1,-23 -5,-30 -13,-16 2,-19 18,-3 7,7 6.4118,11.7059 10.4118,5.7059 22.2897,-4.7944 -3.8587,21.3746 -59.4118,16.2941 -1,1 -131.9951,4.7553 -163.9951,-16.2447 -31,-20 -148.6827,-25.0104 -172.6827,-38.0104 -28,-16 -33.5294,-20.5883 -38.0588,-32.5294 2,-9 -53.1949,-11.0647 -71.1949,-37.0647 -22,-30 -104.2642,-80.2514 -110.2642,-114.2514 -45.4347,-60 -68.0749,-101.7578 -104.5732,-163.7578 -35.0946,-61.5268 -305.3488,-21.8157 -439.9836,-97.2712 -312.9805,-81.0712 -606.9199,-605.0825 -372.6436,-815.329 129.4559,-228.4035 569.4729,-74.8652 654.1551,-83.7408 6.5104,-31.7448 -0.7379,6.6311 0,0 -25.52,18.5706 -274.3354,148.7565 -268.0169,-10.9509 -165.2881,206.4828 -854.4362,-657.0837 -376.721,-631.6246 95.9824,5.1152 203.9459,182.9555 238.4288,218.1799 17,16 -88.6852,-102.4638 -79.6852,-73.4638 18,58 95.5294,71.7647 103.5294,19.7647 10,-69 311.2355,229.7923 146.2355,111.7923 -55,-40 14.7276,62.1788 -58.2724,3.1788 -25.4212,183.4847 -725.9413,-353.5686 -792.1393,-409.2488 -42.9685,-18.4788 -58.699,18.3096 -171.7444,100.8595 -50.4231,36.9625 -104.0994,71.461 -119.5516,76.3893 -30.0912,8.6247 -91.6412,14.1082 -126.6121,51.0708 -26.838,28.338 -276.911,55.8446 -285.0437,34.8992 -8.1327,-19.7134 71.3714,-50.8193 105.529,-58.2118 17.8921,-4.9283 64.7869,-21.1508 63.1604,-23.615 -1.6266,-2.4641 -34.5806,-2.9091 -67.9246,-13.998 -94.3401,-28.338 -149.3838,-54.272 -149.084,-71.5187 0.7249,-41.6975 186.6917,-6.9444 225.7853,9.1348 13.8258,4.9284 32.9756,6.3583 35.4153,-1.0343 5.693,-12.3208 -9.7592,-24.6417 -103.286,-78.8535 -78.8878,-45.5872 -82.9541,-50.5156 -65.8753,-76.3894 26.4552,-15.8834 139.0621,16.7326 209.6785,35.9733 43.1037,19.7134 -102.3261,-16.26 -96.6332,-18.7241 48.5068,2.0439 133.8051,26.4365 109.7923,-9.8567 -10.5726,-12.3209 2.6303,27.1058 -22.5813,3.6962 -26.0248,-23.4097 -73.5229,-79.4011 -73.5229,-88.0257 0,-34.4984 -4.0928,-54.0407 56.0896,-10.9176 109.2025,56.3914 84.7448,37.3391 77.4253,17.6256 4.1629,-52.9797 115.7734,-120.7445 110.6056,-121.9765 38.224,0 139.8835,-35.7306 200.8792,-70.229 30.0913,-17.2493 27.2712,-16.169 66.2612,-3.4648 66.8399,20.7887 349.5324,-79.3817 448.5324,-17.3817 197.1826,63.7817 111.5462,55.7096 254.6632,115.3979 C 3724.782,7573.8662 3861,7635 3953,7687 c 44,25 -427.6387,109.635 -431.7647,108.647 -28.5784,-6.8433 -141.3444,13.5409 -103.3182,-7.8223 -18,-9 -3.0467,-63.1446 -19.5283,-145.3229 -12.9802,-64.7196 23.6339,-29.1704 -10.2467,-111.6992 -342.8386,189.2828 -498.1458,-309.746 -374.4525,-493.6722 -121.3241,-172.8837 -50.1148,-530.8066 -144.6442,-690.6302 -23.4751,-136.0899 365.2707,-267.0573 387.2707,-291.0573 13,-14 32,-25 42,-25 10,0 -112.6423,-25 -76.0747,-56 60.9459,-50 67.0405,56.7059 67.0405,17.7059 0,-49 -90.0312,-66.6482 -54.6825,-55.6482 17.0648,5 36.5676,0 63.3838,-17 72.4016,-4.8376 83.8262,37.3645 53.25,31.1245 -6.1967,85.3801 -75.2108,50.1769 -35.6944,-126.9723 8.2935,-37.1795 1.3617,-168.0611 4.6375,-185.0611 2.1838,-17 -25.7105,-81.5029 18.8517,-227.5617 48.0457,-126 61.6493,-171.6759 59.2194,-183.6759 -1.215,-5 2.4299,-8 7.2899,-8 4.8599,0 10.9349,-12 12.1499,-27 1.215,-16 7.2899,-39 13.3648,-53 15.7948,-34 27.417,-104.2964 24.7045,-114.2964 -1.3563,-4 2.7125,-7 9.4938,-7 5.4252,0 9.4939,-11 8.1376,-25 -2.7124,-14 1.3563,-25 8.1377,-25 6.7813,0 10.8501,-3 10.8501,-7 -1.3563,-5 0,-10 1.3562,-13 1.3563,-3 4.0688,-14 6.7814,-25 2.7126,-11 8.1376,-29 12.2064,-40 2.7126,-11 6.7813,-24 6.7813,-28 1.3563,-5 8.1376,-5 16.2753,-1 10.8501,4 12.2063,0 5.425,-15 -5.425,-12 -2.7126,-21 5.4251,-21 8.1376,0 10.85,-7 6.7813,-15 -5.4251,-8 -1.3563,-15 8.1376,-15 9.4938,0 13.5627,-7 8.1375,-15 -4.0687,-8 1.3563,-20 10.8502,-27 9.4938,-7 14.919,-18 12.2064,-25 -2.7126,-6 1.3563,-14 8.1377,-18 8.1375,-3 14.9188,-17 14.9188,-31 0,-13 5.4252,-24 12.2065,-24 8.1375,0 13.5626,-8 13.5626,-17 1.3563,-32 17.6315,-88 29.8379,-99 6.7813,-6 9.4938,-19 4.0688,-27 -4.0688,-9 -2.7125,-22 2.7125,-29 6.7814,-7 12.2064,-17 13.5627,-23 5.4251,-38 8.1376,-40 18.9877,-20 8.1377,14 9.4938,7 4.0688,-21 -4.0688,-26 -1.3562,-44 8.1376,-48 8.1376,-4 12.2064,-12 6.7814,-17 -4.0688,-5 0,-17 10.85,-26 10.8503,-11 10.8503,-14 1.3563,-10 -12.2063,6 -13.5626,-3 -8.1376,-30 4.0689,-21 13.5627,-39 20.344,-41 5.4252,-2 10.8502,-14 10.8502,-27 0,-13 8.1375,-28 18.9878,-32 10.8501,-4 18.9877,-15 18.9877,-23 -2.7126,-36 4.0687,-50 27.1253,-51 13.5627,0 16.2752,-3 5.4251,-6 -12.2064,-4 -10.8501,-12 5.425,-36 42.0443,-60 47.4866,-67 47.4866,-87 0,-12 4.8757,-19 10.9703,-16 6.0946,3 14.627,-1 18.2837,-10 3.6568,-8 2.4379,-12 -4.8756,-9 -7.3135,3 -8.5325,-1 -4.8757,-9 3.6568,-9 12.1892,-16 18.2838,-16 6.0946,0 10.9703,-5 10.9703,-11 0,-5 -4.8757,-8 -12.1892,-4 -6.0946,3 -8.5325,-15 -3.6568,-47 3.6568,-29 12.1892,-55 18.2838,-56 4.8757,-2 9.7514,-8 9.7514,-13 0,-6 -4.8757,-8 -10.9703,-5 -4.8757,3 -9.7514,-8 -8.5325,-24 1.219,-36 4.8757,-37 19.5028,-8 9.7513,21 10.9702,20 7.3135,-7 -1.2189,-17 -6.0946,-36 -10.9703,-41 -8.5324,-12 -1.2189,-69 9.7514,-84 4.8756,-6 9.7513,-32 13.4081,-58 2.4378,-26 77.3063,-52.7647 83.4009,-53.7647 7.3135,-2 -52.7073,-18.3241 -52.7073,-30.3241 0,-18 -2.4378,-20 -13.4081,-7 -10.9703,12 -10.9703,11 -4.8757,-5 4.8757,-11 23.7501,-36 27.7501,-56 3,-19 191.3978,-37.692 195.3978,-43.692 3,-6 -185.3978,63.692 -195.3978,43.692 -12.4984,-34 -6.7009,-134.9934 4.3784,-206.6782 15.8336,-41.5564 36.8963,-174.1714 89.1469,-283.2569 52.2506,-108.0467 121.4828,-244.0663 142.0664,-296.0118 136.1683,-340.7625 373.1359,-687.3461 352.1359,-917.3461 C 4553.759,1237.6759 4594,1136 4575,1084 c -10,-27 -54,-81 -131,-160 -183,-188 -169,-162 -167,-332 2,-170 6,-179 106,-208 102,-29 213,-24 328,14 81,28 105,41 152,85 63,59 58,37 76,318 13,188 34,267 90,330 l 38,43 6,-69 c 3,-39 2,-117 -4,-175 -5,-58 -9,-127 -9,-155 0,-48 3,-52 60,-107 33,-32 70,-58 81,-58 36,0 133,40 158,65 38,37 31,102 -24,218 -89,187 -95,297 -24,444 29,63 39,93 34,112 -3,14 -10,47 -15,73 -13,69 -15.1765,102 -97.1765,182 -49,48 -42.0554,80 -42.0554,95 0,13 -14,53 -32,89 -30,63 -31,69 -20,122 9,44 9,64 -2,101 -8,25 -6.6759,45.3518 -4.6759,59.3518 45.2214,119.8047 114.65,396.6861 30.4878,1019.5744 -17.4937,129.4719 -34.6457,244.445 -40.5533,259.6835 -5.9014,16.2384 -25.6644,98.2014 -24.5106,123.1553 2.3383,54.9067 -52.7101,139.2447 -62.5561,164.6423 -5.8892,18.2379 -39.579,-11.0152 -1.7028,-32.5434 21.9319,-11.8849 -14.0514,-16.3715 -12.0761,-20.4513 3.9323,-11.1588 13.904,-17.1228 24.8823,-17.5555 4.9901,-0.1966 -16.7738,17.6949 0,0 16.0219,-16.6631 58.4898,-70.4257 63.2204,-67.6062 4.7305,2.8195 10.4631,-36.3718 14.9878,-46.57 9.0357,-16.3879 16.0946,-22.5055 0.5784,-7.8662 -15.5162,14.6394 -5.1633,15.11 3.8725,-1.2779 4.5245,-10.1982 -3.8783,-12.9222 3.1079,-13.1975 5.9881,-0.2361 7.9331,-59.0954 29.2449,-90.9968 22.0635,-32.9331 12.3138,-46.7453 7.7892,-36.5471 -7.0396,16.3092 -6.5473,18.2938 1.9559,11.9467 6.0015,-4.2445 12.2894,-19.5221 14.8313,-33.65 1.5439,-14.0887 8.803,-21.3886 16.7737,-17.6949 6.9728,3.7331 8.7226,2.6621 4.2517,-3.1735 -4.2248,-4.8434 -1.1906,-16.9868 7.5721,-26.3501 10.0205,-12.4187 32.4597,-4.2782 25.8135,-31.0699 -17.231,-69.4597 134.4864,-251.9882 319.4864,-434.9882 145.3241,-176.2687 232.3714,-147.6724 299.3714,-245.6724 138,-200 276.1971,-252.1431 314.1971,-332.1431 19,-41 92.8824,-115 122.8824,-165 37,-63 73,-149 120,-285 l 68,-194 -17,-82 c -18,-87 -21,-193 -8,-259 10,-50 128,-212 174,-238 98,-56 326,63 385,201 31,72 73,222 73,262 1,20 -18,78 -44,137 -69,155 -69,143 2,143 72,0 82,12 84,100 1,51 -3,64 -33,109 -19,28 -49,58 -67,66 -50,24 -131,92 -148,125 -9,16 -20,64 -25,105 -12,97 -11.7036,104.0554 -92.7036,182.0554 l -99.5905,68.5917 L 6617,2586 c -55,-5 2.0189,14.9074 -26.7729,38.2964 -17.5254,14.4789 -38.8062,43.4367 -47.5689,63.4845 -7.5109,21.1615 -27.54,51.2331 -45.0654,66.8257 -27.5399,25.6166 -6.0554,49.0416 -33.0554,173.0416 -5,23 -17.7947,90.0311 -31.7947,111.0311 -14,21 -35.0035,135.1614 -67.0035,234.1614 -55,165 -63.1451,216.9753 -111.2605,361.135 -11.5258,33.6011 -6.4595,54.5471 -33.9004,76.2253 -23.0416,16.2586 -3.0962,78.2646 -2.2601,86.9359 0.7315,7.5874 -4.2341,17.3425 -11.7955,20.5942 -7.5615,3.2518 -15.6285,21.6782 -17.7893,40.1046 -2.0562,19.5104 -6.1421,28.1816 -8.8424,20.5943 -3.5802,-6.5035 -9.9044,-10.8391 -13.5284,-7.5874 -4.6083,3.2517 -4.5476,14.0908 -0.7584,22.7621 4.9826,10.8391 -0.192,18.4264 -13.5552,22.7621 -10.5145,3.2517 -17.7624,9.7551 -14.3913,14.0908 6.9514,10.839 -8.2386,101.189 -19.1512,94.3649 -5.4563,-3.412 -25.0851,27.2962 -25.0851,27.2962 -7.4905,18.1975 -5.0771,42.0659 -13.2843,42.0659 -8.2071,0 -13.818,5.6866 -13.0555,13.6481 0.6536,6.8241 -2.2064,9.0987 -5.6108,5.6866 -4.5393,-4.5493 -14.2537,1.1375 -22.3976,12.5108 -22.7067,30.7082 -25.8635,37.9483 -49.4591,37.9483 -11.2849,0 -19.8644,6.824 -19.102,14.7854 1.5248,15.9228 -28.0996,38.6696 -57.3062,44.3564 70.4767,-30.4397 -7.5008,244.9079 -27.4296,259.5735 -7.8196,10.5956 95.2521,261.4657 70.4818,262.4575 -24.7702,0.9919 63.0222,247.4759 58.8415,254.4982 -3.5102,9.2806 -82.7594,-296.7646 -59.6657,-303.4019 30.1637,-9.2053 -27.0739,7.2754 -40.6219,24.9553 -7.8194,10.5956 -10.4061,-300.6575 -22.7911,-300.1616 -12.385,0.496 42.268,29.9241 49.2593,37.6416 5.1081,6.6504 -3.9447,235.8402 -12.6226,270.8549 -9.8391,36.2342 -48.0576,-353.5131 -33.4867,-339.228 11.204,14.3179 28.157,138.5029 11.045,135.0628 -20.5709,-4.6088 29.3696,-164.1076 28.0885,-144.749 1.1724,20.4646 47.2741,627.8824 63.4674,619.3092 12.8264,-8.5405 -65.4581,-644.4397 -63.4673,-619.3092 -1.3901,26.3596 14.6942,71.3588 6.9758,78.0593 -7.7184,6.7005 -3.2101,22.9177 11.1088,35.6514 0.6235,37.661 64.8109,376.1833 62.9504,366.5743 -88.8581,142.5487 -104.7439,-121.6772 -59.0814,-115.7573 20.3201,7.221 27.3263,84.9119 17.904,94.9776 -12.9367,8.9877 -130.4678,-334.7712 -110.4159,-330.719 20.0516,4.0522 113.1041,6.7882 87.7412,17.5814 -31.7483,12.9633 -80.0464,-150.0028 -42.3635,-141.9538 37.6827,8.049 50.9812,199.5381 19.3223,213.5577 -28.5554,11.8782 -3.0356,-139.5567 12.8341,-139.9123 11.902,-0.267 -0.6925,-22.9765 -1e-4,0 0.6389,21.2095 65.8535,460.4356 69.8523,468.857 3.9982,8.4214 -66.8657,155.5673 -78.7415,170.4703 -17.9925,20.2419 14.1411,-38.5113 39.4145,-50.3607 25.2735,-11.8495 -12.1511,-7.5298 -15.4032,31.6097 -0.7757,29.6043 65.7104,-293.4609 46.3748,-289.0629 -19.2458,5.4541 -95.6414,-374.8258 -64.8546,-375.0979 23.9449,-0.2117 -0.2238,304.8465 -9.2649,314.4394 -12.4128,8.5654 7.0519,-238.2283 23.7315,-235.2035 20.0517,4.0522 -35.4907,84.2782 -34.685,93.7846 1.0741,12.6752 5.8801,-68.424 -11.2474,-76.7301 -17.1274,-8.3061 52.656,98.4231 51.3809,123.9452 2.426,28.8168 -2.116,219.7555 16.3243,204.7949 18.2612,-17.0731 25.2734,-11.8494 41.1776,20.7797 11.8162,23.1515 7.7584,52.7846 -4.2069,66.6313 -21.4539,18.1582 -81.7286,213.2509 -55.9183,207.739 25.8105,-5.5117 64.0644,-227.8945 55.9185,-207.739 -8.5933,14.8742 -28.1585,86.3093 -11.4787,89.3341 16.7694,4.081 29.2035,15.8724 17.328,30.7755 -8.5936,14.8742 -131.4118,58.0532 21.3025,39.1391 30.5247,11.3597 -10.2181,-20.1362 -35.7599,-11.4556 -22.3494,7.5955 -0.252,-38.4476 4.1044,-25.8011 1.7902,21.1254 -63.4992,-187.9895 -32.467,-209.403 24.6466,-19.2433 1.2229,-24.323 0,0 -2.0292,14.8165 46.7274,333.6845 63.8546,341.9906 119.6438,374.3272 -57.3286,1144.7682 -242.0826,644.6728 -7,76 -102.7473,-53.4127 -91.7473,-48.4127 8,3 20,0 28,-5 9,-9 18,-4 34,18 12,17 66.9446,22.3518 82.9446,25.3518 22,4 34,16 51,50 16,33 31,48 58,59 29,11 39.508,24 51,51 8.0444,20 24.1333,38 35.6253,42 27.581,7 53.4719,-0.2353 18.9957,44.7647 -27.5809,35 -20.4188,38.9303 1.0552,55.5386 11.9874,11.1443 23.7649,26.4076 25.8268,35.2269 2.2909,9.7993 85.261,42.0925 92.476,42.8563 20.5255,15.3361 6.4199,133.3049 -118.5801,283.9524 -123.5599,277.6551 -78.7287,213.039 -153.7591,327.2631 -1.1765,90.5882 -78.7553,221.6804 -92.7553,244.6804 -40,69 -106.061,198.9562 -142.061,213.9562 -11.2308,20.3538 -65.0477,101.4832 -142.4268,198.8074 -53.3374,-4.7202 110.8091,-37.0753 41.6908,156.8641 3.7316,130.7554 -104.8891,240.8815 -67.8283,278.2677 -54.7398,-88.9095 117.0914,-99.3703 104.3508,136.5363 77.0871,32.4671 68.3139,437.741 24.5965,496.4438 -5.3238,7.1487 51.6057,-101.654 2.6973,-171.1271 -47.1207,-66.9338 -60.3274,-235.2692 -41.7213,-440.094 23.8845,-78.9645 236.6675,10.6962 291.7449,15.5672 l -39.8915,12.8535 -88.1036,24.4025 c -342.5655,135.0186 123.7231,-647.5649 159.2513,-491.918 -65.5136,-58.4864 30.8899,-333.2975 119.0497,-621.4602 154.3988,-472.9017 284.1235,-533.9134 311.557,-591.3933 -37.7678,-180.1149 -6.9932,-227.5325 0.078,-292.7198 -109.9937,-143.8526 -23.2724,-233.0856 -28.5525,-347 -5,-65 -19,-125 -40,-185 -22,-63 -4.0416,-86.6759 2.9584,-93.6759 31,-31 96.0416,49.6759 117.0416,130.6759 6,23 16,59 21,81 13,49 -8.5651,87 19.4349,79 28,-7 12.1176,-29 -2.8824,-38 -11,-7 25,-79 58,-117 8,-10 10,-18 4,-18 -5,0 -27,23 -47,50 -37,50 15.4475,72 -3.5525,53 -21,-21 -46.4475,-129 18.5525,-180 33,-27 60,-53 60,-59 0,-12 -22,-35 -62,-65 -29,-21 -38,-59 -15,-59 7,0 34,7 59,16 61,20 118,90 118,145 0,28 5,39 19,44 35,11 136,128 149,173 12,39 11,46 -27,134 -34.3566,155.3367 -70.2576,229.7511 -84,333 17.6601,162.7447 -10.3979,732.2965 -66.2492,1000.4545 -19.9931,205.0273 -61.3455,466.2788 -129.0877,638.3102 24.5748,47.663 61.8311,532.6901 -24.1523,500.4899 -9,36 3.2963,15.1005 0.2963,25.1005 -8,26 -13.948,7.6898 19.052,-23.3102 28,-27 29,-28 43,-9 19,26 19,25 -17,79 -38.2696,70.4232 -36.4287,284.3513 -66.2918,359.3057 -7.7726,19.5086 -12.3241,92.6066 -20.3241,115.6066 -8,23 -15,55.6759 -15,77.6759 0,36 -58.9332,131.2653 -125.9332,259.2653 -22,40 -137.1948,93.6033 -121.1948,103.6033 6,3 0,-15 0,0 1,37 -0.1152,171.4983 8.8848,162.4983 4,-4 7,-19 7,-33 0,-21 2,-23 10,-11 7,11 10,5 10,-25 0,-41 34.9584,-61.6759 49.9584,-60.6759 5,1 24.9792,-1.3518 28.9792,-18.3518 4,-16 10,-30 12,-30 2,0 -33.9376,35.0277 -36.9376,97.0277 -4,68 -2,122 4,137 10,23 11,23 13,-15 l 1,-40 12,50 c 8,34 15,45 21,36 7,-12 10,-11 21,3 7,10 17,15 23,11 8,-4 8,1 2,17 -19,52 -22,124 -7,168 9,25 16,61 16,80 1,41 27,108 30,75 1,-20 1,-20 9,0 7,16 9,13 16,-20 8,-35 10,-25 16,70 4,61 12,123 18,139 11,27 12,28 25,10 12,-16 14,-13 10,31 l -5,50 21,-38 c 12,-22 24,-37 27,-34 2,3 0,14 -6,25 -20,38 -5,245 23,314 47,115 84,572 54,671 -17,58 -102,146 -151,157 -50,11 -148,5 -157,-10 -5,-7 -15,-8 -32,-1 -27,10 -57,6 -96,-15 -35,-18 -54,-8 -45,25 4,14 8,73 7,131 0,118 -22,185 -69,210 -14,7 -25,17 -25,21 0,11 -104,58 -143,66 -23,5 -28,3 -22,-7 z m -781,-582 c -13,-24 -177,-238 -182,-238 -7,0 27,49 106,153 68,88 95,118 76,85 z m -251,-318 c -3,-10 -12,-25 -21,-32 -13,-11 -12,-8 2,20 19,36 27,41 19,12 z m 1186,-462 c -19,-51 -29,-72 -97,-204 -17,-34 -48,-76 -69,-93 -21,-18 -53,-46 -70,-64 -39,-37 -23.0346,-22 5.9654,46 11,25 26.0069,60.331 24.0069,63.331 -7,6 59.5167,42.663 56.6551,112.669 l 20,24 -2,-29 c -1,-16 -7,-40 -14,-52 -7,-13 -11,-25 -9,-28 2,-2 3.3726,40 29.3726,94 29.3719,54.573 50.0055,75.685 94,139 26,24 48,43 49,43 2,0 -6,-24 -18,-52 z m -111,-73 c -10,-23 11.9307,-10.042 11.9307,5.958 0,7 -8.9307,19.042 -3.9307,19.042 2,0 -2,-11 -8,-25 z m 32,-145 c -6,-11 -13,-20 -16,-20 -2,0 0,9 6,20 6,11 13,20 16,20 2,0 0,-9 -6,-20 z m -849,-47.9412 c 6,-7 -5.0317,-9.5098 -11.9412,-52.0588 -4.6063,-49.6405 -2.3031,-68.0784 9.2127,-49.6405 18.4253,26.9477 0,28.366 0,0 2.3032,-29.7843 -24.8642,15.5989 -130.8642,17.5989 C 4807.729,9886.5857 4880.9735,9838.0189 4926,9939 l 27.7647,68.059 86.7059,-28.4708 c 46.133,-27.7981 44.8468,-18.4336 50.5294,-26.5294 z M 5899,9916 c -29,-49 -34,-46 -9,5 12,23 24,39 26,36 3,-2 -5,-21 -17,-41 z m -33,-30 c 0,-13 -4,-22 -8,-19 -13,7 -9,-12 5,-26 10,-10 9,-12 -1,-9 -8,2 -21,-17 -33,-47 -22,-57 -24,-70 -6,-37 12,22 13,21 13,-13 0,-23 -3,-30 -9,-22 -5,7 -6,2 -3,-14 3,-15 -1,-46 -9,-70 -23,-64 -11,-57 18,11 15,33 29,60 31,60 3,0 -6,-32 -20,-72 -24,-72 -26,-99 -3,-56 6,12 15,25 19,28 4,3 14,19 23,35 20,38 21,22 2,-41 -20,-66 -18,-77 4,-29 l 19,40 1,-50 c 0,-27 -2,-59 -5,-71 -6,-21 10,7.2353 -61,35.2353 -40,15 -55.1004,53.4821 -64.1004,56.4821 -17.7399,6.1063 -17.9769,32.0998 -47.6471,43.7059 4.3518,5 3.8909,0.6896 5.5318,9.6182 2.4461,13.3102 0.6414,-0.041 -5.1609,40.9585 -7.2529,44 -4.6234,58 23.3766,105 35,57 96,135 106,135 4,0 6,-11 5,-24 z m -15,-93 c -12,-20 -14,-14 -5,12 4,9 9,14 11,11 3,-2 0,-13 -6,-23 z m 40,-50 c -12,-20 -14,-14 -5,12 4,9 9,14 11,11 3,-2 0,-13 -6,-23 z m 36,-165 c -2,-13 -4,-3 -4,22 0,25 2,35 4,23 2,-13 2,-33 0,-45 z m 6,-119 c -6,-6 -7,3 -4,23 4,28 6,29 9,9 2,-13 0,-27 -5,-32 z m -21.4775,-5063.0095 c 5.9498,-29.1014 -7.7766,-31.6478 -18.7189,-3.395 -4.702,14.08 17.8619,-41.5669 27.0924,-42.1236 7.6921,-0.4636 -9.5923,55.9396 -8.3735,45.5186 z M 3832.7986,4138.0577 c 0,-5 -2.7125,-10 -5.4251,-10 -4.0687,0 -10.85,5 -14.9189,10 -4.0688,6 -1.3562,10 5.4251,10 8.1376,0 14.9189,-4 14.9189,-10 z m 67.8134,-121 c 0,-6 -5.4251,-7 -13.5627,-4 -6.7813,3 -13.5627,11 -13.5627,16 0,6 6.7814,7 13.5627,4 8.1376,-3 13.5627,-11 13.5627,-16 z m 2040.9747,181.0409 c -0.5446,-5.6866 -3.1409,-11.3734 -5.1928,-11.3734 -3.0777,0 -7.6626,5.6868 -10.1956,11.3734 -2.4243,6.824 0.064,11.3735 5.1928,11.3735 6.1554,0 10.8492,-4.5495 10.1956,-11.3735 z M 3945.712,3816.0577 c -3.6568,-8 -7.3135,-5 -7.3135,6 -1.2189,11 2.4378,17 6.0946,13 3.6567,-3 4.8757,-12 1.2189,-19 z m 25.5973,-183 c -3.6567,-3 -10.9703,2 -14.627,12 -7.3135,14 -6.0946,15 6.0946,6 8.5324,-7 12.1892,-15 8.5324,-18 z m 1092.4097,19.0995 c 11.2646,-11.4658 -12.2,24.5048 -16.1921,24.6621 -4.9901,0.1967 -17.745,9.7172 -29.0096,21.1831 -11.2644,11.4658 -17.0332,20.711 -12.0431,20.5143 4.9901,-0.1966 45.9803,-54.8937 57.2448,-66.3595 z"
       id="path4"
       sodipodi:nodetypes="ccccccsscccscccccccccssscscccscccscccsccsccccccscccccccccccccccccscccccccccccccscscccccccccscsccccccccsccccccccscsccccscscccscccscccscscsscccsscscsccsscccccccccccccssccccsscscsscccsccccccccscccccccccccsccccccccscsccccccsccccscccccscscscscccccccsccccccccccccsccccccccccccscccssccccccscssscssccscccscccccccsccccscscssscsccsccssccccsccccscccccccccccccccscccccccccssccccccccccscccccscscscscscccccccccccssscccsscsccscccccccccccccccccccccccccccccccscccccccccccccccccccccccsccsscscsssccccccccccccccssccssccccsccscccccccccsccscsscssccscsccsccscsscsscssssscssccsscsccsscsssssss" />
    <path
       d="M5847 10063 c-2 -5 -17 -30 -32 -58 -16 -27 -24 -45 -18 -40 14 14 66 105 60 105 -3 0 -8 -3 -10 -7z"
       id="path6" />
    <path
       d="M4769 10813 c-13 -16 -12 -17 4 -4 9 7 17 15 17 17 0 8 -8 3 -21 -13z"
       id="path8" />
    <path
       d="M4666 10402 c-49 -56 -49 -56 -7 -17 35 33 70 77 59 74 -2 0 -25 -26 -52 -57z"
       id="path10" />
  </g>
</svg>
