<?xml version="1.0" encoding="UTF-8" standalone="no"?>
<svg
   xmlns:dc="http://purl.org/dc/elements/1.1/"
   xmlns:cc="http://creativecommons.org/ns#"
   xmlns:rdf="http://www.w3.org/1999/02/22-rdf-syntax-ns#"
   xmlns:svg="http://www.w3.org/2000/svg"
   xmlns="http://www.w3.org/2000/svg"
   xmlns:sodipodi="http://sodipodi.sourceforge.net/DTD/sodipodi-0.dtd"
   xmlns:inkscape="http://www.inkscape.org/namespaces/inkscape"
   version="1.0"
   width="960.000000pt"
   height="1280.000000pt"
   viewBox="0 0 960.000000 1280.000000"
   preserveAspectRatio="xMidYMid meet"
   id="svg14"
   sodipodi:docname="80cleric.svg"
   inkscape:version="1.0.2 (e86c870879, 2021-01-15, custom)">
  <defs
     id="defs18" />
  <sodipodi:namedview
     pagecolor="#ffffff"
     bordercolor="#666666"
     borderopacity="1"
     objecttolerance="10"
     gridtolerance="10"
     guidetolerance="10"
     inkscape:pageopacity="0"
     inkscape:pageshadow="2"
     inkscape:window-width="1920"
     inkscape:window-height="1017"
     id="namedview16"
     showgrid="false"
     inkscape:zoom="0.49804687"
     inkscape:cx="202.52591"
     inkscape:cy="873.83885"
     inkscape:window-x="-8"
     inkscape:window-y="-8"
     inkscape:window-maximized="1"
     inkscape:current-layer="svg14"
     inkscape:document-rotation="0" />
  <metadata
     id="metadata2">
Created by potrace 1.15, written by Peter Selinger 2001-2017
<rdf:RDF>
  <cc:Work
     rdf:about="">
    <dc:format>image/svg+xml</dc:format>
    <dc:type
       rdf:resource="http://purl.org/dc/dcmitype/StillImage" />
    <dc:title></dc:title>
  </cc:Work>
</rdf:RDF>
</metadata>
  <g
     transform="translate(0.000000,1280.000000) scale(0.100000,-0.100000)"
     fill="#000000"
     stroke="none"
     id="g12">
    <path
       d="m 5865,11580 c 5,-9 4,-11 -3,-6 -19,11 -49,-11 -103,-77 -28,-34 -77,-88 -107,-121 -55,-57 -57,-59 -146,-77 -53,-11 -120,-33 -161,-54 -57,-28 -77,-34 -107,-29 -24,4 -38,3 -38,-4 0,-11 -38,-28 -53,-24 -5,1 -88,-77 -185,-175 -97,-97 -157,-159 -132,-137 116,104 185,169 183,175 -1,3 17,24 40,45 40,37 40,37 9,3 -18,-19 -30,-38 -27,-41 3,-2 -41,-48 -98,-100 -102,-95 -123,-121 -188,-231 -53,-90 -96,-138 -230,-250 -68,-58 -137,-118 -152,-135 -43,-45 -15,-49 35,-5 110,95 111,93 11,-29 -35,-43 -63,-81 -63,-86 0,-5 -7,-15 -15,-22 -8,-7 -15,-18 -15,-24 0,-6 7,-3 14,7 7,9 18,17 23,17 6,0 33,15 59,33 52,35 95,44 87,17 -8,-23 45,40 66,80 11,19 31,46 46,60 15,14 45,50 66,80 40,57 108,137 94,110 -5,-8 -21,-31 -37,-51 -15,-20 -28,-39 -28,-42 0,-8 28,-2 37,8 4,4 2,5 -4,1 -24,-14 -13,10 18,40 17,16 47,56 66,89 19,33 50,76 67,95 18,20 65,83 106,140 41,58 75,107 77,109 2,2 6,1 10,-2 4,-4 -12,-44 -35,-90 -23,-45 -42,-98 -44,-117 -1,-19 -6,-41 -12,-49 -6,-7 -11,-20 -12,-29 -2,-8 -75.4867,-45.016 -91.4867,-78.016 -71.5199,-113.109 -70.6506,-241.562 -73.2629,-323.147 -1.8762,-58.596 53.9286,-112.138 68.1614,-133.955 -6,-12 1,22 0,0 -1,-24 -33.4118,-76.882 -47.4118,-90.882 l -22,-21 21,35 c 23,38 29,67 8,35 -7,-11 -30,-51 -50,-90 l -37,-70 35,40 35,40 -11,-35 c -6,-19 -17,-47 -24,-61 -8,-14 -19,-39 -25,-55 L 4509.9944,9886.4901 4788,9873 c 26,25 30,26 36,11 3,-9 1,-23 -5,-30 -13,-16 2,-19 18,-3 7,7 6.4118,11.7059 10.4118,5.7059 22.2897,-4.7944 -3.8587,21.3746 -59.4118,16.2941 -1,1 -327.7598,0.9906 -359.7598,-20.0094 -31,-20 -148.6827,-25.0104 -172.6827,-38.0104 -28,-16 -33.5294,-20.5883 -38.0588,-32.5294 2,-9 -53.1949,-11.0647 -71.1949,-37.0647 -22,-30 -104.2642,-80.2514 -110.2642,-114.2514 -45.4347,-60 -68.0749,-101.7578 -104.5732,-163.7578 -35.0946,-61.5268 -269.3071,-97.9125 -403.9419,-173.368 -312.9805,-81.0712 -585.6235,-557.1656 -351.3472,-767.4121 129.4559,-228.4035 707.8995,-42.9206 792.5817,-51.7962 6.5104,-31.7448 -0.7379,6.6311 0,0 -25.52,18.5706 -274.3354,148.7565 -268.0169,-10.9509 -599.041,180.6536 -1126.5125,-821.3665 -376.721,-631.6246 93.1812,23.5804 203.9459,182.9555 238.4288,218.1799 17,16 -88.6852,-102.4638 -79.6852,-73.4638 18,58 95.5294,71.7647 103.5294,19.7647 10,-69 311.2355,229.7923 146.2355,111.7923 -55,-40 14.7276,62.1788 -58.2724,3.1788 -25.4212,183.4847 -670.6517,24.1289 -736.8497,-31.5513 -42.9685,-18.4788 -67.315,-74.0544 -190.4961,-7.5701 -54.9633,29.7952 -112.8161,56.7087 -128.7933,59.4995 -30.9819,4.4712 -92.7075,1.5708 -132.3609,33.4582 -30.4276,24.4434 -281.9221,17.8388 -287.1441,-4.0149 -5.3888,-20.633 77.5948,-40.6882 112.4387,-43.3879 18.3946,-2.4605 67.054,-12.1844 65.7762,-14.8461 -1.278,-2.6617 -33.8684,-7.5643 -65.404,-23.0656 -89.6346,-40.85 -140.6602,-73.9977 -138.0281,-91.045 6.3637,-41.2154 185.9128,18.3962 222.4695,39.6203 13.0312,6.7549 31.8111,10.7644 35.2292,3.7702 7.3087,-11.4366 -6.333,-25.7362 -91.6588,-92.1116 -71.9892,-55.8483 -75.3508,-61.2818 -54.9262,-84.605 28.3621,-12.1553 135.5162,35.4065 202.8773,64.0309 40.0378,25.3678 -99.1824,-29.9644 -93.2083,-31.6351 47.7834,8.5926 128.9937,44.3093 110.1159,5.0991 -8.8071,-13.6389 -1.0639,27.2124 -22.8738,0.6049 -22.6157,-26.7178 -62.0956,-88.6245 -60.9279,-97.1697 4.6708,-34.1807 3.2616,-54.0972 57.0513,-3.2229 100.562,70.6573 78.909,48.4691 74.326,27.9461 11.2976,-51.9283 131.0552,-103.9579 126.1018,-105.8782 23.3801,-1.9608 11.0648,14.3804 171.937,13.1742 30.0913,-17.2493 27.2712,-16.169 66.2612,-3.4648 266.1464,30.1856 254.1854,-53.5073 270.7885,-16.6898 197.1826,63.7817 234.0005,-285.0327 377.1175,-225.3444 C 3724.782,7573.8662 3861,7635 3953,7687 c 44,25 -427.6387,109.635 -431.7647,108.647 -28.5784,-6.8433 -141.3444,13.5409 -103.3182,-7.8223 -18,-9 -234.645,19.3789 -251.1266,-62.7994 -12.9802,-64.7196 239.2599,226.3863 205.3793,143.8575 -539.1623,504.5848 -835.4709,-943.9395 -456.2975,-1244.0889 -129.9484,341.5483 37.6366,-67.2155 -137.1798,-214.2937 -30.3635,-137.4883 302.7772,-248.0005 330.8001,-300.8067 13,-15.5176 -20.7059,44.9847 -10.7059,44.9847 10,0 -44.8776,-156.2604 -8.31,-191.5294 60.9459,-57.115 67.0405,48.8794 67.0405,9.8794 0,-49 -90.0312,-56.1377 -54.6825,-49.2644 17.0648,3.0078 36.5676,-4.269 63.3838,-24.3996 72.4016,-13.2899 83.8262,27.5784 53.25,24.908 -6.1967,86.1035 -91.6892,140.1124 -86.0842,-46.9604 1.4839,-49.5259 -17.3435,-136.2339 -13.7834,-187.5318 -1.3914,-62.4536 -9.1184,-136.5939 39.3112,-288.3065 52.2154,-132.0958 48.1761,-180.9429 45.5354,-192.9429 -1.3205,-5 2.6407,-8 7.9225,-8 5.2817,0 11.8839,-12 13.2044,-27 1.3204,-16 7.9225,-39 14.5247,-53 17.1656,-34 29.7964,-104.2964 26.8485,-114.2964 -1.474,-4 2.9479,-7 10.3177,-7 5.8961,0 10.3179,-11 8.8439,-25 -2.9478,-14 1.474,-25 8.8439,-25 7.3699,0 11.7918,-3 11.7918,-7 -1.474,-5 0,-10 1.4739,-13 1.474,-3 4.4219,-14 7.3699,-25 2.948,-11 8.8438,-29 13.2658,-40 2.948,-11 7.3698,-24 7.3698,-28 1.474,-5 8.8438,-5 17.6878,-1 11.7917,4 13.2656,0 5.8958,-15 -5.8958,-12 -2.948,-21 5.8959,-21 8.8439,0 11.7917,-7 7.3699,-15 -5.896,-8 -1.4741,-15 8.8438,-15 10.3177,0 14.7398,-7 8.8437,-15 -4.4218,-8 1.474,-20 11.7919,-27 10.3177,-7 16.2138,-18 13.2657,-25 -2.948,-6 1.474,-14 8.844,-18 8.8437,-3 16.2135,-17 16.2135,-31 0,-13 5.8961,-24 13.2659,-24 8.8437,0 14.7397,-8 14.7397,-17 1.474,-32 19.1617,-88 32.4274,-99 7.3698,-6 10.3177,-19 4.4219,-27 -4.4219,-9 -2.9479,-22 2.9479,-29 7.37,-7 13.2658,-17 14.7398,-23 5.8959,-38 8.8438,-40 20.6356,-20 8.8439,14 10.3177,7 4.4219,-21 -4.4219,-26 -1.4739,-44 8.8438,-48 8.8439,-4 13.2658,-12 7.37,-17 -4.4219,-5 0,-17 11.7916,-26 11.792,-11 11.792,-14 1.474,-10 -13.2656,6 -14.7396,-3 -8.8438,-30 4.422,-21 14.7398,-39 22.1096,-41 5.896,-2 11.7918,-14 11.7918,-27 0,-13 8.8438,-28 20.6357,-32 11.7918,-4 20.6356,-15 20.6356,-23 -2.948,-36 4.4218,-50 29.4795,-51 14.7397,0 17.6876,-3 5.8959,-6 -13.2658,-4 -11.7918,-12 5.8958,-36 45.6932,-60 51.6078,-67 51.6078,-87 0,-12 5.2989,-19 11.9224,-16 6.6235,3 15.8964,-1 19.8705,-10 3.9742,-8 2.6495,-12 -5.2988,-9 -7.9482,3 -9.273,-1 -5.2988,-9 3.9742,-9 13.2471,-16 19.8706,-16 6.6235,0 11.9224,-5 11.9224,-11 0,-5 -5.2989,-8 -13.2471,-4 -6.6235,3 -9.273,-15 -3.9741,-47 3.9741,-29 13.247,-55 19.8705,-56 5.2989,-2 10.5977,-8 10.5977,-13 0,-6 -5.2988,-8 -11.9223,-5 -5.2989,3 -10.5977,-8 -9.273,-24 1.3247,-36 5.2988,-37 21.1953,-8 10.5976,21 11.9223,20 7.9483,-7 -1.3247,-17 -6.6236,-36 -11.9224,-41 -9.2729,-12 -1.3247,-69 10.5977,-84 5.2987,-6 10.5976,-32 14.5717,-58 2.6494,-26 84.0155,-52.7647 90.639,-53.7647 7.9483,-2 -57.2816,-18.3241 -57.2816,-30.3241 0,-18 -2.6493,-20 -14.5717,-7 -11.9224,12 131.2778,29.8235 137.9013,13.8235 5.2988,-11 23.7501,-36 27.7501,-56 3,-19 191.3978,-37.692 195.3978,-43.692 3,-6 -185.3978,63.692 -195.3978,43.692 -12.4984,-34 -27.9973,-134.9934 -16.918,-206.6782 15.8336,-41.5564 10.2758,-174.1714 62.5264,-283.2569 52.2506,-108.0467 100.1864,-260.0386 120.77,-311.9841 136.1683,-340.7625 442.3492,-671.3738 421.3492,-901.3738 C 4553.759,1237.6759 4594,1136 4575,1084 c -10,-27 -54,-81 -131,-160 -183,-188 -169,-162 -167,-332 2,-170 6,-179 106,-208 102,-29 213,-24 328,14 81,28 105,41 152,85 63,59 58,37 76,318 13,188 34,267 90,330 l 38,43 6,-69 c 3,-39 2,-117 -4,-175 -5,-58 -9,-127 -9,-155 0,-48 3,-52 60,-107 33,-32 70,-58 81,-58 36,0 133,40 158,65 38,37 31,102 -24,218 -89,187 -95,297 -24,444 29,63 39,93 34,112 -3,14 -10,47 -15,73 -13,69 -15.1765,102 -97.1765,182 -49,48 -42.0554,80 -42.0554,95 0,13 -14,53 -32,89 -30,63 -31,69 -20,122 9,44 9,64 -2,101 -8,25 -6.6759,45.3518 -4.6759,59.3518 45.2214,119.8047 157.2428,396.6861 73.0806,1019.5744 -17.4937,129.4719 -52.7679,246.3274 -58.6755,261.5659 -5.9014,16.2384 -29.4291,98.2014 -28.2753,123.1553 2.3383,54.9067 -73.416,137.3623 -83.262,162.7599 -5.8892,18.2379 -39.579,-11.0152 -1.7028,-32.5434 21.9319,-11.8849 -14.0514,-16.3715 -12.0761,-20.4513 3.9323,-11.1588 13.904,-17.1228 24.8823,-17.5555 4.9901,-0.1966 -16.7738,17.6949 0,0 16.0219,-16.6631 58.4898,-70.4257 63.2204,-67.6062 4.7305,2.8195 10.4631,-36.3718 14.9878,-46.57 9.0357,-16.3879 16.0946,-22.5055 0.5784,-7.8662 -15.5162,14.6394 -5.1633,15.11 3.8725,-1.2779 4.5245,-10.1982 -3.8783,-12.9222 3.1079,-13.1975 5.9881,-0.2361 7.9331,-59.0954 29.2449,-90.9968 22.0635,-32.9331 12.3138,-46.7453 7.7892,-36.5471 -7.0396,16.3092 -6.5473,18.2938 1.9559,11.9467 6.0015,-4.2445 1.6412,-32.8323 4.1831,-46.9602 1.5439,-14.0887 19.4512,-8.0784 27.4219,-4.3847 6.9728,3.7331 -22.951,10.2203 -27.4219,4.3847 -4.2248,-4.8434 19.0278,-44.9667 27.7905,-54.33 10.0205,-12.4187 6.6462,26.7917 0,0 -17.231,-69.4597 139.8105,-283.9328 324.8105,-466.9328 145.3241,-176.2687 264.316,-126.376 331.316,-224.376 138,-200 276.1971,-252.1431 314.1971,-332.1431 19,-41 92.8824,-115 122.8824,-165 37,-63 73,-149 120,-285 l 68,-194 -17,-82 c -18,-87 -21,-193 -8,-259 10,-50 128,-212 174,-238 98,-56 326,63 385,201 31,72 73,222 73,262 1,20 -18,78 -44,137 -69,155 -69,143 2,143 72,0 82,12 84,100 1,51 -3,64 -33,109 -19,28 -49,58 -67,66 -50,24 -131,92 -148,125 -9,16 -20,64 -25,105 -12,97 -11.7036,104.0554 -92.7036,182.0554 l -69.4729,94.9446 -54.0723,21.1639 c -58.6516,-5.1992 2.1529,15.5014 -28.5504,39.8224 -18.689,15.0559 -41.3826,45.1675 -50.7271,66.0142 -8.0096,22.0047 -29.3684,53.2745 -48.0574,69.4885 -29.3683,26.6373 38.2746,15.1592 8.3564,139.1592 -5.5404,23 4.2404,95.3552 -11.2727,116.3552 -15.5131,21 -27.4926,152.4255 -62.9512,251.4255 -61.7663,164.8953 3.8882,142.4918 -118.6074,346.5329 -20.0121,52.3766 -12.5465,82.3647 -60.1917,116.1561 -40.0069,25.3435 -20.7342,30.3477 -19.8077,39.019 0.8105,7.5874 -4.6917,17.3425 -13.0704,20.5942 -8.3787,3.2518 -17.3176,21.6782 -19.712,40.1046 -2.2784,19.5104 -6.8059,28.1816 -9.798,20.5943 -3.9672,-6.5035 -10.9749,-10.8391 -14.9906,-7.5874 -5.1064,3.2517 -5.0391,14.0908 -0.8404,22.7621 5.5212,10.8391 -0.2127,18.4264 -15.0202,22.7621 -11.6509,3.2517 -19.6822,9.7551 -15.9467,14.0908 7.7027,10.839 -9.1291,101.189 -21.2211,94.3649 -6.046,-3.412 -27.7963,27.2962 -27.7963,27.2962 -8.3001,18.1975 -5.6259,42.0659 -14.7201,42.0659 -9.0941,0 -15.3115,5.6866 -14.4665,13.6481 0.7242,6.8241 -2.4449,9.0987 -6.2173,5.6866 -5.0299,-4.5493 -15.7942,1.1375 -24.8183,12.5108 -25.1609,30.7082 -28.6589,37.9483 -54.8047,37.9483 -12.5046,0 -22.0113,6.824 -21.1665,14.7854 1.6896,15.9228 12.1075,38.6696 -36.3111,44.3564 116.8362,-30.4397 -14.521,244.9079 -44.3364,259.5735 -11.6989,10.5956 142.5065,261.4657 105.4477,262.4575 -37.0586,0.9919 94.2874,247.4759 88.0327,254.4982 -5.2516,9.2806 -123.8162,-296.7646 -89.2658,-303.4019 45.1279,-9.2053 -40.5052,7.2754 -60.7743,24.9553 -11.6986,10.5956 -15.5686,-300.6575 -34.0978,-300.1616 -18.5291,0.496 63.2371,29.9241 73.6968,37.6416 7.6422,6.6504 -5.9017,235.8402 -18.8847,270.8549 -14.7202,36.2342 -73.8722,-353.5131 -49.7166,-339.228 18.574,14.3179 41.7429,138.5029 16.1417,135.0628 -30.7761,-4.6088 50.8576,-164.1076 48.7337,-144.749 1.9436,20.4646 64.0161,627.8824 88.2429,619.3092 19.1896,-8.5405 -91.5431,-644.4397 -88.2426,-619.3092 -2.3046,26.3596 15.2732,71.3588 3.7258,78.0593 -11.5475,6.7005 -4.8027,22.9177 16.6198,35.6514 0.9328,37.661 96.9635,376.1833 94.18,366.5743 -132.9405,142.5487 -156.7072,-121.6772 -88.3916,-115.7573 30.4009,7.221 40.8829,84.9119 26.7862,94.9776 -19.3546,8.9877 -195.1927,-334.7712 -165.1931,-330.719 29.9992,4.0522 169.2149,6.7882 131.2695,17.5814 -47.4986,12.9633 -123.2116,-150.0028 -60.741,-141.9538 62.4702,8.049 73.6339,199.5381 26.2691,213.5577 -42.7217,11.8782 -4.5416,-139.5567 19.2011,-139.9123 17.8065,-0.267 -1.0361,-22.9765 -2e-4,0 0.9559,21.2095 98.5233,460.4356 104.5059,468.857 5.9817,8.4214 -100.0377,155.5673 -117.805,170.4703 -26.9186,20.2419 21.1565,-38.5113 58.968,-50.3607 37.8116,-11.8495 -18.1793,-7.5298 -23.0447,31.6097 -1.1606,29.6043 98.3092,-293.4609 69.3812,-289.0629 -28.7936,5.4541 -143.0889,-374.8258 -97.0288,-375.0979 35.8239,-0.2117 -0.3349,304.8465 -13.8613,314.4394 -18.5707,8.5654 10.5504,-238.2283 35.5047,-235.2035 29.9993,4.0522 -53.0976,84.2782 -51.8922,93.7846 1.607,12.6752 8.7972,-68.424 -16.8272,-76.7301 -25.6243,-8.3061 78.7786,98.4231 76.8709,123.9452 3.6295,28.8168 -3.1657,219.7555 24.4228,204.7949 27.3205,-17.0731 37.8115,-11.8494 61.6057,20.7797 17.6782,23.1515 11.6073,52.7846 -6.2939,66.6313 -32.0972,18.1582 -122.2741,213.2509 -83.6593,207.739 38.615,-5.5117 95.8466,-227.8945 83.6596,-207.739 -12.8565,14.8742 -42.1279,86.3093 -17.1733,89.3341 25.0887,4.081 43.6913,15.8724 25.9244,30.7755 -12.8569,14.8742 -196.605,58.0532 31.8706,39.1391 45.668,11.3597 -15.2872,-20.1362 -53.5003,-11.4556 -33.4369,7.5955 -0.377,-38.4476 6.1406,-25.8011 2.6783,21.1254 -95.0011,-187.9895 -48.5738,-209.403 36.8737,-19.2433 1.8295,-24.323 0,0 -3.0359,14.8165 69.9088,333.6845 95.5327,341.9906 254.7695,596.0265 66.5341,1835.2946 -315.933,768.8533 -7.4774,79.756 -109.754,-56.0524 -98.0038,-50.8053 8.5455,3.1483 21.3638,0 29.9094,-5.2471 9.6137,-9.4448 19.2274,-4.1977 36.3185,18.8896 12.8183,17.8401 71.5097,23.4564 88.6008,26.6047 23.5003,4.1977 36.3186,16.7907 54.4779,52.471 17.091,34.6309 33.1139,50.3722 61.9551,61.9159 30.9776,11.5436 42.2022,25.1861 54.4779,53.5204 8.5929,20.9885 25.779,39.878 38.0547,44.0757 29.4618,7.346 57.1183,-0.2469 20.291,46.977 -29.4617,36.7298 -21.8112,40.8543 1.1272,58.2834 12.8048,11.6951 67.9783,38.3609 70.1808,47.616 2.4471,10.2836 53.9623,65.3267 61.1773,66.0905 11.3038,21.4839 126.5618,-16.3183 68.7877,89.512 -123.5932,277.6968 -155.4242,214.9798 -173.2286,257.6714 52.907,-28.3955 11.6477,242.966 -13.1614,289.7459 -60.1594,81.2635 -0.1989,53.4703 -77.3042,135.0867 57.5841,223.9158 -413.9997,321.7026 -498.6712,322.3968 -78.5102,-33.4504 690.505,-430.402 356.0113,79.231 36.8445,172.5983 -318.6909,426.5772 -363.5145,369.211 -44.531,-104.9519 261.4684,-193.5133 194.893,126.9908 77.0871,32.4671 68.3139,437.741 24.5965,496.4438 -5.3238,7.1487 51.6057,-101.654 2.6973,-171.1271 -47.1207,-66.9338 -169.5039,-239.0339 -150.8978,-443.8587 23.8845,-78.9645 345.844,14.4609 400.9214,19.3319 l -39.8915,12.8535 -88.1036,24.4025 c -495.9666,29.6085 87.686,-714.6837 249.6042,-458.0356 -65.5136,-58.4864 -29.3454,-310.7093 58.8144,-598.872 154.3988,-472.9017 284.1235,-533.9134 311.557,-591.3933 -37.7678,-180.1149 -6.9932,-227.5325 0.078,-292.7198 -109.9937,-143.8526 -23.2724,-233.0856 -28.5525,-347 -5,-65 -19,-125 -40,-185 -22,-63 -4.0416,-86.6759 2.9584,-93.6759 31,-31 96.0416,49.6759 117.0416,130.6759 6,23 16,59 21,81 13,49 -8.5651,87 19.4349,79 28,-7 12.1176,-29 -2.8824,-38 -11,-7 25,-79 58,-117 8,-10 10,-18 4,-18 -5,0 -27,23 -47,50 -37,50 15.4475,72 -3.5525,53 -21,-21 -46.4475,-129 18.5525,-180 33,-27 60,-53 60,-59 0,-12 -22,-35 -62,-65 -29,-21 -83.1765,-36.4118 -60.1765,-36.4118 7,0 79.1765,-15.5882 104.1765,-6.5882 61,20 118,90 118,145 0,28 5,39 19,44 35,11 136,128 149,173 12,39 11,46 -27,134 -34.3566,155.3367 -70.2576,229.7511 -84,333 17.6601,162.7447 -10.3979,732.2965 -66.2492,1000.4545 -19.9931,205.0273 -83.477,428.4425 -151.2192,600.4739 24.5748,47.663 115.0721,532.6901 29.0887,500.4899 -9,36 3.2963,15.1005 0.2963,25.1005 -8,26 -13.948,7.6898 19.052,-23.3102 28,-27 -19.9412,-95.7647 -5.9412,-76.7647 19,26 67.9412,92.7647 31.9412,146.7647 -38.2696,70.4232 -47.0769,241.7585 -76.94,316.7129 -7.7726,19.5086 -17.6482,108.5789 -25.6482,131.5789 -8,23 -30.9723,76.9723 -30.9723,98.9723 0,36 -40.2206,116.6632 -115.2067,220.7048 -77.903,74.6066 -169.2177,137.4879 -153.2177,147.4879 6,3 0,-15 0,0 1,37 -117.2778,149.0993 -108.2778,140.0993 4,-4 7,-19 7,-33 0,-21 2,-23 10,-11 7,11 10,5 10,-25 0,-41 42.9445,-43.0416 57.9445,-42.0416 5,1 19.3333,-12.0577 23.3333,-29.0577 4,-16 88.0987,-65.4438 25.6645,-20.8535 -93.8386,67.0193 -49.9423,19.2155 -52.9423,79.9528 -4,68 -2,122 4,137 10,23 11,23 13,-15 l 1,-40 12,50 c 8,34 15,45 21,36 7,-12 10,-11 21,3 7,10 17,15 23,11 8,-4 8,1 2,17 -19,52 -22,124 -7,168 9,25 16,61 16,80 1,41 27,108 30,75 1,-20 1,-20 9,0 7,16 9,13 16,-20 8,-35 10,-25 16,70 4,61 12,123 18,139 11,27 12,28 25,10 12,-16 14,-13 10,31 l -5,50 21,-38 c 12,-22 24,-37 27,-34 2,3 0,14 -6,25 -20,38 -5,245 23,314 47,115 84,572 54,671 -17,58 -102,146 -151,157 -50,11 -148,5 -157,-10 -5,-7 -15,-8 -32,-1 -27,10 -57,6 -96,-15 -35,-18 -54,-8 -45,25 4,14 8,73 7,131 0,118 -22,185 -69,210 -14,7 -25,17 -25,21 0,11 -104,58 -143,66 -23,5 -28,3 -22,-7 z m -781,-582 c -13,-24 -177,-238 -182,-238 -7,0 27,49 106,153 68,88 95,118 76,85 z m -251,-318 c -3,-10 -12,-25 -21,-32 -13,-11 -12,-8 2,20 19,36 27,41 19,12 z m 1186,-462 c -19,-51 -29,-72 -97,-204 -17,-34 -48,-76 -69,-93 -21,-18 -53,-46 -70,-64 -37.8273,-37 2.1802,-20.669 16.6136,47.331 11,25 15.3587,59 13.3587,62 -34.589,-21.589 59.3868,19.5331 74.6551,107.669 l 12.7452,15.864 -12.7452,-15.864 c -2,-16.292 -7,-40 -14,-52 -7,-13 -11,-25 -9,-28 2.2496,-2 21.3104,34.26 35.7452,95.864 59.0425,63.611 47.7835,80.047 87.6274,137.136 20.2507,29.016 48,43 49,43 2,0 -6,-24 -18,-52 z m -90.6274,-67.042 c -20,-25.925 -8.4419,-16 -8.4419,0 0,7 -8.9307,19.042 -3.9307,19.042 2,0 24.3726,-3.287 12.3726,-19.042 z M 5940,10000 c -6,-11 -13,-20 -16,-20 -2,0 0,9 6,20 6,11 13,20 16,20 2,0 0,-9 -6,-20 z m -869.1165,-62.4083 c 6,-7 -25.3581,-6.6598 -32.2676,-49.2088 -100.1092,-90.174 37.9892,-56.5115 49.6556,-38.0234 18.4253,26.9477 -16.9412,17.0719 -16.9412,-11.2941 2.3032,-29.7843 -7.923,26.893 -113.923,28.893 C 4807.729,9886.5857 4880.9735,9838.0189 4926,9939 l 16.4706,69.941 69.6309,-53.5315 c 35.0646,-32.4247 57.0103,-9.2133 58.782,-17.8178 z M 5899,9916 c -29,-49 -34,-46 -9,5 12,23 24,39 26,36 3,-2 -5,-21 -17,-41 z m -33,-30 c 0,-13 -4,-22 -8,-19 -13,7 -9,-12 5,-26 10,-10 9,-12 -1,-9 -8,2 -21,-17 -33,-47 -22,-57 -24,-70 -6,-37 12,22 13,21 13,-13 0,-23 -3,-30 -9,-22 -5,7 -6,2 -3,-14 3,-15 -1,-46 -9,-70 -23,-64 -11,-57 18,11 15,33 29,60 31,60 3,0 -6,-32 -20,-72 -24,-72 -26,-99 -3,-56 6,12 15,25 19,28 4,3 14,19 23,35 20,38 21,22 2,-41 -20,-66 -18,-77 4,-29 l 19,40 1,-50 c 0,-27 -2,-59 -5,-71 -6,-21 10,7.2353 -61,35.2353 -40,15 -27.1489,53.4821 -36.1489,56.4821 -17.7399,6.1063 -1.9769,35.8645 -31.6471,47.4706 4.3518,5 -4.5797,-3.0751 -2.9388,5.8535 2.4461,13.3102 2.5238,-0.041 -3.2785,40.9585 -7.2529,44 4.2343,-90.0986 -0.6765,105 -1.6831,66.8668 82.6898,135 92.6898,135 4,0 6,-11 5,-24 z m -15,-93 c -12,-20 -14,-14 -5,12 4,9 9,14 11,11 3,-2 0,-13 -6,-23 z m 40,-50 c -12,-20 -14,-14 -5,12 4,9 9,14 11,11 3,-2 0,-13 -6,-23 z m 36,-165 c -2,-13 -4,-3 -4,22 0,25 2,35 4,23 2,-13 2,-33 0,-45 z m 6,-119 c -6,-6 -7,3 -4,23 4,28 6,29 9,9 2,-13 0,-27 -5,-32 z m 5.2511,-5063.0095 c 9.8635,-29.1014 -12.892,-31.6478 -31.0322,-3.395 -7.7949,14.08 29.6115,-41.5669 44.9137,-42.1236 12.752,-0.4636 -15.902,55.9396 -13.8815,45.5186 z m -2261.539,-276.7563 c 0,-5 -2.9479,-10 -5.896,-10 -4.4218,0 -11.7916,5 -16.2136,10 -4.422,6 -1.4739,10 5.8959,10 8.8438,0 16.2137,-4 16.2137,-10 z m 73.6987,-121 c 0,-6 -5.8959,-7 -14.7398,-4 -7.3698,3 -14.7397,11 -14.7397,16 0,6 7.3699,7 14.7397,4 8.8439,-3 14.7398,-11 14.7398,-16 z m 2237.6807,199.8644 c -0.9029,-5.6866 -46.2707,-11.3734 -48.5443,-11.3734 -3.4104,0 27.2326,5.6868 23.0334,11.3734 -4.019,6.824 0.1064,11.3735 8.6086,11.3735 10.2044,0 17.9858,-4.5495 16.9023,-11.3735 z M 3799.4249,3797.2342 c -3.9742,-8 -7.9482,-5 -7.9482,6 -1.3247,11 2.6493,17 6.6235,13 3.974,-3 5.2988,-12 1.3247,-19 z m 27.8188,-183 c -3.9741,-3 -11.9224,2 -15.8964,12 -7.9483,14 -6.6236,15 6.6235,6 9.2729,-7 13.2471,-15 9.2729,-18 z m 1236.4753,37.923 c 11.2646,-11.4658 -12.2,24.5048 -16.1921,24.6621 -4.9901,0.1967 -17.745,9.7172 -29.0096,21.1831 -11.2644,11.4658 -17.0332,20.711 -12.0431,20.5143 4.9901,-0.1966 45.9803,-54.8937 57.2448,-66.3595 z"
       id="path4"
       sodipodi:nodetypes="ccccccsscccscccccccccssscscccscccscccsccsccccccscccccccccccccccccscccccccccccccscscccccccccscsccccccccsccccccccscsccccscscccscccscccscscsscccsscscsccsscccccccccccccssccccsscscsscccsccccccccscccccccccccsccccccccscsccccccsccccscccccscscscscccccccsccccccccccccsccccccccccccscccssccccccscssscssccscccscccccccsccccscscssscsccsccssccccsccccscccccccccccccccscccccccccssccccccccccscccccscscscscscccccccccccssscccsscsccscccccccccccccccccccccccccccccccscccccccccccccccccccccccsccsscscsssccccccccccccccssccssccccsccscccccccccsccscsscssccscsccsccscsscsscssssscssccsscsccsscsssssss" />
    <path
       d="M5847 10063 c-2 -5 -17 -30 -32 -58 -16 -27 -24 -45 -18 -40 14 14 66 105 60 105 -3 0 -8 -3 -10 -7z"
       id="path6" />
    <path
       d="M4769 10813 c-13 -16 -12 -17 4 -4 9 7 17 15 17 17 0 8 -8 3 -21 -13z"
       id="path8" />
    <path
       d="M4666 10402 c-49 -56 -49 -56 -7 -17 35 33 70 77 59 74 -2 0 -25 -26 -52 -57z"
       id="path10" />
  </g>
</svg>
