<?xml version="1.0" encoding="UTF-8" standalone="no"?>
<svg
   xmlns:dc="http://purl.org/dc/elements/1.1/"
   xmlns:cc="http://creativecommons.org/ns#"
   xmlns:rdf="http://www.w3.org/1999/02/22-rdf-syntax-ns#"
   xmlns:svg="http://www.w3.org/2000/svg"
   xmlns="http://www.w3.org/2000/svg"
   xmlns:sodipodi="http://sodipodi.sourceforge.net/DTD/sodipodi-0.dtd"
   xmlns:inkscape="http://www.inkscape.org/namespaces/inkscape"
   version="1.0"
   width="880.000000pt"
   height="1280.000000pt"
   viewBox="0 0 880.000000 1280.000000"
   preserveAspectRatio="xMidYMid meet"
   id="svg8"
   sodipodi:docname="120warrior.svg"
   inkscape:version="1.0.2 (e86c870879, 2021-01-15, custom)">
  <defs
     id="defs12" />
  <sodipodi:namedview
     pagecolor="#ffffff"
     bordercolor="#666666"
     borderopacity="1"
     objecttolerance="10"
     gridtolerance="10"
     guidetolerance="10"
     inkscape:pageopacity="0"
     inkscape:pageshadow="2"
     inkscape:window-width="1920"
     inkscape:window-height="1017"
     id="namedview10"
     showgrid="false"
     inkscape:zoom="0.70434465"
     inkscape:cx="362.92126"
     inkscape:cy="750.18093"
     inkscape:window-x="-8"
     inkscape:window-y="-8"
     inkscape:window-maximized="1"
     inkscape:current-layer="svg8"
     inkscape:document-rotation="0" />
  <metadata
     id="metadata2">
Created by potrace 1.15, written by Peter Selinger 2001-2017
<rdf:RDF>
  <cc:Work
     rdf:about="">
    <dc:format>image/svg+xml</dc:format>
    <dc:type
       rdf:resource="http://purl.org/dc/dcmitype/StillImage" />
    <dc:title></dc:title>
  </cc:Work>
</rdf:RDF>
</metadata>
  <g
     transform="translate(0.000000,1280.000000) scale(0.100000,-0.100000)"
     fill="#000000"
     stroke="none"
     id="g6">
    <path
       d="m 5170.5882,10625.118 c -29,-10 -69,-32 -89,-48 -45,-36 -160,-204 -173,-252 -6,-21 -19,-40 -32,-46 -25,-11 -37,-48 -28,-85 3,-14 3,-42 0,-62 -7,-39 2,-71 14,-47 3,8 4,4 2,-8 -2,-12 -1,-21 3,-20 4,1 22,-12 39,-30 28.968,-29.0461 -1.0418,-92.0601 53,-159.0004 -52.2905,-273.9695 25.6254,-156.0152 14.6551,-162.9515 -12,-7 -23.9792,6.9723 -11.9792,6.9723 8,0 2.3241,-1.0208 -18.6759,-18.0208 -21,-16 -41,-30 -45,-30 -17,0 -120,-112 -126,-137 -3,-15 -9,-37 -12,-48 -4,-11 33.6322,-89.5211 -7,-95 l -214.5786,-28.9343 c -205.1081,-72 -305.9981,-65.5096 -357.9038,-105.0543 -123.7636,-107.0564 -114.4643,-109.0382 -144.3911,-155.0689 -14.8289,-19.7088 -48.7112,-58.5275 -75.0072,-126.608 0,0 10.2758,5.1657 -57.2097,-97.8215 -7.1153,-36.0669 -20.4266,-93.804 -38.6777,-145.2809 -18.251,-51.477 -28.1792,-123.9417 -33.7623,-186.5487 -153.1251,-216.0048 199.6363,-312.0582 288.0334,-208.078 -36.0554,45.7847 -456.9433,36.7543 -434.0683,-62.1265 -29.4112,-9.1791 -36.2716,-83.0534 -92.2723,-169.4173 -56.0006,-55.3938 11.6682,-100.6354 -25.3318,-204.9844 -39.7873,-21.6064 -17.3031,-95.003 -28.3957,-99.4567 -51,-11 -67.435,-64.6205 -89.435,-78.6205 -13,-8 -30,-29 -39,-46 -8,-17 -32,-46 -51,-64 l -36,-33 -24,25 -25,25 28,38 c 58,77 220,231 250,238 52,12 55,14 55,42 0,55 -50,99 -99,88 -23,-5 -30,-13 -34,-41 -7,-44 -81,-148 -171,-242 -68,-70 -71,-73 -76,-48 -44.011,14.5462 -254.6879,518.7395 -309.5754,640.5265 -16.0768,35.6719 38.6921,-388.7949 11.294,-355.6883 -161.8055,195.518 -335.1909,449.1234 -400.6814,621.9998 -44.9734,118.7171 -107.6403,95.6898 -46.651,-116.049 137.1749,-476.2356 -474.473,559.9903 -356.8404,577.0695 -268.0427,880.7132 -80.6259,-71.6756 -225.2859,-23.0817 -321.5881,317.2469 -293.6112,733.6191 -315.5672,786.4137 -29.835,71.7398 -83.3132,-312.9074 -76.1493,-346.011 50.3982,-137.4324 -201.1702,-143.4985 253.4869,-624.4869 1066.3535,-1052.0977 1315.9756,-1297.3553 1341.9697,-1294.6926 12.9323,1.3247 24,-3 24,-6 0,-3 -30,-42 -67,-87 -87,-103 -187,-187 -225,-187 -26,0 -28,-3 -28,-37 1,-61 43,-98 99,-87 26,5 31,11 31,34 0,37 79,154 172,253 l 73,79 43,-32 c 40,-30 42,-34 27,-50 -22,-25 -16,-64 11,-68 11,-2 27,4 34,13 7,8 17,15 23,15 6,0 1,-10 -11,-23 -26,-27 -27,-40 -7,-60 18,-19 52,-11 66,15 6,11 13,18 16,15 2,-3 -1,-14 -8,-25 -20,-31 -4,-56 31,-48 22,4 30,2 30,-8 0,-19 30,-29 46,-15 10,9 37,-9 121,-82 59,-51 -34,29 0,0 33,-28 254,-233 283,-276 30,-43 59,-81 64,-85 6,-4 27,-8 47,-8 62,0 99,64 69,120 -6,11 -47,38 -92,62 -66,34 -111,70 -240,193 l -159,150 38,30 c 21,17 52,46 70,65 127.9711,136 136.7394,55.2265 391.9999,215.9411 93,35 181.7648,122.8825 210.7648,133.8825 28,13.3117 75.1188,70.3408 81.1188,50.4913 5,10 -99.1188,-54.4913 -81.1188,-50.4913 -13.8621,1.674 -19.39,5.3998 81.1188,50.4913 32.2273,15.4636 73.5228,102.201 74.4643,100.0362 -43.2826,27.2533 -314.2197,-175.1315 -221.2553,-242.3152 11.23,-72.8995 -191.2846,-57.7673 -361.3527,-176.5229 -554.9146,-205.2942 -326.6928,-739.7349 156.672,-613.6306 118.9417,-242.5428 -436.1718,505.3884 -512.8672,179.4751 -448.4289,-577.6486 34.2057,-1146.6224 328.041,-707.3066 35.9886,53.8068 -217.6553,1.4352 -207.8521,-65.0957 70.8106,-120.6678 647.212,-101.4203 760.0134,-178.2204 80.6066,54.6343 -97.0018,53.3749 -130.4404,69.2133 -1018.5113,482.4243 -637.5566,-628.0333 -517.7564,-770.686 208.2447,-378.6567 331.5287,-429.9759 296.9356,-432.7441 183.1605,-559.8154 485.9888,-186.0542 459.2967,-156.5144 -6,-28 -165.0347,17.6087 -161.0347,-74.3913 -192.8108,-239.7401 249.2834,-532.7131 234.0542,-485.5395 -23,-45 7.5743,-42.6759 23.5743,-67.6759 15,-24 50.9769,-28.1027 31.9769,-61.1027 -33,-54.8625 -30.7648,-46.7039 28.2352,-138.2353 49,-52 34.2942,-51.7059 45.2942,-114.7059 7,-38 49.1176,-101.9412 58.1176,-121.9412 8,-20 26.1177,-86.4117 41.1177,-137.4117 21,-69 99.2941,-56.1177 88.2941,-52.1177 -11,4 -69.4706,4.5294 -65.4706,-29.4706 5,-45 14.8235,-125.647 37.8235,-133.647 19,-8 16.7059,-30.4118 19.7059,-146.4118 2,-55 62.353,-148.1177 63.353,-170.1177 1,-22 7.5882,-55.3529 -11.4118,-119.3529 -65,-210 -69,-333 -16,-473 25,-69 82,-132 127,-141 l 30,-6 7,-102 c 3,-55 8,-167 10,-247 3,-162 14,-199 66,-244 39,-32 87,-40 162,-25 80,16 125,39 171,90 60,66 76,111 76,216 0,88 -28,275 -51,339 -10,28 -9,39 11,80 47,98 127.6516,231.7647 13.6516,348.7647 -24,24 29.6562,71.7047 23.6562,84.7047 -14,39 -13.2098,166.6471 19.7902,253.6471 43,111 56.1487,337.8983 67.1487,421.8983 9,73 30.5537,73.8975 33.3772,100.2504 0.9588,8.9488 53.7851,86.3629 71.1049,99.9285 13.2793,10.4009 11.4982,59.523 14.2618,53.3185 10,-17 7.2504,29.233 15.2504,76.233 21.4848,11.1602 52.424,23.9486 67.3241,89.6343 148.4649,56.0775 296.0003,249.4654 343.8315,538.8663 1,83 -46.1906,-55.6235 0,0 -67.5909,-149.6771 312.5017,267.1366 425.0724,587.2033 1.7643,7.558 90.2332,9.5744 321.1071,382.7564 77.505,125.2783 174.3332,465.5316 147.1531,571.0262 -49.0551,190.3985 -366.6546,116.113 -372.1275,105.736 9,72 -257.3541,33.9354 -321.0742,33.6934 -63.72,-0.242 524.1312,-294.798 698.5258,-160.7258 -33.6029,84.2961 -11.9102,-159.4619 107.2807,112.7497 34.6423,130.493 34.8437,70.0754 70.4988,275.8032 9.6218,56.1123 7.8887,319.7291 -30.4505,395.3702 23.2309,55.6286 -63.9956,283.8385 -164.6394,395.9414 -84.6931,94.3362 -623.5427,347.0442 -864.5802,476.8218 -146.9848,79.1384 -237.7575,116.1313 -243.0906,74.9854 443.9296,-512.4222 923.4627,-158.0701 220.0826,375.6839 -36.0232,85.3115 -49.4077,79.8861 -114.8524,183.3795 -6.3725,169.1774 -94.965,130.822 -131.3334,157.7863 5.9238,45.9855 -148.8756,208.3609 -166.016,198.0552 -9.2242,-5.5462 143.3548,-153.3321 166.016,-198.0552 11.088,-95.6524 75.8388,-51.8068 47.0543,-22.3102 47.016,-74.9259 126.6829,-288.0871 285.4336,-381.5189 43.7029,-112.2927 135.4323,-170.6147 132.7441,-150.1581 -9.88,75.1837 -47.7809,-323.9312 301.3416,-260.8315 60.3421,-12.4391 -87.5897,46.7659 -83.1848,31.9824 2.57,-8.6252 6.909,-165.6744 91.909,-207.6744 211.1534,-170.7201 530.947,-248.9877 609.3481,-253.7419 52,-47 139.9734,-15.0865 153.9734,2.9135 10.5969,11.7908 7.3576,-4.9272 49,-23 25.2891,-52.6575 121.7773,-135.683 214,-131 52,-12 114,-68 144,-131 28,-59 56,-100 68,-100 13,0 -1,87 -23,138 -10,23 -14,40 -8,37 16,-11 46,-78 54,-122 3,-23 13,-47 21,-54 8,-6 14,-20 14,-30 0,-26 16,-24 24,4 11,40 6,113 -10,161 -9,26 -14,50 -11,52 8,8 55,-69 80,-128 11,-26 24,-48 28,-48 5,0 9,-9 9,-20 0,-12 7,-20 16,-20 13,0 15,10 9,68 -4,37 -18,91 -30,120 -28,61 -16,70 16,12 12,-22 31,-42 41,-46 10,-3 18,-11 18,-18 0,-18 27,-40 34,-28 9,15 -38,135 -72,184 -21,30 -55,59 -102,87 l -71,43 46,46 c 49,51 47,59 -12,43 -69,-20 -113.9862,23.2687 -186.9862,66.2687 -38,22 -68.0138,2.7313 -78.0138,2.7313 -9,0 -30,16 -46,36 -24,28 -34,35 -52,29 -12,-4 -19,-12 -16,-20 3,-9 0,-12 -10,-8 -16,6 -18,19 -4,28 17,10 21.6482,23.9931 -9.3518,36.9931 -16,7 -19.3945,45.4914 -44.3945,70.4914 -25,24 -27.8689,62.6267 -31.8052,68.4151 -18.9102,27.8081 -293.5447,519.7085 -287.8397,390.9906 -34.0515,175.5422 -257.3718,377.9589 -290.0137,258.7084 -21,8 21.9647,6.965 44.9643,13.8222 66.564,19.8456 -281.3412,360.6859 -255.8165,96.804 -38.6098,21.1795 379.7892,-270.653 84.7626,121.0577 31.0827,117.8067 -234.1294,421.2205 -356.5888,507.7465 -65.2024,141.3742 -222.5875,214.8246 -284.7795,240.1645 -170.546,67.5699 -385.0134,81.7349 -400.4394,59.2067 -25.8227,-9.1773 55.9789,-5.9997 1.331,10.6482 -60.5885,40.431 -66.8926,11.2647 -163.354,39.3034 -20.7634,28.0789 -56.6763,74.7522 -83.0266,76.9688 -7.2496,1.6572 4.1779,2.5846 -17.0277,41.0104 -10,30 -5.6953,-7.9398 4.5352,20.9839 12.6103,6.3897 13.8109,18.3572 14.1476,16.0715 2.5949,-17.6153 36.428,84.0917 34.6967,109.6136 -0.5414,7.9817 6,19 14,25 8,7 17,27 20,46 4,22 13,35 22,35 8,0 13,4 10,9 -3,5 1,14 10,21 8,7 13,19 10,26 -3,8 0,17 7,21 7,5 21,22 31,38 11,17 34,45 53,62 40,38 88,136.0004 78,161.0004 -3,9 -5,18 -3,19 2,1 -8,13 -22,28 -24,25 -48,107 -49,167 -2,51 -43,141 -87,188 -24,26 -69,59 -100,75 -48,25 -67,28 -136,28 -48,-1 -93,4 -114,13 -45,19 -98,17 -162,-5 z M 5027.2353,9396.9412 c 10,0 22.7647,-10.9412 23.7647,-3.9412 0,8 2,8 6,-2 5,-11 7,-11 14,0 7,11 -24.8824,27.9412 -24.8824,14.9412 0,-9 18.8824,-8.9412 10.8824,-14.9412 -24.6149,1.3395 -185.1498,-31.4811 -144.0241,-93.3668 -34,-42.3523 12.0829,-68.1413 9.0829,-54.8685 -11,88 15.9412,127.2353 38.9412,127.2353 6,0 18,7 27,16 10,11 17,13 20,5 2,-6 8.2353,5.9412 19.2353,5.9412 z M 3600,7884 c 0,-8 -4,-12 -10,-9 -5,3 -10,10 -10,16 0,5 5,9 10,9 6,0 10,-7 10,-16 z m -685,-764 c 3,-5 2,-10 -4,-10 -5,0 -13,5 -16,10 -3,6 -2,10 4,10 5,0 13,-4 16,-10 z m 1113.5882,-326.1765 c 0,-8 -5.1176,-13.1176 -13.1176,-13.1176 -8,0 24.5294,-13.7059 24.5294,-5.7059 0,8 7,15 15,15 8,0 -26.4118,11.8235 -26.4118,3.8235 z M 5324,6168 c -12.2445,-169.3778 -32.6057,-351.7646 -1.6054,-511.7647 -5.8302,-225.759 9.7801,-216.3286 14.6055,-328.0166 C 5360.136,5179.4444 5409.033,4894.1688 5414,4909 c -8,-8 -25.3302,-22.139 -32.8235,-42.8235 -10.0506,-27.7437 -15.3743,-55.6518 -5.1765,-75.1765 -22,-21 7,-17 0,0 6.9607,22.9056 60.3006,398.808 -38.9999,537.2187 -5,19.3163 -22.6149,116.2865 -12.6149,266.7813 23,255 1.6148,629 -26.3852,715 -4,13 -89.2941,-112.9412 -75.2941,-112.9412 18,0 95.2941,101.9412 101.2941,-29.0588 z"
       id="path4"
       sodipodi:nodetypes="cscccccsscccscsccsccccccccccccccccccccsccccssssccsccsscsccsccccccsccccccscccccsccccccccccccccccsccscccccccccccscccsccsccccscsccccccssccccccssccccccssccccscccscsccccccsccccsccccsssccccscccccccscscccccsccsccccccccccssccssccccccscccccccsccsscccsccsscssscscscsssssccccscccccsc" />
  </g>
</svg>
