<?xml version="1.0" encoding="UTF-8" standalone="no"?>
<svg
   xmlns:dc="http://purl.org/dc/elements/1.1/"
   xmlns:cc="http://creativecommons.org/ns#"
   xmlns:rdf="http://www.w3.org/1999/02/22-rdf-syntax-ns#"
   xmlns:svg="http://www.w3.org/2000/svg"
   xmlns="http://www.w3.org/2000/svg"
   xmlns:sodipodi="http://sodipodi.sourceforge.net/DTD/sodipodi-0.dtd"
   xmlns:inkscape="http://www.inkscape.org/namespaces/inkscape"
   version="1.0"
   width="880.000000pt"
   height="1280.000000pt"
   viewBox="0 0 880.000000 1280.000000"
   preserveAspectRatio="xMidYMid meet"
   id="svg8"
   sodipodi:docname="25warrior.svg"
   inkscape:version="1.0.2 (e86c870879, 2021-01-15, custom)">
  <defs
     id="defs12" />
  <sodipodi:namedview
     pagecolor="#ffffff"
     bordercolor="#666666"
     borderopacity="1"
     objecttolerance="10"
     gridtolerance="10"
     guidetolerance="10"
     inkscape:pageopacity="0"
     inkscape:pageshadow="2"
     inkscape:window-width="1920"
     inkscape:window-height="1017"
     id="namedview10"
     showgrid="false"
     inkscape:zoom="0.49804688"
     inkscape:cx="199.75083"
     inkscape:cy="779.85906"
     inkscape:window-x="-8"
     inkscape:window-y="-8"
     inkscape:window-maximized="1"
     inkscape:current-layer="svg8" />
  <metadata
     id="metadata2">
Created by potrace 1.15, written by Peter Selinger 2001-2017
<rdf:RDF>
  <cc:Work
     rdf:about="">
    <dc:format>image/svg+xml</dc:format>
    <dc:type
       rdf:resource="http://purl.org/dc/dcmitype/StillImage" />
    <dc:title></dc:title>
  </cc:Work>
</rdf:RDF>
</metadata>
  <g
     transform="translate(0.000000,1280.000000) scale(0.100000,-0.100000)"
     fill="#000000"
     stroke="none"
     id="g6">
    <path
       d="m 5212,10531 c -29,-10 -69,-32 -89,-48 -45,-36 -160,-204 -173,-252 -6,-21 -19,-40 -32,-46 -25,-11 -37,-48 -28,-85 3,-14 3,-42 0,-62 -7,-39 2,-71 14,-47 3,8 4,4 2,-8 -2,-12 -1,-21 3,-20 4,1 22,-12 39,-30 29,-29 34,-42 53,-159 18,-106 19,-128 8,-135 -12,-7 -12,-9 0,-9 8,0 -3,-13 -24,-30 -21,-16 -41,-30 -45,-30 -17,0 -120,-112 -126,-137 -3,-15 -9,-37 -12,-48 -4,-11 -7,-54 -7,-95 v -74 l -65,-14 c -102,-22 -113,-29 -157,-95 -80,-121 -95,-167 -113,-347 -7,-63 -18,-133 -26,-155 -9,-26 -10,-41 -3,-46 7,-4 4,-26 -8,-65 -10,-32 -17,-65 -16,-71 0,-7 -2,-13 -7,-13 -10,0 -30,-47 -30,-71 0,-10 5,-27 10,-37 17,-27 -51,-184 -83,-193 -37,-10 -159,-84 -185,-112 -13,-14 -31,-23 -40,-20 -18,4 -76,-49 -96,-89 -16,-33 -151,-127 -174,-121 -11,2 -40,-13 -77,-42 -33,-25 -71,-48 -85,-51 -51,-11 -126,-38 -148,-52 -13,-8 -30,-29 -39,-46 -8,-17 -32,-46 -51,-64 l -36,-33 -24,25 -25,25 28,38 c 58,77 220,231 250,238 52,12 55,14 55,42 0,55 -50,99 -99,88 -23,-5 -30,-13 -34,-41 -7,-44 -81,-148 -171,-242 -68,-70 -71,-73 -76,-48 -4,18 -280,273 -980,902 -536,482 -1061,953 -1166,1045 -304,268 -491,399 -567,399 -28,0 -29,-2 -23,-32 22,-109 149,-244 711,-754 1119,-1017 1879,-1694 1901,-1694 13,0 24,-3 24,-6 0,-3 -30,-42 -67,-87 -87,-103 -187,-187 -225,-187 -26,0 -28,-3 -28,-37 1,-61 43,-98 99,-87 26,5 31,11 31,34 0,37 79,154 172,253 l 73,79 43,-32 c 40,-30 42,-34 27,-50 -22,-25 -16,-64 11,-68 11,-2 27,4 34,13 7,8 17,15 23,15 6,0 1,-10 -11,-23 -26,-27 -27,-40 -7,-60 18,-19 52,-11 66,15 6,11 13,18 16,15 2,-3 -1,-14 -8,-25 -20,-31 -4,-56 31,-48 22,4 30,2 30,-8 0,-19 30,-29 46,-15 10,9 37,-9 121,-82 59,-51 135,-117 169,-146 33,-28 85,-87 114,-130 30,-43 59,-81 64,-85 6,-4 27,-8 47,-8 62,0 99,64 69,120 -6,11 -47,38 -92,62 -66,34 -111,70 -240,193 l -159,150 38,30 c 21,17 52,46 70,65 128,136 149,149 408,247 93,35 194,73 223,84 28,11 56,29 62,38 5,10 24,21 42,25 18,3 50,18 71,32 28,18 42,22 51,15 7,-6 30,-14 52,-19 38,-8 10.7647,-10.8824 27.7647,-78.8824 16,-61 44.2353,-69.1176 31.2353,-83.1176 -8,-9 -20.8402,-34.4735 -46.5672,-111.825 -22.5758,-81.1329 -61.6784,-125.0519 -104.0124,-190.3266 -37.0514,-79.7388 -37.2793,-40.8861 -80.0904,-158.5185 C 4363.2479,6964.2441 4271.9179,6687.9766 4304.8824,6541.2353 4289.8824,6470.2353 4297,6394 4284,6368 c -47,-92 -68,-223 -44,-268 27,-51 85,-46 165,15 46,36 55,35 55,-2 0,-35 27.3529,-325.7647 63.3529,-446.7647 17,-58 77.2942,-223.5294 120.2942,-358.5294 C 4751.6471,4969.7059 4783,4958 4771,4900 c -6,-28 -8,-110 -4,-202 7,-179 -12,-317 -55,-401 -23,-45 -23,-48 -7,-73 15,-24 15,-27 -4,-60 -33,-55 -27,-79 32,-142 49,-52 55,-63 66,-126 7,-38 19,-85 28,-105 8,-20 28,-77 43,-128 21,-69 24,-90 13,-86 -11,4 -13,-3 -9,-37 5,-45 28,-88 51,-96 19,-8 28,-53 31,-169 2,-55 4,-118 5,-140 1,-22 -15,-93 -34,-157 -65,-210 -69,-333 -16,-473 25,-69 82,-132 127,-141 l 30,-6 7,-102 c 3,-55 8,-167 10,-247 3,-162 14,-199 66,-244 39,-32 87,-40 162,-25 80,16 125,39 171,90 60,66 76,111 76,216 0,88 -28,275 -51,339 -10,28 -9,39 11,80 47,98 6,228 -108,345 -24,24 -48,56 -54,69 -14,39 9,193 42,280 43,111 59,170 70,254 9,73 54,207 70,207 9,0 60,112 60,134 0,27 62,119 71,105 10,-17 46,43 54,90 5,30 15,42 62,71 147,92 223,242 226,443 1,83 -1,97 -27,146 -33,64 -32,117 4,198 23,53 14,77 -21,55 -18,-12 -20,-11 -15,5 25,88 115.8235,463.4706 139.8235,635.4706 9,63 23.2353,183.5294 36.2353,257.5294 13,74 28.2353,194 37.2353,265 9,72 6.7059,132 8.7059,134 2,2 26,-6 53,-18 70,-30 106,-28 143,10 30,29 30,32 26,102 -5,80 -8.3934,187.3241 -62.3934,268.3241 -7.3632,18.9088 -7.3958,111.852 -39.0554,176.9584 -82,228 -158.1371,357.0416 -217.1371,482.0416 -34,72 -97.4141,160.6759 -118.4141,204.6759 -21,44 -47.8443,89.338 -76.0271,164.338 -28.1829,75 -62.6765,100.331 -70.6765,106.331 -10,8 3.1154,15.2722 21.6154,88.7722 18.5,73.5 9.9706,107.5588 17.9706,158.5588 5,34 -16.8824,67 -8.8824,73 10,8 11.8577,29.1337 15,66 3.8063,44.6562 37.8898,106.5171 54,203 8,17 29.3241,56.0139 41.3241,97.0139 13,41 26.3379,86.662 33.3379,97.662 8,11 16.6621,45.6482 16.6621,65.6482 0,55 11.6759,65.6759 20.6759,18.6759 9,-50 43.0277,-166.6482 106.0277,-269.6482 53,-86 56.6621,-85.3379 187.6621,-220.3379 59,-62 100.3102,-91.0139 100.3102,-107.0139 0,-35 99,-178 145,-209 22,-15 77,-45 123,-68 46,-23 82,-47 82,-55 0,-9 58,-44 143,-86 221,-111 475,-259 535,-314 52,-47 55,-48 69,-30 13,19 15,18 49,-23 41,-49 152,-117 214,-131 52,-12 114,-68 144,-131 28,-59 56,-100 68,-100 13,0 -1,87 -23,138 -10,23 -14,40 -8,37 16,-11 46,-78 54,-122 3,-23 13,-47 21,-54 8,-6 14,-20 14,-30 0,-26 16,-24 24,4 11,40 6,113 -10,161 -9,26 -14,50 -11,52 8,8 55,-69 80,-128 11,-26 24,-48 28,-48 5,0 9,-9 9,-20 0,-12 7,-20 16,-20 13,0 15,10 9,68 -4,37 -18,91 -30,120 -28,61 -16,70 16,12 12,-22 31,-42 41,-46 10,-3 18,-11 18,-18 0,-18 27,-40 34,-28 9,15 -38,135 -72,184 -21,30 -55,59 -102,87 l -71,43 46,46 c 49,51 47,59 -12,43 -69,-20 -106,-14 -179,29 -38,22 -76,40 -86,40 -9,0 -30,16 -46,36 -24,28 -34,35 -52,29 -12,-4 -19,-12 -16,-20 3,-9 0,-12 -10,-8 -16,6 -18,19 -4,28 17,10 11,20 -20,33 -16,7 -49,33 -74,58 -25,24 -50,44 -57,44 -22,0 -102,72 -331,299 -126,124 -237,229 -248,233 -21,8 -50,-13 -50,-37 0,-27 -102,49 -169,125 -107,121 -125,148 -112,164 9,11 6,20 -13,43 -17,20 -23,37 -19,52 4,16 -2,30 -22,51 -15,16 -24,33 -21,38 8,13 -13,73 -34,97 -24,27 -68,119 -120,248 -67,170 -162,297 -250,335 -54,24 -156,32 -189,16 -23,-12 -35,-11 -90,6 -73,22 -125,54 -196,120 -27,26 -60,52 -72,59 -12,6 -27,27 -33,47 -10,30 -9,38 6,55 9,10 19,17 22,14 6,-6 52,63 52,79 0,8 6,19 14,25 8,7 17,27 20,46 4,22 13,35 22,35 8,0 13,4 10,9 -3,5 1,14 10,21 8,7 13,19 10,26 -3,8 0,17 7,21 7,5 21,22 31,38 11,17 34,45 53,62 40,38 88,136 78,161 -3,9 -5,18 -3,19 2,1 -8,13 -22,28 -24,25 -48,107 -49,167 -2,51 -43,141 -87,188 -24,26 -69,59 -100,75 -48,25 -67,28 -136,28 -48,-1 -93,4 -114,13 -45,19 -98,17 -162,-5 z M 5031,9380 c 10,0 19,6 20,13 0,8 2,8 6,-2 5,-11 7,-11 14,0 7,11 9,11 9,-2 0,-9 -6,-22 -14,-28 -7,-6 -31,-41 -52,-77 -34,-59 -72,-98 -75,-77 -11,88 -1,163 22,163 6,0 18,7 27,16 10,11 17,13 20,5 2,-6 12,-11 23,-11 z M 3600,7884 c 0,-8 -4,-12 -10,-9 -5,3 -10,10 -10,16 0,5 5,9 10,9 6,0 10,-7 10,-16 z m -685,-764 c 3,-5 2,-10 -4,-10 -5,0 -13,5 -16,10 -3,6 -2,10 4,10 5,0 13,-4 16,-10 z m 1155,-345 c 0,-8 -7,-15 -15,-15 -8,0 -15,7 -15,15 0,8 7,15 15,15 8,0 15,-7 15,-15 z m 1254,-607 c 9,-180 29,-348 60,-508 40,-204 59,-423 51,-590 -5,-104 -10,-149 -21,-161 -8,-8 -14,-34 -14,-56 0,-29 -6,-46 -24,-62 -22,-21 -24,-21 -31,-4 -9,23 -52,397 -60,529 -5,63 -1,165 9,279 23,255 18,611 -10,697 -4,13 0,18 14,18 18,0 20,-11 26,-142 z"
       id="path4"
       sodipodi:nodetypes="cscccccsscccscsccsccccccccssccscccccccccccccsccccccsccsscsccsccccccsccccccscccccsccccccccccccccccccccccscccccccccccscccsccsccccscsccccccsscccccccccscsccccccscccccscccscccscssccccccsccccsccccsssccccscccccccscscccccsccscccccccccccccccssccssccccccscccccccsccsscccsccsscssscscscsssssccccscccccsc" />
  </g>
</svg>
