<?xml version="1.0" encoding="UTF-8" standalone="no"?>
<svg
   xmlns:dc="http://purl.org/dc/elements/1.1/"
   xmlns:cc="http://creativecommons.org/ns#"
   xmlns:rdf="http://www.w3.org/1999/02/22-rdf-syntax-ns#"
   xmlns:svg="http://www.w3.org/2000/svg"
   xmlns="http://www.w3.org/2000/svg"
   xmlns:sodipodi="http://sodipodi.sourceforge.net/DTD/sodipodi-0.dtd"
   xmlns:inkscape="http://www.inkscape.org/namespaces/inkscape"
   version="1.0"
   width="880.000000pt"
   height="1280.000000pt"
   viewBox="0 0 880.000000 1280.000000"
   preserveAspectRatio="xMidYMid meet"
   id="svg8"
   sodipodi:docname="35warrior.svg"
   inkscape:version="1.0.2 (e86c870879, 2021-01-15, custom)">
  <defs
     id="defs12" />
  <sodipodi:namedview
     pagecolor="#ffffff"
     bordercolor="#666666"
     borderopacity="1"
     objecttolerance="10"
     gridtolerance="10"
     guidetolerance="10"
     inkscape:pageopacity="0"
     inkscape:pageshadow="2"
     inkscape:window-width="1920"
     inkscape:window-height="1017"
     id="namedview10"
     showgrid="false"
     inkscape:zoom="0.70434465"
     inkscape:cx="249.56832"
     inkscape:cy="779.26938"
     inkscape:window-x="-8"
     inkscape:window-y="-8"
     inkscape:window-maximized="1"
     inkscape:current-layer="svg8" />
  <metadata
     id="metadata2">
Created by potrace 1.15, written by Peter Selinger 2001-2017
<rdf:RDF>
  <cc:Work
     rdf:about="">
    <dc:format>image/svg+xml</dc:format>
    <dc:type
       rdf:resource="http://purl.org/dc/dcmitype/StillImage" />
    <dc:title></dc:title>
  </cc:Work>
</rdf:RDF>
</metadata>
  <g
     transform="translate(0.000000,1280.000000) scale(0.100000,-0.100000)"
     fill="#000000"
     stroke="none"
     id="g6">
    <path
       d="m 5212,10531 c -29,-10 -69,-32 -89,-48 -45,-36 -160,-204 -173,-252 -6,-21 -19,-40 -32,-46 -25,-11 -37,-48 -28,-85 3,-14 3,-42 0,-62 -7,-39 2,-71 14,-47 3,8 4,4 2,-8 -2,-12 -1,-21 3,-20 4,1 22,-12 39,-30 29,-29 34,-42 53,-159 18,-106 19,-128 8,-135 -12,-7 -12,-9 0,-9 8,0 -3,-13 -24,-30 -21,-16 -41,-30 -45,-30 -17,0 -120,-112 -126,-137 -3,-15 -9,-37 -12,-48 -4,-11 -7,-54 -7,-95 v -74 l -142.1994,-37.9584 c -56.542,-50.4113 -123.1692,-71.5982 -172.3818,-134.3403 -76.4128,-121 -72.4633,-109.805 -130.9884,-289.805 -7,-63 -5.9261,-118.9102 -13.9261,-140.9102 -9,-26 -2.0139,-60.9653 4.9861,-65.9653 6.9999,-4 -1.783,-14.0208 1.317,-53.0208 -10,-32 2.3645,-56.9989 0.4527,-73.6459 -11.3235,-3.9412 -1.5427,-58.6851 -1.5427,-82.6851 0,-10 -11.6379,-9.6967 -3.9758,-35.669 -24.5222,-26.2009 -116.5694,-156.2898 -79.2711,-176.0588 -73.89,-6.6464 -153.0361,-84.3711 -162.4118,-113.8824 -5.7847,-18.2081 9,-3 0,0 -18,4 -134.8235,-69 -154.8235,-109 -16,-33 -115.2353,-142.0588 -138.2353,-136.0588 -11,2 -40,-13 -77,-42 -33,-25 -71,-48 -85,-51 -51,-11 -126,-38 -148,-52 -13,-8 -30,-29 -39,-46 -8,-17 -32,-46 -51,-64 l -36,-33 -24,25 -25,25 28,38 c 58,77 220,231 250,238 52,12 55,14 55,42 0,55 -50,99 -99,88 -23,-5 -30,-13 -34,-41 -7,-44 -81,-148 -171,-242 -68,-70 -71,-73 -76,-48 -4,18 -280,273 -980,902 -536,482 -1061,953 -1166,1045 -304,268 -491,399 -567,399 -28,0 -29,-2 -23,-32 22,-109 149,-244 711,-754 1119,-1017 1879,-1694 1901,-1694 13,0 24,-3 24,-6 0,-3 -30,-42 -67,-87 -87,-103 -187,-187 -225,-187 -26,0 -28,-3 -28,-37 1,-61 43,-98 99,-87 26,5 31,11 31,34 0,37 79,154 172,253 l 73,79 43,-32 c 40,-30 42,-34 27,-50 -22,-25 -16,-64 11,-68 11,-2 27,4 34,13 7,8 17,15 23,15 6,0 1,-10 -11,-23 -26,-27 -27,-40 -7,-60 18,-19 52,-11 66,15 6,11 13,18 16,15 2,-3 -1,-14 -8,-25 -20,-31 -4,-56 31,-48 22,4 30,2 30,-8 0,-19 30,-29 46,-15 10,9 37,-9 121,-82 59,-51 135,-117 169,-146 33,-28 85,-87 114,-130 30,-43 59,-81 64,-85 6,-4 27,-8 47,-8 62,0 99,64 69,120 -6,11 -47,38 -92,62 -66,34 -111,70 -240,193 l -159,150 38,30 c 21,17 52,46 70,65 128,136 149,149 408,247 93,35 194,73 223,84 28,11 66.6482,17.0208 72.6482,26.0208 5,10 22.669,17.0069 40.669,21.0069 18,3 47.3379,25.9862 68.3379,39.9862 32.2273,15.4636 20.0453,54.3844 20.9868,52.2196 7,-6 -14.7653,-34.5576 -6.2187,-123.8437 -14.4214,-104.5981 -35.5852,-78.6132 -84.9711,-168.2864 -59.12,-119.4302 -84.3337,-172.7251 -74.7069,-210.1973 -83.4215,-105.7992 -31.1031,-78.0663 -88.6116,-179.0906 -120.0335,-190.9512 -110.8804,-430.8389 -77.9159,-577.5802 -15,-71 25.4878,-147.2353 12.4878,-173.2353 -47,-92 -24.7059,-223 -0.7059,-268 27,-51 85,-46 165,15 46,36 -10.2365,29.353 -10.2365,-7.647 0,-35 76.6171,-325.4418 112.6171,-446.4418 17,-58 74.6322,-218.2053 117.6322,-353.2053 C 4733.0128,4969.7059 4783,4958 4771,4900 c -6,-28 -8,-110 -4,-202 7,-179 -12,-317 -55,-401 -23,-45 -23,-48 -7,-73 15,-24 15,-27 -4,-60 -33,-55 -27,-79 32,-142 49,-52 55,-63 66,-126 7,-38 19,-85 28,-105 8,-20 28,-77 43,-128 21,-69 24,-90 13,-86 -11,4 -13,-3 -9,-37 5,-45 28,-88 51,-96 19,-8 28,-53 31,-169 2,-55 4,-118 5,-140 1,-22 -15,-93 -34,-157 -65,-210 -69,-333 -16,-473 25,-69 82,-132 127,-141 l 30,-6 7,-102 c 3,-55 8,-167 10,-247 3,-162 14,-199 66,-244 39,-32 87,-40 162,-25 80,16 125,39 171,90 60,66 76,111 76,216 0,88 -28,275 -51,339 -10,28 -9,39 11,80 47,98 6,228 -108,345 -24,24 -48,56 -54,69 -14,39 9,193 42,280 43,111 59,170 70,254 9,73 54,207 70,207 9,0 60,112 60,134 0,27 62,119 71,105 10,-17 46,43 54,90 5,30 15,42 62,71 147,92 223,242 226,443 1,83 -1,97 -27,146 -33,64 -32,117 4,198 23,53 14,77 -21,55 -18,-12 -20,-11 -15,5 25,88 134.4578,455.4845 158.4578,627.4845 9,63 44.5317,191.5155 57.5317,265.5155 13,74 29.9839,181.1465 38.9839,252.1465 9,72 20.662,134.2053 22.662,136.2053 2,2 -29.6354,4.6482 -2.6354,-7.3518 70,-30 106,-28 143,10 30,29 30,32 26,102 -5,80 22.3148,187.3241 -31.6852,268.3241 -7.3632,18.9088 1.4254,108.0873 -30.2342,173.1937 -36.7639,226.1194 -89.7972,317.3428 -185.6493,465.1558 -24.9152,86.7073 -100.2088,139.3401 -104.5917,199.1627 -3.1528,43.0332 -11.3544,188.0904 -49.6626,256.3401 26.9613,3.5789 42.4284,0.2465 68.6196,23.0915 18.3084,13.3983 83.1045,55.4051 91.6038,171.639 24.0362,137.2001 -54.3721,263.5017 -123.0506,408.4498 83.8338,156.9349 -59.9578,255.1357 -96.3809,282.1 5.9238,45.9855 -10.3382,93.7036 -27.4786,83.3979 -9.2242,-5.5462 4.8174,-38.6748 27.4786,-83.3979 -3.1302,-52.9979 48.0105,-63.0207 70.6668,-187.8465 59.0773,-68.8952 107.4967,-202.6491 222.0795,-318.1649 59,-62 126.4741,-94.4164 126.4741,-110.4164 0,-35 87.4382,-163.075 194.9382,-224.075 138.7065,-50.5978 151.9122,-58.5682 139.8137,-70.601 -6.3812,-6.3466 116.3529,-60.9411 201.3529,-102.9411 219.5986,-114.1533 473.6437,-290.287 550.0588,-308.353 52,-47 60.6471,-31.0588 74.6471,-13.0588 13,19 15,18 49,-23 41,-49 152,-117 214,-131 52,-12 114,-68 144,-131 28,-59 56,-100 68,-100 13,0 -1,87 -23,138 -10,23 -14,40 -8,37 16,-11 46,-78 54,-122 3,-23 13,-47 21,-54 8,-6 14,-20 14,-30 0,-26 16,-24 24,4 11,40 6,113 -10,161 -9,26 -14,50 -11,52 8,8 55,-69 80,-128 11,-26 24,-48 28,-48 5,0 9,-9 9,-20 0,-12 7,-20 16,-20 13,0 15,10 9,68 -4,37 -18,91 -30,120 -28,61 -16,70 16,12 12,-22 31,-42 41,-46 10,-3 18,-11 18,-18 0,-18 27,-40 34,-28 9,15 -38,135 -72,184 -21,30 -55,59 -102,87 l -71,43 46,46 c 49,51 47,59 -12,43 -69,-20 -106,-14 -179,29 -38,22 -76,40 -86,40 -9,0 -30,16 -46,36 -24,28 -34,35 -52,29 -12,-4 -19,-12 -16,-20 3,-9 0,-12 -10,-8 -16,6 -18,19 -4,28 17,10 11,20 -20,33 -16,7 -43.3529,57.4706 -68.3529,82.4706 -25,24 -62.4755,30.6822 -66.4118,36.4706 -18.9102,27.8081 -85.0775,92.5375 -315.9412,302.7647 C 7073.2941,7973.7059 6951,8058 6940,8062 c -21,8 -54.7001,-13.4647 -50,-37 5.2652,-26.3648 -75.865,142.1568 -231.5581,200.8684 -24.9906,90.0939 -15.2641,69.0674 -101.1335,233.2975 -52.4935,180.9182 -111.3368,230.9254 -182.7663,347.8019 -32.6794,142.5681 -152.3636,287.6817 -277.4002,356.43 -48.8358,49.8212 -171.2197,75.0565 -214.9515,60.8535 -25.8227,-9.1773 -0.3672,-0.5509 -55.0151,16.097 -69.0069,28.6551 -75.8858,17.6447 -156.203,82.3137 -27,26 -75.9723,49.338 -87.9723,56.338 -12,6 -27,27 -33,47 -10,30 -3.3529,21.0588 11.6471,38.0588 9,10 13.3529,33.9412 16.3529,30.9412 6,-6 52,63 52,79 0,8 6,19 14,25 8,7 17,27 20,46 4,22 13,35 22,35 8,0 13,4 10,9 -3,5 1,14 10,21 8,7 13,19 10,26 -3,8 0,17 7,21 7,5 21,22 31,38 11,17 34,45 53,62 40,38 88,136 78,161 -3,9 -5,18 -3,19 2,1 -8,13 -22,28 -24,25 -48,107 -49,167 -2,51 -43,141 -87,188 -24,26 -69,59 -100,75 -48,25 -67,28 -136,28 -48,-1 -93,4 -114,13 -45,19 -98,17 -162,-5 z M 5031,9380 c 10,0 19,6 20,13 0,8 2,8 6,-2 5,-11 7,-11 14,0 7,11 9,11 9,-2 0,-9 -6,-22 -14,-28 -7,-6 -44.1765,-35.3529 -65.1765,-71.3529 -34,-42.3523 -75.7647,-60.1552 -78.7647,-46.8824 -11,88 15.9412,127.2353 38.9412,127.2353 6,0 18,7 27,16 10,11 17,13 20,5 2,-6 12,-11 23,-11 z M 3600,7884 c 0,-8 -4,-12 -10,-9 -5,3 -10,10 -10,16 0,5 5,9 10,9 6,0 10,-7 10,-16 z m -685,-764 c 3,-5 2,-10 -4,-10 -5,0 -13,5 -16,10 -3,6 -2,10 4,10 5,0 13,-4 16,-10 z m 1155,-345 c 0,-8 -7,-15 -15,-15 -8,0 -15,7 -15,15 0,8 7,15 15,15 8,0 15,-7 15,-15 z m 1254,-607 c 9,-180 5.0416,-348 36.0416,-508 42.7199,-225.759 53.9347,-214.7692 39.0207,-326.4572 17.1306,-130.7585 6.0294,-427.5501 14.9377,-424.5428 -8,-8 -14,-34 -14,-56 0,-29 -6,-46 -24,-62 -22,-21 -24,-21 -31,-4 -8.528,22.9056 -19.9465,390.5893 -60,529 -5,63 25.6205,165 35.6205,279 23,255 -8.6205,611 -36.6205,697 -4,13 0,18 14,18 18,0 20,-11 26,-142 z"
       id="path4"
       sodipodi:nodetypes="cscccccsscccscsccsccccccccsccscccccccccccccsccccccsccsscsccsccccccsccccccscccccsccccccccccccccccccccscccccccccccscccsccsccccscsccccccsscccccccccscsccccccscccccscccscsccccccsccccsccccsssccccscccccccscscccccsccsccccccccccssccssccccccscccccccsccsscccsccsscssscscscsssssccccscccccsc" />
  </g>
</svg>
