<?xml version="1.0" encoding="UTF-8" standalone="no"?>
<svg
   xmlns:dc="http://purl.org/dc/elements/1.1/"
   xmlns:cc="http://creativecommons.org/ns#"
   xmlns:rdf="http://www.w3.org/1999/02/22-rdf-syntax-ns#"
   xmlns:svg="http://www.w3.org/2000/svg"
   xmlns="http://www.w3.org/2000/svg"
   xmlns:sodipodi="http://sodipodi.sourceforge.net/DTD/sodipodi-0.dtd"
   xmlns:inkscape="http://www.inkscape.org/namespaces/inkscape"
   version="1.0"
   width="880.000000pt"
   height="1280.000000pt"
   viewBox="0 0 880.000000 1280.000000"
   preserveAspectRatio="xMidYMid meet"
   id="svg8"
   sodipodi:docname="40warrior.svg"
   inkscape:version="1.0.2 (e86c870879, 2021-01-15, custom)">
  <defs
     id="defs12" />
  <sodipodi:namedview
     pagecolor="#ffffff"
     bordercolor="#666666"
     borderopacity="1"
     objecttolerance="10"
     gridtolerance="10"
     guidetolerance="10"
     inkscape:pageopacity="0"
     inkscape:pageshadow="2"
     inkscape:window-width="1920"
     inkscape:window-height="1017"
     id="namedview10"
     showgrid="false"
     inkscape:zoom="0.35217233"
     inkscape:cx="-477.5312"
     inkscape:cy="642.33818"
     inkscape:window-x="-8"
     inkscape:window-y="-8"
     inkscape:window-maximized="1"
     inkscape:current-layer="svg8"
     inkscape:document-rotation="0" />
  <metadata
     id="metadata2">
Created by potrace 1.15, written by Peter Selinger 2001-2017
<rdf:RDF>
  <cc:Work
     rdf:about="">
    <dc:format>image/svg+xml</dc:format>
    <dc:type
       rdf:resource="http://purl.org/dc/dcmitype/StillImage" />
    <dc:title></dc:title>
  </cc:Work>
</rdf:RDF>
</metadata>
  <g
     transform="translate(0.000000,1280.000000) scale(0.100000,-0.100000)"
     fill="#000000"
     stroke="none"
     id="g6">
    <path
       d="m 5212,10531 c -29,-10 -69,-32 -89,-48 -45,-36 -160,-204 -173,-252 -6,-21 -19,-40 -32,-46 -25,-11 -37,-48 -28,-85 3,-14 3,-42 0,-62 -7,-39 2,-71 14,-47 3,8 4,4 2,-8 -2,-12 -1,-21 3,-20 4,1 22,-12 39,-30 29,-29 34,-42 53,-159 18,-106 19,-128 8,-135 -12,-7 -12,-9 0,-9 8,0 -3,-13 -24,-30 -21,-16 -41,-30 -45,-30 -17,0 -120,-112 -126,-137 -3,-15 -9,-37 -12,-48 -4,-11 -7,-54 -7,-95 v -74 l -142.1994,-37.9584 c -56.542,-50.4113 -157.0516,-82.8923 -206.2642,-145.6344 -138.163,-232.4737 -99.6684,-187.3398 -130.9884,-289.805 -7,-63 -21.4808,-116.4765 -29.4808,-138.4765 -9,-26 -13.8039,-57.429 -6.8039,-62.429 6.9999,-4 -13.7622,-12.6898 -10.6622,-51.6898 -10,-32 -9.6148,-51.6748 -11.5266,-68.3218 -11.3235,-3.9412 -12.1909,-57.3541 -12.1909,-81.3541 0,-10 -14.2999,-12.3587 -6.6378,-38.331 -24.5222,-26.2009 -60.6664,-149.6347 -23.3681,-169.4037 -28.149,39.0946 -134.8996,-75.5518 -149.1015,-109.8893 -7.3019,-17.6545 14.3241,-1.669 5.3241,1.331 -18,4 -144.1407,-92.9584 -164.1407,-132.9584 -44.1166,-19.7687 -114.1262,-114.9424 -104.9597,-124.0796 -11,2 -53.3102,-5.0139 -90.3102,-34.0139 -39.7873,-21.6064 -60.5972,-54.5324 -71.6898,-58.9861 -51,-11 -126,-38 -148,-52 -13,-8 -30,-29 -39,-46 -8,-17 -32,-46 -51,-64 l -36,-33 -24,25 -25,25 28,38 c 58,77 220,231 250,238 52,12 55,14 55,42 0,55 -50,99 -99,88 -23,-5 -30,-13 -34,-41 -7,-44 -81,-148 -171,-242 -68,-70 -71,-73 -76,-48 -4,18 -280,273 -980,902 -536,482 -1061,953 -1166,1045 -304,268 -491,399 -567,399 -28,0 -29,-2 -23,-32 22,-109 149,-244 711,-754 1119,-1017 1879,-1694 1901,-1694 13,0 24,-3 24,-6 0,-3 -30,-42 -67,-87 -87,-103 -187,-187 -225,-187 -26,0 -28,-3 -28,-37 1,-61 43,-98 99,-87 26,5 31,11 31,34 0,37 79,154 172,253 l 73,79 43,-32 c 40,-30 42,-34 27,-50 -22,-25 -16,-64 11,-68 11,-2 27,4 34,13 7,8 17,15 23,15 6,0 1,-10 -11,-23 -26,-27 -27,-40 -7,-60 18,-19 52,-11 66,15 6,11 13,18 16,15 2,-3 -1,-14 -8,-25 -20,-31 -4,-56 31,-48 22,4 30,2 30,-8 0,-19 30,-29 46,-15 10,9 37,-9 121,-82 59,-51 135,-117 169,-146 33,-28 85,-87 114,-130 30,-43 59,-81 64,-85 6,-4 27,-8 47,-8 62,0 99,64 69,120 -6,11 -47,38 -92,62 -66,34 -111,70 -240,193 l -159,150 38,30 c 21,17 52,46 70,65 128,136 149,149 408,247 93,35 194,73 223,84 28,11 66.6482,17.0208 72.6482,26.0208 5,10 22.669,17.0069 40.669,21.0069 18,3 47.3379,25.9862 68.3379,39.9862 32.2273,15.4636 -55.2488,84.502 -54.3073,82.3372 7.0925,-5.9769 -77.9849,-143.969 -24.53,-159.6083 -107.1074,-108.5405 -120.5471,-157.3848 -143.8363,-205.9335 -44.5269,-86.4351 -59.6369,-123.7883 -85.0319,-222.8062 -24.6541,-92.8964 -7.9695,-60.6154 -19.2647,-122.6755 -117.594,-215.5343 -68.288,-489.414 15.5328,-578.0923 -15,-71 -34.7475,-120.8824 -47.7475,-146.8824 -47,-92 -84.9412,-204.1764 -60.9412,-249.1764 27,-51 131.2341,-80 211.2341,-19 46,36 32.2295,18.173 0,0 -83.134,-46.8763 16.5504,-307.1319 108.8524,-469.03 20.7647,-73.0588 78.3969,-206.9112 121.3969,-341.9112 C 4639.9795,4948.202 4716.5402,4955.5402 4707,4900 c -6,-28 -10.4729,-115.3241 -6.4729,-207.3241 7,-179 54.4729,-311.6759 11.4729,-395.6759 -23,-45 -23,-48 -7,-73 15,-24 15,-27 -4,-60 -33,-55 -27,-79 32,-142 49,-52 36.1765,-64.8824 47.1765,-127.8824 7,-38 17.1176,-92.5294 26.1176,-112.5294 8,-20 22.353,-78.8823 37.353,-129.8823 21,-69 50.3529,-78.7059 39.3529,-74.7059 -11,4 -13,-3 -9,-37 5,-45 11.0588,-88 34.0588,-96 19,-8 20.4706,-56.7647 23.4706,-172.7647 2,-55 28.4706,-114.2353 29.4706,-136.2353 1,-22 -15,-93 -34,-157 -65,-210 -69,-333 -16,-473 25,-69 82,-132 127,-141 l 30,-6 7,-102 c 3,-55 8,-167 10,-247 3,-162 14,-199 66,-244 39,-32 87,-40 162,-25 80,16 125,39 171,90 60,66 76,111 76,216 0,88 -28,275 -51,339 -10,28 -9,39 11,80 47,98 6,228 -108,345 -24,24 21.2133,61.3241 15.2133,74.3241 -14,39 -12.2964,187.6759 20.7036,274.6759 43,111 43.0277,297.7784 54.0277,381.7784 9,73 22.0554,79.2216 38.0554,79.2216 9,0 60,112 60,134 0,27 62,119 71,105 10,-17 46,43 54,90 5,30 15,42 62,71 151.4847,60.6072 225.4887,224.579 226,443 1,83 -1,97 -27,146 -29.7086,60.3429 21.3476,57.7248 4,198 23,53 14,77 -21,55 -18,-12 25.2548,-11 30.2548,5 25,88 137.1199,447.4984 161.1199,619.4984 9,63 57.8419,194.1775 70.8419,268.1775 13,74 51.2803,173.1604 60.2803,244.1604 9,72 -11.2826,163.4878 -9.2826,165.4878 2,2 -11.001,-8.6621 15.999,-20.6621 -57.5648,58.7432 176.045,-29.497 239.4337,67.5733 -33.5706,177.3315 -83.6844,270.3846 -65.2664,288.076 -2.6864,78.1672 11.4868,83.5472 13.0345,172.9145 12.0802,52.6483 13.9391,67.4633 8.3263,169.3508 -1.0264,34.8159 19.71,70.2993 -6.2246,247.5222 -23.5733,128.95 -49.2058,172.6621 -66.9788,235.716 -13.6689,48.4936 -114.2491,310.1911 -254.306,394.455 -142.5825,85.7834 -206.1226,49.9481 -189.9834,77.5137 112.4308,-230.516 456.3698,199.5696 206.9061,362.5074 -36.0232,85.3115 -49.4077,79.8861 -114.8524,183.3795 -6.3725,169.1774 -94.965,130.822 -131.3334,157.7863 5.9238,45.9855 -148.8756,208.3609 -166.016,198.0552 -9.2242,-5.5462 143.3548,-153.3321 166.016,-198.0552 11.088,-95.6524 75.8388,-51.8068 47.0543,-22.3102 47.016,-74.9259 126.6829,-288.0871 285.4336,-381.5189 50.2511,-105.7445 142.2634,-156.8619 146.9678,-167.4222 12.873,-28.8972 178.6007,-164.7389 256.4099,-214.6078 60.3421,-12.4391 10.9614,-48.3991 15.3663,-63.1825 2.57,-8.6252 152.9757,-100.4151 237.9757,-142.4151 219.5986,-114.1533 439.7613,-312.8752 516.1764,-330.9412 52,-47 60.6471,-31.0588 74.6471,-13.0588 13,19 15,18 49,-23 41,-49 152,-117 214,-131 52,-12 114,-68 144,-131 28,-59 56,-100 68,-100 13,0 -1,87 -23,138 -10,23 -14,40 -8,37 16,-11 46,-78 54,-122 3,-23 13,-47 21,-54 8,-6 14,-20 14,-30 0,-26 16,-24 24,4 11,40 6,113 -10,161 -9,26 -14,50 -11,52 8,8 55,-69 80,-128 11,-26 24,-48 28,-48 5,0 9,-9 9,-20 0,-12 7,-20 16,-20 13,0 15,10 9,68 -4,37 -18,91 -30,120 -28,61 -16,70 16,12 12,-22 31,-42 41,-46 10,-3 18,-11 18,-18 0,-18 27,-40 34,-28 9,15 -38,135 -72,184 -21,30 -55,59 -102,87 l -71,43 46,46 c 49,51 47,59 -12,43 -69,-20 -106,-14 -179,29 -38,22 -76,40 -86,40 -9,0 -30,16 -46,36 -24,28 -34,35 -52,29 -12,-4 -19,-12 -16,-20 3,-9 0,-12 -10,-8 -16,6 -18,19 -4,28 17,10 11,20 -20,33 -16,7 -43.3529,57.4706 -68.3529,82.4706 -25,24 -62.4755,30.6822 -66.4118,36.4706 -18.9102,27.8081 -43.6657,115.1257 -274.5294,325.3529 -126,124 -233.759,262.5052 -244.759,266.5052 -21,8 -53.2143,-1.8163 -77.1994,-2.6621 -39.1156,-1.3793 -15.6996,113.339 -159.6828,163.7335 -24.9906,90.0939 4.3945,59.5218 -81.4749,223.7519 -3.4449,110.8487 -125.0987,217.861 -214.5771,360.5217 -81.7906,142.5681 -198.1389,201.0934 -318.812,269.8417 -48.8358,49.8212 -265.7642,115.6241 -309.496,101.4211 -25.8227,-9.1773 54.6479,-16.6479 0,0 -60.5885,38.7572 -61.5685,8.6487 -158.0299,53.9447 -27,26 -81.6748,62.6482 -93.6748,69.6482 -12,6 -27,27 -33,47 -10,30 -3.3529,21.0588 11.6471,38.0588 9,10 13.3529,33.9412 16.3529,30.9412 6,-6 52,63 52,79 0,8 6,19 14,25 8,7 17,27 20,46 4,22 13,35 22,35 8,0 13,4 10,9 -3,5 1,14 10,21 8,7 13,19 10,26 -3,8 0,17 7,21 7,5 21,22 31,38 11,17 34,45 53,62 40,38 88,136 78,161 -3,9 -5,18 -3,19 2,1 -8,13 -22,28 -24,25 -48,107 -49,167 -2,51 -43,141 -87,188 -24,26 -69,59 -100,75 -48,25 -67,28 -136,28 -48,-1 -93,4 -114,13 -45,19 -98,17 -162,-5 z M 5031,9380 c 10,0 19,6 20,13 0,8 2,8 6,-2 5,-11 7,-11 14,0 7,11 9,11 9,-2 0,-9 -6,-22 -14,-28 -7,-6 -44.1765,-35.3529 -65.1765,-71.3529 -34,-42.3523 -75.7647,-60.1552 -78.7647,-46.8824 -11,88 15.9412,127.2353 38.9412,127.2353 6,0 18,7 27,16 10,11 17,13 20,5 2,-6 12,-11 23,-11 z M 3600,7884 c 0,-8 -4,-12 -10,-9 -5,3 -10,10 -10,16 0,5 5,9 10,9 6,0 10,-7 10,-16 z m -685,-764 c 3,-5 2,-10 -4,-10 -5,0 -13,5 -16,10 -3,6 -2,10 4,10 5,0 13,-4 16,-10 z m 1155,-345 c 0,-8 -7,-15 -15,-15 -8,0 -15,7 -15,15 0,8 7,15 15,15 8,0 15,-7 15,-15 z m 1254,-607 c -12.2445,-169.3778 -32.6057,-351.7646 -1.6054,-511.7647 -5.8302,-225.759 9.7801,-216.3286 14.6055,-328.0166 C 5360.136,5179.4444 5409.033,4894.1688 5414,4909 c -8,-8 -14,-34 -14,-56 0,-29 -6,-46 -24,-62 -22,-21 7,-17 0,0 6.9607,22.9056 8.3005,386.5893 -91,525 -5,19.3163 29.3852,128.5052 39.3852,279 23,255 -12.3852,611 -40.3852,697 -4,13 0,18 14,18 18,0 20,-11 26,-142 z"
       id="path4"
       sodipodi:nodetypes="cscccccsscccscsccsccccccccsccscccccccccccccsccccccsccsscsccsccccccsccccccscccccsccccccccccccccccccccscccccccccccscccsccsccccscsccccccsscccccccccscsccccccssccccscccscsccccccsccccsccccsssccccscccccccscscccccsccsccccccccccssccssccccccscccccccsccsscccsccsscssscscscsssssccccscccccsc" />
  </g>
</svg>
