<?xml version="1.0" encoding="UTF-8" standalone="no"?>
<svg
   xmlns:dc="http://purl.org/dc/elements/1.1/"
   xmlns:cc="http://creativecommons.org/ns#"
   xmlns:rdf="http://www.w3.org/1999/02/22-rdf-syntax-ns#"
   xmlns:svg="http://www.w3.org/2000/svg"
   xmlns="http://www.w3.org/2000/svg"
   xmlns:sodipodi="http://sodipodi.sourceforge.net/DTD/sodipodi-0.dtd"
   xmlns:inkscape="http://www.inkscape.org/namespaces/inkscape"
   version="1.0"
   width="880.000000pt"
   height="1280.000000pt"
   viewBox="0 0 880.000000 1280.000000"
   preserveAspectRatio="xMidYMid meet"
   id="svg8"
   sodipodi:docname="50warrior.svg"
   inkscape:version="1.0.2 (e86c870879, 2021-01-15, custom)">
  <defs
     id="defs12" />
  <sodipodi:namedview
     pagecolor="#ffffff"
     bordercolor="#666666"
     borderopacity="1"
     objecttolerance="10"
     gridtolerance="10"
     guidetolerance="10"
     inkscape:pageopacity="0"
     inkscape:pageshadow="2"
     inkscape:window-width="1920"
     inkscape:window-height="1017"
     id="namedview10"
     showgrid="false"
     inkscape:zoom="0.70434465"
     inkscape:cx="1380.9174"
     inkscape:cy="795.64713"
     inkscape:window-x="-8"
     inkscape:window-y="-8"
     inkscape:window-maximized="1"
     inkscape:current-layer="svg8"
     inkscape:document-rotation="0" />
  <metadata
     id="metadata2">
Created by potrace 1.15, written by Peter Selinger 2001-2017
<rdf:RDF>
  <cc:Work
     rdf:about="">
    <dc:format>image/svg+xml</dc:format>
    <dc:type
       rdf:resource="http://purl.org/dc/dcmitype/StillImage" />
    <dc:title></dc:title>
  </cc:Work>
</rdf:RDF>
</metadata>
  <g
     transform="translate(0.000000,1280.000000) scale(0.100000,-0.100000)"
     fill="#000000"
     stroke="none"
     id="g6">
    <path
       d="m 5212,10531 c -29,-10 -69,-32 -89,-48 -45,-36 -160,-204 -173,-252 -6,-21 -19,-40 -32,-46 -25,-11 -37,-48 -28,-85 3,-14 3,-42 0,-62 -7,-39 2,-71 14,-47 3,8 4,4 2,-8 -2,-12 -1,-21 3,-20 4,1 22,-12 39,-30 29,-29 34,-42 53,-159 18,-106 19,-128 8,-135 -12,-7 -12,-9 0,-9 8,0 -3,-13 -24,-30 -21,-16 -41,-30 -45,-30 -17,0 -120,-112 -126,-137 -3,-15 -9,-37 -12,-48 -4,-11 27.2905,-72.5242 -7,-95 l -47.9169,-31.4072 c -91.7673,-15.9674 -118.2981,-45.2701 -210.0654,-99.4301 -83.0773,-45.4058 -122.9267,-45.8348 -171.1225,-139.9318 -44.3479,-58.6554 -69.3759,-51.2947 -98.1304,-163.9875 -7,-22.396 -67.0585,-101.7941 -74.1739,-148.7233 -7.1153,-36.0669 -13.7322,-107.6264 -31.9833,-159.1033 -18.251,-51.477 -33.3142,-124.7214 -38.8973,-187.3284 -24.1216,-85.384 -39.7562,-277.0379 41.4317,-203.2661 -28.149,39.0946 -237.2318,-22.2 -265.3119,-77.965 -29.4112,-9.1791 -85.4804,-48.8481 -141.4811,-135.212 -56.0006,-55.3938 -51.9534,-65.8396 -88.9534,-170.1886 -39.7873,-21.6064 -17.3031,-95.003 -28.3957,-99.4567 -51,-11 -126,-38 -148,-52 -13,-8 -30,-29 -39,-46 -8,-17 -32,-46 -51,-64 l -36,-33 -24,25 -25,25 28,38 c 58,77 220,231 250,238 52,12 55,14 55,42 0,55 -50,99 -99,88 -23,-5 -30,-13 -34,-41 -7,-44 -81,-148 -171,-242 -68,-70 -71,-73 -76,-48 -4,18 -280,273 -980,902 -536,482 -1061,953 -1166,1045 -304,268 -491,399 -567,399 -28,0 -29,-2 -23,-32 22,-109 149,-244 711,-754 1119,-1017 1879,-1694 1901,-1694 13,0 24,-3 24,-6 0,-3 -30,-42 -67,-87 -87,-103 -187,-187 -225,-187 -26,0 -28,-3 -28,-37 1,-61 43,-98 99,-87 26,5 31,11 31,34 0,37 79,154 172,253 l 73,79 43,-32 c 40,-30 42,-34 27,-50 -22,-25 -16,-64 11,-68 11,-2 27,4 34,13 7,8 17,15 23,15 6,0 1,-10 -11,-23 -26,-27 -27,-40 -7,-60 18,-19 52,-11 66,15 6,11 13,18 16,15 2,-3 -1,-14 -8,-25 -20,-31 -4,-56 31,-48 22,4 30,2 30,-8 0,-19 30,-29 46,-15 10,9 37,-9 121,-82 59,-51 135,-117 169,-146 33,-28 85,-87 114,-130 30,-43 59,-81 64,-85 6,-4 27,-8 47,-8 62,0 99,64 69,120 -6,11 -47,38 -92,62 -66,34 -111,70 -240,193 l -159,150 38,30 c 21,17 52,46 70,65 128,136 146.1764,117.9411 405.1764,215.9411 93,35 168.5883,122.8825 197.5883,133.8825 28,13.3117 75.1188,70.3408 81.1188,50.4913 5,10 2.7059,36.4706 20.7059,40.4706 18,3 4.2422,21.5814 25.2422,35.5814 32.2273,15.4636 27.5747,26.149 28.5162,23.9842 -42.8853,27.3416 -135.5191,-145.2126 -74.4643,-165.9185 -106.0295,-110.8195 -243.7836,-75.0082 -230.6125,-205.8609 -197.0451,9.5785 -407.4314,-610.4124 -162.271,-566.5717 103.3806,-260.7464 -163.1433,59.2907 -88,-89 -163.0701,-215.3368 44.1355,-583.4397 57.5267,-450.1256 6.4698,64.4088 -63.3024,-66.3295 -53.4992,-132.8604 70.8106,-120.6678 338.5062,-22.3615 451.3076,-99.1616 80.6066,54.6343 -95.8672,56.0339 -130.4404,69.2133 -418.4923,159.5302 -90.6067,-328.0173 51.6183,-516.9469 20.7647,-73.0588 20.7453,-326.8926 63.7453,-461.8926 162.3405,-480.2176 204.6382,-384.9093 175.6878,-364.4672 -6,-28 29.4578,-59.4211 33.4578,-151.4211 C 4586.4038,4516.3379 4755,4381 4712,4297 c -23,-45 -23,-48 -7,-73 15,-24 15,-27 -4,-60 -33,-55 -27,-79 32,-142 49,-52 36.1765,-64.8824 47.1765,-127.8824 7,-38 17.1176,-92.5294 26.1176,-112.5294 8,-20 22.353,-78.8823 37.353,-129.8823 21,-69 50.3529,-78.7059 39.3529,-74.7059 -11,4 -13,-3 -9,-37 5,-45 11.0588,-88 34.0588,-96 19,-8 20.4706,-56.7647 23.4706,-172.7647 2,-55 28.4706,-114.2353 29.4706,-136.2353 1,-22 -15,-93 -34,-157 -65,-210 -69,-333 -16,-473 25,-69 82,-132 127,-141 l 30,-6 7,-102 c 3,-55 8,-167 10,-247 3,-162 14,-199 66,-244 39,-32 87,-40 162,-25 80,16 125,39 171,90 60,66 76,111 76,216 0,88 -28,275 -51,339 -10,28 -9,39 11,80 47,98 6,228 -108,345 -24,24 21.2133,61.3241 15.2133,74.3241 -14,39 -12.2964,187.6759 20.7036,274.6759 43,111 43.0277,297.7784 54.0277,381.7784 9,73 22.0554,79.2216 38.0554,79.2216 9,0 60,112 60,134 0,27 62,119 71,105 10,-17 46,43 54,90 5,30 15,42 62,71 151.4847,60.6072 268.7828,333.7555 269.2941,552.1765 1,83 -57.4705,-0.8824 -11.2799,54.7411 96.4582,-30.5497 282.3908,498.7647 280.9751,713.8924 3.4574,-99.5302 44.7499,200.4083 80.7658,357.1278 16.8278,73.2245 27.4002,237.4279 36.4002,308.4279 9,72 10.0923,206.5374 -53.6278,206.2954 -63.72,-0.242 103.3651,-98.4961 166.7538,-1.4258 -28.5083,162.1445 -13.1484,165.7474 -7.2365,228.4866 -2.6864,78.1672 -2.4693,96.59 -0.9216,185.9573 0.7861,90.2954 -2.2224,48.6397 -7.8352,150.5272 -1.0264,34.8159 54.9627,95.5496 29.0281,272.7725 -23.5733,128.95 -13.1182,163.8408 -45.95,260.7771 -16.1627,47.7204 -177.1465,314.6017 -317.2034,398.8656 -142.5825,85.7834 -246.0533,60.5963 -229.9141,88.1619 176.2922,-285.8625 497.9737,163.5129 206.9061,362.5074 -36.0232,85.3115 -49.4077,79.8861 -114.8524,183.3795 -6.3725,169.1774 -94.965,130.822 -131.3334,157.7863 5.9238,45.9855 -148.8756,208.3609 -166.016,198.0552 -9.2242,-5.5462 143.3548,-153.3321 166.016,-198.0552 11.088,-95.6524 75.8388,-51.8068 47.0543,-22.3102 47.016,-74.9259 126.6829,-288.0871 285.4336,-381.5189 50.2511,-105.7445 142.2634,-156.8619 146.9678,-167.4222 12.873,-28.8972 178.6007,-164.7389 256.4099,-214.6078 60.3421,-12.4391 10.9614,-48.3991 15.3663,-63.1825 2.57,-8.6252 152.9757,-100.4151 237.9757,-142.4151 219.5986,-114.1533 439.7613,-312.8752 516.1764,-330.9412 52,-47 60.6471,-31.0588 74.6471,-13.0588 13,19 15,18 49,-23 41,-49 152,-117 214,-131 52,-12 114,-68 144,-131 28,-59 56,-100 68,-100 13,0 -1,87 -23,138 -10,23 -14,40 -8,37 16,-11 46,-78 54,-122 3,-23 13,-47 21,-54 8,-6 14,-20 14,-30 0,-26 16,-24 24,4 11,40 6,113 -10,161 -9,26 -14,50 -11,52 8,8 55,-69 80,-128 11,-26 24,-48 28,-48 5,0 9,-9 9,-20 0,-12 7,-20 16,-20 13,0 15,10 9,68 -4,37 -18,91 -30,120 -28,61 -16,70 16,12 12,-22 31,-42 41,-46 10,-3 18,-11 18,-18 0,-18 27,-40 34,-28 9,15 -38,135 -72,184 -21,30 -55,59 -102,87 l -71,43 46,46 c 49,51 47,59 -12,43 -69,-20 -106,-14 -179,29 -38,22 -76,40 -86,40 -9,0 -30,16 -46,36 -24,28 -34,35 -52,29 -12,-4 -19,-12 -16,-20 3,-9 0,-12 -10,-8 -16,6 -18,19 -4,28 17,10 11,20 -20,33 -16,7 -43.3529,57.4706 -68.3529,82.4706 -25,24 -62.4755,30.6822 -66.4118,36.4706 -18.9102,27.8081 -43.6657,115.1257 -274.5294,325.3529 -126,124 -233.759,262.5052 -244.759,266.5052 -21,8 -53.2143,-1.8163 -77.1994,-2.6621 -39.1156,-1.3793 -15.6996,113.339 -159.6828,163.7335 -24.9906,90.0939 4.3945,59.5218 -81.4749,223.7519 -3.4449,110.8487 -125.0987,217.861 -214.5771,360.5217 -81.7906,142.5681 -198.1389,201.0934 -318.812,269.8417 -48.8358,49.8212 -265.7642,115.6241 -309.496,101.4211 -25.8227,-9.1773 54.6479,-16.6479 0,0 -60.5885,38.7572 -61.5685,8.6487 -158.0299,53.9447 -20.7634,28.0789 -67.3245,67.4316 -93.6748,69.6482 -12,6 -9.6967,29.662 -15.6967,49.662 -10,30 -16.6631,9.0796 -1.6631,26.0796 9,10 9.3598,43.2584 12.3598,40.2584 6,-6 52,63 52,79 0,8 6,19 14,25 8,7 17,27 20,46 4,22 13,35 22,35 8,0 13,4 10,9 -3,5 1,14 10,21 8,7 13,19 10,26 -3,8 0,17 7,21 7,5 21,22 31,38 11,17 34,45 53,62 40,38 88,136 78,161 -3,9 -5,18 -3,19 2,1 -8,13 -22,28 -24,25 -48,107 -49,167 -2,51 -43,141 -87,188 -24,26 -69,59 -100,75 -48,25 -67,28 -136,28 -48,-1 -93,4 -114,13 -45,19 -98,17 -162,-5 z M 5027.2353,9396.9412 c 10,0 22.7647,-10.9412 23.7647,-3.9412 0,8 2,8 6,-2 5,-11 7,-11 14,0 7,11 -24.8824,27.9412 -24.8824,14.9412 0,-9 18.8824,-8.9412 10.8824,-14.9412 -7,-6 -123.0241,-57.3668 -144.0241,-93.3668 -34,-42.3523 12.0829,-68.1413 9.0829,-54.8685 -11,88 15.9412,127.2353 38.9412,127.2353 6,0 18,7 27,16 10,11 17,13 20,5 2,-6 8.2353,5.9412 19.2353,5.9412 z M 3600,7884 c 0,-8 -4,-12 -10,-9 -5,3 -10,10 -10,16 0,5 5,9 10,9 6,0 10,-7 10,-16 z m -685,-764 c 3,-5 2,-10 -4,-10 -5,0 -13,5 -16,10 -3,6 -2,10 4,10 5,0 13,-4 16,-10 z m 1155,-345 c 0,-8 -7,-15 -15,-15 -8,0 -15,7 -15,15 0,8 7,15 15,15 8,0 15,-7 15,-15 z m 1254,-607 c -12.2445,-169.3778 -32.6057,-351.7646 -1.6054,-511.7647 -5.8302,-225.759 9.7801,-216.3286 14.6055,-328.0166 C 5360.136,5179.4444 5409.033,4894.1688 5414,4909 c -8,-8 -14,-34 -14,-56 0,-29 -6,-46 -24,-62 -22,-21 7,-17 0,0 6.9607,22.9056 60.3006,398.808 -38.9999,537.2187 -5,19.3163 -22.6149,116.2865 -12.6149,266.7813 23,255 1.6148,629 -26.3852,715 -4,13 -14,0 0,0 18,0 20,-11 26,-142 z"
       id="path4"
       sodipodi:nodetypes="cscccccsscccscsccsccccccccccccccccccccsccccccsccsscsccsccccccsccccccscccccsccccccccccccccccsccscccccccccccscccsccsccccscsccccccssccccccscccccccssccccscccscsccccccsccccsccccsssccccscccccccscscccccsccsccccccccccssccssccccccscccccccsccsscccsccsscssscscscsssssccccscccccsc" />
  </g>
</svg>
