<?xml version="1.0" encoding="UTF-8" standalone="no"?>
<svg
   xmlns:dc="http://purl.org/dc/elements/1.1/"
   xmlns:cc="http://creativecommons.org/ns#"
   xmlns:rdf="http://www.w3.org/1999/02/22-rdf-syntax-ns#"
   xmlns:svg="http://www.w3.org/2000/svg"
   xmlns="http://www.w3.org/2000/svg"
   xmlns:sodipodi="http://sodipodi.sourceforge.net/DTD/sodipodi-0.dtd"
   xmlns:inkscape="http://www.inkscape.org/namespaces/inkscape"
   version="1.0"
   width="880.000000pt"
   height="1280.000000pt"
   viewBox="0 0 880.000000 1280.000000"
   preserveAspectRatio="xMidYMid meet"
   id="svg8"
   sodipodi:docname="60warrior.svg"
   inkscape:version="1.0.2 (e86c870879, 2021-01-15, custom)">
  <defs
     id="defs12" />
  <sodipodi:namedview
     pagecolor="#ffffff"
     bordercolor="#666666"
     borderopacity="1"
     objecttolerance="10"
     gridtolerance="10"
     guidetolerance="10"
     inkscape:pageopacity="0"
     inkscape:pageshadow="2"
     inkscape:window-width="1920"
     inkscape:window-height="1017"
     id="namedview10"
     showgrid="false"
     inkscape:zoom="0.35217233"
     inkscape:cx="890.24969"
     inkscape:cy="620.3084"
     inkscape:window-x="-8"
     inkscape:window-y="-8"
     inkscape:window-maximized="1"
     inkscape:current-layer="svg8"
     inkscape:document-rotation="0" />
  <metadata
     id="metadata2">
Created by potrace 1.15, written by Peter Selinger 2001-2017
<rdf:RDF>
  <cc:Work
     rdf:about="">
    <dc:format>image/svg+xml</dc:format>
    <dc:type
       rdf:resource="http://purl.org/dc/dcmitype/StillImage" />
    <dc:title></dc:title>
  </cc:Work>
</rdf:RDF>
</metadata>
  <g
     transform="translate(0.000000,1280.000000) scale(0.100000,-0.100000)"
     fill="#000000"
     stroke="none"
     id="g6">
    <path
       d="m 5212,10531 c -29,-10 -69,-32 -89,-48 -45,-36 -160,-204 -173,-252 -6,-21 -19,-40 -32,-46 -25,-11 -37,-48 -28,-85 3,-14 3,-42 0,-62 -7,-39 2,-71 14,-47 3,8 4,4 2,-8 -2,-12 -1,-21 3,-20 4,1 22,-12 39,-30 29,-29 34,-42 53,-159 18,-106 19,-128 8,-135 -12,-7 -12,-9 0,-9 8,0 -3,-13 -24,-30 -21,-16 -41,-30 -45,-30 -17,0 -120,-112 -126,-137 -3,-15 -9,-37 -12,-48 -4,-11 27.2905,-72.5242 -7,-95 l -47.9169,-31.4072 c -91.7673,-15.9674 -118.2981,-45.2701 -210.0654,-99.4301 -83.0773,-45.4058 -122.9267,-45.8348 -171.1225,-139.9318 -44.3479,-58.6554 -103.2583,-36.2359 -132.0128,-148.9287 -7,-22.396 -70.8232,-86.7353 -77.9386,-133.6645 -7.1153,-36.0669 -28.791,-111.3911 -47.0421,-162.868 -18.251,-51.477 -62.14,-120.6891 -67.7231,-183.2961 -84.1474,-145.4098 41.7746,-307.424 122.9634,-233.6513 -28.149,39.0946 -274.8789,7.9176 -302.959,-47.8474 -29.4112,-9.1791 -74.1862,-60.1422 -130.1869,-146.5061 -56.0006,-55.3938 -25.6005,-84.6631 -62.6005,-189.0121 -39.7873,-21.6064 -17.3031,-95.003 -28.3957,-99.4567 -51,-11 -126,-38 -148,-52 -13,-8 -30,-29 -39,-46 -8,-17 -32,-46 -51,-64 l -36,-33 -24,25 -25,25 28,38 c 58,77 220,231 250,238 52,12 55,14 55,42 0,55 -50,99 -99,88 -23,-5 -30,-13 -34,-41 -7,-44 -81,-148 -171,-242 -68,-70 -71,-73 -76,-48 -4,18 -280,273 -980,902 -536,482 -1061,953 -1166,1045 -304,268 -491,399 -567,399 -28,0 -29,-2 -23,-32 22,-109 149,-244 711,-754 1119,-1017 1879,-1694 1901,-1694 13,0 24,-3 24,-6 0,-3 -30,-42 -67,-87 -87,-103 -187,-187 -225,-187 -26,0 -28,-3 -28,-37 1,-61 43,-98 99,-87 26,5 31,11 31,34 0,37 79,154 172,253 l 73,79 43,-32 c 40,-30 42,-34 27,-50 -22,-25 -16,-64 11,-68 11,-2 27,4 34,13 7,8 17,15 23,15 6,0 1,-10 -11,-23 -26,-27 -27,-40 -7,-60 18,-19 52,-11 66,15 6,11 13,18 16,15 2,-3 -1,-14 -8,-25 -20,-31 -4,-56 31,-48 22,4 30,2 30,-8 0,-19 30,-29 46,-15 10,9 37,-9 121,-82 59,-51 135,-117 169,-146 33,-28 85,-87 114,-130 30,-43 59,-81 64,-85 6,-4 27,-8 47,-8 62,0 99,64 69,120 -6,11 -47,38 -92,62 -66,34 -111,70 -240,193 l -159,150 38,30 c 21,17 52,46 70,65 128,136 146.1764,117.9411 405.1764,215.9411 93,35 168.5883,122.8825 197.5883,133.8825 28,13.3117 75.1188,70.3408 81.1188,50.4913 5,10 2.7059,36.4706 20.7059,40.4706 18,3 4.2422,21.5814 25.2422,35.5814 32.2273,15.4636 27.5747,26.149 28.5162,23.9842 -42.8853,27.3416 -146.1673,-139.8885 -85.1125,-160.5944 -32.5913,-123.0592 -270.3401,-84.1707 -302.7878,-207.4203 -243.147,9.5785 -450.9337,-614.1771 -79.4475,-570.3364 103.3806,-260.7464 -272.3198,142.1142 -197.1765,-6.1765 -165.0311,-265.4442 107.5198,-691.9002 83.8797,-532.9491 -9.5227,64.0287 -52.0083,-36.2119 -42.2051,-102.7428 70.8106,-120.6678 410.0356,-52.4791 522.837,-129.2792 80.6066,54.6343 -95.667,56.5715 -130.4404,69.2133 -524.891,190.8239 -340.3941,-343.7635 -136.5062,-550.8292 9.604,-70.8267 64.6433,-301.0591 161.5169,-446.8338 100.9855,-507.5223 220.0496,-379.0255 213.4652,-362.2815 -6,-28 -48.3288,59.0205 -44.3288,-32.9795 C 4456.0417,4618.1417 4755,4381 4712,4297 c -23,-45 -23,-48 -7,-73 15,-24 15,-27 -4,-60 -33,-55 -27,-79 32,-142 49,-52 36.1765,-64.8824 47.1765,-127.8824 7,-38 17.1176,-92.5294 26.1176,-112.5294 8,-20 22.353,-78.8823 37.353,-129.8823 21,-69 50.3529,-78.7059 39.3529,-74.7059 -11,4 -13,-3 -9,-37 5,-45 11.0588,-88 34.0588,-96 19,-8 20.4706,-56.7647 23.4706,-172.7647 2,-55 28.4706,-114.2353 29.4706,-136.2353 1,-22 -15,-93 -34,-157 -65,-210 -69,-333 -16,-473 25,-69 82,-132 127,-141 l 30,-6 7,-102 c 3,-55 8,-167 10,-247 3,-162 14,-199 66,-244 39,-32 87,-40 162,-25 80,16 125,39 171,90 60,66 76,111 76,216 0,88 -28,275 -51,339 -10,28 -9,39 11,80 47,98 36.1176,228 -77.8824,345 -24,24 6.1545,61.3241 0.1545,74.3241 -14,39 74.2919,187.6759 107.2919,274.6759 43,111 74.9723,299.3378 85.9723,383.3378 9,73 17.3772,109.3392 33.3772,109.3392 9,0 13.0749,108.0461 13.0749,130.0461 0,27 10.1292,91.2769 19.1292,77.2769 10,-17 15.8824,43 23.8824,90 5,30 15,42 62,71 151.4847,60.6072 268.7828,333.7555 269.2941,552.1765 1,83 -46.1906,-55.6235 0,0 96.4582,-30.5497 333.1731,428.3571 331.7574,643.4848 3.4574,-99.5302 87.7211,263.7623 123.737,420.4818 16.8278,73.2245 34.1729,416.3528 43.1729,487.3528 9,72 -101.7138,89.4072 -165.4339,89.1652 -63.72,-0.242 160.5599,-109.4673 223.9486,-12.397 -24.3043,97.2078 39.8398,65.9918 79.2792,218.0723 34.6423,130.493 18.1471,24.8206 53.8022,230.5484 9.6218,56.1123 43.4088,108.8271 5.0696,184.4682 43.3274,54.984 -75.2986,343.6463 -127.6382,464.0062 -50.5565,116.2595 -174.5589,285.7143 -417.8262,411.2624 -147.8677,76.3132 -246.0533,60.5963 -229.9141,88.1619 218.3838,-312.0282 609.287,93.8456 206.9061,362.5074 -36.0232,85.3115 -49.4077,79.8861 -114.8524,183.3795 -6.3725,169.1774 -94.965,130.822 -131.3334,157.7863 5.9238,45.9855 -148.8756,208.3609 -166.016,198.0552 -9.2242,-5.5462 143.3548,-153.3321 166.016,-198.0552 11.088,-95.6524 75.8388,-51.8068 47.0543,-22.3102 47.016,-74.9259 126.6829,-288.0871 285.4336,-381.5189 43.7029,-112.2927 117.8523,-193.3781 117.6853,-172.7463 -0.6646,82.0953 10.8937,-193.1525 280.0453,-226.2249 60.3421,-12.4391 -17.2739,-23.9285 -12.869,-38.7119 2.57,-8.6252 149.5894,-142.5511 234.5894,-184.5511 179.9952,-137.9153 471.5811,-281.5379 553.4451,-296.3346 52,-47 60.6471,-31.0588 74.6471,-13.0588 13,19 15,18 49,-23 39.2189,-50.3359 128.6071,-134.5447 214,-131 52,-12 114,-68 144,-131 28,-59 56,-100 68,-100 13,0 -1,87 -23,138 -10,23 -14,40 -8,37 16,-11 46,-78 54,-122 3,-23 13,-47 21,-54 8,-6 14,-20 14,-30 0,-26 16,-24 24,4 11,40 6,113 -10,161 -9,26 -14,50 -11,52 8,8 55,-69 80,-128 11,-26 24,-48 28,-48 5,0 9,-9 9,-20 0,-12 7,-20 16,-20 13,0 15,10 9,68 -4,37 -18,91 -30,120 -28,61 -16,70 16,12 12,-22 31,-42 41,-46 10,-3 18,-11 18,-18 0,-18 27,-40 34,-28 9,15 -38,135 -72,184 -21,30 -55,59 -102,87 l -71,43 46,46 c 49,51 47,59 -12,43 -69,-20 -115.3172,13.9515 -188.3172,56.9515 -38,22 -66.6828,12.0485 -76.6828,12.0485 -9,0 -30,16 -46,36 -24,28 -34,35 -52,29 -12,-4 -19,-12 -16,-20 3,-9 0,-12 -10,-8 -16,6 -18,19 -4,28 17,10 21.6482,23.9931 -9.3518,36.9931 -16,7 -32.7047,45.4914 -57.7047,70.4914 -25,24 -65.1376,49.3165 -69.0739,55.1049 -18.9102,27.8081 -38.3416,131.098 -269.2053,341.3252 -126,124 -257.7174,269.7671 -268.7174,273.7671 -21,8 -24.979,-22.5222 -48.9641,-23.368 -39.1156,-1.3793 -43.9349,100.1625 -187.9181,150.557 -24.9906,90.0939 4.3945,59.5218 -81.4749,223.7519 -3.4449,110.8487 -127.0365,232.7306 -216.5149,375.3913 -121.155,136.0074 -177.9158,186.1656 -298.2399,254.9721 -48.8358,49.8212 -284.3985,115.6241 -328.1303,101.4211 -25.8227,-9.1773 54.6479,-16.6479 0,0 -60.5885,40.431 -61.5685,25.906 -158.0299,53.9447 -20.7634,28.0789 -67.3245,67.4316 -93.6748,69.6482 -12,6 -9.6967,29.662 -15.6967,49.662 -10,30 -16.6631,9.0796 -1.6631,26.0796 9,10 9.3598,43.2584 12.3598,40.2584 6,-6 52,63 52,79 0,8 6,19 14,25 8,7 17,27 20,46 4,22 13,35 22,35 8,0 13,4 10,9 -3,5 1,14 10,21 8,7 13,19 10,26 -3,8 0,17 7,21 7,5 21,22 31,38 11,17 34,45 53,62 40,38 88,136 78,161 -3,9 -5,18 -3,19 2,1 -8,13 -22,28 -24,25 -48,107 -49,167 -2,51 -43,141 -87,188 -24,26 -69,59 -100,75 -48,25 -67,28 -136,28 -48,-1 -93,4 -114,13 -45,19 -98,17 -162,-5 z M 5027.2353,9396.9412 c 10,0 22.7647,-10.9412 23.7647,-3.9412 0,8 2,8 6,-2 5,-11 7,-11 14,0 7,11 -24.8824,27.9412 -24.8824,14.9412 0,-9 18.8824,-8.9412 10.8824,-14.9412 -24.6149,1.3395 -185.1498,-31.4811 -144.0241,-93.3668 -34,-42.3523 12.0829,-68.1413 9.0829,-54.8685 -11,88 15.9412,127.2353 38.9412,127.2353 6,0 18,7 27,16 10,11 17,13 20,5 2,-6 8.2353,5.9412 19.2353,5.9412 z M 3600,7884 c 0,-8 -4,-12 -10,-9 -5,3 -10,10 -10,16 0,5 5,9 10,9 6,0 10,-7 10,-16 z m -685,-764 c 3,-5 2,-10 -4,-10 -5,0 -13,5 -16,10 -3,6 -2,10 4,10 5,0 13,-4 16,-10 z m 1155,-345 c 0,-8 -7,-15 -15,-15 -8,0 -15,7 -15,15 0,8 7,15 15,15 8,0 15,-7 15,-15 z m 1254,-607 c -12.2445,-169.3778 -32.6057,-351.7646 -1.6054,-511.7647 -5.8302,-225.759 9.7801,-216.3286 14.6055,-328.0166 C 5360.136,5179.4444 5409.033,4894.1688 5414,4909 c -8,-8 -14,-34 -14,-56 0,-29 -6,-46 -24,-62 -22,-21 7,-17 0,0 6.9607,22.9056 60.3006,398.808 -38.9999,537.2187 -5,19.3163 -22.6149,116.2865 -12.6149,266.7813 23,255 1.6148,629 -26.3852,715 -4,13 -14,0 0,0 18,0 20,-11 26,-142 z"
       id="path4"
       sodipodi:nodetypes="cscccccsscccscsccsccccccccccccccccccccsccccccsccsscsccsccccccsccccccscccccsccccccccccccccccsccscccccccccccscccsccsccccscsccccccssccccccsccccccssccccscccscsccccccsccccsccccsssccccscccccccscscccccsccsccccccccccssccssccccccscccccccsccsscccsccsscssscscscsssssccccscccccsc" />
  </g>
</svg>
