<?xml version="1.0" encoding="UTF-8" standalone="no"?>
<svg
   xmlns:dc="http://purl.org/dc/elements/1.1/"
   xmlns:cc="http://creativecommons.org/ns#"
   xmlns:rdf="http://www.w3.org/1999/02/22-rdf-syntax-ns#"
   xmlns:svg="http://www.w3.org/2000/svg"
   xmlns="http://www.w3.org/2000/svg"
   xmlns:sodipodi="http://sodipodi.sourceforge.net/DTD/sodipodi-0.dtd"
   xmlns:inkscape="http://www.inkscape.org/namespaces/inkscape"
   version="1.0"
   width="880.000000pt"
   height="1280.000000pt"
   viewBox="0 0 880.000000 1280.000000"
   preserveAspectRatio="xMidYMid meet"
   id="svg8"
   sodipodi:docname="80warrior.svg"
   inkscape:version="1.0.2 (e86c870879, 2021-01-15, custom)">
  <defs
     id="defs12" />
  <sodipodi:namedview
     pagecolor="#ffffff"
     bordercolor="#666666"
     borderopacity="1"
     objecttolerance="10"
     gridtolerance="10"
     guidetolerance="10"
     inkscape:pageopacity="0"
     inkscape:pageshadow="2"
     inkscape:window-width="1920"
     inkscape:window-height="1017"
     id="namedview10"
     showgrid="false"
     inkscape:zoom="0.49804688"
     inkscape:cx="265.0898"
     inkscape:cy="740.55499"
     inkscape:window-x="-8"
     inkscape:window-y="-8"
     inkscape:window-maximized="1"
     inkscape:current-layer="svg8"
     inkscape:document-rotation="0" />
  <metadata
     id="metadata2">
Created by potrace 1.15, written by Peter Selinger 2001-2017
<rdf:RDF>
  <cc:Work
     rdf:about="">
    <dc:format>image/svg+xml</dc:format>
    <dc:type
       rdf:resource="http://purl.org/dc/dcmitype/StillImage" />
    <dc:title></dc:title>
  </cc:Work>
</rdf:RDF>
</metadata>
  <g
     transform="translate(0.000000,1280.000000) scale(0.100000,-0.100000)"
     fill="#000000"
     stroke="none"
     id="g6">
    <path
       d="m 5212,10531 c -29,-10 -69,-32 -89,-48 -45,-36 -160,-204 -173,-252 -6,-21 -19,-40 -32,-46 -25,-11 -37,-48 -28,-85 3,-14 3,-42 0,-62 -7,-39 2,-71 14,-47 3,8 4,4 2,-8 -2,-12 -1,-21 3,-20 4,1 22,-12 39,-30 28.968,-29.0457 -1.0418,-92.0597 53,-159 -52.2905,-273.9695 25.6254,-156.0152 14.6551,-162.9515 -12,-7 -23.9792,6.9723 -11.9792,6.9723 8,0 2.3241,-1.0208 -18.6759,-18.0208 -21,-16 -41,-30 -45,-30 -17,0 -120,-112 -126,-137 -3,-15 -9,-37 -12,-48 -4,-11 31.852,-81.9034 -7,-95 l -93.1717,-31.4072 c -91.7673,-15.9674 -128.9463,-23.9737 -220.7136,-78.1337 -83.0773,-45.4058 -114.9406,-37.8487 -163.1364,-131.9457 -17.0427,-13.1467 -86.9158,-48.929 -116.0405,-162.2389 -7,-22.396 -65.4991,-84.0733 -72.6145,-131.0025 -7.1153,-36.0669 -44.7633,-111.3911 -63.0144,-162.868 -18.251,-51.477 -48.8297,-131.3373 -54.4128,-193.9443 -93.6253,-211.7548 66.7716,-345.4088 152.2459,-241.6374 -28.149,39.0946 -271.1142,26.7411 -299.1943,-29.0239 -29.4112,-9.1791 -77.9509,-78.9657 -133.9516,-165.3296 -56.0006,-55.3938 -25.6005,-84.6631 -62.6005,-189.0121 -39.7873,-21.6064 -17.3031,-95.003 -28.3957,-99.4567 -51,-11 -126,-38 -148,-52 -13,-8 -30,-29 -39,-46 -8,-17 -32,-46 -51,-64 l -36,-33 -24,25 -25,25 28,38 c 58,77 220,231 250,238 52,12 55,14 55,42 0,55 -50,99 -99,88 -23,-5 -30,-13 -34,-41 -7,-44 -81,-148 -171,-242 -68,-70 -71,-73 -76,-48 -4,18 -280,273 -980,902 -536,482 -1061,953 -1166,1045 -304,268 -491,399 -567,399 -28,0 -29,-2 -23,-32 22,-109 149,-244 711,-754 1119,-1017 1879,-1694 1901,-1694 13,0 24,-3 24,-6 0,-3 -30,-42 -67,-87 -87,-103 -187,-187 -225,-187 -26,0 -28,-3 -28,-37 1,-61 43,-98 99,-87 26,5 31,11 31,34 0,37 79,154 172,253 l 73,79 43,-32 c 40,-30 42,-34 27,-50 -22,-25 -16,-64 11,-68 11,-2 27,4 34,13 7,8 17,15 23,15 6,0 1,-10 -11,-23 -26,-27 -27,-40 -7,-60 18,-19 52,-11 66,15 6,11 13,18 16,15 2,-3 -1,-14 -8,-25 -20,-31 -4,-56 31,-48 22,4 30,2 30,-8 0,-19 30,-29 46,-15 10,9 37,-9 121,-82 59,-51 135,-117 169,-146 33,-28 85,-87 114,-130 30,-43 59,-81 64,-85 6,-4 27,-8 47,-8 62,0 99,64 69,120 -6,11 -47,38 -92,62 -66,34 -111,70 -240,193 l -159,150 38,30 c 21,17 52,46 70,65 128,136 146.1764,117.9411 405.1764,215.9411 93,35 168.5883,122.8825 197.5883,133.8825 28,13.3117 75.1188,70.3408 81.1188,50.4913 5,10 -99.1188,-54.4913 -81.1188,-50.4913 -7.4891,3 9.497,-47.1796 47.2054,-33.1796 32.2273,15.4636 107.4362,185.8719 108.3777,183.7071 -42.8853,27.3416 -170.1257,-129.2403 -109.0709,-149.9462 -32.5913,-123.0592 -299.0876,-98.5836 -331.5353,-221.8332 -446.2228,-26.8438 -533.5289,-633.5903 -26.7416,-566.5717 103.3806,-260.7464 -411.6139,292.5916 -336.4706,144.3009 -289.2683,-285.5085 35.8626,-928.3467 151.6444,-672.1324 26.657,58.9895 -127.3024,1.4352 -117.4992,-65.0957 70.8106,-120.6678 556.8591,-101.4203 669.6605,-178.2204 80.6066,54.6343 -98.1394,51.1677 -130.4404,69.2133 -852.1043,476.0452 -408.4973,-508.7519 -320.1093,-603.1567 106.9387,-335.9437 305.1757,-413.0345 270.5826,-415.8027 100.9855,-507.5223 294.587,-357.7291 288.0026,-340.9851 -6,-28 -48.3288,59.0205 -44.3288,-32.9795 C 4327.8221,4669.3005 4634.0234,4336.0871 4712,4297 c -23,-45 -23,-48 -7,-73 15,-24 15,-27 -4,-60 -33,-55 -27,-79 32,-142 49,-52 36.1765,-64.8824 47.1765,-127.8824 7,-38 17.1176,-92.5294 26.1176,-112.5294 8,-20 22.353,-78.8823 37.353,-129.8823 21,-69 50.3529,-78.7059 39.3529,-74.7059 -11,4 -13,-3 -9,-37 5,-45 11.0588,-88 34.0588,-96 19,-8 20.4706,-56.7647 23.4706,-172.7647 2,-55 28.4706,-114.2353 29.4706,-136.2353 1,-22 -15,-93 -34,-157 -65,-210 -69,-333 -16,-473 25,-69 82,-132 127,-141 l 30,-6 7,-102 c 3,-55 8,-167 10,-247 3,-162 14,-199 66,-244 39,-32 87,-40 162,-25 80,16 125,39 171,90 60,66 76,111 76,216 0,88 -28,275 -51,339 -10,28 -9,39 11,80 47,98 78.7104,228 -35.2896,345 -24,24 22.1268,45.3518 16.1268,58.3518 -14,39 58.3196,193 91.3196,280 43,111 74.9723,315.3101 85.9723,399.3101 9,73 17.3772,104.0151 33.3772,104.0151 9,0 18.399,108.0461 18.399,130.0461 0,27 -0.519,91.2769 8.481,77.2769 10,-17 5.2342,43 13.2342,90 5,30 -11.6205,42 35.3795,71 151.4847,60.6072 369.9407,317.7832 370.452,536.2042 1,83 -46.1906,-55.6235 0,0 105.674,-67.4129 289.9061,367.1647 283.8405,600.892 104.5651,186.0548 42.9162,35.0451 166.3298,383.2131 52.7941,148.94 87.9553,299.5699 98.8579,404.4658 20.3263,195.5629 9.5944,244.5696 4.1215,234.1926 9,72 -257.3541,33.9354 -321.0742,33.6934 -63.72,-0.242 284.306,-133.4257 347.6947,-36.3554 -25.3771,91.6993 1.9915,-97.2079 65.5122,124.9005 34.6423,130.493 38.3408,65.2081 73.9959,270.9359 9.6218,56.1123 19.4504,137.007 -18.8888,212.6481 43.3274,54.984 -74.2698,380.2691 -126.6139,500.629 -50.5565,116.2595 -281.7976,297.6543 -525.0649,423.2024 -147.8677,76.3132 -246.0533,60.5963 -229.9141,88.1619 346.7575,-432.1496 777.7209,-61.7361 206.9061,362.5074 -36.0232,85.3115 -49.4077,79.8861 -114.8524,183.3795 -6.3725,169.1774 -94.965,130.822 -131.3334,157.7863 5.9238,45.9855 -148.8756,208.3609 -166.016,198.0552 -9.2242,-5.5462 143.3548,-153.3321 166.016,-198.0552 11.088,-95.6524 75.8388,-51.8068 47.0543,-22.3102 47.016,-74.9259 126.6829,-288.0871 285.4336,-381.5189 43.7029,-112.2927 120.3735,-193.2029 117.6853,-172.7463 -9.88,75.1837 -10.7382,-259.9552 301.3416,-260.8315 60.3421,-12.4391 -57.2045,13.3402 -52.7996,-1.4433 2.57,-8.6252 146.9273,-163.8474 231.9273,-205.8474 211.1534,-170.7201 496.3404,-272.9461 574.7415,-277.7003 52,-47 60.6471,-31.0588 74.6471,-13.0588 10.5969,11.7908 7.3576,-4.9272 49,-23 25.2891,-52.6575 121.7773,-135.683 214,-131 52,-12 114,-68 144,-131 28,-59 56,-100 68,-100 13,0 -1,87 -23,138 -10,23 -14,40 -8,37 16,-11 46,-78 54,-122 3,-23 13,-47 21,-54 8,-6 14,-20 14,-30 0,-26 16,-24 24,4 11,40 6,113 -10,161 -9,26 -14,50 -11,52 8,8 55,-69 80,-128 11,-26 24,-48 28,-48 5,0 9,-9 9,-20 0,-12 7,-20 16,-20 13,0 15,10 9,68 -4,37 -18,91 -30,120 -28,61 -16,70 16,12 12,-22 31,-42 41,-46 10,-3 18,-11 18,-18 0,-18 27,-40 34,-28 9,15 -38,135 -72,184 -21,30 -55,59 -102,87 l -71,43 46,46 c 49,51 47,59 -12,43 -69,-20 -113.9862,23.2687 -186.9862,66.2687 -38,22 -68.0138,2.7313 -78.0138,2.7313 -9,0 -30,16 -46,36 -24,28 -34,35 -52,29 -12,-4 -19,-12 -16,-20 3,-9 0,-12 -10,-8 -16,6 -18,19 -4,28 17,10 21.6482,23.9931 -9.3518,36.9931 -16,7 -19.3945,45.4914 -44.3945,70.4914 -25,24 -51.8273,57.3026 -55.7636,63.091 -18.9102,27.8081 -35.6796,147.0703 -266.5433,357.2975 -126,124 -292.324,267.1051 -303.324,271.1051 -21,8 3.7118,-25.9923 -19.6816,-31.3542 -6.0177,-1.3793 37.8011,67.7732 -191.1706,157.9527 -38.6098,21.1795 112.9239,-94.8872 -94.1947,184.4117 31.0827,117.8067 -151.7071,272.9713 -270.4018,397.1444 -94.0746,157.697 -203.03,242.6522 -262.5696,269.4242 -48.8358,49.8212 -270.1749,102.0463 -313.9067,87.8433 -25.8227,-9.1773 55.9789,-5.9997 1.331,10.6482 -60.5885,40.431 -66.8926,11.2647 -163.354,39.3034 -20.7634,28.0789 -56.6763,74.7522 -83.0266,76.9688 -7.2496,1.6572 4.1779,2.5846 -17.0277,41.0104 -10,30 -5.6953,-7.9398 4.5352,20.9839 12.6103,6.3897 13.8109,18.3572 14.1476,16.0715 2.5949,-17.6153 36.428,84.0917 34.6967,109.6136 -0.5414,7.9817 6,19 14,25 8,7 17,27 20,46 4,22 13,35 22,35 8,0 13,4 10,9 -3,5 1,14 10,21 8,7 13,19 10,26 -3,8 0,17 7,21 7,5 21,22 31,38 11,17 34,45 53,62 40,38 88,136 78,161 -3,9 -5,18 -3,19 2,1 -8,13 -22,28 -24,25 -48,107 -49,167 -2,51 -43,141 -87,188 -24,26 -69,59 -100,75 -48,25 -67,28 -136,28 -48,-1 -93,4 -114,13 -45,19 -98,17 -162,-5 z M 5027.2353,9396.9412 c 10,0 22.7647,-10.9412 23.7647,-3.9412 0,8 2,8 6,-2 5,-11 7,-11 14,0 7,11 -24.8824,27.9412 -24.8824,14.9412 0,-9 18.8824,-8.9412 10.8824,-14.9412 -24.6149,1.3395 -185.1498,-31.4811 -144.0241,-93.3668 -34,-42.3523 12.0829,-68.1413 9.0829,-54.8685 -11,88 15.9412,127.2353 38.9412,127.2353 6,0 18,7 27,16 10,11 17,13 20,5 2,-6 8.2353,5.9412 19.2353,5.9412 z M 3600,7884 c 0,-8 -4,-12 -10,-9 -5,3 -10,10 -10,16 0,5 5,9 10,9 6,0 10,-7 10,-16 z m -685,-764 c 3,-5 2,-10 -4,-10 -5,0 -13,5 -16,10 -3,6 -2,10 4,10 5,0 13,-4 16,-10 z m 1155,-345 c 0,-8 -7,-15 -15,-15 -8,0 -15,7 -15,15 0,8 7,15 15,15 8,0 15,-7 15,-15 z m 1254,-607 c -12.2445,-169.3778 -32.6057,-351.7646 -1.6054,-511.7647 -5.8302,-225.759 9.7801,-216.3286 14.6055,-328.0166 C 5360.136,5179.4444 5409.033,4894.1688 5414,4909 c -8,-8 -14,-34 -14,-56 0,-29 -6,-46 -24,-62 -22,-21 7,-17 0,0 6.9607,22.9056 60.3006,398.808 -38.9999,537.2187 -5,19.3163 -22.6149,116.2865 -12.6149,266.7813 23,255 1.6148,629 -26.3852,715 -4,13 -14,0 0,0 18,0 20,-11 26,-142 z"
       id="path4"
       sodipodi:nodetypes="cscccccsscccscsccsccccccccccccccccccccsccccccsccsscsccsccccccsccccccscccccsccccccccccccccccsccscccccccccccscccsccsccccscsccccccssccccccssccccccssccccscccscsccccccsccccsccccsssccccscccccccscscccccsccsccccccccccssccssccccccscccccccsccsscccsccsscssscscscsssssccccscccccsc" />
  </g>
</svg>
