<?xml version="1.0" encoding="UTF-8" standalone="no"?>
<svg
   xmlns:dc="http://purl.org/dc/elements/1.1/"
   xmlns:cc="http://creativecommons.org/ns#"
   xmlns:rdf="http://www.w3.org/1999/02/22-rdf-syntax-ns#"
   xmlns:svg="http://www.w3.org/2000/svg"
   xmlns="http://www.w3.org/2000/svg"
   xmlns:sodipodi="http://sodipodi.sourceforge.net/DTD/sodipodi-0.dtd"
   xmlns:inkscape="http://www.inkscape.org/namespaces/inkscape"
   version="1.0"
   width="642.000000pt"
   height="1280.000000pt"
   viewBox="0 0 642.000000 1280.000000"
   preserveAspectRatio="xMidYMid meet"
   id="svg50"
   sodipodi:docname="60nightwalker.svg"
   inkscape:version="1.0.2 (e86c870879, 2021-01-15, custom)">
  <defs
     id="defs54" />
  <sodipodi:namedview
     pagecolor="#ffffff"
     bordercolor="#666666"
     borderopacity="1"
     objecttolerance="10"
     gridtolerance="10"
     guidetolerance="10"
     inkscape:pageopacity="0"
     inkscape:pageshadow="2"
     inkscape:window-width="1920"
     inkscape:window-height="1017"
     id="namedview52"
     showgrid="false"
     inkscape:zoom="0.49804687"
     inkscape:cx="905.85597"
     inkscape:cy="812.19373"
     inkscape:window-x="-8"
     inkscape:window-y="-8"
     inkscape:window-maximized="1"
     inkscape:current-layer="svg50" />
  <metadata
     id="metadata2">
Created by potrace 1.15, written by Peter Selinger 2001-2017
<rdf:RDF>
  <cc:Work
     rdf:about="">
    <dc:format>image/svg+xml</dc:format>
    <dc:type
       rdf:resource="http://purl.org/dc/dcmitype/StillImage" />
    <dc:title></dc:title>
  </cc:Work>
</rdf:RDF>
</metadata>
  <g
     transform="translate(0.000000,1280.000000) scale(0.100000,-0.100000)"
     fill="#000000"
     stroke="none"
     id="g48">
    <path
       d="m 2736.1247,12276 c -21,-7 -49,-21 -63,-30 -13,-9 -38,-16 -55,-16 -17,0 -29,-4 -26,-8 3,-5 -8,-6 -24,-4 -20,3 -47,-6 -87,-28 -32,-18 -155.5512,-43.676 -194.5512,-63.676 -122,-62 -365,-321 -339,-362 4,-7 3,-9 -3,-6 -13,8 -26,-20 -16,-35 3,-6 1,-8 -4,-5 -21,13 -129,-277 -117,-315 4,-15 3,-18 -6,-13 -10,6 -11,1 -6,-21 4,-16 4,-26 0,-22 -9,10 -46.2608,-87 -47.5868,-123 0,-15 -14.5869,-66 -33.152,-113 -26.5215,-69 -33.1519,-109 -33.1519,-199 0,-83 -6.6304,-128 -26.5215,-172 -29.1737,-71 -34.478,-54 -6.6304,25 10.6086,30 18.5651,71 18.5651,90 l -2.6522,35 -10.6086,-35 c -7.9565,-25 -9.2825,-17 -3.9782,30 3.9782,46 2.6521,61 -7.9565,50 -6.6304,-8 -13.2608,-10 -13.2608,-5 1.3261,11 57.0213,169 71.6082,200 7.9564,15 5.3043,15 -7.9565,-3 -10.6086,-12 -23.8694,-19 -30.4997,-15 -5.3044,4 -6.6304,3 -1.3261,-4 10.6086,-14 -19.8912,-104 -33.1519,-97 -17.239,8 -25.1955,-49 -21.2173,-151 5.3043,-113 -52.5229,-294 -80.5229,-346 -9,-18 -14,-38 -10,-44 4,-6 3,-8 -3,-5 -6,4 -17,-8 -24,-26 -14,-33 -15,-37 -17,-75 -1,-13 -5,-21 -9,-19 -5,3 -9,-19 -11,-49 -2,-37 2,-56 10,-59 10,-4 13,-67 14,-277.9999 1,-198 5,-294 16,-352 l 15,-80 -5,110 c -3,61 -10,113 -15,117 -7,4 -8,69 -4,186 7,187.9999 17,249.9999 28,176.9999 4,-22 5,24 3,102 -4,131 -3,144 17,178 18,30 24,34 31,21 5,-9 11,-192 13,-408 5,-446.9999 9,-504.9999 35,-634.9999 30,-145 56,-222 148,-433 46,-107 100,-232 120,-278 19,-45 37,-81 39,-79 2,2 -19,57 -47,121 -27,65 -50,121 -49,124 0,4 20,-31 44,-78 24,-47 44,-82 44,-79 1,4 -46,124 -104,268 -107,269 -150,397 -140,424 4,8 -1,42 -9,75 -19,70 -20,92 -5,92 5,0 8,-4 5,-8 -2,-4 2,-39 10,-77 8,-38 12,-75 10,-82 -5,-12 133,-367 140,-360 2,2 -21,69 -51,150 -30,80 -55,154 -55,164 0,10 13,-18 29,-62 15,-44 50,-132 76,-195 26,-63 90,-221 142,-350 93,-233 173,-413 180,-407 2,2 -18,51 -44,108 -41,93 -52,131 -54,192 0,9 -4,15 -9,12 -12,-7 -61,121 -53,141 4,11 2,15 -4,11 -14,-9 -23,15 -16,45 3,15 2,19 -4,10 -7,-8 -17,11 -33,63 -13,41 -29,75 -35,75 -25,0 -131,276 -159,414 -9,41 -16,92 -16,113 1,30 6,19 25,-52 22,-86 68,-220 121,-352 13,-34 24,-72 24,-85 0,-17 3,-19 9,-9 7,10 14,-3 27,-45 10,-32 22,-65 28,-72 5,-7 31,-67 56,-132 26,-66 57,-135 68,-155 12,-19 19,-42 15,-52 -4,-11 -3,-14 5,-9 8,5 10,1 5,-10 -5,-13 -3,-15 7,-9 8,5 11,4 7,-2 -4,-6 7,-32 24,-58 37,-58 32,-71 -6,-15 -15,22 -30,40 -32,40 -9,0 32,-58 74,-105 29,-32 -11.5628,4.136 -25.5628,25.136 -30,45 -11.4372,16.864 25.5628,-25.136 -40.4255,113.9582 -14.9165,-57.4523 -11.8707,-136.4706 -2.6788,-104.6788 120.8152,-290.09 180.964,-369.9412 -13.3902,14.3995 -25.4199,130.7291 -51.8707,105.9468 -33.0612,0.052 -155.3654,-54.4995 -224.1026,-201.3263 -204.8551,-304.9512 -153.4709,-781.2146 -95.7556,-867.9557 53.0912,-79.7915 97.9635,-197.4427 130.8905,-193.2483 225.4786,-258.7055 179.1785,-104.4491 165.1152,-148.4464 16,-56 -25.8164,-211.9562 -16.8164,-386.9562 l 16.7901,-120.7786 v 0 c -16,-7 -30,-20 -30,-28 0,-8 -7,-35 -16,-60 -25,-73 -3,-180 37,-180 13,0 -5.5882,-20.7647 0.4118,-95.7647 4,-51 -60.4531,-146.5284 -38.4531,-330.5284 2.5066,-149.4406 2.4586,-369.7935 45.7023,-547.7391 27.7466,-162.7466 70.3136,-69.1215 53.6721,-123.1858 6.5838,-18 44.5054,-37.32 37.15,-57.1338 -4.9135,-13.2357 -10.06,125.1801 0,0 v 0 c -28.5105,-36.9945 -70.8995,-83.668 -94.1129,-307.7809 -47.8738,-204 -0.2741,-426.2835 17.9885,-555.2835 7,-91 49.2282,-216.7625 53.2282,-288.7625 27.7422,-122.2969 49.387,-152.1612 88.8824,-291.5594 C 2466.3866,3010.4095 2644,2828 2654,2741 l 5,-54 -69,-68 c -73,-71 -97,-113 -139,-244 -34,-106 -141,-353 -266,-617 -109,-229 -118,-260 -80,-257 5,0 47,78 93,172 175,361 312,602 350,615 7,2 24,-21 41,-60 35,-78 44,-115 31,-123 -5,-3 -10,-20 -10,-36 0,-16 -9,-66 -21,-111 -18,-71 -20,-90 -10,-153 7,-50 7,-91 0,-136 -6,-35 -8,-84 -4,-109 9,-65 43,-164 70,-204 12,-18 26,-47 29,-62 13,-61 46,-395 41,-404 -4,-6 8,-10 25,-10 26,0 30,3 25,23 -5,23 -35,308 -35,335 0,11 12,5 38,-19 61,-58 111,-92 242,-166 252,-142 452,-232 486,-219 19,7 28,70 15,106 l -10,31 72,-8 c 105,-12 331,-8 417,6 98,17 222,56 251,80 l 22,18 -19,39 c -28,57 -69,72 -324,115 -248,41 -325,65 -374,114 -41,41 -51,79 -107,415 -34,204 -47,262 -66,289 -13,18 -23,41 -23,49 0,9 -10,26 -22,40 -21,21 -23,33 -21,108 1,46 6,91 11,100 5,10 6,32 1,53 -14,62 84.2687,282.3518 151.2687,415.3518 138,278 321.3241,579.3518 415.3241,709.3518 28,39 98.8824,115.9723 116.8824,151.9723 51,75.2903 168.4406,212.2326 356.4406,504.7947 95,120 150.496,246.2941 164.496,268.2941 14,22 38.2353,67.5294 58.2353,91.5294 53.0015,63.0035 114.0591,122.751 125.8269,227.7936 9.6825,43.2965 15.26,58.9949 11.7347,108.9977 -5,109.044 16.3529,95.7093 11.3529,141.6816 -19,120 29.0023,284.9952 -25.9977,518.9952 -4.7424,330.5773 -172.7258,629.6109 -186.4683,715.856 5,36 -52.1787,26.3818 -71.1787,36.3818 -12,7 12,2 0,0 -9.8255,-53.6978 107.2578,-23.273 62.1533,133.1452 -10.8666,78.5334 -65.3659,171.181 -62.918,176.9724 3.3264,7.8699 -99.2353,-71.1176 -75.2353,-61.1176 49,21 38.0831,61 46.0831,103 3,16 8,28 12,28 23,0 208,-321 196,-340 -4,-6 14,-52 39,-103 83,-168 136,-369 136,-513 0,-34 5,-66 10,-69 16,-10 12,212 -5,300 -37,195 -207,584 -320,733 -57,76 -69,112 -36,112 24,0 150,-142 218,-247 63,-97 125,-226 129,-268 1,-16 19,-69 38,-117 61,-144 79,-228 80,-363 1,-66 -2,-139 -7,-163 -13,-72 9,-39 33,50 32,119 25,248 -24,423 -20,71 -43,143 -52,160 -8,16 -31,68 -50,115 -63,153 -137,265 -271,416 -72,82 -78,99 -30,89 38,-8 153,-116 229,-215 55,-72 170,-294 162,-315 -3,-7 11,-58 30,-114 20,-56 43,-138 52,-182 16,-81 15,-109 -12,-219 -6,-24 -6,-25 10,-5 16,20 16,20 11,-5 -39,-187 -37,-196 16,-65 27,69 33,97 39,210 4,72 4,160 -1,197 -11,85 -45,221 -69,273 -10,22 -34,79 -53,127 -48,120 -111,210 -236,338 -58,59 -118,126 -133,148 -24,34 -36,42 -92,56 -36,9 -87,16 -115,16 -46,0 -0.1293,-92.0311 -33.1293,-54.0311 -35.9161,-95.7189 650.9777,178.6514 241.0831,383.9186 60.0692,-459.0853 605.9696,144.155 307.5096,822.4301 -62.9117,229.9371 -326.2175,596.9133 -349.0623,558.8612 17.0336,104.7703 -214.735,243.0219 -242.3078,192.4094 -34.8773,85.5298 -30.9243,-87.0581 158.2791,47.4662 129.3877,105.9011 212.7566,407.0839 106.8259,447.7725 C 4507.5256,9531.3767 4487,9443 4528,9370 c 25,-44 47,-78 49,-76 2,2 -16,44 -41,94 -31.7608,95.4784 21.8759,172.3988 6.8235,195.2941 L 4493,9602 l 44,-68 c 25,-38 71,-123 104,-189 32,-65 59,-109 59,-97 0,13 -7,39 -16,60 -46,108 -41,109 16,5 23,-43 55,-109 71,-148 35,-87 38,-70 4,22 -27,70 -95,233 -123,293 -9,19 -17,40 -17,46 0,6 -23,42 -51,80 -28,38 -79.3172,114.3033 -103.3172,148.3033 -24,34 -35.3518,54.6759 -39.3518,52.6759 -5.1043,4.1776 -23.7254,36.0845 -28.331,14.0208 -16,18 -15,11 0,0 25,-19 21,2 -5,25 -13,12 -18,13 -13,4 5,-9 0,-8 -13,4 -4.4637,62.0726 -31,36 -7,16 8,-7 15,-8 15,-3 0,5 -21,29 -47,53 -26,25 -36,32 -23,15 l 25,-30 -27,24 c -15,13 -25,27 -23,31 2,4 -13,24 -35,45 -22,21 -37,41 -35,45 2,4 -13,21 -35,39 -22,17 -39,37 -37,43 1,6 -52,49 -118,94 -66,46 -127,91 -135,101 -8,10 -42,38 -75,62 -76,56 -293,268 -352,343 -49,64 -58,92 -40,118 12,17 15,15 46,-22 18,-21 31,-41 28,-44 -2,-3 -19,12 -36,33 -17,21 -31,33 -31,28 0,-6 33,-42 72,-80 40,-39 60,-55 43,-37 -47,53 -17,36 52,-28 35,-33 69,-58 74,-54 13,8 40,-16 32,-29 -3,-5 -2,-7 3,-4 10,6 91,-81 87,-94 -1,-3 14,-21 34,-40 26,-25 32,-28 24,-12 -6,12 -21,29 -33,37 -15,11 -18,16 -8,16 18,0 94,-60 86,-67 -5,-6 54,-58 65,-58 30,0 516,-456 505,-473 -3,-5 14,-26 37,-48 50,-48 142,-168 185,-244 36,-62 42,-61 11,3 l -20,42 21,-25 c 11,-14 32,-44 46,-67 27,-45 38,-55 27,-25 -14,39 17,-7 65,-96 27,-51 53,-93 58,-92 4,1 20,-22 36,-52 21,-40 26,-45 22,-23 -13,65 -174,331 -302,498 -182,240 -74,117 176,-199 13,-16 7,-4 -14,26 -66,98 -163,218 -277,342 -61,67 -98,113 -82,103 37,-23 23,-8 -28,29 -20,15 -35,31 -32,36 3,5 0,12 -6,16 -8,4 -9,3 -5,-4 4,-7 2,-12 -3,-12 -6,0 -11,4 -11,10 0,5 -38,48 -84,96 -47,48 -84,92 -83,96 1,5 -43,52 -98,104 -55,53 -91,90 -79,82 33,-21 184,-152 184,-160 0,-12 214,-183 226,-180 11,2 49,-34 49,-47 0,-3 4,-5 9,-3 10,3 113,-85 230,-197 l 89,-86 -79,87 c -43,48 -117,119 -164,159 -159,136 -265,233 -275,249 -5,9 -46,48 -90,87 -96,84 -186,172 -279,271 -37,39 -71,72 -74,72 -13,1 -74,90 -87,126 -7,20 -16,39 -21,43 -16,11 -44,68 -43,88 0,14 2,13 10,-6 5,-14 18,-30 28,-37 10,-7 38,-47 61,-89 24,-41 47,-75 52,-75 4,0 -3,18 -17,40 -28,44 -31,55 -13,44 7,-4 2,7 -11,24 -12,18 -19,37 -15,43 4,8 3,9 -4,5 -7,-4 -13,-2 -13,3 -2,12 -1,11 -16,66 -6,22 -14,53 -17,68 -4,17 -11,25 -18,21 -6,-4 -8,-3 -5,3 12,19 -14,127 -42,173 -35,59 -51,97 -51,120 0,22 16,27 23,8 2,-7 2,-4 0,7 -3,11 -11,56 -17,100 -7,44 -20,95 -30,113 -9,18 -14,38 -10,44 5,7 12,-1 20,-23 8,-22 13,-27 13,-14 1,11 -12,47 -28,80 -38,78 -100,174 -101,155 0,-12 -3,-11 -11,3 -5,9 -7,22 -4,27 4,6 1,9 -5,8 -7,-2 -14,5 -15,15 -2,9 -27,44 -55,77 -58,67 -247,199 -333,232 -68,27 -296.8753,35 -350.8753,14 z m -454.5512,-184.676 c 0,-2 -8,-10 -17,-17 -16,-13 -17,-12 -4,4 13,16 21,21 21,13 z m -66,-58 c -10,-13 -43,-49 -72,-81 -96,-107 -179,-245 -233,-392 -36,-98 -59,-142 -59,-113 0,57 101,274 178,383 46,66 188,225 200,225 3,0 -3,-10 -14,-22 z m -204,-198 c -6,-11 -13,-20 -16,-20 -2,0 0,9 6,20 6,11 13,20 16,20 2,0 0,-9 -6,-20 z m -141,-264 c -12,-31 -24,-55 -26,-53 -2,2 6,30 18,61 12,31 24,55 26,53 2,-2 -6,-30 -18,-61 z m -35,-100 c -3,-15 -8,-25 -11,-23 -2,3 -1,17 3,31 3,15 8,25 11,23 2,-3 1,-17 -3,-31 z M 3589,11175 c 32,-99 32,-123 1,-53 -23,52 -45,135 -53,198 l -6,45 15,-50 c 8,-27 28,-90 43,-140 z m 6,94 c 27,-87 30,-102 15,-79 -9,14 -50,139 -50,154 0,22 12,-5 35,-75 z m 124,-69 c -1,-19 -39,60 -38,80 0,8 8,-3 19,-25 11,-22 19,-47 19,-55 z m -170,-20 c 0,-9 -4,-8 -9,5 -5,11 -9,27 -9,35 0,9 4,8 9,-5 5,-11 9,-27 9,-35 z m 30,-90 c 0,-8 -7,-1 -14,15 -8,17 -14,37 -14,45 0,8 7,2 14,-15 8,-16 14,-37 14,-45 z m 185,-69 c 4,-6 3,-11 -2,-11 -12,0 -62,96 -62,118 0,10 13,-8 29,-39 16,-31 32,-62 35,-68 z m -229,-38 c 11,-32 42,-83 84,-136 87,-108 95,-123 37,-67 -77,74 -117,144 -153,270 -11,39 16,-19 32,-67 z m 94,-69 c 12,-17 21,-40 19,-50 -3,-15 -8,-11 -20,17 -9,20 -21,40 -27,43 -11,7 -61,99 -61,112 0,3 15,-16 33,-42 18,-27 43,-63 56,-80 z m -1866.4265,94.324 c 2.6522,-34 -2.6522,-88 -10.6086,-108 -13.2608,-31 -29.1737,37 -21.2172,86 7.9564,39 29.1736,54 31.8258,22 z M 3810,10930 c 6,-11 8,-20 6,-20 -3,0 -10,9 -16,20 -6,11 -8,20 -6,20 3,0 10,-9 16,-20 z m -215,-189 c 50,-52 81,-89 70,-81 -34,23 -165,154 -165,164 0,5 -11,25 -26,45 l -25,36 28,-35 c 15,-19 69,-77 118,-129 z m -1852.3177,39.324 c -23.8693,-48 -27.8476,-26 -5.3043,30 7.9565,22 17.239,33 19.8912,25 2.6521,-9 -3.9782,-33 -14.5869,-55 z M 3613,10775 c 17,-26 15,-25 -21,10 -23,21 -42,43 -42,49 0,13 38,-23 63,-59 z m 307,-120 c 82,-83 88,-102 9,-28 -45,42 -96,103 -87,103 2,0 37,-34 78,-75 z m -190,4 c 0,-14 -4,-11 -41,28 l -34,36 38,-28 c 20,-15 37,-31 37,-36 z m -445,1 c 3,-6 -1,-7 -9,-4 -18,7 -21,14 -7,14 6,0 13,-4 16,-10 z m -1684.2079,-44.676 c -15.9129,-20 -18.5651,-14 -6.6304,12 5.3043,9 11.9347,14 14.5869,11 3.9782,-2 0,-13 -7.9565,-23 z m 861.3326,-1.324 c 3,-8 11,-12 17,-8 8,5 9,3 5,-5 -5,-8 0,-14 13,-18 23,-6 5.0588,-14.235 -22.9412,-93.235 -7,-21 -23.1001,-53.134 -26.1764,-65.765 -7.8367,-32.177 -271.0891,-123.858 -234.4336,-165.676 l 16.3449,-76.007 -16.3449,76.007 c 85.1203,27.605 239.6291,251.738 263.5294,399.765 39,49 -23.9782,-21.089 -14.9782,-44.089 z M 3835,10575 c 28,-24 46,-44 40,-44 -5,0 -32,20 -60,44 -27,25 -45,45 -40,45 6,0 33,-20 60,-45 z m -388,-85 c 74,-39 158,-85 186,-104 66,-42 235,-183 272,-227 15,-19 53,-61 83,-94 49,-54 46,-39 -7,31 -9,11 17,-13 57,-55 40,-42 68,-77 63,-79 -6,-2 -54.3448,47.937 -114.3448,67.937 -61,20 -116.9449,57.244 -124.9054,58.038 -29.6304,2.957 -142.9367,92.718 -209.7475,121.232 -36,30 -114,84.177 -173,145.177 -59,61 -117.6471,112.882 -122.6471,112.882 -14,0 -68.3552,41.734 -62.3552,68.734 4,13 9,24 13,24 3,0 67,-32 140,-70 z m -197,23 c -1,-31 -3,-35 -11,-20 -6,9 -7,26 -4,37 10,30 15,24 15,-17 z m 685,-23 c 10,-11 16,-20 13,-20 -3,0 -13,9 -23,20 -10,11 -16,20 -13,20 3,0 13,-9 23,-20 z m -2397.4265,-47.676 c -9,-27 -28,-50 -28,-35 0,9 30,65 35,65 2,0 -1,-14 -7,-30 z M 3970,10409 c 0,-14 -5,-11 -31,17 l -24,27 28,-18 c 15,-9 27,-21 27,-26 z m -2500.4265,-146.676 -11,-25 6,25 c 2,14 5,36 6,50 l 2,25 4,-25 c 2,-14 -1,-37 -7,-50 z m 2047.7229,-8.352 29,-33 -32,29 c -18,17 -33,31 -33,33 0,8 8,1 36,-29 z M 4431,10193 c 13,-16 12,-17 -3,-4 -10,7 -18,15 -18,17 0,8 8,3 21,-13 z m -310,-90 c 13,-16 12,-17 -3,-4 -10,7 -18,15 -18,17 0,8 8,3 21,-13 z m 54,-43 c 10,-11 16,-20 13,-20 -3,0 -13,9 -23,20 -10,11 -16,20 -13,20 3,0 13,-9 23,-20 z m -430,0 c 3,-6 20.2964,8.972 12.2964,11.972 -18,7 -21,14 -7,14 6,0 -8.2964,-19.972 -5.2964,-25.972 z M 1675.5735,9832.3241 c -9,-85 -18,-177 -19,-205 -2,-27 -4,-7 -5,45 -1,52 2,122 7,155 5,33 13,96 17,140 5,45.9999 10,66.9999 12,49.9999 2,-16 -3,-99.9999 -12,-184.9999 z m 405.3529,107.7647 c -1,-52 -26.5882,-96.7647 30.6471,-92.7647 -10,9 -12,195.9999 -2,189.9999 5,-3 -28.6471,-45.2352 -28.6471,-97.2352 z M 3785,10032 c -3,-3 -11,0 -18,7 -9,10 -8,11 6,5 10,-3 15,-9 12,-12 z m 985,-432 c 6,-11 8,-20 6,-20 -3,0 -10,9 -16,20 -6,11 -8,20 -6,20 3,0 10,-9 16,-20 z M 2011.4559,9061.7947 c -5.5811,-6.3915 -3.827,76.5294 -3.827,96.5294 0,13 28.9446,15 23.9446,7 -9,-15 -45,53 -57,107 -10,47 0,35 30,-36 26,-64 -5.9307,-53 -29.9307,16 -8,23 24.9307,52 24.9307,64 -20.3979,11 -26.1007,-61 32,-151 -54.7952,106.8555 -18.2011,-101.3346 -20.1176,-103.5294 z m 0,0 c 25,-49 3.0704,-67.2571 16.0704,-89.2571 13,-22 76.0472,-131.2135 93.0472,-174.2135 25.7273,-66 -52.0015,-169.8757 41,-132 -3,-71 15,-30 0,0 -8,17 -28.9377,14.9654 -35.9377,19.9654 -14,8 -37.0623,107.0346 -36.0623,123.0346 1,5 -13.2825,-18.338 5.7175,-54.338 46,-87 73.2825,-66.662 25.2825,43.338 -32,74 -121,330 -121,349 0,17 -28.1176,-8.5294 11.8824,-85.5294 z m -27.8824,-49.4706 c 5,-17 4,-20 -2,-10 -5,8 -13,26 -16,40 -5,17 -4,20 2,10 5,-8 13,-26 16,-40 z m 887.603,-61.677 c -10,-12 -33.9158,-42.662 -11.9158,-78.662 -11.6139,-36.9774 41.3613,-104.8649 72.4291,-96.5501 -237.9385,-163.1314 -182.3819,-455.4492 -127.4205,-470.9238 -2.5521,-166.7421 77.6136,-53.1514 61.6787,-67.6716 -37,-54 9.052,-108.8396 3.052,-85.8396 11.2599,47.0088 -52.177,184.6254 -96.0472,157.4994 9.6701,1.6401 30.7601,-11.874 50.8644,94.8075 10.8172,91.3205 27.0584,74.6056 61.0652,492.6792 2,36 1.2038,61.4311 -4.8824,74.0139 0,22 -9,16 0,0 8,-13 -0.8235,-9.3529 -8.8235,-19.3529 z m -841.603,-97.323 c -1,-13 -29,45 -29,59 0,8 6,0 14,-19 8,-18 15,-36 15,-40 z m 53,-145 c -4,-13 -2,-16 7,-11 8,5 11,4 7,-2 -8,-13 12,-75 22,-68 4,2 -4.2895,-21.669 10.7105,-54.669 16,-33 20.0277,-65 29.0277,-72 13,-10 0.2618,18.669 -9.7382,31.669 -11,15 -22.6274,103.9792 -18.6274,107.9792 1,1 -29.3726,13.0208 -11.3726,-12.9792 -29.6749,38.803 12.6957,-98.9192 64,-147 -82.4621,158.6372 -11,-103 -52,-33 -15,26 22,82 18,85 -14,11 -29,51 -23,62 4,6 3,8 -3,5 -15,-9 -105,207 -96,230 5,14 13,4 34,-42 15,-33 25,-68 22,-79 z m 171.3438,-2780.1765 c 9,-78 7,-128 -4,-128 -24,0 -39,100 -24,158 10,37 21,25 28,-30 z m 1231.7056,-449.354 c 3.0454,-57.0543 -33.5052,-253.9851 41.1097,-361.5893 -10.5179,-121.3933 184.5437,-238.4133 254.6332,-290.0578 l 90.5166,8.6182 c -71.104,10.4778 -172.1332,-34.0055 -249.8464,-83.0105 -289.3473,-250.6886 -250.3281,-281.9794 -309.8374,-423.5721 -49,-94 -51.4672,-293.196 -71.4672,-326.196 -29,-48 -20.7037,-96.9861 -40.7037,-192.9861 -41,-196 -8.2042,-186.7647 13.7958,109.2353 78.7077,287.8585 56.1673,441.0136 109,593.6471 14,36 26,74 26,84 0,0 26.2941,25.6471 45.2941,67.6471 29,64 86.5629,243.7358 103.5629,383.7358 51.4992,241 8.9581,317.2641 8.4371,462.2641 4,70 -22.1176,119.4706 -20.1176,119.4706 1,0 -32.3771,-90.2064 -0.3771,-151.2064 z"
       id="path4"
       sodipodi:nodetypes="ccsccccccccccccccscccccccccccscccsccccccccccccccccccccsccsccccscscscscsccccccccccsccccsccccccsccsccscscccccscccccscsccccsccccccccccccccccscccccccscscccccccccccsscsccccccccscccccccccsccsccscccsccccccccccccccccsccccccccssccccccscscccccscccccsssccccsccsccccssscccscccccsscccccsccscscsccccccccccccccccccscsssccccscscccccccccccccscsscccscsccccscccccsccccccccccscssccsscscsssssssssscccccccccccccscccscscscsscscscssscccccccsccsccccccsssssccsccccccccccscccscscccsscsssccscccccsccccccscsccccccsccscsscscccccssssscsscscccsccccccccccscscssscsssssssscssscssccsccscsccsssssssscccsccscscccccccscccccccccccccccccccscccccccccsccccccccccsccccccccccccscccsc" />
    <path
       d="M2244 8820 c9 -32 39 -101 43 -97 2 3 -8 29 -22 58 -14 30 -23 47 -21 39z"
       id="path6" />
    <path
       d="M3480 10755 c30 -30 57 -55 59 -55 3 0 -19 25 -49 55 -30 30 -57 55 -59 55 -3 0 19 -25 49 -55z"
       id="path8" />
    <path
       d="M3920 10750 c6 -11 13 -20 16 -20 2 0 0 9 -6 20 -6 11 -13 20 -16 20 -2 0 0 -9 6 -20z"
       id="path10" />
    <path
       d="M3630 10636 c0 -2 8 -10 18 -17 15 -13 16 -12 3 4 -13 16 -21 21 -21 13z"
       id="path12" />
    <path
       d="M4223 10323 c3 -5 34 -31 69 -57 l63 -48 -50 47 c-48 45 -93 77 -82 58z"
       id="path14" />
    <path
       d="M1663 10165 c0 -33 2 -45 4 -27 2 18 2 45 0 60 -2 15 -4 0 -4 -33z"
       id="path16" />
    <path
       d="M4160 10126 c0 -2 12 -12 28 -21 l27 -18 -19 21 c-17 20 -36 29 -36 18z"
       id="path18" />
    <path
       d="M4220 10085 c0 -6 121 -87 125 -83 2 1 -26 22 -61 46 -35 23 -64 40 -64 37z"
       id="path20" />
    <path
       d="M1713 10005 c0 -38 2 -53 4 -32 2 20 2 52 0 70 -2 17 -4 1 -4 -38z"
       id="path22" />
    <path
       d="M4593 10034 c15 -17 25 -33 22 -36 -3 -2 5 -13 17 -24 12 -10 18 -13 13 -5 -5 10 -4 12 4 7 6 -4 9 -11 6 -15 -2 -5 12 -20 33 -34 47 -33 135 -123 159 -163 10 -17 42 -62 70 -100 29 -38 65 -92 80 -121 15 -28 29 -51 30 -49 6 6 -30 81 -63 134 -19 29 -32 57 -29 62 3 5 0 12 -6 16 -8 5 -9 3 -4 -6 5 -9 4 -11 -4 -6 -6 4 -8 12 -5 18 4 5 -38 55 -92 110 -100 100 -283 268 -231 212z"
       id="path24" />
    <path
       d="M4275 10010 c10 -11 20 -20 23 -20 3 0 -3 9 -13 20 -10 11 -20 20 -23 20 -3 0 3 -9 13 -20z"
       id="path26" />
    <path
       d="M4625 9950 c10 -11 20 -20 23 -20 3 0 -3 9 -13 20 -10 11 -20 20 -23 20 -3 0 3 -9 13 -20z"
       id="path28" />
    <path
       d="M4430 9946 c0 -2 8 -10 18 -17 15 -13 16 -12 3 4 -13 16 -21 21 -21 13z"
       id="path30" />
    <path
       d="M4440 9874 c0 -3 36 -45 81 -92 84 -90 190 -227 249 -322 32 -51 69 -97 59 -75 -38 91 -119 201 -282 383 -100 111 -107 118 -107 106z"
       id="path32" />
    <path
       d="M1702 9825 c0 -16 2 -22 5 -12 2 9 2 23 0 30 -3 6 -5 -1 -5 -18z"
       id="path34" />
    <path
       d="M2033 8990 c15 -48 71 -179 74 -176 5 5 -52 150 -68 175 -8 12 -9 12 -6 1z"
       id="path36" />
    <path
       d="M2110 8795 c0 -5 5 -17 10 -25 5 -8 10 -10 10 -5 0 6 -5 17 -10 25 -5 8 -10 11 -10 5z"
       id="path38" />
    <path
       d="M2200 8725 c0 -5 5 -17 10 -25 5 -8 10 -10 10 -5 0 6 -5 17 -10 25 -5 8 -10 11 -10 5z"
       id="path40" />
    <path
       d="M2145 8703 c4 -10 13 -36 20 -58 16 -47 64 -154 64 -142 1 13 -80 217 -86 217 -3 0 -2 -8 2 -17z"
       id="path42" />
    <path
       d="M2220 8675 c0 -5 5 -17 10 -25 5 -8 10 -10 10 -5 0 6 -5 17 -10 25 -5 8 -10 11 -10 5z"
       id="path44" />
    <path
       d="M2260 8590 c6 -11 8 -25 5 -30 -7 -11 24 -75 32 -67 3 3 -2 16 -11 29 -18 26 -21 42 -5 32 6 -3 3 8 -5 25 -9 17 -19 31 -22 31 -2 0 0 -9 6 -20z"
       id="path46" />
  </g>
</svg>
