<?xml version="1.0" encoding="UTF-8" standalone="no"?>
<svg
   xmlns:dc="http://purl.org/dc/elements/1.1/"
   xmlns:cc="http://creativecommons.org/ns#"
   xmlns:rdf="http://www.w3.org/1999/02/22-rdf-syntax-ns#"
   xmlns:svg="http://www.w3.org/2000/svg"
   xmlns="http://www.w3.org/2000/svg"
   xmlns:sodipodi="http://sodipodi.sourceforge.net/DTD/sodipodi-0.dtd"
   xmlns:inkscape="http://www.inkscape.org/namespaces/inkscape"
   version="1.0"
   width="800.000000pt"
   height="1280.000000pt"
   viewBox="0 0 800.000000 1280.000000"
   preserveAspectRatio="xMidYMid meet"
   id="svg38"
   sodipodi:docname="120archer.svg"
   inkscape:version="1.0.2 (e86c870879, 2021-01-15, custom)">
  <defs
     id="defs42" />
  <sodipodi:namedview
     pagecolor="#ffffff"
     bordercolor="#666666"
     borderopacity="1"
     objecttolerance="10"
     gridtolerance="10"
     guidetolerance="10"
     inkscape:pageopacity="0"
     inkscape:pageshadow="2"
     inkscape:window-width="1920"
     inkscape:window-height="1017"
     id="namedview40"
     showgrid="false"
     inkscape:zoom="0.35217233"
     inkscape:cx="-49.395104"
     inkscape:cy="1020.8482"
     inkscape:window-x="-8"
     inkscape:window-y="-8"
     inkscape:window-maximized="1"
     inkscape:current-layer="svg38"
     inkscape:document-rotation="0" />
  <metadata
     id="metadata2">
Created by potrace 1.15, written by Peter Selinger 2001-2017
<rdf:RDF>
  <cc:Work
     rdf:about="">
    <dc:format>image/svg+xml</dc:format>
    <dc:type
       rdf:resource="http://purl.org/dc/dcmitype/StillImage" />
    <dc:title></dc:title>
  </cc:Work>
</rdf:RDF>
</metadata>
  <g
     transform="translate(0.000000,1280.000000) scale(0.100000,-0.100000)"
     fill="#000000"
     stroke="none"
     id="g36">
    <path
       d="m 2970,12427 c 0,-5 14,-41 31,-80 35,-80 47,-198 22,-219 -7,-6 -13,-14 -13,-19 0,-22 -93,-142 -165,-214 -45,-44 -182,-166 -305,-271 -531,-451 -694,-627 -1186,-1281 -311,-413 -318,-426 -261,-490 l 36,-39 -110,-97 C 843,9559 761,9447 776,9383 c 4,-15 33,-63 65,-106 54,-73 59,-83 59,-130 -1,-87 -47,-162 -113,-183 l -28,-9 69,-62 c 75,-67 84,-87 75,-166 l -6,-49 -195,3 c -164,3 -195,6 -199,19 -3,8 -7,21 -9,28 -3,10 -15,7 -46,-11 -64,-37 -107,-48 -236,-61 l -117,-12 102,-7 c 116,-9 202,-29 249,-57 41,-26 43,-25 55,10 l 11,30 h 154 154 l -6,-28 c -8,-39 17,-62 67,-62 21,0 39,-4 39,-10 0,-5 -24,-10 -53,-10 -60,0 -77,-12 -77,-52 0,-31 24,-48 67,-48 h 27 l -22,-16 c -40,-28 -25,-78 26,-86 42,-6 18,-23 -29,-20 -34,2 -48,-1 -52,-12 -6,-16 16,-46 34,-46 5,0 9,-4 9,-9 0,-4 -20,-14 -45,-21 -25,-7 -45,-15 -45,-18 0,-2 16,-22 35,-43 64,-71 95,-159 81,-233 -4,-21 -27,-57 -61,-95 -88,-99 -76,-138 101,-321 l 115,-118 -53,-20 c -76,-28 -78,-37 -34,-127 21,-42 44,-79 52,-82 8,-3 14,-10 14,-16 0,-13 132,-187 142,-187 5,0 8,-5 8,-11 0,-5 17,-36 39,-67 21,-31 69,-109 106,-172 97,-163 149,-239 318,-463 189,-250 269,-339 497,-557 523,-498 654,-643 750,-828 33,-64 55,-180 40,-212 -4,-8 -14,-31 -23,-51 -8,-20 -36,-62 -62,-93 -52,-64 -31,-60 38,8 58,56 96,130 103,204 12,110 -50,234 -237,475 -35,45 -203,222 -374,392 -325,325 -419,430 -552,617 -180,253 -289,450 -347,623 -55,169 -66,269 -48,459 10,109 8,204 -4,216 -8,8 -32,4 -87,-13 l -75,-24 -45,46 c -94,98 -157,196 -157,242 0,12 15,56 34,98 19,42 44,117 56,167 17,73 28,100 56,133 l 35,41 -57,25 c -31,14 -55,27 -53,29 9,9 291,86 314,86 19,0 25,-5 25,-22 0,-34 11,-45 60,-59 25,-7 49,-19 53,-26 9,-15 57,-48.9446 101,-35.9446 17,5 90.2964,-7.9584 136.2964,1.0416 74,13 51.3934,2.3518 70.3934,-9.6482 13,-10 119.6041,-65.0779 112.6343,3.6343 -4.7431,46.7601 85.2214,-81.1522 99.2214,-91.1522 20,-13 33.9862,50.8892 58.9862,63.8892 24,13 24.7036,-71.1856 111.7036,-80.1856 57,-6 226.64,-176.0942 282.64,-174.0942 73,2 24.2886,272.5694 43.2886,262.5694 -3.3896,-20.1737 -9.2033,-26.2754 0,0 4,16 28.4901,38.837 0,0 -127.209,-173.4084 35.7363,-378.5827 190.5974,-193.8383 33.8974,-19.9746 -33.8974,-28.5579 0,0 4.175,-107.8852 150.1653,-285.8773 422.4082,-245.5098 253.1708,-203.516 422.4188,154.7129 348.3105,129.1868 -100.7417,-743.0178 765.3108,219.5329 626.0494,294.8163 18.0758,-89.2039 -536.9641,-418.3008 24.4706,-158.8235 v 0 l -86.4118,-11.1177 c -29.1402,-23.9666 -327.1697,55.0158 -90.9895,-95.97 -65.707,0.4723 -711.5186,-394.5834 -692.3282,-653.1622 -54.8914,-625.1277 917.4525,9.7712 790.0836,135.1507 -23.3945,23.0291 242.4635,-107.1617 337.5477,-64.956 C 4458.9558,7283.3487 4158,7399 4167,7385 c 3.3587,-80.9065 17,33 -34,-45 -9,-16 -3,0 0,0 3,0 18,20 34,45 15,25 -54.8291,-35.3412 -53.1787,-37.8465 47.5102,-72.1223 -419.7613,-33.578 -367.5352,-269.9172 -585.0211,-97.7413 -1258.4289,-1461.1924 -811.6572,-1900.8484 461.8557,-1226.8798 1174.548,666.723 1012.6207,972.2432 -22.0201,-217.4405 -306.7316,-263.646 -330.4116,-525.8178 -245.6542,-710.2116 118.6443,-482.9319 86.4565,-423.5397 -29.6797,54.7643 -153.8052,48.1556 -164.8052,-23.8444 -243.7751,-376.1346 -227.5092,-809.2401 -39.8339,-1050.4393 18,-96 55.6138,-147.9321 85.6138,-260.9321 31.5577,-223.4423 211.6254,-508.1091 324.9688,-666.7657 -4.126,-157.815 286.0035,-52.1888 312.7622,14.7079 -12,-13 21,6 0,0 -34,-11 -119.1533,13.9284 -136.1533,-42.0716 -10,-34 -107.1383,-46.6608 -104.1383,-52.6608 4,-5 114.8845,-64.6309 112.0195,-57.1615 -22.9788,59.9089 -96.5581,57.2328 -97.8258,33.8085 -4,-15 11.2098,-95.0392 5.2098,-120.0392 -7,-28 -46.2491,-147.5513 -45.2491,-298.5513 5,-434 33.7476,-480.459 50.7476,-494.459 11,-9 -1.6067,-50.8222 6.2265,-225.2928 7.8332,-174.4707 81.8195,-182.6461 72.8195,-275.6461 -5,-48 22.2502,-101.4728 33.2502,-114.4728 8,-9 11.2181,-38.4257 21.2181,-104.4257 10,-64 39.0426,-163.9515 49.0426,-187.9515 19,-45 41.4303,-71.9516 21.4303,-193.9516 -5,-33 37.665,-64.3612 32.7173,-72.4556 -5.5012,-9.00002 0.3215,-30.669 6.1776,-47.669 -14,-28 -18.316,-52.82353 -6.316,-61.82353 7.6924,-19.4346 -27.7558,-82.70246 6.3529,-137.17647 -11,-38 -6.5294,-68 -54.5294,-118 -91,-97 -143,-227 -102,-260 26,-21 89,-52 106,-52 10,0 24,-7 31,-15 16,-19 54,-19 70,0 11,13 15,14 29,1 45,-39 122,-20 146,36 7,19 23,42 35,53 34,31 50,70 50,119 0,38 6,53 33,83 73,83 82,102 88,198 3,50 22.6482,90.68975 29.6482,106.68975 27.3409,15.95476 58.8285,194.80685 45.6343,225.97225 -7,12 42.5166,73 43.5166,150 2,116 -3.0888,137.338 24.9112,224.338 23,67 -11.4174,92.6759 0.5826,95.6759 14,4 16.669,23.9861 16.669,62.9861 0,28 27.4291,116.8974 21.4291,119.8974 7.1048,6.2369 15.2396,-2.8116 34.6909,154.632 28.0879,193.9498 11.5234,224.1325 23.7577,270.7129 27.8129,28.4064 19.9657,82.6708 -0.1845,122.0957 14.5969,14.0448 17.7102,51.5738 16.9919,147.7647 0,68 -8.5294,170.0588 -11.5294,209.0588 -1.8825,89.5873 -34.783,54.8497 -11.1176,64.1765 23,10 3.7036,18.662 0.7036,71.662 -3,48 19.6205,57.0035 1.6205,65.0035 -17,7 -18.3414,17.3345 -18.3414,41.3345 0,18 -13.3807,42.6863 -17.3807,42.6863 -5,1 13,-11 0,0 v 0 c 22.3533,-39.1557 18.8184,42.5612 5.4256,57.4233 -26.6019,29.5203 30.8708,-15.532 17.8708,83.5963 2.3391,35 -1.8449,55.1742 -19.602,61.1742 2.4095,5.3181 -27.1456,47.8897 -38.2964,76.1199 -64.8662,-203.2357 309.9178,-21.0833 299.0389,279.8432 139.8527,365.143 13.8306,545.2545 49.0163,784.3033 71.6084,139 -35.1355,343.7041 -57.8592,528.7508 6.5571,136.7499 10.8022,289.8573 -98.3033,434.1131 -7,56 -21,11 0,0 11,-6 52.4864,-103.7299 59.3621,-114.8199 32.3903,-52.2411 48.3745,104.0251 30.7452,136.8095 19,24 -34.9654,-3.3033 -19.9654,-17.3033 8,-9 -17.2329,-36.376 -5.5535,-104.376 -13.276,-79.9792 -9.5404,-207.9677 18.2445,-255.9677 21.4964,-140.5807 -90.0954,-512.7317 55.2875,-705.474 35.3785,-97.4486 -4.5465,-151.6776 79.7162,-267.6078 -3.8971,-121.322 204.3501,-452.2978 330.534,-563.2087 116.9448,-141.7438 334.6069,-222.9998 277.5996,-52.345 11.7793,-34.455 -31.2857,-52.7094 -38.8466,-43.7833 -23.6345,-10.993 -25.0132,-40.5182 45.6944,-67.8996 13.3144,-5.156 31.639,-45.4298 44.888,-49.3587 -18,-26 30.155,-89.2108 77.3425,-100.6171 24,-12 -36.1765,29.1765 -45.1765,13.1765 -7,-13 -0.4117,-38.6171 7.5883,-58.6171 6,-15 14.4614,-48.7727 15.4614,-68.7727 1.3227,-19.0807 4.4156,-52.7692 7.7796,-69.6103 7.6294,-27.4265 24.3573,-47.1811 22.8443,-50.4636 -2,-7 -4.4854,-62.9411 20.5146,-113.9411 42.2951,-87 -4.4568,-91.4198 59.2329,-144.4198 0.4933,-75.0634 18.6945,-114.6141 59.0069,-160.075 13.5108,-37.4954 4.7082,-41.9564 19.7866,-66.0657 3,-20 17.7693,-50.6621 23.7693,-65.6621 6,-14 11.2759,-30.5617 36.7759,-67.5617 18.1986,-37 28.8978,-94.1223 57.8978,-145.1223 29,-51 59.0737,-110.0299 84.0737,-169.0299 42,-103 69.3716,-95.7487 71.3716,-133.7487 1,-10 38.8487,-52.0531 52.8487,-65.0531 14,-13 39.5075,-33.332 39.5075,-38.332 0,-5 -5.5662,-26.9919 23.4338,-48.9919 45,-37 42.4614,-49.338 70.4614,-122.338 18,-46 56.0876,-74.278 59.0876,-91.278 4,-16 28.3103,-55.8616 39.3103,-70.8616 12,-18 41.8834,-24.9319 42.8834,-68.9319 0,-35 27.2964,-64.0139 32.2964,-75.0139 6,-11 27.3033,-44.3449 25.3033,-81.3449 -2,-57 2,-75 23,-111 14,-24 37,-51 51,-60 14,-9 25,-23 25,-31 0,-25 23,-65 37,-65 7,0 13,5 13,11 0,6 14,-3 31,-20 25,-25 39,-31 74,-31 38,0 47,-5 73,-36 16,-19 47,-66 68,-102 51,-87 107,-148 164,-177 25,-13 52,-35 60,-49 34,-64 130,-87 176,-41 14,14 34,25 44,25 13,0 22,9 26,26 4,15 15,35 25,45 11,11 16,25 12,36 -9,22 -8,66 0,81 21,33 -111,203 -205,263 -42,27 -51,40 -77,107 -16,42 -61,142 -99,222 -75.3467,202 -79.6479,238 -92,305 12,52 12,53 -27,136 -39.2066,102.9311 -49.6872,192.7709 -77,296 -1,12 -4.3529,31 -14.3529,42 -10,11 -13.353,33.1176 -15.353,51.1176 -2,18 -9.8823,62.2942 -14.8823,84.2942 -13.4516,60.9354 8.5976,226.686 -25.0566,321.5582 -8.6923,24.5039 -3.4406,85.03 -9.4406,101.03 -8,21 -71.6078,209.3414 -71.6078,226.3414 0,2 -10.3068,4.6586 -5.3068,1.6586 14,-9 12,7 -5,49 -8,19 -20,59 -26,88 -13,62 -42,121 -67,140 -10,7 -17.8235,50.2941 -32.8235,81.2941 -16,32 -34.2042,59.6955 -81.2042,135.6955 -47,76 -114.3252,113.6575 -114.3252,66.6575 0,-23 8.2941,-25.2353 0.2941,-17.2353 -6,6 59.5294,-20.7647 58.5294,22.2353 0.7707,43.7691 25.7694,124.4086 -13.2296,133.3252 -4,7 -84.241,-3.9723 -118.241,-3.9723 -31,0 47.5997,-7.331 38.5997,-1.331 -6.8167,-45.0229 237.1595,-182.6486 99.7806,434.9735 -18,348 21.6171,402.6482 -2.3829,589.6482 -1.1158,382.524 -130.5258,869.3025 -377.4012,1166.7517 -42.483,-284.4479 368.2766,-120.8751 63.7792,398.429 4.7297,0.46 39.046,-108.8309 -59.0407,46.5339 -37.7305,-65.5613 302.8144,-983.2702 132.7341,117.7931 -41.6456,-420.4371 227.0123,320.1092 -417.7992,839.4069 -22.2894,52.5997 0,0 0,0 -1.6845,65.3808 -165.4503,80.0585 -159.1751,96.5883 26.1397,84.8819 -92.449,97.2405 -114.7416,191.2064 -165.9522,-76.3145 684.893,-845.4468 548.4449,-201.7033 58.0853,169.8247 -497.8937,725.319 -535.2453,688.6422 35.5887,-94.6668 769.0608,-893.8785 197.0946,169.8846 -66.4267,17.5698 198.1017,-874.8728 304.3136,-77.9306 11.9794,-49.8072 259.5177,273.9381 349.9839,343.1625 22.6629,-10.7528 71.2999,36.5144 95.3795,31.3241 17,-5 36.6759,22.6205 51.6759,26.6205 16,5 41,12 57,15 16,3 43,22 60,41 17,19 52,48 78,64 81,50 103,113 60,168 -12,15 -40,57 -62,93 -43,73 -69,94 -124,104 -20,4 -36,11 -36,16 0,10 -34,29 -62,34 -11,3 -23,6 -25,9 -2,2 25,30 61,61 36,32 63,62 60,66 -8,13 -58,11 -95,-5 -19,-8 -76,-21 -128,-30 -77,-13 -101,-14 -128,-4 -27,10 -40,10 -66,-1 -17,-7 -75,-26 -127,-43 -52,-16 -118.3241,-28.0208 -141.3241,-41.0208 -31,-18 -78.5583,-12.391 -104.5583,-7.391 -28,4 -71.1262,-7.6433 -49.7381,-18.6228 L 6046.0002,8845 v 0 c 5,27 2,41 -11,55 -16,18 -17,22 -3,38 129,150 696,793 739,838 44,46 69,64 104,74 67,19 147,78 265,198 81,83 100,108 86,110 -10,2 -45,-10 -77,-27 -32,-17 -59,-28 -59,-25 0,4 24,34 52,68 29,33 44,54 34,46 -18,-14 -19,-14 -9,5 6,11 21,29 32,39 25,23 26,35 4,51 -17,13 -33,-1 -166,-153 -26,-29 -47,-49 -47,-46 0,4 7,15 15,24 9,10 18,28 21,41 3,13 8,35 11,49 4,14 16,39 28,55 12,17 25,44 29,60 6,28 3,26 -46,-27 -29,-31 -72,-78 -95,-104 -24,-26 -45,-45 -49,-42 -3,4 11,32 31,63 20,31 30,53 23,49 -7,-5 2,10 19,33 l 33,40 -21,19 c -12,11 -23,14 -27,8 -20,-29 -164,-204 -167,-204 -3,0 11,23 31,50 20,28 33,50 29,50 -4,0 4,15 19,34 30,40 32,49 12,66 -8,6 -12,19 -9,28 10,29 -56,-39 -113,-115 -53,-71 -76,-93 -54,-53 6,10 12,33 14,50 2,17 11,39 20,49 19,20 39,81 27,81 -4,0 -25,-22 -47,-49 -34,-41 -43,-47 -58,-39 -14,8 -21,7 -27,-3 -19,-34 -36,-50 -56,-53 -12,-3 -31,-9 -42,-15 -30,-16 -30,-15 -5,36 31,60 32,83 3,57 -21,-19 -21,-18 1,19 22,37 22,38 4,52 -10,7 -21,12 -24,10 -3,-2 -39,-56 -79,-120 -72,-112 -111,-162 -75,-94 10,19 19,53 20,76 0,23 8,57 16,75 18,37 31,88 24,88 -9,0 -80,-102 -115,-162 -19,-35 -34,-78 -38,-110 -3,-29 -10,-55 -14,-58 -12,-8 -40,-121 -33,-132 3,-5 -13,-38 -35,-74 -23,-36 -41,-67 -41,-69 0,-5 -458,-725 -467,-735 -2,-2 -16,3 -31,12 -26,16 -28,16 -67,-16 -45,-37 -87,-60 -126,-70 l -27,-6 2,-104 c 0,-57 -2,-101.3529 -6,-105.3529 -2.8567,-2.8567 -3.8847,8.4094 -25.2941,9 -8.054,27.3599 -67.4673,29.6043 -61.037,22.3321 30.6033,-34.6102 28.6673,83.0192 -28.6458,95.0865 31.4375,16.1949 15.0708,62.1234 15.3748,71.639 4,-3 15.6021,34.2953 44.6021,64.2953 62,61 107,163 131,294 14,78 14,78 16,28 3,-48 3,-49 10,-15 4,19 8,28 10,20 5,-33 18,39 19,105 1,78 20,74 22,-5 0,-34 2,-40 9,-25 14,32 11,243 -4,330 -18,103 -48,180 -96,253 -51,76 -191,209 -258,245 -59,32 -176,67 -230,69 -41,2 -226,-20 -257,-29 -11,-4 -34,-5 -51,-4 -23,2 -43,-7 -75,-33 -24,-19 -59,-42 -77,-51 -115,-52 -242,-229 -302,-420 -26,-86 -32,-135 -21,-200 l 9,-50 1,53 c 2,91 18,48 20,-53 1,-52 8,-132 17,-177 16,-91 65,-271 71,-265 2,2 -8,53 -23,113 -41,174 -67,393 -44,379 6,-3 10,-30 10,-58 0,-29 10,-90 21,-137 11,-47 20,-90 21,-97 1,-7 5,-10 9,-8 12,8 37,-80 32,-109 -4,-19 1,-34 15,-49 11,-12 32,-57 48,-100 15,-44 33,-81 41,-84 7,-3 13,-16 13,-29 0,-41 4.4786,-54.1834 33.4786,-67.1834 -65.4476,-122.6999 72.6856,-199.8529 132.7004,-77.9959 23.1035,-10.793 16.0564,-9.5266 42.0564,-1.5266 50.4072,-3.0327 67.8634,-0.8485 47.7646,37.7059 23.271,-59.5484 -85.9307,9.61 -287.662,-91.7313 -57.0002,-9 -120.6484,-21.9135 -127.6484,-27.9135 -9,-7 -19.1903,11.5283 -59.1903,18.5283 -34.6168,9.9253 -82.0942,4.8728 -102.4107,9.0899 -74.6027,15.4854 -283.1969,73.4595 -415.1199,8.4485 -66.0686,1.5996 -216.1692,42.6758 -490.1487,30.1489 -515.4158,-51.2853 -387.6847,-132.4059 -419.7659,-102.9469 C 2133.1335,8914.9298 2569.7728,8706.9898 2605,8700 c -7,28 20,17 0,0 -8,-6 -9,29 -18,31 -14,2 -24,-30 0,0 15,20 43,47 61,59 38,27 57.8235,71.0588 20.8235,68.0588 -14,-1 -83.8235,-24.0588 -133.8235,-32.0588 -49,-8 -119,-14 -155,-14 -46,2 -101.3529,12.0588 -125.3529,-0.9412 -38,-20 -170.6471,-32.8824 -259.6471,-46.8824 -33,-5 -128.8824,-18.5294 -209.8824,-19.5294 -135,-2 -163.1764,-5.8823 -176.1764,-23.8823 -13,-18 -4.2941,-30.2941 -119.2941,-28.2941 L 1359,8671 l -80,50 c -44,27 -83,49 -86,49 -4,0 -26,12 -50,26 -51,30 -50,33 34,96 29,21 53,42 53,46 0,4 -13,13 -28,20 -36,15 -45,36 -67,143 -10,46 -29,113 -44,149 -37,94 -35,143 11,212 20,30 76,96 125,147 l 88,92 40,-20 c 60,-28 100,-34 114,-18 9,11 8,36 -3,108 -7,52 -13,146 -11,209 2,102 7,128 39,225 44,130 101,240 204,390 198,289 460,565 957,1009 511,455 556,557 351,791 -19,22 -35,36 -36,32 z m 2020,-2051 c 0,-2 -7,-6 -15,-10 -8,-3 -15,-1 -15,4 0,6 7,10 15,10 8,0 15,-2 15,-4 z m 500,-366 c 6,-11 8,-20 6,-20 -3,0 -10,9 -16,20 -6,11 -8,20 -6,20 3,0 10,-9 16,-20 z m 1380,7 c 0,-2 -9,-15 -21,-28 -11,-13 -18,-31 -16,-41 3,-11 -14,-39 -44,-75 -166,-196 -775,-892 -781,-892 -5,-1 -8,24 -8,55 v 55 l 283,357 c 346,436 339,428 396,447 25,8 78,40 116,70 69,54 75,58 75,52 z m -533,-94 c 0,-24 -69,-128 -325,-488 -148,-209 -221,-303 -238,-309 -14,-4 -27,-6 -30,-3 -5,5 430,691 453,715 7,8 18,22 23,33 9,16 91,67 111,69 3,0 6,-8 6,-17 z M 4262,9805 c -11,-53 -21,-83 -24,-73 -6,15 30,173 38,165 2,-1 -5,-43 -14,-92 z m 28,-30 c -18,-102 -20,-105 -16,-40 4,68 27,179 32,160 2,-6 -5,-59 -16,-120 z m 2267,97 c -10,-10 -17,-21 -17,-25 0,-7 -490,-628 -521,-662 -19,-19 -19,-19 -19,7 0,18 65,108 236,324 235,298 301,374 325,374 8,0 7,-6 -4,-18 z m -120,-26 c -13,-34 -511,-653 -540,-671 l -32,-19 26,34 c 14,19 108,152 209,295 102,143 188,261 192,263 4,2 16,18 27,36 14,22 34,37 61,46 23,7 43,17 46,22 8,13 17,9 11,-6 z M 4387,9328 c -3,-7 -5,-2 -5,12 0,14 2,19 5,13 2,-7 2,-19 0,-25 z m 1963,-428 c -8,-5 -22,-9 -30,-9 -10,0 -8,3 5,9 27,12 43,12 25,0 z m -50,-14 c 0,-2 -13,-9 -30,-15 -35,-12 -41,-5 -7,9 25,10 37,12 37,6 z M 1677,8684 c -3,-3 -12,-4 -19,-1 -8,3 -5,6 6,6 11,1 17,-2 13,-5 z m 113,2 c 0,-9 -40,-13 -46,-5 -3,5 6,9 20,9 14,0 26,-2 26,-4 z m 53,-3 c -7,-2 -19,-2 -25,0 -7,3 -2,5 12,5 14,0 19,-2 13,-5 z M 5770.8235,7459 5748,7333 l -30,-17 c -16,-10 0,0 -33,-14 -2.6038,-1.1046 52,-16 63,31 19,89 58.4706,253.4706 6,255 1,-2 18.8235,-60 16.8235,-129 z M 7041,880 c 5,0 9,-4 9,-9 0,-4 -11,-6 -25,-3 -14,2 -25,9 -25,14 0,6 7,7 16,4 9,-3 20,-6 25,-6 z"
       id="path4"
       sodipodi:nodetypes="cccscccccccccccccccccccccccccccssssscccccsssscccccccsssscccccccccccccccscccssccccssscccccsccccccsccccccccccssccscsccccsccccccccsccccccccccscccccscccccscccccccscccccccccscccsccccccccscccccccccscccsccccccccccccsscccccccsssssssccccsscsccccccccsscscsccccccssccsccccccccccccccccccssccccsccccccsccccsccccccccssccccccscsccccccscccccscscccccscscccccccscsccccscccccsccccccscsccccccccccccccccccccccccsccssscccccscccccccsccccccccccccccscccsccscccscccccccccccscsssssssssccccsccccssccscccscccccccccscscsccccccscccccscccsccsccsccccscssccsccccscccsscsss" />
    <path
       d="M3096 11790 c10 -36 50 -114 189 -370 67 -124 182 -340 255 -480 73 -140 160 -304 193 -365 87 -161 469 -806 474 -802 2 2 -83 150 -188 328 -237 400 -253 430 -457 819 -90 173 -214 405 -275 515 -61 110 -130 241 -154 290 -24 50 -41 79 -37 65z"
       id="path6" />
    <path
       d="M4105 7300 c-9 -16 -13 -30 -11 -30 3 0 12 14 21 30 9 17 13 30 11 30 -3 0 -12 -13 -21 -30z"
       id="path8" />
    <path
       d="M4060 7220 c-11 -22 -18 -40 -15 -40 2 0 14 18 25 40 11 22 18 40 15 40 -2 0 -14 -18 -25 -40z"
       id="path10" />
    <path
       d="M3995 7100 c-19 -38 -33 -70 -30 -70 2 0 21 32 40 70 19 39 33 70 30 70 -2 0 -21 -31 -40 -70z"
       id="path12" />
    <path
       d="M3930 6980 c-11 -22 -18 -40 -15 -40 2 0 14 18 25 40 11 22 18 40 15 40 -2 0 -14 -18 -25 -40z"
       id="path14" />
    <path
       d="M3875 6880 c-14 -27 -23 -50 -20 -50 2 0 16 23 30 50 14 28 23 50 20 50 -2 0 -16 -22 -30 -50z"
       id="path16" />
    <path
       d="M3815 6770 c-14 -27 -23 -50 -20 -50 2 0 16 23 30 50 14 28 23 50 20 50 -2 0 -16 -22 -30 -50z"
       id="path18" />
    <path
       d="M3740 6630 c-17 -33 -28 -60 -25 -60 2 0 18 27 35 60 17 33 28 60 25 60 -2 0 -18 -27 -35 -60z"
       id="path20" />
    <path
       d="M3650 6460 c-22 -44 -38 -80 -35 -80 3 0 23 36 45 80 22 44 38 80 35 80 -3 0 -23 -36 -45 -80z"
       id="path22" />
    <path
       d="M3535 6239 c-4 -6 -5 -12 -2 -15 2 -3 7 2 10 11 7 17 1 20 -8 4z"
       id="path24" />
    <path
       d="M3500 6169 c-12 -23 -20 -43 -18 -45 3 -2 14 17 26 41 27 56 20 60 -8 4z"
       id="path26" />
    <path
       d="M3285 5740 c-14 -27 -23 -50 -20 -50 2 0 16 23 30 50 14 28 23 50 20 50 -2 0 -16 -22 -30 -50z"
       id="path28" />
    <path
       d="M3200 5580 c-11 -22 -18 -40 -15 -40 2 0 14 18 25 40 11 22 18 40 15 40 -2 0 -14 -18 -25 -40z"
       id="path30" />
    <path
       d="M3105 5400 c-14 -27 -23 -50 -20 -50 2 0 16 23 30 50 14 28 23 50 20 50 -2 0 -16 -22 -30 -50z"
       id="path32" />
    <path
       d="M2996 5185 c-9 -26 -7 -32 5 -12 6 10 9 21 6 23 -2 3 -7 -2 -11 -11z"
       id="path34" />
  </g>
</svg>
