<?xml version="1.0" encoding="UTF-8" standalone="no"?>
<svg
   xmlns:dc="http://purl.org/dc/elements/1.1/"
   xmlns:cc="http://creativecommons.org/ns#"
   xmlns:rdf="http://www.w3.org/1999/02/22-rdf-syntax-ns#"
   xmlns:svg="http://www.w3.org/2000/svg"
   xmlns="http://www.w3.org/2000/svg"
   xmlns:sodipodi="http://sodipodi.sourceforge.net/DTD/sodipodi-0.dtd"
   xmlns:inkscape="http://www.inkscape.org/namespaces/inkscape"
   version="1.0"
   width="800.000000pt"
   height="1280.000000pt"
   viewBox="0 0 800.000000 1280.000000"
   preserveAspectRatio="xMidYMid meet"
   id="svg38"
   sodipodi:docname="30archer.svg"
   inkscape:version="1.0.2 (e86c870879, 2021-01-15, custom)">
  <defs
     id="defs42" />
  <sodipodi:namedview
     pagecolor="#ffffff"
     bordercolor="#666666"
     borderopacity="1"
     objecttolerance="10"
     gridtolerance="10"
     guidetolerance="10"
     inkscape:pageopacity="0"
     inkscape:pageshadow="2"
     inkscape:window-width="1920"
     inkscape:window-height="1017"
     id="namedview40"
     showgrid="false"
     inkscape:zoom="0.49804688"
     inkscape:cx="1046.6652"
     inkscape:cy="498.03968"
     inkscape:window-x="-8"
     inkscape:window-y="-8"
     inkscape:window-maximized="1"
     inkscape:current-layer="svg38"
     inkscape:document-rotation="0" />
  <metadata
     id="metadata2">
Created by potrace 1.15, written by Peter Selinger 2001-2017
<rdf:RDF>
  <cc:Work
     rdf:about="">
    <dc:format>image/svg+xml</dc:format>
    <dc:type
       rdf:resource="http://purl.org/dc/dcmitype/StillImage" />
    <dc:title />
  </cc:Work>
</rdf:RDF>
</metadata>
  <g
     transform="translate(0.000000,1280.000000) scale(0.100000,-0.100000)"
     fill="#000000"
     stroke="none"
     id="g36">
    <path
       d="m 2970,12427 c 0,-5 14,-41 31,-80 35,-80 47,-198 22,-219 -7,-6 -13,-14 -13,-19 0,-22 -93,-142 -165,-214 -45,-44 -182,-166 -305,-271 -531,-451 -694,-627 -1186,-1281 -311,-413 -318,-426 -261,-490 l 36,-39 -110,-97 C 843,9559 761,9447 776,9383 c 4,-15 33,-63 65,-106 54,-73 59,-83 59,-130 -1,-87 -47,-162 -113,-183 l -28,-9 69,-62 c 75,-67 84,-87 75,-166 l -6,-49 -195,3 c -164,3 -195,6 -199,19 -3,8 -7,21 -9,28 -3,10 -15,7 -46,-11 -64,-37 -107,-48 -236,-61 l -117,-12 102,-7 c 116,-9 202,-29 249,-57 41,-26 43,-25 55,10 l 11,30 h 154 154 l -6,-28 c -8,-39 17,-62 67,-62 21,0 39,-4 39,-10 0,-5 -24,-10 -53,-10 -60,0 -77,-12 -77,-52 0,-31 24,-48 67,-48 h 27 l -22,-16 c -40,-28 -25,-78 26,-86 42,-6 18,-23 -29,-20 -34,2 -48,-1 -52,-12 -6,-16 16,-46 34,-46 5,0 9,-4 9,-9 0,-4 -20,-14 -45,-21 -25,-7 -45,-15 -45,-18 0,-2 16,-22 35,-43 64,-71 95,-159 81,-233 -4,-21 -27,-57 -61,-95 -88,-99 -76,-138 101,-321 l 115,-118 -53,-20 c -76,-28 -78,-37 -34,-127 21,-42 44,-79 52,-82 8,-3 14,-10 14,-16 0,-13 132,-187 142,-187 5,0 8,-5 8,-11 0,-5 17,-36 39,-67 21,-31 69,-109 106,-172 97,-163 149,-239 318,-463 189,-250 269,-339 497,-557 523,-498 654,-643 750,-828 33,-64 55,-180 40,-212 -4,-8 -14,-31 -23,-51 -8,-20 -36,-62 -62,-93 -52,-64 -31,-60 38,8 58,56 96,130 103,204 12,110 -50,234 -237,475 -35,45 -203,222 -374,392 -325,325 -419,430 -552,617 -180,253 -289,450 -347,623 -55,169 -66,269 -48,459 10,109 8,204 -4,216 -8,8 -32,4 -87,-13 l -75,-24 -45,46 c -94,98 -157,196 -157,242 0,12 15,56 34,98 19,42 44,117 56,167 17,73 28,100 56,133 l 35,41 -57,25 c -31,14 -55,27 -53,29 9,9 291,86 314,86 19,0 25,-5 25,-22 0,-34 11,-45 60,-59 25,-7 49,-19 53,-26 9,-15 57,-48.9446 101,-35.9446 17,5 84.9723,10.6759 130.9723,19.6759 74,13 70.0277,50.2687 89.0277,38.2687 13,-10 51.3241,-62.9169 99.3241,-62.9169 47,0 59.7036,0.3241 73.7036,-9.6759 20,-13 63.2687,-2.3518 88.2687,10.6482 24,13 3.4072,-17.9446 90.4072,-26.9446 57,-6 182.9446,-31.2964 238.9446,-29.2964 73,2 99.3518,84.1856 118.3518,74.1856 30,-16 -7,-26 0,0 4,16 -27.3931,-9.684 6.8698,-43.5374 36,-35.5697 186.8338,-24.5822 255.8338,-3.2964 L 2982,8199.759 c 95.0559,-72.1108 178.0698,-112.5279 286.8338,-129.8061 70.0974,-26.9513 232.2338,-30.9384 403.1108,-24.9999 361.9219,-116.4633 414.2425,114.8403 295.0554,143.047 79.3059,-47.0122 46.3697,-270.7451 224,-219.0588 v 0 l -45,-3.5883 c -29.0388,-23.9666 36.203,-2.6927 -55.2019,-92.8512 -33.8824,-49.9412 -84.8142,-121.2099 -80.6377,-166.2099 -19.2353,-89.7058 5.9396,-129.2522 22.7808,-169.647 18.4767,-44.3177 75.8573,-243.0842 168.1913,-210.0737 C 4211.4904,7330.2742 4158,7399 4167,7385 c 3.3587,-80.9065 29,61 -22,-17 -9,-16 -15,-28 -12,-28 3,0 18,20 34,45 15,25 0.5494,-42.5018 1.4095,-45.3759 11.9815,-40.0369 -18.9631,-64.4869 -10.9446,-177.4499 3,-33 60.0254,-115.429 86.0254,-181.429 58,-146 62.1568,-126.5099 40.1568,-172.5099 -11,-24 -6.7059,-67.7647 -7.7059,-115.7647 -2,-85 -24.5722,-80.1731 -18.5134,-121.9966 -24,-6 -91.8879,-76.7797 -94.7703,-129.6033 -6.5294,-31.2941 -36.4106,-64.9561 -51.8224,-115.7796 -20,-33.8235 -61.6689,-70.1049 -75.6273,-145.429 -27.9308,-89.6621 -67.3725,-144.278 -83.0761,-323.9262 -20,-110.2964 1.3793,-198.3979 -4.6207,-260.3979 -6,-62 -63.4522,-168.338 -74.4522,-240.338 -48,-323 2.647,-577.2941 93.647,-1036.2941 18,-96 100.4118,-278.2941 130.4118,-391.2941 54,-201 105.8824,-294.9412 129.8824,-542.9412 11,-120 54,-138.4706 54,-138.4706 -12,-13 -38,-28 -59,-34 -34,-11 -38,-16 -55,-72 -10,-34 -15,-65 -12,-71 4,-5 -1,-9 -9,-9 -9,0 -18,-12 -21,-28 -4,-15 -11,-47 -17,-72 -7,-28 -10,-139 -9,-290 5,-434 5,-438 22,-452 11,-9 22,-52 33,-123 10,-60 26,-146 36,-190 21,-88 23,-120 14,-213 -5,-48 -3,-67 8,-80 8,-9 22,-69 32,-135 10,-64 26,-136 36,-160 19,-45 20,-110 0,-232 -5,-33 -7,-68 -4,-77 3,-9 -2,-32 -12,-49 -14,-28 -14,-34 -2,-43 23,-17 29,-97 12,-156 -11,-38 -31,-68 -79,-118 -91,-97 -143,-227 -102,-260 26,-21 89,-52 106,-52 10,0 24,-7 31,-15 16,-19 54,-19 70,0 11,13 15,14 29,1 45,-39 122,-20 146,36 7,19 23,42 35,53 34,31 50,70 50,119 0,38 6,53 33,83 73,83 82,102 88,198 3,50 12,104 19,120 22,48 39,186 27,210 -7,12 -10,73 -9,150 2,116 6,140 34,227 23,67 38,98 50,101 14,4 18,16 18,55 0,28 -4,54 -10,57 -15,9 -12,53 11,210 28,194 44,253 80,286 33,31 39,80 14,117 -12,17 -15,48 -14,144 0,68 -1,155 -4,194 -6,69 -5,72 19,83 23,10 25,16 22,69 -3,48 -7,59 -25,67 -17,7 -23,18 -23,42 0,18 -3,33 -7,33 -5,1 -19,10 -32,21 l -24,20 28,29 c 28,29 28,29 15,92 -6,35 -16,68 -21,74 -6,7 -6,27 -1,52 5,22 44.2687,205 42.2687,408 -5,398 3.3241,439 56.3241,669 32,139 46.0277,343 60.0277,517 11,130 -4.6205,230 -28.6205,439 -7,56 -21,11 0,0 11,-6 45,-11 76,-11 47,0 57,4 76,27 19,24 22,25 37,11 8,-9 -1.9446,-66.6759 17.0554,-134.6759 18,-68 31.0277,-168.3241 49.0277,-216.3241 46,-129 199.7036,-491.9723 312.7036,-681.9723 54,-90 124.3241,-222.9723 151.3241,-275.9723 45.7479,-118.4017 110.5942,-369.0764 201.6205,-482.0554 14,-60 70.2687,-130 80.2687,-157 11,-29 15,-53 10,-62 -5,-7 -9,-34 -9,-59 0,-25 -6,-54 -14,-64 -18,-26 -9,-53 25,-71 24,-12 28,-18 19,-34 -7,-13 -7,-27 1,-47 6,-15 12,-44 13,-64 1,-19 11,-51 23,-70 11,-19 19,-39 16,-46 -2,-7 17,-54 42,-105 44,-87 46,-97 41,-150 -7,-76 3,-100 63,-143 38,-27 50,-43 56,-71 3,-20 11,-48 17,-63 6,-14 11,-36 12,-49 1,-13 16,-34 33,-48 17,-13 34,-37 38,-52 3,-16 20,-46 37,-67 17,-20 51,-85 76,-144 42,-103 49,-126 51,-164 1,-10 12,-28 26,-41 14,-13 25,-27 25,-32 0,-5 24,-28 53,-50 45,-37 56,-52 84,-125 18,-46 36,-97 39,-114 4,-16 15,-42 26,-57 12,-18 19,-46 20,-90 0,-35 6,-72 11,-83 6,-11 10,-51 8,-88 -2,-57 2,-75 23,-111 14,-24 37,-51 51,-60 14,-9 25,-23 25,-31 0,-25 23,-65 37,-65 7,0 13,5 13,11 0,6 14,-3 31,-20 25,-25 39,-31 74,-31 38,0 47,-5 73,-36 16,-19 47,-66 68,-102 51,-87 107,-148 164,-177 25,-13 52,-35 60,-49 34,-64 130,-87 176,-41 14,14 34,25 44,25 13,0 22,9 26,26 4,15 15,35 25,45 11,11 16,25 12,36 -9,22 -8,66 0,81 21,33 -111,203 -205,263 -42,27 -51,40 -77,107 -16,42 -61,142 -99,222 -97,202 -108,238 -92,305 12,52 12,53 -27,136 -48,100 -70,186 -77,296 -1,12 -10,31 -20,42 -10,11 -19,35 -21,53 -2,18 -8,51 -13,73 -18,67 -52,307 -52,357 0,26 -5,59 -11,75 -8,21 -49,214 -49,231 0,2 5,0 10,-3 14,-9 12,7 -5,49 -8,19 -20,59 -26,88 -13,62 -42,121 -67,140 -10,7 -31,39 -46,70 -16,32 -37,65 -48,74 -10,10 -18,22 -18,29 0,6 -13,32 -30,58 -35,56 -60,62 -60,15 0,-23 -3,-29 -11,-21 -6,6 -12,47 -13,90 -2,44 -6,85 -10,91 -4,7 -31,12 -65,12 -31,0 -64,6 -73,12 -26,21 22.2133,154.7036 6.2133,446.7036 -18,348 -43.2964,413.2964 -67.2964,600.2964 -49,383 -124.7036,732.3241 -255.7036,991.3241 -41,81 -196.6205,384.6759 -240.6205,507.6759 -21,61 -32.3241,80.3449 -24.3241,89.3449 15,18 -25.5789,80.6967 -33.5789,113.6967 -5,19 -2.4372,41.9076 -35.3196,85.0253 -18.6471,40.7059 -16.3968,36.2711 -34.7497,68.2711 3,11 4.4267,47.3979 -4.5733,78.3979 -13,44 -18.3529,60.4129 -49.7647,92.2364 -9.5882,53.8823 -26.1637,44.1869 -28.8119,115.1453 -8.9723,49.3241 -20.9412,163.4118 -38.9412,177.4118 -2.4705,16.4706 -11.1293,40.1326 -11.1293,76.1326 0,48 -16.4001,110.338 3.5999,200.338 3,14 -19,-9 0,0 20,8 71.8824,25 78.8824,42 7,16 8.4705,99 13.4705,184 8,127 22.5295,175 49.5295,265 32,109 37.2352,191.2353 22.2352,243.2353 20.3529,-37.2353 18.0589,66.3529 82.0589,152.3529 112,148 148.444,131.7913 353.444,172.7913 161,32 253.3241,49.6759 357.3241,88.6759 73,27 67.0554,63.9446 90.0554,57.9446 17,-5 42,-4 57,0 16,5 41,12 57,15 16,3 43,22 60,41 17,19 52,48 78,64 81,50 103,113 60,168 -12,15 -40,57 -62,93 -43,73 -69,94 -124,104 -20,4 -36,11 -36,16 0,10 -34,29 -62,34 -11,3 -23,6 -25,9 -2,2 25,30 61,61 36,32 63,62 60,66 -8,13 -58,11 -95,-5 -19,-8 -76,-21 -128,-30 -77,-13 -101,-14 -128,-4 -27,10 -40,10 -66,-1 -17,-7 -75,-26 -127,-43 -52,-16 -113,-40 -136,-53 -31,-18 -50,-23 -76,-18 -28,4 -40,1 -57,-16 l -22,-22 7,36 c 5,27 2,41 -11,55 -16,18 -17,22 -3,38 129,150 696,793 739,838 44,46 69,64 104,74 67,19 147,78 265,198 81,83 100,108 86,110 -10,2 -45,-10 -77,-27 -32,-17 -59,-28 -59,-25 0,4 24,34 52,68 29,33 44,54 34,46 -18,-14 -19,-14 -9,5 6,11 21,29 32,39 25,23 26,35 4,51 -17,13 -33,-1 -166,-153 -26,-29 -47,-49 -47,-46 0,4 7,15 15,24 9,10 18,28 21,41 3,13 8,35 11,49 4,14 16,39 28,55 12,17 25,44 29,60 6,28 3,26 -46,-27 -29,-31 -72,-78 -95,-104 -24,-26 -45,-45 -49,-42 -3,4 11,32 31,63 20,31 30,53 23,49 -7,-5 2,10 19,33 l 33,40 -21,19 c -12,11 -23,14 -27,8 -20,-29 -164,-204 -167,-204 -3,0 11,23 31,50 20,28 33,50 29,50 -4,0 4,15 19,34 30,40 32,49 12,66 -8,6 -12,19 -9,28 10,29 -56,-39 -113,-115 -53,-71 -76,-93 -54,-53 6,10 12,33 14,50 2,17 11,39 20,49 19,20 39,81 27,81 -4,0 -25,-22 -47,-49 -34,-41 -43,-47 -58,-39 -14,8 -21,7 -27,-3 -19,-34 -36,-50 -56,-53 -12,-3 -31,-9 -42,-15 -30,-16 -30,-15 -5,36 31,60 32,83 3,57 -21,-19 -21,-18 1,19 22,37 22,38 4,52 -10,7 -21,12 -24,10 -3,-2 -39,-56 -79,-120 -72,-112 -111,-162 -75,-94 10,19 19,53 20,76 0,23 8,57 16,75 18,37 31,88 24,88 -9,0 -80,-102 -115,-162 -19,-35 -34,-78 -38,-110 -3,-29 -10,-55 -14,-58 -12,-8 -40,-121 -33,-132 3,-5 -13,-38 -35,-74 -23,-36 -41,-67 -41,-69 0,-5 -458,-725 -467,-735 -2,-2 -16,3 -31,12 -26,16 -28,16 -67,-16 -45,-37 -87,-60 -126,-70 l -27,-6 2,-104 c 0,-57 -2,-107 -6,-111 -4,-4 -17,0 -30,9 -12,9 -37,16 -55,16 -40,0 -52,23 -60,112 -6,56 8,95 28,83 4,-3 33,18 62,48 62,61 107,163 131,294 14,78 14,78 16,28 3,-48 3,-49 10,-15 4,19 8,28 10,20 5,-33 18,39 19,105 1,78 20,74 22,-5 0,-34 2,-40 9,-25 14,32 11,243 -4,330 -18,103 -48,180 -96,253 -51,76 -191,209 -258,245 -59,32 -176,67 -230,69 -41,2 -226,-20 -257,-29 -11,-4 -34,-5 -51,-4 -23,2 -43,-7 -75,-33 -24,-19 -59,-42 -77,-51 -115,-52 -242,-229 -302,-420 -26,-86 -32,-135 -21,-200 l 9,-50 1,53 c 2,91 18,48 20,-53 1,-52 8,-132 17,-177 16,-91 65,-271 71,-265 2,2 -8,53 -23,113 -41,174 -67,393 -44,379 6,-3 10,-30 10,-58 0,-29 10,-90 21,-137 11,-47 20,-90 21,-97 1,-7 5,-10 9,-8 12,8 37,-80 32,-109 -4,-19 1,-34 15,-49 11,-12 32,-57 48,-100 15,-44 33,-81 41,-84 7,-3 12.2563,-16.0213 13,-29 2.3492,-41 15.3344,-53.7348 46.8622,-70.7348 36.5,-17 72.6026,-44.6331 142.1908,-37.2802 64.674,-2.4756 55.8949,-10.7444 65.616,-10.3022 23.271,-59.5484 25.4045,13.6031 -246.4003,-87.7382 C 4431.2687,8768.9446 4341,8725 4334,8719 c -9,-7 -30,-7 -70,0 -32,6 -77.6759,37.6205 -108.6759,37.6205 -92,0 -252.3795,9.2687 -348.3795,-19.7313 -65.7144,0.7142 -144.6589,52.8906 -428.8892,16.9169 C 3237.7099,8773.1151 3033.4343,8645.8687 2903,8645 c -344.3514,97.6811 -305.4451,42.7561 -298,55 -7,28 20,17 0,0 -8,-6 -21,-10 -30,-8 -14,2 -12,9 12,39 15,20 43,47 61,59 38,27 39,56 2,53 -14,-1 -65,-9 -115,-17 -49,-8 -119,-14 -155,-14 -46,2 -75,-3 -99,-16 -38,-20 -197,-63 -286,-77 -33,-5 -127,-11 -208,-12 -135,-2 -150,-4 -163,-22 -13,-18 -25,-19 -140,-17 l -125,3 -80,50 c -44,27 -83,49 -86,49 -4,0 -26,12 -50,26 -51,30 -50,33 34,96 29,21 53,42 53,46 0,4 -13,13 -28,20 -36,15 -45,36 -67,143 -10,46 -29,113 -44,149 -37,94 -35,143 11,212 20,30 76,96 125,147 l 88,92 40,-20 c 60,-28 100,-34 114,-18 9,11 8,36 -3,108 -7,52 -13,146 -11,209 2,102 7,128 39,225 44,130 101,240 204,390 198,289 460,565 957,1009 511,455 556,557 351,791 -19,22 -35,36 -36,32 z m 2020,-2051 c 0,-2 -7,-6 -15,-10 -8,-3 -15,-1 -15,4 0,6 7,10 15,10 8,0 15,-2 15,-4 z m 500,-366 c 6,-11 8,-20 6,-20 -3,0 -10,9 -16,20 -6,11 -8,20 -6,20 3,0 10,-9 16,-20 z m 1380,7 c 0,-2 -9,-15 -21,-28 -11,-13 -18,-31 -16,-41 3,-11 -14,-39 -44,-75 -166,-196 -775,-892 -781,-892 -5,-1 -8,24 -8,55 v 55 l 283,357 c 346,436 339,428 396,447 25,8 78,40 116,70 69,54 75,58 75,52 z m -533,-94 c 0,-24 -69,-128 -325,-488 -148,-209 -221,-303 -238,-309 -14,-4 -27,-6 -30,-3 -5,5 430,691 453,715 7,8 18,22 23,33 9,16 91,67 111,69 3,0 6,-8 6,-17 z M 4262,9805 c -11,-53 -21,-83 -24,-73 -6,15 30,173 38,165 2,-1 -5,-43 -14,-92 z m 28,-30 c -18,-102 -20,-105 -16,-40 4,68 27,179 32,160 2,-6 -5,-59 -16,-120 z m 2267,97 c -10,-10 -17,-21 -17,-25 0,-7 -490,-628 -521,-662 -19,-19 -19,-19 -19,7 0,18 65,108 236,324 235,298 301,374 325,374 8,0 7,-6 -4,-18 z m -120,-26 c -13,-34 -511,-653 -540,-671 l -32,-19 26,34 c 14,19 108,152 209,295 102,143 188,261 192,263 4,2 16,18 27,36 14,22 34,37 61,46 23,7 43,17 46,22 8,13 17,9 11,-6 z M 4387,9328 c -3,-7 -5,-2 -5,12 0,14 2,19 5,13 2,-7 2,-19 0,-25 z m 1963,-428 c -8,-5 -22,-9 -30,-9 -10,0 -8,3 5,9 27,12 43,12 25,0 z m -50,-14 c 0,-2 -13,-9 -30,-15 -35,-12 -41,-5 -7,9 25,10 37,12 37,6 z M 1677,8684 c -3,-3 -12,-4 -19,-1 -8,3 -5,6 6,6 11,1 17,-2 13,-5 z m 113,2 c 0,-9 -40,-13 -46,-5 -3,5 6,9 20,9 14,0 26,-2 26,-4 z m 53,-3 c -7,-2 -19,-2 -25,0 -7,3 -2,5 12,5 14,0 19,-2 13,-5 z M 5770.8235,7459 5748,7333 l -30,-17 c -16,-10 0,0 -33,-14 -2.6038,-1.1046 30.3529,49.5294 41.3529,96.5294 19,89 80.1177,187.9412 27.6471,189.4706 1,-2 18.8235,-60 16.8235,-129 z M 7041,880 c 5,0 9,-4 9,-9 0,-4 -11,-6 -25,-3 -14,2 -25,9 -25,14 0,6 7,7 16,4 9,-3 20,-6 25,-6 z"
       id="path4"
       sodipodi:nodetypes="cccscccccccccccccccccccccccccccssssscccccsssscccccccsssscccccccccccccccscccssccccssscccccsccccccsccccccccccssccscscccccccccsccccccccscccccccccccscccccscccccscccccccscccccccccscccsccccccccscccccccccscccsccccccccscccccsscccccccsssssssccccsscsccccccccsscscsccccccscssccscccccccccccccscccccccccccssccccsccccccsccccsccccccccssccccccscsccccccscccccscscccccscscccccccscsccccscccccsccccccscsccccccccccccccccccccccccsccssscccccsccccccsccccccccccccccscccsccscccscccccccccccscsssssssssccccsccccssccscccscccccccccscscsccccccscccccscccsccsccsccccscssccsccccscccsscsss" />
    <path
       d="M3096 11790 c10 -36 50 -114 189 -370 67 -124 182 -340 255 -480 73 -140 160 -304 193 -365 87 -161 469 -806 474 -802 2 2 -83 150 -188 328 -237 400 -253 430 -457 819 -90 173 -214 405 -275 515 -61 110 -130 241 -154 290 -24 50 -41 79 -37 65z"
       id="path6" />
    <path
       d="M4105 7300 c-9 -16 -13 -30 -11 -30 3 0 12 14 21 30 9 17 13 30 11 30 -3 0 -12 -13 -21 -30z"
       id="path8" />
    <path
       d="M4060 7220 c-11 -22 -18 -40 -15 -40 2 0 14 18 25 40 11 22 18 40 15 40 -2 0 -14 -18 -25 -40z"
       id="path10" />
    <path
       d="M3995 7100 c-19 -38 -33 -70 -30 -70 2 0 21 32 40 70 19 39 33 70 30 70 -2 0 -21 -31 -40 -70z"
       id="path12" />
    <path
       d="M3930 6980 c-11 -22 -18 -40 -15 -40 2 0 14 18 25 40 11 22 18 40 15 40 -2 0 -14 -18 -25 -40z"
       id="path14" />
    <path
       d="M3875 6880 c-14 -27 -23 -50 -20 -50 2 0 16 23 30 50 14 28 23 50 20 50 -2 0 -16 -22 -30 -50z"
       id="path16" />
    <path
       d="M3815 6770 c-14 -27 -23 -50 -20 -50 2 0 16 23 30 50 14 28 23 50 20 50 -2 0 -16 -22 -30 -50z"
       id="path18" />
    <path
       d="M3740 6630 c-17 -33 -28 -60 -25 -60 2 0 18 27 35 60 17 33 28 60 25 60 -2 0 -18 -27 -35 -60z"
       id="path20" />
    <path
       d="M3650 6460 c-22 -44 -38 -80 -35 -80 3 0 23 36 45 80 22 44 38 80 35 80 -3 0 -23 -36 -45 -80z"
       id="path22" />
    <path
       d="M3535 6239 c-4 -6 -5 -12 -2 -15 2 -3 7 2 10 11 7 17 1 20 -8 4z"
       id="path24" />
    <path
       d="M3500 6169 c-12 -23 -20 -43 -18 -45 3 -2 14 17 26 41 27 56 20 60 -8 4z"
       id="path26" />
    <path
       d="M3285 5740 c-14 -27 -23 -50 -20 -50 2 0 16 23 30 50 14 28 23 50 20 50 -2 0 -16 -22 -30 -50z"
       id="path28" />
    <path
       d="M3200 5580 c-11 -22 -18 -40 -15 -40 2 0 14 18 25 40 11 22 18 40 15 40 -2 0 -14 -18 -25 -40z"
       id="path30" />
    <path
       d="M3105 5400 c-14 -27 -23 -50 -20 -50 2 0 16 23 30 50 14 28 23 50 20 50 -2 0 -16 -22 -30 -50z"
       id="path32" />
    <path
       d="M2996 5185 c-9 -26 -7 -32 5 -12 6 10 9 21 6 23 -2 3 -7 -2 -11 -11z"
       id="path34" />
  </g>
</svg>
