<?xml version="1.0" encoding="UTF-8" standalone="no"?>
<svg
   xmlns:dc="http://purl.org/dc/elements/1.1/"
   xmlns:cc="http://creativecommons.org/ns#"
   xmlns:rdf="http://www.w3.org/1999/02/22-rdf-syntax-ns#"
   xmlns:svg="http://www.w3.org/2000/svg"
   xmlns="http://www.w3.org/2000/svg"
   xmlns:sodipodi="http://sodipodi.sourceforge.net/DTD/sodipodi-0.dtd"
   xmlns:inkscape="http://www.inkscape.org/namespaces/inkscape"
   version="1.0"
   width="800.000000pt"
   height="1280.000000pt"
   viewBox="0 0 800.000000 1280.000000"
   preserveAspectRatio="xMidYMid meet"
   id="svg38"
   sodipodi:docname="45archer.svg"
   inkscape:version="1.0.2 (e86c870879, 2021-01-15, custom)">
  <defs
     id="defs42" />
  <sodipodi:namedview
     pagecolor="#ffffff"
     bordercolor="#666666"
     borderopacity="1"
     objecttolerance="10"
     gridtolerance="10"
     guidetolerance="10"
     inkscape:pageopacity="0"
     inkscape:pageshadow="2"
     inkscape:window-width="1920"
     inkscape:window-height="1017"
     id="namedview40"
     showgrid="false"
     inkscape:zoom="0.49804689"
     inkscape:cx="1478.7328"
     inkscape:cy="333.17039"
     inkscape:window-x="-8"
     inkscape:window-y="-8"
     inkscape:window-maximized="1"
     inkscape:current-layer="svg38"
     inkscape:document-rotation="0" />
  <metadata
     id="metadata2">
Created by potrace 1.15, written by Peter Selinger 2001-2017
<rdf:RDF>
  <cc:Work
     rdf:about="">
    <dc:format>image/svg+xml</dc:format>
    <dc:type
       rdf:resource="http://purl.org/dc/dcmitype/StillImage" />
    <dc:title />
  </cc:Work>
</rdf:RDF>
</metadata>
  <g
     transform="translate(0.000000,1280.000000) scale(0.100000,-0.100000)"
     fill="#000000"
     stroke="none"
     id="g36">
    <path
       d="m 2970,12427 c 0,-5 14,-41 31,-80 35,-80 47,-198 22,-219 -7,-6 -13,-14 -13,-19 0,-22 -93,-142 -165,-214 -45,-44 -182,-166 -305,-271 -531,-451 -694,-627 -1186,-1281 -311,-413 -318,-426 -261,-490 l 36,-39 -110,-97 C 843,9559 761,9447 776,9383 c 4,-15 33,-63 65,-106 54,-73 59,-83 59,-130 -1,-87 -47,-162 -113,-183 l -28,-9 69,-62 c 75,-67 84,-87 75,-166 l -6,-49 -195,3 c -164,3 -195,6 -199,19 -3,8 -7,21 -9,28 -3,10 -15,7 -46,-11 -64,-37 -107,-48 -236,-61 l -117,-12 102,-7 c 116,-9 202,-29 249,-57 41,-26 43,-25 55,10 l 11,30 h 154 154 l -6,-28 c -8,-39 17,-62 67,-62 21,0 39,-4 39,-10 0,-5 -24,-10 -53,-10 -60,0 -77,-12 -77,-52 0,-31 24,-48 67,-48 h 27 l -22,-16 c -40,-28 -25,-78 26,-86 42,-6 18,-23 -29,-20 -34,2 -48,-1 -52,-12 -6,-16 16,-46 34,-46 5,0 9,-4 9,-9 0,-4 -20,-14 -45,-21 -25,-7 -45,-15 -45,-18 0,-2 16,-22 35,-43 64,-71 95,-159 81,-233 -4,-21 -27,-57 -61,-95 -88,-99 -76,-138 101,-321 l 115,-118 -53,-20 c -76,-28 -78,-37 -34,-127 21,-42 44,-79 52,-82 8,-3 14,-10 14,-16 0,-13 132,-187 142,-187 5,0 8,-5 8,-11 0,-5 17,-36 39,-67 21,-31 69,-109 106,-172 97,-163 149,-239 318,-463 189,-250 269,-339 497,-557 523,-498 654,-643 750,-828 33,-64 55,-180 40,-212 -4,-8 -14,-31 -23,-51 -8,-20 -36,-62 -62,-93 -52,-64 -31,-60 38,8 58,56 96,130 103,204 12,110 -50,234 -237,475 -35,45 -203,222 -374,392 -325,325 -419,430 -552,617 -180,253 -289,450 -347,623 -55,169 -66,269 -48,459 10,109 8,204 -4,216 -8,8 -32,4 -87,-13 l -75,-24 -45,46 c -94,98 -157,196 -157,242 0,12 15,56 34,98 19,42 44,117 56,167 17,73 28,100 56,133 l 35,41 -57,25 c -31,14 -55,27 -53,29 9,9 291,86 314,86 19,0 25,-5 25,-22 0,-34 11,-45 60,-59 25,-7 49,-19 53,-26 9,-15 57,-48.9446 101,-35.9446 17,5 84.9723,10.6759 130.9723,19.6759 74,13 70.0277,50.2687 89.0277,38.2687 13,-10 51.3241,-62.9169 99.3241,-62.9169 47,0 59.7036,0.3241 73.7036,-9.6759 20,-13 63.2687,-2.3518 88.2687,10.6482 24,13 3.4072,-17.9446 90.4072,-26.9446 57,-6 182.9446,-31.2964 238.9446,-29.2964 73,2 99.3518,84.1856 118.3518,74.1856 30,-16 -7,-26 0,0 4,16 -27.3931,-9.684 6.8698,-43.5374 36,-35.5697 186.8338,-24.5822 255.8338,-3.2964 L 2982,8199.759 c 95.0559,-72.1108 178.0698,-112.5279 286.8338,-129.8061 70.0974,-26.9513 213.5995,-57.5589 384.4765,-51.6204 C 4015.2322,7901.8692 4086.1871,8159.7933 3967,8188 c 61.4605,-61.4071 -88.9046,-390.9563 224,-219.0588 v 0 l -86.4118,-11.1177 c -29.1402,-23.9666 -100.8759,-24.7871 -13.7901,-85.3218 -33.8824,-49.9412 -111.4348,-208.0657 -107.2583,-253.0657 -0.3816,-432.3752 232.5857,-389.0848 127.8143,-275.594 -22.2674,24.1206 242.4635,-107.1617 337.5477,-64.956 C 4458.9558,7283.3487 4158,7399 4167,7385 c 3.3587,-80.9065 17,33 -34,-45 -9,-16 -3,0 0,0 3,0 18,20 34,45 15,25 -54.7577,-35.2956 -53.1787,-37.8465 C 4158.7795,7274.5208 3937.2581,7216.1419 3930,6980 c -171.01,-292.6786 -151.3851,-415.6084 -117.8495,-703.8332 357.3716,-1087.5444 301.6695,-379.619 135.0991,-127.5357 -22.0201,-217.4405 -91.9866,-81.3024 -115.6666,-343.4742 -48.1852,-366.5183 155.1468,-431.8307 105.28,-382.8521 -44.4395,43.6479 -52.804,-88.9333 -63.804,-160.9333 -72.617,-320.1797 6.8897,-731.6496 51.8568,-983.4314 18,-96 29.2609,-252.5871 59.2609,-365.5871 31.5577,-223.4423 76.7742,-369.2258 190.1176,-527.8824 11,-120 47.7059,-172.4706 47.7059,-172.4706 -12,-13 21,6 0,0 -34,-11 -38,-16 -55,-72 -10,-34 -15,-65 -12,-71 4,-5 -1,-9 -9,-9 -9,0 -18,-12 -21,-28 -4,-15 -11,-47 -17,-72 -7,-28 -60.5006,-133.6759 -59.5006,-284.6759 5,-434 28.8801,-448.6482 45.8801,-462.6482 11,-9 32.2759,-52.0587 40.1091,-226.5293 7.8332,-174.4707 78.5114,-201.1466 69.5114,-294.1466 -5,-48 -3,-67 8,-80 8,-9 22,-69 32,-135 10,-64 26,-136 36,-160 19,-45 20,-110 0,-232 -5,-33 -7,-68 -4,-77 3,-9 -2,-32 -12,-49 -14,-28 -14,-34 -2,-43 23,-17 29,-97 12,-156 -11,-38 -31,-68 -79,-118 -91,-97 -143,-227 -102,-260 26,-21 89,-52 106,-52 10,0 24,-7 31,-15 16,-19 54,-19 70,0 11,13 15,14 29,1 45,-39 122,-20 146,36 7,19 23,42 35,53 34,31 50,70 50,119 0,38 6,53 33,83 73,83 82,102 88,198 3,50 12,104 19,120 22,48 39,186 27,210 -7,12 12.5882,76.7647 13.5882,153.7647 2,116 9.7647,136.2353 37.7647,223.2353 23,67 11.6471,98 23.6471,101 14,4 18,16 18,55 0,28 -4,118 -10,121 -15,9 29.4118,-3.4706 52.4118,153.5294 28,194 2.5882,245.4706 38.5882,278.4706 33,31 39,80 14,117 -12,17 15.1176,48 16.1176,144 0,68 -8.5294,173.8235 -11.5294,212.8235 -6,69 -27.5882,53.1765 -3.5882,64.1765 23,10 -1.6205,18.662 -4.6205,71.662 -3,48 19.6205,56.338 1.6205,64.338 -17,7 -23,18 -23,42 0,18 -3,33 -7,33 -5,1 -0.3657,-3.3102 -13.3657,7.6898 l 3.9931,13.3102 7.0796,46.1096 c 6.0307,39.2778 24.8812,-15.532 11.8812,83.5963 -6,35 -38.5882,79.2941 -43.5882,85.2941 -6,7 -6,27 -1,52 5,20.8502 74.3863,162.3647 72.3863,415.5294 109.9961,385.4857 88.0046,408.5835 139.1477,638.8824 32,139 23.4395,365.5882 37.4395,539.5882 6.5571,136.7499 52.0247,288.7546 -57.0808,433.0104 -7,56 -21,11 0,0 11,-6 -3.4166,0.09 3.4591,-11 32.3903,-52.2411 104.2775,0.2052 86.6482,32.9896 19,24 -34.9654,-3.3033 -19.9654,-17.3033 8,-9 -17.2329,-36.376 -5.5535,-104.376 -13.276,-79.9792 33.0524,-207.9677 60.8373,-255.9677 44.6578,-129 143.0126,-491.9723 286.3507,-685.737 35.3785,-97.4486 78.3555,-141.2186 162.6182,-257.1488 45.7479,-118.4017 193.4177,-346.4882 284.444,-459.4672 14,-60 70.2687,-130 80.2687,-157 11,-29 15,-53 10,-62 -5,-7 -9,-34 -9,-59 0,-25 -6,-54 -14,-64 -18,-26 10,-87 44,-105 24,-12 9,16 0,0 -7,-13 -18.2941,-27 -10.2941,-47 6,-15 23.2941,-44 24.2941,-64 1,-19 -7.8235,-51 4.1765,-70 11,-19 37.8235,-39 34.8235,-46 -2,-7 -9.3529,-61.5294 15.6471,-112.5294 44,-87 72.3529,-89.4706 67.3529,-142.4706 -7,-76 3,-100 63,-143 38,-27 36.8235,-46.7647 42.8235,-74.7647 3,-20 9.1177,-48 15.1177,-63 6,-14 11.9412,-37.8824 37.4412,-74.8824 25.5,-37 33.0882,-60.0588 62.0882,-111.0588 29,-51 45.1176,-115.0588 70.1176,-174.0588 42,-103 90.4118,-122.2353 92.4118,-160.2353 1,-10 12,-28 26,-41 14,-13 25,-27 25,-32 0,-5 -2.3529,-28 26.6471,-50 45,-37 52.2353,-55.7647 80.2353,-128.7647 18,-46 66.1176,-93.2353 69.1176,-110.2353 4,-16 15,-42 26,-57 12,-18 19,-46 20,-90 0,-35 6,-72 11,-83 6,-11 10,-51 8,-88 -2,-57 2,-75 23,-111 14,-24 37,-51 51,-60 14,-9 25,-23 25,-31 0,-25 23,-65 37,-65 7,0 13,5 13,11 0,6 14,-3 31,-20 25,-25 39,-31 74,-31 38,0 47,-5 73,-36 16,-19 47,-66 68,-102 51,-87 107,-148 164,-177 25,-13 52,-35 60,-49 34,-64 130,-87 176,-41 14,14 34,25 44,25 13,0 22,9 26,26 4,15 15,35 25,45 11,11 16,25 12,36 -9,22 -8,66 0,81 21,33 -111,203 -205,263 -42,27 -51,40 -77,107 -16,42 -61,142 -99,222 -97,202 -108,238 -92,305 12,52 12,53 -27,136 -48,100 -70,186 -77,296 -1,12 -4.3529,31 -14.3529,42 -10,11 -13.353,33.1176 -15.353,51.1176 -2,18 -9.8823,62.2942 -14.8823,84.2942 -18,67 -25.0566,271.5582 -25.0566,321.5582 0,26 -3.4406,85.03 -9.4406,101.03 -8,21 -71.6078,209.3414 -71.6078,226.3414 0,2 -10.3068,4.6586 -5.3068,1.6586 14,-9 12,7 -5,49 -8,19 -20,59 -26,88 -13,62 -42,121 -67,140 -10,7 -17.8235,50.2941 -32.8235,81.2941 -16,32 -34.2042,59.6955 -81.2042,135.6955 -47,76 -114.3252,113.6575 -114.3252,66.6575 0,-23 8.2941,-25.2353 0.2941,-17.2353 -6,6 59.5294,-20.7647 58.5294,22.2353 -2,44 -62.4706,111.3529 -66.4706,117.3529 -4,7 -31,12 -65,12 -31,0 9,-6 0,0 -9.3853,9.9236 90.8775,100.656 -24.1939,458.7036 -18,348 -64.5928,413.2964 -88.5928,600.2964 -10.5609,375.5997 -82.117,650.3265 -272.3678,971.3195 34.1997,-145.0026 205.7788,249.2112 -90.9196,589.8289 60.7798,28.4851 71.1809,145.5223 -34.5472,297.0664 0,0 73.0802,149.0524 -7.3627,349.1888 -10.9652,83.5232 -52.8846,122.3579 -152.8212,331.1258 -22.2894,52.5997 0,0 0,0 -1.6845,65.3808 -74.9406,80.0585 -68.6654,96.5883 26.1397,84.8819 -33.8839,91.9164 -56.1765,185.8823 -146.6398,-37.6896 124.4826,-161.5317 131.3287,196.3218 35.926,132.556 -29.7845,348.5903 -59.564,311.9135 21.2733,-37.9335 102.1675,-73.8301 138.5295,148.5882 121.2559,102.3081 -31.7008,-39.0234 285.6793,135.1442 169.2671,1.2211 272.7948,42.0282 368.6182,130.0877 73,27 67.0554,63.9446 90.0554,57.9446 17,-5 42,-4 57,0 16,5 41,12 57,15 16,3 43,22 60,41 17,19 52,48 78,64 81,50 103,113 60,168 -12,15 -40,57 -62,93 -43,73 -69,94 -124,104 -20,4 -36,11 -36,16 0,10 -34,29 -62,34 -11,3 -23,6 -25,9 -2,2 25,30 61,61 36,32 63,62 60,66 -8,13 -58,11 -95,-5 -19,-8 -76,-21 -128,-30 -77,-13 -101,-14 -128,-4 -27,10 -40,10 -66,-1 -17,-7 -75,-26 -127,-43 -52,-16 -113,-40 -136,-53 -31,-18 -50,-23 -76,-18 -28,4 -40,1 -57,-16 l -22,-22 7,36 c 5,27 2,41 -11,55 -16,18 -17,22 -3,38 129,150 696,793 739,838 44,46 69,64 104,74 67,19 147,78 265,198 81,83 100,108 86,110 -10,2 -45,-10 -77,-27 -32,-17 -59,-28 -59,-25 0,4 24,34 52,68 29,33 44,54 34,46 -18,-14 -19,-14 -9,5 6,11 21,29 32,39 25,23 26,35 4,51 -17,13 -33,-1 -166,-153 -26,-29 -47,-49 -47,-46 0,4 7,15 15,24 9,10 18,28 21,41 3,13 8,35 11,49 4,14 16,39 28,55 12,17 25,44 29,60 6,28 3,26 -46,-27 -29,-31 -72,-78 -95,-104 -24,-26 -45,-45 -49,-42 -3,4 11,32 31,63 20,31 30,53 23,49 -7,-5 2,10 19,33 l 33,40 -21,19 c -12,11 -23,14 -27,8 -20,-29 -164,-204 -167,-204 -3,0 11,23 31,50 20,28 33,50 29,50 -4,0 4,15 19,34 30,40 32,49 12,66 -8,6 -12,19 -9,28 10,29 -56,-39 -113,-115 -53,-71 -76,-93 -54,-53 6,10 12,33 14,50 2,17 11,39 20,49 19,20 39,81 27,81 -4,0 -25,-22 -47,-49 -34,-41 -43,-47 -58,-39 -14,8 -21,7 -27,-3 -19,-34 -36,-50 -56,-53 -12,-3 -31,-9 -42,-15 -30,-16 -30,-15 -5,36 31,60 32,83 3,57 -21,-19 -21,-18 1,19 22,37 22,38 4,52 -10,7 -21,12 -24,10 -3,-2 -39,-56 -79,-120 -72,-112 -111,-162 -75,-94 10,19 19,53 20,76 0,23 8,57 16,75 18,37 31,88 24,88 -9,0 -80,-102 -115,-162 -19,-35 -34,-78 -38,-110 -3,-29 -10,-55 -14,-58 -12,-8 -40,-121 -33,-132 3,-5 -13,-38 -35,-74 -23,-36 -41,-67 -41,-69 0,-5 -458,-725 -467,-735 -2,-2 -16,3 -31,12 -26,16 -28,16 -67,-16 -45,-37 -87,-60 -126,-70 l -27,-6 2,-104 c 0,-57 -2,-101.3529 -6,-105.3529 -4,-4 -12.2941,0 -25.2941,9 -12,9 -39.0439,15.677 -57.0439,15.677 -40,0 -54.662,17.6759 -62.662,106.6759 27.5328,37.7094 9.2885,94.2972 28,83 4,-3 33,18 62,48 62,61 107,163 131,294 14,78 14,78 16,28 3,-48 3,-49 10,-15 4,19 8,28 10,20 5,-33 18,39 19,105 1,78 20,74 22,-5 0,-34 2,-40 9,-25 14,32 11,243 -4,330 -18,103 -48,180 -96,253 -51,76 -191,209 -258,245 -59,32 -176,67 -230,69 -41,2 -226,-20 -257,-29 -11,-4 -34,-5 -51,-4 -23,2 -43,-7 -75,-33 -24,-19 -59,-42 -77,-51 -115,-52 -242,-229 -302,-420 -26,-86 -32,-135 -21,-200 l 9,-50 1,53 c 2,91 18,48 20,-53 1,-52 8,-132 17,-177 16,-91 65,-271 71,-265 2,2 -8,53 -23,113 -41,174 -67,393 -44,379 6,-3 10,-30 10,-58 0,-29 10,-90 21,-137 11,-47 20,-90 21,-97 1,-7 5,-10 9,-8 12,8 37,-80 32,-109 -4,-19 1,-34 15,-49 11,-12 32,-57 48,-100 15,-44 33,-81 41,-84 7,-3 12.983,-16 13,-29 0.054,-40.9464 0.7798,-55.5096 56.0951,-74.1943 46.6932,-41.7375 120.8615,-64.5368 149.9014,-49.7815 94.1743,-100.7481 30.6394,19.7407 30.7036,12.9793 23.271,-59.5484 22.077,11.6065 -249.7278,-89.7348 C 4409.9723,8774.2687 4341,8725 4334,8719 c -9,-7 -30,-7 -70,0 -32,6 -77.6759,37.6205 -108.6759,37.6205 -92,0 -252.3795,9.2687 -348.3795,-19.7313 -65.7144,0.7142 -144.6589,52.8906 -428.8892,16.9169 C 3237.7099,8773.1151 3033.4343,8645.8687 2903,8645 c -344.3514,97.6811 -305.4451,42.7561 -298,55 -7,28 20,17 0,0 -8,-6 -21,-10 -30,-8 -14,2 -12,9 12,39 15,20 43,47 61,59 38,27 39,56 2,53 -14,-1 -65,-9 -115,-17 -49,-8 -119,-14 -155,-14 -46,2 -75,-3 -99,-16 -38,-20 -197,-63 -286,-77 -33,-5 -127,-11 -208,-12 -135,-2 -150,-4 -163,-22 -13,-18 -25,-19 -140,-17 l -125,3 -80,50 c -44,27 -83,49 -86,49 -4,0 -26,12 -50,26 -51,30 -50,33 34,96 29,21 53,42 53,46 0,4 -13,13 -28,20 -36,15 -45,36 -67,143 -10,46 -29,113 -44,149 -37,94 -35,143 11,212 20,30 76,96 125,147 l 88,92 40,-20 c 60,-28 100,-34 114,-18 9,11 8,36 -3,108 -7,52 -13,146 -11,209 2,102 7,128 39,225 44,130 101,240 204,390 198,289 460,565 957,1009 511,455 556,557 351,791 -19,22 -35,36 -36,32 z m 2020,-2051 c 0,-2 -7,-6 -15,-10 -8,-3 -15,-1 -15,4 0,6 7,10 15,10 8,0 15,-2 15,-4 z m 500,-366 c 6,-11 8,-20 6,-20 -3,0 -10,9 -16,20 -6,11 -8,20 -6,20 3,0 10,-9 16,-20 z m 1380,7 c 0,-2 -9,-15 -21,-28 -11,-13 -18,-31 -16,-41 3,-11 -14,-39 -44,-75 -166,-196 -775,-892 -781,-892 -5,-1 -8,24 -8,55 v 55 l 283,357 c 346,436 339,428 396,447 25,8 78,40 116,70 69,54 75,58 75,52 z m -533,-94 c 0,-24 -69,-128 -325,-488 -148,-209 -221,-303 -238,-309 -14,-4 -27,-6 -30,-3 -5,5 430,691 453,715 7,8 18,22 23,33 9,16 91,67 111,69 3,0 6,-8 6,-17 z M 4262,9805 c -11,-53 -21,-83 -24,-73 -6,15 30,173 38,165 2,-1 -5,-43 -14,-92 z m 28,-30 c -18,-102 -20,-105 -16,-40 4,68 27,179 32,160 2,-6 -5,-59 -16,-120 z m 2267,97 c -10,-10 -17,-21 -17,-25 0,-7 -490,-628 -521,-662 -19,-19 -19,-19 -19,7 0,18 65,108 236,324 235,298 301,374 325,374 8,0 7,-6 -4,-18 z m -120,-26 c -13,-34 -511,-653 -540,-671 l -32,-19 26,34 c 14,19 108,152 209,295 102,143 188,261 192,263 4,2 16,18 27,36 14,22 34,37 61,46 23,7 43,17 46,22 8,13 17,9 11,-6 z M 4387,9328 c -3,-7 -5,-2 -5,12 0,14 2,19 5,13 2,-7 2,-19 0,-25 z m 1963,-428 c -8,-5 -22,-9 -30,-9 -10,0 -8,3 5,9 27,12 43,12 25,0 z m -50,-14 c 0,-2 -13,-9 -30,-15 -35,-12 -41,-5 -7,9 25,10 37,12 37,6 z M 1677,8684 c -3,-3 -12,-4 -19,-1 -8,3 -5,6 6,6 11,1 17,-2 13,-5 z m 113,2 c 0,-9 -40,-13 -46,-5 -3,5 6,9 20,9 14,0 26,-2 26,-4 z m 53,-3 c -7,-2 -19,-2 -25,0 -7,3 -2,5 12,5 14,0 19,-2 13,-5 z M 5770.8235,7459 5748,7333 l -30,-17 c -16,-10 0,0 -33,-14 -2.6038,-1.1046 52,-16 63,31 19,89 58.4706,253.4706 6,255 1,-2 18.8235,-60 16.8235,-129 z M 7041,880 c 5,0 9,-4 9,-9 0,-4 -11,-6 -25,-3 -14,2 -25,9 -25,14 0,6 7,7 16,4 9,-3 20,-6 25,-6 z"
       id="path4"
       sodipodi:nodetypes="cccscccccccccccccccccccccccccccssssscccccsssscccccccsssscccccccccccccccscccssccccssscccccsccccccsccccccccccssccscsccccsccccccccsccccccccccscccccscccccscccccccscccccccccscccsccccccccscccccccccscccsccccccccccccsscccccccsssssssccccsscsccccccccsscscsccccccssccsccccccccccccccccccssccccsccccccsccccsccccccccssccccccscsccccccscccccscscccccscscccccccscsccccscccccsccccccscsccccccccccccccccccccccccsccssscccccsccccccsccccccccccccccscccsccscccscccccccccccscsssssssssccccsccccssccscccscccccccccscscsccccccscccccscccsccsccsccccscssccsccccscccsscsss" />
    <path
       d="M3096 11790 c10 -36 50 -114 189 -370 67 -124 182 -340 255 -480 73 -140 160 -304 193 -365 87 -161 469 -806 474 -802 2 2 -83 150 -188 328 -237 400 -253 430 -457 819 -90 173 -214 405 -275 515 -61 110 -130 241 -154 290 -24 50 -41 79 -37 65z"
       id="path6" />
    <path
       d="M4105 7300 c-9 -16 -13 -30 -11 -30 3 0 12 14 21 30 9 17 13 30 11 30 -3 0 -12 -13 -21 -30z"
       id="path8" />
    <path
       d="M4060 7220 c-11 -22 -18 -40 -15 -40 2 0 14 18 25 40 11 22 18 40 15 40 -2 0 -14 -18 -25 -40z"
       id="path10" />
    <path
       d="M3995 7100 c-19 -38 -33 -70 -30 -70 2 0 21 32 40 70 19 39 33 70 30 70 -2 0 -21 -31 -40 -70z"
       id="path12" />
    <path
       d="M3930 6980 c-11 -22 -18 -40 -15 -40 2 0 14 18 25 40 11 22 18 40 15 40 -2 0 -14 -18 -25 -40z"
       id="path14" />
    <path
       d="M3875 6880 c-14 -27 -23 -50 -20 -50 2 0 16 23 30 50 14 28 23 50 20 50 -2 0 -16 -22 -30 -50z"
       id="path16" />
    <path
       d="M3815 6770 c-14 -27 -23 -50 -20 -50 2 0 16 23 30 50 14 28 23 50 20 50 -2 0 -16 -22 -30 -50z"
       id="path18" />
    <path
       d="M3740 6630 c-17 -33 -28 -60 -25 -60 2 0 18 27 35 60 17 33 28 60 25 60 -2 0 -18 -27 -35 -60z"
       id="path20" />
    <path
       d="M3650 6460 c-22 -44 -38 -80 -35 -80 3 0 23 36 45 80 22 44 38 80 35 80 -3 0 -23 -36 -45 -80z"
       id="path22" />
    <path
       d="M3535 6239 c-4 -6 -5 -12 -2 -15 2 -3 7 2 10 11 7 17 1 20 -8 4z"
       id="path24" />
    <path
       d="M3500 6169 c-12 -23 -20 -43 -18 -45 3 -2 14 17 26 41 27 56 20 60 -8 4z"
       id="path26" />
    <path
       d="M3285 5740 c-14 -27 -23 -50 -20 -50 2 0 16 23 30 50 14 28 23 50 20 50 -2 0 -16 -22 -30 -50z"
       id="path28" />
    <path
       d="M3200 5580 c-11 -22 -18 -40 -15 -40 2 0 14 18 25 40 11 22 18 40 15 40 -2 0 -14 -18 -25 -40z"
       id="path30" />
    <path
       d="M3105 5400 c-14 -27 -23 -50 -20 -50 2 0 16 23 30 50 14 28 23 50 20 50 -2 0 -16 -22 -30 -50z"
       id="path32" />
    <path
       d="M2996 5185 c-9 -26 -7 -32 5 -12 6 10 9 21 6 23 -2 3 -7 -2 -11 -11z"
       id="path34" />
  </g>
</svg>
