<?xml version="1.0" encoding="UTF-8" standalone="no"?>
<svg
   xmlns:dc="http://purl.org/dc/elements/1.1/"
   xmlns:cc="http://creativecommons.org/ns#"
   xmlns:rdf="http://www.w3.org/1999/02/22-rdf-syntax-ns#"
   xmlns:svg="http://www.w3.org/2000/svg"
   xmlns="http://www.w3.org/2000/svg"
   xmlns:sodipodi="http://sodipodi.sourceforge.net/DTD/sodipodi-0.dtd"
   xmlns:inkscape="http://www.inkscape.org/namespaces/inkscape"
   version="1.0"
   width="800.000000pt"
   height="1280.000000pt"
   viewBox="0 0 800.000000 1280.000000"
   preserveAspectRatio="xMidYMid meet"
   id="svg38"
   sodipodi:docname="60archer.svg"
   inkscape:version="1.0.2 (e86c870879, 2021-01-15, custom)">
  <defs
     id="defs42" />
  <sodipodi:namedview
     pagecolor="#ffffff"
     bordercolor="#666666"
     borderopacity="1"
     objecttolerance="10"
     gridtolerance="10"
     guidetolerance="10"
     inkscape:pageopacity="0"
     inkscape:pageshadow="2"
     inkscape:window-width="1920"
     inkscape:window-height="1017"
     id="namedview40"
     showgrid="false"
     inkscape:zoom="0.35217233"
     inkscape:cx="421.33762"
     inkscape:cy="1325.5467"
     inkscape:window-x="-8"
     inkscape:window-y="-8"
     inkscape:window-maximized="1"
     inkscape:current-layer="svg38"
     inkscape:document-rotation="0" />
  <metadata
     id="metadata2">
Created by potrace 1.15, written by Peter Selinger 2001-2017
<rdf:RDF>
  <cc:Work
     rdf:about="">
    <dc:format>image/svg+xml</dc:format>
    <dc:type
       rdf:resource="http://purl.org/dc/dcmitype/StillImage" />
    <dc:title></dc:title>
  </cc:Work>
</rdf:RDF>
</metadata>
  <g
     transform="translate(0.000000,1280.000000) scale(0.100000,-0.100000)"
     fill="#000000"
     stroke="none"
     id="g36">
    <path
       d="m 2970,12427 c 0,-5 14,-41 31,-80 35,-80 47,-198 22,-219 -7,-6 -13,-14 -13,-19 0,-22 -93,-142 -165,-214 -45,-44 -182,-166 -305,-271 -531,-451 -694,-627 -1186,-1281 -311,-413 -318,-426 -261,-490 l 36,-39 -110,-97 C 843,9559 761,9447 776,9383 c 4,-15 33,-63 65,-106 54,-73 59,-83 59,-130 -1,-87 -47,-162 -113,-183 l -28,-9 69,-62 c 75,-67 84,-87 75,-166 l -6,-49 -195,3 c -164,3 -195,6 -199,19 -3,8 -7,21 -9,28 -3,10 -15,7 -46,-11 -64,-37 -107,-48 -236,-61 l -117,-12 102,-7 c 116,-9 202,-29 249,-57 41,-26 43,-25 55,10 l 11,30 h 154 154 l -6,-28 c -8,-39 17,-62 67,-62 21,0 39,-4 39,-10 0,-5 -24,-10 -53,-10 -60,0 -77,-12 -77,-52 0,-31 24,-48 67,-48 h 27 l -22,-16 c -40,-28 -25,-78 26,-86 42,-6 18,-23 -29,-20 -34,2 -48,-1 -52,-12 -6,-16 16,-46 34,-46 5,0 9,-4 9,-9 0,-4 -20,-14 -45,-21 -25,-7 -45,-15 -45,-18 0,-2 16,-22 35,-43 64,-71 95,-159 81,-233 -4,-21 -27,-57 -61,-95 -88,-99 -76,-138 101,-321 l 115,-118 -53,-20 c -76,-28 -78,-37 -34,-127 21,-42 44,-79 52,-82 8,-3 14,-10 14,-16 0,-13 132,-187 142,-187 5,0 8,-5 8,-11 0,-5 17,-36 39,-67 21,-31 69,-109 106,-172 97,-163 149,-239 318,-463 189,-250 269,-339 497,-557 523,-498 654,-643 750,-828 33,-64 55,-180 40,-212 -4,-8 -14,-31 -23,-51 -8,-20 -36,-62 -62,-93 -52,-64 -31,-60 38,8 58,56 96,130 103,204 12,110 -50,234 -237,475 -35,45 -203,222 -374,392 -325,325 -419,430 -552,617 -180,253 -289,450 -347,623 -55,169 -66,269 -48,459 10,109 8,204 -4,216 -8,8 -32,4 -87,-13 l -75,-24 -45,46 c -94,98 -157,196 -157,242 0,12 15,56 34,98 19,42 44,117 56,167 17,73 28,100 56,133 l 35,41 -57,25 c -31,14 -55,27 -53,29 9,9 291,86 314,86 19,0 25,-5 25,-22 0,-34 11,-45 60,-59 25,-7 49,-19 53,-26 9,-15 57,-48.9446 101,-35.9446 17,5 90.2964,-7.9584 136.2964,1.0416 74,13 51.3934,2.3518 70.3934,-9.6482 13,-10 119.6041,-65.0779 112.6343,3.6343 -4.7431,46.7601 88.9861,-52.9169 102.9861,-62.9169 20,-13 33.9862,50.8892 58.9862,63.8892 24,13 24.7036,-44.5651 111.7036,-53.5651 57,-6 214.8891,-105.8337 270.8891,-103.8337 73,2 32.2748,147.4531 51.2748,137.4531 -3.3896,-20.1737 -9.2033,-26.2754 0,0 4,16 30.048,37.6446 0,0 -107.9243,-135.2096 207.5397,-75.4841 276.5397,-54.1983 l 101.6921,-11.0715 c 95.0559,-72.1108 149.9682,-164.1866 258.7322,-181.4648 105.0795,-73.5941 209.5058,-75.7467 377.5931,-66.0887 504.1645,-339.2368 506.473,281.2619 373.279,357.7136 18.0758,-89.2039 -337.4347,-478.5361 224,-219.0588 v 0 l -86.4118,-11.1177 c -29.1402,-23.9666 -327.1697,55.0158 -90.9895,-95.97 -42.9876,-43.8711 -236.8816,-170.3263 -248.001,-429.6285 90.4621,-536.2662 474.8667,-205.8682 345.7564,-88.383 -24.2798,22.0937 242.4635,-107.1617 337.5477,-64.956 C 4458.9558,7283.3487 4158,7399 4167,7385 c 3.3587,-80.9065 17,33 -34,-45 -9,-16 -3,0 0,0 3,0 18,20 34,45 15,25 -54.8291,-35.3412 -53.1787,-37.8465 47.5102,-72.1223 -336.0745,-8.1511 -367.5352,-269.9172 -109.158,30.9097 -439.8254,-899.5014 -193.6787,-938.5826 30.6864,-531.2052 531.1495,-265.446 394.6422,9.9774 -22.0201,-217.4405 -231.4375,-135.646 -255.1175,-397.8178 -114.6937,-415.5339 58.4226,-565.7118 26.2212,-506.3632 -29.7062,54.7498 4.3125,85.8026 -6.6875,13.8026 -72.617,-320.1797 77.7732,-733.8549 160.009,-985.6367 18,-96 46.7926,-231.2907 76.7926,-344.2907 31.5577,-223.4423 72.5528,-387.8601 185.8962,-546.5167 -4.126,-157.815 60.8779,-236.7053 87.6366,-169.8086 -12,-13 21,6 0,0 -34,-11 -38,-16 -55,-72 -10,-34 -15,-65 -12,-71 4,-5 -1,-9 -9,-9 -9,0 -18,-12 -21,-28 -4,-15 -11,-47 -17,-72 -7,-28 -60.5006,-133.6759 -59.5006,-284.6759 5,-434 28.8801,-448.6482 45.8801,-462.6482 11,-9 32.2759,-52.0587 40.1091,-226.5293 7.8332,-174.4707 78.5114,-201.1466 69.5114,-294.1466 -5,-48 -3,-67 8,-80 8,-9 22,-69 32,-135 10,-64 26,-136 36,-160 19,-45 20,-110 0,-232 -5,-33 -7,-68 -4,-77 3,-9 -2,-32 -12,-49 -14,-28 -14,-34 -2,-43 23,-17 29,-97 12,-156 -11,-38 -31,-68 -79,-118 -91,-97 -143,-227 -102,-260 26,-21 89,-52 106,-52 10,0 24,-7 31,-15 16,-19 54,-19 70,0 11,13 15,14 29,1 45,-39 122,-20 146,36 7,19 23,42 35,53 34,31 50,70 50,119 0,38 6,53 33,83 73,83 82,102 88,198 3,50 12,104 19,120 22,48 49.6482,186 37.6482,210 -7,12 23.8823,73 24.8823,150 2,116 -3.0888,140 24.9112,227 23,67 2.5583,98 14.5583,101 14,4 18,16 18,55 0,28 37.4118,114.2353 31.4118,117.2353 -15,9 14.3529,0.2941 37.3529,157.2941 28,194 -16.2353,241.7059 19.7647,274.7059 33,31 31.4706,83.7647 6.4706,120.7647 -12,17 22.647,51.7647 23.647,147.7647 0,68 -8.5294,170.0588 -11.5294,209.0588 -6,69 -35.1176,53.1765 -11.1176,64.1765 23,10 3.7036,18.662 0.7036,71.662 -3,48 19.6205,57.0035 1.6205,65.0035 -17,7 -18.3414,17.3345 -18.3414,41.3345 0,18 -8.9896,33 -12.9896,33 -5,1 2.9618,-1.3137 -10.0382,9.6863 l 1.9966,14.6413 9.0761,42.782 c 8.2469,38.8729 17.5606,-15.532 4.5606,83.5963 -6,35 -38.5882,79.2941 -43.5882,85.2941 2.4095,5.3181 10.1508,23.7698 -1,52 -3.0226,-131.0848 135.9506,125.0466 106.9929,404.8812 139.8527,365.143 93.3138,410.4818 128.4995,649.5306 71.6084,139 77.4273,353.4388 54.7036,538.4855 6.5571,136.7499 10.8022,289.8573 -98.3033,434.1131 -7,56 -21,11 0,0 11,-6 -3.4166,0.09 3.4591,-11 32.3903,-52.2411 104.2775,0.2052 86.6482,32.9896 19,24 -34.9654,-3.3033 -19.9654,-17.3033 8,-9 -17.2329,-36.376 -5.5535,-104.376 -13.276,-79.9792 -9.5404,-207.9677 18.2445,-255.9677 21.4964,-140.5807 87.6485,-490.7894 233.0314,-683.5317 35.3785,-97.4486 35.4626,-171.7929 119.7253,-287.7231 45.7479,-118.4017 172.4997,-366.0361 263.526,-479.0151 14,-60 134.1579,-106.0415 144.1579,-133.0415 11,-29 66.1695,-32.8063 61.1695,-41.8063 -5,-7 16.2226,-27.5733 16.2226,-52.5733 0,-25 4.9711,-56.662 -3.0289,-66.662 -18,-26 3.4118,-87.9412 37.4118,-105.9412 24,-12 9,16 0,0 -7,-13 -15.4706,-27 -7.4706,-47 6,-15 20.4706,-45.8823 21.4706,-65.8823 1,-19 -5,-50.0589 7,-69.0589 11,-19 30.2941,-37.1176 27.2941,-44.1176 -2,-7 -4.647,-64.3529 20.353,-115.3529 44,-87 75.1764,-87.5883 70.1764,-140.5883 -7,-76 3,-103.7647 63,-146.7647 38,-27 35.083,-44.7208 41.083,-72.7208 3,-20 8.4522,-49.3311 14.4522,-64.3311 6,-14 11.2757,-41.2099 36.7757,-78.2099 25.5,-37 24.8656,-72.5029 53.8656,-123.5029 29,-51 51.7058,-102.8235 76.7058,-161.8235 42,-103 84.7648,-116.5883 86.7648,-154.5883 1,-10 21.4117,-28 35.4117,-41 14,-13 25,-30.7647 25,-35.7647 0,-5 -4.2352,-33.647 24.7648,-55.647 45,-37 59.7647,-52 87.7647,-125 18,-46 61.4117,-87.5883 64.4117,-104.5883 4,-16 15,-43.8823 26,-58.8823 12,-18 31.2353,-42.2353 32.2353,-86.2353 0,-35 6,-72 11,-83 6,-11 10,-51 8,-88 -2,-57 2,-75 23,-111 14,-24 37,-51 51,-60 14,-9 25,-23 25,-31 0,-25 23,-65 37,-65 7,0 13,5 13,11 0,6 14,-3 31,-20 25,-25 39,-31 74,-31 38,0 47,-5 73,-36 16,-19 47,-66 68,-102 51,-87 107,-148 164,-177 25,-13 52,-35 60,-49 34,-64 130,-87 176,-41 14,14 34,25 44,25 13,0 22,9 26,26 4,15 15,35 25,45 11,11 16,25 12,36 -9,22 -8,66 0,81 21,33 -111,203 -205,263 -42,27 -51,40 -77,107 -16,42 -61,142 -99,222 -97,202 -108,238 -92,305 12,52 12,53 -27,136 -48,100 -70,186 -77,296 -1,12 -4.3529,31 -14.3529,42 -10,11 -13.353,33.1176 -15.353,51.1176 -2,18 -9.8823,62.2942 -14.8823,84.2942 -18,67 -25.0566,271.5582 -25.0566,321.5582 0,26 -3.4406,85.03 -9.4406,101.03 -8,21 -71.6078,209.3414 -71.6078,226.3414 0,2 -10.3068,4.6586 -5.3068,1.6586 14,-9 12,7 -5,49 -8,19 -20,59 -26,88 -13,62 -42,121 -67,140 -10,7 -17.8235,50.2941 -32.8235,81.2941 -16,32 -34.2042,59.6955 -81.2042,135.6955 -47,76 -114.3252,113.6575 -114.3252,66.6575 0,-23 8.2941,-25.2353 0.2941,-17.2353 -6,6 59.5294,-20.7647 58.5294,22.2353 0.7707,43.7691 -27.4716,108.4363 -66.4706,117.3529 -4,7 -31,12 -65,12 -31,0 47.5997,-7.331 38.5997,-1.331 -9.3853,9.9236 71.1013,98.2223 -43.9701,456.2699 -18,348 -53.2987,413.2964 -77.2987,600.2964 -8.6703,374.9695 56.3267,805.5439 -158.7347,1134.8071 34.1997,-145.0026 144.8516,63.1354 -151.8468,403.7531 60.7798,28.4851 97.8014,137.5362 -7.9267,289.0803 0,0 91.793,109.7675 11.3501,309.9039 -7.7181,83.5232 -59.4163,174.6854 -206.4406,383.4533 -22.2894,52.5997 0,0 0,0 -1.6845,65.3808 -90.9129,96.0308 -84.6377,112.5606 26.1397,84.8819 -92.449,97.2405 -114.7416,191.2064 -165.9522,-76.3145 156.8768,-389.5688 237.8107,116.4603 35.926,132.556 -136.2665,428.4518 -166.046,391.775 20.6036,-40.4684 116.9133,-208.4155 138.5295,148.5882 -49.6331,18.1449 -111.9517,-273.6676 291.6493,45.8155 155.8991,-38.8829 266.7493,131.1305 362.6482,219.4164 22.6629,-10.7528 71.2999,36.5144 95.3795,31.3241 17,-5 36.6759,22.6205 51.6759,26.6205 16,5 41,12 57,15 16,3 43,22 60,41 17,19 52,48 78,64 81,50 103,113 60,168 -12,15 -40,57 -62,93 -43,73 -69,94 -124,104 -20,4 -36,11 -36,16 0,10 -34,29 -62,34 -11,3 -23,6 -25,9 -2,2 25,30 61,61 36,32 63,62 60,66 -8,13 -58,11 -95,-5 -19,-8 -76,-21 -128,-30 -77,-13 -101,-14 -128,-4 -27,10 -40,10 -66,-1 -17,-7 -75,-26 -127,-43 -52,-16 -118.3241,-28.0208 -141.3241,-41.0208 -31,-18 -78.5583,-12.391 -104.5583,-7.391 -28,4 -71.1262,-7.6433 -49.7381,-18.6228 L 6046.0002,8845 v 0 c 5,27 2,41 -11,55 -16,18 -17,22 -3,38 129,150 696,793 739,838 44,46 69,64 104,74 67,19 147,78 265,198 81,83 100,108 86,110 -10,2 -45,-10 -77,-27 -32,-17 -59,-28 -59,-25 0,4 24,34 52,68 29,33 44,54 34,46 -18,-14 -19,-14 -9,5 6,11 21,29 32,39 25,23 26,35 4,51 -17,13 -33,-1 -166,-153 -26,-29 -47,-49 -47,-46 0,4 7,15 15,24 9,10 18,28 21,41 3,13 8,35 11,49 4,14 16,39 28,55 12,17 25,44 29,60 6,28 3,26 -46,-27 -29,-31 -72,-78 -95,-104 -24,-26 -45,-45 -49,-42 -3,4 11,32 31,63 20,31 30,53 23,49 -7,-5 2,10 19,33 l 33,40 -21,19 c -12,11 -23,14 -27,8 -20,-29 -164,-204 -167,-204 -3,0 11,23 31,50 20,28 33,50 29,50 -4,0 4,15 19,34 30,40 32,49 12,66 -8,6 -12,19 -9,28 10,29 -56,-39 -113,-115 -53,-71 -76,-93 -54,-53 6,10 12,33 14,50 2,17 11,39 20,49 19,20 39,81 27,81 -4,0 -25,-22 -47,-49 -34,-41 -43,-47 -58,-39 -14,8 -21,7 -27,-3 -19,-34 -36,-50 -56,-53 -12,-3 -31,-9 -42,-15 -30,-16 -30,-15 -5,36 31,60 32,83 3,57 -21,-19 -21,-18 1,19 22,37 22,38 4,52 -10,7 -21,12 -24,10 -3,-2 -39,-56 -79,-120 -72,-112 -111,-162 -75,-94 10,19 19,53 20,76 0,23 8,57 16,75 18,37 31,88 24,88 -9,0 -80,-102 -115,-162 -19,-35 -34,-78 -38,-110 -3,-29 -10,-55 -14,-58 -12,-8 -40,-121 -33,-132 3,-5 -13,-38 -35,-74 -23,-36 -41,-67 -41,-69 0,-5 -458,-725 -467,-735 -2,-2 -16,3 -31,12 -26,16 -28,16 -67,-16 -45,-37 -87,-60 -126,-70 l -27,-6 2,-104 c 0,-57 -2,-101.3529 -6,-105.3529 -4,-4 -12.2941,0 -25.2941,9 -12,9 -39.044,15.6276 -57.0439,15.677 -39.4583,0.1083 -11.3881,25.3895 -53.2502,107.6171 30.085,36.5664 6.9547,87.1941 18.5882,82.0588 4,-3 33,18 62,48 62,61 107,163 131,294 14,78 14,78 16,28 3,-48 3,-49 10,-15 4,19 8,28 10,20 5,-33 18,39 19,105 1,78 20,74 22,-5 0,-34 2,-40 9,-25 14,32 11,243 -4,330 -18,103 -48,180 -96,253 -51,76 -191,209 -258,245 -59,32 -176,67 -230,69 -41,2 -226,-20 -257,-29 -11,-4 -34,-5 -51,-4 -23,2 -43,-7 -75,-33 -24,-19 -59,-42 -77,-51 -115,-52 -242,-229 -302,-420 -26,-86 -32,-135 -21,-200 l 9,-50 1,53 c 2,91 18,48 20,-53 1,-52 8,-132 17,-177 16,-91 65,-271 71,-265 2,2 -8,53 -23,113 -41,174 -67,393 -44,379 6,-3 10,-30 10,-58 0,-29 10,-90 21,-137 11,-47 20,-90 21,-97 1,-7 5,-10 9,-8 12,8 37,-80 32,-109 -4,-19 1,-34 15,-49 11,-12 32,-57 48,-100 15,-44 33,-81 41,-84 7,-3 13,-16 13,-29 0,-41 4.4786,-54.1834 33.4786,-67.1834 8.2193,-29.944 126.5196,-88.3562 132.7004,-77.9959 23.1035,-10.793 16.0564,-9.5266 42.0564,-1.5266 50.4072,-3.0327 67.8634,-0.8485 47.7646,37.7059 23.271,-59.5484 -15.8572,9.61 -287.662,-91.7313 -57.0002,-9 -120.6484,-36.9723 -127.6484,-42.9723 -9,-7 -19.5133,-14.1788 -59.5133,-7.1788 -32,6 -93.6759,34.797 -124.6759,34.797 -68.8223,0 -280.5594,49.8453 -376.5594,20.8453 -65.7144,0.7142 -120.2437,-2.7448 -404.474,-38.7185 -185.4741,41.8733 -396.6623,-27.707 -521.4129,-31.4175 C 2428.045,8858.9913 2569.7728,8706.9898 2605,8700 c -7,28 20,17 0,0 -8,-6 -9,29 -18,31 -14,2 -24,-30 0,0 15,20 43,47 61,59 38,27 39,56 2,53 -14,-1 -65,-9 -115,-17 -49,-8 -119,-14 -155,-14 -46,2 -75,-3 -99,-16 -38,-20 -197,-44.1765 -286,-58.1765 -33,-5 -132.6471,-14.7647 -213.6471,-15.7647 -135,-2 -151.8823,-2.1176 -164.8823,-20.1176 -13,-18 -11.8235,-11.4706 -126.8235,-9.4706 L 1359,8671 l -80,50 c -44,27 -83,49 -86,49 -4,0 -26,12 -50,26 -51,30 -50,33 34,96 29,21 53,42 53,46 0,4 -13,13 -28,20 -36,15 -45,36 -67,143 -10,46 -29,113 -44,149 -37,94 -35,143 11,212 20,30 76,96 125,147 l 88,92 40,-20 c 60,-28 100,-34 114,-18 9,11 8,36 -3,108 -7,52 -13,146 -11,209 2,102 7,128 39,225 44,130 101,240 204,390 198,289 460,565 957,1009 511,455 556,557 351,791 -19,22 -35,36 -36,32 z m 2020,-2051 c 0,-2 -7,-6 -15,-10 -8,-3 -15,-1 -15,4 0,6 7,10 15,10 8,0 15,-2 15,-4 z m 500,-366 c 6,-11 8,-20 6,-20 -3,0 -10,9 -16,20 -6,11 -8,20 -6,20 3,0 10,-9 16,-20 z m 1380,7 c 0,-2 -9,-15 -21,-28 -11,-13 -18,-31 -16,-41 3,-11 -14,-39 -44,-75 -166,-196 -775,-892 -781,-892 -5,-1 -8,24 -8,55 v 55 l 283,357 c 346,436 339,428 396,447 25,8 78,40 116,70 69,54 75,58 75,52 z m -533,-94 c 0,-24 -69,-128 -325,-488 -148,-209 -221,-303 -238,-309 -14,-4 -27,-6 -30,-3 -5,5 430,691 453,715 7,8 18,22 23,33 9,16 91,67 111,69 3,0 6,-8 6,-17 z M 4262,9805 c -11,-53 -21,-83 -24,-73 -6,15 30,173 38,165 2,-1 -5,-43 -14,-92 z m 28,-30 c -18,-102 -20,-105 -16,-40 4,68 27,179 32,160 2,-6 -5,-59 -16,-120 z m 2267,97 c -10,-10 -17,-21 -17,-25 0,-7 -490,-628 -521,-662 -19,-19 -19,-19 -19,7 0,18 65,108 236,324 235,298 301,374 325,374 8,0 7,-6 -4,-18 z m -120,-26 c -13,-34 -511,-653 -540,-671 l -32,-19 26,34 c 14,19 108,152 209,295 102,143 188,261 192,263 4,2 16,18 27,36 14,22 34,37 61,46 23,7 43,17 46,22 8,13 17,9 11,-6 z M 4387,9328 c -3,-7 -5,-2 -5,12 0,14 2,19 5,13 2,-7 2,-19 0,-25 z m 1963,-428 c -8,-5 -22,-9 -30,-9 -10,0 -8,3 5,9 27,12 43,12 25,0 z m -50,-14 c 0,-2 -13,-9 -30,-15 -35,-12 -41,-5 -7,9 25,10 37,12 37,6 z M 1677,8684 c -3,-3 -12,-4 -19,-1 -8,3 -5,6 6,6 11,1 17,-2 13,-5 z m 113,2 c 0,-9 -40,-13 -46,-5 -3,5 6,9 20,9 14,0 26,-2 26,-4 z m 53,-3 c -7,-2 -19,-2 -25,0 -7,3 -2,5 12,5 14,0 19,-2 13,-5 z M 5770.8235,7459 5748,7333 l -30,-17 c -16,-10 0,0 -33,-14 -2.6038,-1.1046 52,-16 63,31 19,89 58.4706,253.4706 6,255 1,-2 18.8235,-60 16.8235,-129 z M 7041,880 c 5,0 9,-4 9,-9 0,-4 -11,-6 -25,-3 -14,2 -25,9 -25,14 0,6 7,7 16,4 9,-3 20,-6 25,-6 z"
       id="path4"
       sodipodi:nodetypes="cccscccccccccccccccccccccccccccssssscccccsssscccccccsssscccccccccccccccscccssccccssscccccsccccccsccccccccccssccscsccccsccccccccsccccccccccscccccscccccscccccccscccccccccscccsccccccccscccccccccscccsccccccccccccsscccccccsssssssccccsscsccccccccsscscsccccccssccsccccccccccccccccccssccccsccccccsccccsccccccccssccccccscsccccccscccccscscccccscscccccccscsccccscccccsccccccscsccccccccccccccccccccccccsccssscccccscccccccsccccccccccccccscccsccscccscccccccccccscsssssssssccccsccccssccscccscccccccccscscsccccccscccccscccsccsccsccccscssccsccccscccsscsss" />
    <path
       d="M3096 11790 c10 -36 50 -114 189 -370 67 -124 182 -340 255 -480 73 -140 160 -304 193 -365 87 -161 469 -806 474 -802 2 2 -83 150 -188 328 -237 400 -253 430 -457 819 -90 173 -214 405 -275 515 -61 110 -130 241 -154 290 -24 50 -41 79 -37 65z"
       id="path6" />
    <path
       d="M4105 7300 c-9 -16 -13 -30 -11 -30 3 0 12 14 21 30 9 17 13 30 11 30 -3 0 -12 -13 -21 -30z"
       id="path8" />
    <path
       d="M4060 7220 c-11 -22 -18 -40 -15 -40 2 0 14 18 25 40 11 22 18 40 15 40 -2 0 -14 -18 -25 -40z"
       id="path10" />
    <path
       d="M3995 7100 c-19 -38 -33 -70 -30 -70 2 0 21 32 40 70 19 39 33 70 30 70 -2 0 -21 -31 -40 -70z"
       id="path12" />
    <path
       d="M3930 6980 c-11 -22 -18 -40 -15 -40 2 0 14 18 25 40 11 22 18 40 15 40 -2 0 -14 -18 -25 -40z"
       id="path14" />
    <path
       d="M3875 6880 c-14 -27 -23 -50 -20 -50 2 0 16 23 30 50 14 28 23 50 20 50 -2 0 -16 -22 -30 -50z"
       id="path16" />
    <path
       d="M3815 6770 c-14 -27 -23 -50 -20 -50 2 0 16 23 30 50 14 28 23 50 20 50 -2 0 -16 -22 -30 -50z"
       id="path18" />
    <path
       d="M3740 6630 c-17 -33 -28 -60 -25 -60 2 0 18 27 35 60 17 33 28 60 25 60 -2 0 -18 -27 -35 -60z"
       id="path20" />
    <path
       d="M3650 6460 c-22 -44 -38 -80 -35 -80 3 0 23 36 45 80 22 44 38 80 35 80 -3 0 -23 -36 -45 -80z"
       id="path22" />
    <path
       d="M3535 6239 c-4 -6 -5 -12 -2 -15 2 -3 7 2 10 11 7 17 1 20 -8 4z"
       id="path24" />
    <path
       d="M3500 6169 c-12 -23 -20 -43 -18 -45 3 -2 14 17 26 41 27 56 20 60 -8 4z"
       id="path26" />
    <path
       d="M3285 5740 c-14 -27 -23 -50 -20 -50 2 0 16 23 30 50 14 28 23 50 20 50 -2 0 -16 -22 -30 -50z"
       id="path28" />
    <path
       d="M3200 5580 c-11 -22 -18 -40 -15 -40 2 0 14 18 25 40 11 22 18 40 15 40 -2 0 -14 -18 -25 -40z"
       id="path30" />
    <path
       d="M3105 5400 c-14 -27 -23 -50 -20 -50 2 0 16 23 30 50 14 28 23 50 20 50 -2 0 -16 -22 -30 -50z"
       id="path32" />
    <path
       d="M2996 5185 c-9 -26 -7 -32 5 -12 6 10 9 21 6 23 -2 3 -7 -2 -11 -11z"
       id="path34" />
  </g>
</svg>
