<?xml version="1.0" encoding="UTF-8" standalone="no"?>
<svg
   xmlns:dc="http://purl.org/dc/elements/1.1/"
   xmlns:cc="http://creativecommons.org/ns#"
   xmlns:rdf="http://www.w3.org/1999/02/22-rdf-syntax-ns#"
   xmlns:svg="http://www.w3.org/2000/svg"
   xmlns="http://www.w3.org/2000/svg"
   xmlns:sodipodi="http://sodipodi.sourceforge.net/DTD/sodipodi-0.dtd"
   xmlns:inkscape="http://www.inkscape.org/namespaces/inkscape"
   version="1.0"
   width="800.000000pt"
   height="1280.000000pt"
   viewBox="0 0 800.000000 1280.000000"
   preserveAspectRatio="xMidYMid meet"
   id="svg38"
   sodipodi:docname="70archer.svg"
   inkscape:version="1.0.2 (e86c870879, 2021-01-15, custom)">
  <defs
     id="defs42" />
  <sodipodi:namedview
     pagecolor="#ffffff"
     bordercolor="#666666"
     borderopacity="1"
     objecttolerance="10"
     gridtolerance="10"
     guidetolerance="10"
     inkscape:pageopacity="0"
     inkscape:pageshadow="2"
     inkscape:window-width="1920"
     inkscape:window-height="1017"
     id="namedview40"
     showgrid="false"
     inkscape:zoom="0.35217233"
     inkscape:cx="1953.6982"
     inkscape:cy="1029.8169"
     inkscape:window-x="-8"
     inkscape:window-y="-8"
     inkscape:window-maximized="1"
     inkscape:current-layer="svg38"
     inkscape:document-rotation="0" />
  <metadata
     id="metadata2">
Created by potrace 1.15, written by Peter Selinger 2001-2017
<rdf:RDF>
  <cc:Work
     rdf:about="">
    <dc:format>image/svg+xml</dc:format>
    <dc:type
       rdf:resource="http://purl.org/dc/dcmitype/StillImage" />
    <dc:title></dc:title>
  </cc:Work>
</rdf:RDF>
</metadata>
  <g
     transform="translate(0.000000,1280.000000) scale(0.100000,-0.100000)"
     fill="#000000"
     stroke="none"
     id="g36">
    <path
       d="m 2970,12427 c 0,-5 14,-41 31,-80 35,-80 47,-198 22,-219 -7,-6 -13,-14 -13,-19 0,-22 -93,-142 -165,-214 -45,-44 -182,-166 -305,-271 -531,-451 -694,-627 -1186,-1281 -311,-413 -318,-426 -261,-490 l 36,-39 -110,-97 C 843,9559 761,9447 776,9383 c 4,-15 33,-63 65,-106 54,-73 59,-83 59,-130 -1,-87 -47,-162 -113,-183 l -28,-9 69,-62 c 75,-67 84,-87 75,-166 l -6,-49 -195,3 c -164,3 -195,6 -199,19 -3,8 -7,21 -9,28 -3,10 -15,7 -46,-11 -64,-37 -107,-48 -236,-61 l -117,-12 102,-7 c 116,-9 202,-29 249,-57 41,-26 43,-25 55,10 l 11,30 h 154 154 l -6,-28 c -8,-39 17,-62 67,-62 21,0 39,-4 39,-10 0,-5 -24,-10 -53,-10 -60,0 -77,-12 -77,-52 0,-31 24,-48 67,-48 h 27 l -22,-16 c -40,-28 -25,-78 26,-86 42,-6 18,-23 -29,-20 -34,2 -48,-1 -52,-12 -6,-16 16,-46 34,-46 5,0 9,-4 9,-9 0,-4 -20,-14 -45,-21 -25,-7 -45,-15 -45,-18 0,-2 16,-22 35,-43 64,-71 95,-159 81,-233 -4,-21 -27,-57 -61,-95 -88,-99 -76,-138 101,-321 l 115,-118 -53,-20 c -76,-28 -78,-37 -34,-127 21,-42 44,-79 52,-82 8,-3 14,-10 14,-16 0,-13 132,-187 142,-187 5,0 8,-5 8,-11 0,-5 17,-36 39,-67 21,-31 69,-109 106,-172 97,-163 149,-239 318,-463 189,-250 269,-339 497,-557 523,-498 654,-643 750,-828 33,-64 55,-180 40,-212 -4,-8 -14,-31 -23,-51 -8,-20 -36,-62 -62,-93 -52,-64 -31,-60 38,8 58,56 96,130 103,204 12,110 -50,234 -237,475 -35,45 -203,222 -374,392 -325,325 -419,430 -552,617 -180,253 -289,450 -347,623 -55,169 -66,269 -48,459 10,109 8,204 -4,216 -8,8 -32,4 -87,-13 l -75,-24 -45,46 c -94,98 -157,196 -157,242 0,12 15,56 34,98 19,42 44,117 56,167 17,73 28,100 56,133 l 35,41 -57,25 c -31,14 -55,27 -53,29 9,9 291,86 314,86 19,0 25,-5 25,-22 0,-34 11,-45 60,-59 25,-7 49,-19 53,-26 9,-15 57,-48.9446 101,-35.9446 17,5 90.2964,-7.9584 136.2964,1.0416 74,13 51.3934,2.3518 70.3934,-9.6482 13,-10 119.6041,-65.0779 112.6343,3.6343 -4.7431,46.7601 85.2214,-81.1522 99.2214,-91.1522 20,-13 33.9862,50.8892 58.9862,63.8892 24,13 24.7036,-44.5651 111.7036,-53.5651 57,-6 231.9641,-149.4737 287.9641,-147.4737 73,2 18.9645,219.3284 37.9645,209.3284 -3.3896,-20.1737 -9.2033,-26.2754 0,0 4,16 28.3108,38.9679 0,0 -122.7289,-168.9283 135.3654,-238.1128 253.9515,-99.3748 33.8974,-19.9746 -33.8974,-28.5579 0,0 5.2763,-102.3785 96.7682,-187.3403 357.4947,-204.5547 268.8434,-125.153 423.9782,19.2943 349.8699,-6.2318 131.3333,-441.8742 765.3455,219.585 626.0494,294.8163 18.0758,-89.2039 -536.9641,-418.3008 24.4706,-158.8235 v 0 l -86.4118,-11.1177 c -29.1402,-23.9666 -327.1697,55.0158 -90.9895,-95.97 -65.707,0.4723 -464.1831,-240.2629 -381.1035,-480.2074 -43.9904,-448.6371 607.6343,-156.1267 478.8589,-37.8041 -24.1728,22.2107 242.4635,-107.1617 337.5477,-64.956 C 4458.9558,7283.3487 4158,7399 4167,7385 c 3.3587,-80.9065 17,33 -34,-45 -9,-16 -3,0 0,0 3,0 18,20 34,45 15,25 -54.8291,-35.3412 -53.1787,-37.8465 47.5102,-72.1223 -419.7613,-33.578 -367.5352,-269.9172 -338.4066,-268.3813 -747.7921,-791.4053 -354.3935,-1192.3908 134.7983,-665.1006 703.2272,-25.8005 555.357,263.7856 -22.0201,-217.4405 -291.6728,-218.4695 -315.3528,-480.6413 -114.6937,-478.6662 118.6579,-482.891 86.4565,-423.5397 -29.7052,54.7504 4.3125,85.8026 -6.6875,13.8026 -152.6603,-396.3823 -91.9943,-796.2338 65.8914,-1030.8131 18,-96 61.8513,-216.2319 91.8513,-329.2319 31.5577,-223.4423 61.2588,-365.2719 174.6022,-523.9285 -4.126,-157.815 151.2308,-229.1759 177.9895,-162.2792 -12,-13 21,6 0,0 -34,-11 -60.5882,-4.7059 -77.5882,-60.7059 -10,-34 -21.6943,-60.3218 -18.6943,-66.3218 4,-5 23.1475,-32.4417 20.2825,-24.9723 -22.9788,59.9089 -41.0287,-7.2377 -42.2964,-30.662 -4,-15 -9.4683,-40.5733 -15.4683,-65.5733 -7,-28 -40.7359,-137.4406 -39.7359,-288.4406 5,-434 2.5272,-456.1776 19.5272,-470.1776 11,-9 17.217,-67.1175 25.0502,-241.5881 7.8332,-174.4707 78.5114,-184.2055 69.5114,-277.2055 -5,-48 25.2353,-65.1176 36.2353,-78.1176 8,-9 18.2353,-65.2353 28.2353,-131.2353 10,-64 21.6448,-139.9931 31.6448,-163.9931 19,-45 22.6621,-107.3379 2.6621,-229.3379 -5,-33 7.6028,-68.9056 2.6551,-77 -5.5012,-9.00002 -7.2079,-30.669 -1.3518,-47.669 -14,-28 -12.669,-34 -0.669,-43 13.2616,-19.4346 10.896,-101.52599 12,-156 -11,-38 -31,-68 -79,-118 -91,-97 -143,-227 -102,-260 26,-21 89,-52 106,-52 10,0 24,-7 31,-15 16,-19 54,-19 70,0 11,13 15,14 29,1 45,-39 122,-20 146,36 7,19 23,42 35,53 34,31 50,70 50,119 0,38 6,53 33,83 73,83 82,102 88,198 3,50 12,104 19,120 22,48 68.2825,188.662 56.2825,212.662 -7,12 23.8823,70.338 24.8823,147.338 2,116 2.2353,140 30.2353,227 23,67 -10.7519,92.6759 1.2481,95.6759 14,4 18,23.9861 18,62.9861 0,28 38.7428,116.8974 32.7428,119.8974 -15,9 11.6909,-2.368 34.6909,154.632 28.0879,193.9498 11.5234,224.1325 23.7577,270.7129 27.8129,28.4064 19.9657,82.6708 -0.1845,122.0957 14.5969,14.0448 17.7102,51.5738 16.9919,147.7647 0,68 -8.5294,170.0588 -11.5294,209.0588 -1.8825,89.5873 -34.783,54.8497 -11.1176,64.1765 23,10 3.7036,18.662 0.7036,71.662 -3,48 19.6205,57.0035 1.6205,65.0035 -17,7 -18.3414,17.3345 -18.3414,41.3345 0,18 -13.3807,42.6863 -17.3807,42.6863 -5,1 13,-11 0,0 v 0 c 22.3533,-39.1557 18.8184,42.5612 5.4256,57.4233 -26.6019,29.5203 17.5606,-15.532 4.5606,83.5963 -6,35 -22.5882,76.4706 -27.5882,82.4706 2.4095,5.3181 -5.8492,26.5933 -17,54.8235 -3.0226,-131.0848 194.5157,87.7779 165.558,367.6125 139.8527,365.143 124.7233,472.544 159.909,711.5928 71.6084,139 -12.5473,328.6453 -35.271,513.692 6.5571,136.7499 10.8022,289.8573 -98.3033,434.1131 -7,56 -21,11 0,0 11,-6 -3.4166,0.09 3.4591,-11 32.3903,-52.2411 104.2775,0.2052 86.6482,32.9896 19,24 -34.9654,-3.3033 -19.9654,-17.3033 8,-9 -17.2329,-36.376 -5.5535,-104.376 -13.276,-79.9792 -9.5404,-207.9677 18.2445,-255.9677 21.4964,-140.5807 15.8515,-502.0835 161.2344,-694.8258 35.3785,-97.4486 69.9909,-160.4988 154.2536,-276.429 -3.8971,-121.322 163.9626,-370.7662 290.1465,-481.6771 14.0167,-81.4703 194.5101,-241.3955 137.5028,-135.7036 11.7793,-34.455 31.2725,-48.7163 23.7116,-39.7902 -23.6343,-10.993 49.6874,-29.5894 49.6874,-54.5894 0,-25 26.2675,-51.3379 18.2675,-61.3379 -18,-26 3.4118,-87.9412 37.4118,-105.9412 24,-12 9,16 0,0 -7,-13 -15.4706,-27 -7.4706,-47 6,-15 20.4706,-45.8823 21.4706,-65.8823 1,-19 -5,-50.0589 7,-69.0589 11,-19 30.2941,-37.1176 27.2941,-44.1176 -2,-7 -4.647,-64.3529 20.353,-115.3529 42.2951,-87 6.4867,-87.5883 70.1764,-140.5883 -7,-76 -16.9654,-103.7647 43.0346,-146.7647 13.5108,-37.4954 20.6805,-48.6115 35.7589,-72.7208 3,-20 13.7763,-49.3311 19.7763,-64.3311 6,-14 7.2827,-43.8719 32.7827,-80.8719 25.5,-37 32.8517,-77.827 61.8517,-128.827 29,-51 54.3679,-101.4925 79.3679,-160.4925 42,-103 68.7925,-115.2573 70.7925,-153.2573 1,-10 24.0737,-38.6482 38.0737,-51.6482 14,-13 30.3241,-33.4267 30.3241,-38.4267 0,-5 -1.5731,-28.3229 27.4269,-50.3229 45,-37 51.7785,-49.338 79.7785,-122.338 18,-46 74.722,-76.9401 77.722,-93.9401 4,-16 9.6759,-49.2064 20.6759,-64.2064 12,-18 49.8696,-36.9112 50.8696,-80.9112 0,-35 6,-72 11,-83 6,-11 10,-51 8,-88 -2,-57 2,-75 23,-111 14,-24 37,-51 51,-60 14,-9 25,-23 25,-31 0,-25 23,-65 37,-65 7,0 13,5 13,11 0,6 14,-3 31,-20 25,-25 39,-31 74,-31 38,0 47,-5 73,-36 16,-19 47,-66 68,-102 51,-87 107,-148 164,-177 25,-13 52,-35 60,-49 34,-64 130,-87 176,-41 14,14 34,25 44,25 13,0 22,9 26,26 4,15 15,35 25,45 11,11 16,25 12,36 -9,22 -8,66 0,81 21,33 -111,203 -205,263 -42,27 -51,40 -77,107 -16,42 -61,142 -99,222 -75.3467,202 -79.6479,238 -92,305 12,52 12,53 -27,136 -48,100 -70,186 -77,296 -1,12 -4.3529,31 -14.3529,42 -10,11 -13.353,33.1176 -15.353,51.1176 -2,18 -9.8823,62.2942 -14.8823,84.2942 -18,67 -25.0566,271.5582 -25.0566,321.5582 0,26 -3.4406,85.03 -9.4406,101.03 -8,21 -71.6078,209.3414 -71.6078,226.3414 0,2 -10.3068,4.6586 -5.3068,1.6586 14,-9 12,7 -5,49 -8,19 -20,59 -26,88 -13,62 -42,121 -67,140 -10,7 -17.8235,50.2941 -32.8235,81.2941 -16,32 -34.2042,59.6955 -81.2042,135.6955 -47,76 -114.3252,113.6575 -114.3252,66.6575 0,-23 8.2941,-25.2353 0.2941,-17.2353 -6,6 59.5294,-20.7647 58.5294,22.2353 0.7707,43.7691 -27.4716,108.4363 -66.4706,117.3529 -4,7 -31,12 -65,12 -31,0 47.5997,-7.331 38.5997,-1.331 -6.3234,-40.4469 118.3772,-77.7528 -43.9701,456.2699 -18,348 -10.7059,407.9723 -34.7059,594.9723 -8.6703,374.9695 13.7339,810.868 -201.3275,1140.1312 -36.2245,-238.8573 215.6129,110.5876 -0.11,472.9664 4.7297,0.46 33.7219,-28.9695 -64.3648,126.3953 5.7531,-42.2194 155.4158,-320.266 33.9383,241.2258 31.9237,-187.1198 80.1184,383.4309 -249.7901,561.5754 -22.2894,52.5997 0,0 0,0 -1.6845,65.3808 -165.4503,80.0585 -159.1751,96.5883 26.1397,84.8819 -92.449,97.2405 -114.7416,191.2064 -165.9522,-76.3145 334.8617,-476.5919 279.2225,86.3427 35.926,132.556 -177.6783,458.5694 -207.4578,421.8926 21.4283,-40.9838 190.3663,-254.3236 138.5295,148.5882 -49.633,17.6481 -96.9012,-448.9329 291.6493,45.8155 155.8991,-38.8829 266.7493,131.1305 362.6482,219.4164 22.6629,-10.7528 71.2999,36.5144 95.3795,31.3241 17,-5 36.6759,22.6205 51.6759,26.6205 16,5 41,12 57,15 16,3 43,22 60,41 17,19 52,48 78,64 81,50 103,113 60,168 -12,15 -40,57 -62,93 -43,73 -69,94 -124,104 -20,4 -36,11 -36,16 0,10 -34,29 -62,34 -11,3 -23,6 -25,9 -2,2 25,30 61,61 36,32 63,62 60,66 -8,13 -58,11 -95,-5 -19,-8 -76,-21 -128,-30 -77,-13 -101,-14 -128,-4 -27,10 -40,10 -66,-1 -17,-7 -75,-26 -127,-43 -52,-16 -118.3241,-28.0208 -141.3241,-41.0208 -31,-18 -78.5583,-12.391 -104.5583,-7.391 -28,4 -71.1262,-7.6433 -49.7381,-18.6228 L 6046.0002,8845 v 0 c 5,27 2,41 -11,55 -16,18 -17,22 -3,38 129,150 696,793 739,838 44,46 69,64 104,74 67,19 147,78 265,198 81,83 100,108 86,110 -10,2 -45,-10 -77,-27 -32,-17 -59,-28 -59,-25 0,4 24,34 52,68 29,33 44,54 34,46 -18,-14 -19,-14 -9,5 6,11 21,29 32,39 25,23 26,35 4,51 -17,13 -33,-1 -166,-153 -26,-29 -47,-49 -47,-46 0,4 7,15 15,24 9,10 18,28 21,41 3,13 8,35 11,49 4,14 16,39 28,55 12,17 25,44 29,60 6,28 3,26 -46,-27 -29,-31 -72,-78 -95,-104 -24,-26 -45,-45 -49,-42 -3,4 11,32 31,63 20,31 30,53 23,49 -7,-5 2,10 19,33 l 33,40 -21,19 c -12,11 -23,14 -27,8 -20,-29 -164,-204 -167,-204 -3,0 11,23 31,50 20,28 33,50 29,50 -4,0 4,15 19,34 30,40 32,49 12,66 -8,6 -12,19 -9,28 10,29 -56,-39 -113,-115 -53,-71 -76,-93 -54,-53 6,10 12,33 14,50 2,17 11,39 20,49 19,20 39,81 27,81 -4,0 -25,-22 -47,-49 -34,-41 -43,-47 -58,-39 -14,8 -21,7 -27,-3 -19,-34 -36,-50 -56,-53 -12,-3 -31,-9 -42,-15 -30,-16 -30,-15 -5,36 31,60 32,83 3,57 -21,-19 -21,-18 1,19 22,37 22,38 4,52 -10,7 -21,12 -24,10 -3,-2 -39,-56 -79,-120 -72,-112 -111,-162 -75,-94 10,19 19,53 20,76 0,23 8,57 16,75 18,37 31,88 24,88 -9,0 -80,-102 -115,-162 -19,-35 -34,-78 -38,-110 -3,-29 -10,-55 -14,-58 -12,-8 -40,-121 -33,-132 3,-5 -13,-38 -35,-74 -23,-36 -41,-67 -41,-69 0,-5 -458,-725 -467,-735 -2,-2 -16,3 -31,12 -26,16 -28,16 -67,-16 -45,-37 -87,-60 -126,-70 l -27,-6 2,-104 c 0,-57 -2,-101.3529 -6,-105.3529 -2.8567,-2.8567 -3.8847,8.4094 -25.2941,9 -8.054,27.3599 -66.4197,30.4105 -61.037,22.3321 20.3204,-30.4971 2.7223,90.762 -39.9399,96.9689 31.4375,16.1949 16.9531,65.8881 17.2571,75.4037 4,-3 25.0139,28.6482 54.0139,58.6482 62,61 107,163 131,294 14,78 14,78 16,28 3,-48 3,-49 10,-15 4,19 8,28 10,20 5,-33 18,39 19,105 1,78 20,74 22,-5 0,-34 2,-40 9,-25 14,32 11,243 -4,330 -18,103 -48,180 -96,253 -51,76 -191,209 -258,245 -59,32 -176,67 -230,69 -41,2 -226,-20 -257,-29 -11,-4 -34,-5 -51,-4 -23,2 -43,-7 -75,-33 -24,-19 -59,-42 -77,-51 -115,-52 -242,-229 -302,-420 -26,-86 -32,-135 -21,-200 l 9,-50 1,53 c 2,91 18,48 20,-53 1,-52 8,-132 17,-177 16,-91 65,-271 71,-265 2,2 -8,53 -23,113 -41,174 -67,393 -44,379 6,-3 10,-30 10,-58 0,-29 10,-90 21,-137 11,-47 20,-90 21,-97 1,-7 5,-10 9,-8 12,8 37,-80 32,-109 -4,-19 1,-34 15,-49 11,-12 32,-57 48,-100 15,-44 33,-81 41,-84 7,-3 13,-16 13,-29 0,-41 4.4786,-54.1834 33.4786,-67.1834 3.2279,-44.0944 114.5507,-130.9347 132.7004,-77.9959 23.1035,-10.793 16.0564,-9.5266 42.0564,-1.5266 50.4072,-3.0327 67.8634,-0.8485 47.7646,37.7059 23.271,-59.5484 -85.9307,9.61 -287.662,-91.7313 -57.0002,-9 -120.6484,-21.9135 -127.6484,-27.9135 -9,-7 -19.1903,11.5283 -59.1903,18.5283 -34.6168,9.9253 -82.0942,4.8728 -102.4107,9.0899 -74.6027,15.4854 -283.1969,73.4595 -415.1199,8.4485 -66.0686,1.5996 -216.1692,42.6758 -490.1487,30.1489 -515.4158,-51.2853 -387.6847,-132.4059 -419.7659,-102.9469 C 2133.1335,8914.9298 2569.7728,8706.9898 2605,8700 c -7,28 20,17 0,0 -8,-6 -9,29 -18,31 -14,2 -24,-30 0,0 15,20 43,47 61,59 38,27 57.8235,71.0588 20.8235,68.0588 -14,-1 -83.8235,-24.0588 -133.8235,-32.0588 -49,-8 -119,-14 -155,-14 -46,2 -101.3529,12.0588 -125.3529,-0.9412 -38,-20 -170.6471,-32.8824 -259.6471,-46.8824 -33,-5 -128.8824,-18.5294 -209.8824,-19.5294 -135,-2 -163.1764,-5.8823 -176.1764,-23.8823 -13,-18 -4.2941,-30.2941 -119.2941,-28.2941 L 1359,8671 l -80,50 c -44,27 -83,49 -86,49 -4,0 -26,12 -50,26 -51,30 -50,33 34,96 29,21 53,42 53,46 0,4 -13,13 -28,20 -36,15 -45,36 -67,143 -10,46 -29,113 -44,149 -37,94 -35,143 11,212 20,30 76,96 125,147 l 88,92 40,-20 c 60,-28 100,-34 114,-18 9,11 8,36 -3,108 -7,52 -13,146 -11,209 2,102 7,128 39,225 44,130 101,240 204,390 198,289 460,565 957,1009 511,455 556,557 351,791 -19,22 -35,36 -36,32 z m 2020,-2051 c 0,-2 -7,-6 -15,-10 -8,-3 -15,-1 -15,4 0,6 7,10 15,10 8,0 15,-2 15,-4 z m 500,-366 c 6,-11 8,-20 6,-20 -3,0 -10,9 -16,20 -6,11 -8,20 -6,20 3,0 10,-9 16,-20 z m 1380,7 c 0,-2 -9,-15 -21,-28 -11,-13 -18,-31 -16,-41 3,-11 -14,-39 -44,-75 -166,-196 -775,-892 -781,-892 -5,-1 -8,24 -8,55 v 55 l 283,357 c 346,436 339,428 396,447 25,8 78,40 116,70 69,54 75,58 75,52 z m -533,-94 c 0,-24 -69,-128 -325,-488 -148,-209 -221,-303 -238,-309 -14,-4 -27,-6 -30,-3 -5,5 430,691 453,715 7,8 18,22 23,33 9,16 91,67 111,69 3,0 6,-8 6,-17 z M 4262,9805 c -11,-53 -21,-83 -24,-73 -6,15 30,173 38,165 2,-1 -5,-43 -14,-92 z m 28,-30 c -18,-102 -20,-105 -16,-40 4,68 27,179 32,160 2,-6 -5,-59 -16,-120 z m 2267,97 c -10,-10 -17,-21 -17,-25 0,-7 -490,-628 -521,-662 -19,-19 -19,-19 -19,7 0,18 65,108 236,324 235,298 301,374 325,374 8,0 7,-6 -4,-18 z m -120,-26 c -13,-34 -511,-653 -540,-671 l -32,-19 26,34 c 14,19 108,152 209,295 102,143 188,261 192,263 4,2 16,18 27,36 14,22 34,37 61,46 23,7 43,17 46,22 8,13 17,9 11,-6 z M 4387,9328 c -3,-7 -5,-2 -5,12 0,14 2,19 5,13 2,-7 2,-19 0,-25 z m 1963,-428 c -8,-5 -22,-9 -30,-9 -10,0 -8,3 5,9 27,12 43,12 25,0 z m -50,-14 c 0,-2 -13,-9 -30,-15 -35,-12 -41,-5 -7,9 25,10 37,12 37,6 z M 1677,8684 c -3,-3 -12,-4 -19,-1 -8,3 -5,6 6,6 11,1 17,-2 13,-5 z m 113,2 c 0,-9 -40,-13 -46,-5 -3,5 6,9 20,9 14,0 26,-2 26,-4 z m 53,-3 c -7,-2 -19,-2 -25,0 -7,3 -2,5 12,5 14,0 19,-2 13,-5 z M 5770.8235,7459 5748,7333 l -30,-17 c -16,-10 0,0 -33,-14 -2.6038,-1.1046 52,-16 63,31 19,89 58.4706,253.4706 6,255 1,-2 18.8235,-60 16.8235,-129 z M 7041,880 c 5,0 9,-4 9,-9 0,-4 -11,-6 -25,-3 -14,2 -25,9 -25,14 0,6 7,7 16,4 9,-3 20,-6 25,-6 z"
       id="path4"
       sodipodi:nodetypes="cccscccccccccccccccccccccccccccssssscccccsssscccccccsssscccccccccccccccscccssccccssscccccsccccccsccccccccccssccscsccccsccccccccsccccccccccscccccscccccscccccccscccccccccscccsccccccccscccccccccscccsccccccccccccsscccccccsssssssccccsscsccccccccsscscsccccccssccsccccccccccccccccccssccccsccccccsccccsccccccccssccccccscsccccccscccccscscccccscscccccccscsccccscccccsccccccscsccccccccccccccccccccccccsccssscccccscccccccsccccccccccccccscccsccscccscccccccccccscsssssssssccccsccccssccscccscccccccccscscsccccccscccccscccsccsccsccccscssccsccccscccsscsss" />
    <path
       d="M3096 11790 c10 -36 50 -114 189 -370 67 -124 182 -340 255 -480 73 -140 160 -304 193 -365 87 -161 469 -806 474 -802 2 2 -83 150 -188 328 -237 400 -253 430 -457 819 -90 173 -214 405 -275 515 -61 110 -130 241 -154 290 -24 50 -41 79 -37 65z"
       id="path6" />
    <path
       d="M4105 7300 c-9 -16 -13 -30 -11 -30 3 0 12 14 21 30 9 17 13 30 11 30 -3 0 -12 -13 -21 -30z"
       id="path8" />
    <path
       d="M4060 7220 c-11 -22 -18 -40 -15 -40 2 0 14 18 25 40 11 22 18 40 15 40 -2 0 -14 -18 -25 -40z"
       id="path10" />
    <path
       d="M3995 7100 c-19 -38 -33 -70 -30 -70 2 0 21 32 40 70 19 39 33 70 30 70 -2 0 -21 -31 -40 -70z"
       id="path12" />
    <path
       d="M3930 6980 c-11 -22 -18 -40 -15 -40 2 0 14 18 25 40 11 22 18 40 15 40 -2 0 -14 -18 -25 -40z"
       id="path14" />
    <path
       d="M3875 6880 c-14 -27 -23 -50 -20 -50 2 0 16 23 30 50 14 28 23 50 20 50 -2 0 -16 -22 -30 -50z"
       id="path16" />
    <path
       d="M3815 6770 c-14 -27 -23 -50 -20 -50 2 0 16 23 30 50 14 28 23 50 20 50 -2 0 -16 -22 -30 -50z"
       id="path18" />
    <path
       d="M3740 6630 c-17 -33 -28 -60 -25 -60 2 0 18 27 35 60 17 33 28 60 25 60 -2 0 -18 -27 -35 -60z"
       id="path20" />
    <path
       d="M3650 6460 c-22 -44 -38 -80 -35 -80 3 0 23 36 45 80 22 44 38 80 35 80 -3 0 -23 -36 -45 -80z"
       id="path22" />
    <path
       d="M3535 6239 c-4 -6 -5 -12 -2 -15 2 -3 7 2 10 11 7 17 1 20 -8 4z"
       id="path24" />
    <path
       d="M3500 6169 c-12 -23 -20 -43 -18 -45 3 -2 14 17 26 41 27 56 20 60 -8 4z"
       id="path26" />
    <path
       d="M3285 5740 c-14 -27 -23 -50 -20 -50 2 0 16 23 30 50 14 28 23 50 20 50 -2 0 -16 -22 -30 -50z"
       id="path28" />
    <path
       d="M3200 5580 c-11 -22 -18 -40 -15 -40 2 0 14 18 25 40 11 22 18 40 15 40 -2 0 -14 -18 -25 -40z"
       id="path30" />
    <path
       d="M3105 5400 c-14 -27 -23 -50 -20 -50 2 0 16 23 30 50 14 28 23 50 20 50 -2 0 -16 -22 -30 -50z"
       id="path32" />
    <path
       d="M2996 5185 c-9 -26 -7 -32 5 -12 6 10 9 21 6 23 -2 3 -7 -2 -11 -11z"
       id="path34" />
  </g>
</svg>
